G04 #@! TF.GenerationSoftware,KiCad,Pcbnew,6.0.7*
G04 #@! TF.CreationDate,2022-08-31T22:31:15-07:00*
G04 #@! TF.ProjectId,gbpunk,67627075-6e6b-42e6-9b69-6361645f7063,v4.0*
G04 #@! TF.SameCoordinates,Original*
G04 #@! TF.FileFunction,Copper,L2,Bot*
G04 #@! TF.FilePolarity,Positive*
%FSLAX46Y46*%
G04 Gerber Fmt 4.6, Leading zero omitted, Abs format (unit mm)*
G04 Created by KiCad (PCBNEW 6.0.7) date 2022-08-31 22:31:15*
%MOMM*%
%LPD*%
G01*
G04 APERTURE LIST*
G04 #@! TA.AperFunction,ComponentPad*
%ADD10C,1.500000*%
G04 #@! TD*
G04 #@! TA.AperFunction,ComponentPad*
%ADD11O,1.000000X2.100000*%
G04 #@! TD*
G04 #@! TA.AperFunction,ComponentPad*
%ADD12O,1.000000X1.600000*%
G04 #@! TD*
G04 #@! TA.AperFunction,ComponentPad*
%ADD13C,0.600000*%
G04 #@! TD*
G04 #@! TA.AperFunction,ViaPad*
%ADD14C,0.600000*%
G04 #@! TD*
G04 #@! TA.AperFunction,ViaPad*
%ADD15C,1.000000*%
G04 #@! TD*
G04 #@! TA.AperFunction,Conductor*
%ADD16C,0.210000*%
G04 #@! TD*
G04 #@! TA.AperFunction,Conductor*
%ADD17C,0.500000*%
G04 #@! TD*
G04 APERTURE END LIST*
D10*
G04 #@! TO.P,Y1,1,1*
G04 #@! TO.N,Net-(C8-Pad1)*
X109000000Y-68900000D03*
G04 #@! TO.P,Y1,2,2*
G04 #@! TO.N,Net-(C7-Pad1)*
X109000000Y-65100000D03*
G04 #@! TD*
D11*
G04 #@! TO.P,P1,S1,SHIELD*
G04 #@! TO.N,GND*
X84500000Y-45150000D03*
X75860000Y-45150000D03*
D12*
X84500000Y-40970000D03*
X75860000Y-40970000D03*
G04 #@! TD*
D13*
G04 #@! TO.P,U1,57,GND*
G04 #@! TO.N,GND*
X99500000Y-71000000D03*
X98225000Y-71000000D03*
X99500000Y-72275000D03*
X100775000Y-69725000D03*
X100775000Y-72275000D03*
X100775000Y-71000000D03*
X98225000Y-69725000D03*
X99500000Y-69725000D03*
X98225000Y-72275000D03*
G04 #@! TD*
D14*
G04 #@! TO.N,Net-(C7-Pad1)*
X98840000Y-73370000D03*
G04 #@! TO.N,GND*
X114470000Y-87760000D03*
X96545000Y-62495000D03*
X97230000Y-70470000D03*
X107030000Y-76180000D03*
X92000000Y-77000000D03*
X104000000Y-46860000D03*
X104490000Y-63930000D03*
X109730000Y-90970000D03*
X80940000Y-85000000D03*
X110330000Y-80020000D03*
X87680000Y-56500000D03*
X84860000Y-81990000D03*
X107180000Y-69030000D03*
X94590000Y-85250000D03*
X112880000Y-74540000D03*
X81810000Y-64560000D03*
X101860000Y-70350000D03*
X114000000Y-69920000D03*
X90900000Y-64740000D03*
X122000000Y-85000000D03*
X83000000Y-75000000D03*
X101990000Y-61560000D03*
X75450000Y-73400000D03*
X117000000Y-48000000D03*
X118310000Y-63710000D03*
X88460000Y-43110000D03*
X123130000Y-77320000D03*
X103410000Y-57470000D03*
X78810000Y-41630000D03*
G04 #@! TO.N,+1V1*
X95780000Y-65550000D03*
X100740000Y-66440000D03*
X94260000Y-65560000D03*
X99740443Y-68869557D03*
X100310000Y-79000000D03*
X99189339Y-66644398D03*
G04 #@! TO.N,VBUS*
X76700000Y-92430000D03*
X78750000Y-50780000D03*
D15*
G04 #@! TO.N,+5V*
X78880000Y-52000000D03*
X116350000Y-86210000D03*
X77950000Y-86190000D03*
X87710000Y-86190000D03*
X102280000Y-88760000D03*
D14*
G04 #@! TO.N,/~{RD}*
X81340000Y-91910000D03*
X107520000Y-91100000D03*
G04 #@! TO.N,/RST*
X108210000Y-89900000D03*
X120360000Y-92490000D03*
G04 #@! TO.N,/SWDIO*
X120790000Y-67500000D03*
X102669087Y-77622636D03*
G04 #@! TO.N,/SWCLK*
X101560000Y-77860000D03*
X120740000Y-68910000D03*
G04 #@! TO.N,/RUN*
X102138411Y-76765726D03*
X119872770Y-74496121D03*
G04 #@! TO.N,/USB_DP*
X80640000Y-49040000D03*
X103880000Y-61810000D03*
G04 #@! TO.N,/USB_DM*
X104670000Y-61790000D03*
X79730000Y-48500000D03*
G04 #@! TO.N,/~{USB_BOOT}*
X83730000Y-62370000D03*
X88350000Y-66890000D03*
G04 #@! TO.N,Net-(R10-Pad2)*
X98670000Y-75540000D03*
X110940000Y-68380000D03*
G04 #@! TO.N,Net-(R11-Pad2)*
X100590000Y-68740000D03*
X103510000Y-65730000D03*
G04 #@! TO.N,Net-(R12-Pad2)*
X101900000Y-68980000D03*
X105480000Y-66020000D03*
G04 #@! TO.N,/QSPI_D3*
X98820000Y-68510000D03*
X83398936Y-70217177D03*
G04 #@! TO.N,/QSPI_CLK*
X89380000Y-68990000D03*
X98251326Y-66347293D03*
G04 #@! TO.N,/QSPI_D0*
X97910000Y-68620000D03*
X86400000Y-70910000D03*
G04 #@! TO.N,/QSPI_D2*
X79200000Y-69590000D03*
X97140000Y-66420000D03*
G04 #@! TO.N,/QSPI_D1*
X81700000Y-71570000D03*
X97070000Y-68650000D03*
G04 #@! TO.N,+3.3V*
X102030000Y-73510000D03*
X97150000Y-72000000D03*
X84090000Y-84540000D03*
X105103524Y-73514425D03*
X98350000Y-79930000D03*
X109520000Y-72230000D03*
X89297911Y-64297911D03*
X115990000Y-67720000D03*
X116730000Y-84000000D03*
X78450000Y-73760000D03*
X106620000Y-84000000D03*
G04 #@! TO.N,Net-(R14-Pad2)*
X94840000Y-40240000D03*
X104500000Y-68360000D03*
G04 #@! TD*
D16*
G04 #@! TO.N,Net-(C7-Pad1)*
X102612555Y-71227445D02*
X102607445Y-71227445D01*
X109000000Y-65100000D02*
X108740000Y-65100000D01*
X108740000Y-65100000D02*
X102612555Y-71227445D01*
X100464889Y-73370000D02*
X98840000Y-73370000D01*
X102607445Y-71227445D02*
X100464889Y-73370000D01*
D17*
G04 #@! TO.N,GND*
X97760000Y-71000000D02*
X97230000Y-70470000D01*
X97615000Y-69725000D02*
X97615000Y-70075000D01*
D16*
X101270000Y-69760000D02*
X101270000Y-68791170D01*
D17*
X96850000Y-70090000D02*
X97230000Y-70470000D01*
X100460000Y-69700000D02*
X100750000Y-69700000D01*
D16*
X101270000Y-68791170D02*
X104490000Y-65571170D01*
D17*
X100775000Y-71000000D02*
X100775000Y-72275000D01*
X99500000Y-69725000D02*
X100775000Y-71000000D01*
X100775000Y-69725000D02*
X100775000Y-71000000D01*
X98225000Y-69725000D02*
X98225000Y-71000000D01*
X98225000Y-71000000D02*
X98225000Y-72275000D01*
X99500000Y-71000000D02*
X100775000Y-71000000D01*
X99500000Y-71000000D02*
X100775000Y-69725000D01*
X101210000Y-71000000D02*
X100775000Y-71000000D01*
X100750000Y-69700000D02*
X100775000Y-69725000D01*
X101860000Y-70350000D02*
X101210000Y-71000000D01*
X99500000Y-72275000D02*
X100775000Y-71000000D01*
X98225000Y-72275000D02*
X98225000Y-71465000D01*
X98225000Y-71465000D02*
X97760000Y-71000000D01*
X100775000Y-72275000D02*
X99500000Y-72275000D01*
X100435000Y-69725000D02*
X100460000Y-69700000D01*
X97615000Y-70075000D02*
X97570000Y-70120000D01*
X99500000Y-71000000D02*
X100775000Y-72275000D01*
D16*
X101860000Y-70350000D02*
X101270000Y-69760000D01*
D17*
X96885000Y-69725000D02*
X96850000Y-69760000D01*
X99500000Y-71000000D02*
X99500000Y-69725000D01*
X96850000Y-69760000D02*
X96850000Y-70090000D01*
X99500000Y-69725000D02*
X100435000Y-69725000D01*
D16*
X104490000Y-65571170D02*
X104490000Y-63930000D01*
D17*
X99500000Y-72275000D02*
X99500000Y-71000000D01*
X97615000Y-69725000D02*
X96885000Y-69725000D01*
X98225000Y-71000000D02*
X97760000Y-71000000D01*
X98225000Y-69725000D02*
X97615000Y-69725000D01*
D16*
G04 #@! TO.N,+1V1*
X95780000Y-65470000D02*
X96310000Y-64940000D01*
X99740443Y-68869557D02*
X99390443Y-68869557D01*
X99860000Y-65560000D02*
X100740000Y-66440000D01*
X98920000Y-72370000D02*
X98920000Y-69340000D01*
X99189339Y-66644398D02*
X99189339Y-65839339D01*
X96310000Y-64940000D02*
X98290000Y-64940000D01*
X98910000Y-65560000D02*
X99860000Y-65560000D01*
X99390443Y-68869557D02*
X98920000Y-69340000D01*
X95780000Y-65550000D02*
X95780000Y-65470000D01*
X98040000Y-76730000D02*
X98040000Y-73250000D01*
X99189339Y-65839339D02*
X98910000Y-65560000D01*
X98290000Y-64940000D02*
X98910000Y-65560000D01*
X100310000Y-79000000D02*
X98040000Y-76730000D01*
X94260000Y-65560000D02*
X94880000Y-64940000D01*
X94880000Y-64940000D02*
X96310000Y-64940000D01*
X98040000Y-73250000D02*
X98920000Y-72370000D01*
D17*
G04 #@! TO.N,VBUS*
X76700000Y-92430000D02*
X76700000Y-90680000D01*
X76700000Y-90680000D02*
X76700000Y-52830000D01*
X76700000Y-52830000D02*
X78750000Y-50780000D01*
G04 #@! TO.N,+5V*
X78880000Y-52000000D02*
X77350000Y-53530000D01*
X87710000Y-86190000D02*
X94250000Y-86190000D01*
X105000000Y-86040000D02*
X116180000Y-86040000D01*
X116180000Y-86040000D02*
X116350000Y-86210000D01*
X77350000Y-53530000D02*
X77350000Y-56950000D01*
X77350000Y-85590000D02*
X77950000Y-86190000D01*
X77950000Y-86190000D02*
X87710000Y-86190000D01*
X102280000Y-88760000D02*
X105000000Y-86040000D01*
X94250000Y-86190000D02*
X96250000Y-88190000D01*
X96820000Y-88760000D02*
X101300000Y-88760000D01*
X77350000Y-56950000D02*
X77350000Y-85590000D01*
X101300000Y-88760000D02*
X102280000Y-88760000D01*
X96250000Y-88190000D02*
X96820000Y-88760000D01*
D16*
G04 #@! TO.N,/~{RD}*
X82150000Y-91100000D02*
X81340000Y-91910000D01*
X107520000Y-91100000D02*
X82150000Y-91100000D01*
G04 #@! TO.N,/RST*
X109709386Y-89220614D02*
X117090614Y-89220614D01*
X109030000Y-89900000D02*
X108210000Y-89900000D01*
X117090614Y-89220614D02*
X120360000Y-92490000D01*
X109709386Y-89220614D02*
X109030000Y-89900000D01*
G04 #@! TO.N,/SWDIO*
X118900442Y-76280442D02*
X120520000Y-74660884D01*
X120161000Y-69181000D02*
X120161000Y-68129000D01*
X117558248Y-77622636D02*
X118900442Y-76280442D01*
X120490000Y-69510000D02*
X120161000Y-69181000D01*
X120520000Y-74660884D02*
X120520000Y-70400000D01*
X102669087Y-77622636D02*
X117558248Y-77622636D01*
X120520000Y-69540000D02*
X120490000Y-69510000D01*
X120161000Y-68129000D02*
X120790000Y-67500000D01*
X120520000Y-70400000D02*
X120520000Y-69540000D01*
G04 #@! TO.N,/SWCLK*
X120910000Y-74780000D02*
X120910000Y-69080000D01*
X101560000Y-77860000D02*
X101881636Y-78181636D01*
X117508364Y-78181636D02*
X120910000Y-74780000D01*
X120910000Y-69080000D02*
X120740000Y-68910000D01*
X101881636Y-78181636D02*
X117508364Y-78181636D01*
G04 #@! TO.N,/RUN*
X103370000Y-77262636D02*
X117106255Y-77262636D01*
X117106255Y-77262636D02*
X119872770Y-74496121D01*
X102138411Y-76765726D02*
X102873090Y-76765726D01*
X102873090Y-76765726D02*
X103370000Y-77262636D01*
G04 #@! TO.N,/USB_DP*
X98870000Y-54900000D02*
X93520000Y-49550000D01*
X103880000Y-59910000D02*
X98870000Y-54900000D01*
X103880000Y-61810000D02*
X103880000Y-59910000D01*
X93520000Y-49550000D02*
X81720000Y-49550000D01*
X81720000Y-49550000D02*
X81150000Y-49550000D01*
X81150000Y-49550000D02*
X80640000Y-49040000D01*
G04 #@! TO.N,/USB_DM*
X104670000Y-60190884D02*
X93669117Y-49190000D01*
X79749000Y-48481000D02*
X79730000Y-48500000D01*
X104670000Y-61790000D02*
X104670000Y-60190884D01*
X81580546Y-49190000D02*
X80871546Y-48481000D01*
X80871546Y-48481000D02*
X79749000Y-48481000D01*
X93669117Y-49190000D02*
X81580546Y-49190000D01*
G04 #@! TO.N,/~{USB_BOOT}*
X83830000Y-62370000D02*
X83730000Y-62370000D01*
X88350000Y-66890000D02*
X83830000Y-62370000D01*
G04 #@! TO.N,Net-(R10-Pad2)*
X110054558Y-67494558D02*
X106854558Y-67494558D01*
X98670000Y-75140000D02*
X98670000Y-75540000D01*
X110940000Y-68380000D02*
X110054558Y-67494558D01*
X106854558Y-67494558D02*
X100619115Y-73730001D01*
X100080000Y-73730000D02*
X98670000Y-75140000D01*
X100619115Y-73730001D02*
X100080000Y-73730000D01*
G04 #@! TO.N,Net-(R11-Pad2)*
X103510000Y-65820000D02*
X103510000Y-65730000D01*
X100590000Y-68740000D02*
X103510000Y-65820000D01*
X103510000Y-65890000D02*
X103510000Y-65730000D01*
G04 #@! TO.N,Net-(R12-Pad2)*
X102917420Y-68582580D02*
X105480000Y-66020000D01*
X102297420Y-68582580D02*
X102917420Y-68582580D01*
X101900000Y-68980000D02*
X102297420Y-68582580D01*
G04 #@! TO.N,/QSPI_D3*
X92500000Y-67300000D02*
X91900000Y-67900000D01*
X97610000Y-67300000D02*
X98820000Y-68510000D01*
X91900000Y-67900000D02*
X89582823Y-70217177D01*
X89582823Y-70217177D02*
X83398936Y-70217177D01*
X97180000Y-67300000D02*
X92500000Y-67300000D01*
X97180000Y-67300000D02*
X97610000Y-67300000D01*
G04 #@! TO.N,/QSPI_CLK*
X96150000Y-66580000D02*
X97000000Y-65730000D01*
X92150000Y-66590000D02*
X91780000Y-66590000D01*
X97634033Y-65730000D02*
X98251326Y-66347293D01*
X92160000Y-66580000D02*
X96150000Y-66580000D01*
X97000000Y-65730000D02*
X97634033Y-65730000D01*
X91780000Y-66590000D02*
X89380000Y-68990000D01*
X92150000Y-66590000D02*
X92160000Y-66580000D01*
G04 #@! TO.N,/QSPI_D0*
X89399116Y-70910000D02*
X86400000Y-70910000D01*
X97020000Y-67730000D02*
X92579116Y-67730000D01*
X92579116Y-67730000D02*
X92159558Y-68149558D01*
X97910000Y-68620000D02*
X97020000Y-67730000D01*
X92159558Y-68149558D02*
X89399116Y-70910000D01*
G04 #@! TO.N,/QSPI_D2*
X89659116Y-69590000D02*
X79200000Y-69590000D01*
X97140000Y-66420000D02*
X96620000Y-66940000D01*
X92500000Y-66940000D02*
X92309116Y-66940000D01*
X96620000Y-66940000D02*
X92500000Y-66940000D01*
X92309116Y-66940000D02*
X89659116Y-69590000D01*
G04 #@! TO.N,/QSPI_D1*
X92740000Y-68090000D02*
X92180000Y-68650000D01*
X96510000Y-68090000D02*
X92740000Y-68090000D01*
X92180000Y-68650000D02*
X89260000Y-71570000D01*
X89260000Y-71570000D02*
X81700000Y-71570000D01*
X97070000Y-68650000D02*
X96510000Y-68090000D01*
G04 #@! TO.N,+3.3V*
X114200000Y-72230000D02*
X115990000Y-70440000D01*
X115990000Y-70440000D02*
X115990000Y-67720000D01*
D17*
X100640000Y-79930000D02*
X101850000Y-79930000D01*
D16*
X78430000Y-73740000D02*
X78450000Y-73760000D01*
X109520000Y-72230000D02*
X114200000Y-72230000D01*
X106387949Y-72230000D02*
X109520000Y-72230000D01*
D17*
X78000000Y-78450000D02*
X78000000Y-73740000D01*
X84090000Y-84540000D02*
X78000000Y-78450000D01*
D16*
X102034425Y-73514425D02*
X105103524Y-73514425D01*
X105103524Y-73514425D02*
X106387949Y-72230000D01*
D17*
X104930000Y-83010000D02*
X105920000Y-84000000D01*
X98350000Y-79930000D02*
X100640000Y-79930000D01*
X93740000Y-84540000D02*
X95530000Y-82750000D01*
X78000000Y-73740000D02*
X78000000Y-73220000D01*
D16*
X97150000Y-72000000D02*
X97150000Y-78730000D01*
D17*
X79854000Y-61646000D02*
X86646000Y-61646000D01*
X106620000Y-84000000D02*
X116730000Y-84000000D01*
D16*
X102030000Y-73510000D02*
X102034425Y-73514425D01*
D17*
X78000000Y-63500000D02*
X79854000Y-61646000D01*
D16*
X97150000Y-78730000D02*
X98350000Y-79930000D01*
D17*
X105920000Y-84000000D02*
X106620000Y-84000000D01*
X78000000Y-73220000D02*
X78000000Y-63500000D01*
D16*
X78000000Y-73740000D02*
X78430000Y-73740000D01*
D17*
X86646000Y-61646000D02*
X89297911Y-64297911D01*
X84090000Y-84540000D02*
X93740000Y-84540000D01*
X95530000Y-82750000D02*
X98350000Y-79930000D01*
X101850000Y-79930000D02*
X104930000Y-83010000D01*
D16*
G04 #@! TO.N,Net-(R14-Pad2)*
X106630000Y-44220000D02*
X102600000Y-40190000D01*
X102600000Y-40190000D02*
X94890000Y-40190000D01*
X106630000Y-66230000D02*
X106630000Y-44220000D01*
X94890000Y-40190000D02*
X94840000Y-40240000D01*
X104500000Y-68360000D02*
X106630000Y-66230000D01*
G04 #@! TD*
G04 #@! TA.AperFunction,Conductor*
G04 #@! TO.N,GND*
G36*
X121133621Y-39528502D02*
G01*
X121180114Y-39582158D01*
X121191500Y-39634500D01*
X121191500Y-41591377D01*
X121191498Y-41592147D01*
X121191024Y-41669721D01*
X121193491Y-41678352D01*
X121199150Y-41698153D01*
X121202728Y-41714915D01*
X121206920Y-41744187D01*
X121210634Y-41752355D01*
X121210634Y-41752356D01*
X121217548Y-41767562D01*
X121223996Y-41785086D01*
X121231051Y-41809771D01*
X121235843Y-41817365D01*
X121235844Y-41817368D01*
X121246830Y-41834780D01*
X121254969Y-41849863D01*
X121267208Y-41876782D01*
X121273069Y-41883584D01*
X121283970Y-41896235D01*
X121295073Y-41911239D01*
X121308776Y-41932958D01*
X121315501Y-41938897D01*
X121315504Y-41938901D01*
X121330938Y-41952532D01*
X121342982Y-41964724D01*
X121356427Y-41980327D01*
X121356430Y-41980329D01*
X121362287Y-41987127D01*
X121369816Y-41992007D01*
X121369817Y-41992008D01*
X121383835Y-42001094D01*
X121398709Y-42012385D01*
X121411217Y-42023431D01*
X121417951Y-42029378D01*
X121444711Y-42041942D01*
X121459691Y-42050263D01*
X121476983Y-42061471D01*
X121476988Y-42061473D01*
X121484515Y-42066352D01*
X121493108Y-42068922D01*
X121493113Y-42068924D01*
X121509120Y-42073711D01*
X121526564Y-42080372D01*
X121541676Y-42087467D01*
X121541678Y-42087468D01*
X121549800Y-42091281D01*
X121558667Y-42092662D01*
X121558668Y-42092662D01*
X121568310Y-42094163D01*
X121579017Y-42095830D01*
X121595732Y-42099613D01*
X121615466Y-42105515D01*
X121615472Y-42105516D01*
X121624066Y-42108086D01*
X121633037Y-42108141D01*
X121633038Y-42108141D01*
X121643097Y-42108202D01*
X121658506Y-42108296D01*
X121659289Y-42108329D01*
X121660386Y-42108500D01*
X121691377Y-42108500D01*
X121692147Y-42108502D01*
X121765785Y-42108952D01*
X121765786Y-42108952D01*
X121769721Y-42108976D01*
X121771065Y-42108592D01*
X121772410Y-42108500D01*
X125065500Y-42108500D01*
X125133621Y-42128502D01*
X125180114Y-42182158D01*
X125191500Y-42234500D01*
X125191500Y-90765500D01*
X125171498Y-90833621D01*
X125117842Y-90880114D01*
X125065500Y-90891500D01*
X124608623Y-90891500D01*
X124607853Y-90891498D01*
X124607037Y-90891493D01*
X124530279Y-90891024D01*
X124507918Y-90897415D01*
X124501847Y-90899150D01*
X124485085Y-90902728D01*
X124455813Y-90906920D01*
X124447645Y-90910634D01*
X124447644Y-90910634D01*
X124432438Y-90917548D01*
X124414914Y-90923996D01*
X124390229Y-90931051D01*
X124382635Y-90935843D01*
X124382632Y-90935844D01*
X124365220Y-90946830D01*
X124350137Y-90954969D01*
X124323218Y-90967208D01*
X124316416Y-90973069D01*
X124303765Y-90983970D01*
X124288761Y-90995073D01*
X124267042Y-91008776D01*
X124261103Y-91015501D01*
X124261099Y-91015504D01*
X124247468Y-91030938D01*
X124235276Y-91042982D01*
X124219673Y-91056427D01*
X124219671Y-91056430D01*
X124212873Y-91062287D01*
X124207993Y-91069816D01*
X124207992Y-91069817D01*
X124198906Y-91083835D01*
X124187615Y-91098709D01*
X124176569Y-91111217D01*
X124170622Y-91117951D01*
X124158058Y-91144711D01*
X124149737Y-91159691D01*
X124138529Y-91176983D01*
X124138527Y-91176988D01*
X124133648Y-91184515D01*
X124131078Y-91193108D01*
X124131076Y-91193113D01*
X124126289Y-91209120D01*
X124119628Y-91226564D01*
X124108719Y-91249800D01*
X124107338Y-91258667D01*
X124107338Y-91258668D01*
X124104170Y-91279015D01*
X124100387Y-91295732D01*
X124094485Y-91315466D01*
X124094484Y-91315472D01*
X124091914Y-91324066D01*
X124091859Y-91333037D01*
X124091859Y-91333038D01*
X124091704Y-91358497D01*
X124091671Y-91359289D01*
X124091500Y-91360386D01*
X124091500Y-91391377D01*
X124091498Y-91392147D01*
X124091024Y-91469721D01*
X124091408Y-91471065D01*
X124091500Y-91472410D01*
X124091500Y-99365500D01*
X124071498Y-99433621D01*
X124017842Y-99480114D01*
X123965500Y-99491500D01*
X76034500Y-99491500D01*
X75966379Y-99471498D01*
X75919886Y-99417842D01*
X75908500Y-99365500D01*
X75908500Y-93086186D01*
X75928502Y-93018065D01*
X75982158Y-92971572D01*
X76052432Y-92961468D01*
X76117012Y-92990962D01*
X76125137Y-92998659D01*
X76181382Y-93056902D01*
X76333159Y-93156222D01*
X76339763Y-93158678D01*
X76339765Y-93158679D01*
X76496558Y-93216990D01*
X76496560Y-93216990D01*
X76503168Y-93219448D01*
X76586995Y-93230633D01*
X76675980Y-93242507D01*
X76675984Y-93242507D01*
X76682961Y-93243438D01*
X76689972Y-93242800D01*
X76689976Y-93242800D01*
X76832459Y-93229832D01*
X76863600Y-93226998D01*
X76870302Y-93224820D01*
X76870304Y-93224820D01*
X77029409Y-93173124D01*
X77029412Y-93173123D01*
X77036108Y-93170947D01*
X77191912Y-93078069D01*
X77323266Y-92952982D01*
X77423643Y-92801902D01*
X77467911Y-92685366D01*
X77485555Y-92638920D01*
X77485556Y-92638918D01*
X77488055Y-92632338D01*
X77499459Y-92551197D01*
X77512748Y-92456639D01*
X77512748Y-92456636D01*
X77513299Y-92452717D01*
X77513616Y-92430000D01*
X77493397Y-92249745D01*
X77489546Y-92238685D01*
X77465509Y-92169662D01*
X77458500Y-92128225D01*
X77458500Y-91898640D01*
X80526463Y-91898640D01*
X80544163Y-92079160D01*
X80601418Y-92251273D01*
X80605065Y-92257295D01*
X80605066Y-92257297D01*
X80636830Y-92309745D01*
X80695380Y-92406424D01*
X80821382Y-92536902D01*
X80827278Y-92540760D01*
X80967224Y-92632338D01*
X80973159Y-92636222D01*
X80979763Y-92638678D01*
X80979765Y-92638679D01*
X81136558Y-92696990D01*
X81136560Y-92696990D01*
X81143168Y-92699448D01*
X81226995Y-92710633D01*
X81315980Y-92722507D01*
X81315984Y-92722507D01*
X81322961Y-92723438D01*
X81329972Y-92722800D01*
X81329976Y-92722800D01*
X81472459Y-92709832D01*
X81503600Y-92706998D01*
X81510302Y-92704820D01*
X81510304Y-92704820D01*
X81669409Y-92653124D01*
X81669412Y-92653123D01*
X81676108Y-92650947D01*
X81831912Y-92558069D01*
X81963266Y-92432982D01*
X82063643Y-92281902D01*
X82106279Y-92169662D01*
X82125555Y-92118920D01*
X82125556Y-92118918D01*
X82128055Y-92112338D01*
X82131779Y-92085844D01*
X82142264Y-92011236D01*
X82171552Y-91946562D01*
X82177943Y-91939677D01*
X82367215Y-91750405D01*
X82429527Y-91716379D01*
X82456310Y-91713500D01*
X106943340Y-91713500D01*
X107012333Y-91734068D01*
X107093416Y-91787127D01*
X107153159Y-91826222D01*
X107159763Y-91828678D01*
X107159765Y-91828679D01*
X107316558Y-91886990D01*
X107316560Y-91886990D01*
X107323168Y-91889448D01*
X107406995Y-91900633D01*
X107495980Y-91912507D01*
X107495984Y-91912507D01*
X107502961Y-91913438D01*
X107509972Y-91912800D01*
X107509976Y-91912800D01*
X107667206Y-91898490D01*
X107683600Y-91896998D01*
X107690302Y-91894820D01*
X107690304Y-91894820D01*
X107849409Y-91843124D01*
X107849412Y-91843123D01*
X107856108Y-91840947D01*
X107952513Y-91783478D01*
X108005860Y-91751677D01*
X108005862Y-91751676D01*
X108011912Y-91748069D01*
X108143266Y-91622982D01*
X108243643Y-91471902D01*
X108308055Y-91302338D01*
X108309035Y-91295366D01*
X108332748Y-91126639D01*
X108332748Y-91126636D01*
X108333299Y-91122717D01*
X108333616Y-91100000D01*
X108313397Y-90919745D01*
X108292092Y-90858565D01*
X108288578Y-90787657D01*
X108323959Y-90726105D01*
X108374455Y-90699629D01*
X108373600Y-90696998D01*
X108539409Y-90643124D01*
X108539412Y-90643123D01*
X108546108Y-90640947D01*
X108685063Y-90558113D01*
X108695855Y-90551680D01*
X108695857Y-90551679D01*
X108701912Y-90548069D01*
X108707017Y-90543207D01*
X108712381Y-90539136D01*
X108778735Y-90513884D01*
X108788560Y-90513500D01*
X108953871Y-90513500D01*
X108964512Y-90514002D01*
X108971806Y-90515632D01*
X108979732Y-90515383D01*
X108979733Y-90515383D01*
X109037673Y-90513562D01*
X109041631Y-90513500D01*
X109068598Y-90513500D01*
X109072536Y-90513003D01*
X109073277Y-90512956D01*
X109084116Y-90512103D01*
X109126736Y-90510763D01*
X109134351Y-90508550D01*
X109134354Y-90508550D01*
X109145269Y-90505379D01*
X109164634Y-90501368D01*
X109175925Y-90499942D01*
X109175927Y-90499941D01*
X109183784Y-90498949D01*
X109191148Y-90496033D01*
X109191153Y-90496032D01*
X109223425Y-90483254D01*
X109234658Y-90479408D01*
X109267972Y-90469730D01*
X109267976Y-90469728D01*
X109275587Y-90467517D01*
X109292201Y-90457691D01*
X109309955Y-90448994D01*
X109327905Y-90441887D01*
X109362397Y-90416827D01*
X109372306Y-90410318D01*
X109409007Y-90388613D01*
X109422651Y-90374969D01*
X109437685Y-90362128D01*
X109446893Y-90355438D01*
X109446894Y-90355437D01*
X109453308Y-90350777D01*
X109480487Y-90317923D01*
X109488477Y-90309143D01*
X109926601Y-89871019D01*
X109988913Y-89836993D01*
X110015696Y-89834114D01*
X116784304Y-89834114D01*
X116852425Y-89854116D01*
X116873399Y-89871019D01*
X119521675Y-92519295D01*
X119555701Y-92581607D01*
X119557979Y-92596094D01*
X119564163Y-92659160D01*
X119566387Y-92665845D01*
X119566387Y-92665846D01*
X119577565Y-92699448D01*
X119621418Y-92831273D01*
X119625065Y-92837295D01*
X119625066Y-92837297D01*
X119698070Y-92957841D01*
X119715380Y-92986424D01*
X119720269Y-92991487D01*
X119720270Y-92991488D01*
X119778546Y-93051834D01*
X119841382Y-93116902D01*
X119993159Y-93216222D01*
X119999763Y-93218678D01*
X119999765Y-93218679D01*
X120156558Y-93276990D01*
X120156560Y-93276990D01*
X120163168Y-93279448D01*
X120246995Y-93290633D01*
X120335980Y-93302507D01*
X120335984Y-93302507D01*
X120342961Y-93303438D01*
X120349972Y-93302800D01*
X120349976Y-93302800D01*
X120492459Y-93289832D01*
X120523600Y-93286998D01*
X120530302Y-93284820D01*
X120530304Y-93284820D01*
X120689409Y-93233124D01*
X120689412Y-93233123D01*
X120696108Y-93230947D01*
X120802810Y-93167340D01*
X120845860Y-93141677D01*
X120845862Y-93141676D01*
X120851912Y-93138069D01*
X120983266Y-93012982D01*
X121083643Y-92861902D01*
X121136241Y-92723438D01*
X121145555Y-92698920D01*
X121145556Y-92698918D01*
X121148055Y-92692338D01*
X121154379Y-92647340D01*
X121172748Y-92516639D01*
X121172748Y-92516636D01*
X121173299Y-92512717D01*
X121173616Y-92490000D01*
X121153397Y-92309745D01*
X121130708Y-92244590D01*
X121096064Y-92145106D01*
X121096062Y-92145103D01*
X121093745Y-92138448D01*
X120997626Y-91984624D01*
X120992664Y-91979627D01*
X120874778Y-91860915D01*
X120874774Y-91860912D01*
X120869815Y-91855918D01*
X120858264Y-91848587D01*
X120810538Y-91818300D01*
X120716666Y-91758727D01*
X120657652Y-91737713D01*
X120552425Y-91700243D01*
X120552420Y-91700242D01*
X120545790Y-91697881D01*
X120538802Y-91697048D01*
X120538799Y-91697047D01*
X120463892Y-91688115D01*
X120398619Y-91660187D01*
X120389716Y-91652096D01*
X117578264Y-88840644D01*
X117571085Y-88832755D01*
X117567081Y-88826446D01*
X117519034Y-88781327D01*
X117516193Y-88778573D01*
X117497131Y-88759511D01*
X117494004Y-88757085D01*
X117493525Y-88756663D01*
X117485168Y-88749524D01*
X117459864Y-88725763D01*
X117454086Y-88720337D01*
X117437168Y-88711036D01*
X117420648Y-88700184D01*
X117411659Y-88693211D01*
X117411657Y-88693210D01*
X117405393Y-88688351D01*
X117366257Y-88671415D01*
X117355604Y-88666196D01*
X117325199Y-88649481D01*
X117325196Y-88649480D01*
X117318253Y-88645663D01*
X117299557Y-88640863D01*
X117280857Y-88634460D01*
X117263135Y-88626791D01*
X117255308Y-88625551D01*
X117255307Y-88625551D01*
X117235720Y-88622449D01*
X117221027Y-88620122D01*
X117209405Y-88617714D01*
X117175802Y-88609086D01*
X117175793Y-88609085D01*
X117168117Y-88607114D01*
X117148816Y-88607114D01*
X117129105Y-88605563D01*
X117117867Y-88603783D01*
X117110038Y-88602543D01*
X117096921Y-88603783D01*
X117067597Y-88606555D01*
X117055739Y-88607114D01*
X109785515Y-88607114D01*
X109774874Y-88606612D01*
X109767580Y-88604982D01*
X109759654Y-88605231D01*
X109759653Y-88605231D01*
X109701713Y-88607052D01*
X109697755Y-88607114D01*
X109670788Y-88607114D01*
X109666850Y-88607611D01*
X109666109Y-88607658D01*
X109655270Y-88608511D01*
X109612650Y-88609851D01*
X109605035Y-88612064D01*
X109605032Y-88612064D01*
X109594117Y-88615235D01*
X109574752Y-88619246D01*
X109563461Y-88620672D01*
X109563459Y-88620673D01*
X109555602Y-88621665D01*
X109548238Y-88624581D01*
X109548233Y-88624582D01*
X109515961Y-88637360D01*
X109504728Y-88641206D01*
X109471414Y-88650884D01*
X109471410Y-88650886D01*
X109463799Y-88653097D01*
X109447185Y-88662923D01*
X109429431Y-88671620D01*
X109411481Y-88678727D01*
X109405067Y-88683387D01*
X109376992Y-88703785D01*
X109367080Y-88710296D01*
X109330379Y-88732001D01*
X109316735Y-88745645D01*
X109301701Y-88758486D01*
X109296435Y-88762312D01*
X109286078Y-88769837D01*
X109281025Y-88775945D01*
X109258899Y-88802691D01*
X109250909Y-88811471D01*
X108838084Y-89224296D01*
X108775772Y-89258322D01*
X108704957Y-89253257D01*
X108681475Y-89241587D01*
X108572614Y-89172502D01*
X108566666Y-89168727D01*
X108537463Y-89158328D01*
X108402425Y-89110243D01*
X108402420Y-89110242D01*
X108395790Y-89107881D01*
X108388802Y-89107048D01*
X108388799Y-89107047D01*
X108265698Y-89092368D01*
X108215680Y-89086404D01*
X108208677Y-89087140D01*
X108208676Y-89087140D01*
X108042288Y-89104628D01*
X108042286Y-89104629D01*
X108035288Y-89105364D01*
X107863579Y-89163818D01*
X107841271Y-89177542D01*
X107715095Y-89255166D01*
X107715092Y-89255168D01*
X107709088Y-89258862D01*
X107704053Y-89263793D01*
X107704050Y-89263795D01*
X107617233Y-89348813D01*
X107579493Y-89385771D01*
X107481235Y-89538238D01*
X107478826Y-89544858D01*
X107478824Y-89544861D01*
X107421624Y-89702017D01*
X107419197Y-89708685D01*
X107396463Y-89888640D01*
X107414163Y-90069160D01*
X107438767Y-90143122D01*
X107441290Y-90214071D01*
X107405054Y-90275124D01*
X107347916Y-90305088D01*
X107345288Y-90305364D01*
X107338624Y-90307633D01*
X107338622Y-90307633D01*
X107229829Y-90344669D01*
X107173579Y-90363818D01*
X107142393Y-90383004D01*
X107041939Y-90444804D01*
X107019088Y-90458862D01*
X107017433Y-90460483D01*
X106953176Y-90485967D01*
X106941603Y-90486500D01*
X82226129Y-90486500D01*
X82215488Y-90485998D01*
X82208194Y-90484368D01*
X82200268Y-90484617D01*
X82200267Y-90484617D01*
X82142327Y-90486438D01*
X82138369Y-90486500D01*
X82111402Y-90486500D01*
X82107464Y-90486997D01*
X82106723Y-90487044D01*
X82095884Y-90487897D01*
X82053264Y-90489237D01*
X82045649Y-90491450D01*
X82045646Y-90491450D01*
X82034731Y-90494621D01*
X82015366Y-90498632D01*
X82004075Y-90500058D01*
X82004073Y-90500059D01*
X81996216Y-90501051D01*
X81988852Y-90503967D01*
X81988847Y-90503968D01*
X81956575Y-90516746D01*
X81945342Y-90520592D01*
X81912028Y-90530270D01*
X81912024Y-90530272D01*
X81904413Y-90532483D01*
X81887799Y-90542309D01*
X81870045Y-90551006D01*
X81852095Y-90558113D01*
X81845681Y-90562773D01*
X81817606Y-90583171D01*
X81807694Y-90589682D01*
X81770993Y-90611387D01*
X81757349Y-90625031D01*
X81742315Y-90637872D01*
X81733107Y-90644562D01*
X81726692Y-90649223D01*
X81721639Y-90655331D01*
X81699513Y-90682077D01*
X81691523Y-90690857D01*
X81310515Y-91071865D01*
X81248203Y-91105891D01*
X81234594Y-91108080D01*
X81212470Y-91110405D01*
X81172288Y-91114628D01*
X81172286Y-91114628D01*
X81165288Y-91115364D01*
X80993579Y-91173818D01*
X80962216Y-91193113D01*
X80845095Y-91265166D01*
X80845092Y-91265168D01*
X80839088Y-91268862D01*
X80834053Y-91273793D01*
X80834050Y-91273795D01*
X80714525Y-91390843D01*
X80709493Y-91395771D01*
X80611235Y-91548238D01*
X80608826Y-91554858D01*
X80608824Y-91554861D01*
X80551606Y-91712066D01*
X80549197Y-91718685D01*
X80526463Y-91898640D01*
X77458500Y-91898640D01*
X77458500Y-87264171D01*
X77478502Y-87196050D01*
X77532158Y-87149557D01*
X77602432Y-87139453D01*
X77623431Y-87144337D01*
X77732392Y-87179740D01*
X77928777Y-87203158D01*
X77934912Y-87202686D01*
X77934914Y-87202686D01*
X78119830Y-87188457D01*
X78119834Y-87188456D01*
X78125972Y-87187984D01*
X78316463Y-87134798D01*
X78321967Y-87132018D01*
X78321969Y-87132017D01*
X78487495Y-87048404D01*
X78487497Y-87048403D01*
X78492996Y-87045625D01*
X78583121Y-86975211D01*
X78649116Y-86949033D01*
X78660695Y-86948500D01*
X86998769Y-86948500D01*
X87066890Y-86968502D01*
X87080431Y-86978546D01*
X87131650Y-87022136D01*
X87304294Y-87118624D01*
X87492392Y-87179740D01*
X87688777Y-87203158D01*
X87694912Y-87202686D01*
X87694914Y-87202686D01*
X87879830Y-87188457D01*
X87879834Y-87188456D01*
X87885972Y-87187984D01*
X88076463Y-87134798D01*
X88081967Y-87132018D01*
X88081969Y-87132017D01*
X88247495Y-87048404D01*
X88247497Y-87048403D01*
X88252996Y-87045625D01*
X88343121Y-86975211D01*
X88409116Y-86949033D01*
X88420695Y-86948500D01*
X93883629Y-86948500D01*
X93951750Y-86968502D01*
X93972724Y-86985405D01*
X96236230Y-89248911D01*
X96248616Y-89263323D01*
X96257149Y-89274918D01*
X96257154Y-89274923D01*
X96261492Y-89280818D01*
X96267070Y-89285557D01*
X96267073Y-89285560D01*
X96301768Y-89315035D01*
X96309284Y-89321965D01*
X96314980Y-89327661D01*
X96317841Y-89329924D01*
X96317846Y-89329929D01*
X96337266Y-89345293D01*
X96340667Y-89348082D01*
X96396285Y-89395333D01*
X96402798Y-89398659D01*
X96407837Y-89402020D01*
X96412979Y-89405196D01*
X96418716Y-89409734D01*
X96484875Y-89440655D01*
X96488769Y-89442558D01*
X96553808Y-89475769D01*
X96560917Y-89477508D01*
X96566551Y-89479604D01*
X96572321Y-89481523D01*
X96578950Y-89484622D01*
X96586113Y-89486112D01*
X96586116Y-89486113D01*
X96636830Y-89496661D01*
X96650435Y-89499491D01*
X96654701Y-89500457D01*
X96725610Y-89517808D01*
X96731212Y-89518156D01*
X96731215Y-89518156D01*
X96736764Y-89518500D01*
X96736762Y-89518535D01*
X96740734Y-89518775D01*
X96744955Y-89519152D01*
X96752115Y-89520641D01*
X96829542Y-89518546D01*
X96832950Y-89518500D01*
X101568769Y-89518500D01*
X101636890Y-89538502D01*
X101650431Y-89548546D01*
X101701650Y-89592136D01*
X101874294Y-89688624D01*
X102062392Y-89749740D01*
X102258777Y-89773158D01*
X102264912Y-89772686D01*
X102264914Y-89772686D01*
X102449830Y-89758457D01*
X102449834Y-89758456D01*
X102455972Y-89757984D01*
X102646463Y-89704798D01*
X102651967Y-89702018D01*
X102651969Y-89702017D01*
X102817495Y-89618404D01*
X102817497Y-89618403D01*
X102822996Y-89615625D01*
X102978847Y-89493861D01*
X103108078Y-89344145D01*
X103205769Y-89172179D01*
X103268197Y-88984513D01*
X103283038Y-88867035D01*
X103311420Y-88801958D01*
X103318949Y-88793732D01*
X105277276Y-86835405D01*
X105339588Y-86801379D01*
X105366371Y-86798500D01*
X115468618Y-86798500D01*
X115536739Y-86818502D01*
X115567363Y-86846235D01*
X115621035Y-86913953D01*
X115771650Y-87042136D01*
X115944294Y-87138624D01*
X116132392Y-87199740D01*
X116328777Y-87223158D01*
X116334912Y-87222686D01*
X116334914Y-87222686D01*
X116519830Y-87208457D01*
X116519834Y-87208456D01*
X116525972Y-87207984D01*
X116716463Y-87154798D01*
X116721967Y-87152018D01*
X116721969Y-87152017D01*
X116887495Y-87068404D01*
X116887497Y-87068403D01*
X116892996Y-87065625D01*
X117048847Y-86943861D01*
X117178078Y-86794145D01*
X117275769Y-86622179D01*
X117338197Y-86434513D01*
X117362985Y-86238295D01*
X117363380Y-86210000D01*
X117344080Y-86013167D01*
X117286916Y-85823831D01*
X117194066Y-85649204D01*
X117116963Y-85554667D01*
X117072960Y-85500713D01*
X117072957Y-85500710D01*
X117069065Y-85495938D01*
X117038977Y-85471047D01*
X116921425Y-85373799D01*
X116921421Y-85373797D01*
X116916675Y-85369870D01*
X116742701Y-85275802D01*
X116553768Y-85217318D01*
X116547643Y-85216674D01*
X116547642Y-85216674D01*
X116363204Y-85197289D01*
X116363202Y-85197289D01*
X116357075Y-85196645D01*
X116274576Y-85204153D01*
X116166251Y-85214011D01*
X116166248Y-85214012D01*
X116160112Y-85214570D01*
X116154206Y-85216308D01*
X116154202Y-85216309D01*
X116010060Y-85258732D01*
X115970381Y-85270410D01*
X115966406Y-85272488D01*
X115920046Y-85281500D01*
X105067070Y-85281500D01*
X105048120Y-85280067D01*
X105033885Y-85277901D01*
X105033881Y-85277901D01*
X105026651Y-85276801D01*
X105019359Y-85277394D01*
X105019356Y-85277394D01*
X104973982Y-85281085D01*
X104963767Y-85281500D01*
X104955707Y-85281500D01*
X104952073Y-85281924D01*
X104952067Y-85281924D01*
X104939042Y-85283443D01*
X104927480Y-85284791D01*
X104923132Y-85285221D01*
X104850364Y-85291140D01*
X104843403Y-85293395D01*
X104837463Y-85294582D01*
X104831588Y-85295971D01*
X104824319Y-85296818D01*
X104755670Y-85321736D01*
X104751542Y-85323153D01*
X104689064Y-85343393D01*
X104689062Y-85343394D01*
X104682101Y-85345649D01*
X104675846Y-85349445D01*
X104670372Y-85351951D01*
X104664942Y-85354670D01*
X104658063Y-85357167D01*
X104651943Y-85361180D01*
X104651942Y-85361180D01*
X104597024Y-85397186D01*
X104593320Y-85399523D01*
X104530893Y-85437405D01*
X104522516Y-85444803D01*
X104522492Y-85444776D01*
X104519500Y-85447429D01*
X104516267Y-85450132D01*
X104510148Y-85454144D01*
X104505116Y-85459456D01*
X104456872Y-85510383D01*
X104454494Y-85512825D01*
X104195946Y-85771373D01*
X104133634Y-85805399D01*
X104062819Y-85800334D01*
X104005983Y-85757787D01*
X103981172Y-85691267D01*
X103984810Y-85650943D01*
X103988913Y-85634965D01*
X104024609Y-85495938D01*
X104028673Y-85480109D01*
X104028674Y-85480106D01*
X104029439Y-85477125D01*
X104090921Y-85079973D01*
X104113355Y-84678717D01*
X104112071Y-84648069D01*
X104096655Y-84280267D01*
X104096526Y-84277187D01*
X104040594Y-83879215D01*
X103946095Y-83488601D01*
X103918735Y-83410034D01*
X103915221Y-83339125D01*
X103950602Y-83277572D01*
X104013645Y-83244920D01*
X104084333Y-83251534D01*
X104126821Y-83279502D01*
X105336230Y-84488911D01*
X105348616Y-84503323D01*
X105357149Y-84514918D01*
X105357154Y-84514923D01*
X105361492Y-84520818D01*
X105367070Y-84525557D01*
X105367073Y-84525560D01*
X105401768Y-84555035D01*
X105409284Y-84561965D01*
X105414979Y-84567660D01*
X105417861Y-84569940D01*
X105437251Y-84585281D01*
X105440655Y-84588072D01*
X105479747Y-84621283D01*
X105496285Y-84635333D01*
X105502801Y-84638661D01*
X105507850Y-84642028D01*
X105512979Y-84645195D01*
X105518716Y-84649734D01*
X105584875Y-84680655D01*
X105588769Y-84682558D01*
X105653808Y-84715769D01*
X105660916Y-84717508D01*
X105666559Y-84719607D01*
X105672322Y-84721524D01*
X105678950Y-84724622D01*
X105740095Y-84737340D01*
X105750412Y-84739486D01*
X105754696Y-84740456D01*
X105825610Y-84757808D01*
X105831212Y-84758156D01*
X105831215Y-84758156D01*
X105836764Y-84758500D01*
X105836762Y-84758536D01*
X105840755Y-84758775D01*
X105844947Y-84759149D01*
X105852115Y-84760640D01*
X105929520Y-84758546D01*
X105932928Y-84758500D01*
X106317282Y-84758500D01*
X106361202Y-84766403D01*
X106416558Y-84786990D01*
X106416560Y-84786991D01*
X106423168Y-84789448D01*
X106506995Y-84800633D01*
X106595980Y-84812507D01*
X106595984Y-84812507D01*
X106602961Y-84813438D01*
X106609972Y-84812800D01*
X106609976Y-84812800D01*
X106752459Y-84799832D01*
X106783600Y-84796998D01*
X106790302Y-84794820D01*
X106790304Y-84794820D01*
X106883105Y-84764667D01*
X106922041Y-84758500D01*
X116427282Y-84758500D01*
X116471202Y-84766403D01*
X116526558Y-84786990D01*
X116526560Y-84786991D01*
X116533168Y-84789448D01*
X116616995Y-84800633D01*
X116705980Y-84812507D01*
X116705984Y-84812507D01*
X116712961Y-84813438D01*
X116719972Y-84812800D01*
X116719976Y-84812800D01*
X116862459Y-84799832D01*
X116893600Y-84796998D01*
X116900302Y-84794820D01*
X116900304Y-84794820D01*
X117059409Y-84743124D01*
X117059412Y-84743123D01*
X117066108Y-84740947D01*
X117221912Y-84648069D01*
X117353266Y-84522982D01*
X117453643Y-84371902D01*
X117518055Y-84202338D01*
X117543299Y-84022717D01*
X117543616Y-84000000D01*
X117523397Y-83819745D01*
X117463745Y-83648448D01*
X117367626Y-83494624D01*
X117358757Y-83485693D01*
X117244778Y-83370915D01*
X117244774Y-83370912D01*
X117239815Y-83365918D01*
X117086666Y-83268727D01*
X117057463Y-83258328D01*
X116922425Y-83210243D01*
X116922420Y-83210242D01*
X116915790Y-83207881D01*
X116908802Y-83207048D01*
X116908799Y-83207047D01*
X116785698Y-83192368D01*
X116735680Y-83186404D01*
X116728677Y-83187140D01*
X116728676Y-83187140D01*
X116562288Y-83204628D01*
X116562286Y-83204629D01*
X116555288Y-83205364D01*
X116470585Y-83234199D01*
X116468884Y-83234778D01*
X116428279Y-83241500D01*
X106921966Y-83241500D01*
X106879699Y-83234199D01*
X106812424Y-83210243D01*
X106812422Y-83210242D01*
X106805790Y-83207881D01*
X106798802Y-83207048D01*
X106798799Y-83207047D01*
X106675698Y-83192368D01*
X106625680Y-83186404D01*
X106618677Y-83187140D01*
X106618676Y-83187140D01*
X106452288Y-83204628D01*
X106452286Y-83204629D01*
X106445288Y-83205364D01*
X106360585Y-83234199D01*
X106358884Y-83234778D01*
X106318279Y-83241500D01*
X106286371Y-83241500D01*
X106218250Y-83221498D01*
X106197276Y-83204595D01*
X102433770Y-79441089D01*
X102421384Y-79426677D01*
X102412851Y-79415082D01*
X102412846Y-79415077D01*
X102408508Y-79409182D01*
X102402930Y-79404443D01*
X102402927Y-79404440D01*
X102368232Y-79374965D01*
X102360716Y-79368035D01*
X102355021Y-79362340D01*
X102348880Y-79357482D01*
X102332749Y-79344719D01*
X102329345Y-79341928D01*
X102279297Y-79299409D01*
X102279295Y-79299408D01*
X102273715Y-79294667D01*
X102267199Y-79291339D01*
X102262150Y-79287972D01*
X102257021Y-79284805D01*
X102251284Y-79280266D01*
X102185125Y-79249345D01*
X102181225Y-79247439D01*
X102116192Y-79214231D01*
X102109084Y-79212492D01*
X102103441Y-79210393D01*
X102097678Y-79208476D01*
X102091050Y-79205378D01*
X102019583Y-79190513D01*
X102015299Y-79189543D01*
X101944390Y-79172192D01*
X101938788Y-79171844D01*
X101938785Y-79171844D01*
X101933236Y-79171500D01*
X101933238Y-79171464D01*
X101929245Y-79171225D01*
X101925053Y-79170851D01*
X101917885Y-79169360D01*
X101851675Y-79171151D01*
X101840479Y-79171454D01*
X101837072Y-79171500D01*
X101247336Y-79171500D01*
X101179215Y-79151498D01*
X101132722Y-79097842D01*
X101122947Y-79030626D01*
X101122444Y-79030587D01*
X101122616Y-79028352D01*
X101122561Y-79027974D01*
X101122747Y-79026651D01*
X101122748Y-79026637D01*
X101123299Y-79022717D01*
X101123616Y-79000000D01*
X101103397Y-78819745D01*
X101084680Y-78765997D01*
X101081168Y-78695089D01*
X101116549Y-78633537D01*
X101179592Y-78600884D01*
X101247590Y-78606465D01*
X101363168Y-78649448D01*
X101468766Y-78663538D01*
X101517537Y-78683046D01*
X101518161Y-78681911D01*
X101518163Y-78681912D01*
X101518164Y-78681913D01*
X101535082Y-78691214D01*
X101551601Y-78702065D01*
X101566857Y-78713899D01*
X101605993Y-78730835D01*
X101616646Y-78736054D01*
X101647051Y-78752769D01*
X101647054Y-78752770D01*
X101653997Y-78756587D01*
X101672693Y-78761387D01*
X101691393Y-78767790D01*
X101709115Y-78775459D01*
X101716942Y-78776699D01*
X101716943Y-78776699D01*
X101726332Y-78778186D01*
X101751223Y-78782128D01*
X101762845Y-78784536D01*
X101796448Y-78793164D01*
X101796457Y-78793165D01*
X101804133Y-78795136D01*
X101823434Y-78795136D01*
X101843144Y-78796687D01*
X101862212Y-78799707D01*
X101904652Y-78795695D01*
X101916511Y-78795136D01*
X117432235Y-78795136D01*
X117442876Y-78795638D01*
X117450170Y-78797268D01*
X117458096Y-78797019D01*
X117458097Y-78797019D01*
X117516037Y-78795198D01*
X117519995Y-78795136D01*
X117546962Y-78795136D01*
X117550900Y-78794639D01*
X117551641Y-78794592D01*
X117562480Y-78793739D01*
X117605100Y-78792399D01*
X117612715Y-78790186D01*
X117612718Y-78790186D01*
X117623633Y-78787015D01*
X117642998Y-78783004D01*
X117654289Y-78781578D01*
X117654291Y-78781577D01*
X117662148Y-78780585D01*
X117669512Y-78777669D01*
X117669517Y-78777668D01*
X117701789Y-78764890D01*
X117713022Y-78761044D01*
X117746336Y-78751366D01*
X117746340Y-78751364D01*
X117753951Y-78749153D01*
X117770565Y-78739327D01*
X117788319Y-78730630D01*
X117806269Y-78723523D01*
X117840761Y-78698463D01*
X117850670Y-78691954D01*
X117887371Y-78670249D01*
X117901015Y-78656605D01*
X117916049Y-78643764D01*
X117925257Y-78637074D01*
X117925258Y-78637073D01*
X117931672Y-78632413D01*
X117958851Y-78599559D01*
X117966841Y-78590779D01*
X121289970Y-75267650D01*
X121297859Y-75260471D01*
X121304168Y-75256467D01*
X121349287Y-75208420D01*
X121352041Y-75205579D01*
X121371103Y-75186517D01*
X121373529Y-75183390D01*
X121373951Y-75182911D01*
X121381090Y-75174554D01*
X121404851Y-75149250D01*
X121410277Y-75143472D01*
X121419578Y-75126554D01*
X121430430Y-75110034D01*
X121437403Y-75101045D01*
X121437404Y-75101043D01*
X121442263Y-75094779D01*
X121459199Y-75055643D01*
X121464418Y-75044990D01*
X121481133Y-75014585D01*
X121481134Y-75014582D01*
X121484951Y-75007639D01*
X121489751Y-74988943D01*
X121496155Y-74970239D01*
X121503823Y-74952521D01*
X121510493Y-74910404D01*
X121512897Y-74898797D01*
X121523500Y-74857503D01*
X121523500Y-74838208D01*
X121525051Y-74818497D01*
X121526832Y-74807252D01*
X121528072Y-74799423D01*
X121524059Y-74756975D01*
X121523500Y-74745116D01*
X121523500Y-69156130D01*
X121524002Y-69145488D01*
X121525632Y-69138194D01*
X121525383Y-69130266D01*
X121526048Y-69123232D01*
X121527860Y-69112851D01*
X121528055Y-69112338D01*
X121550038Y-68955918D01*
X121552748Y-68936639D01*
X121552748Y-68936636D01*
X121553299Y-68932717D01*
X121553616Y-68910000D01*
X121533397Y-68729745D01*
X121523482Y-68701273D01*
X121476064Y-68565106D01*
X121476062Y-68565103D01*
X121473745Y-68558448D01*
X121377626Y-68404624D01*
X121327151Y-68353795D01*
X121290826Y-68317216D01*
X121257019Y-68254785D01*
X121262331Y-68183988D01*
X121293340Y-68137186D01*
X121320904Y-68110937D01*
X121413266Y-68022982D01*
X121513643Y-67871902D01*
X121559602Y-67750915D01*
X121575555Y-67708920D01*
X121575556Y-67708918D01*
X121578055Y-67702338D01*
X121581272Y-67679448D01*
X121602748Y-67526639D01*
X121602748Y-67526636D01*
X121603299Y-67522717D01*
X121603616Y-67500000D01*
X121583397Y-67319745D01*
X121581080Y-67313091D01*
X121526064Y-67155106D01*
X121526062Y-67155103D01*
X121523745Y-67148448D01*
X121498772Y-67108483D01*
X121431359Y-67000598D01*
X121427626Y-66994624D01*
X121421770Y-66988727D01*
X121304778Y-66870915D01*
X121304774Y-66870912D01*
X121299815Y-66865918D01*
X121288697Y-66858862D01*
X121166435Y-66781273D01*
X121146666Y-66768727D01*
X121079345Y-66744755D01*
X120982425Y-66710243D01*
X120982420Y-66710242D01*
X120975790Y-66707881D01*
X120968802Y-66707048D01*
X120968799Y-66707047D01*
X120845698Y-66692368D01*
X120795680Y-66686404D01*
X120788677Y-66687140D01*
X120788676Y-66687140D01*
X120622288Y-66704628D01*
X120622286Y-66704629D01*
X120615288Y-66705364D01*
X120443579Y-66763818D01*
X120381109Y-66802250D01*
X120295095Y-66855166D01*
X120295092Y-66855168D01*
X120289088Y-66858862D01*
X120284053Y-66863793D01*
X120284050Y-66863795D01*
X120164525Y-66980843D01*
X120159493Y-66985771D01*
X120061235Y-67138238D01*
X120058826Y-67144858D01*
X120058824Y-67144861D01*
X120016225Y-67261902D01*
X119999197Y-67308685D01*
X119992403Y-67362469D01*
X119988048Y-67396940D01*
X119959667Y-67462016D01*
X119952137Y-67470243D01*
X119781030Y-67641350D01*
X119773141Y-67648529D01*
X119766832Y-67652533D01*
X119761407Y-67658310D01*
X119721714Y-67700579D01*
X119718959Y-67703421D01*
X119699897Y-67722483D01*
X119697471Y-67725610D01*
X119697049Y-67726089D01*
X119689910Y-67734446D01*
X119679138Y-67745918D01*
X119660723Y-67765528D01*
X119651422Y-67782446D01*
X119640571Y-67798965D01*
X119628737Y-67814221D01*
X119625590Y-67821494D01*
X119625589Y-67821495D01*
X119611803Y-67853353D01*
X119606582Y-67864010D01*
X119602244Y-67871902D01*
X119586049Y-67901361D01*
X119581250Y-67920054D01*
X119574846Y-67938757D01*
X119567177Y-67956479D01*
X119565937Y-67964306D01*
X119565937Y-67964307D01*
X119560508Y-67998585D01*
X119558100Y-68010209D01*
X119549472Y-68043812D01*
X119549471Y-68043821D01*
X119547500Y-68051497D01*
X119547500Y-68070798D01*
X119545949Y-68090508D01*
X119542929Y-68109576D01*
X119543675Y-68117467D01*
X119546941Y-68152017D01*
X119547500Y-68163875D01*
X119547500Y-69104871D01*
X119546998Y-69115512D01*
X119545368Y-69122806D01*
X119545617Y-69130732D01*
X119545617Y-69130733D01*
X119547438Y-69188673D01*
X119547500Y-69192631D01*
X119547500Y-69219598D01*
X119547997Y-69223536D01*
X119548044Y-69224277D01*
X119548897Y-69235116D01*
X119550237Y-69277736D01*
X119552450Y-69285351D01*
X119552450Y-69285354D01*
X119555621Y-69296269D01*
X119559632Y-69315634D01*
X119562051Y-69334784D01*
X119564967Y-69342148D01*
X119564968Y-69342153D01*
X119577746Y-69374425D01*
X119581592Y-69385658D01*
X119591270Y-69418972D01*
X119591272Y-69418976D01*
X119593483Y-69426587D01*
X119597518Y-69433409D01*
X119597518Y-69433410D01*
X119603307Y-69443198D01*
X119612006Y-69460955D01*
X119619113Y-69478905D01*
X119642865Y-69511596D01*
X119644171Y-69513394D01*
X119650682Y-69523306D01*
X119672387Y-69560007D01*
X119686031Y-69573651D01*
X119698872Y-69588685D01*
X119710223Y-69604308D01*
X119716331Y-69609361D01*
X119743077Y-69631487D01*
X119751857Y-69639477D01*
X119869595Y-69757215D01*
X119903621Y-69819527D01*
X119906500Y-69846310D01*
X119906500Y-73566126D01*
X119886498Y-73634247D01*
X119832842Y-73680740D01*
X119793671Y-73691436D01*
X119740511Y-73697023D01*
X119705059Y-73700749D01*
X119705058Y-73700749D01*
X119698058Y-73701485D01*
X119526349Y-73759939D01*
X119520345Y-73763633D01*
X119377865Y-73851287D01*
X119377862Y-73851289D01*
X119371858Y-73854983D01*
X119366823Y-73859914D01*
X119366820Y-73859916D01*
X119250322Y-73974000D01*
X119242263Y-73981892D01*
X119144005Y-74134359D01*
X119141596Y-74140979D01*
X119141594Y-74140982D01*
X119084376Y-74298187D01*
X119081967Y-74304806D01*
X119081084Y-74311794D01*
X119081084Y-74311795D01*
X119079731Y-74322507D01*
X119072417Y-74380406D01*
X119070818Y-74393061D01*
X119042437Y-74458137D01*
X119034907Y-74466364D01*
X116889040Y-76612231D01*
X116826728Y-76646257D01*
X116799945Y-76649136D01*
X103676310Y-76649136D01*
X103608189Y-76629134D01*
X103587215Y-76612231D01*
X103360740Y-76385756D01*
X103353561Y-76377867D01*
X103349557Y-76371558D01*
X103301510Y-76326439D01*
X103298669Y-76323685D01*
X103279607Y-76304623D01*
X103276480Y-76302197D01*
X103276001Y-76301775D01*
X103267644Y-76294636D01*
X103242340Y-76270875D01*
X103236562Y-76265449D01*
X103219644Y-76256148D01*
X103203124Y-76245296D01*
X103194135Y-76238323D01*
X103194133Y-76238322D01*
X103187869Y-76233463D01*
X103148733Y-76216527D01*
X103138080Y-76211308D01*
X103107675Y-76194593D01*
X103107672Y-76194592D01*
X103100729Y-76190775D01*
X103082033Y-76185975D01*
X103063333Y-76179572D01*
X103045611Y-76171903D01*
X103037784Y-76170663D01*
X103037783Y-76170663D01*
X103018196Y-76167561D01*
X103003503Y-76165234D01*
X102991881Y-76162826D01*
X102958278Y-76154198D01*
X102958269Y-76154197D01*
X102950593Y-76152226D01*
X102931292Y-76152226D01*
X102911581Y-76150675D01*
X102900343Y-76148895D01*
X102892514Y-76147655D01*
X102879397Y-76148895D01*
X102850073Y-76151667D01*
X102838215Y-76152226D01*
X102716943Y-76152226D01*
X102648822Y-76132224D01*
X102648752Y-76132173D01*
X102648226Y-76131644D01*
X102646470Y-76130530D01*
X102646465Y-76130526D01*
X102547688Y-76067841D01*
X102495077Y-76034453D01*
X102465874Y-76024054D01*
X102330836Y-75975969D01*
X102330831Y-75975968D01*
X102324201Y-75973607D01*
X102317213Y-75972774D01*
X102317210Y-75972773D01*
X102194109Y-75958094D01*
X102144091Y-75952130D01*
X102137088Y-75952866D01*
X102137087Y-75952866D01*
X101970699Y-75970354D01*
X101970697Y-75970355D01*
X101963699Y-75971090D01*
X101791990Y-76029544D01*
X101785986Y-76033238D01*
X101643506Y-76120892D01*
X101643503Y-76120894D01*
X101637499Y-76124588D01*
X101632464Y-76129519D01*
X101632461Y-76129521D01*
X101521357Y-76238323D01*
X101507904Y-76251497D01*
X101409646Y-76403964D01*
X101407237Y-76410584D01*
X101407235Y-76410587D01*
X101377788Y-76491492D01*
X101347608Y-76574411D01*
X101324874Y-76754366D01*
X101342574Y-76934886D01*
X101346413Y-76946425D01*
X101348937Y-77017377D01*
X101312700Y-77078429D01*
X101267459Y-77105476D01*
X101220252Y-77121546D01*
X101220249Y-77121547D01*
X101213579Y-77123818D01*
X101207575Y-77127512D01*
X101065095Y-77215166D01*
X101065092Y-77215168D01*
X101059088Y-77218862D01*
X101054053Y-77223793D01*
X101054050Y-77223795D01*
X100934525Y-77340843D01*
X100929493Y-77345771D01*
X100831235Y-77498238D01*
X100828826Y-77504858D01*
X100828824Y-77504861D01*
X100819643Y-77530086D01*
X100769197Y-77668685D01*
X100746463Y-77848640D01*
X100764163Y-78029160D01*
X100782283Y-78083629D01*
X100786122Y-78095170D01*
X100788644Y-78166121D01*
X100752407Y-78227174D01*
X100688915Y-78258943D01*
X100624297Y-78253640D01*
X100549971Y-78227174D01*
X100502424Y-78210243D01*
X100502422Y-78210243D01*
X100495790Y-78207881D01*
X100488802Y-78207048D01*
X100488799Y-78207047D01*
X100413892Y-78198115D01*
X100348619Y-78170187D01*
X100339716Y-78162096D01*
X98731424Y-76553804D01*
X98697398Y-76491492D01*
X98702463Y-76420677D01*
X98745010Y-76363841D01*
X98809098Y-76339228D01*
X98826579Y-76337637D01*
X98833600Y-76336998D01*
X98840302Y-76334820D01*
X98840304Y-76334820D01*
X98999409Y-76283124D01*
X98999412Y-76283123D01*
X99006108Y-76280947D01*
X99161912Y-76188069D01*
X99293266Y-76062982D01*
X99393643Y-75911902D01*
X99458055Y-75742338D01*
X99483299Y-75562717D01*
X99483616Y-75540000D01*
X99463397Y-75359745D01*
X99451803Y-75326451D01*
X99448289Y-75255545D01*
X99481699Y-75195921D01*
X100297214Y-74380406D01*
X100359526Y-74346380D01*
X100386309Y-74343501D01*
X100542980Y-74343501D01*
X100553628Y-74344003D01*
X100560921Y-74345633D01*
X100568844Y-74345384D01*
X100626789Y-74343563D01*
X100630747Y-74343501D01*
X100657712Y-74343501D01*
X100661650Y-74343004D01*
X100662391Y-74342957D01*
X100673230Y-74342104D01*
X100715851Y-74340764D01*
X100723467Y-74338551D01*
X100723469Y-74338551D01*
X100734391Y-74335378D01*
X100753750Y-74331369D01*
X100765031Y-74329944D01*
X100765032Y-74329944D01*
X100772898Y-74328950D01*
X100786820Y-74323438D01*
X100812539Y-74313256D01*
X100823767Y-74309411D01*
X100832450Y-74306888D01*
X100864702Y-74297518D01*
X100881315Y-74287693D01*
X100899061Y-74278999D01*
X100917019Y-74271889D01*
X100951513Y-74246827D01*
X100961431Y-74240313D01*
X100991299Y-74222650D01*
X100991304Y-74222646D01*
X100998122Y-74218614D01*
X101011765Y-74204971D01*
X101026799Y-74192130D01*
X101036007Y-74185440D01*
X101036008Y-74185439D01*
X101042422Y-74180779D01*
X101069601Y-74147925D01*
X101077591Y-74139145D01*
X101208710Y-74008026D01*
X101271022Y-73974000D01*
X101341837Y-73979065D01*
X101388440Y-74009593D01*
X101511382Y-74136902D01*
X101663159Y-74236222D01*
X101669763Y-74238678D01*
X101669765Y-74238679D01*
X101826558Y-74296990D01*
X101826560Y-74296990D01*
X101833168Y-74299448D01*
X101906592Y-74309245D01*
X102005980Y-74322507D01*
X102005984Y-74322507D01*
X102012961Y-74323438D01*
X102019972Y-74322800D01*
X102019976Y-74322800D01*
X102162459Y-74309832D01*
X102193600Y-74306998D01*
X102200302Y-74304820D01*
X102200304Y-74304820D01*
X102359409Y-74253124D01*
X102359412Y-74253123D01*
X102366108Y-74250947D01*
X102521912Y-74158069D01*
X102526707Y-74153503D01*
X102592905Y-74128309D01*
X102602730Y-74127925D01*
X104526864Y-74127925D01*
X104595857Y-74148493D01*
X104614705Y-74160827D01*
X104709181Y-74222650D01*
X104736683Y-74240647D01*
X104743287Y-74243103D01*
X104743289Y-74243104D01*
X104900082Y-74301415D01*
X104900084Y-74301415D01*
X104906692Y-74303873D01*
X104977013Y-74313256D01*
X105079504Y-74326932D01*
X105079508Y-74326932D01*
X105086485Y-74327863D01*
X105093496Y-74327225D01*
X105093500Y-74327225D01*
X105246983Y-74313256D01*
X105267124Y-74311423D01*
X105273826Y-74309245D01*
X105273828Y-74309245D01*
X105432933Y-74257549D01*
X105432936Y-74257548D01*
X105439632Y-74255372D01*
X105595436Y-74162494D01*
X105726790Y-74037407D01*
X105827167Y-73886327D01*
X105875178Y-73759939D01*
X105889079Y-73723345D01*
X105889080Y-73723343D01*
X105891579Y-73716763D01*
X105895139Y-73691436D01*
X105905788Y-73615661D01*
X105935076Y-73550987D01*
X105941467Y-73544102D01*
X106605164Y-72880405D01*
X106667476Y-72846379D01*
X106694259Y-72843500D01*
X108943340Y-72843500D01*
X109012333Y-72864068D01*
X109153159Y-72956222D01*
X109159763Y-72958678D01*
X109159765Y-72958679D01*
X109316558Y-73016990D01*
X109316560Y-73016990D01*
X109323168Y-73019448D01*
X109406995Y-73030633D01*
X109495980Y-73042507D01*
X109495984Y-73042507D01*
X109502961Y-73043438D01*
X109509972Y-73042800D01*
X109509976Y-73042800D01*
X109664602Y-73028727D01*
X109683600Y-73026998D01*
X109690302Y-73024820D01*
X109690304Y-73024820D01*
X109849409Y-72973124D01*
X109849412Y-72973123D01*
X109856108Y-72970947D01*
X110011912Y-72878069D01*
X110017017Y-72873207D01*
X110022381Y-72869136D01*
X110088735Y-72843884D01*
X110098560Y-72843500D01*
X114123871Y-72843500D01*
X114134512Y-72844002D01*
X114141806Y-72845632D01*
X114149732Y-72845383D01*
X114149733Y-72845383D01*
X114207673Y-72843562D01*
X114211631Y-72843500D01*
X114238598Y-72843500D01*
X114242536Y-72843003D01*
X114243277Y-72842956D01*
X114254116Y-72842103D01*
X114296736Y-72840763D01*
X114304351Y-72838550D01*
X114304354Y-72838550D01*
X114315269Y-72835379D01*
X114334634Y-72831368D01*
X114345925Y-72829942D01*
X114345927Y-72829941D01*
X114353784Y-72828949D01*
X114361148Y-72826033D01*
X114361153Y-72826032D01*
X114393425Y-72813254D01*
X114404658Y-72809408D01*
X114437972Y-72799730D01*
X114437976Y-72799728D01*
X114445587Y-72797517D01*
X114462201Y-72787691D01*
X114479955Y-72778994D01*
X114497905Y-72771887D01*
X114532397Y-72746827D01*
X114542306Y-72740318D01*
X114579007Y-72718613D01*
X114592651Y-72704969D01*
X114607685Y-72692128D01*
X114616893Y-72685438D01*
X114616894Y-72685437D01*
X114623308Y-72680777D01*
X114650487Y-72647923D01*
X114658477Y-72639143D01*
X116369970Y-70927650D01*
X116377859Y-70920471D01*
X116384168Y-70916467D01*
X116429287Y-70868420D01*
X116432041Y-70865579D01*
X116451103Y-70846517D01*
X116453533Y-70843385D01*
X116453968Y-70842891D01*
X116461091Y-70834553D01*
X116490277Y-70803472D01*
X116494095Y-70796527D01*
X116494098Y-70796523D01*
X116499577Y-70786556D01*
X116510433Y-70770029D01*
X116517402Y-70761044D01*
X116522262Y-70754779D01*
X116539195Y-70715650D01*
X116544416Y-70704993D01*
X116561131Y-70674588D01*
X116561131Y-70674587D01*
X116564951Y-70667639D01*
X116566922Y-70659962D01*
X116566924Y-70659957D01*
X116569750Y-70648948D01*
X116576156Y-70630236D01*
X116580675Y-70619794D01*
X116583822Y-70612522D01*
X116590491Y-70570413D01*
X116592899Y-70558789D01*
X116601529Y-70525180D01*
X116601529Y-70525179D01*
X116603500Y-70517503D01*
X116603500Y-70498203D01*
X116605051Y-70478492D01*
X116606831Y-70467254D01*
X116606831Y-70467252D01*
X116608071Y-70459424D01*
X116604059Y-70416983D01*
X116603500Y-70405125D01*
X116603500Y-68295722D01*
X116624552Y-68225995D01*
X116637342Y-68206744D01*
X116713643Y-68091902D01*
X116767848Y-67949207D01*
X116775555Y-67928920D01*
X116775556Y-67928918D01*
X116778055Y-67922338D01*
X116779035Y-67915366D01*
X116802748Y-67746639D01*
X116802748Y-67746636D01*
X116803299Y-67742717D01*
X116803616Y-67720000D01*
X116783397Y-67539745D01*
X116781080Y-67533091D01*
X116726064Y-67375106D01*
X116726062Y-67375103D01*
X116723745Y-67368448D01*
X116693312Y-67319745D01*
X116631359Y-67220598D01*
X116627626Y-67214624D01*
X116613941Y-67200843D01*
X116504778Y-67090915D01*
X116504774Y-67090912D01*
X116499815Y-67085918D01*
X116488697Y-67078862D01*
X116417146Y-67033455D01*
X116346666Y-66988727D01*
X116286085Y-66967155D01*
X116182425Y-66930243D01*
X116182420Y-66930242D01*
X116175790Y-66927881D01*
X116168802Y-66927048D01*
X116168799Y-66927047D01*
X116045477Y-66912342D01*
X115995680Y-66906404D01*
X115988677Y-66907140D01*
X115988676Y-66907140D01*
X115822288Y-66924628D01*
X115822286Y-66924629D01*
X115815288Y-66925364D01*
X115643579Y-66983818D01*
X115623625Y-66996094D01*
X115495095Y-67075166D01*
X115495092Y-67075168D01*
X115489088Y-67078862D01*
X115484053Y-67083793D01*
X115484050Y-67083795D01*
X115384842Y-67180947D01*
X115359493Y-67205771D01*
X115261235Y-67358238D01*
X115258826Y-67364858D01*
X115258824Y-67364861D01*
X115202081Y-67520760D01*
X115199197Y-67528685D01*
X115176463Y-67708640D01*
X115194163Y-67889160D01*
X115251418Y-68061273D01*
X115255065Y-68067295D01*
X115255066Y-68067297D01*
X115339518Y-68206744D01*
X115345380Y-68216424D01*
X115350275Y-68221493D01*
X115350329Y-68221563D01*
X115376045Y-68287739D01*
X115376500Y-68298441D01*
X115376500Y-70133690D01*
X115356498Y-70201811D01*
X115339595Y-70222785D01*
X113982785Y-71579595D01*
X113920473Y-71613621D01*
X113893690Y-71616500D01*
X110098532Y-71616500D01*
X110030411Y-71596498D01*
X110030341Y-71596447D01*
X110029815Y-71595918D01*
X110028059Y-71594804D01*
X110028054Y-71594800D01*
X109959240Y-71551130D01*
X109876666Y-71498727D01*
X109826442Y-71480843D01*
X109712425Y-71440243D01*
X109712420Y-71440242D01*
X109705790Y-71437881D01*
X109698802Y-71437048D01*
X109698799Y-71437047D01*
X109575698Y-71422368D01*
X109525680Y-71416404D01*
X109518677Y-71417140D01*
X109518676Y-71417140D01*
X109352288Y-71434628D01*
X109352286Y-71434629D01*
X109345288Y-71435364D01*
X109173579Y-71493818D01*
X109019088Y-71588862D01*
X109017433Y-71590483D01*
X108953176Y-71615967D01*
X108941603Y-71616500D01*
X106464078Y-71616500D01*
X106453437Y-71615998D01*
X106446143Y-71614368D01*
X106438217Y-71614617D01*
X106438216Y-71614617D01*
X106380276Y-71616438D01*
X106376318Y-71616500D01*
X106349351Y-71616500D01*
X106345413Y-71616997D01*
X106344672Y-71617044D01*
X106333833Y-71617897D01*
X106291213Y-71619237D01*
X106283598Y-71621450D01*
X106283595Y-71621450D01*
X106272680Y-71624621D01*
X106253315Y-71628632D01*
X106242024Y-71630058D01*
X106242022Y-71630059D01*
X106234165Y-71631051D01*
X106226801Y-71633967D01*
X106226796Y-71633968D01*
X106194524Y-71646746D01*
X106183291Y-71650592D01*
X106149977Y-71660270D01*
X106149973Y-71660272D01*
X106142362Y-71662483D01*
X106125748Y-71672309D01*
X106107994Y-71681006D01*
X106090044Y-71688113D01*
X106083630Y-71692773D01*
X106055555Y-71713171D01*
X106045643Y-71719682D01*
X106008942Y-71741387D01*
X105995298Y-71755031D01*
X105980264Y-71767872D01*
X105964641Y-71779223D01*
X105959588Y-71785331D01*
X105937462Y-71812077D01*
X105929472Y-71820857D01*
X105074039Y-72676290D01*
X105011727Y-72710316D01*
X104998118Y-72712505D01*
X104975994Y-72714830D01*
X104935812Y-72719053D01*
X104935810Y-72719053D01*
X104928812Y-72719789D01*
X104757103Y-72778243D01*
X104725774Y-72797517D01*
X104650406Y-72843884D01*
X104602612Y-72873287D01*
X104600957Y-72874908D01*
X104536700Y-72900392D01*
X104525127Y-72900925D01*
X102620001Y-72900925D01*
X102551880Y-72880923D01*
X102505387Y-72827267D01*
X102495283Y-72756993D01*
X102524777Y-72692413D01*
X102530906Y-72685830D01*
X107071773Y-68144963D01*
X107134085Y-68110937D01*
X107160868Y-68108058D01*
X107782907Y-68108058D01*
X107851028Y-68128060D01*
X107897521Y-68181716D01*
X107907625Y-68251990D01*
X107897102Y-68287308D01*
X107812880Y-68467924D01*
X107755885Y-68680629D01*
X107736693Y-68900000D01*
X107755885Y-69119371D01*
X107812880Y-69332076D01*
X107835203Y-69379948D01*
X107903618Y-69526666D01*
X107903621Y-69526671D01*
X107905944Y-69531653D01*
X107909100Y-69536160D01*
X107909101Y-69536162D01*
X108028179Y-69706222D01*
X108032251Y-69712038D01*
X108187962Y-69867749D01*
X108368346Y-69994056D01*
X108567924Y-70087120D01*
X108780629Y-70144115D01*
X109000000Y-70163307D01*
X109219371Y-70144115D01*
X109432076Y-70087120D01*
X109631654Y-69994056D01*
X109812038Y-69867749D01*
X109967749Y-69712038D01*
X109971822Y-69706222D01*
X110090899Y-69536162D01*
X110090900Y-69536160D01*
X110094056Y-69531653D01*
X110096379Y-69526671D01*
X110096382Y-69526666D01*
X110164797Y-69379948D01*
X110187120Y-69332076D01*
X110244115Y-69119371D01*
X110244672Y-69113004D01*
X110244816Y-69112636D01*
X110245550Y-69108473D01*
X110246387Y-69108621D01*
X110270535Y-69046886D01*
X110328038Y-69005246D01*
X110398926Y-69001305D01*
X110439186Y-69018553D01*
X110462075Y-69033531D01*
X110573159Y-69106222D01*
X110579763Y-69108678D01*
X110579765Y-69108679D01*
X110736558Y-69166990D01*
X110736560Y-69166990D01*
X110743168Y-69169448D01*
X110811848Y-69178612D01*
X110915980Y-69192507D01*
X110915984Y-69192507D01*
X110922961Y-69193438D01*
X110929972Y-69192800D01*
X110929976Y-69192800D01*
X111072459Y-69179832D01*
X111103600Y-69176998D01*
X111110302Y-69174820D01*
X111110304Y-69174820D01*
X111269409Y-69123124D01*
X111269412Y-69123123D01*
X111276108Y-69120947D01*
X111382459Y-69057549D01*
X111425860Y-69031677D01*
X111425862Y-69031676D01*
X111431912Y-69028069D01*
X111563266Y-68902982D01*
X111663643Y-68751902D01*
X111728055Y-68582338D01*
X111743032Y-68475771D01*
X111752748Y-68406639D01*
X111752748Y-68406636D01*
X111753299Y-68402717D01*
X111753616Y-68380000D01*
X111733397Y-68199745D01*
X111720906Y-68163875D01*
X111676064Y-68035106D01*
X111676062Y-68035103D01*
X111673745Y-68028448D01*
X111577626Y-67874624D01*
X111528494Y-67825148D01*
X111454778Y-67750915D01*
X111454774Y-67750912D01*
X111449815Y-67745918D01*
X111418570Y-67726089D01*
X111378372Y-67700579D01*
X111296666Y-67648727D01*
X111246734Y-67630947D01*
X111132425Y-67590243D01*
X111132420Y-67590242D01*
X111125790Y-67587881D01*
X111118802Y-67587048D01*
X111118799Y-67587047D01*
X111043892Y-67578115D01*
X110978619Y-67550187D01*
X110969716Y-67542096D01*
X110542208Y-67114588D01*
X110535029Y-67106699D01*
X110531025Y-67100390D01*
X110522451Y-67092338D01*
X110482979Y-67055272D01*
X110480137Y-67052517D01*
X110461075Y-67033455D01*
X110457948Y-67031029D01*
X110457469Y-67030607D01*
X110449112Y-67023468D01*
X110423808Y-66999707D01*
X110418030Y-66994281D01*
X110401112Y-66984980D01*
X110384592Y-66974128D01*
X110375603Y-66967155D01*
X110375601Y-66967154D01*
X110369337Y-66962295D01*
X110330201Y-66945359D01*
X110319548Y-66940140D01*
X110289143Y-66923425D01*
X110289140Y-66923424D01*
X110282197Y-66919607D01*
X110263501Y-66914807D01*
X110244801Y-66908404D01*
X110227079Y-66900735D01*
X110219252Y-66899495D01*
X110219251Y-66899495D01*
X110199664Y-66896393D01*
X110184971Y-66894066D01*
X110173349Y-66891658D01*
X110139746Y-66883030D01*
X110139737Y-66883029D01*
X110132061Y-66881058D01*
X110112760Y-66881058D01*
X110093049Y-66879507D01*
X110081811Y-66877727D01*
X110073982Y-66876487D01*
X110060865Y-66877727D01*
X110031541Y-66880499D01*
X110019683Y-66881058D01*
X108130752Y-66881058D01*
X108062631Y-66861056D01*
X108016138Y-66807400D01*
X108006034Y-66737126D01*
X108035528Y-66672546D01*
X108041657Y-66665963D01*
X108404997Y-66302623D01*
X108467309Y-66268597D01*
X108538124Y-66273662D01*
X108547339Y-66277522D01*
X108562934Y-66284794D01*
X108562943Y-66284797D01*
X108567924Y-66287120D01*
X108780629Y-66344115D01*
X109000000Y-66363307D01*
X109219371Y-66344115D01*
X109432076Y-66287120D01*
X109631654Y-66194056D01*
X109765632Y-66100243D01*
X109807527Y-66070908D01*
X109807529Y-66070906D01*
X109812038Y-66067749D01*
X109967749Y-65912038D01*
X110026114Y-65828685D01*
X110090899Y-65736162D01*
X110090900Y-65736160D01*
X110094056Y-65731653D01*
X110096379Y-65726671D01*
X110096382Y-65726666D01*
X110176126Y-65555653D01*
X110187120Y-65532076D01*
X110244115Y-65319371D01*
X110263307Y-65100000D01*
X110244115Y-64880629D01*
X110187120Y-64667924D01*
X110119111Y-64522077D01*
X110096382Y-64473334D01*
X110096379Y-64473329D01*
X110094056Y-64468347D01*
X110086108Y-64456996D01*
X109970908Y-64292473D01*
X109970906Y-64292470D01*
X109967749Y-64287962D01*
X109812038Y-64132251D01*
X109791195Y-64117656D01*
X109732759Y-64076739D01*
X109631654Y-64005944D01*
X109432076Y-63912880D01*
X109219371Y-63855885D01*
X109000000Y-63836693D01*
X108780629Y-63855885D01*
X108567924Y-63912880D01*
X108508950Y-63940380D01*
X108373334Y-64003618D01*
X108373329Y-64003621D01*
X108368347Y-64005944D01*
X108363840Y-64009100D01*
X108363838Y-64009101D01*
X108192473Y-64129092D01*
X108192470Y-64129094D01*
X108187962Y-64132251D01*
X108032251Y-64287962D01*
X108029094Y-64292470D01*
X108029092Y-64292473D01*
X107913892Y-64456996D01*
X107905944Y-64468347D01*
X107903621Y-64473329D01*
X107903618Y-64473334D01*
X107880889Y-64522077D01*
X107812880Y-64667924D01*
X107755885Y-64880629D01*
X107736693Y-65100000D01*
X107737172Y-65105475D01*
X107737172Y-65105476D01*
X107742488Y-65166242D01*
X107728498Y-65235847D01*
X107706062Y-65266318D01*
X107458595Y-65513785D01*
X107396283Y-65547811D01*
X107325468Y-65542746D01*
X107268632Y-65500199D01*
X107243821Y-65433679D01*
X107243500Y-65424690D01*
X107243500Y-44296129D01*
X107244002Y-44285488D01*
X107245632Y-44278194D01*
X107243562Y-44212327D01*
X107243500Y-44208369D01*
X107243500Y-44181402D01*
X107243003Y-44177464D01*
X107242956Y-44176723D01*
X107242102Y-44165876D01*
X107241012Y-44131188D01*
X107240763Y-44123264D01*
X107238550Y-44115646D01*
X107235379Y-44104731D01*
X107231368Y-44085366D01*
X107229943Y-44074082D01*
X107229942Y-44074079D01*
X107228949Y-44066216D01*
X107213254Y-44026576D01*
X107209409Y-44015347D01*
X107207477Y-44008695D01*
X107197517Y-43974414D01*
X107187689Y-43957796D01*
X107178997Y-43940054D01*
X107171887Y-43922095D01*
X107167225Y-43915678D01*
X107146824Y-43887598D01*
X107140306Y-43877675D01*
X107122650Y-43847819D01*
X107122649Y-43847818D01*
X107118613Y-43840993D01*
X107104969Y-43827349D01*
X107092128Y-43812315D01*
X107085438Y-43803107D01*
X107085437Y-43803106D01*
X107080777Y-43796692D01*
X107047923Y-43769513D01*
X107039143Y-43761523D01*
X103087650Y-39810030D01*
X103080471Y-39802141D01*
X103076467Y-39795832D01*
X103028420Y-39750713D01*
X103025579Y-39747959D01*
X103006517Y-39728897D01*
X103005895Y-39728414D01*
X102968402Y-39668962D01*
X102969010Y-39597968D01*
X103007904Y-39538573D01*
X103072735Y-39509634D01*
X103089598Y-39508500D01*
X121065500Y-39508500D01*
X121133621Y-39528502D01*
G37*
G04 #@! TD.AperFunction*
G04 #@! TA.AperFunction,Conductor*
G36*
X84101078Y-39528502D02*
G01*
X84147571Y-39582158D01*
X84157675Y-39652432D01*
X84128181Y-39717012D01*
X84091332Y-39746162D01*
X83950846Y-39819606D01*
X83940585Y-39826321D01*
X83796127Y-39942468D01*
X83787368Y-39951046D01*
X83668222Y-40093039D01*
X83661292Y-40103159D01*
X83571998Y-40265585D01*
X83567166Y-40276858D01*
X83511120Y-40453538D01*
X83508570Y-40465532D01*
X83492393Y-40609761D01*
X83492000Y-40616785D01*
X83492000Y-40697885D01*
X83496475Y-40713124D01*
X83497865Y-40714329D01*
X83505548Y-40716000D01*
X85489885Y-40716000D01*
X85505124Y-40711525D01*
X85506329Y-40710135D01*
X85508000Y-40702452D01*
X85508000Y-40623343D01*
X85507699Y-40617195D01*
X85494188Y-40479397D01*
X85491805Y-40467362D01*
X85438233Y-40289924D01*
X85433559Y-40278584D01*
X85346540Y-40114923D01*
X85339751Y-40104706D01*
X85222603Y-39961067D01*
X85213959Y-39952363D01*
X85071144Y-39834216D01*
X85060973Y-39827356D01*
X84909281Y-39745336D01*
X84858872Y-39695341D01*
X84843495Y-39626030D01*
X84868031Y-39559408D01*
X84924691Y-39516627D01*
X84969210Y-39508500D01*
X94122609Y-39508500D01*
X94190730Y-39528502D01*
X94237223Y-39582158D01*
X94247327Y-39652432D01*
X94218686Y-39715143D01*
X94218979Y-39715382D01*
X94218066Y-39716501D01*
X94217833Y-39717012D01*
X94216454Y-39718478D01*
X94214525Y-39720843D01*
X94209493Y-39725771D01*
X94111235Y-39878238D01*
X94108826Y-39884858D01*
X94108824Y-39884861D01*
X94063746Y-40008711D01*
X94049197Y-40048685D01*
X94026463Y-40228640D01*
X94044163Y-40409160D01*
X94101418Y-40581273D01*
X94105065Y-40587295D01*
X94105066Y-40587297D01*
X94180301Y-40711525D01*
X94195380Y-40736424D01*
X94321382Y-40866902D01*
X94473159Y-40966222D01*
X94479763Y-40968678D01*
X94479765Y-40968679D01*
X94636558Y-41026990D01*
X94636560Y-41026990D01*
X94643168Y-41029448D01*
X94726995Y-41040633D01*
X94815980Y-41052507D01*
X94815984Y-41052507D01*
X94822961Y-41053438D01*
X94829972Y-41052800D01*
X94829976Y-41052800D01*
X94972459Y-41039832D01*
X95003600Y-41036998D01*
X95010302Y-41034820D01*
X95010304Y-41034820D01*
X95169409Y-40983124D01*
X95169412Y-40983123D01*
X95176108Y-40980947D01*
X95331912Y-40888069D01*
X95384223Y-40838254D01*
X95447348Y-40805762D01*
X95471115Y-40803500D01*
X102293690Y-40803500D01*
X102361811Y-40823502D01*
X102382785Y-40840405D01*
X105979595Y-44437215D01*
X106013621Y-44499527D01*
X106016500Y-44526310D01*
X106016500Y-65175670D01*
X105996498Y-65243791D01*
X105942842Y-65290284D01*
X105872568Y-65300388D01*
X105838566Y-65289933D01*
X105836666Y-65288727D01*
X105830027Y-65286363D01*
X105830023Y-65286361D01*
X105672425Y-65230243D01*
X105672420Y-65230242D01*
X105665790Y-65227881D01*
X105658802Y-65227048D01*
X105658799Y-65227047D01*
X105522906Y-65210843D01*
X105485680Y-65206404D01*
X105478677Y-65207140D01*
X105478676Y-65207140D01*
X105312288Y-65224628D01*
X105312286Y-65224629D01*
X105305288Y-65225364D01*
X105133579Y-65283818D01*
X105075789Y-65319371D01*
X104985095Y-65375166D01*
X104985092Y-65375168D01*
X104979088Y-65378862D01*
X104974053Y-65383793D01*
X104974050Y-65383795D01*
X104855183Y-65500199D01*
X104849493Y-65505771D01*
X104751235Y-65658238D01*
X104748826Y-65664858D01*
X104748824Y-65664861D01*
X104695665Y-65810915D01*
X104689197Y-65828685D01*
X104688314Y-65835673D01*
X104688314Y-65835674D01*
X104678048Y-65916940D01*
X104649667Y-65982016D01*
X104642137Y-65990243D01*
X104467409Y-66164971D01*
X104405097Y-66198997D01*
X104334282Y-66193932D01*
X104277446Y-66151385D01*
X104252635Y-66084865D01*
X104260526Y-66031132D01*
X104268959Y-66008934D01*
X104285078Y-65966500D01*
X104295555Y-65938920D01*
X104295556Y-65938918D01*
X104298055Y-65932338D01*
X104312178Y-65831849D01*
X104322748Y-65756639D01*
X104322748Y-65756636D01*
X104323299Y-65752717D01*
X104323530Y-65736162D01*
X104323561Y-65733962D01*
X104323561Y-65733957D01*
X104323616Y-65730000D01*
X104303397Y-65549745D01*
X104300577Y-65541646D01*
X104246064Y-65385106D01*
X104246062Y-65385103D01*
X104243745Y-65378448D01*
X104240009Y-65372469D01*
X104151359Y-65230598D01*
X104147626Y-65224624D01*
X104129533Y-65206404D01*
X104024778Y-65100915D01*
X104024774Y-65100912D01*
X104019815Y-65095918D01*
X104008773Y-65088910D01*
X103931024Y-65039570D01*
X103866666Y-64998727D01*
X103822721Y-64983079D01*
X103702425Y-64940243D01*
X103702420Y-64940242D01*
X103695790Y-64937881D01*
X103688802Y-64937048D01*
X103688799Y-64937047D01*
X103543698Y-64919745D01*
X103515680Y-64916404D01*
X103508677Y-64917140D01*
X103508676Y-64917140D01*
X103342288Y-64934628D01*
X103342286Y-64934629D01*
X103335288Y-64935364D01*
X103163579Y-64993818D01*
X103120574Y-65020275D01*
X103015095Y-65085166D01*
X103015092Y-65085168D01*
X103009088Y-65088862D01*
X103004053Y-65093793D01*
X103004050Y-65093795D01*
X102884525Y-65210843D01*
X102879493Y-65215771D01*
X102781235Y-65368238D01*
X102778826Y-65374858D01*
X102778824Y-65374861D01*
X102721606Y-65532066D01*
X102719197Y-65538685D01*
X102696463Y-65718640D01*
X102696082Y-65718592D01*
X102676353Y-65782467D01*
X102660412Y-65801968D01*
X101746586Y-66715794D01*
X101684274Y-66749820D01*
X101613459Y-66744755D01*
X101556623Y-66702208D01*
X101531812Y-66635688D01*
X101532717Y-66609163D01*
X101552748Y-66466639D01*
X101552748Y-66466636D01*
X101553299Y-66462717D01*
X101553616Y-66440000D01*
X101533397Y-66259745D01*
X101526604Y-66240237D01*
X101476064Y-66095106D01*
X101476062Y-66095103D01*
X101473745Y-66088448D01*
X101405503Y-65979237D01*
X101381359Y-65940598D01*
X101377626Y-65934624D01*
X101372664Y-65929627D01*
X101254778Y-65810915D01*
X101254774Y-65810912D01*
X101249815Y-65805918D01*
X101241636Y-65800727D01*
X101159743Y-65748757D01*
X101096666Y-65708727D01*
X101067463Y-65698328D01*
X100932425Y-65650243D01*
X100932420Y-65650242D01*
X100925790Y-65647881D01*
X100918802Y-65647048D01*
X100918799Y-65647047D01*
X100843892Y-65638115D01*
X100778619Y-65610187D01*
X100769716Y-65602096D01*
X100347650Y-65180030D01*
X100340471Y-65172141D01*
X100336467Y-65165832D01*
X100288420Y-65120713D01*
X100285579Y-65117959D01*
X100266517Y-65098897D01*
X100263390Y-65096471D01*
X100262911Y-65096049D01*
X100254554Y-65088910D01*
X100229250Y-65065149D01*
X100223472Y-65059723D01*
X100206554Y-65050422D01*
X100190034Y-65039570D01*
X100181045Y-65032597D01*
X100181043Y-65032596D01*
X100174779Y-65027737D01*
X100135643Y-65010801D01*
X100124990Y-65005582D01*
X100094585Y-64988867D01*
X100094582Y-64988866D01*
X100087639Y-64985049D01*
X100068943Y-64980249D01*
X100050243Y-64973846D01*
X100032521Y-64966177D01*
X100024694Y-64964937D01*
X100024693Y-64964937D01*
X100005106Y-64961835D01*
X99990413Y-64959508D01*
X99978791Y-64957100D01*
X99945188Y-64948472D01*
X99945179Y-64948471D01*
X99937503Y-64946500D01*
X99918202Y-64946500D01*
X99898491Y-64944949D01*
X99887253Y-64943169D01*
X99879424Y-64941929D01*
X99866307Y-64943169D01*
X99836983Y-64945941D01*
X99825125Y-64946500D01*
X99216310Y-64946500D01*
X99148189Y-64926498D01*
X99127215Y-64909595D01*
X98777650Y-64560030D01*
X98770471Y-64552141D01*
X98766467Y-64545832D01*
X98718420Y-64500713D01*
X98715579Y-64497959D01*
X98696517Y-64478897D01*
X98693390Y-64476471D01*
X98692911Y-64476049D01*
X98684554Y-64468910D01*
X98659250Y-64445149D01*
X98653472Y-64439723D01*
X98636554Y-64430422D01*
X98620034Y-64419570D01*
X98611045Y-64412597D01*
X98611043Y-64412596D01*
X98604779Y-64407737D01*
X98565643Y-64390801D01*
X98554990Y-64385582D01*
X98524585Y-64368867D01*
X98524582Y-64368866D01*
X98517639Y-64365049D01*
X98498943Y-64360249D01*
X98480243Y-64353846D01*
X98462521Y-64346177D01*
X98454694Y-64344937D01*
X98454693Y-64344937D01*
X98435106Y-64341835D01*
X98420413Y-64339508D01*
X98408791Y-64337100D01*
X98375188Y-64328472D01*
X98375179Y-64328471D01*
X98367503Y-64326500D01*
X98348202Y-64326500D01*
X98328491Y-64324949D01*
X98317253Y-64323169D01*
X98309424Y-64321929D01*
X98296307Y-64323169D01*
X98266983Y-64325941D01*
X98255125Y-64326500D01*
X96386129Y-64326500D01*
X96375488Y-64325998D01*
X96368194Y-64324368D01*
X96360268Y-64324617D01*
X96360267Y-64324617D01*
X96302327Y-64326438D01*
X96298369Y-64326500D01*
X94956129Y-64326500D01*
X94945488Y-64325998D01*
X94938194Y-64324368D01*
X94930268Y-64324617D01*
X94930267Y-64324617D01*
X94872340Y-64326438D01*
X94868381Y-64326500D01*
X94841402Y-64326500D01*
X94837470Y-64326997D01*
X94836749Y-64327042D01*
X94825874Y-64327898D01*
X94796778Y-64328813D01*
X94791183Y-64328989D01*
X94783264Y-64329238D01*
X94764729Y-64334623D01*
X94745372Y-64338631D01*
X94734081Y-64340057D01*
X94734078Y-64340058D01*
X94726216Y-64341051D01*
X94718850Y-64343968D01*
X94718844Y-64343969D01*
X94686571Y-64356747D01*
X94675341Y-64360592D01*
X94634413Y-64372483D01*
X94617799Y-64382309D01*
X94600045Y-64391006D01*
X94582095Y-64398113D01*
X94575681Y-64402773D01*
X94547606Y-64423171D01*
X94537694Y-64429682D01*
X94500993Y-64451387D01*
X94487349Y-64465031D01*
X94472315Y-64477872D01*
X94467049Y-64481698D01*
X94456692Y-64489223D01*
X94451639Y-64495331D01*
X94429513Y-64522077D01*
X94421523Y-64530857D01*
X94230515Y-64721865D01*
X94168203Y-64755891D01*
X94154594Y-64758080D01*
X94132470Y-64760405D01*
X94092288Y-64764628D01*
X94092286Y-64764628D01*
X94085288Y-64765364D01*
X93913579Y-64823818D01*
X93907575Y-64827512D01*
X93765095Y-64915166D01*
X93765092Y-64915168D01*
X93759088Y-64918862D01*
X93754053Y-64923793D01*
X93754050Y-64923795D01*
X93636552Y-65038858D01*
X93629493Y-65045771D01*
X93531235Y-65198238D01*
X93528826Y-65204858D01*
X93528824Y-65204861D01*
X93498230Y-65288917D01*
X93469197Y-65368685D01*
X93446463Y-65548640D01*
X93464163Y-65729160D01*
X93487971Y-65800729D01*
X93490494Y-65871679D01*
X93454258Y-65932732D01*
X93390766Y-65964501D01*
X93368413Y-65966500D01*
X92236129Y-65966500D01*
X92225488Y-65965998D01*
X92218194Y-65964368D01*
X92210268Y-65964617D01*
X92210267Y-65964617D01*
X92152327Y-65966438D01*
X92148369Y-65966500D01*
X92121402Y-65966500D01*
X92117464Y-65966997D01*
X92116723Y-65967044D01*
X92105884Y-65967897D01*
X92063264Y-65969237D01*
X92055506Y-65971491D01*
X92055485Y-65971497D01*
X92054142Y-65971688D01*
X92047823Y-65972689D01*
X92047807Y-65972590D01*
X92020332Y-65976500D01*
X91856129Y-65976500D01*
X91845488Y-65975998D01*
X91838194Y-65974368D01*
X91830268Y-65974617D01*
X91830267Y-65974617D01*
X91772328Y-65976438D01*
X91768370Y-65976500D01*
X91741402Y-65976500D01*
X91737464Y-65976997D01*
X91736723Y-65977044D01*
X91725884Y-65977897D01*
X91683265Y-65979237D01*
X91675650Y-65981450D01*
X91675647Y-65981450D01*
X91664732Y-65984621D01*
X91645368Y-65988632D01*
X91626216Y-65991051D01*
X91618848Y-65993968D01*
X91618841Y-65993970D01*
X91586575Y-66006746D01*
X91575341Y-66010592D01*
X91534414Y-66022483D01*
X91517796Y-66032311D01*
X91500054Y-66041003D01*
X91482095Y-66048113D01*
X91475680Y-66052774D01*
X91475678Y-66052775D01*
X91447598Y-66073176D01*
X91437675Y-66079694D01*
X91408332Y-66097047D01*
X91400993Y-66101387D01*
X91387349Y-66115031D01*
X91372315Y-66127872D01*
X91356692Y-66139223D01*
X91351639Y-66145331D01*
X91329513Y-66172077D01*
X91321523Y-66180857D01*
X89350515Y-68151865D01*
X89288203Y-68185891D01*
X89274594Y-68188080D01*
X89252470Y-68190405D01*
X89212288Y-68194628D01*
X89212286Y-68194628D01*
X89205288Y-68195364D01*
X89033579Y-68253818D01*
X88971109Y-68292250D01*
X88885095Y-68345166D01*
X88885092Y-68345168D01*
X88879088Y-68348862D01*
X88874053Y-68353793D01*
X88874050Y-68353795D01*
X88757506Y-68467924D01*
X88749493Y-68475771D01*
X88651235Y-68628238D01*
X88589197Y-68798685D01*
X88581903Y-68856424D01*
X88580656Y-68866292D01*
X88552274Y-68931369D01*
X88493214Y-68970770D01*
X88455650Y-68976500D01*
X79778532Y-68976500D01*
X79710411Y-68956498D01*
X79710341Y-68956447D01*
X79709815Y-68955918D01*
X79708059Y-68954804D01*
X79708054Y-68954800D01*
X79637460Y-68910000D01*
X79556666Y-68858727D01*
X79527463Y-68848328D01*
X79392425Y-68800243D01*
X79392420Y-68800242D01*
X79385790Y-68797881D01*
X79378802Y-68797048D01*
X79378799Y-68797047D01*
X79255698Y-68782368D01*
X79205680Y-68776404D01*
X79198677Y-68777140D01*
X79198676Y-68777140D01*
X79032288Y-68794628D01*
X79032286Y-68794629D01*
X79025288Y-68795364D01*
X78925104Y-68829469D01*
X78854173Y-68832487D01*
X78792869Y-68796677D01*
X78760657Y-68733408D01*
X78758500Y-68710191D01*
X78758500Y-63866371D01*
X78778502Y-63798250D01*
X78795405Y-63777276D01*
X80131276Y-62441405D01*
X80193588Y-62407379D01*
X80220371Y-62404500D01*
X82806709Y-62404500D01*
X82874830Y-62424502D01*
X82921323Y-62478158D01*
X82932107Y-62518203D01*
X82933474Y-62532143D01*
X82933476Y-62532152D01*
X82934163Y-62539160D01*
X82991418Y-62711273D01*
X83085380Y-62866424D01*
X83211382Y-62996902D01*
X83363159Y-63096222D01*
X83369763Y-63098678D01*
X83369765Y-63098679D01*
X83526558Y-63156990D01*
X83526560Y-63156990D01*
X83533168Y-63159448D01*
X83616995Y-63170633D01*
X83705980Y-63182507D01*
X83705984Y-63182507D01*
X83712961Y-63183438D01*
X83719974Y-63182800D01*
X83725720Y-63182920D01*
X83793407Y-63204344D01*
X83812177Y-63219797D01*
X87511675Y-66919295D01*
X87545701Y-66981607D01*
X87547979Y-66996094D01*
X87548421Y-67000598D01*
X87554163Y-67059160D01*
X87556387Y-67065845D01*
X87556387Y-67065846D01*
X87569681Y-67105809D01*
X87611418Y-67231273D01*
X87615065Y-67237295D01*
X87615066Y-67237297D01*
X87698526Y-67375106D01*
X87705380Y-67386424D01*
X87710269Y-67391487D01*
X87710270Y-67391488D01*
X87751175Y-67433846D01*
X87831382Y-67516902D01*
X87983159Y-67616222D01*
X87989763Y-67618678D01*
X87989765Y-67618679D01*
X88146558Y-67676990D01*
X88146560Y-67676990D01*
X88153168Y-67679448D01*
X88236995Y-67690633D01*
X88325980Y-67702507D01*
X88325984Y-67702507D01*
X88332961Y-67703438D01*
X88339972Y-67702800D01*
X88339976Y-67702800D01*
X88482459Y-67689832D01*
X88513600Y-67686998D01*
X88520302Y-67684820D01*
X88520304Y-67684820D01*
X88679409Y-67633124D01*
X88679412Y-67633123D01*
X88686108Y-67630947D01*
X88783400Y-67572949D01*
X88835860Y-67541677D01*
X88835862Y-67541676D01*
X88841912Y-67538069D01*
X88973266Y-67412982D01*
X89073643Y-67261902D01*
X89119012Y-67142469D01*
X89135555Y-67098920D01*
X89135556Y-67098918D01*
X89138055Y-67092338D01*
X89139949Y-67078862D01*
X89162748Y-66916639D01*
X89162748Y-66916636D01*
X89163299Y-66912717D01*
X89163484Y-66899495D01*
X89163561Y-66893962D01*
X89163561Y-66893957D01*
X89163616Y-66890000D01*
X89143397Y-66709745D01*
X89141080Y-66703091D01*
X89086064Y-66545106D01*
X89086062Y-66545103D01*
X89083745Y-66538448D01*
X89038874Y-66466639D01*
X88991359Y-66390598D01*
X88987626Y-66384624D01*
X88981117Y-66378069D01*
X88864778Y-66260915D01*
X88864774Y-66260912D01*
X88859815Y-66255918D01*
X88706666Y-66158727D01*
X88669046Y-66145331D01*
X88542425Y-66100243D01*
X88542420Y-66100242D01*
X88535790Y-66097881D01*
X88528802Y-66097048D01*
X88528799Y-66097047D01*
X88453892Y-66088115D01*
X88388619Y-66060187D01*
X88379716Y-66052096D01*
X84947215Y-62619595D01*
X84913189Y-62557283D01*
X84918254Y-62486468D01*
X84960801Y-62429632D01*
X85027321Y-62404821D01*
X85036310Y-62404500D01*
X86279629Y-62404500D01*
X86347750Y-62424502D01*
X86368724Y-62441405D01*
X88538903Y-64611584D01*
X88558506Y-64639682D01*
X88559329Y-64639184D01*
X88635746Y-64765364D01*
X88653291Y-64794335D01*
X88658180Y-64799398D01*
X88658181Y-64799399D01*
X88683630Y-64825752D01*
X88779293Y-64924813D01*
X88785189Y-64928671D01*
X88910700Y-65010803D01*
X88931070Y-65024133D01*
X88937674Y-65026589D01*
X88937676Y-65026590D01*
X89094469Y-65084901D01*
X89094471Y-65084901D01*
X89101079Y-65087359D01*
X89184906Y-65098544D01*
X89273891Y-65110418D01*
X89273895Y-65110418D01*
X89280872Y-65111349D01*
X89287883Y-65110711D01*
X89287887Y-65110711D01*
X89430370Y-65097743D01*
X89461511Y-65094909D01*
X89468213Y-65092731D01*
X89468215Y-65092731D01*
X89627320Y-65041035D01*
X89627323Y-65041034D01*
X89634019Y-65038858D01*
X89750663Y-64969324D01*
X89783771Y-64949588D01*
X89783773Y-64949587D01*
X89789823Y-64945980D01*
X89921177Y-64820893D01*
X90021554Y-64669813D01*
X90066592Y-64551251D01*
X90083466Y-64506831D01*
X90083467Y-64506829D01*
X90085966Y-64500249D01*
X90089930Y-64472047D01*
X90110659Y-64324550D01*
X90110659Y-64324547D01*
X90111210Y-64320628D01*
X90111527Y-64297911D01*
X90091308Y-64117656D01*
X90031656Y-63946359D01*
X89935537Y-63792535D01*
X89920384Y-63777276D01*
X89812689Y-63668826D01*
X89812685Y-63668823D01*
X89807726Y-63663829D01*
X89654577Y-63566638D01*
X89647937Y-63564274D01*
X89645443Y-63563057D01*
X89611586Y-63538905D01*
X87229770Y-61157089D01*
X87217384Y-61142677D01*
X87208851Y-61131082D01*
X87208846Y-61131077D01*
X87204508Y-61125182D01*
X87198930Y-61120443D01*
X87198927Y-61120440D01*
X87164232Y-61090965D01*
X87156716Y-61084035D01*
X87151021Y-61078340D01*
X87134736Y-61065456D01*
X87128749Y-61060719D01*
X87125345Y-61057928D01*
X87075297Y-61015409D01*
X87075295Y-61015408D01*
X87069715Y-61010667D01*
X87063199Y-61007339D01*
X87058150Y-61003972D01*
X87053021Y-61000805D01*
X87047284Y-60996266D01*
X86981125Y-60965345D01*
X86977225Y-60963439D01*
X86912192Y-60930231D01*
X86905084Y-60928492D01*
X86899441Y-60926393D01*
X86893678Y-60924476D01*
X86887050Y-60921378D01*
X86815583Y-60906513D01*
X86811299Y-60905543D01*
X86740390Y-60888192D01*
X86734788Y-60887844D01*
X86734785Y-60887844D01*
X86729236Y-60887500D01*
X86729238Y-60887464D01*
X86725245Y-60887225D01*
X86721053Y-60886851D01*
X86713885Y-60885360D01*
X86650120Y-60887085D01*
X86636479Y-60887454D01*
X86633072Y-60887500D01*
X79921070Y-60887500D01*
X79902120Y-60886067D01*
X79887885Y-60883901D01*
X79887881Y-60883901D01*
X79880651Y-60882801D01*
X79873359Y-60883394D01*
X79873356Y-60883394D01*
X79827982Y-60887085D01*
X79817767Y-60887500D01*
X79809707Y-60887500D01*
X79806073Y-60887924D01*
X79806067Y-60887924D01*
X79793042Y-60889443D01*
X79781480Y-60890791D01*
X79777132Y-60891221D01*
X79704364Y-60897140D01*
X79697403Y-60899395D01*
X79691463Y-60900582D01*
X79685588Y-60901971D01*
X79678319Y-60902818D01*
X79609670Y-60927736D01*
X79605542Y-60929153D01*
X79543064Y-60949393D01*
X79543062Y-60949394D01*
X79536101Y-60951649D01*
X79529846Y-60955445D01*
X79524372Y-60957951D01*
X79518942Y-60960670D01*
X79512063Y-60963167D01*
X79505943Y-60967180D01*
X79505942Y-60967180D01*
X79451024Y-61003186D01*
X79447320Y-61005523D01*
X79384893Y-61043405D01*
X79376516Y-61050803D01*
X79376492Y-61050776D01*
X79373500Y-61053429D01*
X79370267Y-61056132D01*
X79364148Y-61060144D01*
X79334951Y-61090965D01*
X79310872Y-61116383D01*
X79308494Y-61118825D01*
X78323595Y-62103724D01*
X78261283Y-62137750D01*
X78190468Y-62132685D01*
X78133632Y-62090138D01*
X78108821Y-62023618D01*
X78108500Y-62014629D01*
X78108500Y-59650000D01*
X98336372Y-59650000D01*
X98356854Y-59910249D01*
X98358008Y-59915056D01*
X98358009Y-59915062D01*
X98377791Y-59997459D01*
X98417796Y-60164089D01*
X98419689Y-60168660D01*
X98419690Y-60168662D01*
X98460429Y-60267013D01*
X98517697Y-60405271D01*
X98654097Y-60627856D01*
X98823637Y-60826363D01*
X99022144Y-60995903D01*
X99244729Y-61132303D01*
X99249299Y-61134196D01*
X99249303Y-61134198D01*
X99466148Y-61224018D01*
X99485911Y-61232204D01*
X99574931Y-61253576D01*
X99734938Y-61291991D01*
X99734944Y-61291992D01*
X99739751Y-61293146D01*
X99830884Y-61300318D01*
X99932385Y-61308307D01*
X99932394Y-61308307D01*
X99934842Y-61308500D01*
X100065158Y-61308500D01*
X100067606Y-61308307D01*
X100067615Y-61308307D01*
X100169116Y-61300318D01*
X100260249Y-61293146D01*
X100265056Y-61291992D01*
X100265062Y-61291991D01*
X100425069Y-61253576D01*
X100514089Y-61232204D01*
X100533852Y-61224018D01*
X100750697Y-61134198D01*
X100750701Y-61134196D01*
X100755271Y-61132303D01*
X100977856Y-60995903D01*
X101176363Y-60826363D01*
X101345903Y-60627856D01*
X101482303Y-60405271D01*
X101539572Y-60267013D01*
X101580310Y-60168662D01*
X101580311Y-60168660D01*
X101582204Y-60164089D01*
X101622209Y-59997459D01*
X101641991Y-59915062D01*
X101641992Y-59915056D01*
X101643146Y-59910249D01*
X101663628Y-59650000D01*
X101643146Y-59389751D01*
X101641992Y-59384944D01*
X101641991Y-59384938D01*
X101583359Y-59140723D01*
X101582204Y-59135911D01*
X101482303Y-58894729D01*
X101345903Y-58672144D01*
X101176363Y-58473637D01*
X100977856Y-58304097D01*
X100755271Y-58167697D01*
X100750701Y-58165804D01*
X100750697Y-58165802D01*
X100518662Y-58069690D01*
X100518660Y-58069689D01*
X100514089Y-58067796D01*
X100425069Y-58046424D01*
X100265062Y-58008009D01*
X100265056Y-58008008D01*
X100260249Y-58006854D01*
X100169116Y-57999682D01*
X100067615Y-57991693D01*
X100067606Y-57991693D01*
X100065158Y-57991500D01*
X99934842Y-57991500D01*
X99932394Y-57991693D01*
X99932385Y-57991693D01*
X99830884Y-57999682D01*
X99739751Y-58006854D01*
X99734944Y-58008008D01*
X99734938Y-58008009D01*
X99574931Y-58046424D01*
X99485911Y-58067796D01*
X99481340Y-58069689D01*
X99481338Y-58069690D01*
X99249303Y-58165802D01*
X99249299Y-58165804D01*
X99244729Y-58167697D01*
X99022144Y-58304097D01*
X98823637Y-58473637D01*
X98654097Y-58672144D01*
X98517697Y-58894729D01*
X98417796Y-59135911D01*
X98416641Y-59140723D01*
X98358009Y-59384938D01*
X98358008Y-59384944D01*
X98356854Y-59389751D01*
X98336372Y-59650000D01*
X78108500Y-59650000D01*
X78108500Y-53896371D01*
X78128502Y-53828250D01*
X78145405Y-53807276D01*
X78913296Y-53039385D01*
X78975608Y-53005359D01*
X78992723Y-53002851D01*
X78999513Y-53002329D01*
X79049830Y-52998457D01*
X79049834Y-52998456D01*
X79055972Y-52997984D01*
X79246463Y-52944798D01*
X79251967Y-52942018D01*
X79251969Y-52942017D01*
X79417495Y-52858404D01*
X79417497Y-52858403D01*
X79422996Y-52855625D01*
X79578847Y-52733861D01*
X79697748Y-52596113D01*
X79704049Y-52588813D01*
X79704050Y-52588811D01*
X79708078Y-52584145D01*
X79805769Y-52412179D01*
X79868197Y-52224513D01*
X79892985Y-52028295D01*
X79893380Y-52000000D01*
X79874080Y-51803167D01*
X79816916Y-51613831D01*
X79724066Y-51439204D01*
X79653709Y-51352938D01*
X79602960Y-51290713D01*
X79602957Y-51290710D01*
X79599065Y-51285938D01*
X79534398Y-51232440D01*
X79494660Y-51173607D01*
X79493037Y-51102629D01*
X79496925Y-51090612D01*
X79535555Y-50988920D01*
X79535556Y-50988918D01*
X79538055Y-50982338D01*
X79563299Y-50802717D01*
X79563616Y-50780000D01*
X79543397Y-50599745D01*
X79541080Y-50593091D01*
X79486064Y-50435106D01*
X79486062Y-50435103D01*
X79483745Y-50428448D01*
X79387626Y-50274624D01*
X79373941Y-50260843D01*
X79264778Y-50150915D01*
X79264774Y-50150912D01*
X79259815Y-50145918D01*
X79248697Y-50138862D01*
X79151852Y-50077403D01*
X79106666Y-50048727D01*
X79077463Y-50038328D01*
X78942425Y-49990243D01*
X78942420Y-49990242D01*
X78935790Y-49987881D01*
X78928802Y-49987048D01*
X78928799Y-49987047D01*
X78805698Y-49972368D01*
X78755680Y-49966404D01*
X78748677Y-49967140D01*
X78748676Y-49967140D01*
X78582288Y-49984628D01*
X78582286Y-49984629D01*
X78575288Y-49985364D01*
X78403579Y-50043818D01*
X78370202Y-50064352D01*
X78255095Y-50135166D01*
X78255092Y-50135168D01*
X78249088Y-50138862D01*
X78244053Y-50143793D01*
X78244050Y-50143795D01*
X78203503Y-50183502D01*
X78119493Y-50265771D01*
X78021235Y-50418238D01*
X78018825Y-50424860D01*
X78015692Y-50431170D01*
X78014021Y-50430340D01*
X77991269Y-50466050D01*
X76211089Y-52246230D01*
X76196677Y-52258616D01*
X76185082Y-52267149D01*
X76185077Y-52267154D01*
X76179182Y-52271492D01*
X76174443Y-52277070D01*
X76174440Y-52277073D01*
X76144965Y-52311768D01*
X76138035Y-52319284D01*
X76132340Y-52324979D01*
X76130060Y-52327861D01*
X76114719Y-52347251D01*
X76111928Y-52350655D01*
X76069409Y-52400702D01*
X76069405Y-52400708D01*
X76064667Y-52406285D01*
X76061340Y-52412800D01*
X76057972Y-52417850D01*
X76054805Y-52422979D01*
X76050266Y-52428716D01*
X76019345Y-52494875D01*
X76017442Y-52498769D01*
X75984231Y-52563808D01*
X75982492Y-52570916D01*
X75980393Y-52576559D01*
X75978476Y-52582322D01*
X75975378Y-52588950D01*
X75973888Y-52596112D01*
X75973888Y-52596113D01*
X75960514Y-52660412D01*
X75959544Y-52664696D01*
X75942192Y-52735610D01*
X75941500Y-52746764D01*
X75941464Y-52746762D01*
X75941225Y-52750755D01*
X75940851Y-52754947D01*
X75939360Y-52762115D01*
X75939558Y-52769432D01*
X75941454Y-52839521D01*
X75941500Y-52842928D01*
X75941500Y-90915213D01*
X75921498Y-90983334D01*
X75867842Y-91029827D01*
X75797568Y-91039931D01*
X75737911Y-91012568D01*
X75737713Y-91012873D01*
X75724009Y-91003990D01*
X75716165Y-90998906D01*
X75701291Y-90987615D01*
X75688783Y-90976569D01*
X75688782Y-90976568D01*
X75682049Y-90970622D01*
X75655287Y-90958057D01*
X75640309Y-90949737D01*
X75623017Y-90938529D01*
X75623012Y-90938527D01*
X75615485Y-90933648D01*
X75606892Y-90931078D01*
X75606887Y-90931076D01*
X75590880Y-90926289D01*
X75573436Y-90919628D01*
X75558324Y-90912533D01*
X75558322Y-90912532D01*
X75550200Y-90908719D01*
X75541333Y-90907338D01*
X75541332Y-90907338D01*
X75530478Y-90905648D01*
X75520983Y-90904170D01*
X75504268Y-90900387D01*
X75484534Y-90894485D01*
X75484528Y-90894484D01*
X75475934Y-90891914D01*
X75466963Y-90891859D01*
X75466962Y-90891859D01*
X75456903Y-90891798D01*
X75441494Y-90891704D01*
X75440711Y-90891671D01*
X75439614Y-90891500D01*
X75408623Y-90891500D01*
X75407853Y-90891498D01*
X75334215Y-90891048D01*
X75334214Y-90891048D01*
X75330279Y-90891024D01*
X75328935Y-90891408D01*
X75327590Y-90891500D01*
X74934500Y-90891500D01*
X74866379Y-90871498D01*
X74819886Y-90817842D01*
X74808500Y-90765500D01*
X74808500Y-48488640D01*
X78916463Y-48488640D01*
X78934163Y-48669160D01*
X78991418Y-48841273D01*
X79085380Y-48996424D01*
X79211382Y-49126902D01*
X79363159Y-49226222D01*
X79369763Y-49228678D01*
X79369765Y-49228679D01*
X79526558Y-49286990D01*
X79526560Y-49286990D01*
X79533168Y-49289448D01*
X79603137Y-49298784D01*
X79705980Y-49312507D01*
X79705984Y-49312507D01*
X79712961Y-49313438D01*
X79719972Y-49312800D01*
X79719977Y-49312800D01*
X79776047Y-49307697D01*
X79845700Y-49321443D01*
X79896864Y-49370664D01*
X79899753Y-49376267D01*
X79901418Y-49381273D01*
X79995380Y-49536424D01*
X80121382Y-49666902D01*
X80273159Y-49766222D01*
X80279763Y-49768678D01*
X80279765Y-49768679D01*
X80436558Y-49826990D01*
X80436560Y-49826990D01*
X80443168Y-49829448D01*
X80450153Y-49830380D01*
X80450157Y-49830381D01*
X80503223Y-49837461D01*
X80537826Y-49842078D01*
X80602702Y-49870914D01*
X80610256Y-49877876D01*
X80662350Y-49929970D01*
X80669529Y-49937859D01*
X80673533Y-49944168D01*
X80679310Y-49949593D01*
X80721579Y-49989286D01*
X80724421Y-49992041D01*
X80743483Y-50011103D01*
X80746610Y-50013529D01*
X80747089Y-50013951D01*
X80755446Y-50021090D01*
X80775439Y-50039864D01*
X80786528Y-50050277D01*
X80803446Y-50059578D01*
X80819965Y-50070429D01*
X80835221Y-50082263D01*
X80874357Y-50099199D01*
X80885010Y-50104418D01*
X80915415Y-50121133D01*
X80915418Y-50121134D01*
X80922361Y-50124951D01*
X80941057Y-50129751D01*
X80959757Y-50136154D01*
X80977479Y-50143823D01*
X80985306Y-50145063D01*
X80985307Y-50145063D01*
X81004894Y-50148165D01*
X81019587Y-50150492D01*
X81031209Y-50152900D01*
X81064812Y-50161528D01*
X81064821Y-50161529D01*
X81072497Y-50163500D01*
X81091799Y-50163500D01*
X81111509Y-50165051D01*
X81130577Y-50168071D01*
X81173017Y-50164059D01*
X81184876Y-50163500D01*
X93213690Y-50163500D01*
X93281811Y-50183502D01*
X93302785Y-50200405D01*
X103229595Y-60127215D01*
X103263621Y-60189527D01*
X103266500Y-60216310D01*
X103266500Y-61232298D01*
X103246413Y-61300551D01*
X103151235Y-61448238D01*
X103089197Y-61618685D01*
X103066463Y-61798640D01*
X103084163Y-61979160D01*
X103141418Y-62151273D01*
X103145065Y-62157295D01*
X103145066Y-62157297D01*
X103151411Y-62167773D01*
X103235380Y-62306424D01*
X103361382Y-62436902D01*
X103368679Y-62441677D01*
X103506926Y-62532143D01*
X103513159Y-62536222D01*
X103519763Y-62538678D01*
X103519765Y-62538679D01*
X103676558Y-62596990D01*
X103676560Y-62596990D01*
X103683168Y-62599448D01*
X103766995Y-62610633D01*
X103855980Y-62622507D01*
X103855984Y-62622507D01*
X103862961Y-62623438D01*
X103869972Y-62622800D01*
X103869976Y-62622800D01*
X104012459Y-62609832D01*
X104043600Y-62606998D01*
X104050302Y-62604820D01*
X104050304Y-62604820D01*
X104209409Y-62553124D01*
X104209412Y-62553123D01*
X104216108Y-62550947D01*
X104222159Y-62547340D01*
X104222163Y-62547338D01*
X104233573Y-62540537D01*
X104302328Y-62522838D01*
X104342003Y-62530668D01*
X104473168Y-62579448D01*
X104556995Y-62590633D01*
X104645980Y-62602507D01*
X104645984Y-62602507D01*
X104652961Y-62603438D01*
X104659972Y-62602800D01*
X104659976Y-62602800D01*
X104802459Y-62589832D01*
X104833600Y-62586998D01*
X104840302Y-62584820D01*
X104840304Y-62584820D01*
X104999409Y-62533124D01*
X104999412Y-62533123D01*
X105006108Y-62530947D01*
X105161912Y-62438069D01*
X105293266Y-62312982D01*
X105393643Y-62161902D01*
X105446173Y-62023618D01*
X105455555Y-61998920D01*
X105455556Y-61998918D01*
X105458055Y-61992338D01*
X105483299Y-61812717D01*
X105483452Y-61801738D01*
X105483561Y-61793962D01*
X105483561Y-61793957D01*
X105483616Y-61790000D01*
X105463397Y-61609745D01*
X105409461Y-61454861D01*
X105406064Y-61445106D01*
X105406062Y-61445103D01*
X105403745Y-61438448D01*
X105307626Y-61284624D01*
X105308438Y-61284117D01*
X105284116Y-61224018D01*
X105283500Y-61211571D01*
X105283500Y-60267013D01*
X105284002Y-60256372D01*
X105285632Y-60249078D01*
X105283562Y-60183212D01*
X105283500Y-60179254D01*
X105283500Y-60152286D01*
X105283003Y-60148348D01*
X105282956Y-60147607D01*
X105282102Y-60136760D01*
X105281012Y-60102073D01*
X105280763Y-60094149D01*
X105278550Y-60086531D01*
X105275379Y-60075616D01*
X105271368Y-60056251D01*
X105269942Y-60044965D01*
X105268949Y-60037100D01*
X105266032Y-60029732D01*
X105266030Y-60029725D01*
X105253254Y-59997459D01*
X105249408Y-59986226D01*
X105239729Y-59952912D01*
X105237517Y-59945298D01*
X105227689Y-59928680D01*
X105218997Y-59910938D01*
X105211887Y-59892979D01*
X105207225Y-59886562D01*
X105186824Y-59858482D01*
X105180306Y-59848559D01*
X105162650Y-59818703D01*
X105162649Y-59818702D01*
X105158613Y-59811877D01*
X105144969Y-59798233D01*
X105132128Y-59783199D01*
X105125438Y-59773991D01*
X105125437Y-59773990D01*
X105120777Y-59767576D01*
X105087923Y-59740397D01*
X105079143Y-59732407D01*
X94156767Y-48810030D01*
X94149588Y-48802141D01*
X94145584Y-48795832D01*
X94097537Y-48750713D01*
X94094696Y-48747959D01*
X94075634Y-48728897D01*
X94072507Y-48726471D01*
X94072028Y-48726049D01*
X94063671Y-48718910D01*
X94038367Y-48695149D01*
X94032589Y-48689723D01*
X94015671Y-48680422D01*
X93999151Y-48669570D01*
X93998623Y-48669160D01*
X93983896Y-48657737D01*
X93944760Y-48640801D01*
X93934107Y-48635582D01*
X93903702Y-48618867D01*
X93903699Y-48618866D01*
X93896756Y-48615049D01*
X93878060Y-48610249D01*
X93859360Y-48603846D01*
X93841638Y-48596177D01*
X93833811Y-48594937D01*
X93833810Y-48594937D01*
X93814223Y-48591835D01*
X93799530Y-48589508D01*
X93787908Y-48587100D01*
X93754305Y-48578472D01*
X93754296Y-48578471D01*
X93746620Y-48576500D01*
X93727319Y-48576500D01*
X93707608Y-48574949D01*
X93696370Y-48573169D01*
X93688541Y-48571929D01*
X93675424Y-48573169D01*
X93646100Y-48575941D01*
X93634242Y-48576500D01*
X81886856Y-48576500D01*
X81818735Y-48556498D01*
X81797761Y-48539595D01*
X81359196Y-48101030D01*
X81352017Y-48093141D01*
X81348013Y-48086832D01*
X81299966Y-48041713D01*
X81297125Y-48038959D01*
X81278063Y-48019897D01*
X81274936Y-48017471D01*
X81274457Y-48017049D01*
X81266100Y-48009910D01*
X81240796Y-47986149D01*
X81235018Y-47980723D01*
X81218100Y-47971422D01*
X81201580Y-47960570D01*
X81192591Y-47953597D01*
X81192589Y-47953596D01*
X81186325Y-47948737D01*
X81147189Y-47931801D01*
X81136536Y-47926582D01*
X81106131Y-47909867D01*
X81106128Y-47909866D01*
X81099185Y-47906049D01*
X81080489Y-47901249D01*
X81061789Y-47894846D01*
X81044067Y-47887177D01*
X81036240Y-47885937D01*
X81036239Y-47885937D01*
X81016652Y-47882835D01*
X81001959Y-47880508D01*
X80990337Y-47878100D01*
X80956734Y-47869472D01*
X80956725Y-47869471D01*
X80949049Y-47867500D01*
X80929748Y-47867500D01*
X80910037Y-47865949D01*
X80909842Y-47865918D01*
X80890970Y-47862929D01*
X80877853Y-47864169D01*
X80848529Y-47866941D01*
X80836671Y-47867500D01*
X80278913Y-47867500D01*
X80211399Y-47847885D01*
X80086666Y-47768727D01*
X80057463Y-47758328D01*
X79922425Y-47710243D01*
X79922420Y-47710242D01*
X79915790Y-47707881D01*
X79908802Y-47707048D01*
X79908799Y-47707047D01*
X79785698Y-47692368D01*
X79735680Y-47686404D01*
X79728677Y-47687140D01*
X79728676Y-47687140D01*
X79562288Y-47704628D01*
X79562286Y-47704629D01*
X79555288Y-47705364D01*
X79383579Y-47763818D01*
X79377575Y-47767512D01*
X79235095Y-47855166D01*
X79235092Y-47855168D01*
X79229088Y-47858862D01*
X79224053Y-47863793D01*
X79224050Y-47863795D01*
X79104648Y-47980723D01*
X79099493Y-47985771D01*
X79001235Y-48138238D01*
X78939197Y-48308685D01*
X78916463Y-48488640D01*
X74808500Y-48488640D01*
X74808500Y-46359514D01*
X74828502Y-46291393D01*
X74882158Y-46244900D01*
X74952432Y-46234796D01*
X75017012Y-46264290D01*
X75032143Y-46279878D01*
X75137397Y-46408933D01*
X75146041Y-46417637D01*
X75288856Y-46535784D01*
X75299027Y-46542644D01*
X75462076Y-46630804D01*
X75473381Y-46635556D01*
X75588692Y-46671250D01*
X75602795Y-46671456D01*
X75606000Y-46664701D01*
X75606000Y-46657924D01*
X76114000Y-46657924D01*
X76117973Y-46671455D01*
X76125768Y-46672575D01*
X76233521Y-46640862D01*
X76244889Y-46636269D01*
X76409154Y-46550393D01*
X76419415Y-46543679D01*
X76563873Y-46427532D01*
X76572632Y-46418954D01*
X76691778Y-46276961D01*
X76698708Y-46266841D01*
X76788002Y-46104415D01*
X76792834Y-46093142D01*
X76848880Y-45916462D01*
X76851430Y-45904468D01*
X76867607Y-45760239D01*
X76868000Y-45753215D01*
X76868000Y-45537026D01*
X76888002Y-45468905D01*
X76941658Y-45422412D01*
X77011932Y-45412308D01*
X77021486Y-45414061D01*
X77191494Y-45452062D01*
X77191501Y-45452063D01*
X77196543Y-45453190D01*
X77202088Y-45453500D01*
X77335244Y-45453500D01*
X77470037Y-45438857D01*
X77588190Y-45399094D01*
X77635204Y-45383272D01*
X77635206Y-45383271D01*
X77641675Y-45381094D01*
X77796905Y-45287823D01*
X77801862Y-45283135D01*
X77801865Y-45283133D01*
X77923527Y-45168082D01*
X77923529Y-45168080D01*
X77928485Y-45163393D01*
X77932317Y-45157755D01*
X77932320Y-45157751D01*
X78026442Y-45019255D01*
X78030277Y-45013612D01*
X78097530Y-44845466D01*
X78098644Y-44838738D01*
X78098645Y-44838734D01*
X78125993Y-44673539D01*
X78125993Y-44673536D01*
X78127108Y-44666802D01*
X78122203Y-44573198D01*
X82232892Y-44573198D01*
X82233249Y-44580015D01*
X82233249Y-44580019D01*
X82238151Y-44673539D01*
X82242370Y-44754047D01*
X82244181Y-44760620D01*
X82244181Y-44760623D01*
X82277738Y-44882452D01*
X82290461Y-44928641D01*
X82374922Y-45088836D01*
X82379327Y-45094049D01*
X82379330Y-45094053D01*
X82487406Y-45221943D01*
X82487410Y-45221947D01*
X82491813Y-45227157D01*
X82497237Y-45231304D01*
X82497238Y-45231305D01*
X82630257Y-45333006D01*
X82630261Y-45333009D01*
X82635678Y-45337150D01*
X82722372Y-45377576D01*
X82793631Y-45410805D01*
X82793634Y-45410806D01*
X82799808Y-45413685D01*
X82806456Y-45415171D01*
X82806459Y-45415172D01*
X82902686Y-45436681D01*
X82976543Y-45453190D01*
X82982088Y-45453500D01*
X83115244Y-45453500D01*
X83250037Y-45438857D01*
X83256501Y-45436682D01*
X83256504Y-45436681D01*
X83323716Y-45414061D01*
X83325811Y-45413356D01*
X83396753Y-45410586D01*
X83457932Y-45446609D01*
X83489923Y-45509990D01*
X83492000Y-45532775D01*
X83492000Y-45746657D01*
X83492301Y-45752805D01*
X83505812Y-45890603D01*
X83508195Y-45902638D01*
X83561767Y-46080076D01*
X83566441Y-46091416D01*
X83653460Y-46255077D01*
X83660249Y-46265294D01*
X83777397Y-46408933D01*
X83786041Y-46417637D01*
X83928856Y-46535784D01*
X83939027Y-46542644D01*
X84102076Y-46630804D01*
X84113381Y-46635556D01*
X84228692Y-46671250D01*
X84242795Y-46671456D01*
X84246000Y-46664701D01*
X84246000Y-46657924D01*
X84754000Y-46657924D01*
X84757973Y-46671455D01*
X84765768Y-46672575D01*
X84873521Y-46640862D01*
X84884889Y-46636269D01*
X85049154Y-46550393D01*
X85059415Y-46543679D01*
X85203873Y-46427532D01*
X85212632Y-46418954D01*
X85331778Y-46276961D01*
X85338708Y-46266841D01*
X85428002Y-46104415D01*
X85432834Y-46093142D01*
X85488880Y-45916462D01*
X85491430Y-45904468D01*
X85507607Y-45760239D01*
X85508000Y-45753215D01*
X85508000Y-45422115D01*
X85503525Y-45406876D01*
X85502135Y-45405671D01*
X85494452Y-45404000D01*
X84772115Y-45404000D01*
X84756876Y-45408475D01*
X84755671Y-45409865D01*
X84754000Y-45417548D01*
X84754000Y-46657924D01*
X84246000Y-46657924D01*
X84246000Y-44877885D01*
X84754000Y-44877885D01*
X84758475Y-44893124D01*
X84759865Y-44894329D01*
X84767548Y-44896000D01*
X85489885Y-44896000D01*
X85505124Y-44891525D01*
X85506329Y-44890135D01*
X85508000Y-44882452D01*
X85508000Y-44553343D01*
X85507699Y-44547195D01*
X85494188Y-44409397D01*
X85491805Y-44397362D01*
X85438233Y-44219924D01*
X85433559Y-44208584D01*
X85346540Y-44044923D01*
X85339751Y-44034706D01*
X85222603Y-43891067D01*
X85213959Y-43882363D01*
X85071144Y-43764216D01*
X85060973Y-43757356D01*
X84897924Y-43669196D01*
X84886619Y-43664444D01*
X84771308Y-43628750D01*
X84757205Y-43628544D01*
X84754000Y-43635299D01*
X84754000Y-44877885D01*
X84246000Y-44877885D01*
X84246000Y-43642076D01*
X84242027Y-43628545D01*
X84234232Y-43627425D01*
X84126479Y-43659138D01*
X84115111Y-43663731D01*
X83950846Y-43749607D01*
X83940585Y-43756321D01*
X83796127Y-43872468D01*
X83787368Y-43881046D01*
X83743000Y-43933921D01*
X83683890Y-43973248D01*
X83612902Y-43974374D01*
X83569952Y-43953028D01*
X83504322Y-43902850D01*
X83386308Y-43847819D01*
X83346369Y-43829195D01*
X83346366Y-43829194D01*
X83340192Y-43826315D01*
X83333544Y-43824829D01*
X83333541Y-43824828D01*
X83206184Y-43796361D01*
X83163457Y-43786810D01*
X83157912Y-43786500D01*
X83024756Y-43786500D01*
X82889963Y-43801143D01*
X82806609Y-43829195D01*
X82724796Y-43856728D01*
X82724794Y-43856729D01*
X82718325Y-43858906D01*
X82563095Y-43952177D01*
X82558138Y-43956865D01*
X82558135Y-43956867D01*
X82450103Y-44059029D01*
X82431515Y-44076607D01*
X82427683Y-44082245D01*
X82427680Y-44082249D01*
X82360296Y-44181402D01*
X82329723Y-44226388D01*
X82262470Y-44394534D01*
X82261356Y-44401262D01*
X82261355Y-44401266D01*
X82236179Y-44553343D01*
X82232892Y-44573198D01*
X78122203Y-44573198D01*
X78117987Y-44492766D01*
X78117630Y-44485953D01*
X78104206Y-44437215D01*
X78071352Y-44317941D01*
X78069539Y-44311359D01*
X77985078Y-44151164D01*
X77980673Y-44145951D01*
X77980670Y-44145947D01*
X77872594Y-44018057D01*
X77872590Y-44018053D01*
X77868187Y-44012843D01*
X77862762Y-44008695D01*
X77729743Y-43906994D01*
X77729739Y-43906991D01*
X77724322Y-43902850D01*
X77606308Y-43847819D01*
X77566369Y-43829195D01*
X77566366Y-43829194D01*
X77560192Y-43826315D01*
X77553544Y-43824829D01*
X77553541Y-43824828D01*
X77426184Y-43796361D01*
X77383457Y-43786810D01*
X77377912Y-43786500D01*
X77244756Y-43786500D01*
X77109963Y-43801143D01*
X77026609Y-43829195D01*
X76944796Y-43856728D01*
X76944794Y-43856729D01*
X76938325Y-43858906D01*
X76786349Y-43950222D01*
X76786346Y-43950223D01*
X76783095Y-43952177D01*
X76782745Y-43951594D01*
X76721083Y-43975065D01*
X76651609Y-43960439D01*
X76613609Y-43929085D01*
X76582603Y-43891067D01*
X76573959Y-43882363D01*
X76431144Y-43764216D01*
X76420973Y-43757356D01*
X76257924Y-43669196D01*
X76246619Y-43664444D01*
X76131308Y-43628750D01*
X76117205Y-43628544D01*
X76114000Y-43635299D01*
X76114000Y-46657924D01*
X75606000Y-46657924D01*
X75606000Y-43642076D01*
X75602027Y-43628545D01*
X75594232Y-43627425D01*
X75486479Y-43659138D01*
X75475111Y-43663731D01*
X75310846Y-43749607D01*
X75300585Y-43756321D01*
X75156127Y-43872468D01*
X75147368Y-43881046D01*
X75031022Y-44019702D01*
X74971912Y-44059029D01*
X74900925Y-44060155D01*
X74840597Y-44022724D01*
X74810083Y-43958620D01*
X74808500Y-43938711D01*
X74808500Y-41929514D01*
X74828502Y-41861393D01*
X74882158Y-41814900D01*
X74952432Y-41804796D01*
X75017012Y-41834290D01*
X75032143Y-41849878D01*
X75137397Y-41978933D01*
X75146041Y-41987637D01*
X75288856Y-42105784D01*
X75299027Y-42112644D01*
X75462076Y-42200804D01*
X75473381Y-42205556D01*
X75588692Y-42241250D01*
X75602795Y-42241456D01*
X75606000Y-42234701D01*
X75606000Y-42227924D01*
X76114000Y-42227924D01*
X76117973Y-42241455D01*
X76125768Y-42242575D01*
X76233521Y-42210862D01*
X76244889Y-42206269D01*
X76409154Y-42120393D01*
X76419415Y-42113679D01*
X76563873Y-41997532D01*
X76572632Y-41988954D01*
X76691778Y-41846961D01*
X76698708Y-41836841D01*
X76788002Y-41674415D01*
X76792834Y-41663142D01*
X76848880Y-41486462D01*
X76851430Y-41474468D01*
X76867607Y-41330239D01*
X76868000Y-41323215D01*
X76868000Y-41316657D01*
X83492000Y-41316657D01*
X83492301Y-41322805D01*
X83505812Y-41460603D01*
X83508195Y-41472638D01*
X83561767Y-41650076D01*
X83566441Y-41661416D01*
X83653460Y-41825077D01*
X83660249Y-41835294D01*
X83777397Y-41978933D01*
X83786041Y-41987637D01*
X83928856Y-42105784D01*
X83939027Y-42112644D01*
X84102076Y-42200804D01*
X84113381Y-42205556D01*
X84228692Y-42241250D01*
X84242795Y-42241456D01*
X84246000Y-42234701D01*
X84246000Y-42227924D01*
X84754000Y-42227924D01*
X84757973Y-42241455D01*
X84765768Y-42242575D01*
X84873521Y-42210862D01*
X84884889Y-42206269D01*
X85049154Y-42120393D01*
X85059415Y-42113679D01*
X85203873Y-41997532D01*
X85212632Y-41988954D01*
X85331778Y-41846961D01*
X85338708Y-41836841D01*
X85428002Y-41674415D01*
X85432834Y-41663142D01*
X85488880Y-41486462D01*
X85491430Y-41474468D01*
X85507607Y-41330239D01*
X85508000Y-41323215D01*
X85508000Y-41242115D01*
X85503525Y-41226876D01*
X85502135Y-41225671D01*
X85494452Y-41224000D01*
X84772115Y-41224000D01*
X84756876Y-41228475D01*
X84755671Y-41229865D01*
X84754000Y-41237548D01*
X84754000Y-42227924D01*
X84246000Y-42227924D01*
X84246000Y-41242115D01*
X84241525Y-41226876D01*
X84240135Y-41225671D01*
X84232452Y-41224000D01*
X83510115Y-41224000D01*
X83494876Y-41228475D01*
X83493671Y-41229865D01*
X83492000Y-41237548D01*
X83492000Y-41316657D01*
X76868000Y-41316657D01*
X76868000Y-41242115D01*
X76863525Y-41226876D01*
X76862135Y-41225671D01*
X76854452Y-41224000D01*
X76132115Y-41224000D01*
X76116876Y-41228475D01*
X76115671Y-41229865D01*
X76114000Y-41237548D01*
X76114000Y-42227924D01*
X75606000Y-42227924D01*
X75606000Y-40842000D01*
X75626002Y-40773879D01*
X75679658Y-40727386D01*
X75732000Y-40716000D01*
X76849885Y-40716000D01*
X76865124Y-40711525D01*
X76866329Y-40710135D01*
X76868000Y-40702452D01*
X76868000Y-40623343D01*
X76867699Y-40617195D01*
X76854188Y-40479397D01*
X76851805Y-40467362D01*
X76798233Y-40289924D01*
X76793559Y-40278584D01*
X76706540Y-40114923D01*
X76699751Y-40104706D01*
X76582603Y-39961067D01*
X76573959Y-39952363D01*
X76431144Y-39834216D01*
X76420973Y-39827356D01*
X76269281Y-39745336D01*
X76218872Y-39695341D01*
X76203495Y-39626030D01*
X76228031Y-39559408D01*
X76284691Y-39516627D01*
X76329210Y-39508500D01*
X84032957Y-39508500D01*
X84101078Y-39528502D01*
G37*
G04 #@! TD.AperFunction*
G04 #@! TA.AperFunction,Conductor*
G36*
X95930272Y-83526575D02*
G01*
X95987108Y-83569122D01*
X96011919Y-83635642D01*
X96008281Y-83675966D01*
X95971365Y-83819745D01*
X95970561Y-83822875D01*
X95909079Y-84220027D01*
X95886645Y-84621283D01*
X95886774Y-84624361D01*
X95886774Y-84624365D01*
X95892727Y-84766403D01*
X95903474Y-85022813D01*
X95959406Y-85420785D01*
X96053905Y-85811399D01*
X96186071Y-86190927D01*
X96354641Y-86555747D01*
X96558008Y-86902377D01*
X96794228Y-87227507D01*
X96796261Y-87229797D01*
X96796266Y-87229803D01*
X97059004Y-87525731D01*
X97061049Y-87528034D01*
X97063308Y-87530126D01*
X97063315Y-87530133D01*
X97336441Y-87783050D01*
X97372834Y-87844010D01*
X97370491Y-87914968D01*
X97330158Y-87973395D01*
X97264639Y-88000741D01*
X97250832Y-88001500D01*
X97186371Y-88001500D01*
X97118250Y-87981498D01*
X97097276Y-87964595D01*
X94833770Y-85701089D01*
X94821384Y-85686677D01*
X94812851Y-85675082D01*
X94812846Y-85675077D01*
X94808508Y-85669182D01*
X94802930Y-85664443D01*
X94802927Y-85664440D01*
X94768232Y-85634965D01*
X94760716Y-85628035D01*
X94755021Y-85622340D01*
X94748880Y-85617482D01*
X94732749Y-85604719D01*
X94729345Y-85601928D01*
X94679297Y-85559409D01*
X94679295Y-85559408D01*
X94673715Y-85554667D01*
X94667199Y-85551339D01*
X94662150Y-85547972D01*
X94657021Y-85544805D01*
X94651284Y-85540266D01*
X94585125Y-85509345D01*
X94581225Y-85507439D01*
X94568053Y-85500713D01*
X94516192Y-85474231D01*
X94509084Y-85472492D01*
X94503441Y-85470393D01*
X94497678Y-85468476D01*
X94491050Y-85465378D01*
X94419583Y-85450513D01*
X94415299Y-85449543D01*
X94344390Y-85432192D01*
X94338788Y-85431844D01*
X94338785Y-85431844D01*
X94333236Y-85431500D01*
X94333238Y-85431464D01*
X94329245Y-85431225D01*
X94325053Y-85430851D01*
X94317885Y-85429360D01*
X94251675Y-85431151D01*
X94240479Y-85431454D01*
X94237072Y-85431500D01*
X94185653Y-85431500D01*
X94117532Y-85411498D01*
X94071039Y-85357842D01*
X94060935Y-85287568D01*
X94090429Y-85222988D01*
X94116568Y-85200128D01*
X94142976Y-85182814D01*
X94146680Y-85180477D01*
X94209107Y-85142595D01*
X94217484Y-85135197D01*
X94217508Y-85135224D01*
X94220500Y-85132571D01*
X94223733Y-85129868D01*
X94229852Y-85125856D01*
X94283128Y-85069617D01*
X94285506Y-85067175D01*
X95797145Y-83555536D01*
X95859457Y-83521510D01*
X95930272Y-83526575D01*
G37*
G04 #@! TD.AperFunction*
G04 #@! TA.AperFunction,Conductor*
G36*
X78317012Y-79840147D02*
G01*
X78323595Y-79846276D01*
X83330992Y-84853673D01*
X83350595Y-84881771D01*
X83351418Y-84881273D01*
X83435272Y-85019733D01*
X83445380Y-85036424D01*
X83571382Y-85166902D01*
X83592112Y-85180467D01*
X83622065Y-85200068D01*
X83668114Y-85254105D01*
X83677637Y-85324460D01*
X83647612Y-85388795D01*
X83587572Y-85426685D01*
X83553072Y-85431500D01*
X78660712Y-85431500D01*
X78592591Y-85411498D01*
X78580397Y-85402585D01*
X78530346Y-85361180D01*
X78516675Y-85349870D01*
X78342701Y-85255802D01*
X78197241Y-85210775D01*
X78138081Y-85171524D01*
X78109534Y-85106520D01*
X78108500Y-85090410D01*
X78108500Y-79935371D01*
X78128502Y-79867250D01*
X78182158Y-79820757D01*
X78252432Y-79810653D01*
X78317012Y-79840147D01*
G37*
G04 #@! TD.AperFunction*
G04 #@! TA.AperFunction,Conductor*
G36*
X96216693Y-68723502D02*
G01*
X96263186Y-68777158D01*
X96270822Y-68805508D01*
X96272010Y-68805256D01*
X96273476Y-68812151D01*
X96274163Y-68819160D01*
X96276387Y-68825845D01*
X96276387Y-68825846D01*
X96286559Y-68856424D01*
X96331418Y-68991273D01*
X96335065Y-68997295D01*
X96335066Y-68997297D01*
X96421655Y-69140273D01*
X96425380Y-69146424D01*
X96430269Y-69151487D01*
X96430270Y-69151488D01*
X96473392Y-69196142D01*
X96551382Y-69276902D01*
X96557278Y-69280760D01*
X96692016Y-69368930D01*
X96703159Y-69376222D01*
X96709763Y-69378678D01*
X96709765Y-69378679D01*
X96866558Y-69436990D01*
X96866560Y-69436990D01*
X96873168Y-69439448D01*
X96956995Y-69450633D01*
X97045980Y-69462507D01*
X97045984Y-69462507D01*
X97052961Y-69463438D01*
X97059972Y-69462800D01*
X97059976Y-69462800D01*
X97202459Y-69449832D01*
X97233600Y-69446998D01*
X97265904Y-69436502D01*
X97336868Y-69434474D01*
X97397666Y-69471136D01*
X97428992Y-69534848D01*
X97429844Y-69572127D01*
X97412850Y-69706653D01*
X97412654Y-69720660D01*
X97428968Y-69887047D01*
X97431879Y-69900741D01*
X97484650Y-70059375D01*
X97490524Y-70072088D01*
X97491768Y-70074143D01*
X97502174Y-70083657D01*
X97510794Y-70079995D01*
X98091405Y-69499385D01*
X98153717Y-69465360D01*
X98224533Y-69470425D01*
X98281368Y-69512972D01*
X98306179Y-69579492D01*
X98306500Y-69588481D01*
X98306500Y-69950519D01*
X98286498Y-70018640D01*
X98269596Y-70039614D01*
X97959519Y-70349692D01*
X97951908Y-70363630D01*
X97952040Y-70365466D01*
X97956289Y-70372078D01*
X98269596Y-70685386D01*
X98303621Y-70747698D01*
X98306500Y-70774481D01*
X98306500Y-71136519D01*
X98286498Y-71204640D01*
X98232842Y-71251133D01*
X98162568Y-71261237D01*
X98097988Y-71231743D01*
X98091405Y-71225615D01*
X97512458Y-70646669D01*
X97500083Y-70639912D01*
X97494926Y-70643772D01*
X97494273Y-70645089D01*
X97437096Y-70802180D01*
X97433803Y-70815795D01*
X97412850Y-70981653D01*
X97412654Y-70995660D01*
X97419325Y-71063701D01*
X97406065Y-71133448D01*
X97357203Y-71184955D01*
X97288250Y-71201868D01*
X97279007Y-71201110D01*
X97155680Y-71186404D01*
X97148677Y-71187140D01*
X97148676Y-71187140D01*
X96982288Y-71204628D01*
X96982286Y-71204629D01*
X96975288Y-71205364D01*
X96803579Y-71263818D01*
X96746268Y-71299076D01*
X96655095Y-71355166D01*
X96655092Y-71355168D01*
X96649088Y-71358862D01*
X96644053Y-71363793D01*
X96644050Y-71363795D01*
X96524525Y-71480843D01*
X96519493Y-71485771D01*
X96421235Y-71638238D01*
X96418826Y-71644858D01*
X96418824Y-71644861D01*
X96376172Y-71762047D01*
X96359197Y-71808685D01*
X96336463Y-71988640D01*
X96354163Y-72169160D01*
X96411418Y-72341273D01*
X96415065Y-72347295D01*
X96415066Y-72347297D01*
X96475753Y-72447503D01*
X96505380Y-72496424D01*
X96510275Y-72501493D01*
X96510329Y-72501563D01*
X96536045Y-72567739D01*
X96536500Y-72578441D01*
X96536500Y-78653871D01*
X96535998Y-78664512D01*
X96534368Y-78671806D01*
X96534617Y-78679732D01*
X96534617Y-78679733D01*
X96536438Y-78737673D01*
X96536500Y-78741631D01*
X96536500Y-78768598D01*
X96536997Y-78772536D01*
X96537044Y-78773277D01*
X96537897Y-78784116D01*
X96539237Y-78826736D01*
X96541450Y-78834351D01*
X96541450Y-78834354D01*
X96544621Y-78845269D01*
X96548632Y-78864634D01*
X96551051Y-78883784D01*
X96553967Y-78891148D01*
X96553968Y-78891153D01*
X96566746Y-78923425D01*
X96570592Y-78934658D01*
X96580270Y-78967972D01*
X96580272Y-78967976D01*
X96582483Y-78975587D01*
X96586518Y-78982409D01*
X96586518Y-78982410D01*
X96592307Y-78992198D01*
X96601006Y-79009955D01*
X96608113Y-79027905D01*
X96612773Y-79034319D01*
X96633171Y-79062394D01*
X96639682Y-79072306D01*
X96661387Y-79109007D01*
X96675031Y-79122651D01*
X96687872Y-79137685D01*
X96694181Y-79146368D01*
X96699223Y-79153308D01*
X96705331Y-79158361D01*
X96732077Y-79180487D01*
X96740857Y-79188477D01*
X97290755Y-79738375D01*
X97324781Y-79800687D01*
X97319716Y-79871502D01*
X97290755Y-79916565D01*
X95052516Y-82154803D01*
X93462724Y-83744595D01*
X93400412Y-83778621D01*
X93373629Y-83781500D01*
X84456371Y-83781500D01*
X84388250Y-83761498D01*
X84367276Y-83744595D01*
X78795405Y-78172724D01*
X78761379Y-78110412D01*
X78758500Y-78083629D01*
X78758500Y-74588982D01*
X78778502Y-74520861D01*
X78819982Y-74480754D01*
X78941912Y-74408069D01*
X79073266Y-74282982D01*
X79173643Y-74131902D01*
X79221308Y-74006424D01*
X79235555Y-73968920D01*
X79235556Y-73968918D01*
X79238055Y-73962338D01*
X79248738Y-73886327D01*
X79262748Y-73786639D01*
X79262748Y-73786636D01*
X79263299Y-73782717D01*
X79263616Y-73760000D01*
X79243397Y-73579745D01*
X79241080Y-73573091D01*
X79186064Y-73415106D01*
X79186062Y-73415103D01*
X79183745Y-73408448D01*
X79087626Y-73254624D01*
X79082664Y-73249627D01*
X78964778Y-73130915D01*
X78964774Y-73130912D01*
X78959815Y-73125918D01*
X78816986Y-73035276D01*
X78770187Y-72981887D01*
X78758500Y-72928891D01*
X78758500Y-70469746D01*
X78778502Y-70401625D01*
X78832158Y-70355132D01*
X78902432Y-70345028D01*
X78928415Y-70351647D01*
X79003168Y-70379448D01*
X79086995Y-70390633D01*
X79175980Y-70402507D01*
X79175984Y-70402507D01*
X79182961Y-70403438D01*
X79189972Y-70402800D01*
X79189976Y-70402800D01*
X79332459Y-70389832D01*
X79363600Y-70386998D01*
X79370302Y-70384820D01*
X79370304Y-70384820D01*
X79529409Y-70333124D01*
X79529412Y-70333123D01*
X79536108Y-70330947D01*
X79691912Y-70238069D01*
X79697017Y-70233207D01*
X79702381Y-70229136D01*
X79768735Y-70203884D01*
X79778560Y-70203500D01*
X82470922Y-70203500D01*
X82539043Y-70223502D01*
X82585536Y-70277158D01*
X82596320Y-70317203D01*
X82603099Y-70386337D01*
X82660354Y-70558450D01*
X82664001Y-70564472D01*
X82664002Y-70564474D01*
X82749103Y-70704993D01*
X82754316Y-70713601D01*
X82761613Y-70721157D01*
X82782680Y-70742973D01*
X82815612Y-70805870D01*
X82809312Y-70876587D01*
X82765780Y-70932671D01*
X82692043Y-70956500D01*
X82278532Y-70956500D01*
X82210411Y-70936498D01*
X82210341Y-70936447D01*
X82209815Y-70935918D01*
X82208059Y-70934804D01*
X82208054Y-70934800D01*
X82098453Y-70865246D01*
X82056666Y-70838727D01*
X81999289Y-70818296D01*
X81892425Y-70780243D01*
X81892420Y-70780242D01*
X81885790Y-70777881D01*
X81878802Y-70777048D01*
X81878799Y-70777047D01*
X81744592Y-70761044D01*
X81705680Y-70756404D01*
X81698677Y-70757140D01*
X81698676Y-70757140D01*
X81532288Y-70774628D01*
X81532286Y-70774629D01*
X81525288Y-70775364D01*
X81353579Y-70833818D01*
X81328376Y-70849323D01*
X81205095Y-70925166D01*
X81205092Y-70925168D01*
X81199088Y-70928862D01*
X81194053Y-70933793D01*
X81194050Y-70933795D01*
X81074525Y-71050843D01*
X81069493Y-71055771D01*
X80971235Y-71208238D01*
X80968826Y-71214858D01*
X80968824Y-71214861D01*
X80913844Y-71365918D01*
X80909197Y-71378685D01*
X80886463Y-71558640D01*
X80904163Y-71739160D01*
X80961418Y-71911273D01*
X80965065Y-71917295D01*
X80965066Y-71917297D01*
X81050650Y-72058613D01*
X81055380Y-72066424D01*
X81060269Y-72071487D01*
X81060270Y-72071488D01*
X81071712Y-72083336D01*
X81181382Y-72196902D01*
X81333159Y-72296222D01*
X81339763Y-72298678D01*
X81339765Y-72298679D01*
X81496558Y-72356990D01*
X81496560Y-72356990D01*
X81503168Y-72359448D01*
X81586995Y-72370633D01*
X81675980Y-72382507D01*
X81675984Y-72382507D01*
X81682961Y-72383438D01*
X81689972Y-72382800D01*
X81689976Y-72382800D01*
X81832459Y-72369832D01*
X81863600Y-72366998D01*
X81870302Y-72364820D01*
X81870304Y-72364820D01*
X82029409Y-72313124D01*
X82029412Y-72313123D01*
X82036108Y-72310947D01*
X82191912Y-72218069D01*
X82197017Y-72213207D01*
X82202381Y-72209136D01*
X82268735Y-72183884D01*
X82278560Y-72183500D01*
X89183871Y-72183500D01*
X89194512Y-72184002D01*
X89201806Y-72185632D01*
X89209732Y-72185383D01*
X89209733Y-72185383D01*
X89267673Y-72183562D01*
X89271631Y-72183500D01*
X89298598Y-72183500D01*
X89302536Y-72183003D01*
X89303277Y-72182956D01*
X89314116Y-72182103D01*
X89356736Y-72180763D01*
X89364351Y-72178550D01*
X89364354Y-72178550D01*
X89375269Y-72175379D01*
X89394634Y-72171368D01*
X89405925Y-72169942D01*
X89405927Y-72169941D01*
X89413784Y-72168949D01*
X89421148Y-72166033D01*
X89421153Y-72166032D01*
X89453425Y-72153254D01*
X89464658Y-72149408D01*
X89497972Y-72139730D01*
X89497976Y-72139728D01*
X89505587Y-72137517D01*
X89522201Y-72127691D01*
X89539955Y-72118994D01*
X89557905Y-72111887D01*
X89592397Y-72086827D01*
X89602306Y-72080318D01*
X89639007Y-72058613D01*
X89652651Y-72044969D01*
X89667685Y-72032128D01*
X89676893Y-72025438D01*
X89676894Y-72025437D01*
X89683308Y-72020777D01*
X89710487Y-71987923D01*
X89718477Y-71979143D01*
X92957215Y-68740405D01*
X93019527Y-68706379D01*
X93046310Y-68703500D01*
X96148572Y-68703500D01*
X96216693Y-68723502D01*
G37*
G04 #@! TD.AperFunction*
G04 #@! TA.AperFunction,Conductor*
G36*
X103745058Y-68726728D02*
G01*
X103801894Y-68769275D01*
X103808802Y-68779514D01*
X103851730Y-68850398D01*
X103851733Y-68850401D01*
X103855380Y-68856424D01*
X103860270Y-68861487D01*
X103860274Y-68861493D01*
X103897381Y-68899918D01*
X103930314Y-68962814D01*
X103924014Y-69033531D01*
X103895840Y-69076540D01*
X102251223Y-70721157D01*
X102239357Y-70731619D01*
X102235258Y-70734799D01*
X102228438Y-70738832D01*
X102214794Y-70752476D01*
X102199760Y-70765317D01*
X102190552Y-70772007D01*
X102184137Y-70776668D01*
X102179084Y-70782776D01*
X102156964Y-70809515D01*
X102148974Y-70818296D01*
X101795734Y-71171535D01*
X101733422Y-71205560D01*
X101662606Y-71200495D01*
X101605771Y-71157948D01*
X101580960Y-71091428D01*
X101581865Y-71064903D01*
X101587245Y-71026625D01*
X101587851Y-71018741D01*
X101588058Y-71003962D01*
X101587671Y-70996061D01*
X101568692Y-70826855D01*
X101565590Y-70813202D01*
X101510610Y-70655322D01*
X101507281Y-70648372D01*
X101498605Y-70640659D01*
X101489556Y-70644654D01*
X100864095Y-71270115D01*
X100801783Y-71304141D01*
X100730968Y-71299076D01*
X100685905Y-71270115D01*
X100504885Y-71089095D01*
X100470859Y-71026783D01*
X100475924Y-70955968D01*
X100504885Y-70910905D01*
X101040480Y-70375310D01*
X101048092Y-70361370D01*
X101047960Y-70359534D01*
X101043709Y-70352919D01*
X100504885Y-69814095D01*
X100470859Y-69751783D01*
X100475924Y-69680968D01*
X100504885Y-69635905D01*
X100556541Y-69584249D01*
X100618853Y-69550223D01*
X100634213Y-69547863D01*
X100753600Y-69536998D01*
X100760302Y-69534820D01*
X100760304Y-69534820D01*
X100825541Y-69513623D01*
X100896509Y-69511596D01*
X100953572Y-69544361D01*
X101487500Y-70078289D01*
X101499880Y-70085049D01*
X101503696Y-70082192D01*
X101560065Y-69933802D01*
X101563549Y-69920233D01*
X101569506Y-69877844D01*
X101598794Y-69813170D01*
X101658397Y-69774596D01*
X101710944Y-69770486D01*
X101875979Y-69792507D01*
X101875984Y-69792507D01*
X101882961Y-69793438D01*
X101889972Y-69792800D01*
X101889976Y-69792800D01*
X102032459Y-69779832D01*
X102063600Y-69776998D01*
X102070302Y-69774820D01*
X102070304Y-69774820D01*
X102229409Y-69723124D01*
X102229412Y-69723123D01*
X102236108Y-69720947D01*
X102332513Y-69663478D01*
X102385860Y-69631677D01*
X102385862Y-69631676D01*
X102391912Y-69628069D01*
X102523266Y-69502982D01*
X102623643Y-69351902D01*
X102651969Y-69277335D01*
X102694857Y-69220758D01*
X102761525Y-69196349D01*
X102769756Y-69196080D01*
X102841291Y-69196080D01*
X102851932Y-69196582D01*
X102859226Y-69198212D01*
X102867152Y-69197963D01*
X102867153Y-69197963D01*
X102925093Y-69196142D01*
X102929051Y-69196080D01*
X102956018Y-69196080D01*
X102959956Y-69195583D01*
X102960697Y-69195536D01*
X102971536Y-69194683D01*
X103014156Y-69193343D01*
X103021771Y-69191130D01*
X103021774Y-69191130D01*
X103032689Y-69187959D01*
X103052054Y-69183948D01*
X103063345Y-69182522D01*
X103063347Y-69182521D01*
X103071204Y-69181529D01*
X103078568Y-69178613D01*
X103078573Y-69178612D01*
X103110845Y-69165834D01*
X103122078Y-69161988D01*
X103155392Y-69152310D01*
X103155396Y-69152308D01*
X103163007Y-69150097D01*
X103179621Y-69140271D01*
X103197375Y-69131574D01*
X103215325Y-69124467D01*
X103249817Y-69099407D01*
X103259726Y-69092898D01*
X103296427Y-69071193D01*
X103310071Y-69057549D01*
X103325105Y-69044708D01*
X103334313Y-69038018D01*
X103334314Y-69038017D01*
X103340728Y-69033357D01*
X103363983Y-69005246D01*
X103367907Y-69000503D01*
X103375897Y-68991723D01*
X103611931Y-68755689D01*
X103674243Y-68721663D01*
X103745058Y-68726728D01*
G37*
G04 #@! TD.AperFunction*
G04 #@! TD*
M02*
