%TF.GenerationSoftware,KiCad,Pcbnew,9.0.7*%
%TF.CreationDate,2026-03-30T21:46:51-07:00*%
%TF.ProjectId,gbpunk,67627075-6e6b-42e6-9b69-6361645f7063,v4.0*%
%TF.SameCoordinates,Original*%
%TF.FileFunction,Soldermask,Bot*%
%TF.FilePolarity,Negative*%
%FSLAX46Y46*%
G04 Gerber Fmt 4.6, Leading zero omitted, Abs format (unit mm)*
G04 Created by KiCad (PCBNEW 9.0.7) date 2026-03-30 21:46:51*
%MOMM*%
%LPD*%
G01*
G04 APERTURE LIST*
G04 Aperture macros list*
%AMRoundRect*
0 Rectangle with rounded corners*
0 $1 Rounding radius*
0 $2 $3 $4 $5 $6 $7 $8 $9 X,Y pos of 4 corners*
0 Add a 4 corners polygon primitive as box body*
4,1,4,$2,$3,$4,$5,$6,$7,$8,$9,$2,$3,0*
0 Add four circle primitives for the rounded corners*
1,1,$1+$1,$2,$3*
1,1,$1+$1,$4,$5*
1,1,$1+$1,$6,$7*
1,1,$1+$1,$8,$9*
0 Add four rect primitives between the rounded corners*
20,1,$1+$1,$2,$3,$4,$5,0*
20,1,$1+$1,$4,$5,$6,$7,0*
20,1,$1+$1,$6,$7,$8,$9,0*
20,1,$1+$1,$8,$9,$2,$3,0*%
G04 Aperture macros list end*
%ADD10C,1.100000*%
%ADD11C,16.800000*%
%ADD12R,1.700000X1.700000*%
%ADD13C,1.700000*%
%ADD14C,1.400000*%
%ADD15C,0.800000*%
%ADD16C,6.400000*%
%ADD17C,0.650000*%
%ADD18O,2.100000X1.000000*%
%ADD19O,1.800000X1.000000*%
%ADD20RoundRect,0.100000X0.100000X2.400000X-0.100000X2.400000X-0.100000X-2.400000X0.100000X-2.400000X0*%
G04 APERTURE END LIST*
D10*
%TO.C,H5*%
X131970000Y-108940000D03*
X130124773Y-113394773D03*
X130124773Y-104485227D03*
X125670000Y-115240000D03*
D11*
X125670000Y-108940000D03*
D10*
X125670000Y-102640000D03*
X121215227Y-113394773D03*
X121215227Y-104485227D03*
X119370000Y-108940000D03*
%TD*%
D12*
%TO.C,J4*%
X110690000Y-77380000D03*
D13*
X113230000Y-77380000D03*
X115770000Y-77380000D03*
X118310000Y-77380000D03*
X120850000Y-77380000D03*
X123390000Y-77380000D03*
X125930000Y-77380000D03*
X128470000Y-77380000D03*
X131010000Y-77380000D03*
X133550000Y-77380000D03*
X136090000Y-77380000D03*
X138630000Y-77380000D03*
X141170000Y-77380000D03*
X143710000Y-77380000D03*
X146250000Y-77380000D03*
X148790000Y-77380000D03*
X151330000Y-77380000D03*
X153870000Y-77380000D03*
X156410000Y-77380000D03*
X158950000Y-77380000D03*
X161490000Y-77380000D03*
X164030000Y-77380000D03*
X166570000Y-77380000D03*
X169110000Y-77380000D03*
X171650000Y-77380000D03*
X174190000Y-77380000D03*
X176730000Y-77380000D03*
X179270000Y-77380000D03*
X181810000Y-77380000D03*
X184350000Y-77380000D03*
X186890000Y-77380000D03*
X189430000Y-77380000D03*
%TD*%
D14*
%TO.C,TP3*%
X178010000Y-104430000D03*
X178010000Y-101890000D03*
%TD*%
D15*
%TO.C,H4*%
X185610000Y-85430000D03*
X186312944Y-83732944D03*
X186312944Y-87127056D03*
X188010000Y-83030000D03*
D16*
X188010000Y-85430000D03*
D15*
X188010000Y-87830000D03*
X189707056Y-83732944D03*
X189707056Y-87127056D03*
X190410000Y-85430000D03*
%TD*%
D17*
%TO.C,J3*%
X112880000Y-124310000D03*
X112880000Y-130090000D03*
D18*
X113400000Y-122880000D03*
D19*
X109200000Y-122880000D03*
D18*
X113400000Y-131520000D03*
D19*
X109200000Y-131520000D03*
%TD*%
D15*
%TO.C,H2*%
X186162944Y-135732944D03*
X186865888Y-134035888D03*
X186865888Y-137430000D03*
X188562944Y-133332944D03*
D16*
X188562944Y-135732944D03*
D15*
X188562944Y-138132944D03*
X190260000Y-134035888D03*
X190260000Y-137430000D03*
X190962944Y-135732944D03*
%TD*%
%TO.C,H1*%
X109912944Y-82982944D03*
X110615888Y-81285888D03*
X110615888Y-84680000D03*
X112312944Y-80582944D03*
D16*
X112312944Y-82982944D03*
D15*
X112312944Y-85382944D03*
X114010000Y-81285888D03*
X114010000Y-84680000D03*
X114712944Y-82982944D03*
%TD*%
%TO.C,H3*%
X110360000Y-137180000D03*
X111062944Y-135482944D03*
X111062944Y-138877056D03*
X112760000Y-134780000D03*
D16*
X112760000Y-137180000D03*
D15*
X112760000Y-139580000D03*
X114457056Y-135482944D03*
X114457056Y-138877056D03*
X115160000Y-137180000D03*
%TD*%
D20*
%TO.C,U7*%
X161920000Y-130700000D03*
X161220000Y-130700000D03*
X160520000Y-130700000D03*
X159820000Y-130700000D03*
X159120000Y-130700000D03*
X158420000Y-130700000D03*
X157720000Y-130700000D03*
X157020000Y-130700000D03*
X156320000Y-130700000D03*
X155620000Y-130700000D03*
X154920000Y-130700000D03*
X154220000Y-130700000D03*
X153520000Y-130700000D03*
X152820000Y-130700000D03*
X152120000Y-130700000D03*
X151420000Y-130700000D03*
X150720000Y-130700000D03*
X150020000Y-130700000D03*
X149320000Y-130700000D03*
X148620000Y-130700000D03*
X147920000Y-130700000D03*
X147220000Y-130700000D03*
X146520000Y-130700000D03*
X145820000Y-130700000D03*
X145120000Y-130700000D03*
X144420000Y-130700000D03*
X143720000Y-130700000D03*
X143020000Y-130700000D03*
X142320000Y-130700000D03*
X141620000Y-130700000D03*
%TD*%
D14*
%TO.C,TP4*%
X121420000Y-128780000D03*
X121420000Y-126240000D03*
%TD*%
M02*
