M48
; DRILL file {KiCad 9.0.7} date 2026-03-30T21:46:51-0700
; FORMAT={-:-/ absolute / inch / decimal}
; #@! TF.CreationDate,2026-03-30T21:46:51-07:00
; #@! TF.GenerationSoftware,Kicad,Pcbnew,9.0.7
; #@! TF.FileFunction,Plated,1,2,PTH
FMAT,2
INCH
; #@! TA.AperFunction,Plated,PTH,ViaDrill
T1C0.0118
; #@! TA.AperFunction,Plated,PTH,ViaDrill
T2C0.0157
; #@! TA.AperFunction,Plated,PTH,ViaDrill
T3C0.0177
; #@! TA.AperFunction,Plated,PTH,ComponentDrill
T4C0.0197
; #@! TA.AperFunction,Plated,PTH,ComponentDrill
T5C0.0236
; #@! TA.AperFunction,Plated,PTH,ComponentDrill
T6C0.0315
; #@! TA.AperFunction,Plated,PTH,ComponentDrill
T7C0.0394
; #@! TA.AperFunction,Plated,PTH,ComponentDrill
T8C0.1260
; #@! TA.AperFunction,Plated,PTH,ComponentDrill
T9C0.3307
%
G90
G05
T1
X4.6925Y-4.9866
X4.8224Y-5.322
X4.8547Y-4.9902
X4.8748Y-4.9193
X4.8835Y-3.7091
X4.8839Y-3.435
X4.8945Y-3.7339
X4.9098Y-3.2957
X5.1843Y-5.322
X5.3335Y-4.5831
X5.5154Y-4.3244
X5.5213Y-4.3962
X5.5248Y-4.3473
X5.5266Y-4.372
X5.5469Y-3.4283
X5.5469Y-4.0953
X5.5736Y-4.4189
X5.5776Y-4.1134
X5.5783Y-3.2925
X5.6002Y-4.1234
X5.6004Y-3.422
X5.6164Y-4.3133
X5.6252Y-4.1335
X5.6264Y-3.311
X5.6334Y-4.2953
X5.6445Y-3.402
X5.6447Y-4.1487
X5.6461Y-4.274
X5.6469Y-4.2492
X5.6528Y-4.3299
X5.6625Y-4.1659
X5.663Y-3.3327
X5.6791Y-4.3307
X5.7134Y-4.5748
X5.7138Y-4.4614
X5.7146Y-4.4858
X5.7197Y-4.7189
X5.7422Y-4.7293
X5.7598Y-4.2594
X5.7598Y-4.2209
X5.7638Y-4.3717
X5.7882Y-4.5484
X5.7961Y-4.5217
X5.8189Y-4.3713
X5.8386Y-4.3539
X5.8476Y-3.974
X5.8547Y-5.0264
X5.8602Y-3.9508
X5.8633Y-4.3545
X5.8815Y-4.0551
X5.8937Y-4.5799
X5.9059Y-3.7929
X5.9071Y-5.0268
X5.9346Y-3.8492
X5.9465Y-4.5728
X6.0075Y-4.5366
X6.0142Y-3.8638
X6.0614Y-4.2256
X6.0717Y-4.2886
X6.1535Y-5.2843
X6.2398Y-4.1102
X6.2587Y-4.2949
X6.2622Y-4.2295
X6.4382Y-5.0598
X6.4535Y-4.5012
X6.4642Y-5.1146
X6.65Y-3.6803
X6.8874Y-3.5669
X7.1035Y-4.7807
X7.2827Y-4.4701
X7.3074Y-4.4705
X7.4575Y-4.3134
T2
X4.5409Y-3.5126
X4.5547Y-3.5898
X4.9299Y-3.1626
X5.2311Y-3.522
X5.2362Y-4.685
X5.3339Y-4.8173
X5.3382Y-4.698
X5.3528Y-3.7878
X5.4256Y-3.3165
X5.4724Y-4.5276
X5.4736Y-5.0803
X5.5118Y-4.685
X5.5264Y-4.2126
X5.6Y-3.1543
X5.6295Y-5.2693
X5.6594Y-5.2713
X5.6891Y-5.2694
X5.7382Y-3.2413
X5.8012Y-3.4437
X5.8047Y-3.8299
X5.8051Y-3.5378
X5.8197Y-3.8803
X5.8508Y-5.2756
X5.8949Y-3.5839
X5.9051Y-5.2728
X5.9134Y-4.0555
X5.9295Y-4.5193
X5.9811Y-3.5839
X5.9929Y-4.3827
X6.0079Y-4.0708
X6.0142Y-5.2594
X6.0346Y-4.6953
X6.063Y-4.563
X6.1865Y-5.017
X6.2646Y-5.2638
X6.2932Y-5.2738
X6.3213Y-5.2642
X6.3512Y-5.2654
X6.378Y-4.4882
X6.3921Y-3.15
X6.4469Y-4.3358
X6.6756Y-4.8319
X6.6764Y-4.939
X6.7728Y-4.861
X6.811Y-4.0551
X6.8787Y-4.5433
X6.9744Y-4.376
X7.0232Y-3.8358
X7.1693Y-3.1512
T3
X4.8858Y-4.8594
X4.9165Y-4.8594
X4.9472Y-4.8594
X5.0283Y-4.9272
X5.0366Y-4.9594
X5.0366Y-4.9961
X5.8622Y-4.1732
X5.8622Y-4.2028
X5.8622Y-4.2323
X5.8622Y-4.2618
X5.8917Y-4.1732
X5.8917Y-4.2028
X5.8917Y-4.2323
X5.8917Y-4.2618
X5.9213Y-4.1732
X5.9213Y-4.2028
X5.9213Y-4.2323
X5.9213Y-4.2618
X5.9508Y-4.1732
X5.9508Y-4.2028
X5.9508Y-4.2323
X5.9508Y-4.2618
X6.0661Y-3.4437
X6.1929Y-4.0512
X6.376Y-3.4228
X7.0976Y-3.4276
X7.165Y-3.4283
T4
X4.3273Y-3.267
X4.3449Y-5.4008
X4.355Y-3.2002
X4.355Y-3.3339
X4.3726Y-5.334
X4.3726Y-5.4676
X4.4218Y-3.1726
X4.4218Y-3.3615
X4.4394Y-5.3063
X4.4394Y-5.4953
X4.4886Y-3.2002
X4.4886Y-3.3339
X4.5062Y-5.334
X4.5062Y-5.4676
X4.5163Y-3.267
X4.5339Y-5.4008
X7.3075Y-3.3634
X7.3292Y-5.3438
X7.3352Y-3.2966
X7.3352Y-3.4302
X7.3569Y-5.277
X7.3569Y-5.4106
X7.402Y-3.2689
X7.402Y-3.4579
X7.4237Y-5.2493
X7.4237Y-5.4383
X7.4688Y-3.2966
X7.4688Y-3.4302
X7.4906Y-5.277
X7.4906Y-5.4106
X7.4965Y-3.3634
X7.5182Y-5.3438
T6
X4.6996Y-4.289
X4.7723Y-4.1136
X4.7723Y-4.4644
X4.7803Y-4.9701
X4.7803Y-5.0701
X4.9476Y-4.0409
X4.9476Y-4.537
X5.123Y-4.1136
X5.123Y-4.4644
X5.1957Y-4.289
X7.0083Y-4.0114
X7.0083Y-4.1114
T7
X4.3579Y-3.0465
X4.4579Y-3.0465
X4.5579Y-3.0465
X4.6579Y-3.0465
X4.7579Y-3.0465
X4.8579Y-3.0465
X4.9579Y-3.0465
X5.0579Y-3.0465
X5.1579Y-3.0465
X5.2579Y-3.0465
X5.3579Y-3.0465
X5.4579Y-3.0465
X5.5579Y-3.0465
X5.6579Y-3.0465
X5.7579Y-3.0465
X5.8579Y-3.0465
X5.9579Y-3.0465
X6.0579Y-3.0465
X6.1579Y-3.0465
X6.2579Y-3.0465
X6.3579Y-3.0465
X6.4579Y-3.0465
X6.5579Y-3.0465
X6.6579Y-3.0465
X6.7579Y-3.0465
X6.8579Y-3.0465
X6.9579Y-3.0465
X7.0579Y-3.0465
X7.1579Y-3.0465
X7.2579Y-3.0465
X7.3579Y-3.0465
X7.4579Y-3.0465
T8
X4.4218Y-3.267
X4.4394Y-5.4008
X7.402Y-3.3634
X7.4237Y-5.3438
T9
X4.9476Y-4.289
T5
G00X4.315Y-4.8378
M15
G01X4.2835Y-4.8378
M16
G05
G00X4.315Y-5.178
M15
G01X4.2835Y-5.178
M16
G05
G00X4.4862Y-4.8378
M15
G01X4.4429Y-4.8378
M16
G05
G00X4.4862Y-5.178
M15
G01X4.4429Y-5.178
M16
G05
M30
