G04 #@! TF.GenerationSoftware,KiCad,Pcbnew,6.0.8*
G04 #@! TF.CreationDate,2022-10-09T16:44:11-07:00*
G04 #@! TF.ProjectId,interposer,696e7465-7270-46f7-9365-722e6b696361,v4.0*
G04 #@! TF.SameCoordinates,Original*
G04 #@! TF.FileFunction,Legend,Top*
G04 #@! TF.FilePolarity,Positive*
%FSLAX46Y46*%
G04 Gerber Fmt 4.6, Leading zero omitted, Abs format (unit mm)*
G04 Created by KiCad (PCBNEW 6.0.8) date 2022-10-09 16:44:11*
%MOMM*%
%LPD*%
G01*
G04 APERTURE LIST*
%ADD10C,0.200000*%
%ADD11C,0.300000*%
%ADD12C,0.150000*%
%ADD13C,0.120000*%
%ADD14C,7.200000*%
%ADD15C,2.300000*%
%ADD16R,1.000000X3.150000*%
%ADD17R,1.000000X0.820000*%
%ADD18R,1.300000X6.000000*%
%ADD19R,1.000000X5.500000*%
%ADD20R,0.820000X1.000000*%
%ADD21R,1.000000X2.500000*%
%ADD22R,2.500000X4.000000*%
G04 APERTURE END LIST*
D10*
X87670000Y-42770000D02*
X87670000Y-41770000D01*
X88952380Y-41960476D02*
X88476190Y-42293809D01*
X88952380Y-42531904D02*
X87952380Y-42531904D01*
X87952380Y-42150952D01*
X88000000Y-42055714D01*
X88047619Y-42008095D01*
X88142857Y-41960476D01*
X88285714Y-41960476D01*
X88380952Y-42008095D01*
X88428571Y-42055714D01*
X88476190Y-42150952D01*
X88476190Y-42531904D01*
X87670000Y-41770000D02*
X87670000Y-40770000D01*
X88952380Y-41531904D02*
X87952380Y-41531904D01*
X87952380Y-41293809D01*
X88000000Y-41150952D01*
X88095238Y-41055714D01*
X88190476Y-41008095D01*
X88380952Y-40960476D01*
X88523809Y-40960476D01*
X88714285Y-41008095D01*
X88809523Y-41055714D01*
X88904761Y-41150952D01*
X88952380Y-41293809D01*
X88952380Y-41531904D01*
X90270000Y-42770000D02*
X90270000Y-41770000D01*
X91457142Y-41960476D02*
X91504761Y-42008095D01*
X91552380Y-42150952D01*
X91552380Y-42246190D01*
X91504761Y-42389047D01*
X91409523Y-42484285D01*
X91314285Y-42531904D01*
X91123809Y-42579523D01*
X90980952Y-42579523D01*
X90790476Y-42531904D01*
X90695238Y-42484285D01*
X90600000Y-42389047D01*
X90552380Y-42246190D01*
X90552380Y-42150952D01*
X90600000Y-42008095D01*
X90647619Y-41960476D01*
X90270000Y-41770000D02*
X90270000Y-40817619D01*
X91504761Y-41579523D02*
X91552380Y-41436666D01*
X91552380Y-41198571D01*
X91504761Y-41103333D01*
X91457142Y-41055714D01*
X91361904Y-41008095D01*
X91266666Y-41008095D01*
X91171428Y-41055714D01*
X91123809Y-41103333D01*
X91076190Y-41198571D01*
X91028571Y-41389047D01*
X90980952Y-41484285D01*
X90933333Y-41531904D01*
X90838095Y-41579523D01*
X90742857Y-41579523D01*
X90647619Y-41531904D01*
X90600000Y-41484285D01*
X90552380Y-41389047D01*
X90552380Y-41150952D01*
X90600000Y-41008095D01*
X94052380Y-42531904D02*
X93052380Y-42531904D01*
X93052380Y-42293809D01*
X93100000Y-42150952D01*
X93195238Y-42055714D01*
X93290476Y-42008095D01*
X93480952Y-41960476D01*
X93623809Y-41960476D01*
X93814285Y-42008095D01*
X93909523Y-42055714D01*
X94004761Y-42150952D01*
X94052380Y-42293809D01*
X94052380Y-42531904D01*
X93052380Y-41341428D02*
X93052380Y-41246190D01*
X93100000Y-41150952D01*
X93147619Y-41103333D01*
X93242857Y-41055714D01*
X93433333Y-41008095D01*
X93671428Y-41008095D01*
X93861904Y-41055714D01*
X93957142Y-41103333D01*
X94004761Y-41150952D01*
X94052380Y-41246190D01*
X94052380Y-41341428D01*
X94004761Y-41436666D01*
X93957142Y-41484285D01*
X93861904Y-41531904D01*
X93671428Y-41579523D01*
X93433333Y-41579523D01*
X93242857Y-41531904D01*
X93147619Y-41484285D01*
X93100000Y-41436666D01*
X93052380Y-41341428D01*
X96652380Y-42531904D02*
X95652380Y-42531904D01*
X95652380Y-42293809D01*
X95700000Y-42150952D01*
X95795238Y-42055714D01*
X95890476Y-42008095D01*
X96080952Y-41960476D01*
X96223809Y-41960476D01*
X96414285Y-42008095D01*
X96509523Y-42055714D01*
X96604761Y-42150952D01*
X96652380Y-42293809D01*
X96652380Y-42531904D01*
X96652380Y-41008095D02*
X96652380Y-41579523D01*
X96652380Y-41293809D02*
X95652380Y-41293809D01*
X95795238Y-41389047D01*
X95890476Y-41484285D01*
X95938095Y-41579523D01*
X99152380Y-42531904D02*
X98152380Y-42531904D01*
X98152380Y-42293809D01*
X98200000Y-42150952D01*
X98295238Y-42055714D01*
X98390476Y-42008095D01*
X98580952Y-41960476D01*
X98723809Y-41960476D01*
X98914285Y-42008095D01*
X99009523Y-42055714D01*
X99104761Y-42150952D01*
X99152380Y-42293809D01*
X99152380Y-42531904D01*
X98247619Y-41579523D02*
X98200000Y-41531904D01*
X98152380Y-41436666D01*
X98152380Y-41198571D01*
X98200000Y-41103333D01*
X98247619Y-41055714D01*
X98342857Y-41008095D01*
X98438095Y-41008095D01*
X98580952Y-41055714D01*
X99152380Y-41627142D01*
X99152380Y-41008095D01*
X101752380Y-42531904D02*
X100752380Y-42531904D01*
X100752380Y-42293809D01*
X100800000Y-42150952D01*
X100895238Y-42055714D01*
X100990476Y-42008095D01*
X101180952Y-41960476D01*
X101323809Y-41960476D01*
X101514285Y-42008095D01*
X101609523Y-42055714D01*
X101704761Y-42150952D01*
X101752380Y-42293809D01*
X101752380Y-42531904D01*
X100752380Y-41627142D02*
X100752380Y-41008095D01*
X101133333Y-41341428D01*
X101133333Y-41198571D01*
X101180952Y-41103333D01*
X101228571Y-41055714D01*
X101323809Y-41008095D01*
X101561904Y-41008095D01*
X101657142Y-41055714D01*
X101704761Y-41103333D01*
X101752380Y-41198571D01*
X101752380Y-41484285D01*
X101704761Y-41579523D01*
X101657142Y-41627142D01*
X104252380Y-42531904D02*
X103252380Y-42531904D01*
X103252380Y-42293809D01*
X103300000Y-42150952D01*
X103395238Y-42055714D01*
X103490476Y-42008095D01*
X103680952Y-41960476D01*
X103823809Y-41960476D01*
X104014285Y-42008095D01*
X104109523Y-42055714D01*
X104204761Y-42150952D01*
X104252380Y-42293809D01*
X104252380Y-42531904D01*
X103585714Y-41103333D02*
X104252380Y-41103333D01*
X103204761Y-41341428D02*
X103919047Y-41579523D01*
X103919047Y-40960476D01*
X106852380Y-42531904D02*
X105852380Y-42531904D01*
X105852380Y-42293809D01*
X105900000Y-42150952D01*
X105995238Y-42055714D01*
X106090476Y-42008095D01*
X106280952Y-41960476D01*
X106423809Y-41960476D01*
X106614285Y-42008095D01*
X106709523Y-42055714D01*
X106804761Y-42150952D01*
X106852380Y-42293809D01*
X106852380Y-42531904D01*
X105852380Y-41055714D02*
X105852380Y-41531904D01*
X106328571Y-41579523D01*
X106280952Y-41531904D01*
X106233333Y-41436666D01*
X106233333Y-41198571D01*
X106280952Y-41103333D01*
X106328571Y-41055714D01*
X106423809Y-41008095D01*
X106661904Y-41008095D01*
X106757142Y-41055714D01*
X106804761Y-41103333D01*
X106852380Y-41198571D01*
X106852380Y-41436666D01*
X106804761Y-41531904D01*
X106757142Y-41579523D01*
X109352380Y-42531904D02*
X108352380Y-42531904D01*
X108352380Y-42293809D01*
X108400000Y-42150952D01*
X108495238Y-42055714D01*
X108590476Y-42008095D01*
X108780952Y-41960476D01*
X108923809Y-41960476D01*
X109114285Y-42008095D01*
X109209523Y-42055714D01*
X109304761Y-42150952D01*
X109352380Y-42293809D01*
X109352380Y-42531904D01*
X108352380Y-41103333D02*
X108352380Y-41293809D01*
X108400000Y-41389047D01*
X108447619Y-41436666D01*
X108590476Y-41531904D01*
X108780952Y-41579523D01*
X109161904Y-41579523D01*
X109257142Y-41531904D01*
X109304761Y-41484285D01*
X109352380Y-41389047D01*
X109352380Y-41198571D01*
X109304761Y-41103333D01*
X109257142Y-41055714D01*
X109161904Y-41008095D01*
X108923809Y-41008095D01*
X108828571Y-41055714D01*
X108780952Y-41103333D01*
X108733333Y-41198571D01*
X108733333Y-41389047D01*
X108780952Y-41484285D01*
X108828571Y-41531904D01*
X108923809Y-41579523D01*
X111952380Y-42531904D02*
X110952380Y-42531904D01*
X110952380Y-42293809D01*
X111000000Y-42150952D01*
X111095238Y-42055714D01*
X111190476Y-42008095D01*
X111380952Y-41960476D01*
X111523809Y-41960476D01*
X111714285Y-42008095D01*
X111809523Y-42055714D01*
X111904761Y-42150952D01*
X111952380Y-42293809D01*
X111952380Y-42531904D01*
X110952380Y-41627142D02*
X110952380Y-40960476D01*
X111952380Y-41389047D01*
X113170000Y-42770000D02*
X113170000Y-41770000D01*
X114452380Y-41960476D02*
X113976190Y-42293809D01*
X114452380Y-42531904D02*
X113452380Y-42531904D01*
X113452380Y-42150952D01*
X113500000Y-42055714D01*
X113547619Y-42008095D01*
X113642857Y-41960476D01*
X113785714Y-41960476D01*
X113880952Y-42008095D01*
X113928571Y-42055714D01*
X113976190Y-42150952D01*
X113976190Y-42531904D01*
X113170000Y-41770000D02*
X113170000Y-40865238D01*
X113928571Y-41531904D02*
X113928571Y-41198571D01*
X114452380Y-41055714D02*
X114452380Y-41531904D01*
X113452380Y-41531904D01*
X113452380Y-41055714D01*
X113170000Y-40865238D02*
X113170000Y-39912857D01*
X114404761Y-40674761D02*
X114452380Y-40531904D01*
X114452380Y-40293809D01*
X114404761Y-40198571D01*
X114357142Y-40150952D01*
X114261904Y-40103333D01*
X114166666Y-40103333D01*
X114071428Y-40150952D01*
X114023809Y-40198571D01*
X113976190Y-40293809D01*
X113928571Y-40484285D01*
X113880952Y-40579523D01*
X113833333Y-40627142D01*
X113738095Y-40674761D01*
X113642857Y-40674761D01*
X113547619Y-40627142D01*
X113500000Y-40579523D01*
X113452380Y-40484285D01*
X113452380Y-40246190D01*
X113500000Y-40103333D01*
X115952380Y-42674761D02*
X116952380Y-42341428D01*
X115952380Y-42008095D01*
X116952380Y-41674761D02*
X115952380Y-41674761D01*
X116952380Y-41198571D02*
X115952380Y-41198571D01*
X116952380Y-40627142D01*
X115952380Y-40627142D01*
D11*
X86523809Y-67390000D02*
X86333333Y-67294761D01*
X86047619Y-67294761D01*
X85761904Y-67390000D01*
X85571428Y-67580476D01*
X85476190Y-67770952D01*
X85380952Y-68151904D01*
X85380952Y-68437619D01*
X85476190Y-68818571D01*
X85571428Y-69009047D01*
X85761904Y-69199523D01*
X86047619Y-69294761D01*
X86238095Y-69294761D01*
X86523809Y-69199523D01*
X86619047Y-69104285D01*
X86619047Y-68437619D01*
X86238095Y-68437619D01*
X88142857Y-68247142D02*
X88428571Y-68342380D01*
X88523809Y-68437619D01*
X88619047Y-68628095D01*
X88619047Y-68913809D01*
X88523809Y-69104285D01*
X88428571Y-69199523D01*
X88238095Y-69294761D01*
X87476190Y-69294761D01*
X87476190Y-67294761D01*
X88142857Y-67294761D01*
X88333333Y-67390000D01*
X88428571Y-67485238D01*
X88523809Y-67675714D01*
X88523809Y-67866190D01*
X88428571Y-68056666D01*
X88333333Y-68151904D01*
X88142857Y-68247142D01*
X87476190Y-68247142D01*
X89476190Y-68532857D02*
X91000000Y-68532857D01*
X92619047Y-68247142D02*
X92904761Y-68342380D01*
X93000000Y-68437619D01*
X93095238Y-68628095D01*
X93095238Y-68913809D01*
X93000000Y-69104285D01*
X92904761Y-69199523D01*
X92714285Y-69294761D01*
X91952380Y-69294761D01*
X91952380Y-67294761D01*
X92619047Y-67294761D01*
X92809523Y-67390000D01*
X92904761Y-67485238D01*
X93000000Y-67675714D01*
X93000000Y-67866190D01*
X92904761Y-68056666D01*
X92809523Y-68151904D01*
X92619047Y-68247142D01*
X91952380Y-68247142D01*
X95095238Y-69294761D02*
X94428571Y-68342380D01*
X93952380Y-69294761D02*
X93952380Y-67294761D01*
X94714285Y-67294761D01*
X94904761Y-67390000D01*
X95000000Y-67485238D01*
X95095238Y-67675714D01*
X95095238Y-67961428D01*
X95000000Y-68151904D01*
X94904761Y-68247142D01*
X94714285Y-68342380D01*
X93952380Y-68342380D01*
X95952380Y-69294761D02*
X95952380Y-67294761D01*
X97095238Y-69294761D02*
X96238095Y-68151904D01*
X97095238Y-67294761D02*
X95952380Y-68437619D01*
X97952380Y-68532857D02*
X99476190Y-68532857D01*
X101571428Y-69104285D02*
X101476190Y-69199523D01*
X101190476Y-69294761D01*
X101000000Y-69294761D01*
X100714285Y-69199523D01*
X100523809Y-69009047D01*
X100428571Y-68818571D01*
X100333333Y-68437619D01*
X100333333Y-68151904D01*
X100428571Y-67770952D01*
X100523809Y-67580476D01*
X100714285Y-67390000D01*
X101000000Y-67294761D01*
X101190476Y-67294761D01*
X101476190Y-67390000D01*
X101571428Y-67485238D01*
X102333333Y-68723333D02*
X103285714Y-68723333D01*
X102142857Y-69294761D02*
X102809523Y-67294761D01*
X103476190Y-69294761D01*
X105285714Y-69294761D02*
X104619047Y-68342380D01*
X104142857Y-69294761D02*
X104142857Y-67294761D01*
X104904761Y-67294761D01*
X105095238Y-67390000D01*
X105190476Y-67485238D01*
X105285714Y-67675714D01*
X105285714Y-67961428D01*
X105190476Y-68151904D01*
X105095238Y-68247142D01*
X104904761Y-68342380D01*
X104142857Y-68342380D01*
X105857142Y-67294761D02*
X107000000Y-67294761D01*
X106428571Y-69294761D02*
X106428571Y-67294761D01*
X109000000Y-67961428D02*
X109476190Y-69294761D01*
X109952380Y-67961428D01*
X111571428Y-67961428D02*
X111571428Y-69294761D01*
X111095238Y-67199523D02*
X110619047Y-68628095D01*
X111857142Y-68628095D01*
X112619047Y-69104285D02*
X112714285Y-69199523D01*
X112619047Y-69294761D01*
X112523809Y-69199523D01*
X112619047Y-69104285D01*
X112619047Y-69294761D01*
X113952380Y-67294761D02*
X114142857Y-67294761D01*
X114333333Y-67390000D01*
X114428571Y-67485238D01*
X114523809Y-67675714D01*
X114619047Y-68056666D01*
X114619047Y-68532857D01*
X114523809Y-68913809D01*
X114428571Y-69104285D01*
X114333333Y-69199523D01*
X114142857Y-69294761D01*
X113952380Y-69294761D01*
X113761904Y-69199523D01*
X113666666Y-69104285D01*
X113571428Y-68913809D01*
X113476190Y-68532857D01*
X113476190Y-68056666D01*
X113571428Y-67675714D01*
X113666666Y-67485238D01*
X113761904Y-67390000D01*
X113952380Y-67294761D01*
X87857142Y-72514761D02*
X87857142Y-70514761D01*
X88714285Y-72514761D02*
X88714285Y-71467142D01*
X88619047Y-71276666D01*
X88428571Y-71181428D01*
X88142857Y-71181428D01*
X87952380Y-71276666D01*
X87857142Y-71371904D01*
X89380952Y-71181428D02*
X90142857Y-71181428D01*
X89666666Y-70514761D02*
X89666666Y-72229047D01*
X89761904Y-72419523D01*
X89952380Y-72514761D01*
X90142857Y-72514761D01*
X90523809Y-71181428D02*
X91285714Y-71181428D01*
X90809523Y-70514761D02*
X90809523Y-72229047D01*
X90904761Y-72419523D01*
X91095238Y-72514761D01*
X91285714Y-72514761D01*
X91952380Y-71181428D02*
X91952380Y-73181428D01*
X91952380Y-71276666D02*
X92142857Y-71181428D01*
X92523809Y-71181428D01*
X92714285Y-71276666D01*
X92809523Y-71371904D01*
X92904761Y-71562380D01*
X92904761Y-72133809D01*
X92809523Y-72324285D01*
X92714285Y-72419523D01*
X92523809Y-72514761D01*
X92142857Y-72514761D01*
X91952380Y-72419523D01*
X93666666Y-72419523D02*
X93857142Y-72514761D01*
X94238095Y-72514761D01*
X94428571Y-72419523D01*
X94523809Y-72229047D01*
X94523809Y-72133809D01*
X94428571Y-71943333D01*
X94238095Y-71848095D01*
X93952380Y-71848095D01*
X93761904Y-71752857D01*
X93666666Y-71562380D01*
X93666666Y-71467142D01*
X93761904Y-71276666D01*
X93952380Y-71181428D01*
X94238095Y-71181428D01*
X94428571Y-71276666D01*
X95380952Y-72324285D02*
X95476190Y-72419523D01*
X95380952Y-72514761D01*
X95285714Y-72419523D01*
X95380952Y-72324285D01*
X95380952Y-72514761D01*
X95380952Y-71276666D02*
X95476190Y-71371904D01*
X95380952Y-71467142D01*
X95285714Y-71371904D01*
X95380952Y-71276666D01*
X95380952Y-71467142D01*
X97761904Y-70419523D02*
X96047619Y-72990952D01*
X99857142Y-70419523D02*
X98142857Y-72990952D01*
X101380952Y-71181428D02*
X101380952Y-72800476D01*
X101285714Y-72990952D01*
X101190476Y-73086190D01*
X100999999Y-73181428D01*
X100714285Y-73181428D01*
X100523809Y-73086190D01*
X101380952Y-72419523D02*
X101190476Y-72514761D01*
X100809523Y-72514761D01*
X100619047Y-72419523D01*
X100523809Y-72324285D01*
X100428571Y-72133809D01*
X100428571Y-71562380D01*
X100523809Y-71371904D01*
X100619047Y-71276666D01*
X100809523Y-71181428D01*
X101190476Y-71181428D01*
X101380952Y-71276666D01*
X103095238Y-72419523D02*
X102904761Y-72514761D01*
X102523809Y-72514761D01*
X102333333Y-72419523D01*
X102238095Y-72229047D01*
X102238095Y-71467142D01*
X102333333Y-71276666D01*
X102523809Y-71181428D01*
X102904761Y-71181428D01*
X103095238Y-71276666D01*
X103190476Y-71467142D01*
X103190476Y-71657619D01*
X102238095Y-71848095D01*
X104047619Y-72514761D02*
X104047619Y-70514761D01*
X104238095Y-71752857D02*
X104809523Y-72514761D01*
X104809523Y-71181428D02*
X104047619Y-71943333D01*
X105666666Y-72514761D02*
X105666666Y-70514761D01*
X105857142Y-71752857D02*
X106428571Y-72514761D01*
X106428571Y-71181428D02*
X105666666Y-71943333D01*
X107285714Y-72514761D02*
X107285714Y-71181428D01*
X107285714Y-70514761D02*
X107190476Y-70610000D01*
X107285714Y-70705238D01*
X107380952Y-70610000D01*
X107285714Y-70514761D01*
X107285714Y-70705238D01*
X108523809Y-72514761D02*
X108333333Y-72419523D01*
X108238095Y-72324285D01*
X108142857Y-72133809D01*
X108142857Y-71562380D01*
X108238095Y-71371904D01*
X108333333Y-71276666D01*
X108523809Y-71181428D01*
X108809523Y-71181428D01*
X109000000Y-71276666D01*
X109095238Y-71371904D01*
X109190476Y-71562380D01*
X109190476Y-72133809D01*
X109095238Y-72324285D01*
X109000000Y-72419523D01*
X108809523Y-72514761D01*
X108523809Y-72514761D01*
X110047619Y-72324285D02*
X110142857Y-72419523D01*
X110047619Y-72514761D01*
X109952380Y-72419523D01*
X110047619Y-72324285D01*
X110047619Y-72514761D01*
X110714285Y-71181428D02*
X111476190Y-71181428D01*
X111000000Y-72514761D02*
X111000000Y-70800476D01*
X111095238Y-70610000D01*
X111285714Y-70514761D01*
X111476190Y-70514761D01*
X112142857Y-72514761D02*
X112142857Y-71181428D01*
X112142857Y-70514761D02*
X112047619Y-70610000D01*
X112142857Y-70705238D01*
X112238095Y-70610000D01*
X112142857Y-70514761D01*
X112142857Y-70705238D01*
D10*
X118600000Y-42008095D02*
X118552380Y-42103333D01*
X118552380Y-42246190D01*
X118600000Y-42389047D01*
X118695238Y-42484285D01*
X118790476Y-42531904D01*
X118980952Y-42579523D01*
X119123809Y-42579523D01*
X119314285Y-42531904D01*
X119409523Y-42484285D01*
X119504761Y-42389047D01*
X119552380Y-42246190D01*
X119552380Y-42150952D01*
X119504761Y-42008095D01*
X119457142Y-41960476D01*
X119123809Y-41960476D01*
X119123809Y-42150952D01*
X119552380Y-41531904D02*
X118552380Y-41531904D01*
X119552380Y-40960476D01*
X118552380Y-40960476D01*
X119552380Y-40484285D02*
X118552380Y-40484285D01*
X118552380Y-40246190D01*
X118600000Y-40103333D01*
X118695238Y-40008095D01*
X118790476Y-39960476D01*
X118980952Y-39912857D01*
X119123809Y-39912857D01*
X119314285Y-39960476D01*
X119409523Y-40008095D01*
X119504761Y-40103333D01*
X119552380Y-40246190D01*
X119552380Y-40484285D01*
X101466666Y-54849047D02*
X101466666Y-54372857D01*
X101752380Y-54944285D02*
X100752380Y-54610952D01*
X101752380Y-54277619D01*
X101180952Y-53801428D02*
X101133333Y-53896666D01*
X101085714Y-53944285D01*
X100990476Y-53991904D01*
X100942857Y-53991904D01*
X100847619Y-53944285D01*
X100800000Y-53896666D01*
X100752380Y-53801428D01*
X100752380Y-53610952D01*
X100800000Y-53515714D01*
X100847619Y-53468095D01*
X100942857Y-53420476D01*
X100990476Y-53420476D01*
X101085714Y-53468095D01*
X101133333Y-53515714D01*
X101180952Y-53610952D01*
X101180952Y-53801428D01*
X101228571Y-53896666D01*
X101276190Y-53944285D01*
X101371428Y-53991904D01*
X101561904Y-53991904D01*
X101657142Y-53944285D01*
X101704761Y-53896666D01*
X101752380Y-53801428D01*
X101752380Y-53610952D01*
X101704761Y-53515714D01*
X101657142Y-53468095D01*
X101561904Y-53420476D01*
X101371428Y-53420476D01*
X101276190Y-53468095D01*
X101228571Y-53515714D01*
X101180952Y-53610952D01*
X96366666Y-54849047D02*
X96366666Y-54372857D01*
X96652380Y-54944285D02*
X95652380Y-54610952D01*
X96652380Y-54277619D01*
X95652380Y-53515714D02*
X95652380Y-53706190D01*
X95700000Y-53801428D01*
X95747619Y-53849047D01*
X95890476Y-53944285D01*
X96080952Y-53991904D01*
X96461904Y-53991904D01*
X96557142Y-53944285D01*
X96604761Y-53896666D01*
X96652380Y-53801428D01*
X96652380Y-53610952D01*
X96604761Y-53515714D01*
X96557142Y-53468095D01*
X96461904Y-53420476D01*
X96223809Y-53420476D01*
X96128571Y-53468095D01*
X96080952Y-53515714D01*
X96033333Y-53610952D01*
X96033333Y-53801428D01*
X96080952Y-53896666D01*
X96128571Y-53944285D01*
X96223809Y-53991904D01*
X111566666Y-55801428D02*
X111566666Y-55325238D01*
X111852380Y-55896666D02*
X110852380Y-55563333D01*
X111852380Y-55230000D01*
X111852380Y-54372857D02*
X111852380Y-54944285D01*
X111852380Y-54658571D02*
X110852380Y-54658571D01*
X110995238Y-54753809D01*
X111090476Y-54849047D01*
X111138095Y-54944285D01*
X110947619Y-53991904D02*
X110900000Y-53944285D01*
X110852380Y-53849047D01*
X110852380Y-53610952D01*
X110900000Y-53515714D01*
X110947619Y-53468095D01*
X111042857Y-53420476D01*
X111138095Y-53420476D01*
X111280952Y-53468095D01*
X111852380Y-54039523D01*
X111852380Y-53420476D01*
X81071428Y-42531904D02*
X81071428Y-41770000D01*
X81452380Y-42150952D02*
X80690476Y-42150952D01*
X80452380Y-40817619D02*
X80452380Y-41293809D01*
X80928571Y-41341428D01*
X80880952Y-41293809D01*
X80833333Y-41198571D01*
X80833333Y-40960476D01*
X80880952Y-40865238D01*
X80928571Y-40817619D01*
X81023809Y-40770000D01*
X81261904Y-40770000D01*
X81357142Y-40817619D01*
X81404761Y-40865238D01*
X81452380Y-40960476D01*
X81452380Y-41198571D01*
X81404761Y-41293809D01*
X81357142Y-41341428D01*
X80452380Y-40484285D02*
X81452380Y-40150952D01*
X80452380Y-39817619D01*
X114166666Y-55801428D02*
X114166666Y-55325238D01*
X114452380Y-55896666D02*
X113452380Y-55563333D01*
X114452380Y-55230000D01*
X114452380Y-54372857D02*
X114452380Y-54944285D01*
X114452380Y-54658571D02*
X113452380Y-54658571D01*
X113595238Y-54753809D01*
X113690476Y-54849047D01*
X113738095Y-54944285D01*
X113452380Y-54039523D02*
X113452380Y-53420476D01*
X113833333Y-53753809D01*
X113833333Y-53610952D01*
X113880952Y-53515714D01*
X113928571Y-53468095D01*
X114023809Y-53420476D01*
X114261904Y-53420476D01*
X114357142Y-53468095D01*
X114404761Y-53515714D01*
X114452380Y-53610952D01*
X114452380Y-53896666D01*
X114404761Y-53991904D01*
X114357142Y-54039523D01*
X106466666Y-55801428D02*
X106466666Y-55325238D01*
X106752380Y-55896666D02*
X105752380Y-55563333D01*
X106752380Y-55230000D01*
X106752380Y-54372857D02*
X106752380Y-54944285D01*
X106752380Y-54658571D02*
X105752380Y-54658571D01*
X105895238Y-54753809D01*
X105990476Y-54849047D01*
X106038095Y-54944285D01*
X105752380Y-53753809D02*
X105752380Y-53658571D01*
X105800000Y-53563333D01*
X105847619Y-53515714D01*
X105942857Y-53468095D01*
X106133333Y-53420476D01*
X106371428Y-53420476D01*
X106561904Y-53468095D01*
X106657142Y-53515714D01*
X106704761Y-53563333D01*
X106752380Y-53658571D01*
X106752380Y-53753809D01*
X106704761Y-53849047D01*
X106657142Y-53896666D01*
X106561904Y-53944285D01*
X106371428Y-53991904D01*
X106133333Y-53991904D01*
X105942857Y-53944285D01*
X105847619Y-53896666D01*
X105800000Y-53849047D01*
X105752380Y-53753809D01*
X116666666Y-55801428D02*
X116666666Y-55325238D01*
X116952380Y-55896666D02*
X115952380Y-55563333D01*
X116952380Y-55230000D01*
X116952380Y-54372857D02*
X116952380Y-54944285D01*
X116952380Y-54658571D02*
X115952380Y-54658571D01*
X116095238Y-54753809D01*
X116190476Y-54849047D01*
X116238095Y-54944285D01*
X116285714Y-53515714D02*
X116952380Y-53515714D01*
X115904761Y-53753809D02*
X116619047Y-53991904D01*
X116619047Y-53372857D01*
X85170000Y-42770000D02*
X85170000Y-41627142D01*
X85452380Y-42627142D02*
X86452380Y-42389047D01*
X85738095Y-42198571D01*
X86452380Y-42008095D01*
X85452380Y-41770000D01*
X85170000Y-41627142D02*
X85170000Y-40627142D01*
X86452380Y-40817619D02*
X85976190Y-41150952D01*
X86452380Y-41389047D02*
X85452380Y-41389047D01*
X85452380Y-41008095D01*
X85500000Y-40912857D01*
X85547619Y-40865238D01*
X85642857Y-40817619D01*
X85785714Y-40817619D01*
X85880952Y-40865238D01*
X85928571Y-40912857D01*
X85976190Y-41008095D01*
X85976190Y-41389047D01*
X103966666Y-54849047D02*
X103966666Y-54372857D01*
X104252380Y-54944285D02*
X103252380Y-54610952D01*
X104252380Y-54277619D01*
X104252380Y-53896666D02*
X104252380Y-53706190D01*
X104204761Y-53610952D01*
X104157142Y-53563333D01*
X104014285Y-53468095D01*
X103823809Y-53420476D01*
X103442857Y-53420476D01*
X103347619Y-53468095D01*
X103300000Y-53515714D01*
X103252380Y-53610952D01*
X103252380Y-53801428D01*
X103300000Y-53896666D01*
X103347619Y-53944285D01*
X103442857Y-53991904D01*
X103680952Y-53991904D01*
X103776190Y-53944285D01*
X103823809Y-53896666D01*
X103871428Y-53801428D01*
X103871428Y-53610952D01*
X103823809Y-53515714D01*
X103776190Y-53468095D01*
X103680952Y-53420476D01*
X86166666Y-54849047D02*
X86166666Y-54372857D01*
X86452380Y-54944285D02*
X85452380Y-54610952D01*
X86452380Y-54277619D01*
X85547619Y-53991904D02*
X85500000Y-53944285D01*
X85452380Y-53849047D01*
X85452380Y-53610952D01*
X85500000Y-53515714D01*
X85547619Y-53468095D01*
X85642857Y-53420476D01*
X85738095Y-53420476D01*
X85880952Y-53468095D01*
X86452380Y-54039523D01*
X86452380Y-53420476D01*
X109066666Y-55801428D02*
X109066666Y-55325238D01*
X109352380Y-55896666D02*
X108352380Y-55563333D01*
X109352380Y-55230000D01*
X109352380Y-54372857D02*
X109352380Y-54944285D01*
X109352380Y-54658571D02*
X108352380Y-54658571D01*
X108495238Y-54753809D01*
X108590476Y-54849047D01*
X108638095Y-54944285D01*
X109352380Y-53420476D02*
X109352380Y-53991904D01*
X109352380Y-53706190D02*
X108352380Y-53706190D01*
X108495238Y-53801428D01*
X108590476Y-53896666D01*
X108638095Y-53991904D01*
X81166666Y-54849047D02*
X81166666Y-54372857D01*
X81452380Y-54944285D02*
X80452380Y-54610952D01*
X81452380Y-54277619D01*
X80452380Y-53753809D02*
X80452380Y-53658571D01*
X80500000Y-53563333D01*
X80547619Y-53515714D01*
X80642857Y-53468095D01*
X80833333Y-53420476D01*
X81071428Y-53420476D01*
X81261904Y-53468095D01*
X81357142Y-53515714D01*
X81404761Y-53563333D01*
X81452380Y-53658571D01*
X81452380Y-53753809D01*
X81404761Y-53849047D01*
X81357142Y-53896666D01*
X81261904Y-53944285D01*
X81071428Y-53991904D01*
X80833333Y-53991904D01*
X80642857Y-53944285D01*
X80547619Y-53896666D01*
X80500000Y-53849047D01*
X80452380Y-53753809D01*
X98866666Y-54849047D02*
X98866666Y-54372857D01*
X99152380Y-54944285D02*
X98152380Y-54610952D01*
X99152380Y-54277619D01*
X98152380Y-54039523D02*
X98152380Y-53372857D01*
X99152380Y-53801428D01*
X91266666Y-54849047D02*
X91266666Y-54372857D01*
X91552380Y-54944285D02*
X90552380Y-54610952D01*
X91552380Y-54277619D01*
X90885714Y-53515714D02*
X91552380Y-53515714D01*
X90504761Y-53753809D02*
X91219047Y-53991904D01*
X91219047Y-53372857D01*
X83666666Y-54849047D02*
X83666666Y-54372857D01*
X83952380Y-54944285D02*
X82952380Y-54610952D01*
X83952380Y-54277619D01*
X83952380Y-53420476D02*
X83952380Y-53991904D01*
X83952380Y-53706190D02*
X82952380Y-53706190D01*
X83095238Y-53801428D01*
X83190476Y-53896666D01*
X83238095Y-53991904D01*
X83952380Y-42531904D02*
X82952380Y-42531904D01*
X82952380Y-42150952D01*
X83000000Y-42055714D01*
X83047619Y-42008095D01*
X83142857Y-41960476D01*
X83285714Y-41960476D01*
X83380952Y-42008095D01*
X83428571Y-42055714D01*
X83476190Y-42150952D01*
X83476190Y-42531904D01*
X83952380Y-41531904D02*
X82952380Y-41531904D01*
X83428571Y-41531904D02*
X83428571Y-40960476D01*
X83952380Y-40960476D02*
X82952380Y-40960476D01*
X83952380Y-40484285D02*
X82952380Y-40484285D01*
X119266666Y-55801428D02*
X119266666Y-55325238D01*
X119552380Y-55896666D02*
X118552380Y-55563333D01*
X119552380Y-55230000D01*
X119552380Y-54372857D02*
X119552380Y-54944285D01*
X119552380Y-54658571D02*
X118552380Y-54658571D01*
X118695238Y-54753809D01*
X118790476Y-54849047D01*
X118838095Y-54944285D01*
X118552380Y-53468095D02*
X118552380Y-53944285D01*
X119028571Y-53991904D01*
X118980952Y-53944285D01*
X118933333Y-53849047D01*
X118933333Y-53610952D01*
X118980952Y-53515714D01*
X119028571Y-53468095D01*
X119123809Y-53420476D01*
X119361904Y-53420476D01*
X119457142Y-53468095D01*
X119504761Y-53515714D01*
X119552380Y-53610952D01*
X119552380Y-53849047D01*
X119504761Y-53944285D01*
X119457142Y-53991904D01*
X88766666Y-54849047D02*
X88766666Y-54372857D01*
X89052380Y-54944285D02*
X88052380Y-54610952D01*
X89052380Y-54277619D01*
X88052380Y-54039523D02*
X88052380Y-53420476D01*
X88433333Y-53753809D01*
X88433333Y-53610952D01*
X88480952Y-53515714D01*
X88528571Y-53468095D01*
X88623809Y-53420476D01*
X88861904Y-53420476D01*
X88957142Y-53468095D01*
X89004761Y-53515714D01*
X89052380Y-53610952D01*
X89052380Y-53896666D01*
X89004761Y-53991904D01*
X88957142Y-54039523D01*
X93866666Y-54849047D02*
X93866666Y-54372857D01*
X94152380Y-54944285D02*
X93152380Y-54610952D01*
X94152380Y-54277619D01*
X93152380Y-53468095D02*
X93152380Y-53944285D01*
X93628571Y-53991904D01*
X93580952Y-53944285D01*
X93533333Y-53849047D01*
X93533333Y-53610952D01*
X93580952Y-53515714D01*
X93628571Y-53468095D01*
X93723809Y-53420476D01*
X93961904Y-53420476D01*
X94057142Y-53468095D01*
X94104761Y-53515714D01*
X94152380Y-53610952D01*
X94152380Y-53849047D01*
X94104761Y-53944285D01*
X94057142Y-53991904D01*
D12*
X121166666Y-49552380D02*
X121166666Y-50266666D01*
X121119047Y-50409523D01*
X121023809Y-50504761D01*
X120880952Y-50552380D01*
X120785714Y-50552380D01*
X122166666Y-50552380D02*
X121595238Y-50552380D01*
X121880952Y-50552380D02*
X121880952Y-49552380D01*
X121785714Y-49695238D01*
X121690476Y-49790476D01*
X121595238Y-49838095D01*
X77633333Y-48152380D02*
X77300000Y-47676190D01*
X77061904Y-48152380D02*
X77061904Y-47152380D01*
X77442857Y-47152380D01*
X77538095Y-47200000D01*
X77585714Y-47247619D01*
X77633333Y-47342857D01*
X77633333Y-47485714D01*
X77585714Y-47580952D01*
X77538095Y-47628571D01*
X77442857Y-47676190D01*
X77061904Y-47676190D01*
X78585714Y-48152380D02*
X78014285Y-48152380D01*
X78300000Y-48152380D02*
X78300000Y-47152380D01*
X78204761Y-47295238D01*
X78109523Y-47390476D01*
X78014285Y-47438095D01*
X122390476Y-90952380D02*
X123009523Y-90952380D01*
X122676190Y-91333333D01*
X122819047Y-91333333D01*
X122914285Y-91380952D01*
X122961904Y-91428571D01*
X123009523Y-91523809D01*
X123009523Y-91761904D01*
X122961904Y-91857142D01*
X122914285Y-91904761D01*
X122819047Y-91952380D01*
X122533333Y-91952380D01*
X122438095Y-91904761D01*
X122390476Y-91857142D01*
X123390476Y-91047619D02*
X123438095Y-91000000D01*
X123533333Y-90952380D01*
X123771428Y-90952380D01*
X123866666Y-91000000D01*
X123914285Y-91047619D01*
X123961904Y-91142857D01*
X123961904Y-91238095D01*
X123914285Y-91380952D01*
X123342857Y-91952380D01*
X123961904Y-91952380D01*
X76585714Y-91952380D02*
X76014285Y-91952380D01*
X76300000Y-91952380D02*
X76300000Y-90952380D01*
X76204761Y-91095238D01*
X76109523Y-91190476D01*
X76014285Y-91238095D01*
X75733333Y-48057142D02*
X75685714Y-48104761D01*
X75542857Y-48152380D01*
X75447619Y-48152380D01*
X75304761Y-48104761D01*
X75209523Y-48009523D01*
X75161904Y-47914285D01*
X75114285Y-47723809D01*
X75114285Y-47580952D01*
X75161904Y-47390476D01*
X75209523Y-47295238D01*
X75304761Y-47200000D01*
X75447619Y-47152380D01*
X75542857Y-47152380D01*
X75685714Y-47200000D01*
X75733333Y-47247619D01*
X76685714Y-48152380D02*
X76114285Y-48152380D01*
X76400000Y-48152380D02*
X76400000Y-47152380D01*
X76304761Y-47295238D01*
X76209523Y-47390476D01*
X76114285Y-47438095D01*
X75261904Y-40752380D02*
X75261904Y-39752380D01*
X75500000Y-39752380D01*
X75642857Y-39800000D01*
X75738095Y-39895238D01*
X75785714Y-39990476D01*
X75833333Y-40180952D01*
X75833333Y-40323809D01*
X75785714Y-40514285D01*
X75738095Y-40609523D01*
X75642857Y-40704761D01*
X75500000Y-40752380D01*
X75261904Y-40752380D01*
X76785714Y-40752380D02*
X76214285Y-40752380D01*
X76500000Y-40752380D02*
X76500000Y-39752380D01*
X76404761Y-39895238D01*
X76309523Y-39990476D01*
X76214285Y-40038095D01*
X99166666Y-25252380D02*
X99166666Y-25966666D01*
X99119047Y-26109523D01*
X99023809Y-26204761D01*
X98880952Y-26252380D01*
X98785714Y-26252380D01*
X99547619Y-25252380D02*
X100166666Y-25252380D01*
X99833333Y-25633333D01*
X99976190Y-25633333D01*
X100071428Y-25680952D01*
X100119047Y-25728571D01*
X100166666Y-25823809D01*
X100166666Y-26061904D01*
X100119047Y-26157142D01*
X100071428Y-26204761D01*
X99976190Y-26252380D01*
X99690476Y-26252380D01*
X99595238Y-26204761D01*
X99547619Y-26157142D01*
D13*
X99490000Y-50600000D02*
X100510000Y-50600000D01*
X114730000Y-45400000D02*
X115750000Y-45400000D01*
X114730000Y-50600000D02*
X115750000Y-50600000D01*
X84250000Y-50600000D02*
X85270000Y-50600000D01*
X109650000Y-50600000D02*
X110670000Y-50600000D01*
X86790000Y-45400000D02*
X87810000Y-45400000D01*
X89330000Y-50600000D02*
X90350000Y-50600000D01*
X81710000Y-45400000D02*
X82730000Y-45400000D01*
X79620000Y-50600000D02*
X80190000Y-50600000D01*
X104570000Y-45400000D02*
X105590000Y-45400000D01*
X120380000Y-50600000D02*
X120380000Y-45400000D01*
X86790000Y-50600000D02*
X87810000Y-50600000D01*
X112190000Y-45400000D02*
X113210000Y-45400000D01*
X104570000Y-50600000D02*
X105590000Y-50600000D01*
X117270000Y-45400000D02*
X118290000Y-45400000D01*
X80190000Y-52040000D02*
X80190000Y-50600000D01*
X96950000Y-45400000D02*
X97970000Y-45400000D01*
X81710000Y-50600000D02*
X82730000Y-50600000D01*
X117270000Y-50600000D02*
X118290000Y-50600000D01*
X96950000Y-50600000D02*
X97970000Y-50600000D01*
X91870000Y-45400000D02*
X92890000Y-45400000D01*
X109650000Y-45400000D02*
X110670000Y-45400000D01*
X102030000Y-45400000D02*
X103050000Y-45400000D01*
X84250000Y-45400000D02*
X85270000Y-45400000D01*
X89330000Y-45400000D02*
X90350000Y-45400000D01*
X112190000Y-50600000D02*
X113210000Y-50600000D01*
X107110000Y-50600000D02*
X108130000Y-50600000D01*
X94410000Y-50600000D02*
X95430000Y-50600000D01*
X107110000Y-45400000D02*
X108130000Y-45400000D01*
X119810000Y-50600000D02*
X120380000Y-50600000D01*
X119810000Y-45400000D02*
X120380000Y-45400000D01*
X79620000Y-45400000D02*
X80190000Y-45400000D01*
X99490000Y-45400000D02*
X100510000Y-45400000D01*
X91870000Y-50600000D02*
X92890000Y-50600000D01*
X102030000Y-50600000D02*
X103050000Y-50600000D01*
X94410000Y-45400000D02*
X95430000Y-45400000D01*
X79620000Y-50600000D02*
X79620000Y-45400000D01*
X77700000Y-41240000D02*
X75430000Y-41240000D01*
X75430000Y-41240000D02*
X75430000Y-42760000D01*
X75430000Y-42760000D02*
X77700000Y-42760000D01*
X125300000Y-21500000D02*
X125300000Y-19600000D01*
X75600000Y-21500000D02*
X73700000Y-21500000D01*
X123400000Y-21500000D02*
X125300000Y-21500000D01*
X73700000Y-21500000D02*
X73700000Y-19600000D01*
%LPC*%
D14*
X100000000Y-84650000D03*
D15*
X100000000Y-59650000D03*
D16*
X80950000Y-50525000D03*
X80950000Y-45475000D03*
X83490000Y-50525000D03*
X83490000Y-45475000D03*
X86030000Y-50525000D03*
X86030000Y-45475000D03*
X88570000Y-50525000D03*
X88570000Y-45475000D03*
X91110000Y-50525000D03*
X91110000Y-45475000D03*
X93650000Y-50525000D03*
X93650000Y-45475000D03*
X96190000Y-50525000D03*
X96190000Y-45475000D03*
X98730000Y-50525000D03*
X98730000Y-45475000D03*
X101270000Y-50525000D03*
X101270000Y-45475000D03*
X103810000Y-50525000D03*
X103810000Y-45475000D03*
X106350000Y-50525000D03*
X106350000Y-45475000D03*
X108890000Y-50525000D03*
X108890000Y-45475000D03*
X111430000Y-50525000D03*
X111430000Y-45475000D03*
X113970000Y-50525000D03*
X113970000Y-45475000D03*
X116510000Y-50525000D03*
X116510000Y-45475000D03*
X119050000Y-50525000D03*
X119050000Y-45475000D03*
D17*
X77800000Y-46000000D03*
X77800000Y-44400000D03*
D18*
X76600000Y-96000000D03*
D19*
X78250000Y-95750000D03*
X79750000Y-95750000D03*
X81250000Y-95750000D03*
X82750000Y-95750000D03*
X84250000Y-95750000D03*
X85750000Y-95750000D03*
X87250000Y-95750000D03*
X88750000Y-95750000D03*
X90250000Y-95750000D03*
X91750000Y-95750000D03*
X93250000Y-95750000D03*
X94750000Y-95750000D03*
X96250000Y-95750000D03*
X97750000Y-95750000D03*
X99250000Y-95750000D03*
X100750000Y-95750000D03*
X102250000Y-95750000D03*
X103750000Y-95750000D03*
X105250000Y-95750000D03*
X106750000Y-95750000D03*
X108250000Y-95750000D03*
X109750000Y-95750000D03*
X111250000Y-95750000D03*
X112750000Y-95750000D03*
X114250000Y-95750000D03*
X115750000Y-95750000D03*
X117250000Y-95750000D03*
X118750000Y-95750000D03*
X120250000Y-95750000D03*
X121750000Y-95750000D03*
D18*
X123400000Y-96000000D03*
D17*
X75900000Y-46000000D03*
X75900000Y-44400000D03*
D20*
X76100000Y-42000000D03*
X77700000Y-42000000D03*
D21*
X76250000Y-22250000D03*
X77750000Y-22250000D03*
X79250000Y-22250000D03*
X80750000Y-22250000D03*
X82250000Y-22250000D03*
X83750000Y-22250000D03*
X85250000Y-22250000D03*
X86750000Y-22250000D03*
X88250000Y-22250000D03*
X89750000Y-22250000D03*
X91250000Y-22250000D03*
X92750000Y-22250000D03*
X94250000Y-22250000D03*
X95750000Y-22250000D03*
X97250000Y-22250000D03*
X98750000Y-22250000D03*
X100250000Y-22250000D03*
X101750000Y-22250000D03*
X103250000Y-22250000D03*
X104750000Y-22250000D03*
X106250000Y-22250000D03*
X107750000Y-22250000D03*
X109250000Y-22250000D03*
X110750000Y-22250000D03*
X112250000Y-22250000D03*
X113750000Y-22250000D03*
X115250000Y-22250000D03*
X116750000Y-22250000D03*
X118250000Y-22250000D03*
X119750000Y-22250000D03*
X121250000Y-22250000D03*
D22*
X69300000Y-11000000D03*
X129700000Y-11000000D03*
D21*
X122750000Y-22250000D03*
G36*
X129942121Y-5020002D02*
G01*
X129988614Y-5073658D01*
X130000000Y-5126000D01*
X130000000Y-6874000D01*
X129979998Y-6942121D01*
X129926342Y-6988614D01*
X129874000Y-7000000D01*
X69126000Y-7000000D01*
X69057879Y-6979998D01*
X69011386Y-6926342D01*
X69000000Y-6874000D01*
X69000000Y-5126000D01*
X69020002Y-5057879D01*
X69073658Y-5011386D01*
X69126000Y-5000000D01*
X129874000Y-5000000D01*
X129942121Y-5020002D01*
G37*
M02*
