G04 #@! TF.GenerationSoftware,KiCad,Pcbnew,6.0.8*
G04 #@! TF.CreationDate,2022-10-09T16:44:11-07:00*
G04 #@! TF.ProjectId,interposer,696e7465-7270-46f7-9365-722e6b696361,v4.0*
G04 #@! TF.SameCoordinates,Original*
G04 #@! TF.FileFunction,Soldermask,Top*
G04 #@! TF.FilePolarity,Negative*
%FSLAX46Y46*%
G04 Gerber Fmt 4.6, Leading zero omitted, Abs format (unit mm)*
G04 Created by KiCad (PCBNEW 6.0.8) date 2022-10-09 16:44:11*
%MOMM*%
%LPD*%
G01*
G04 APERTURE LIST*
%ADD10C,7.200000*%
%ADD11C,2.300000*%
%ADD12R,1.000000X3.150000*%
%ADD13R,1.000000X0.820000*%
%ADD14R,1.300000X6.000000*%
%ADD15R,1.000000X5.500000*%
%ADD16R,0.820000X1.000000*%
%ADD17R,1.000000X2.500000*%
%ADD18R,2.500000X4.000000*%
G04 APERTURE END LIST*
D10*
X100000000Y-84650000D03*
D11*
X100000000Y-59650000D03*
D12*
X80950000Y-50525000D03*
X80950000Y-45475000D03*
X83490000Y-50525000D03*
X83490000Y-45475000D03*
X86030000Y-50525000D03*
X86030000Y-45475000D03*
X88570000Y-50525000D03*
X88570000Y-45475000D03*
X91110000Y-50525000D03*
X91110000Y-45475000D03*
X93650000Y-50525000D03*
X93650000Y-45475000D03*
X96190000Y-50525000D03*
X96190000Y-45475000D03*
X98730000Y-50525000D03*
X98730000Y-45475000D03*
X101270000Y-50525000D03*
X101270000Y-45475000D03*
X103810000Y-50525000D03*
X103810000Y-45475000D03*
X106350000Y-50525000D03*
X106350000Y-45475000D03*
X108890000Y-50525000D03*
X108890000Y-45475000D03*
X111430000Y-50525000D03*
X111430000Y-45475000D03*
X113970000Y-50525000D03*
X113970000Y-45475000D03*
X116510000Y-50525000D03*
X116510000Y-45475000D03*
X119050000Y-50525000D03*
X119050000Y-45475000D03*
D13*
X77800000Y-46000000D03*
X77800000Y-44400000D03*
D14*
X76600000Y-96000000D03*
D15*
X78250000Y-95750000D03*
X79750000Y-95750000D03*
X81250000Y-95750000D03*
X82750000Y-95750000D03*
X84250000Y-95750000D03*
X85750000Y-95750000D03*
X87250000Y-95750000D03*
X88750000Y-95750000D03*
X90250000Y-95750000D03*
X91750000Y-95750000D03*
X93250000Y-95750000D03*
X94750000Y-95750000D03*
X96250000Y-95750000D03*
X97750000Y-95750000D03*
X99250000Y-95750000D03*
X100750000Y-95750000D03*
X102250000Y-95750000D03*
X103750000Y-95750000D03*
X105250000Y-95750000D03*
X106750000Y-95750000D03*
X108250000Y-95750000D03*
X109750000Y-95750000D03*
X111250000Y-95750000D03*
X112750000Y-95750000D03*
X114250000Y-95750000D03*
X115750000Y-95750000D03*
X117250000Y-95750000D03*
X118750000Y-95750000D03*
X120250000Y-95750000D03*
X121750000Y-95750000D03*
D14*
X123400000Y-96000000D03*
D13*
X75900000Y-46000000D03*
X75900000Y-44400000D03*
D16*
X76100000Y-42000000D03*
X77700000Y-42000000D03*
D17*
X76250000Y-22250000D03*
X77750000Y-22250000D03*
X79250000Y-22250000D03*
X80750000Y-22250000D03*
X82250000Y-22250000D03*
X83750000Y-22250000D03*
X85250000Y-22250000D03*
X86750000Y-22250000D03*
X88250000Y-22250000D03*
X89750000Y-22250000D03*
X91250000Y-22250000D03*
X92750000Y-22250000D03*
X94250000Y-22250000D03*
X95750000Y-22250000D03*
X97250000Y-22250000D03*
X98750000Y-22250000D03*
X100250000Y-22250000D03*
X101750000Y-22250000D03*
X103250000Y-22250000D03*
X104750000Y-22250000D03*
X106250000Y-22250000D03*
X107750000Y-22250000D03*
X109250000Y-22250000D03*
X110750000Y-22250000D03*
X112250000Y-22250000D03*
X113750000Y-22250000D03*
X115250000Y-22250000D03*
X116750000Y-22250000D03*
X118250000Y-22250000D03*
X119750000Y-22250000D03*
X121250000Y-22250000D03*
D18*
X69300000Y-11000000D03*
X129700000Y-11000000D03*
D17*
X122750000Y-22250000D03*
G36*
X129942121Y-5020002D02*
G01*
X129988614Y-5073658D01*
X130000000Y-5126000D01*
X130000000Y-6874000D01*
X129979998Y-6942121D01*
X129926342Y-6988614D01*
X129874000Y-7000000D01*
X69126000Y-7000000D01*
X69057879Y-6979998D01*
X69011386Y-6926342D01*
X69000000Y-6874000D01*
X69000000Y-5126000D01*
X69020002Y-5057879D01*
X69073658Y-5011386D01*
X69126000Y-5000000D01*
X129874000Y-5000000D01*
X129942121Y-5020002D01*
G37*
M02*
