G04 #@! TF.GenerationSoftware,KiCad,Pcbnew,6.0.8*
G04 #@! TF.CreationDate,2022-10-09T16:44:10-07:00*
G04 #@! TF.ProjectId,interposer,696e7465-7270-46f7-9365-722e6b696361,v4.0*
G04 #@! TF.SameCoordinates,Original*
G04 #@! TF.FileFunction,Copper,L1,Top*
G04 #@! TF.FilePolarity,Positive*
%FSLAX46Y46*%
G04 Gerber Fmt 4.6, Leading zero omitted, Abs format (unit mm)*
G04 Created by KiCad (PCBNEW 6.0.8) date 2022-10-09 16:44:10*
%MOMM*%
%LPD*%
G01*
G04 APERTURE LIST*
G04 #@! TA.AperFunction,SMDPad,CuDef*
%ADD10R,1.000000X3.150000*%
G04 #@! TD*
G04 #@! TA.AperFunction,SMDPad,CuDef*
%ADD11R,1.000000X0.820000*%
G04 #@! TD*
G04 #@! TA.AperFunction,ConnectorPad*
%ADD12R,1.300000X6.000000*%
G04 #@! TD*
G04 #@! TA.AperFunction,ConnectorPad*
%ADD13R,1.000000X5.500000*%
G04 #@! TD*
G04 #@! TA.AperFunction,SMDPad,CuDef*
%ADD14R,0.820000X1.000000*%
G04 #@! TD*
G04 #@! TA.AperFunction,SMDPad,CuDef*
%ADD15R,1.000000X2.500000*%
G04 #@! TD*
G04 #@! TA.AperFunction,SMDPad,CuDef*
%ADD16R,2.500000X4.000000*%
G04 #@! TD*
G04 #@! TA.AperFunction,ViaPad*
%ADD17C,1.000000*%
G04 #@! TD*
G04 #@! TA.AperFunction,ViaPad*
%ADD18C,0.600000*%
G04 #@! TD*
G04 #@! TA.AperFunction,Conductor*
%ADD19C,1.000000*%
G04 #@! TD*
G04 #@! TA.AperFunction,Conductor*
%ADD20C,0.400000*%
G04 #@! TD*
G04 #@! TA.AperFunction,Conductor*
%ADD21C,0.800000*%
G04 #@! TD*
G04 APERTURE END LIST*
D10*
X80950000Y-50525000D03*
X80950000Y-45475000D03*
X83490000Y-50525000D03*
X83490000Y-45475000D03*
X86030000Y-50525000D03*
X86030000Y-45475000D03*
X88570000Y-50525000D03*
X88570000Y-45475000D03*
X91110000Y-50525000D03*
X91110000Y-45475000D03*
X93650000Y-50525000D03*
X93650000Y-45475000D03*
X96190000Y-50525000D03*
X96190000Y-45475000D03*
X98730000Y-50525000D03*
X98730000Y-45475000D03*
X101270000Y-50525000D03*
X101270000Y-45475000D03*
X103810000Y-50525000D03*
X103810000Y-45475000D03*
X106350000Y-50525000D03*
X106350000Y-45475000D03*
X108890000Y-50525000D03*
X108890000Y-45475000D03*
X111430000Y-50525000D03*
X111430000Y-45475000D03*
X113970000Y-50525000D03*
X113970000Y-45475000D03*
X116510000Y-50525000D03*
X116510000Y-45475000D03*
X119050000Y-50525000D03*
X119050000Y-45475000D03*
D11*
X77800000Y-46000000D03*
X77800000Y-44400000D03*
D12*
X76600000Y-96000000D03*
D13*
X78250000Y-95750000D03*
X79750000Y-95750000D03*
X81250000Y-95750000D03*
X82750000Y-95750000D03*
X84250000Y-95750000D03*
X85750000Y-95750000D03*
X87250000Y-95750000D03*
X88750000Y-95750000D03*
X90250000Y-95750000D03*
X91750000Y-95750000D03*
X93250000Y-95750000D03*
X94750000Y-95750000D03*
X96250000Y-95750000D03*
X97750000Y-95750000D03*
X99250000Y-95750000D03*
X100750000Y-95750000D03*
X102250000Y-95750000D03*
X103750000Y-95750000D03*
X105250000Y-95750000D03*
X106750000Y-95750000D03*
X108250000Y-95750000D03*
X109750000Y-95750000D03*
X111250000Y-95750000D03*
X112750000Y-95750000D03*
X114250000Y-95750000D03*
X115750000Y-95750000D03*
X117250000Y-95750000D03*
X118750000Y-95750000D03*
X120250000Y-95750000D03*
X121750000Y-95750000D03*
D12*
X123400000Y-96000000D03*
D11*
X75900000Y-46000000D03*
X75900000Y-44400000D03*
D14*
X76100000Y-42000000D03*
X77700000Y-42000000D03*
D15*
X76250000Y-22250000D03*
X77750000Y-22250000D03*
X79250000Y-22250000D03*
X80750000Y-22250000D03*
X82250000Y-22250000D03*
X83750000Y-22250000D03*
X85250000Y-22250000D03*
X86750000Y-22250000D03*
X88250000Y-22250000D03*
X89750000Y-22250000D03*
X91250000Y-22250000D03*
X92750000Y-22250000D03*
X94250000Y-22250000D03*
X95750000Y-22250000D03*
X97250000Y-22250000D03*
X98750000Y-22250000D03*
X100250000Y-22250000D03*
X101750000Y-22250000D03*
X103250000Y-22250000D03*
X104750000Y-22250000D03*
X106250000Y-22250000D03*
X107750000Y-22250000D03*
X109250000Y-22250000D03*
X110750000Y-22250000D03*
X112250000Y-22250000D03*
X113750000Y-22250000D03*
X115250000Y-22250000D03*
X116750000Y-22250000D03*
X118250000Y-22250000D03*
X119750000Y-22250000D03*
X121250000Y-22250000D03*
D16*
X69300000Y-11000000D03*
X129700000Y-11000000D03*
D15*
X122750000Y-22250000D03*
D17*
X120300000Y-78300000D03*
X123300000Y-74500000D03*
X123000000Y-63200000D03*
X120300000Y-59000000D03*
X123300000Y-54900000D03*
X122300000Y-48800000D03*
X120300000Y-86100000D03*
X77600000Y-40300000D03*
X100000000Y-40200000D03*
X120200000Y-42900000D03*
D18*
X99230000Y-64020000D03*
D17*
X123900000Y-84000000D03*
D18*
X78486000Y-55626000D03*
X99060000Y-90170000D03*
X78486000Y-76962000D03*
D17*
X123400000Y-90200000D03*
D18*
X123400000Y-92600000D03*
X95270000Y-35300000D03*
X76200000Y-47498000D03*
X78486000Y-85344000D03*
D17*
X120700000Y-68500000D03*
D18*
X87170000Y-34190000D03*
X78486000Y-66548000D03*
X79720000Y-48020000D03*
X84300000Y-92600000D03*
X83770000Y-24740000D03*
X82700000Y-58300000D03*
X83500000Y-56000000D03*
X78300000Y-92600000D03*
X85700000Y-92600000D03*
X85130000Y-25050000D03*
X85700000Y-66690000D03*
X87250000Y-92600000D03*
X86470000Y-25560000D03*
X87400000Y-65660000D03*
X88800000Y-64370000D03*
X88240000Y-26180000D03*
X88800000Y-92600000D03*
X90200000Y-92600000D03*
X108250000Y-92600000D03*
X93700000Y-47800000D03*
X107540000Y-24850000D03*
X101600000Y-57000000D03*
X91800000Y-92600000D03*
X109080000Y-26260000D03*
X96200000Y-47800000D03*
X102006139Y-56086186D03*
X109750000Y-92600000D03*
X93300000Y-92600000D03*
X98700000Y-47800000D03*
X104100000Y-56800000D03*
X111250000Y-92600000D03*
X110720000Y-27450000D03*
X94700000Y-92600000D03*
X112750000Y-92600000D03*
X112190000Y-28990000D03*
X104400000Y-55800000D03*
X101300000Y-47800000D03*
X96200000Y-92600000D03*
X107600000Y-55240000D03*
X114250000Y-92600000D03*
X113480000Y-31030000D03*
X103860000Y-42300000D03*
X97700000Y-92600000D03*
X103890000Y-53060000D03*
X106480000Y-42160000D03*
X114860000Y-29950000D03*
X115750000Y-92600000D03*
X103500000Y-62100000D03*
X106300000Y-52800000D03*
X99300000Y-92600000D03*
X117250000Y-92600000D03*
X116810000Y-24790000D03*
X108499500Y-43210000D03*
X108900000Y-52800000D03*
X104499994Y-62700000D03*
X100800000Y-92600000D03*
X118750000Y-92600000D03*
X111069500Y-43493662D03*
X117830000Y-31030000D03*
X102300000Y-92600000D03*
X111400000Y-52800000D03*
X105500000Y-63300000D03*
X103800000Y-92600000D03*
X114000000Y-52800000D03*
X106499994Y-63900000D03*
X121750000Y-92600000D03*
X121400000Y-26230000D03*
X116002138Y-42960469D03*
X105300000Y-92600000D03*
X116500000Y-52800000D03*
X107507115Y-64507115D03*
X119000000Y-52800000D03*
X108500000Y-65100000D03*
X106800000Y-92600000D03*
X114520000Y-48000000D03*
X119730000Y-25770000D03*
X120250000Y-92600000D03*
X90600000Y-56000000D03*
X82800000Y-92600000D03*
X84499996Y-62600000D03*
X88500000Y-56000000D03*
X84600000Y-60700000D03*
X81300000Y-92600000D03*
X79800000Y-92600000D03*
X83847602Y-58952398D03*
X86200000Y-55400000D03*
D19*
X79461471Y-40181572D02*
X76250000Y-36970101D01*
X76600000Y-49442943D02*
X79461471Y-46581471D01*
D20*
X80425000Y-46000000D02*
X80950000Y-45475000D01*
D19*
X79461471Y-46581471D02*
X80567943Y-45475000D01*
D20*
X75900000Y-46000000D02*
X77800000Y-46000000D01*
X80950000Y-42094365D02*
X76250000Y-37394365D01*
X80950000Y-45475000D02*
X80950000Y-42094365D01*
D19*
X76250000Y-36970101D02*
X76250000Y-22250000D01*
X80567943Y-45475000D02*
X80950000Y-45475000D01*
X79461471Y-46581471D02*
X79461471Y-40181572D01*
D20*
X77800000Y-46000000D02*
X80425000Y-46000000D01*
D19*
X76600000Y-96000000D02*
X76600000Y-49442943D01*
D20*
X76250000Y-37394365D02*
X76250000Y-22250000D01*
D21*
X120140000Y-78140000D02*
X120300000Y-78300000D01*
X120300000Y-78300000D02*
X120300000Y-77500000D01*
D20*
X100000000Y-40030000D02*
X95270000Y-35300000D01*
D19*
X121605000Y-45475000D02*
X122300000Y-46170000D01*
D21*
X123300000Y-74500000D02*
X123300000Y-71100000D01*
X120300000Y-86100000D02*
X120300000Y-77800000D01*
D20*
X119050000Y-45230000D02*
X119050000Y-46230000D01*
D19*
X119050000Y-45475000D02*
X119050000Y-46630000D01*
D21*
X120300000Y-77500000D02*
X123300000Y-74500000D01*
X120140000Y-77640000D02*
X120140000Y-78140000D01*
X120300000Y-59000000D02*
X120300000Y-57900000D01*
D19*
X119050000Y-45475000D02*
X121605000Y-45475000D01*
D21*
X120300000Y-77800000D02*
X120140000Y-77640000D01*
X123300000Y-71100000D02*
X120700000Y-68500000D01*
X123000000Y-61700000D02*
X120300000Y-59000000D01*
D19*
X119050000Y-44050000D02*
X120200000Y-42900000D01*
D21*
X122400000Y-84000000D02*
X120300000Y-86100000D01*
X123000000Y-62520000D02*
X123000000Y-63200000D01*
X120700000Y-64700000D02*
X122940000Y-62460000D01*
X122940000Y-62460000D02*
X123000000Y-62520000D01*
X120700000Y-68500000D02*
X120700000Y-64700000D01*
D19*
X122300000Y-46170000D02*
X122300000Y-48800000D01*
X119050000Y-46630000D02*
X122220000Y-49800000D01*
D21*
X123000000Y-63200000D02*
X123000000Y-61700000D01*
X123400000Y-96000000D02*
X123400000Y-92600000D01*
D19*
X122220000Y-49800000D02*
X123300000Y-49800000D01*
D21*
X123400000Y-92600000D02*
X123400000Y-90200000D01*
X123400000Y-84500000D02*
X123400000Y-89792894D01*
D20*
X100000000Y-40200000D02*
X100000000Y-40030000D01*
D19*
X119050000Y-45475000D02*
X119050000Y-44050000D01*
D21*
X123900000Y-84000000D02*
X123400000Y-84500000D01*
X123300000Y-49800000D02*
X122300000Y-48800000D01*
X120300000Y-57900000D02*
X123300000Y-54900000D01*
X123300000Y-54900000D02*
X123300000Y-49800000D01*
X123900000Y-84000000D02*
X122400000Y-84000000D01*
D20*
X77700000Y-44300000D02*
X77800000Y-44400000D01*
X77800000Y-42100000D02*
X77700000Y-42000000D01*
X77700000Y-42000000D02*
X77700000Y-44300000D01*
X80950000Y-49250000D02*
X79720000Y-48020000D01*
X85500001Y-59332003D02*
X80950000Y-54782002D01*
X84250000Y-95750000D02*
X84250000Y-92650000D01*
X83770000Y-24740000D02*
X83770000Y-22270000D01*
X80950000Y-54782002D02*
X80950000Y-50525000D01*
X85500001Y-62931997D02*
X85500001Y-59332003D01*
X83770000Y-22270000D02*
X83750000Y-22250000D01*
X80950000Y-50525000D02*
X80950000Y-49250000D01*
X84300000Y-92600000D02*
X84300000Y-64131998D01*
X84250000Y-92650000D02*
X84300000Y-92600000D01*
X84300000Y-64131998D02*
X85500001Y-62931997D01*
X82200000Y-48740000D02*
X83490000Y-47450000D01*
X83490000Y-47450000D02*
X83490000Y-45475000D01*
X80300000Y-62328004D02*
X82700000Y-59928004D01*
X82200000Y-54700000D02*
X82200000Y-48740000D01*
X77750000Y-36348630D02*
X77750000Y-22250000D01*
X80300000Y-90600000D02*
X80300000Y-62328004D01*
X78300000Y-92600000D02*
X80300000Y-90600000D01*
X78250000Y-95750000D02*
X78250000Y-92650000D01*
X82700000Y-59928004D02*
X82700000Y-58300000D01*
X78250000Y-92650000D02*
X78300000Y-92600000D01*
X83490000Y-42088630D02*
X77750000Y-36348630D01*
X83490000Y-45475000D02*
X83490000Y-42088630D01*
X83490000Y-55990000D02*
X83500000Y-56000000D01*
X83500000Y-56000000D02*
X82200000Y-54700000D01*
X84400001Y-55732003D02*
X86500000Y-57832002D01*
X85700000Y-92600000D02*
X85700000Y-64880000D01*
X85750000Y-95750000D02*
X85750000Y-92650000D01*
X84400001Y-53410001D02*
X84400001Y-55732003D01*
X85700000Y-63863382D02*
X85700000Y-64880000D01*
X86500000Y-63063382D02*
X85700000Y-63863382D01*
X85130000Y-22370000D02*
X85250000Y-22250000D01*
X85130000Y-25050000D02*
X85130000Y-22370000D01*
X83490000Y-52500000D02*
X84400001Y-53410001D01*
X83490000Y-50525000D02*
X83490000Y-52500000D01*
X86500000Y-57832002D02*
X86500000Y-63063382D01*
X85750000Y-92650000D02*
X85700000Y-92600000D01*
X86470000Y-25560000D02*
X86470000Y-22530000D01*
X87400000Y-92450000D02*
X87400000Y-65660000D01*
X86470000Y-22530000D02*
X86750000Y-22250000D01*
X87400000Y-54147232D02*
X87400000Y-65660000D01*
X87250000Y-92600000D02*
X87400000Y-92450000D01*
X86030000Y-52777232D02*
X87400000Y-54147232D01*
X86030000Y-50525000D02*
X86030000Y-52777232D01*
X87250000Y-95750000D02*
X87250000Y-92600000D01*
X89500001Y-53430001D02*
X88570000Y-52500000D01*
X88800000Y-58200000D02*
X89500001Y-57499999D01*
X88800000Y-62420000D02*
X88800000Y-58200000D01*
X88110000Y-22390000D02*
X88250000Y-22250000D01*
X88570000Y-52500000D02*
X88570000Y-50525000D01*
X88750000Y-92650000D02*
X88800000Y-92600000D01*
X88240000Y-26180000D02*
X88240000Y-23690000D01*
X88750000Y-95750000D02*
X88750000Y-92650000D01*
X88800000Y-92600000D02*
X88800000Y-66140000D01*
X89500001Y-57499999D02*
X89500001Y-53430001D01*
X88800000Y-64370000D02*
X88800000Y-62420000D01*
X88800000Y-62420000D02*
X88800000Y-66140000D01*
X88240000Y-23690000D02*
X88110000Y-23560000D01*
X88110000Y-23560000D02*
X88110000Y-22390000D01*
X88800000Y-66140000D02*
X88800000Y-64370000D01*
X91110000Y-50525000D02*
X92360000Y-49275000D01*
X91110000Y-52500000D02*
X91700000Y-53090000D01*
X92360000Y-43800000D02*
X89750000Y-41190000D01*
X91700000Y-56900000D02*
X90200000Y-58400000D01*
X91110000Y-50525000D02*
X91110000Y-52500000D01*
X90250000Y-92650000D02*
X90200000Y-92600000D01*
X90250000Y-95750000D02*
X90250000Y-92650000D01*
X91700000Y-53090000D02*
X91700000Y-56900000D01*
X89750000Y-41190000D02*
X89750000Y-22250000D01*
X90200000Y-58400000D02*
X90200000Y-92600000D01*
X92360000Y-49275000D02*
X92360000Y-43800000D01*
X93700000Y-47800000D02*
X93700000Y-45525000D01*
X107540000Y-24850000D02*
X107540000Y-22460000D01*
X93700000Y-45525000D02*
X93650000Y-45475000D01*
X108250000Y-92600000D02*
X108250000Y-95750000D01*
X103500000Y-58900000D02*
X101600000Y-57000000D01*
X104900000Y-58900000D02*
X103500000Y-58900000D01*
X109800000Y-91050000D02*
X109800000Y-63800000D01*
X108250000Y-92600000D02*
X109800000Y-91050000D01*
X109800000Y-63800000D02*
X104900000Y-58900000D01*
X107540000Y-22460000D02*
X107750000Y-22250000D01*
X93650000Y-56950000D02*
X91200000Y-59400000D01*
X93650000Y-50525000D02*
X93650000Y-56950000D01*
X91750000Y-95750000D02*
X91750000Y-92650000D01*
X91250000Y-40010000D02*
X91250000Y-22250000D01*
X94750000Y-49425000D02*
X94750000Y-43510000D01*
X93650000Y-50525000D02*
X94750000Y-49425000D01*
X91200000Y-92000000D02*
X91800000Y-92600000D01*
X91750000Y-92650000D02*
X91800000Y-92600000D01*
X94750000Y-43510000D02*
X91250000Y-40010000D01*
X91200000Y-59400000D02*
X91200000Y-92000000D01*
X109750000Y-92600000D02*
X110700000Y-91650000D01*
X103919953Y-58000000D02*
X102006139Y-56086186D01*
X110700000Y-91650000D02*
X110700000Y-63400006D01*
X96200000Y-45485000D02*
X96190000Y-45475000D01*
X109080000Y-26260000D02*
X109250000Y-26090000D01*
X96200000Y-47800000D02*
X96200000Y-45485000D01*
X110700000Y-63400006D02*
X105299994Y-58000000D01*
X109250000Y-26090000D02*
X109250000Y-22250000D01*
X105299994Y-58000000D02*
X103919953Y-58000000D01*
X109750000Y-92600000D02*
X109750000Y-95750000D01*
X93250000Y-92650000D02*
X93300000Y-92600000D01*
X92750000Y-22250000D02*
X92750000Y-40378630D01*
X95251370Y-42880000D02*
X96870000Y-42880000D01*
X97430000Y-49285000D02*
X96190000Y-50525000D01*
X96870000Y-42880000D02*
X97430000Y-43440000D01*
X93300000Y-92600000D02*
X92200000Y-91500000D01*
X92750000Y-40378630D02*
X95251370Y-42880000D01*
X92200000Y-59900000D02*
X96190000Y-55910000D01*
X93250000Y-95750000D02*
X93250000Y-92650000D01*
X92200000Y-91500000D02*
X92200000Y-59900000D01*
X96190000Y-55910000D02*
X96190000Y-50525000D01*
X97430000Y-43440000D02*
X97430000Y-49285000D01*
X111250000Y-92600000D02*
X111549999Y-92300001D01*
X105500014Y-56800000D02*
X104100000Y-56800000D01*
X110720000Y-27450000D02*
X110750000Y-27420000D01*
X98700000Y-47800000D02*
X98700000Y-45505000D01*
X98700000Y-45505000D02*
X98730000Y-45475000D01*
X111549999Y-62849985D02*
X105500014Y-56800000D01*
X111250000Y-92600000D02*
X111250000Y-95750000D01*
X110750000Y-27420000D02*
X110750000Y-22250000D01*
X111549999Y-92300001D02*
X111549999Y-62849985D01*
X98730000Y-50525000D02*
X99830000Y-49425000D01*
X94250000Y-39130000D02*
X94250000Y-22250000D01*
X93200000Y-91100000D02*
X94700000Y-92600000D01*
X98070000Y-41540000D02*
X96660000Y-41540000D01*
X99830000Y-49425000D02*
X99830000Y-43300000D01*
X98730000Y-50525000D02*
X98730000Y-54770000D01*
X96660000Y-41540000D02*
X94250000Y-39130000D01*
X99830000Y-43300000D02*
X98070000Y-41540000D01*
X93200000Y-60300000D02*
X93200000Y-91100000D01*
X94750000Y-95750000D02*
X94750000Y-92650000D01*
X98730000Y-54770000D02*
X93200000Y-60300000D01*
X94750000Y-92650000D02*
X94700000Y-92600000D01*
X105899996Y-55800000D02*
X104400000Y-55800000D01*
X101300000Y-47800000D02*
X101300000Y-45505000D01*
X112190000Y-28990000D02*
X112250000Y-28930000D01*
X112750000Y-92600000D02*
X112750000Y-95750000D01*
X112250000Y-28930000D02*
X112250000Y-22250000D01*
X112450001Y-92300001D02*
X112450001Y-62350005D01*
X101300000Y-45505000D02*
X101270000Y-45475000D01*
X112450001Y-62350005D02*
X105899996Y-55800000D01*
X112750000Y-92600000D02*
X112450001Y-92300001D01*
X102370000Y-49425000D02*
X102370000Y-40500000D01*
X96250000Y-92650000D02*
X96200000Y-92600000D01*
X96250000Y-95750000D02*
X96250000Y-92650000D01*
X101270000Y-50525000D02*
X101270000Y-53630000D01*
X94200000Y-90600000D02*
X96200000Y-92600000D01*
X101270000Y-50525000D02*
X102370000Y-49425000D01*
X102370000Y-40500000D02*
X95730000Y-33860000D01*
X94200000Y-60700000D02*
X94200000Y-90600000D01*
X101270000Y-53630000D02*
X94200000Y-60700000D01*
X95750000Y-33840000D02*
X95750000Y-22250000D01*
X95730000Y-33860000D02*
X95750000Y-33840000D01*
X107800000Y-55900000D02*
X107600000Y-55700000D01*
X107800000Y-55900000D02*
X105100000Y-53200000D01*
X113400000Y-61500000D02*
X107800000Y-55900000D01*
X107600000Y-55700000D02*
X107600000Y-55240000D01*
X105100000Y-48740000D02*
X103810000Y-47450000D01*
X114250000Y-92600000D02*
X114250000Y-95750000D01*
X113750000Y-30760000D02*
X113750000Y-22250000D01*
X114250000Y-92600000D02*
X113400000Y-91750000D01*
X113480000Y-31030000D02*
X113750000Y-30760000D01*
X103810000Y-47450000D02*
X103810000Y-45475000D01*
X113400000Y-91750000D02*
X113400000Y-61500000D01*
X105100000Y-53200000D02*
X105100000Y-48740000D01*
X97750000Y-92650000D02*
X97700000Y-92600000D01*
X95200000Y-61110000D02*
X95200000Y-90100000D01*
X103860000Y-40570000D02*
X103860000Y-42300000D01*
X103645000Y-52815000D02*
X103495000Y-52815000D01*
X97750000Y-95750000D02*
X97750000Y-92650000D01*
X97250000Y-22250000D02*
X97250000Y-33960000D01*
X102440000Y-39150000D02*
X103860000Y-40570000D01*
X95200000Y-90100000D02*
X97700000Y-92600000D01*
X103890000Y-53060000D02*
X103645000Y-52815000D01*
X103810000Y-52500000D02*
X103495000Y-52815000D01*
X97250000Y-33960000D02*
X102440000Y-39150000D01*
X103495000Y-52815000D02*
X95200000Y-61110000D01*
X103810000Y-50525000D02*
X103810000Y-52500000D01*
X107450001Y-53150001D02*
X107450001Y-48550001D01*
X114300000Y-60000000D02*
X107450001Y-53150001D01*
X106350000Y-45475000D02*
X106350000Y-42290000D01*
X115250000Y-29560000D02*
X115250000Y-22250000D01*
X107450001Y-48550001D02*
X106350000Y-47450000D01*
X106350000Y-42290000D02*
X106480000Y-42160000D01*
X114860000Y-29950000D02*
X115250000Y-29560000D01*
X115750000Y-92600000D02*
X114300000Y-91150000D01*
X106350000Y-47450000D02*
X106350000Y-45475000D01*
X115750000Y-92600000D02*
X115750000Y-95750000D01*
X114300000Y-91150000D02*
X114300000Y-60000000D01*
X104940000Y-47340000D02*
X104940000Y-40518630D01*
X106350000Y-48750000D02*
X104940000Y-47340000D01*
X103500000Y-66500000D02*
X103500000Y-62100000D01*
X106350000Y-50525000D02*
X106350000Y-48750000D01*
X106350000Y-50525000D02*
X106350000Y-52750000D01*
X98750000Y-34328630D02*
X98750000Y-22250000D01*
X99250000Y-95750000D02*
X99250000Y-92650000D01*
X106350000Y-52750000D02*
X106300000Y-52800000D01*
X104400000Y-87500000D02*
X104400000Y-67400000D01*
X104400000Y-67400000D02*
X103500000Y-66500000D01*
X104940000Y-40518630D02*
X98750000Y-34328630D01*
X99250000Y-92650000D02*
X99300000Y-92600000D01*
X99300000Y-92600000D02*
X104400000Y-87500000D01*
X116810000Y-24790000D02*
X116810000Y-22310000D01*
X117250000Y-92600000D02*
X117250000Y-95750000D01*
X109990001Y-52990001D02*
X109990001Y-48550001D01*
X116810000Y-22310000D02*
X116750000Y-22250000D01*
X108890000Y-43600500D02*
X108499500Y-43210000D01*
X109990001Y-48550001D02*
X108890000Y-47450000D01*
X108890000Y-47450000D02*
X108890000Y-45475000D01*
X115200000Y-58200000D02*
X109990001Y-52990001D01*
X108890000Y-45475000D02*
X108890000Y-43600500D01*
X115200000Y-90550000D02*
X115200000Y-58200000D01*
X117250000Y-92600000D02*
X115200000Y-90550000D01*
X107450000Y-41810000D02*
X100180000Y-34540000D01*
X100750000Y-95750000D02*
X100750000Y-92650000D01*
X107450000Y-47141370D02*
X107450000Y-41810000D01*
X100250000Y-34470000D02*
X100250000Y-22250000D01*
X108890000Y-48581370D02*
X107450000Y-47141370D01*
X108890000Y-52790000D02*
X108900000Y-52800000D01*
X100800000Y-92600000D02*
X105300000Y-88100000D01*
X108890000Y-50525000D02*
X108890000Y-52790000D01*
X104499994Y-66299994D02*
X104499994Y-62700000D01*
X108890000Y-50525000D02*
X108890000Y-48581370D01*
X100180000Y-34540000D02*
X100250000Y-34470000D01*
X105300000Y-67100000D02*
X104499994Y-66299994D01*
X105300000Y-88100000D02*
X105300000Y-67100000D01*
X100750000Y-92650000D02*
X100800000Y-92600000D01*
X112700000Y-48720000D02*
X111430000Y-47450000D01*
X111430000Y-43854162D02*
X111069500Y-43493662D01*
X118250000Y-22250000D02*
X118250000Y-27620000D01*
X116100000Y-57100000D02*
X112700000Y-53700000D01*
X112700000Y-53700000D02*
X112700000Y-48720000D01*
X111430000Y-47450000D02*
X111430000Y-45475000D01*
X117830000Y-28040000D02*
X117830000Y-31030000D01*
X118250000Y-27620000D02*
X117830000Y-28040000D01*
X118750000Y-92600000D02*
X116100000Y-89950000D01*
X118750000Y-92600000D02*
X118750000Y-95750000D01*
X111430000Y-45475000D02*
X111430000Y-43854162D01*
X116100000Y-89950000D02*
X116100000Y-57100000D01*
X110170000Y-47598630D02*
X111430000Y-48858630D01*
X101750000Y-22250000D02*
X101750000Y-34978630D01*
X102250000Y-95750000D02*
X102250000Y-92650000D01*
X105500000Y-66100000D02*
X105500000Y-63300000D01*
X111430000Y-48858630D02*
X111430000Y-50525000D01*
X106200000Y-88700000D02*
X106200000Y-66800000D01*
X102250000Y-92650000D02*
X102300000Y-92600000D01*
X111430000Y-52770000D02*
X111400000Y-52800000D01*
X110170000Y-43398630D02*
X110170000Y-47598630D01*
X101750000Y-34978630D02*
X110170000Y-43398630D01*
X106200000Y-66800000D02*
X105500000Y-66100000D01*
X102300000Y-92600000D02*
X106200000Y-88700000D01*
X111430000Y-50525000D02*
X111430000Y-52770000D01*
X113970000Y-50525000D02*
X113970000Y-52770000D01*
X107100000Y-89300000D02*
X107100000Y-66500000D01*
X103750000Y-95750000D02*
X103750000Y-92650000D01*
X113970000Y-50525000D02*
X113970000Y-48858630D01*
X103750000Y-92650000D02*
X103800000Y-92600000D01*
X106499994Y-65899994D02*
X106499994Y-63900000D01*
X113970000Y-48858630D02*
X112530000Y-47418630D01*
X103250000Y-34360000D02*
X103250000Y-22250000D01*
X112530000Y-47418630D02*
X112530000Y-43640000D01*
X112530000Y-43640000D02*
X103250000Y-34360000D01*
X103800000Y-92600000D02*
X107100000Y-89300000D01*
X113970000Y-52770000D02*
X114000000Y-52800000D01*
X107100000Y-66500000D02*
X106499994Y-65899994D01*
X116510000Y-45475000D02*
X116510000Y-43468331D01*
X116510000Y-43468331D02*
X116002138Y-42960469D01*
X121400000Y-26230000D02*
X121250000Y-26080000D01*
X116510000Y-47450000D02*
X116510000Y-45475000D01*
X117900000Y-88750000D02*
X117900000Y-48840000D01*
X121750000Y-92600000D02*
X117900000Y-88750000D01*
X117900000Y-48840000D02*
X116510000Y-47450000D01*
X121750000Y-92600000D02*
X121750000Y-95750000D01*
X121250000Y-26080000D02*
X121250000Y-22250000D01*
X116510000Y-48780000D02*
X116510000Y-50525000D01*
X105250000Y-95750000D02*
X105250000Y-92650000D01*
X115350000Y-43580000D02*
X115350000Y-47620000D01*
X107500000Y-65700000D02*
X107507115Y-65692885D01*
X108000000Y-89900000D02*
X108000000Y-66200000D01*
X116510000Y-52790000D02*
X116500000Y-52800000D01*
X116510000Y-50525000D02*
X116510000Y-52790000D01*
X107507115Y-65692885D02*
X107507115Y-64507115D01*
X108000000Y-66200000D02*
X107500000Y-65700000D01*
X115350000Y-47620000D02*
X116510000Y-48780000D01*
X105300000Y-92600000D02*
X108000000Y-89900000D01*
X104750000Y-32980000D02*
X115350000Y-43580000D01*
X105250000Y-92650000D02*
X105300000Y-92600000D01*
X104750000Y-22250000D02*
X104750000Y-32980000D01*
X106800000Y-92600000D02*
X108900000Y-90500000D01*
X117610000Y-43280000D02*
X106250000Y-31920000D01*
X108900000Y-65500000D02*
X108500000Y-65100000D01*
X119050000Y-52750000D02*
X119000000Y-52800000D01*
X119050000Y-50525000D02*
X119050000Y-48430000D01*
X106750000Y-95750000D02*
X106750000Y-92650000D01*
X108900000Y-90500000D02*
X108900000Y-65500000D01*
X119050000Y-50525000D02*
X119050000Y-52750000D01*
X117610000Y-46990000D02*
X117610000Y-43280000D01*
X106250000Y-31920000D02*
X106250000Y-22250000D01*
X106750000Y-92650000D02*
X106800000Y-92600000D01*
X119050000Y-48430000D02*
X117610000Y-46990000D01*
X120250000Y-92600000D02*
X120250000Y-95750000D01*
X120250000Y-92600000D02*
X117000000Y-89350000D01*
X113970000Y-47450000D02*
X113970000Y-45475000D01*
X115300000Y-54100000D02*
X115300000Y-48780000D01*
X114520000Y-48000000D02*
X113970000Y-47450000D01*
X117000000Y-89350000D02*
X117000000Y-55800000D01*
X117000000Y-55800000D02*
X115300000Y-54100000D01*
X119730000Y-22270000D02*
X119750000Y-22250000D01*
X115300000Y-48780000D02*
X114520000Y-48000000D01*
X119730000Y-25770000D02*
X119730000Y-22270000D01*
X89800000Y-52598616D02*
X90600000Y-53398616D01*
X82250000Y-35540000D02*
X82250000Y-22250000D01*
X91110000Y-47450000D02*
X89800000Y-48760000D01*
X89800000Y-48760000D02*
X89800000Y-52598616D01*
X91110000Y-45475000D02*
X91110000Y-47450000D01*
X90600000Y-53398616D02*
X90600000Y-56000000D01*
X83300000Y-92100000D02*
X83300000Y-63799996D01*
X91110000Y-44400000D02*
X82250000Y-35540000D01*
X82750000Y-95750000D02*
X82750000Y-92650000D01*
X82800000Y-92600000D02*
X83300000Y-92100000D01*
X83300000Y-63799996D02*
X84499996Y-62600000D01*
X82750000Y-92650000D02*
X82800000Y-92600000D01*
X91110000Y-45475000D02*
X91110000Y-44400000D01*
X88570000Y-45475000D02*
X88570000Y-44905890D01*
X88570000Y-47450000D02*
X87200000Y-48820000D01*
X80750000Y-37085890D02*
X81812055Y-38147945D01*
X87200000Y-52815848D02*
X88500000Y-54115848D01*
X88570000Y-45475000D02*
X88570000Y-47450000D01*
X88540000Y-56000000D02*
X88500000Y-56000000D01*
X81300000Y-92600000D02*
X82300000Y-91600000D01*
X82300000Y-91600000D02*
X82300000Y-63000000D01*
X88500000Y-54115848D02*
X88500000Y-56000000D01*
X82300000Y-63000000D02*
X84600000Y-60700000D01*
X80750000Y-22250000D02*
X80750000Y-37085890D01*
X88500000Y-55900000D02*
X88500000Y-56000000D01*
X88570000Y-44905890D02*
X81812055Y-38147945D01*
X81250000Y-92650000D02*
X81300000Y-92600000D01*
X87200000Y-48820000D02*
X87200000Y-52815848D01*
X88570000Y-55970000D02*
X88540000Y-56000000D01*
X81250000Y-95750000D02*
X81250000Y-92650000D01*
X79250000Y-22250000D02*
X79250000Y-36717260D01*
X79750000Y-92650000D02*
X79800000Y-92600000D01*
X81100010Y-91299990D02*
X81100010Y-62659378D01*
X79750000Y-95750000D02*
X79750000Y-92650000D01*
X79250000Y-36717260D02*
X86030000Y-43497260D01*
X84700000Y-48780000D02*
X86030000Y-47450000D01*
X81100010Y-62659378D02*
X83847602Y-59911786D01*
X84700000Y-52578616D02*
X84700000Y-48780000D01*
X83847602Y-59911786D02*
X83847602Y-58952398D01*
X86200000Y-55400000D02*
X86200000Y-54078616D01*
X86200000Y-54078616D02*
X84700000Y-52578616D01*
X86030000Y-47450000D02*
X86030000Y-45475000D01*
X79800000Y-92600000D02*
X81100010Y-91299990D01*
X86030000Y-43497260D02*
X86030000Y-45475000D01*
G04 #@! TA.AperFunction,Conductor*
G36*
X108476552Y-25066739D02*
G01*
X108526450Y-25117243D01*
X108541500Y-25176960D01*
X108541500Y-25602705D01*
X108521498Y-25670826D01*
X108503657Y-25692729D01*
X108455627Y-25739764D01*
X108449493Y-25745771D01*
X108351235Y-25898238D01*
X108348826Y-25904858D01*
X108348824Y-25904861D01*
X108291606Y-26062066D01*
X108289197Y-26068685D01*
X108266463Y-26248640D01*
X108284163Y-26429160D01*
X108341418Y-26601273D01*
X108345065Y-26607295D01*
X108345066Y-26607297D01*
X108417212Y-26726424D01*
X108435380Y-26756424D01*
X108561382Y-26886902D01*
X108586305Y-26903211D01*
X108700040Y-26977637D01*
X108713159Y-26986222D01*
X108719763Y-26988678D01*
X108719765Y-26988679D01*
X108876558Y-27046990D01*
X108876560Y-27046990D01*
X108883168Y-27049448D01*
X108966995Y-27060633D01*
X109055980Y-27072507D01*
X109055984Y-27072507D01*
X109062961Y-27073438D01*
X109069972Y-27072800D01*
X109069976Y-27072800D01*
X109212459Y-27059832D01*
X109243600Y-27056998D01*
X109250302Y-27054820D01*
X109250304Y-27054820D01*
X109409409Y-27003124D01*
X109409412Y-27003123D01*
X109416108Y-27000947D01*
X109571912Y-26908069D01*
X109703266Y-26782982D01*
X109803643Y-26631902D01*
X109804612Y-26629352D01*
X109852363Y-26579146D01*
X109921337Y-26562321D01*
X109988458Y-26585458D01*
X110032415Y-26641210D01*
X110041500Y-26688186D01*
X110041500Y-26973159D01*
X110021411Y-27041414D01*
X109991235Y-27088238D01*
X109988826Y-27094858D01*
X109988824Y-27094861D01*
X109931606Y-27252066D01*
X109929197Y-27258685D01*
X109906463Y-27438640D01*
X109924163Y-27619160D01*
X109981418Y-27791273D01*
X109985065Y-27797295D01*
X109985066Y-27797297D01*
X110064903Y-27929124D01*
X110075380Y-27946424D01*
X110080269Y-27951487D01*
X110080270Y-27951488D01*
X110101027Y-27972982D01*
X110201382Y-28076902D01*
X110233729Y-28098069D01*
X110295369Y-28138405D01*
X110353159Y-28176222D01*
X110359763Y-28178678D01*
X110359765Y-28178679D01*
X110516558Y-28236990D01*
X110516560Y-28236990D01*
X110523168Y-28239448D01*
X110606995Y-28250633D01*
X110695980Y-28262507D01*
X110695984Y-28262507D01*
X110702961Y-28263438D01*
X110709972Y-28262800D01*
X110709976Y-28262800D01*
X110852459Y-28249832D01*
X110883600Y-28246998D01*
X110890302Y-28244820D01*
X110890304Y-28244820D01*
X111049409Y-28193124D01*
X111049412Y-28193123D01*
X111056108Y-28190947D01*
X111211912Y-28098069D01*
X111328607Y-27986941D01*
X111391733Y-27954449D01*
X111462404Y-27961242D01*
X111518183Y-28005165D01*
X111541500Y-28078187D01*
X111541500Y-28466608D01*
X111521411Y-28534863D01*
X111461235Y-28628238D01*
X111399197Y-28798685D01*
X111376463Y-28978640D01*
X111394163Y-29159160D01*
X111451418Y-29331273D01*
X111545380Y-29486424D01*
X111550269Y-29491487D01*
X111550270Y-29491488D01*
X111599648Y-29542620D01*
X111671382Y-29616902D01*
X111823159Y-29716222D01*
X111829763Y-29718678D01*
X111829765Y-29718679D01*
X111986558Y-29776990D01*
X111986560Y-29776990D01*
X111993168Y-29779448D01*
X112076995Y-29790633D01*
X112165980Y-29802507D01*
X112165984Y-29802507D01*
X112172961Y-29803438D01*
X112179972Y-29802800D01*
X112179976Y-29802800D01*
X112322459Y-29789832D01*
X112353600Y-29786998D01*
X112360302Y-29784820D01*
X112360304Y-29784820D01*
X112519409Y-29733124D01*
X112519412Y-29733123D01*
X112526108Y-29730947D01*
X112681912Y-29638069D01*
X112785950Y-29538995D01*
X112808165Y-29517840D01*
X112808167Y-29517838D01*
X112813266Y-29512982D01*
X112817164Y-29507115D01*
X112818978Y-29504953D01*
X112878088Y-29465626D01*
X112949075Y-29464500D01*
X113009403Y-29501931D01*
X113039917Y-29566035D01*
X113041500Y-29585944D01*
X113041500Y-30280047D01*
X113021498Y-30348168D01*
X112989574Y-30379466D01*
X112990641Y-30380832D01*
X112985087Y-30385171D01*
X112979088Y-30388862D01*
X112849493Y-30515771D01*
X112751235Y-30668238D01*
X112748826Y-30674858D01*
X112748824Y-30674861D01*
X112691606Y-30832066D01*
X112689197Y-30838685D01*
X112666463Y-31018640D01*
X112684163Y-31199160D01*
X112741418Y-31371273D01*
X112745065Y-31377295D01*
X112745066Y-31377297D01*
X112755978Y-31395314D01*
X112835380Y-31526424D01*
X112961382Y-31656902D01*
X113113159Y-31756222D01*
X113119763Y-31758678D01*
X113119765Y-31758679D01*
X113276558Y-31816990D01*
X113276560Y-31816990D01*
X113283168Y-31819448D01*
X113366995Y-31830633D01*
X113455980Y-31842507D01*
X113455984Y-31842507D01*
X113462961Y-31843438D01*
X113469972Y-31842800D01*
X113469976Y-31842800D01*
X113612459Y-31829832D01*
X113643600Y-31826998D01*
X113650302Y-31824820D01*
X113650304Y-31824820D01*
X113809409Y-31773124D01*
X113809412Y-31773123D01*
X113816108Y-31770947D01*
X113971912Y-31678069D01*
X114103266Y-31552982D01*
X114203643Y-31401902D01*
X114248148Y-31284744D01*
X114272297Y-31245181D01*
X114274665Y-31242551D01*
X114280385Y-31237561D01*
X114317114Y-31185300D01*
X114321046Y-31180005D01*
X114355791Y-31135694D01*
X114360477Y-31129718D01*
X114363602Y-31122796D01*
X114364964Y-31120548D01*
X114373368Y-31105815D01*
X114374622Y-31103476D01*
X114378990Y-31097261D01*
X114381749Y-31090185D01*
X114381751Y-31090181D01*
X114402200Y-31037731D01*
X114404749Y-31031666D01*
X114431045Y-30973427D01*
X114432429Y-30965962D01*
X114433226Y-30963418D01*
X114437859Y-30947152D01*
X114438521Y-30944572D01*
X114441282Y-30937491D01*
X114449622Y-30874143D01*
X114450653Y-30867630D01*
X114459266Y-30821160D01*
X114491348Y-30757825D01*
X114552578Y-30721889D01*
X114627074Y-30726025D01*
X114663168Y-30739448D01*
X114746995Y-30750633D01*
X114835980Y-30762507D01*
X114835984Y-30762507D01*
X114842961Y-30763438D01*
X114849972Y-30762800D01*
X114849976Y-30762800D01*
X114992459Y-30749832D01*
X115023600Y-30746998D01*
X115030302Y-30744820D01*
X115030304Y-30744820D01*
X115189409Y-30693124D01*
X115189412Y-30693123D01*
X115196108Y-30690947D01*
X115292513Y-30633478D01*
X115345860Y-30601677D01*
X115345862Y-30601676D01*
X115351912Y-30598069D01*
X115483266Y-30472982D01*
X115583643Y-30321902D01*
X115631371Y-30196259D01*
X115660063Y-30151908D01*
X115730533Y-30081437D01*
X115736800Y-30075582D01*
X115774660Y-30042555D01*
X115780385Y-30037561D01*
X115817136Y-29985271D01*
X115821028Y-29980029D01*
X115860476Y-29929718D01*
X115863600Y-29922799D01*
X115864988Y-29920507D01*
X115873357Y-29905835D01*
X115874622Y-29903475D01*
X115878990Y-29897261D01*
X115902203Y-29837723D01*
X115904759Y-29831642D01*
X115917915Y-29802507D01*
X115931045Y-29773427D01*
X115932430Y-29765954D01*
X115933234Y-29763388D01*
X115937855Y-29747165D01*
X115938520Y-29744573D01*
X115941282Y-29737491D01*
X115949622Y-29674139D01*
X115950654Y-29667623D01*
X115960911Y-29612281D01*
X115962295Y-29604814D01*
X115958709Y-29542620D01*
X115958500Y-29535367D01*
X115958500Y-25384055D01*
X115978502Y-25315934D01*
X116032158Y-25269441D01*
X116102432Y-25259337D01*
X116167012Y-25288831D01*
X116175136Y-25296528D01*
X116286483Y-25411830D01*
X116286488Y-25411834D01*
X116291382Y-25416902D01*
X116443159Y-25516222D01*
X116449763Y-25518678D01*
X116449765Y-25518679D01*
X116606558Y-25576990D01*
X116606560Y-25576990D01*
X116613168Y-25579448D01*
X116690339Y-25589745D01*
X116785980Y-25602507D01*
X116785984Y-25602507D01*
X116792961Y-25603438D01*
X116799972Y-25602800D01*
X116799976Y-25602800D01*
X116943417Y-25589745D01*
X116973600Y-25586998D01*
X116980302Y-25584820D01*
X116980304Y-25584820D01*
X117139409Y-25533124D01*
X117139412Y-25533123D01*
X117146108Y-25530947D01*
X117301912Y-25438069D01*
X117322516Y-25418448D01*
X117328608Y-25412647D01*
X117391733Y-25380155D01*
X117462404Y-25386949D01*
X117518183Y-25430872D01*
X117541500Y-25503893D01*
X117541500Y-27274340D01*
X117521498Y-27342461D01*
X117504595Y-27363435D01*
X117349480Y-27518550D01*
X117343215Y-27524404D01*
X117299615Y-27562439D01*
X117273936Y-27598977D01*
X117262872Y-27614719D01*
X117258939Y-27620014D01*
X117219524Y-27670282D01*
X117216401Y-27677198D01*
X117215017Y-27679484D01*
X117206643Y-27694165D01*
X117205378Y-27696525D01*
X117201010Y-27702739D01*
X117198250Y-27709818D01*
X117198249Y-27709820D01*
X117177798Y-27762275D01*
X117175247Y-27768344D01*
X117148955Y-27826573D01*
X117147571Y-27834040D01*
X117146770Y-27836595D01*
X117142141Y-27852848D01*
X117141478Y-27855428D01*
X117138718Y-27862509D01*
X117137727Y-27870040D01*
X117137726Y-27870042D01*
X117130379Y-27925852D01*
X117129348Y-27932359D01*
X117117704Y-27995186D01*
X117118141Y-28002766D01*
X117118141Y-28002767D01*
X117121291Y-28057392D01*
X117121500Y-28064646D01*
X117121500Y-30599710D01*
X117105341Y-30654598D01*
X117108183Y-30656009D01*
X117105054Y-30662312D01*
X117101235Y-30668238D01*
X117098826Y-30674858D01*
X117098824Y-30674861D01*
X117041606Y-30832066D01*
X117039197Y-30838685D01*
X117016463Y-31018640D01*
X117034163Y-31199160D01*
X117091418Y-31371273D01*
X117095065Y-31377295D01*
X117095066Y-31377297D01*
X117105978Y-31395314D01*
X117185380Y-31526424D01*
X117311382Y-31656902D01*
X117463159Y-31756222D01*
X117469763Y-31758678D01*
X117469765Y-31758679D01*
X117626558Y-31816990D01*
X117626560Y-31816990D01*
X117633168Y-31819448D01*
X117716995Y-31830633D01*
X117805980Y-31842507D01*
X117805984Y-31842507D01*
X117812961Y-31843438D01*
X117819972Y-31842800D01*
X117819976Y-31842800D01*
X117962459Y-31829832D01*
X117993600Y-31826998D01*
X118000302Y-31824820D01*
X118000304Y-31824820D01*
X118159409Y-31773124D01*
X118159412Y-31773123D01*
X118166108Y-31770947D01*
X118321912Y-31678069D01*
X118453266Y-31552982D01*
X118553643Y-31401902D01*
X118608977Y-31256237D01*
X118615555Y-31238920D01*
X118615556Y-31238918D01*
X118618055Y-31232338D01*
X118619035Y-31225366D01*
X118642748Y-31056639D01*
X118642748Y-31056636D01*
X118643299Y-31052717D01*
X118643616Y-31030000D01*
X118623397Y-30849745D01*
X118621080Y-30843091D01*
X118566064Y-30685106D01*
X118566062Y-30685103D01*
X118563745Y-30678448D01*
X118557644Y-30668684D01*
X118538500Y-30601918D01*
X118538500Y-28385660D01*
X118558502Y-28317539D01*
X118575405Y-28296565D01*
X118730520Y-28141450D01*
X118736785Y-28135596D01*
X118774660Y-28102555D01*
X118780385Y-28097561D01*
X118817114Y-28045300D01*
X118821046Y-28040005D01*
X118855791Y-27995694D01*
X118860477Y-27989718D01*
X118863602Y-27982796D01*
X118864964Y-27980548D01*
X118873368Y-27965815D01*
X118874622Y-27963476D01*
X118878990Y-27957261D01*
X118881749Y-27950185D01*
X118881751Y-27950181D01*
X118902200Y-27897731D01*
X118904749Y-27891666D01*
X118931045Y-27833427D01*
X118932429Y-27825962D01*
X118933226Y-27823418D01*
X118937859Y-27807152D01*
X118938521Y-27804572D01*
X118941282Y-27797491D01*
X118942981Y-27784590D01*
X118949621Y-27734147D01*
X118950653Y-27727629D01*
X118955267Y-27702739D01*
X118962296Y-27664813D01*
X118958709Y-27602602D01*
X118958500Y-27595349D01*
X118958500Y-26446896D01*
X118978502Y-26378775D01*
X119032158Y-26332282D01*
X119102432Y-26322178D01*
X119167012Y-26351672D01*
X119175132Y-26359364D01*
X119211382Y-26396902D01*
X119363159Y-26496222D01*
X119369763Y-26498678D01*
X119369765Y-26498679D01*
X119526558Y-26556990D01*
X119526560Y-26556990D01*
X119533168Y-26559448D01*
X119616995Y-26570633D01*
X119705980Y-26582507D01*
X119705984Y-26582507D01*
X119712961Y-26583438D01*
X119719972Y-26582800D01*
X119719976Y-26582800D01*
X119862459Y-26569832D01*
X119893600Y-26566998D01*
X119900302Y-26564820D01*
X119900304Y-26564820D01*
X120059409Y-26513124D01*
X120059412Y-26513123D01*
X120066108Y-26510947D01*
X120173554Y-26446896D01*
X120215860Y-26421677D01*
X120215862Y-26421676D01*
X120221912Y-26418069D01*
X120353266Y-26292982D01*
X120357167Y-26287110D01*
X120361691Y-26281719D01*
X120363115Y-26282914D01*
X120410316Y-26243249D01*
X120480735Y-26234212D01*
X120544861Y-26264680D01*
X120576287Y-26307994D01*
X120592452Y-26344819D01*
X120595006Y-26351092D01*
X120595122Y-26351400D01*
X120595182Y-26351559D01*
X120602635Y-26383588D01*
X120603474Y-26392143D01*
X120603476Y-26392151D01*
X120604163Y-26399160D01*
X120661418Y-26571273D01*
X120665065Y-26577295D01*
X120665066Y-26577297D01*
X120721452Y-26670401D01*
X120755380Y-26726424D01*
X120881382Y-26856902D01*
X121033159Y-26956222D01*
X121039763Y-26958678D01*
X121039765Y-26958679D01*
X121196558Y-27016990D01*
X121196560Y-27016990D01*
X121203168Y-27019448D01*
X121272181Y-27028657D01*
X121335690Y-27037131D01*
X121400567Y-27065967D01*
X121439555Y-27125301D01*
X121444996Y-27164721D01*
X121361597Y-31056639D01*
X121192442Y-38950528D01*
X121192167Y-38956098D01*
X121191500Y-38960386D01*
X121191500Y-38993185D01*
X121191471Y-38995884D01*
X121190834Y-39025611D01*
X121191355Y-39029904D01*
X121191500Y-39035714D01*
X121191500Y-41591377D01*
X121191498Y-41592147D01*
X121191024Y-41669721D01*
X121193491Y-41678352D01*
X121199150Y-41698153D01*
X121202728Y-41714915D01*
X121206920Y-41744187D01*
X121210634Y-41752355D01*
X121210634Y-41752356D01*
X121217548Y-41767562D01*
X121223996Y-41785086D01*
X121231051Y-41809771D01*
X121235843Y-41817365D01*
X121235844Y-41817368D01*
X121246830Y-41834780D01*
X121254969Y-41849863D01*
X121267208Y-41876782D01*
X121273069Y-41883584D01*
X121283970Y-41896235D01*
X121295073Y-41911239D01*
X121308776Y-41932958D01*
X121315501Y-41938897D01*
X121315504Y-41938901D01*
X121330938Y-41952532D01*
X121342982Y-41964724D01*
X121356427Y-41980327D01*
X121356430Y-41980329D01*
X121362287Y-41987127D01*
X121369816Y-41992007D01*
X121369817Y-41992008D01*
X121383835Y-42001094D01*
X121398709Y-42012385D01*
X121411217Y-42023431D01*
X121417951Y-42029378D01*
X121444711Y-42041942D01*
X121459691Y-42050263D01*
X121476983Y-42061471D01*
X121476988Y-42061473D01*
X121484515Y-42066352D01*
X121493108Y-42068922D01*
X121493113Y-42068924D01*
X121509120Y-42073711D01*
X121526564Y-42080372D01*
X121541676Y-42087467D01*
X121541678Y-42087468D01*
X121549800Y-42091281D01*
X121558667Y-42092662D01*
X121558668Y-42092662D01*
X121568310Y-42094163D01*
X121579017Y-42095830D01*
X121595732Y-42099613D01*
X121615466Y-42105515D01*
X121615472Y-42105516D01*
X121624066Y-42108086D01*
X121633037Y-42108141D01*
X121633038Y-42108141D01*
X121643097Y-42108202D01*
X121658506Y-42108296D01*
X121659289Y-42108329D01*
X121660386Y-42108500D01*
X121691377Y-42108500D01*
X121692147Y-42108502D01*
X121765785Y-42108952D01*
X121765786Y-42108952D01*
X121769721Y-42108976D01*
X121771065Y-42108592D01*
X121772410Y-42108500D01*
X125065500Y-42108500D01*
X125133621Y-42128502D01*
X125180114Y-42182158D01*
X125191500Y-42234500D01*
X125191500Y-90765500D01*
X125171498Y-90833621D01*
X125117842Y-90880114D01*
X125065500Y-90891500D01*
X124608623Y-90891500D01*
X124607853Y-90891498D01*
X124607037Y-90891493D01*
X124530279Y-90891024D01*
X124507918Y-90897415D01*
X124501847Y-90899150D01*
X124485085Y-90902728D01*
X124455813Y-90906920D01*
X124447645Y-90910634D01*
X124447644Y-90910634D01*
X124432438Y-90917548D01*
X124414914Y-90923996D01*
X124390229Y-90931051D01*
X124382635Y-90935843D01*
X124382632Y-90935844D01*
X124365220Y-90946830D01*
X124350137Y-90954969D01*
X124323218Y-90967208D01*
X124316416Y-90973069D01*
X124303765Y-90983970D01*
X124288761Y-90995073D01*
X124267042Y-91008776D01*
X124261103Y-91015501D01*
X124261099Y-91015504D01*
X124247468Y-91030938D01*
X124235276Y-91042982D01*
X124219673Y-91056427D01*
X124219671Y-91056430D01*
X124212873Y-91062287D01*
X124207993Y-91069816D01*
X124207992Y-91069817D01*
X124198906Y-91083835D01*
X124187615Y-91098709D01*
X124176569Y-91111217D01*
X124170622Y-91117951D01*
X124158058Y-91144711D01*
X124149737Y-91159691D01*
X124138529Y-91176983D01*
X124138527Y-91176988D01*
X124133648Y-91184515D01*
X124131078Y-91193108D01*
X124131076Y-91193113D01*
X124126289Y-91209120D01*
X124119628Y-91226564D01*
X124108719Y-91249800D01*
X124107338Y-91258667D01*
X124107338Y-91258668D01*
X124104170Y-91279015D01*
X124100387Y-91295732D01*
X124094485Y-91315466D01*
X124094484Y-91315472D01*
X124091914Y-91324066D01*
X124091859Y-91333037D01*
X124091859Y-91333038D01*
X124091704Y-91358497D01*
X124091671Y-91359289D01*
X124091500Y-91360386D01*
X124091500Y-91391377D01*
X124091498Y-91392147D01*
X124091024Y-91469721D01*
X124091408Y-91471065D01*
X124091500Y-91472410D01*
X124091500Y-92366000D01*
X124071498Y-92434121D01*
X124017842Y-92480614D01*
X123965500Y-92492000D01*
X123672115Y-92492000D01*
X123656876Y-92496475D01*
X123655671Y-92497865D01*
X123654000Y-92505548D01*
X123654000Y-96128000D01*
X123633998Y-96196121D01*
X123580342Y-96242614D01*
X123528000Y-96254000D01*
X123272000Y-96254000D01*
X123203879Y-96233998D01*
X123157386Y-96180342D01*
X123146000Y-96128000D01*
X123146000Y-92510116D01*
X123141525Y-92494877D01*
X123140135Y-92493672D01*
X123132452Y-92492001D01*
X122705331Y-92492001D01*
X122698507Y-92492371D01*
X122673054Y-92495135D01*
X122603172Y-92482605D01*
X122551158Y-92434283D01*
X122540459Y-92411309D01*
X122486064Y-92255106D01*
X122486062Y-92255103D01*
X122483745Y-92248448D01*
X122480009Y-92242469D01*
X122391359Y-92100598D01*
X122391357Y-92100595D01*
X122387626Y-92094624D01*
X122373941Y-92080843D01*
X122264778Y-91970915D01*
X122264774Y-91970912D01*
X122259815Y-91965918D01*
X122248697Y-91958862D01*
X122153565Y-91898490D01*
X122106666Y-91868727D01*
X122050106Y-91848587D01*
X121999907Y-91830712D01*
X121953078Y-91801108D01*
X118645405Y-88493435D01*
X118611379Y-88431123D01*
X118608500Y-88404340D01*
X118608500Y-53698341D01*
X118628502Y-53630220D01*
X118682158Y-53583727D01*
X118752432Y-53573623D01*
X118778416Y-53580243D01*
X118803168Y-53589448D01*
X118886995Y-53600633D01*
X118975980Y-53612507D01*
X118975984Y-53612507D01*
X118982961Y-53613438D01*
X118989972Y-53612800D01*
X118989976Y-53612800D01*
X119132459Y-53599832D01*
X119163600Y-53596998D01*
X119170302Y-53594820D01*
X119170304Y-53594820D01*
X119329409Y-53543124D01*
X119329412Y-53543123D01*
X119336108Y-53540947D01*
X119491912Y-53448069D01*
X119623266Y-53322982D01*
X119723643Y-53171902D01*
X119768944Y-53052648D01*
X119785555Y-53008920D01*
X119785556Y-53008918D01*
X119788055Y-53002338D01*
X119790748Y-52983175D01*
X119812748Y-52826639D01*
X119812748Y-52826636D01*
X119813299Y-52822717D01*
X119813616Y-52800000D01*
X119794536Y-52629900D01*
X119806820Y-52559975D01*
X119844186Y-52515030D01*
X119906080Y-52468643D01*
X119906081Y-52468642D01*
X119913261Y-52463261D01*
X120000615Y-52346705D01*
X120051745Y-52210316D01*
X120058500Y-52148134D01*
X120058500Y-48901866D01*
X120051745Y-48839684D01*
X120000615Y-48703295D01*
X119913261Y-48586739D01*
X119812256Y-48511040D01*
X119769741Y-48454181D01*
X119763005Y-48407789D01*
X119762607Y-48407810D01*
X119762381Y-48403492D01*
X119762113Y-48401648D01*
X119762210Y-48400228D01*
X119762210Y-48400222D01*
X119762726Y-48392648D01*
X119751736Y-48329681D01*
X119750775Y-48323165D01*
X119749019Y-48308653D01*
X119743102Y-48259758D01*
X119740419Y-48252657D01*
X119739778Y-48250048D01*
X119735313Y-48233728D01*
X119734548Y-48231195D01*
X119733243Y-48223717D01*
X119707552Y-48165190D01*
X119705067Y-48159102D01*
X119685172Y-48106449D01*
X119685171Y-48106447D01*
X119682487Y-48099344D01*
X119678186Y-48093085D01*
X119676949Y-48090720D01*
X119668727Y-48075948D01*
X119667372Y-48073656D01*
X119664316Y-48066695D01*
X119659691Y-48060668D01*
X119659689Y-48060664D01*
X119625407Y-48015987D01*
X119621529Y-48010650D01*
X119589659Y-47964278D01*
X119589658Y-47964277D01*
X119585357Y-47958019D01*
X119556774Y-47932552D01*
X119538839Y-47916573D01*
X119533563Y-47911592D01*
X119395065Y-47773094D01*
X119361039Y-47710782D01*
X119366104Y-47639967D01*
X119408651Y-47583131D01*
X119475171Y-47558320D01*
X119484160Y-47557999D01*
X119594669Y-47557999D01*
X119601490Y-47557629D01*
X119652352Y-47552105D01*
X119667604Y-47548479D01*
X119788054Y-47503324D01*
X119803649Y-47494786D01*
X119905724Y-47418285D01*
X119918285Y-47405724D01*
X119994786Y-47303649D01*
X120003324Y-47288054D01*
X120048478Y-47167606D01*
X120052105Y-47152351D01*
X120057631Y-47101486D01*
X120058000Y-47094672D01*
X120058000Y-45747115D01*
X120053525Y-45731876D01*
X120052135Y-45730671D01*
X120044452Y-45729000D01*
X118922000Y-45729000D01*
X118853879Y-45708998D01*
X118807386Y-45655342D01*
X118796000Y-45603000D01*
X118796000Y-45202885D01*
X119304000Y-45202885D01*
X119308475Y-45218124D01*
X119309865Y-45219329D01*
X119317548Y-45221000D01*
X120039884Y-45221000D01*
X120055123Y-45216525D01*
X120056328Y-45215135D01*
X120057999Y-45207452D01*
X120057999Y-43855331D01*
X120057629Y-43848510D01*
X120052105Y-43797648D01*
X120048479Y-43782396D01*
X120003324Y-43661946D01*
X119994786Y-43646351D01*
X119918285Y-43544276D01*
X119905724Y-43531715D01*
X119803649Y-43455214D01*
X119788054Y-43446676D01*
X119667606Y-43401522D01*
X119652351Y-43397895D01*
X119601486Y-43392369D01*
X119594672Y-43392000D01*
X119322115Y-43392000D01*
X119306876Y-43396475D01*
X119305671Y-43397865D01*
X119304000Y-43405548D01*
X119304000Y-45202885D01*
X118796000Y-45202885D01*
X118796000Y-43410116D01*
X118791525Y-43394877D01*
X118790135Y-43393672D01*
X118782452Y-43392001D01*
X118505331Y-43392001D01*
X118498512Y-43392370D01*
X118460676Y-43396480D01*
X118390793Y-43383951D01*
X118338778Y-43335629D01*
X118321362Y-43262650D01*
X118322209Y-43250227D01*
X118322209Y-43250221D01*
X118322725Y-43242648D01*
X118311738Y-43179697D01*
X118310776Y-43173175D01*
X118309541Y-43162966D01*
X118303102Y-43109758D01*
X118300419Y-43102657D01*
X118299778Y-43100048D01*
X118295315Y-43083738D01*
X118294550Y-43081202D01*
X118293243Y-43073716D01*
X118267556Y-43015200D01*
X118265065Y-43009096D01*
X118264651Y-43007999D01*
X118247634Y-42962966D01*
X118245173Y-42956452D01*
X118245172Y-42956451D01*
X118242487Y-42949344D01*
X118238183Y-42943081D01*
X118236946Y-42940715D01*
X118228701Y-42925903D01*
X118227368Y-42923649D01*
X118224315Y-42916695D01*
X118185413Y-42865998D01*
X118181541Y-42860668D01*
X118149661Y-42814280D01*
X118149656Y-42814275D01*
X118145357Y-42808019D01*
X118098829Y-42766564D01*
X118093554Y-42761584D01*
X106995405Y-31663435D01*
X106961379Y-31601123D01*
X106958500Y-31574340D01*
X106958500Y-25668785D01*
X106978502Y-25600664D01*
X107032158Y-25554171D01*
X107102432Y-25544067D01*
X107153493Y-25563353D01*
X107173159Y-25576222D01*
X107179763Y-25578678D01*
X107179765Y-25578679D01*
X107336558Y-25636990D01*
X107336560Y-25636990D01*
X107343168Y-25639448D01*
X107426995Y-25650633D01*
X107515980Y-25662507D01*
X107515984Y-25662507D01*
X107522961Y-25663438D01*
X107529972Y-25662800D01*
X107529976Y-25662800D01*
X107672459Y-25649832D01*
X107703600Y-25646998D01*
X107710302Y-25644820D01*
X107710304Y-25644820D01*
X107869409Y-25593124D01*
X107869412Y-25593123D01*
X107876108Y-25590947D01*
X107985643Y-25525651D01*
X108025860Y-25501677D01*
X108025862Y-25501676D01*
X108031912Y-25498069D01*
X108163266Y-25372982D01*
X108263643Y-25221902D01*
X108297712Y-25132216D01*
X108340601Y-25075638D01*
X108407270Y-25051229D01*
X108476552Y-25066739D01*
G37*
G04 #@! TD.AperFunction*
G04 #@! TA.AperFunction,Conductor*
G36*
X96117012Y-86043583D02*
G01*
X96153491Y-86097370D01*
X96186071Y-86190927D01*
X96354641Y-86555747D01*
X96558008Y-86902377D01*
X96794228Y-87227507D01*
X96796261Y-87229797D01*
X96796266Y-87229803D01*
X96833744Y-87272015D01*
X97061049Y-87528034D01*
X97355922Y-87801089D01*
X97676034Y-88044067D01*
X97678652Y-88045678D01*
X97678657Y-88045681D01*
X97847181Y-88149357D01*
X98018328Y-88254648D01*
X98379538Y-88430822D01*
X98382419Y-88431893D01*
X98382425Y-88431896D01*
X98547899Y-88493435D01*
X98756215Y-88570907D01*
X99144765Y-88673566D01*
X99541478Y-88737820D01*
X99544551Y-88738013D01*
X99544557Y-88738014D01*
X99688274Y-88747056D01*
X99870182Y-88758500D01*
X100101312Y-88758500D01*
X100102838Y-88758425D01*
X100102853Y-88758425D01*
X100266656Y-88750413D01*
X100401403Y-88743823D01*
X100798974Y-88685115D01*
X100801970Y-88684368D01*
X100801975Y-88684367D01*
X100926797Y-88653245D01*
X101188919Y-88587891D01*
X101191827Y-88586856D01*
X101191832Y-88586854D01*
X101557824Y-88456530D01*
X101567516Y-88453079D01*
X101931150Y-88281965D01*
X101933791Y-88280391D01*
X101933796Y-88280388D01*
X102108866Y-88176025D01*
X102276351Y-88076184D01*
X102599824Y-87837699D01*
X102602107Y-87835643D01*
X102602116Y-87835636D01*
X102896184Y-87570856D01*
X102896192Y-87570848D01*
X102898481Y-87568787D01*
X103169472Y-87272015D01*
X103410209Y-86950215D01*
X103457725Y-86871758D01*
X103510121Y-86823851D01*
X103580101Y-86811878D01*
X103645445Y-86839639D01*
X103685407Y-86898321D01*
X103691500Y-86937029D01*
X103691500Y-87154340D01*
X103671498Y-87222461D01*
X103654595Y-87243435D01*
X99096563Y-91801467D01*
X99048074Y-91831650D01*
X98953579Y-91863818D01*
X98929589Y-91878577D01*
X98805095Y-91955166D01*
X98805092Y-91955168D01*
X98799088Y-91958862D01*
X98794053Y-91963793D01*
X98794050Y-91963795D01*
X98703658Y-92052314D01*
X98669493Y-92085771D01*
X98605742Y-92184694D01*
X98552029Y-92231117D01*
X98481742Y-92241132D01*
X98417199Y-92211557D01*
X98392978Y-92183207D01*
X98391233Y-92180414D01*
X98337626Y-92094624D01*
X98323941Y-92080843D01*
X98214778Y-91970915D01*
X98214774Y-91970912D01*
X98209815Y-91965918D01*
X98198697Y-91958862D01*
X98103565Y-91898490D01*
X98056666Y-91868727D01*
X98000106Y-91848587D01*
X97949907Y-91830712D01*
X97903078Y-91801108D01*
X95945405Y-89843435D01*
X95911379Y-89781123D01*
X95908500Y-89754340D01*
X95908500Y-86138807D01*
X95928502Y-86070686D01*
X95982158Y-86024193D01*
X96052432Y-86014089D01*
X96117012Y-86043583D01*
G37*
G04 #@! TD.AperFunction*
G04 #@! TA.AperFunction,Conductor*
G36*
X79057600Y-48515744D02*
G01*
X79104204Y-48546273D01*
X79196483Y-48641830D01*
X79196488Y-48641834D01*
X79201382Y-48646902D01*
X79207278Y-48650760D01*
X79318649Y-48723639D01*
X79353159Y-48746222D01*
X79359763Y-48748678D01*
X79359765Y-48748679D01*
X79472439Y-48790582D01*
X79517614Y-48819584D01*
X79904595Y-49206565D01*
X79938621Y-49268877D01*
X79941500Y-49295660D01*
X79941500Y-52148134D01*
X79948255Y-52210316D01*
X79999385Y-52346705D01*
X80086739Y-52463261D01*
X80155814Y-52515030D01*
X80191065Y-52541449D01*
X80233580Y-52598308D01*
X80241500Y-52642275D01*
X80241500Y-54753090D01*
X80241208Y-54761660D01*
X80237909Y-54810058D01*
X80237275Y-54819354D01*
X80238580Y-54826831D01*
X80238580Y-54826832D01*
X80248261Y-54882301D01*
X80249223Y-54888823D01*
X80256898Y-54952244D01*
X80259581Y-54959345D01*
X80260222Y-54961954D01*
X80264685Y-54978264D01*
X80265450Y-54980800D01*
X80266757Y-54988286D01*
X80283317Y-55026009D01*
X80292442Y-55046797D01*
X80294933Y-55052901D01*
X80317513Y-55112658D01*
X80321817Y-55118921D01*
X80323054Y-55121287D01*
X80331299Y-55136099D01*
X80332632Y-55138353D01*
X80335685Y-55145307D01*
X80369620Y-55189530D01*
X80374579Y-55195993D01*
X80378459Y-55201334D01*
X80410339Y-55247722D01*
X80410344Y-55247727D01*
X80414643Y-55253983D01*
X80420313Y-55259034D01*
X80420314Y-55259036D01*
X80461170Y-55295437D01*
X80466446Y-55300418D01*
X82491148Y-57325120D01*
X82525174Y-57387432D01*
X82520109Y-57458247D01*
X82477562Y-57515083D01*
X82442659Y-57533493D01*
X82353579Y-57563818D01*
X82347575Y-57567512D01*
X82205095Y-57655166D01*
X82205092Y-57655168D01*
X82199088Y-57658862D01*
X82194053Y-57663793D01*
X82194050Y-57663795D01*
X82074525Y-57780843D01*
X82069493Y-57785771D01*
X81971235Y-57938238D01*
X81968826Y-57944858D01*
X81968824Y-57944861D01*
X81939960Y-58024165D01*
X81909197Y-58108685D01*
X81886463Y-58288640D01*
X81904163Y-58469160D01*
X81961418Y-58641273D01*
X81965065Y-58647296D01*
X81965066Y-58647297D01*
X81973276Y-58660853D01*
X81991500Y-58726124D01*
X81991500Y-59582343D01*
X81971498Y-59650464D01*
X81954595Y-59671438D01*
X79819472Y-61806562D01*
X79813206Y-61812416D01*
X79775340Y-61845448D01*
X79775337Y-61845451D01*
X79769615Y-61850443D01*
X79765248Y-61856657D01*
X79732872Y-61902723D01*
X79728939Y-61908018D01*
X79689524Y-61958286D01*
X79686401Y-61965202D01*
X79685017Y-61967488D01*
X79676643Y-61982169D01*
X79675378Y-61984529D01*
X79671010Y-61990743D01*
X79668250Y-61997822D01*
X79668249Y-61997824D01*
X79647798Y-62050279D01*
X79645247Y-62056348D01*
X79618955Y-62114577D01*
X79617571Y-62122044D01*
X79616770Y-62124599D01*
X79612141Y-62140852D01*
X79611478Y-62143432D01*
X79608718Y-62150513D01*
X79607727Y-62158044D01*
X79607726Y-62158046D01*
X79600379Y-62213856D01*
X79599348Y-62220363D01*
X79587704Y-62283190D01*
X79588141Y-62290770D01*
X79588141Y-62290771D01*
X79591291Y-62345396D01*
X79591500Y-62352650D01*
X79591500Y-90254340D01*
X79571498Y-90322461D01*
X79554595Y-90343435D01*
X78096563Y-91801467D01*
X78048074Y-91831650D01*
X77953579Y-91863818D01*
X77800521Y-91957981D01*
X77732022Y-91976639D01*
X77664307Y-91955301D01*
X77618879Y-91900741D01*
X77608500Y-91850663D01*
X77608500Y-49912868D01*
X77628502Y-49844747D01*
X77645405Y-49823773D01*
X78924473Y-48544705D01*
X78986785Y-48510679D01*
X79057600Y-48515744D01*
G37*
G04 #@! TD.AperFunction*
G04 #@! TA.AperFunction,Conductor*
G36*
X75017012Y-46751717D02*
G01*
X75024734Y-46760005D01*
X75025008Y-46759731D01*
X75031358Y-46766081D01*
X75036739Y-46773261D01*
X75153295Y-46860615D01*
X75289684Y-46911745D01*
X75351866Y-46918500D01*
X76448134Y-46918500D01*
X76510316Y-46911745D01*
X76646705Y-46860615D01*
X76763261Y-46773261D01*
X76764187Y-46772026D01*
X76823217Y-46739792D01*
X76894032Y-46744857D01*
X76935355Y-46771414D01*
X76936739Y-46773261D01*
X77053295Y-46860615D01*
X77189684Y-46911745D01*
X77251866Y-46918500D01*
X77394018Y-46918500D01*
X77462139Y-46938502D01*
X77508632Y-46992158D01*
X77518736Y-47062432D01*
X77489242Y-47127012D01*
X77483113Y-47133595D01*
X75930621Y-48686088D01*
X75920478Y-48695190D01*
X75890975Y-48718911D01*
X75887008Y-48723639D01*
X75858709Y-48757364D01*
X75855528Y-48761012D01*
X75853885Y-48762824D01*
X75851691Y-48765018D01*
X75824358Y-48798292D01*
X75823696Y-48799090D01*
X75763846Y-48870417D01*
X75761278Y-48875087D01*
X75757897Y-48879204D01*
X75745746Y-48901866D01*
X75714023Y-48961029D01*
X75713394Y-48962188D01*
X75671538Y-49038324D01*
X75671535Y-49038332D01*
X75668567Y-49043730D01*
X75666955Y-49048812D01*
X75664438Y-49053506D01*
X75637238Y-49142474D01*
X75636918Y-49143502D01*
X75608765Y-49232249D01*
X75608171Y-49237545D01*
X75606613Y-49242641D01*
X75597221Y-49335105D01*
X75597088Y-49336357D01*
X75591500Y-49386170D01*
X75591500Y-49389675D01*
X75591443Y-49390693D01*
X75590995Y-49396389D01*
X75587248Y-49433277D01*
X75587248Y-49433283D01*
X75586626Y-49439406D01*
X75587206Y-49445537D01*
X75590941Y-49485053D01*
X75591500Y-49496911D01*
X75591500Y-90765848D01*
X75571498Y-90833969D01*
X75517842Y-90880462D01*
X75464732Y-90891846D01*
X75441492Y-90891704D01*
X75440712Y-90891671D01*
X75439614Y-90891500D01*
X75408623Y-90891500D01*
X75407853Y-90891498D01*
X75334215Y-90891048D01*
X75334214Y-90891048D01*
X75330279Y-90891024D01*
X75328935Y-90891408D01*
X75327590Y-90891500D01*
X74934500Y-90891500D01*
X74866379Y-90871498D01*
X74819886Y-90817842D01*
X74808500Y-90765500D01*
X74808500Y-46846941D01*
X74828502Y-46778820D01*
X74882158Y-46732327D01*
X74952432Y-46722223D01*
X75017012Y-46751717D01*
G37*
G04 #@! TD.AperFunction*
G04 #@! TA.AperFunction,Conductor*
G36*
X100726332Y-56689804D02*
G01*
X100783168Y-56732351D01*
X100807979Y-56798871D01*
X100807306Y-56823652D01*
X100804981Y-56842060D01*
X100786463Y-56988640D01*
X100804163Y-57169160D01*
X100861418Y-57341273D01*
X100865065Y-57347295D01*
X100865066Y-57347297D01*
X100890643Y-57389529D01*
X100955380Y-57496424D01*
X101081382Y-57626902D01*
X101233159Y-57726222D01*
X101239763Y-57728678D01*
X101239765Y-57728679D01*
X101352439Y-57770582D01*
X101397614Y-57799584D01*
X102978550Y-59380520D01*
X102984404Y-59386785D01*
X103022439Y-59430385D01*
X103028657Y-59434755D01*
X103074697Y-59467112D01*
X103079993Y-59471045D01*
X103130282Y-59510477D01*
X103137204Y-59513602D01*
X103139452Y-59514964D01*
X103154185Y-59523368D01*
X103156524Y-59524622D01*
X103162739Y-59528990D01*
X103169815Y-59531749D01*
X103169819Y-59531751D01*
X103222269Y-59552200D01*
X103228334Y-59554749D01*
X103286573Y-59581045D01*
X103294038Y-59582429D01*
X103296582Y-59583226D01*
X103312848Y-59587859D01*
X103315428Y-59588521D01*
X103322509Y-59591282D01*
X103330042Y-59592274D01*
X103330043Y-59592274D01*
X103362699Y-59596573D01*
X103385857Y-59599622D01*
X103392355Y-59600650D01*
X103455187Y-59612296D01*
X103462767Y-59611859D01*
X103462768Y-59611859D01*
X103517393Y-59608709D01*
X103524647Y-59608500D01*
X104554340Y-59608500D01*
X104622461Y-59628502D01*
X104643435Y-59645405D01*
X109054595Y-64056566D01*
X109088621Y-64118878D01*
X109091500Y-64145661D01*
X109091500Y-64288564D01*
X109071498Y-64356685D01*
X109017842Y-64403178D01*
X108947568Y-64413282D01*
X108897987Y-64394950D01*
X108897072Y-64394369D01*
X108856666Y-64368727D01*
X108822848Y-64356685D01*
X108692425Y-64310243D01*
X108692420Y-64310242D01*
X108685790Y-64307881D01*
X108678802Y-64307048D01*
X108678799Y-64307047D01*
X108555698Y-64292368D01*
X108505680Y-64286404D01*
X108498677Y-64287140D01*
X108498675Y-64287140D01*
X108393484Y-64298196D01*
X108323646Y-64285424D01*
X108271799Y-64236922D01*
X108261323Y-64214324D01*
X108243178Y-64162219D01*
X108243178Y-64162218D01*
X108240860Y-64155563D01*
X108217937Y-64118878D01*
X108148474Y-64007713D01*
X108144741Y-64001739D01*
X108139779Y-63996742D01*
X108021893Y-63878030D01*
X108021889Y-63878027D01*
X108016930Y-63873033D01*
X107863781Y-63775842D01*
X107834578Y-63765443D01*
X107699540Y-63717358D01*
X107699535Y-63717357D01*
X107692905Y-63714996D01*
X107685917Y-63714163D01*
X107685914Y-63714162D01*
X107562813Y-63699483D01*
X107512795Y-63693519D01*
X107505792Y-63694255D01*
X107505790Y-63694255D01*
X107391646Y-63706252D01*
X107321808Y-63693480D01*
X107269961Y-63644978D01*
X107259485Y-63622380D01*
X107256596Y-63614083D01*
X107233739Y-63548448D01*
X107137620Y-63394624D01*
X107132658Y-63389627D01*
X107014772Y-63270915D01*
X107014768Y-63270912D01*
X107009809Y-63265918D01*
X106856660Y-63168727D01*
X106827457Y-63158328D01*
X106692419Y-63110243D01*
X106692414Y-63110242D01*
X106685784Y-63107881D01*
X106678796Y-63107048D01*
X106678793Y-63107047D01*
X106555692Y-63092368D01*
X106505674Y-63086404D01*
X106498671Y-63087140D01*
X106498670Y-63087140D01*
X106451516Y-63092096D01*
X106389010Y-63098666D01*
X106319172Y-63085894D01*
X106267326Y-63037392D01*
X106256849Y-63014794D01*
X106233745Y-62948448D01*
X106137626Y-62794624D01*
X106132664Y-62789627D01*
X106014778Y-62670915D01*
X106014774Y-62670912D01*
X106009815Y-62665918D01*
X105856666Y-62568727D01*
X105827463Y-62558328D01*
X105692425Y-62510243D01*
X105692420Y-62510242D01*
X105685790Y-62507881D01*
X105678802Y-62507048D01*
X105678799Y-62507047D01*
X105555698Y-62492368D01*
X105505680Y-62486404D01*
X105498677Y-62487140D01*
X105498676Y-62487140D01*
X105389005Y-62498667D01*
X105319166Y-62485895D01*
X105267319Y-62437393D01*
X105256843Y-62414794D01*
X105236058Y-62355106D01*
X105236056Y-62355103D01*
X105233739Y-62348448D01*
X105137620Y-62194624D01*
X105132658Y-62189627D01*
X105014772Y-62070915D01*
X105014768Y-62070912D01*
X105009809Y-62065918D01*
X104990004Y-62053349D01*
X104950532Y-62028300D01*
X104856660Y-61968727D01*
X104827338Y-61958286D01*
X104692419Y-61910243D01*
X104692414Y-61910242D01*
X104685784Y-61907881D01*
X104678796Y-61907048D01*
X104678793Y-61907047D01*
X104555692Y-61892368D01*
X104505674Y-61886404D01*
X104498671Y-61887140D01*
X104498670Y-61887140D01*
X104451516Y-61892096D01*
X104389010Y-61898666D01*
X104319172Y-61885894D01*
X104267326Y-61837392D01*
X104256849Y-61814794D01*
X104253982Y-61806562D01*
X104233745Y-61748448D01*
X104137626Y-61594624D01*
X104123941Y-61580843D01*
X104014778Y-61470915D01*
X104014774Y-61470912D01*
X104009815Y-61465918D01*
X103998697Y-61458862D01*
X103886309Y-61387539D01*
X103856666Y-61368727D01*
X103827463Y-61358328D01*
X103692425Y-61310243D01*
X103692420Y-61310242D01*
X103685790Y-61307881D01*
X103678802Y-61307048D01*
X103678799Y-61307047D01*
X103552534Y-61291991D01*
X103505680Y-61286404D01*
X103498677Y-61287140D01*
X103498676Y-61287140D01*
X103332288Y-61304628D01*
X103332286Y-61304629D01*
X103325288Y-61305364D01*
X103153579Y-61363818D01*
X103147575Y-61367512D01*
X103005095Y-61455166D01*
X103005092Y-61455168D01*
X102999088Y-61458862D01*
X102994053Y-61463793D01*
X102994050Y-61463795D01*
X102874525Y-61580843D01*
X102869493Y-61585771D01*
X102771235Y-61738238D01*
X102768826Y-61744858D01*
X102768824Y-61744861D01*
X102732186Y-61845524D01*
X102709197Y-61908685D01*
X102686463Y-62088640D01*
X102704163Y-62269160D01*
X102761418Y-62441273D01*
X102765065Y-62447296D01*
X102765066Y-62447297D01*
X102773276Y-62460853D01*
X102791500Y-62526124D01*
X102791500Y-66471088D01*
X102791208Y-66479658D01*
X102787275Y-66537352D01*
X102788580Y-66544829D01*
X102788580Y-66544830D01*
X102798261Y-66600299D01*
X102799223Y-66606821D01*
X102806898Y-66670242D01*
X102809581Y-66677343D01*
X102810222Y-66679952D01*
X102814685Y-66696262D01*
X102815450Y-66698798D01*
X102816757Y-66706284D01*
X102819811Y-66713241D01*
X102842442Y-66764795D01*
X102844933Y-66770899D01*
X102867513Y-66830656D01*
X102871817Y-66836919D01*
X102873054Y-66839285D01*
X102881299Y-66854097D01*
X102882632Y-66856351D01*
X102885685Y-66863305D01*
X102907964Y-66892338D01*
X102924579Y-66913991D01*
X102928459Y-66919332D01*
X102960339Y-66965720D01*
X102960344Y-66965725D01*
X102964643Y-66971981D01*
X102970313Y-66977032D01*
X102970314Y-66977034D01*
X103011161Y-67013427D01*
X103016438Y-67018408D01*
X103654596Y-67656567D01*
X103688621Y-67718879D01*
X103691500Y-67745662D01*
X103691500Y-82359142D01*
X103671498Y-82427263D01*
X103617842Y-82473756D01*
X103547568Y-82483860D01*
X103482988Y-82454366D01*
X103456823Y-82422902D01*
X103443550Y-82400278D01*
X103443547Y-82400273D01*
X103441992Y-82397623D01*
X103205772Y-82072493D01*
X103168444Y-82030449D01*
X102940996Y-81774269D01*
X102940993Y-81774266D01*
X102938951Y-81771966D01*
X102644078Y-81498911D01*
X102323966Y-81255933D01*
X102321348Y-81254322D01*
X102321343Y-81254319D01*
X102152819Y-81150642D01*
X101981672Y-81045352D01*
X101620462Y-80869178D01*
X101617581Y-80868107D01*
X101617575Y-80868104D01*
X101382665Y-80780742D01*
X101243785Y-80729093D01*
X100855235Y-80626434D01*
X100458522Y-80562180D01*
X100455449Y-80561987D01*
X100455443Y-80561986D01*
X100311726Y-80552944D01*
X100129818Y-80541500D01*
X99898688Y-80541500D01*
X99897162Y-80541575D01*
X99897147Y-80541575D01*
X99733344Y-80549587D01*
X99598597Y-80556177D01*
X99201026Y-80614885D01*
X99198030Y-80615632D01*
X99198025Y-80615633D01*
X99073203Y-80646755D01*
X98811081Y-80712109D01*
X98808173Y-80713144D01*
X98808168Y-80713146D01*
X98626757Y-80777744D01*
X98432484Y-80846921D01*
X98068850Y-81018035D01*
X98066209Y-81019609D01*
X98066204Y-81019612D01*
X97891134Y-81123975D01*
X97723649Y-81223816D01*
X97400176Y-81462301D01*
X97397893Y-81464357D01*
X97397884Y-81464364D01*
X97103816Y-81729144D01*
X97103808Y-81729152D01*
X97101519Y-81731213D01*
X96830528Y-82027985D01*
X96589791Y-82349785D01*
X96588194Y-82352422D01*
X96383196Y-82690913D01*
X96383191Y-82690922D01*
X96381605Y-82693541D01*
X96207957Y-83055972D01*
X96206902Y-83058871D01*
X96206901Y-83058873D01*
X96152901Y-83207237D01*
X96110807Y-83264408D01*
X96044485Y-83289746D01*
X95974994Y-83275205D01*
X95924395Y-83225403D01*
X95908500Y-83164142D01*
X95908500Y-61455660D01*
X95928502Y-61387539D01*
X95945405Y-61366565D01*
X98178258Y-59133712D01*
X98240570Y-59099686D01*
X98311385Y-59104751D01*
X98368221Y-59147298D01*
X98393032Y-59213818D01*
X98389872Y-59252221D01*
X98358009Y-59384938D01*
X98358008Y-59384944D01*
X98356854Y-59389751D01*
X98336372Y-59650000D01*
X98356854Y-59910249D01*
X98358008Y-59915056D01*
X98358009Y-59915062D01*
X98396424Y-60075069D01*
X98417796Y-60164089D01*
X98419689Y-60168660D01*
X98419690Y-60168662D01*
X98493006Y-60345661D01*
X98517697Y-60405271D01*
X98654097Y-60627856D01*
X98823637Y-60826363D01*
X99022144Y-60995903D01*
X99244729Y-61132303D01*
X99249299Y-61134196D01*
X99249303Y-61134198D01*
X99481338Y-61230310D01*
X99485911Y-61232204D01*
X99574931Y-61253576D01*
X99734938Y-61291991D01*
X99734944Y-61291992D01*
X99739751Y-61293146D01*
X99830884Y-61300318D01*
X99932385Y-61308307D01*
X99932394Y-61308307D01*
X99934842Y-61308500D01*
X100065158Y-61308500D01*
X100067606Y-61308307D01*
X100067615Y-61308307D01*
X100169116Y-61300318D01*
X100260249Y-61293146D01*
X100265056Y-61291992D01*
X100265062Y-61291991D01*
X100425069Y-61253576D01*
X100514089Y-61232204D01*
X100518662Y-61230310D01*
X100750697Y-61134198D01*
X100750701Y-61134196D01*
X100755271Y-61132303D01*
X100977856Y-60995903D01*
X101176363Y-60826363D01*
X101345903Y-60627856D01*
X101482303Y-60405271D01*
X101506995Y-60345661D01*
X101580310Y-60168662D01*
X101580311Y-60168660D01*
X101582204Y-60164089D01*
X101603576Y-60075069D01*
X101641991Y-59915062D01*
X101641992Y-59915056D01*
X101643146Y-59910249D01*
X101663628Y-59650000D01*
X101643146Y-59389751D01*
X101641992Y-59384944D01*
X101641991Y-59384938D01*
X101583359Y-59140723D01*
X101582204Y-59135911D01*
X101517857Y-58980564D01*
X101484198Y-58899303D01*
X101484196Y-58899299D01*
X101482303Y-58894729D01*
X101345903Y-58672144D01*
X101176363Y-58473637D01*
X100977856Y-58304097D01*
X100755271Y-58167697D01*
X100750701Y-58165804D01*
X100750697Y-58165802D01*
X100518662Y-58069690D01*
X100518660Y-58069689D01*
X100514089Y-58067796D01*
X100383004Y-58036325D01*
X100265062Y-58008009D01*
X100265056Y-58008008D01*
X100260249Y-58006854D01*
X100169116Y-57999682D01*
X100067615Y-57991693D01*
X100067606Y-57991693D01*
X100065158Y-57991500D01*
X99934842Y-57991500D01*
X99932394Y-57991693D01*
X99932385Y-57991693D01*
X99830884Y-57999682D01*
X99739751Y-58006854D01*
X99734944Y-58008008D01*
X99734938Y-58008009D01*
X99602221Y-58039872D01*
X99531313Y-58036325D01*
X99473579Y-57995005D01*
X99447349Y-57929031D01*
X99460951Y-57859350D01*
X99483712Y-57828258D01*
X100593205Y-56718765D01*
X100655517Y-56684739D01*
X100726332Y-56689804D01*
G37*
G04 #@! TD.AperFunction*
G04 #@! TA.AperFunction,Conductor*
G36*
X131183621Y-5028502D02*
G01*
X131230114Y-5082158D01*
X131241500Y-5134500D01*
X131241500Y-8384913D01*
X131221498Y-8453034D01*
X131167842Y-8499527D01*
X131097568Y-8509631D01*
X131071274Y-8502896D01*
X131067611Y-8501523D01*
X131052351Y-8497895D01*
X131001486Y-8492369D01*
X130994672Y-8492000D01*
X129972115Y-8492000D01*
X129956876Y-8496475D01*
X129955671Y-8497865D01*
X129954000Y-8505548D01*
X129954000Y-13489884D01*
X129958475Y-13505123D01*
X129959865Y-13506328D01*
X129967548Y-13507999D01*
X130994669Y-13507999D01*
X131001490Y-13507629D01*
X131052352Y-13502105D01*
X131067609Y-13498478D01*
X131071274Y-13497104D01*
X131074327Y-13496881D01*
X131075293Y-13496651D01*
X131075330Y-13496807D01*
X131142081Y-13491923D01*
X131204449Y-13525845D01*
X131238576Y-13588102D01*
X131241500Y-13615087D01*
X131241500Y-23662434D01*
X131221498Y-23730555D01*
X131167842Y-23777048D01*
X131125164Y-23788063D01*
X129530087Y-23910761D01*
X122094164Y-24482754D01*
X122024710Y-24468035D01*
X121974238Y-24418104D01*
X121958500Y-24357125D01*
X121958500Y-24115087D01*
X121978502Y-24046966D01*
X122032158Y-24000473D01*
X122102432Y-23990369D01*
X122128726Y-23997104D01*
X122132389Y-23998477D01*
X122147649Y-24002105D01*
X122198514Y-24007631D01*
X122205328Y-24008000D01*
X122477885Y-24008000D01*
X122493124Y-24003525D01*
X122494329Y-24002135D01*
X122496000Y-23994452D01*
X122496000Y-23989884D01*
X123004000Y-23989884D01*
X123008475Y-24005123D01*
X123009865Y-24006328D01*
X123017548Y-24007999D01*
X123294669Y-24007999D01*
X123301490Y-24007629D01*
X123352352Y-24002105D01*
X123367604Y-23998479D01*
X123488054Y-23953324D01*
X123503649Y-23944786D01*
X123605724Y-23868285D01*
X123618285Y-23855724D01*
X123694786Y-23753649D01*
X123703324Y-23738054D01*
X123748478Y-23617606D01*
X123752105Y-23602351D01*
X123757631Y-23551486D01*
X123758000Y-23544672D01*
X123758000Y-22522115D01*
X123753525Y-22506876D01*
X123752135Y-22505671D01*
X123744452Y-22504000D01*
X123022115Y-22504000D01*
X123006876Y-22508475D01*
X123005671Y-22509865D01*
X123004000Y-22517548D01*
X123004000Y-23989884D01*
X122496000Y-23989884D01*
X122496000Y-21977885D01*
X123004000Y-21977885D01*
X123008475Y-21993124D01*
X123009865Y-21994329D01*
X123017548Y-21996000D01*
X123739884Y-21996000D01*
X123755123Y-21991525D01*
X123756328Y-21990135D01*
X123757999Y-21982452D01*
X123757999Y-20955331D01*
X123757629Y-20948510D01*
X123752105Y-20897648D01*
X123748479Y-20882396D01*
X123703324Y-20761946D01*
X123694786Y-20746351D01*
X123618285Y-20644276D01*
X123605724Y-20631715D01*
X123503649Y-20555214D01*
X123488054Y-20546676D01*
X123367606Y-20501522D01*
X123352351Y-20497895D01*
X123301486Y-20492369D01*
X123294672Y-20492000D01*
X123022115Y-20492000D01*
X123006876Y-20496475D01*
X123005671Y-20497865D01*
X123004000Y-20505548D01*
X123004000Y-21977885D01*
X122496000Y-21977885D01*
X122496000Y-20510116D01*
X122491525Y-20494877D01*
X122490135Y-20493672D01*
X122482452Y-20492001D01*
X122205331Y-20492001D01*
X122198510Y-20492371D01*
X122147648Y-20497895D01*
X122132394Y-20501522D01*
X122044941Y-20534306D01*
X121974134Y-20539489D01*
X121956483Y-20534306D01*
X121867718Y-20501029D01*
X121867712Y-20501027D01*
X121860316Y-20498255D01*
X121798134Y-20491500D01*
X120701866Y-20491500D01*
X120639684Y-20498255D01*
X120632288Y-20501027D01*
X120632282Y-20501029D01*
X120544229Y-20534039D01*
X120473422Y-20539222D01*
X120455771Y-20534039D01*
X120367718Y-20501029D01*
X120367712Y-20501027D01*
X120360316Y-20498255D01*
X120298134Y-20491500D01*
X119201866Y-20491500D01*
X119139684Y-20498255D01*
X119132288Y-20501027D01*
X119132282Y-20501029D01*
X119044229Y-20534039D01*
X118973422Y-20539222D01*
X118955771Y-20534039D01*
X118867718Y-20501029D01*
X118867712Y-20501027D01*
X118860316Y-20498255D01*
X118798134Y-20491500D01*
X117701866Y-20491500D01*
X117639684Y-20498255D01*
X117632288Y-20501027D01*
X117632282Y-20501029D01*
X117544229Y-20534039D01*
X117473422Y-20539222D01*
X117455771Y-20534039D01*
X117367718Y-20501029D01*
X117367712Y-20501027D01*
X117360316Y-20498255D01*
X117298134Y-20491500D01*
X116201866Y-20491500D01*
X116139684Y-20498255D01*
X116132288Y-20501027D01*
X116132282Y-20501029D01*
X116044229Y-20534039D01*
X115973422Y-20539222D01*
X115955771Y-20534039D01*
X115867718Y-20501029D01*
X115867712Y-20501027D01*
X115860316Y-20498255D01*
X115798134Y-20491500D01*
X114701866Y-20491500D01*
X114639684Y-20498255D01*
X114632288Y-20501027D01*
X114632282Y-20501029D01*
X114544229Y-20534039D01*
X114473422Y-20539222D01*
X114455771Y-20534039D01*
X114367718Y-20501029D01*
X114367712Y-20501027D01*
X114360316Y-20498255D01*
X114298134Y-20491500D01*
X113201866Y-20491500D01*
X113139684Y-20498255D01*
X113132288Y-20501027D01*
X113132282Y-20501029D01*
X113044229Y-20534039D01*
X112973422Y-20539222D01*
X112955771Y-20534039D01*
X112867718Y-20501029D01*
X112867712Y-20501027D01*
X112860316Y-20498255D01*
X112798134Y-20491500D01*
X111701866Y-20491500D01*
X111639684Y-20498255D01*
X111632288Y-20501027D01*
X111632282Y-20501029D01*
X111544229Y-20534039D01*
X111473422Y-20539222D01*
X111455771Y-20534039D01*
X111367718Y-20501029D01*
X111367712Y-20501027D01*
X111360316Y-20498255D01*
X111298134Y-20491500D01*
X110201866Y-20491500D01*
X110139684Y-20498255D01*
X110132288Y-20501027D01*
X110132282Y-20501029D01*
X110044229Y-20534039D01*
X109973422Y-20539222D01*
X109955771Y-20534039D01*
X109867718Y-20501029D01*
X109867712Y-20501027D01*
X109860316Y-20498255D01*
X109798134Y-20491500D01*
X108701866Y-20491500D01*
X108639684Y-20498255D01*
X108632288Y-20501027D01*
X108632282Y-20501029D01*
X108544229Y-20534039D01*
X108473422Y-20539222D01*
X108455771Y-20534039D01*
X108367718Y-20501029D01*
X108367712Y-20501027D01*
X108360316Y-20498255D01*
X108298134Y-20491500D01*
X107201866Y-20491500D01*
X107139684Y-20498255D01*
X107132288Y-20501027D01*
X107132282Y-20501029D01*
X107044229Y-20534039D01*
X106973422Y-20539222D01*
X106955771Y-20534039D01*
X106867718Y-20501029D01*
X106867712Y-20501027D01*
X106860316Y-20498255D01*
X106798134Y-20491500D01*
X105701866Y-20491500D01*
X105639684Y-20498255D01*
X105632288Y-20501027D01*
X105632282Y-20501029D01*
X105544229Y-20534039D01*
X105473422Y-20539222D01*
X105455771Y-20534039D01*
X105367718Y-20501029D01*
X105367712Y-20501027D01*
X105360316Y-20498255D01*
X105298134Y-20491500D01*
X104201866Y-20491500D01*
X104139684Y-20498255D01*
X104132288Y-20501027D01*
X104132282Y-20501029D01*
X104044229Y-20534039D01*
X103973422Y-20539222D01*
X103955771Y-20534039D01*
X103867718Y-20501029D01*
X103867712Y-20501027D01*
X103860316Y-20498255D01*
X103798134Y-20491500D01*
X102701866Y-20491500D01*
X102639684Y-20498255D01*
X102632288Y-20501027D01*
X102632282Y-20501029D01*
X102544229Y-20534039D01*
X102473422Y-20539222D01*
X102455771Y-20534039D01*
X102367718Y-20501029D01*
X102367712Y-20501027D01*
X102360316Y-20498255D01*
X102298134Y-20491500D01*
X101201866Y-20491500D01*
X101139684Y-20498255D01*
X101132288Y-20501027D01*
X101132282Y-20501029D01*
X101044229Y-20534039D01*
X100973422Y-20539222D01*
X100955771Y-20534039D01*
X100867718Y-20501029D01*
X100867712Y-20501027D01*
X100860316Y-20498255D01*
X100798134Y-20491500D01*
X99701866Y-20491500D01*
X99639684Y-20498255D01*
X99632288Y-20501027D01*
X99632282Y-20501029D01*
X99544229Y-20534039D01*
X99473422Y-20539222D01*
X99455771Y-20534039D01*
X99367718Y-20501029D01*
X99367712Y-20501027D01*
X99360316Y-20498255D01*
X99298134Y-20491500D01*
X98201866Y-20491500D01*
X98139684Y-20498255D01*
X98132288Y-20501027D01*
X98132282Y-20501029D01*
X98044229Y-20534039D01*
X97973422Y-20539222D01*
X97955771Y-20534039D01*
X97867718Y-20501029D01*
X97867712Y-20501027D01*
X97860316Y-20498255D01*
X97798134Y-20491500D01*
X96701866Y-20491500D01*
X96639684Y-20498255D01*
X96632288Y-20501027D01*
X96632282Y-20501029D01*
X96544229Y-20534039D01*
X96473422Y-20539222D01*
X96455771Y-20534039D01*
X96367718Y-20501029D01*
X96367712Y-20501027D01*
X96360316Y-20498255D01*
X96298134Y-20491500D01*
X95201866Y-20491500D01*
X95139684Y-20498255D01*
X95132288Y-20501027D01*
X95132282Y-20501029D01*
X95044229Y-20534039D01*
X94973422Y-20539222D01*
X94955771Y-20534039D01*
X94867718Y-20501029D01*
X94867712Y-20501027D01*
X94860316Y-20498255D01*
X94798134Y-20491500D01*
X93701866Y-20491500D01*
X93639684Y-20498255D01*
X93632288Y-20501027D01*
X93632282Y-20501029D01*
X93544229Y-20534039D01*
X93473422Y-20539222D01*
X93455771Y-20534039D01*
X93367718Y-20501029D01*
X93367712Y-20501027D01*
X93360316Y-20498255D01*
X93298134Y-20491500D01*
X92201866Y-20491500D01*
X92139684Y-20498255D01*
X92132288Y-20501027D01*
X92132282Y-20501029D01*
X92044229Y-20534039D01*
X91973422Y-20539222D01*
X91955771Y-20534039D01*
X91867718Y-20501029D01*
X91867712Y-20501027D01*
X91860316Y-20498255D01*
X91798134Y-20491500D01*
X90701866Y-20491500D01*
X90639684Y-20498255D01*
X90632288Y-20501027D01*
X90632282Y-20501029D01*
X90544229Y-20534039D01*
X90473422Y-20539222D01*
X90455771Y-20534039D01*
X90367718Y-20501029D01*
X90367712Y-20501027D01*
X90360316Y-20498255D01*
X90298134Y-20491500D01*
X89201866Y-20491500D01*
X89139684Y-20498255D01*
X89132288Y-20501027D01*
X89132282Y-20501029D01*
X89044229Y-20534039D01*
X88973422Y-20539222D01*
X88955771Y-20534039D01*
X88867718Y-20501029D01*
X88867712Y-20501027D01*
X88860316Y-20498255D01*
X88798134Y-20491500D01*
X87701866Y-20491500D01*
X87639684Y-20498255D01*
X87632288Y-20501027D01*
X87632282Y-20501029D01*
X87544229Y-20534039D01*
X87473422Y-20539222D01*
X87455771Y-20534039D01*
X87367718Y-20501029D01*
X87367712Y-20501027D01*
X87360316Y-20498255D01*
X87298134Y-20491500D01*
X86201866Y-20491500D01*
X86139684Y-20498255D01*
X86132288Y-20501027D01*
X86132282Y-20501029D01*
X86044229Y-20534039D01*
X85973422Y-20539222D01*
X85955771Y-20534039D01*
X85867718Y-20501029D01*
X85867712Y-20501027D01*
X85860316Y-20498255D01*
X85798134Y-20491500D01*
X84701866Y-20491500D01*
X84639684Y-20498255D01*
X84632288Y-20501027D01*
X84632282Y-20501029D01*
X84544229Y-20534039D01*
X84473422Y-20539222D01*
X84455771Y-20534039D01*
X84367718Y-20501029D01*
X84367712Y-20501027D01*
X84360316Y-20498255D01*
X84298134Y-20491500D01*
X83201866Y-20491500D01*
X83139684Y-20498255D01*
X83132288Y-20501027D01*
X83132282Y-20501029D01*
X83044229Y-20534039D01*
X82973422Y-20539222D01*
X82955771Y-20534039D01*
X82867718Y-20501029D01*
X82867712Y-20501027D01*
X82860316Y-20498255D01*
X82798134Y-20491500D01*
X81701866Y-20491500D01*
X81639684Y-20498255D01*
X81632288Y-20501027D01*
X81632282Y-20501029D01*
X81544229Y-20534039D01*
X81473422Y-20539222D01*
X81455771Y-20534039D01*
X81367718Y-20501029D01*
X81367712Y-20501027D01*
X81360316Y-20498255D01*
X81298134Y-20491500D01*
X80201866Y-20491500D01*
X80139684Y-20498255D01*
X80132288Y-20501027D01*
X80132282Y-20501029D01*
X80044229Y-20534039D01*
X79973422Y-20539222D01*
X79955771Y-20534039D01*
X79867718Y-20501029D01*
X79867712Y-20501027D01*
X79860316Y-20498255D01*
X79798134Y-20491500D01*
X78701866Y-20491500D01*
X78639684Y-20498255D01*
X78632288Y-20501027D01*
X78632282Y-20501029D01*
X78544229Y-20534039D01*
X78473422Y-20539222D01*
X78455771Y-20534039D01*
X78367718Y-20501029D01*
X78367712Y-20501027D01*
X78360316Y-20498255D01*
X78298134Y-20491500D01*
X77201866Y-20491500D01*
X77139684Y-20498255D01*
X77132288Y-20501027D01*
X77132282Y-20501029D01*
X77044229Y-20534039D01*
X76973422Y-20539222D01*
X76955771Y-20534039D01*
X76867718Y-20501029D01*
X76867712Y-20501027D01*
X76860316Y-20498255D01*
X76798134Y-20491500D01*
X75701866Y-20491500D01*
X75639684Y-20498255D01*
X75503295Y-20549385D01*
X75386739Y-20636739D01*
X75299385Y-20753295D01*
X75248255Y-20889684D01*
X75241500Y-20951866D01*
X75241500Y-36908258D01*
X75240763Y-36921865D01*
X75236676Y-36959489D01*
X75237213Y-36965624D01*
X75241050Y-37009489D01*
X75241379Y-37014315D01*
X75241500Y-37016787D01*
X75241500Y-37019870D01*
X75241801Y-37022938D01*
X75245690Y-37062607D01*
X75245812Y-37063920D01*
X75253913Y-37156514D01*
X75255400Y-37161633D01*
X75255920Y-37166934D01*
X75282791Y-37255935D01*
X75283126Y-37257068D01*
X75309091Y-37346437D01*
X75311544Y-37351169D01*
X75313084Y-37356270D01*
X75315978Y-37361713D01*
X75356731Y-37438361D01*
X75357343Y-37439527D01*
X75400108Y-37522027D01*
X75403431Y-37526190D01*
X75405934Y-37530897D01*
X75464755Y-37603019D01*
X75465446Y-37603875D01*
X75496738Y-37643074D01*
X75499242Y-37645578D01*
X75499884Y-37646296D01*
X75503585Y-37650629D01*
X75530935Y-37684163D01*
X75535682Y-37688090D01*
X75535684Y-37688092D01*
X75566262Y-37713388D01*
X75575042Y-37721378D01*
X75694659Y-37840995D01*
X75709400Y-37858717D01*
X75714643Y-37866346D01*
X75720319Y-37871403D01*
X75761162Y-37907793D01*
X75766438Y-37912774D01*
X77144848Y-39291183D01*
X78416066Y-40562401D01*
X78450091Y-40624713D01*
X78452971Y-40651496D01*
X78452971Y-40903675D01*
X78432969Y-40971796D01*
X78379313Y-41018289D01*
X78309039Y-41028393D01*
X78282742Y-41021657D01*
X78227718Y-41001029D01*
X78227712Y-41001027D01*
X78220316Y-40998255D01*
X78158134Y-40991500D01*
X77241866Y-40991500D01*
X77179684Y-40998255D01*
X77043295Y-41049385D01*
X77036110Y-41054770D01*
X77036108Y-41054771D01*
X76975148Y-41100458D01*
X76908641Y-41125306D01*
X76839259Y-41110253D01*
X76824018Y-41100459D01*
X76763644Y-41055211D01*
X76748054Y-41046676D01*
X76627606Y-41001522D01*
X76612351Y-40997895D01*
X76561486Y-40992369D01*
X76554672Y-40992000D01*
X76372115Y-40992000D01*
X76356876Y-40996475D01*
X76355671Y-40997865D01*
X76354000Y-41005548D01*
X76354000Y-42989884D01*
X76358475Y-43005123D01*
X76359865Y-43006328D01*
X76367548Y-43007999D01*
X76554669Y-43007999D01*
X76561490Y-43007629D01*
X76612352Y-43002105D01*
X76627604Y-42998479D01*
X76748054Y-42953324D01*
X76763648Y-42944786D01*
X76789936Y-42925085D01*
X76856443Y-42900238D01*
X76925825Y-42915292D01*
X76976055Y-42965466D01*
X76991500Y-43025912D01*
X76991500Y-43522671D01*
X76971498Y-43590792D01*
X76949593Y-43614332D01*
X76950269Y-43615008D01*
X76943919Y-43621358D01*
X76936739Y-43626739D01*
X76935608Y-43628248D01*
X76876426Y-43660565D01*
X76805611Y-43655500D01*
X76760548Y-43626539D01*
X76755724Y-43621715D01*
X76653649Y-43545214D01*
X76638054Y-43536676D01*
X76517606Y-43491522D01*
X76502351Y-43487895D01*
X76451486Y-43482369D01*
X76444672Y-43482000D01*
X76172115Y-43482000D01*
X76156876Y-43486475D01*
X76155671Y-43487865D01*
X76154000Y-43495548D01*
X76154000Y-44528000D01*
X76133998Y-44596121D01*
X76080342Y-44642614D01*
X76028000Y-44654000D01*
X75772000Y-44654000D01*
X75703879Y-44633998D01*
X75657386Y-44580342D01*
X75646000Y-44528000D01*
X75646000Y-43500116D01*
X75641525Y-43484877D01*
X75640135Y-43483672D01*
X75632452Y-43482001D01*
X75355331Y-43482001D01*
X75348510Y-43482371D01*
X75297648Y-43487895D01*
X75282396Y-43491521D01*
X75161946Y-43536676D01*
X75146351Y-43545214D01*
X75044276Y-43621715D01*
X75025365Y-43640626D01*
X75023236Y-43638497D01*
X74978474Y-43671970D01*
X74907656Y-43677000D01*
X74845360Y-43642944D01*
X74811366Y-43580615D01*
X74808500Y-43553893D01*
X74808500Y-42544669D01*
X75182001Y-42544669D01*
X75182371Y-42551490D01*
X75187895Y-42602352D01*
X75191521Y-42617604D01*
X75236676Y-42738054D01*
X75245214Y-42753649D01*
X75321715Y-42855724D01*
X75334276Y-42868285D01*
X75436351Y-42944786D01*
X75451946Y-42953324D01*
X75572394Y-42998478D01*
X75587649Y-43002105D01*
X75638514Y-43007631D01*
X75645328Y-43008000D01*
X75827885Y-43008000D01*
X75843124Y-43003525D01*
X75844329Y-43002135D01*
X75846000Y-42994452D01*
X75846000Y-42272115D01*
X75841525Y-42256876D01*
X75840135Y-42255671D01*
X75832452Y-42254000D01*
X75200116Y-42254000D01*
X75184877Y-42258475D01*
X75183672Y-42259865D01*
X75182001Y-42267548D01*
X75182001Y-42544669D01*
X74808500Y-42544669D01*
X74808500Y-41727885D01*
X75182000Y-41727885D01*
X75186475Y-41743124D01*
X75187865Y-41744329D01*
X75195548Y-41746000D01*
X75827885Y-41746000D01*
X75843124Y-41741525D01*
X75844329Y-41740135D01*
X75846000Y-41732452D01*
X75846000Y-41010116D01*
X75841525Y-40994877D01*
X75840135Y-40993672D01*
X75832452Y-40992001D01*
X75645331Y-40992001D01*
X75638510Y-40992371D01*
X75587648Y-40997895D01*
X75572396Y-41001521D01*
X75451946Y-41046676D01*
X75436351Y-41055214D01*
X75334276Y-41131715D01*
X75321715Y-41144276D01*
X75245214Y-41246351D01*
X75236676Y-41261946D01*
X75191522Y-41382394D01*
X75187895Y-41397649D01*
X75182369Y-41448514D01*
X75182000Y-41455328D01*
X75182000Y-41727885D01*
X74808500Y-41727885D01*
X74808500Y-39038600D01*
X74808656Y-39033017D01*
X74809232Y-39028711D01*
X74808734Y-39005446D01*
X74808529Y-38995904D01*
X74808500Y-38993205D01*
X74808500Y-38963487D01*
X74807887Y-38959211D01*
X74807618Y-38953399D01*
X74509082Y-25021715D01*
X74509457Y-25008940D01*
X74512018Y-24977021D01*
X74512018Y-24977019D01*
X74512736Y-24968068D01*
X74510913Y-24959277D01*
X74510913Y-24959273D01*
X74500574Y-24909410D01*
X74499634Y-24904359D01*
X74491341Y-24854141D01*
X74491341Y-24854140D01*
X74489878Y-24845283D01*
X74486287Y-24837814D01*
X74484845Y-24833550D01*
X74483164Y-24825444D01*
X74455022Y-24772547D01*
X74452719Y-24767996D01*
X74430655Y-24722104D01*
X74430653Y-24722101D01*
X74426763Y-24714010D01*
X74421226Y-24707856D01*
X74421224Y-24707852D01*
X74418640Y-24704162D01*
X74414751Y-24696852D01*
X74372909Y-24653996D01*
X74369416Y-24650270D01*
X74329342Y-24605727D01*
X74322290Y-24601368D01*
X74318779Y-24598553D01*
X74312997Y-24592631D01*
X74305176Y-24588226D01*
X74305174Y-24588225D01*
X74268343Y-24567483D01*
X74260828Y-24563251D01*
X74256408Y-24560642D01*
X74213081Y-24533859D01*
X74213080Y-24533858D01*
X74205445Y-24529139D01*
X74197465Y-24526937D01*
X74193292Y-24525217D01*
X74186081Y-24521157D01*
X74177341Y-24519125D01*
X74177335Y-24519123D01*
X74127742Y-24507594D01*
X74122766Y-24506330D01*
X74073685Y-24492791D01*
X74065032Y-24490404D01*
X74056061Y-24490541D01*
X74056059Y-24490541D01*
X74033528Y-24490886D01*
X74020089Y-24491092D01*
X74008860Y-24490763D01*
X67875192Y-24036417D01*
X67808735Y-24011437D01*
X67766333Y-23954494D01*
X67758500Y-23910761D01*
X67758500Y-13615087D01*
X67778502Y-13546966D01*
X67832158Y-13500473D01*
X67902432Y-13490369D01*
X67928726Y-13497104D01*
X67932389Y-13498477D01*
X67947649Y-13502105D01*
X67998514Y-13507631D01*
X68005328Y-13508000D01*
X69027885Y-13508000D01*
X69043124Y-13503525D01*
X69044329Y-13502135D01*
X69046000Y-13494452D01*
X69046000Y-13489884D01*
X69554000Y-13489884D01*
X69558475Y-13505123D01*
X69559865Y-13506328D01*
X69567548Y-13507999D01*
X70594669Y-13507999D01*
X70601490Y-13507629D01*
X70652352Y-13502105D01*
X70667604Y-13498479D01*
X70788054Y-13453324D01*
X70803649Y-13444786D01*
X70905724Y-13368285D01*
X70918285Y-13355724D01*
X70994786Y-13253649D01*
X71003324Y-13238054D01*
X71048478Y-13117606D01*
X71052105Y-13102351D01*
X71057631Y-13051486D01*
X71058000Y-13044672D01*
X71058000Y-13044669D01*
X127942001Y-13044669D01*
X127942371Y-13051490D01*
X127947895Y-13102352D01*
X127951521Y-13117604D01*
X127996676Y-13238054D01*
X128005214Y-13253649D01*
X128081715Y-13355724D01*
X128094276Y-13368285D01*
X128196351Y-13444786D01*
X128211946Y-13453324D01*
X128332394Y-13498478D01*
X128347649Y-13502105D01*
X128398514Y-13507631D01*
X128405328Y-13508000D01*
X129427885Y-13508000D01*
X129443124Y-13503525D01*
X129444329Y-13502135D01*
X129446000Y-13494452D01*
X129446000Y-11272115D01*
X129441525Y-11256876D01*
X129440135Y-11255671D01*
X129432452Y-11254000D01*
X127960116Y-11254000D01*
X127944877Y-11258475D01*
X127943672Y-11259865D01*
X127942001Y-11267548D01*
X127942001Y-13044669D01*
X71058000Y-13044669D01*
X71058000Y-11272115D01*
X71053525Y-11256876D01*
X71052135Y-11255671D01*
X71044452Y-11254000D01*
X69572115Y-11254000D01*
X69556876Y-11258475D01*
X69555671Y-11259865D01*
X69554000Y-11267548D01*
X69554000Y-13489884D01*
X69046000Y-13489884D01*
X69046000Y-10727885D01*
X69554000Y-10727885D01*
X69558475Y-10743124D01*
X69559865Y-10744329D01*
X69567548Y-10746000D01*
X71039884Y-10746000D01*
X71055123Y-10741525D01*
X71056328Y-10740135D01*
X71057999Y-10732452D01*
X71057999Y-10727885D01*
X127942000Y-10727885D01*
X127946475Y-10743124D01*
X127947865Y-10744329D01*
X127955548Y-10746000D01*
X129427885Y-10746000D01*
X129443124Y-10741525D01*
X129444329Y-10740135D01*
X129446000Y-10732452D01*
X129446000Y-8510116D01*
X129441525Y-8494877D01*
X129440135Y-8493672D01*
X129432452Y-8492001D01*
X128405331Y-8492001D01*
X128398510Y-8492371D01*
X128347648Y-8497895D01*
X128332396Y-8501521D01*
X128211946Y-8546676D01*
X128196351Y-8555214D01*
X128094276Y-8631715D01*
X128081715Y-8644276D01*
X128005214Y-8746351D01*
X127996676Y-8761946D01*
X127951522Y-8882394D01*
X127947895Y-8897649D01*
X127942369Y-8948514D01*
X127942000Y-8955328D01*
X127942000Y-10727885D01*
X71057999Y-10727885D01*
X71057999Y-8955331D01*
X71057629Y-8948510D01*
X71052105Y-8897648D01*
X71048479Y-8882396D01*
X71003324Y-8761946D01*
X70994786Y-8746351D01*
X70918285Y-8644276D01*
X70905724Y-8631715D01*
X70803649Y-8555214D01*
X70788054Y-8546676D01*
X70667606Y-8501522D01*
X70652351Y-8497895D01*
X70601486Y-8492369D01*
X70594672Y-8492000D01*
X69572115Y-8492000D01*
X69556876Y-8496475D01*
X69555671Y-8497865D01*
X69554000Y-8505548D01*
X69554000Y-10727885D01*
X69046000Y-10727885D01*
X69046000Y-8510116D01*
X69041525Y-8494877D01*
X69040135Y-8493672D01*
X69032452Y-8492001D01*
X68005331Y-8492001D01*
X67998510Y-8492371D01*
X67947648Y-8497895D01*
X67932391Y-8501522D01*
X67928726Y-8502896D01*
X67925673Y-8503119D01*
X67924707Y-8503349D01*
X67924670Y-8503193D01*
X67857919Y-8508077D01*
X67795551Y-8474155D01*
X67761424Y-8411898D01*
X67758500Y-8384913D01*
X67758500Y-5134500D01*
X67778502Y-5066379D01*
X67832158Y-5019886D01*
X67884500Y-5008500D01*
X131115500Y-5008500D01*
X131183621Y-5028502D01*
G37*
G04 #@! TD.AperFunction*
G04 #@! TA.AperFunction,Conductor*
G36*
X95167012Y-34298919D02*
G01*
X95174044Y-34305499D01*
X95194308Y-34325976D01*
X95195213Y-34326948D01*
X95195989Y-34327959D01*
X95222583Y-34354553D01*
X95223049Y-34355020D01*
X95283592Y-34416201D01*
X95283597Y-34416205D01*
X95286684Y-34419325D01*
X95288012Y-34420139D01*
X95289448Y-34421418D01*
X101624595Y-40756565D01*
X101658621Y-40818877D01*
X101661500Y-40845660D01*
X101661500Y-43265500D01*
X101641498Y-43333621D01*
X101587842Y-43380114D01*
X101535500Y-43391500D01*
X100721866Y-43391500D01*
X100682008Y-43395830D01*
X100612126Y-43383302D01*
X100560110Y-43334981D01*
X100542573Y-43277160D01*
X100542210Y-43270223D01*
X100542726Y-43262648D01*
X100531736Y-43199681D01*
X100530775Y-43193165D01*
X100523102Y-43129758D01*
X100520419Y-43122657D01*
X100519778Y-43120048D01*
X100515309Y-43103715D01*
X100514548Y-43101195D01*
X100513243Y-43093717D01*
X100505771Y-43076695D01*
X100487559Y-43035204D01*
X100485068Y-43029099D01*
X100465175Y-42976456D01*
X100465173Y-42976452D01*
X100462487Y-42969344D01*
X100458184Y-42963083D01*
X100456947Y-42960717D01*
X100448720Y-42945937D01*
X100447369Y-42943652D01*
X100444315Y-42936695D01*
X100439695Y-42930675D01*
X100439692Y-42930669D01*
X100405421Y-42886009D01*
X100401541Y-42880668D01*
X100369661Y-42834280D01*
X100369656Y-42834275D01*
X100365357Y-42828019D01*
X100342910Y-42808019D01*
X100318830Y-42786565D01*
X100313554Y-42781584D01*
X98591450Y-41059480D01*
X98585596Y-41053215D01*
X98558066Y-41021657D01*
X98547561Y-41009615D01*
X98495280Y-40972871D01*
X98489986Y-40968939D01*
X98445693Y-40934209D01*
X98439718Y-40929524D01*
X98432802Y-40926401D01*
X98430516Y-40925017D01*
X98415835Y-40916643D01*
X98413475Y-40915378D01*
X98407261Y-40911010D01*
X98400182Y-40908250D01*
X98400180Y-40908249D01*
X98347725Y-40887798D01*
X98341656Y-40885247D01*
X98283427Y-40858955D01*
X98275960Y-40857571D01*
X98273405Y-40856770D01*
X98257152Y-40852141D01*
X98254572Y-40851478D01*
X98247491Y-40848718D01*
X98239960Y-40847727D01*
X98239958Y-40847726D01*
X98210339Y-40843827D01*
X98184139Y-40840378D01*
X98177641Y-40839348D01*
X98114814Y-40827704D01*
X98107234Y-40828141D01*
X98107233Y-40828141D01*
X98052608Y-40831291D01*
X98045354Y-40831500D01*
X97005661Y-40831500D01*
X96937540Y-40811498D01*
X96916566Y-40794595D01*
X94995405Y-38873435D01*
X94961380Y-38811123D01*
X94958500Y-38784340D01*
X94958500Y-34394143D01*
X94978502Y-34326022D01*
X95032158Y-34279529D01*
X95102432Y-34269425D01*
X95167012Y-34298919D01*
G37*
G04 #@! TD.AperFunction*
G04 #@! TA.AperFunction,Conductor*
G36*
X87494417Y-24030095D02*
G01*
X87528567Y-24092339D01*
X87531500Y-24119369D01*
X87531500Y-25516259D01*
X87515921Y-25569316D01*
X87530160Y-25600234D01*
X87531500Y-25618561D01*
X87531500Y-25749710D01*
X87515341Y-25804598D01*
X87518183Y-25806009D01*
X87515053Y-25812313D01*
X87511235Y-25818238D01*
X87508826Y-25824858D01*
X87508824Y-25824861D01*
X87455147Y-25972338D01*
X87449197Y-25988685D01*
X87426463Y-26168640D01*
X87444163Y-26349160D01*
X87501418Y-26521273D01*
X87505065Y-26527295D01*
X87505066Y-26527297D01*
X87574054Y-26641210D01*
X87595380Y-26676424D01*
X87600269Y-26681487D01*
X87600270Y-26681488D01*
X87621027Y-26702982D01*
X87721382Y-26806902D01*
X87727278Y-26810760D01*
X87849531Y-26890760D01*
X87873159Y-26906222D01*
X87879763Y-26908678D01*
X87879765Y-26908679D01*
X88036558Y-26966990D01*
X88036560Y-26966990D01*
X88043168Y-26969448D01*
X88126995Y-26980633D01*
X88215980Y-26992507D01*
X88215984Y-26992507D01*
X88222961Y-26993438D01*
X88229972Y-26992800D01*
X88229976Y-26992800D01*
X88372459Y-26979832D01*
X88403600Y-26976998D01*
X88410302Y-26974820D01*
X88410304Y-26974820D01*
X88569409Y-26923124D01*
X88569412Y-26923123D01*
X88576108Y-26920947D01*
X88731912Y-26828069D01*
X88737018Y-26823207D01*
X88828608Y-26735987D01*
X88891732Y-26703494D01*
X88962403Y-26710287D01*
X89018183Y-26754210D01*
X89041500Y-26827232D01*
X89041500Y-41025340D01*
X89021498Y-41093461D01*
X88967842Y-41139954D01*
X88897568Y-41150058D01*
X88832988Y-41120564D01*
X88826405Y-41114435D01*
X82995405Y-35283435D01*
X82961379Y-35221123D01*
X82958500Y-35194340D01*
X82958500Y-25375476D01*
X82978502Y-25307355D01*
X83032158Y-25260862D01*
X83102432Y-25250758D01*
X83167012Y-25280252D01*
X83175136Y-25287948D01*
X83202162Y-25315934D01*
X83251382Y-25366902D01*
X83271008Y-25379745D01*
X83361899Y-25439222D01*
X83403159Y-25466222D01*
X83409763Y-25468678D01*
X83409765Y-25468679D01*
X83566558Y-25526990D01*
X83566560Y-25526990D01*
X83573168Y-25529448D01*
X83655255Y-25540401D01*
X83745980Y-25552507D01*
X83745984Y-25552507D01*
X83752961Y-25553438D01*
X83759972Y-25552800D01*
X83759976Y-25552800D01*
X83902459Y-25539832D01*
X83933600Y-25536998D01*
X83940302Y-25534820D01*
X83940304Y-25534820D01*
X84099409Y-25483124D01*
X84099412Y-25483123D01*
X84106108Y-25480947D01*
X84248166Y-25396263D01*
X84316918Y-25378564D01*
X84384328Y-25400846D01*
X84420456Y-25439221D01*
X84443276Y-25476902D01*
X84472800Y-25525651D01*
X84485380Y-25546424D01*
X84490269Y-25551487D01*
X84490270Y-25551488D01*
X84517271Y-25579448D01*
X84611382Y-25676902D01*
X84617278Y-25680760D01*
X84731288Y-25755366D01*
X84763159Y-25776222D01*
X84769763Y-25778678D01*
X84769765Y-25778679D01*
X84926558Y-25836990D01*
X84926560Y-25836990D01*
X84933168Y-25839448D01*
X85016995Y-25850633D01*
X85105980Y-25862507D01*
X85105984Y-25862507D01*
X85112961Y-25863438D01*
X85119972Y-25862800D01*
X85119976Y-25862800D01*
X85262459Y-25849832D01*
X85293600Y-25846998D01*
X85300302Y-25844820D01*
X85300304Y-25844820D01*
X85459409Y-25793124D01*
X85459412Y-25793123D01*
X85466108Y-25790947D01*
X85522277Y-25757463D01*
X85591030Y-25739764D01*
X85658440Y-25762046D01*
X85703102Y-25817235D01*
X85706351Y-25825920D01*
X85731418Y-25901273D01*
X85735065Y-25907295D01*
X85735066Y-25907297D01*
X85780348Y-25982066D01*
X85825380Y-26056424D01*
X85830269Y-26061487D01*
X85830270Y-26061488D01*
X85845357Y-26077111D01*
X85951382Y-26186902D01*
X85957278Y-26190760D01*
X86096278Y-26281719D01*
X86103159Y-26286222D01*
X86109763Y-26288678D01*
X86109765Y-26288679D01*
X86266558Y-26346990D01*
X86266560Y-26346990D01*
X86273168Y-26349448D01*
X86347521Y-26359369D01*
X86445980Y-26372507D01*
X86445984Y-26372507D01*
X86452961Y-26373438D01*
X86459972Y-26372800D01*
X86459976Y-26372800D01*
X86607548Y-26359369D01*
X86633600Y-26356998D01*
X86640302Y-26354820D01*
X86640304Y-26354820D01*
X86799409Y-26303124D01*
X86799412Y-26303123D01*
X86806108Y-26300947D01*
X86961912Y-26208069D01*
X87093266Y-26082982D01*
X87193643Y-25931902D01*
X87242002Y-25804598D01*
X87255555Y-25768920D01*
X87255556Y-25768918D01*
X87258055Y-25762338D01*
X87270775Y-25671834D01*
X87280726Y-25601025D01*
X87295418Y-25568583D01*
X87284604Y-25551757D01*
X87280285Y-25530304D01*
X87264182Y-25386744D01*
X87263397Y-25379745D01*
X87260268Y-25370760D01*
X87206064Y-25215106D01*
X87206062Y-25215103D01*
X87203745Y-25208448D01*
X87197644Y-25198684D01*
X87178500Y-25131918D01*
X87178500Y-24134155D01*
X87198502Y-24066034D01*
X87252158Y-24019541D01*
X87297036Y-24008500D01*
X87298134Y-24008500D01*
X87360316Y-24001745D01*
X87367716Y-23998971D01*
X87375400Y-23997144D01*
X87376152Y-24000305D01*
X87432037Y-23996195D01*
X87494417Y-24030095D01*
G37*
G04 #@! TD.AperFunction*
M02*
