M48
; DRILL file {KiCad 6.0.8} date Sun 09 Oct 2022 04:42:20 PM PDT
; FORMAT={-:-/ absolute / metric / decimal}
; #@! TF.CreationDate,2022-10-09T16:42:20-07:00
; #@! TF.GenerationSoftware,Kicad,Pcbnew,6.0.8
; #@! TF.FileFunction,Plated,1,2,PTH
FMAT,2
METRIC
; #@! TA.AperFunction,Plated,PTH,ViaDrill
T1C0.400
; #@! TA.AperFunction,Plated,PTH,ViaDrill
T2C0.800
%
G90
G05
T1
X76.2Y-47.498
X78.3Y-92.6
X78.486Y-55.626
X78.486Y-66.548
X78.486Y-76.962
X78.486Y-85.344
X79.72Y-48.02
X79.8Y-92.6
X81.3Y-92.6
X82.7Y-58.3
X82.8Y-92.6
X83.5Y-56.0
X83.77Y-24.74
X83.848Y-58.952
X84.3Y-92.6
X84.5Y-62.6
X84.6Y-60.7
X85.13Y-25.05
X85.7Y-66.69
X85.7Y-92.6
X86.2Y-55.4
X86.47Y-25.56
X87.17Y-34.19
X87.25Y-92.6
X87.4Y-65.66
X88.24Y-26.18
X88.5Y-56.0
X88.8Y-64.37
X88.8Y-92.6
X90.2Y-92.6
X90.6Y-56.0
X91.8Y-92.6
X93.3Y-92.6
X93.7Y-47.8
X94.7Y-92.6
X95.27Y-35.3
X96.2Y-47.8
X96.2Y-92.6
X97.7Y-92.6
X98.7Y-47.8
X99.06Y-90.17
X99.23Y-64.02
X99.3Y-92.6
X100.8Y-92.6
X101.3Y-47.8
X101.6Y-57.0
X102.006Y-56.086
X102.3Y-92.6
X103.5Y-62.1
X103.8Y-92.6
X103.86Y-42.3
X103.89Y-53.06
X104.1Y-56.8
X104.4Y-55.8
X104.5Y-62.7
X105.3Y-92.6
X105.5Y-63.3
X106.3Y-52.8
X106.48Y-42.16
X106.5Y-63.9
X106.8Y-92.6
X107.507Y-64.507
X107.54Y-24.85
X107.6Y-55.24
X108.25Y-92.6
X108.499Y-43.21
X108.5Y-65.1
X108.9Y-52.8
X109.08Y-26.26
X109.75Y-92.6
X110.72Y-27.45
X111.069Y-43.494
X111.25Y-92.6
X111.4Y-52.8
X112.19Y-28.99
X112.75Y-92.6
X113.48Y-31.03
X114.0Y-52.8
X114.25Y-92.6
X114.52Y-48.0
X114.86Y-29.95
X115.75Y-92.6
X116.002Y-42.96
X116.5Y-52.8
X116.81Y-24.79
X117.25Y-92.6
X117.83Y-31.03
X118.75Y-92.6
X119.0Y-52.8
X119.73Y-25.77
X120.25Y-92.6
X121.4Y-26.23
X121.75Y-92.6
X123.4Y-92.6
T2
X77.6Y-40.3
X100.0Y-40.2
X120.2Y-42.9
X120.3Y-59.0
X120.3Y-78.3
X120.3Y-86.1
X120.7Y-68.5
X122.3Y-48.8
X123.0Y-63.2
X123.3Y-54.9
X123.3Y-74.5
X123.4Y-90.2
X123.9Y-84.0
T0
M30
