%TF.GenerationSoftware,KiCad,Pcbnew,6.0.8*%
%TF.CreationDate,2022-10-09T16:42:21-07:00*%
%TF.ProjectId,interposer,696e7465-7270-46f7-9365-722e6b696361,v4.0*%
%TF.SameCoordinates,Original*%
%TF.FileFunction,Drillmap*%
%TF.FilePolarity,Positive*%
%FSLAX45Y45*%
G04 Gerber Fmt 4.5, Leading zero omitted, Abs format (unit mm)*
G04 Created by KiCad (PCBNEW 6.0.8) date 2022-10-09 16:42:21*
%MOMM*%
%LPD*%
G01*
G04 APERTURE LIST*
%ADD10C,0.150000*%
%ADD11C,0.200000*%
%ADD12C,0.230000*%
%ADD13C,0.720000*%
G04 APERTURE END LIST*
D10*
X7430000Y-9140000D02*
X7430000Y-3900000D01*
X6725000Y-450000D02*
X8225000Y-450000D01*
X12200000Y-2500000D02*
X13175000Y-2425000D01*
X7430000Y-3900000D02*
X7400000Y-2500000D01*
X7400000Y-2500000D02*
X6725000Y-2450000D01*
X12570000Y-9140000D02*
X12570000Y-4160000D01*
X7540000Y-10000000D02*
X12460000Y-10000000D01*
X13175000Y-450000D02*
X13125000Y-450000D01*
X13175000Y-2425000D02*
X13175000Y-950000D01*
X12460000Y-10000000D02*
X12460000Y-9140000D01*
X12170000Y-3900000D02*
X12170000Y-4160000D01*
X12460000Y-9140000D02*
X12570000Y-9140000D01*
X12570000Y-4160000D02*
X12170000Y-4160000D01*
X6725000Y-2450000D02*
X6725000Y-450000D01*
X7540000Y-9140000D02*
X7430000Y-9140000D01*
X7540000Y-10000000D02*
X7540000Y-9140000D01*
X13175000Y-950000D02*
X13175000Y-450000D01*
X8225000Y-450000D02*
X13125000Y-450000D01*
X12170000Y-3900000D02*
X12200000Y-2500000D01*
D11*
D12*
X9885000Y-5850000D02*
X10115000Y-6080000D01*
X10115000Y-5850000D02*
X9885000Y-6080000D01*
D13*
X10360000Y-8465000D02*
G75*
G03*
X10360000Y-8465000I-360000J0D01*
G01*
D11*
X6975119Y-10317976D02*
X6975119Y-10117976D01*
X7022738Y-10117976D01*
X7051309Y-10127500D01*
X7070357Y-10146548D01*
X7079881Y-10165595D01*
X7089405Y-10203690D01*
X7089405Y-10232262D01*
X7079881Y-10270357D01*
X7070357Y-10289405D01*
X7051309Y-10308452D01*
X7022738Y-10317976D01*
X6975119Y-10317976D01*
X7175119Y-10317976D02*
X7175119Y-10184643D01*
X7175119Y-10222738D02*
X7184643Y-10203690D01*
X7194167Y-10194167D01*
X7213214Y-10184643D01*
X7232262Y-10184643D01*
X7298928Y-10317976D02*
X7298928Y-10184643D01*
X7298928Y-10117976D02*
X7289405Y-10127500D01*
X7298928Y-10137024D01*
X7308452Y-10127500D01*
X7298928Y-10117976D01*
X7298928Y-10137024D01*
X7422738Y-10317976D02*
X7403690Y-10308452D01*
X7394167Y-10289405D01*
X7394167Y-10117976D01*
X7527500Y-10317976D02*
X7508452Y-10308452D01*
X7498928Y-10289405D01*
X7498928Y-10117976D01*
X7756071Y-10317976D02*
X7756071Y-10117976D01*
X7822738Y-10260833D01*
X7889405Y-10117976D01*
X7889405Y-10317976D01*
X8070357Y-10317976D02*
X8070357Y-10213214D01*
X8060833Y-10194167D01*
X8041786Y-10184643D01*
X8003690Y-10184643D01*
X7984643Y-10194167D01*
X8070357Y-10308452D02*
X8051309Y-10317976D01*
X8003690Y-10317976D01*
X7984643Y-10308452D01*
X7975119Y-10289405D01*
X7975119Y-10270357D01*
X7984643Y-10251310D01*
X8003690Y-10241786D01*
X8051309Y-10241786D01*
X8070357Y-10232262D01*
X8165595Y-10184643D02*
X8165595Y-10384643D01*
X8165595Y-10194167D02*
X8184643Y-10184643D01*
X8222738Y-10184643D01*
X8241786Y-10194167D01*
X8251309Y-10203690D01*
X8260833Y-10222738D01*
X8260833Y-10279881D01*
X8251309Y-10298929D01*
X8241786Y-10308452D01*
X8222738Y-10317976D01*
X8184643Y-10317976D01*
X8165595Y-10308452D01*
X8346548Y-10298929D02*
X8356071Y-10308452D01*
X8346548Y-10317976D01*
X8337024Y-10308452D01*
X8346548Y-10298929D01*
X8346548Y-10317976D01*
X8346548Y-10194167D02*
X8356071Y-10203690D01*
X8346548Y-10213214D01*
X8337024Y-10203690D01*
X8346548Y-10194167D01*
X8346548Y-10213214D01*
X6517500Y-10547500D02*
X6717500Y-10747500D01*
X6717500Y-10547500D02*
X6517500Y-10747500D01*
X6965595Y-10557024D02*
X6975119Y-10547500D01*
X6994167Y-10537976D01*
X7041786Y-10537976D01*
X7060833Y-10547500D01*
X7070357Y-10557024D01*
X7079881Y-10576071D01*
X7079881Y-10595119D01*
X7070357Y-10623690D01*
X6956071Y-10737976D01*
X7079881Y-10737976D01*
X7165595Y-10718929D02*
X7175119Y-10728452D01*
X7165595Y-10737976D01*
X7156071Y-10728452D01*
X7165595Y-10718929D01*
X7165595Y-10737976D01*
X7241786Y-10537976D02*
X7365595Y-10537976D01*
X7298928Y-10614167D01*
X7327500Y-10614167D01*
X7346548Y-10623690D01*
X7356071Y-10633214D01*
X7365595Y-10652262D01*
X7365595Y-10699881D01*
X7356071Y-10718929D01*
X7346548Y-10728452D01*
X7327500Y-10737976D01*
X7270357Y-10737976D01*
X7251309Y-10728452D01*
X7241786Y-10718929D01*
X7489405Y-10537976D02*
X7508452Y-10537976D01*
X7527500Y-10547500D01*
X7537024Y-10557024D01*
X7546548Y-10576071D01*
X7556071Y-10614167D01*
X7556071Y-10661786D01*
X7546548Y-10699881D01*
X7537024Y-10718929D01*
X7527500Y-10728452D01*
X7508452Y-10737976D01*
X7489405Y-10737976D01*
X7470357Y-10728452D01*
X7460833Y-10718929D01*
X7451309Y-10699881D01*
X7441786Y-10661786D01*
X7441786Y-10614167D01*
X7451309Y-10576071D01*
X7460833Y-10557024D01*
X7470357Y-10547500D01*
X7489405Y-10537976D01*
X7679881Y-10537976D02*
X7698928Y-10537976D01*
X7717976Y-10547500D01*
X7727500Y-10557024D01*
X7737024Y-10576071D01*
X7746548Y-10614167D01*
X7746548Y-10661786D01*
X7737024Y-10699881D01*
X7727500Y-10718929D01*
X7717976Y-10728452D01*
X7698928Y-10737976D01*
X7679881Y-10737976D01*
X7660833Y-10728452D01*
X7651309Y-10718929D01*
X7641786Y-10699881D01*
X7632262Y-10661786D01*
X7632262Y-10614167D01*
X7641786Y-10576071D01*
X7651309Y-10557024D01*
X7660833Y-10547500D01*
X7679881Y-10537976D01*
X7832262Y-10737976D02*
X7832262Y-10604643D01*
X7832262Y-10623690D02*
X7841786Y-10614167D01*
X7860833Y-10604643D01*
X7889405Y-10604643D01*
X7908452Y-10614167D01*
X7917976Y-10633214D01*
X7917976Y-10737976D01*
X7917976Y-10633214D02*
X7927500Y-10614167D01*
X7946548Y-10604643D01*
X7975119Y-10604643D01*
X7994167Y-10614167D01*
X8003690Y-10633214D01*
X8003690Y-10737976D01*
X8098928Y-10737976D02*
X8098928Y-10604643D01*
X8098928Y-10623690D02*
X8108452Y-10614167D01*
X8127500Y-10604643D01*
X8156071Y-10604643D01*
X8175119Y-10614167D01*
X8184643Y-10633214D01*
X8184643Y-10737976D01*
X8184643Y-10633214D02*
X8194167Y-10614167D01*
X8213214Y-10604643D01*
X8241786Y-10604643D01*
X8260833Y-10614167D01*
X8270357Y-10633214D01*
X8270357Y-10737976D01*
X8660833Y-10528452D02*
X8489405Y-10785595D01*
X8917976Y-10537976D02*
X8937024Y-10537976D01*
X8956071Y-10547500D01*
X8965595Y-10557024D01*
X8975119Y-10576071D01*
X8984643Y-10614167D01*
X8984643Y-10661786D01*
X8975119Y-10699881D01*
X8965595Y-10718929D01*
X8956071Y-10728452D01*
X8937024Y-10737976D01*
X8917976Y-10737976D01*
X8898929Y-10728452D01*
X8889405Y-10718929D01*
X8879881Y-10699881D01*
X8870357Y-10661786D01*
X8870357Y-10614167D01*
X8879881Y-10576071D01*
X8889405Y-10557024D01*
X8898929Y-10547500D01*
X8917976Y-10537976D01*
X9070357Y-10718929D02*
X9079881Y-10728452D01*
X9070357Y-10737976D01*
X9060833Y-10728452D01*
X9070357Y-10718929D01*
X9070357Y-10737976D01*
X9203690Y-10537976D02*
X9222738Y-10537976D01*
X9241786Y-10547500D01*
X9251310Y-10557024D01*
X9260833Y-10576071D01*
X9270357Y-10614167D01*
X9270357Y-10661786D01*
X9260833Y-10699881D01*
X9251310Y-10718929D01*
X9241786Y-10728452D01*
X9222738Y-10737976D01*
X9203690Y-10737976D01*
X9184643Y-10728452D01*
X9175119Y-10718929D01*
X9165595Y-10699881D01*
X9156071Y-10661786D01*
X9156071Y-10614167D01*
X9165595Y-10576071D01*
X9175119Y-10557024D01*
X9184643Y-10547500D01*
X9203690Y-10537976D01*
X9365595Y-10737976D02*
X9403690Y-10737976D01*
X9422738Y-10728452D01*
X9432262Y-10718929D01*
X9451310Y-10690357D01*
X9460833Y-10652262D01*
X9460833Y-10576071D01*
X9451310Y-10557024D01*
X9441786Y-10547500D01*
X9422738Y-10537976D01*
X9384643Y-10537976D01*
X9365595Y-10547500D01*
X9356071Y-10557024D01*
X9346548Y-10576071D01*
X9346548Y-10623690D01*
X9356071Y-10642738D01*
X9365595Y-10652262D01*
X9384643Y-10661786D01*
X9422738Y-10661786D01*
X9441786Y-10652262D01*
X9451310Y-10642738D01*
X9460833Y-10623690D01*
X9584643Y-10537976D02*
X9603690Y-10537976D01*
X9622738Y-10547500D01*
X9632262Y-10557024D01*
X9641786Y-10576071D01*
X9651310Y-10614167D01*
X9651310Y-10661786D01*
X9641786Y-10699881D01*
X9632262Y-10718929D01*
X9622738Y-10728452D01*
X9603690Y-10737976D01*
X9584643Y-10737976D01*
X9565595Y-10728452D01*
X9556071Y-10718929D01*
X9546548Y-10699881D01*
X9537024Y-10661786D01*
X9537024Y-10614167D01*
X9546548Y-10576071D01*
X9556071Y-10557024D01*
X9565595Y-10547500D01*
X9584643Y-10537976D01*
X9822738Y-10537976D02*
X9784643Y-10537976D01*
X9765595Y-10547500D01*
X9756071Y-10557024D01*
X9737024Y-10585595D01*
X9727500Y-10623690D01*
X9727500Y-10699881D01*
X9737024Y-10718929D01*
X9746548Y-10728452D01*
X9765595Y-10737976D01*
X9803690Y-10737976D01*
X9822738Y-10728452D01*
X9832262Y-10718929D01*
X9841786Y-10699881D01*
X9841786Y-10652262D01*
X9832262Y-10633214D01*
X9822738Y-10623690D01*
X9803690Y-10614167D01*
X9765595Y-10614167D01*
X9746548Y-10623690D01*
X9737024Y-10633214D01*
X9727500Y-10652262D01*
X9917976Y-10537976D02*
X9917976Y-10576071D01*
X9994167Y-10537976D02*
X9994167Y-10576071D01*
X10289405Y-10814167D02*
X10279881Y-10804643D01*
X10260833Y-10776071D01*
X10251310Y-10757024D01*
X10241786Y-10728452D01*
X10232262Y-10680833D01*
X10232262Y-10642738D01*
X10241786Y-10595119D01*
X10251310Y-10566548D01*
X10260833Y-10547500D01*
X10279881Y-10518929D01*
X10289405Y-10509405D01*
X10470357Y-10737976D02*
X10356071Y-10737976D01*
X10413214Y-10737976D02*
X10413214Y-10537976D01*
X10394167Y-10566548D01*
X10375119Y-10585595D01*
X10356071Y-10595119D01*
X10708452Y-10737976D02*
X10708452Y-10537976D01*
X10794167Y-10737976D02*
X10794167Y-10633214D01*
X10784643Y-10614167D01*
X10765595Y-10604643D01*
X10737024Y-10604643D01*
X10717976Y-10614167D01*
X10708452Y-10623690D01*
X10917976Y-10737976D02*
X10898929Y-10728452D01*
X10889405Y-10718929D01*
X10879881Y-10699881D01*
X10879881Y-10642738D01*
X10889405Y-10623690D01*
X10898929Y-10614167D01*
X10917976Y-10604643D01*
X10946548Y-10604643D01*
X10965595Y-10614167D01*
X10975119Y-10623690D01*
X10984643Y-10642738D01*
X10984643Y-10699881D01*
X10975119Y-10718929D01*
X10965595Y-10728452D01*
X10946548Y-10737976D01*
X10917976Y-10737976D01*
X11098929Y-10737976D02*
X11079881Y-10728452D01*
X11070357Y-10709405D01*
X11070357Y-10537976D01*
X11251309Y-10728452D02*
X11232262Y-10737976D01*
X11194167Y-10737976D01*
X11175119Y-10728452D01*
X11165595Y-10709405D01*
X11165595Y-10633214D01*
X11175119Y-10614167D01*
X11194167Y-10604643D01*
X11232262Y-10604643D01*
X11251309Y-10614167D01*
X11260833Y-10633214D01*
X11260833Y-10652262D01*
X11165595Y-10671310D01*
X11327500Y-10814167D02*
X11337024Y-10804643D01*
X11356071Y-10776071D01*
X11365595Y-10757024D01*
X11375119Y-10728452D01*
X11384643Y-10680833D01*
X11384643Y-10642738D01*
X11375119Y-10595119D01*
X11365595Y-10566548D01*
X11356071Y-10547500D01*
X11337024Y-10518929D01*
X11327500Y-10509405D01*
X11689405Y-10814167D02*
X11679881Y-10804643D01*
X11660833Y-10776071D01*
X11651309Y-10757024D01*
X11641786Y-10728452D01*
X11632262Y-10680833D01*
X11632262Y-10642738D01*
X11641786Y-10595119D01*
X11651309Y-10566548D01*
X11660833Y-10547500D01*
X11679881Y-10518929D01*
X11689405Y-10509405D01*
X11765595Y-10604643D02*
X11765595Y-10737976D01*
X11765595Y-10623690D02*
X11775119Y-10614167D01*
X11794167Y-10604643D01*
X11822738Y-10604643D01*
X11841786Y-10614167D01*
X11851309Y-10633214D01*
X11851309Y-10737976D01*
X11975119Y-10737976D02*
X11956071Y-10728452D01*
X11946548Y-10718929D01*
X11937024Y-10699881D01*
X11937024Y-10642738D01*
X11946548Y-10623690D01*
X11956071Y-10614167D01*
X11975119Y-10604643D01*
X12003690Y-10604643D01*
X12022738Y-10614167D01*
X12032262Y-10623690D01*
X12041786Y-10642738D01*
X12041786Y-10699881D01*
X12032262Y-10718929D01*
X12022738Y-10728452D01*
X12003690Y-10737976D01*
X11975119Y-10737976D01*
X12098928Y-10604643D02*
X12175119Y-10604643D01*
X12127500Y-10537976D02*
X12127500Y-10709405D01*
X12137024Y-10728452D01*
X12156071Y-10737976D01*
X12175119Y-10737976D01*
X12394167Y-10604643D02*
X12394167Y-10804643D01*
X12394167Y-10614167D02*
X12413214Y-10604643D01*
X12451309Y-10604643D01*
X12470357Y-10614167D01*
X12479881Y-10623690D01*
X12489405Y-10642738D01*
X12489405Y-10699881D01*
X12479881Y-10718929D01*
X12470357Y-10728452D01*
X12451309Y-10737976D01*
X12413214Y-10737976D01*
X12394167Y-10728452D01*
X12603690Y-10737976D02*
X12584643Y-10728452D01*
X12575119Y-10709405D01*
X12575119Y-10537976D01*
X12765595Y-10737976D02*
X12765595Y-10633214D01*
X12756071Y-10614167D01*
X12737024Y-10604643D01*
X12698928Y-10604643D01*
X12679881Y-10614167D01*
X12765595Y-10728452D02*
X12746548Y-10737976D01*
X12698928Y-10737976D01*
X12679881Y-10728452D01*
X12670357Y-10709405D01*
X12670357Y-10690357D01*
X12679881Y-10671310D01*
X12698928Y-10661786D01*
X12746548Y-10661786D01*
X12765595Y-10652262D01*
X12832262Y-10604643D02*
X12908452Y-10604643D01*
X12860833Y-10537976D02*
X12860833Y-10709405D01*
X12870357Y-10728452D01*
X12889405Y-10737976D01*
X12908452Y-10737976D01*
X13051309Y-10728452D02*
X13032262Y-10737976D01*
X12994167Y-10737976D01*
X12975119Y-10728452D01*
X12965595Y-10709405D01*
X12965595Y-10633214D01*
X12975119Y-10614167D01*
X12994167Y-10604643D01*
X13032262Y-10604643D01*
X13051309Y-10614167D01*
X13060833Y-10633214D01*
X13060833Y-10652262D01*
X12965595Y-10671310D01*
X13232262Y-10737976D02*
X13232262Y-10537976D01*
X13232262Y-10728452D02*
X13213214Y-10737976D01*
X13175119Y-10737976D01*
X13156071Y-10728452D01*
X13146548Y-10718929D01*
X13137024Y-10699881D01*
X13137024Y-10642738D01*
X13146548Y-10623690D01*
X13156071Y-10614167D01*
X13175119Y-10604643D01*
X13213214Y-10604643D01*
X13232262Y-10614167D01*
X13308452Y-10814167D02*
X13317976Y-10804643D01*
X13337024Y-10776071D01*
X13346548Y-10757024D01*
X13356071Y-10728452D01*
X13365595Y-10680833D01*
X13365595Y-10642738D01*
X13356071Y-10595119D01*
X13346548Y-10566548D01*
X13337024Y-10547500D01*
X13317976Y-10518929D01*
X13308452Y-10509405D01*
X6717500Y-10967500D02*
G75*
G03*
X6717500Y-10967500I-100000J0D01*
G01*
X6956071Y-10857976D02*
X7089405Y-10857976D01*
X7003690Y-11057976D01*
X7165595Y-11038929D02*
X7175119Y-11048452D01*
X7165595Y-11057976D01*
X7156071Y-11048452D01*
X7165595Y-11038929D01*
X7165595Y-11057976D01*
X7251309Y-10877024D02*
X7260833Y-10867500D01*
X7279881Y-10857976D01*
X7327500Y-10857976D01*
X7346548Y-10867500D01*
X7356071Y-10877024D01*
X7365595Y-10896071D01*
X7365595Y-10915119D01*
X7356071Y-10943690D01*
X7241786Y-11057976D01*
X7365595Y-11057976D01*
X7489405Y-10857976D02*
X7508452Y-10857976D01*
X7527500Y-10867500D01*
X7537024Y-10877024D01*
X7546548Y-10896071D01*
X7556071Y-10934167D01*
X7556071Y-10981786D01*
X7546548Y-11019881D01*
X7537024Y-11038929D01*
X7527500Y-11048452D01*
X7508452Y-11057976D01*
X7489405Y-11057976D01*
X7470357Y-11048452D01*
X7460833Y-11038929D01*
X7451309Y-11019881D01*
X7441786Y-10981786D01*
X7441786Y-10934167D01*
X7451309Y-10896071D01*
X7460833Y-10877024D01*
X7470357Y-10867500D01*
X7489405Y-10857976D01*
X7679881Y-10857976D02*
X7698928Y-10857976D01*
X7717976Y-10867500D01*
X7727500Y-10877024D01*
X7737024Y-10896071D01*
X7746548Y-10934167D01*
X7746548Y-10981786D01*
X7737024Y-11019881D01*
X7727500Y-11038929D01*
X7717976Y-11048452D01*
X7698928Y-11057976D01*
X7679881Y-11057976D01*
X7660833Y-11048452D01*
X7651309Y-11038929D01*
X7641786Y-11019881D01*
X7632262Y-10981786D01*
X7632262Y-10934167D01*
X7641786Y-10896071D01*
X7651309Y-10877024D01*
X7660833Y-10867500D01*
X7679881Y-10857976D01*
X7832262Y-11057976D02*
X7832262Y-10924643D01*
X7832262Y-10943690D02*
X7841786Y-10934167D01*
X7860833Y-10924643D01*
X7889405Y-10924643D01*
X7908452Y-10934167D01*
X7917976Y-10953214D01*
X7917976Y-11057976D01*
X7917976Y-10953214D02*
X7927500Y-10934167D01*
X7946548Y-10924643D01*
X7975119Y-10924643D01*
X7994167Y-10934167D01*
X8003690Y-10953214D01*
X8003690Y-11057976D01*
X8098928Y-11057976D02*
X8098928Y-10924643D01*
X8098928Y-10943690D02*
X8108452Y-10934167D01*
X8127500Y-10924643D01*
X8156071Y-10924643D01*
X8175119Y-10934167D01*
X8184643Y-10953214D01*
X8184643Y-11057976D01*
X8184643Y-10953214D02*
X8194167Y-10934167D01*
X8213214Y-10924643D01*
X8241786Y-10924643D01*
X8260833Y-10934167D01*
X8270357Y-10953214D01*
X8270357Y-11057976D01*
X8660833Y-10848452D02*
X8489405Y-11105595D01*
X8917976Y-10857976D02*
X8937024Y-10857976D01*
X8956071Y-10867500D01*
X8965595Y-10877024D01*
X8975119Y-10896071D01*
X8984643Y-10934167D01*
X8984643Y-10981786D01*
X8975119Y-11019881D01*
X8965595Y-11038929D01*
X8956071Y-11048452D01*
X8937024Y-11057976D01*
X8917976Y-11057976D01*
X8898929Y-11048452D01*
X8889405Y-11038929D01*
X8879881Y-11019881D01*
X8870357Y-10981786D01*
X8870357Y-10934167D01*
X8879881Y-10896071D01*
X8889405Y-10877024D01*
X8898929Y-10867500D01*
X8917976Y-10857976D01*
X9070357Y-11038929D02*
X9079881Y-11048452D01*
X9070357Y-11057976D01*
X9060833Y-11048452D01*
X9070357Y-11038929D01*
X9070357Y-11057976D01*
X9156071Y-10877024D02*
X9165595Y-10867500D01*
X9184643Y-10857976D01*
X9232262Y-10857976D01*
X9251310Y-10867500D01*
X9260833Y-10877024D01*
X9270357Y-10896071D01*
X9270357Y-10915119D01*
X9260833Y-10943690D01*
X9146548Y-11057976D01*
X9270357Y-11057976D01*
X9384643Y-10943690D02*
X9365595Y-10934167D01*
X9356071Y-10924643D01*
X9346548Y-10905595D01*
X9346548Y-10896071D01*
X9356071Y-10877024D01*
X9365595Y-10867500D01*
X9384643Y-10857976D01*
X9422738Y-10857976D01*
X9441786Y-10867500D01*
X9451310Y-10877024D01*
X9460833Y-10896071D01*
X9460833Y-10905595D01*
X9451310Y-10924643D01*
X9441786Y-10934167D01*
X9422738Y-10943690D01*
X9384643Y-10943690D01*
X9365595Y-10953214D01*
X9356071Y-10962738D01*
X9346548Y-10981786D01*
X9346548Y-11019881D01*
X9356071Y-11038929D01*
X9365595Y-11048452D01*
X9384643Y-11057976D01*
X9422738Y-11057976D01*
X9441786Y-11048452D01*
X9451310Y-11038929D01*
X9460833Y-11019881D01*
X9460833Y-10981786D01*
X9451310Y-10962738D01*
X9441786Y-10953214D01*
X9422738Y-10943690D01*
X9527500Y-10857976D02*
X9651310Y-10857976D01*
X9584643Y-10934167D01*
X9613214Y-10934167D01*
X9632262Y-10943690D01*
X9641786Y-10953214D01*
X9651310Y-10972262D01*
X9651310Y-11019881D01*
X9641786Y-11038929D01*
X9632262Y-11048452D01*
X9613214Y-11057976D01*
X9556071Y-11057976D01*
X9537024Y-11048452D01*
X9527500Y-11038929D01*
X9832262Y-10857976D02*
X9737024Y-10857976D01*
X9727500Y-10953214D01*
X9737024Y-10943690D01*
X9756071Y-10934167D01*
X9803690Y-10934167D01*
X9822738Y-10943690D01*
X9832262Y-10953214D01*
X9841786Y-10972262D01*
X9841786Y-11019881D01*
X9832262Y-11038929D01*
X9822738Y-11048452D01*
X9803690Y-11057976D01*
X9756071Y-11057976D01*
X9737024Y-11048452D01*
X9727500Y-11038929D01*
X9917976Y-10857976D02*
X9917976Y-10896071D01*
X9994167Y-10857976D02*
X9994167Y-10896071D01*
X10289405Y-11134167D02*
X10279881Y-11124643D01*
X10260833Y-11096071D01*
X10251310Y-11077024D01*
X10241786Y-11048452D01*
X10232262Y-11000833D01*
X10232262Y-10962738D01*
X10241786Y-10915119D01*
X10251310Y-10886548D01*
X10260833Y-10867500D01*
X10279881Y-10838929D01*
X10289405Y-10829405D01*
X10470357Y-11057976D02*
X10356071Y-11057976D01*
X10413214Y-11057976D02*
X10413214Y-10857976D01*
X10394167Y-10886548D01*
X10375119Y-10905595D01*
X10356071Y-10915119D01*
X10708452Y-11057976D02*
X10708452Y-10857976D01*
X10794167Y-11057976D02*
X10794167Y-10953214D01*
X10784643Y-10934167D01*
X10765595Y-10924643D01*
X10737024Y-10924643D01*
X10717976Y-10934167D01*
X10708452Y-10943690D01*
X10917976Y-11057976D02*
X10898929Y-11048452D01*
X10889405Y-11038929D01*
X10879881Y-11019881D01*
X10879881Y-10962738D01*
X10889405Y-10943690D01*
X10898929Y-10934167D01*
X10917976Y-10924643D01*
X10946548Y-10924643D01*
X10965595Y-10934167D01*
X10975119Y-10943690D01*
X10984643Y-10962738D01*
X10984643Y-11019881D01*
X10975119Y-11038929D01*
X10965595Y-11048452D01*
X10946548Y-11057976D01*
X10917976Y-11057976D01*
X11098929Y-11057976D02*
X11079881Y-11048452D01*
X11070357Y-11029405D01*
X11070357Y-10857976D01*
X11251309Y-11048452D02*
X11232262Y-11057976D01*
X11194167Y-11057976D01*
X11175119Y-11048452D01*
X11165595Y-11029405D01*
X11165595Y-10953214D01*
X11175119Y-10934167D01*
X11194167Y-10924643D01*
X11232262Y-10924643D01*
X11251309Y-10934167D01*
X11260833Y-10953214D01*
X11260833Y-10972262D01*
X11165595Y-10991310D01*
X11327500Y-11134167D02*
X11337024Y-11124643D01*
X11356071Y-11096071D01*
X11365595Y-11077024D01*
X11375119Y-11048452D01*
X11384643Y-11000833D01*
X11384643Y-10962738D01*
X11375119Y-10915119D01*
X11365595Y-10886548D01*
X11356071Y-10867500D01*
X11337024Y-10838929D01*
X11327500Y-10829405D01*
X11689405Y-11134167D02*
X11679881Y-11124643D01*
X11660833Y-11096071D01*
X11651309Y-11077024D01*
X11641786Y-11048452D01*
X11632262Y-11000833D01*
X11632262Y-10962738D01*
X11641786Y-10915119D01*
X11651309Y-10886548D01*
X11660833Y-10867500D01*
X11679881Y-10838929D01*
X11689405Y-10829405D01*
X11765595Y-10924643D02*
X11765595Y-11057976D01*
X11765595Y-10943690D02*
X11775119Y-10934167D01*
X11794167Y-10924643D01*
X11822738Y-10924643D01*
X11841786Y-10934167D01*
X11851309Y-10953214D01*
X11851309Y-11057976D01*
X11975119Y-11057976D02*
X11956071Y-11048452D01*
X11946548Y-11038929D01*
X11937024Y-11019881D01*
X11937024Y-10962738D01*
X11946548Y-10943690D01*
X11956071Y-10934167D01*
X11975119Y-10924643D01*
X12003690Y-10924643D01*
X12022738Y-10934167D01*
X12032262Y-10943690D01*
X12041786Y-10962738D01*
X12041786Y-11019881D01*
X12032262Y-11038929D01*
X12022738Y-11048452D01*
X12003690Y-11057976D01*
X11975119Y-11057976D01*
X12098928Y-10924643D02*
X12175119Y-10924643D01*
X12127500Y-10857976D02*
X12127500Y-11029405D01*
X12137024Y-11048452D01*
X12156071Y-11057976D01*
X12175119Y-11057976D01*
X12394167Y-10924643D02*
X12394167Y-11124643D01*
X12394167Y-10934167D02*
X12413214Y-10924643D01*
X12451309Y-10924643D01*
X12470357Y-10934167D01*
X12479881Y-10943690D01*
X12489405Y-10962738D01*
X12489405Y-11019881D01*
X12479881Y-11038929D01*
X12470357Y-11048452D01*
X12451309Y-11057976D01*
X12413214Y-11057976D01*
X12394167Y-11048452D01*
X12603690Y-11057976D02*
X12584643Y-11048452D01*
X12575119Y-11029405D01*
X12575119Y-10857976D01*
X12765595Y-11057976D02*
X12765595Y-10953214D01*
X12756071Y-10934167D01*
X12737024Y-10924643D01*
X12698928Y-10924643D01*
X12679881Y-10934167D01*
X12765595Y-11048452D02*
X12746548Y-11057976D01*
X12698928Y-11057976D01*
X12679881Y-11048452D01*
X12670357Y-11029405D01*
X12670357Y-11010357D01*
X12679881Y-10991310D01*
X12698928Y-10981786D01*
X12746548Y-10981786D01*
X12765595Y-10972262D01*
X12832262Y-10924643D02*
X12908452Y-10924643D01*
X12860833Y-10857976D02*
X12860833Y-11029405D01*
X12870357Y-11048452D01*
X12889405Y-11057976D01*
X12908452Y-11057976D01*
X13051309Y-11048452D02*
X13032262Y-11057976D01*
X12994167Y-11057976D01*
X12975119Y-11048452D01*
X12965595Y-11029405D01*
X12965595Y-10953214D01*
X12975119Y-10934167D01*
X12994167Y-10924643D01*
X13032262Y-10924643D01*
X13051309Y-10934167D01*
X13060833Y-10953214D01*
X13060833Y-10972262D01*
X12965595Y-10991310D01*
X13232262Y-11057976D02*
X13232262Y-10857976D01*
X13232262Y-11048452D02*
X13213214Y-11057976D01*
X13175119Y-11057976D01*
X13156071Y-11048452D01*
X13146548Y-11038929D01*
X13137024Y-11019881D01*
X13137024Y-10962738D01*
X13146548Y-10943690D01*
X13156071Y-10934167D01*
X13175119Y-10924643D01*
X13213214Y-10924643D01*
X13232262Y-10934167D01*
X13308452Y-11134167D02*
X13317976Y-11124643D01*
X13337024Y-11096071D01*
X13346548Y-11077024D01*
X13356071Y-11048452D01*
X13365595Y-11000833D01*
X13365595Y-10962738D01*
X13356071Y-10915119D01*
X13346548Y-10886548D01*
X13337024Y-10867500D01*
X13317976Y-10838929D01*
X13308452Y-10829405D01*
M02*
