%TF.GenerationSoftware,KiCad,Pcbnew,6.0.8*%
%TF.CreationDate,2022-10-09T16:42:21-07:00*%
%TF.ProjectId,interposer,696e7465-7270-46f7-9365-722e6b696361,v4.0*%
%TF.SameCoordinates,Original*%
%TF.FileFunction,Drillmap*%
%TF.FilePolarity,Positive*%
%FSLAX45Y45*%
G04 Gerber Fmt 4.5, Leading zero omitted, Abs format (unit mm)*
G04 Created by KiCad (PCBNEW 6.0.8) date 2022-10-09 16:42:21*
%MOMM*%
%LPD*%
G01*
G04 APERTURE LIST*
%ADD10C,0.150000*%
%ADD11C,0.200000*%
%ADD12C,0.040000*%
%ADD13C,0.080000*%
G04 APERTURE END LIST*
D10*
X7430000Y-9140000D02*
X7430000Y-3900000D01*
X6725000Y-450000D02*
X8225000Y-450000D01*
X12200000Y-2500000D02*
X13175000Y-2425000D01*
X7430000Y-3900000D02*
X7400000Y-2500000D01*
X7400000Y-2500000D02*
X6725000Y-2450000D01*
X12570000Y-9140000D02*
X12570000Y-4160000D01*
X7540000Y-10000000D02*
X12460000Y-10000000D01*
X13175000Y-450000D02*
X13125000Y-450000D01*
X13175000Y-2425000D02*
X13175000Y-950000D01*
X12460000Y-10000000D02*
X12460000Y-9140000D01*
X12170000Y-3900000D02*
X12170000Y-4160000D01*
X12460000Y-9140000D02*
X12570000Y-9140000D01*
X12570000Y-4160000D02*
X12170000Y-4160000D01*
X6725000Y-2450000D02*
X6725000Y-450000D01*
X7540000Y-9140000D02*
X7430000Y-9140000D01*
X7540000Y-10000000D02*
X7540000Y-9140000D01*
X13175000Y-950000D02*
X13175000Y-450000D01*
X8225000Y-450000D02*
X13125000Y-450000D01*
X12170000Y-3900000D02*
X12200000Y-2500000D01*
D11*
D12*
X7600000Y-4729800D02*
X7640000Y-4769800D01*
X7640000Y-4729800D02*
X7600000Y-4769800D01*
X7810000Y-9240000D02*
X7850000Y-9280000D01*
X7850000Y-9240000D02*
X7810000Y-9280000D01*
X7828600Y-5542600D02*
X7868600Y-5582600D01*
X7868600Y-5542600D02*
X7828600Y-5582600D01*
X7828600Y-6634800D02*
X7868600Y-6674800D01*
X7868600Y-6634800D02*
X7828600Y-6674800D01*
X7828600Y-7676200D02*
X7868600Y-7716200D01*
X7868600Y-7676200D02*
X7828600Y-7716200D01*
X7828600Y-8514400D02*
X7868600Y-8554400D01*
X7868600Y-8514400D02*
X7828600Y-8554400D01*
X7952000Y-4782000D02*
X7992000Y-4822000D01*
X7992000Y-4782000D02*
X7952000Y-4822000D01*
X7960000Y-9240000D02*
X8000000Y-9280000D01*
X8000000Y-9240000D02*
X7960000Y-9280000D01*
X8110000Y-9240000D02*
X8150000Y-9280000D01*
X8150000Y-9240000D02*
X8110000Y-9280000D01*
X8250000Y-5810000D02*
X8290000Y-5850000D01*
X8290000Y-5810000D02*
X8250000Y-5850000D01*
X8260000Y-9240000D02*
X8300000Y-9280000D01*
X8300000Y-9240000D02*
X8260000Y-9280000D01*
X8330000Y-5580000D02*
X8370000Y-5620000D01*
X8370000Y-5580000D02*
X8330000Y-5620000D01*
X8357000Y-2454000D02*
X8397000Y-2494000D01*
X8397000Y-2454000D02*
X8357000Y-2494000D01*
X8364760Y-5875240D02*
X8404760Y-5915240D01*
X8404760Y-5875240D02*
X8364760Y-5915240D01*
X8410000Y-9240000D02*
X8450000Y-9280000D01*
X8450000Y-9240000D02*
X8410000Y-9280000D01*
X8430000Y-6240000D02*
X8470000Y-6280000D01*
X8470000Y-6240000D02*
X8430000Y-6280000D01*
X8440000Y-6050000D02*
X8480000Y-6090000D01*
X8480000Y-6050000D02*
X8440000Y-6090000D01*
X8493000Y-2485000D02*
X8533000Y-2525000D01*
X8533000Y-2485000D02*
X8493000Y-2525000D01*
X8550000Y-6649000D02*
X8590000Y-6689000D01*
X8590000Y-6649000D02*
X8550000Y-6689000D01*
X8550000Y-9240000D02*
X8590000Y-9280000D01*
X8590000Y-9240000D02*
X8550000Y-9280000D01*
X8600000Y-5520000D02*
X8640000Y-5560000D01*
X8640000Y-5520000D02*
X8600000Y-5560000D01*
X8627000Y-2536000D02*
X8667000Y-2576000D01*
X8667000Y-2536000D02*
X8627000Y-2576000D01*
X8697000Y-3399000D02*
X8737000Y-3439000D01*
X8737000Y-3399000D02*
X8697000Y-3439000D01*
X8705000Y-9240000D02*
X8745000Y-9280000D01*
X8745000Y-9240000D02*
X8705000Y-9280000D01*
X8720000Y-6546000D02*
X8760000Y-6586000D01*
X8760000Y-6546000D02*
X8720000Y-6586000D01*
X8804000Y-2598000D02*
X8844000Y-2638000D01*
X8844000Y-2598000D02*
X8804000Y-2638000D01*
X8830000Y-5580000D02*
X8870000Y-5620000D01*
X8870000Y-5580000D02*
X8830000Y-5620000D01*
X8860000Y-6417000D02*
X8900000Y-6457000D01*
X8900000Y-6417000D02*
X8860000Y-6457000D01*
X8860000Y-9240000D02*
X8900000Y-9280000D01*
X8900000Y-9240000D02*
X8860000Y-9280000D01*
X9000000Y-9240000D02*
X9040000Y-9280000D01*
X9040000Y-9240000D02*
X9000000Y-9280000D01*
X9040000Y-5580000D02*
X9080000Y-5620000D01*
X9080000Y-5580000D02*
X9040000Y-5620000D01*
X9160000Y-9240000D02*
X9200000Y-9280000D01*
X9200000Y-9240000D02*
X9160000Y-9280000D01*
X9310000Y-9240000D02*
X9350000Y-9280000D01*
X9350000Y-9240000D02*
X9310000Y-9280000D01*
X9350000Y-4760000D02*
X9390000Y-4800000D01*
X9390000Y-4760000D02*
X9350000Y-4800000D01*
X9450000Y-9240000D02*
X9490000Y-9280000D01*
X9490000Y-9240000D02*
X9450000Y-9280000D01*
X9507000Y-3510000D02*
X9547000Y-3550000D01*
X9547000Y-3510000D02*
X9507000Y-3550000D01*
X9600000Y-4760000D02*
X9640000Y-4800000D01*
X9640000Y-4760000D02*
X9600000Y-4800000D01*
X9600000Y-9240000D02*
X9640000Y-9280000D01*
X9640000Y-9240000D02*
X9600000Y-9280000D01*
X9750000Y-9240000D02*
X9790000Y-9280000D01*
X9790000Y-9240000D02*
X9750000Y-9280000D01*
X9850000Y-4760000D02*
X9890000Y-4800000D01*
X9890000Y-4760000D02*
X9850000Y-4800000D01*
X9886000Y-8997000D02*
X9926000Y-9037000D01*
X9926000Y-8997000D02*
X9886000Y-9037000D01*
X9903000Y-6382000D02*
X9943000Y-6422000D01*
X9943000Y-6382000D02*
X9903000Y-6422000D01*
X9910000Y-9240000D02*
X9950000Y-9280000D01*
X9950000Y-9240000D02*
X9910000Y-9280000D01*
X10060000Y-9240000D02*
X10100000Y-9280000D01*
X10100000Y-9240000D02*
X10060000Y-9280000D01*
X10110000Y-4760000D02*
X10150000Y-4800000D01*
X10150000Y-4760000D02*
X10110000Y-4800000D01*
X10140000Y-5680000D02*
X10180000Y-5720000D01*
X10180000Y-5680000D02*
X10140000Y-5720000D01*
X10180614Y-5588619D02*
X10220614Y-5628619D01*
X10220614Y-5588619D02*
X10180614Y-5628619D01*
X10210000Y-9240000D02*
X10250000Y-9280000D01*
X10250000Y-9240000D02*
X10210000Y-9280000D01*
X10330000Y-6190000D02*
X10370000Y-6230000D01*
X10370000Y-6190000D02*
X10330000Y-6230000D01*
X10360000Y-9240000D02*
X10400000Y-9280000D01*
X10400000Y-9240000D02*
X10360000Y-9280000D01*
X10366000Y-4210000D02*
X10406000Y-4250000D01*
X10406000Y-4210000D02*
X10366000Y-4250000D01*
X10369000Y-5286000D02*
X10409000Y-5326000D01*
X10409000Y-5286000D02*
X10369000Y-5326000D01*
X10390000Y-5660000D02*
X10430000Y-5700000D01*
X10430000Y-5660000D02*
X10390000Y-5700000D01*
X10420000Y-5560000D02*
X10460000Y-5600000D01*
X10460000Y-5560000D02*
X10420000Y-5600000D01*
X10429999Y-6250000D02*
X10469999Y-6290000D01*
X10469999Y-6250000D02*
X10429999Y-6290000D01*
X10510000Y-9240000D02*
X10550000Y-9280000D01*
X10550000Y-9240000D02*
X10510000Y-9280000D01*
X10530000Y-6310000D02*
X10570000Y-6350000D01*
X10570000Y-6310000D02*
X10530000Y-6350000D01*
X10610000Y-5260000D02*
X10650000Y-5300000D01*
X10650000Y-5260000D02*
X10610000Y-5300000D01*
X10628000Y-4196000D02*
X10668000Y-4236000D01*
X10668000Y-4196000D02*
X10628000Y-4236000D01*
X10629999Y-6370000D02*
X10669999Y-6410000D01*
X10669999Y-6370000D02*
X10629999Y-6410000D01*
X10660000Y-9240000D02*
X10700000Y-9280000D01*
X10700000Y-9240000D02*
X10660000Y-9280000D01*
X10730712Y-6430711D02*
X10770712Y-6470711D01*
X10770712Y-6430711D02*
X10730712Y-6470711D01*
X10734000Y-2465000D02*
X10774000Y-2505000D01*
X10774000Y-2465000D02*
X10734000Y-2505000D01*
X10740000Y-5504000D02*
X10780000Y-5544000D01*
X10780000Y-5504000D02*
X10740000Y-5544000D01*
X10805000Y-9240000D02*
X10845000Y-9280000D01*
X10845000Y-9240000D02*
X10805000Y-9280000D01*
X10829950Y-4301000D02*
X10869950Y-4341000D01*
X10869950Y-4301000D02*
X10829950Y-4341000D01*
X10830000Y-6490000D02*
X10870000Y-6530000D01*
X10870000Y-6490000D02*
X10830000Y-6530000D01*
X10870000Y-5260000D02*
X10910000Y-5300000D01*
X10910000Y-5260000D02*
X10870000Y-5300000D01*
X10888000Y-2606000D02*
X10928000Y-2646000D01*
X10928000Y-2606000D02*
X10888000Y-2646000D01*
X10955000Y-9240000D02*
X10995000Y-9280000D01*
X10995000Y-9240000D02*
X10955000Y-9280000D01*
X11052000Y-2725000D02*
X11092000Y-2765000D01*
X11092000Y-2725000D02*
X11052000Y-2765000D01*
X11086950Y-4329366D02*
X11126950Y-4369366D01*
X11126950Y-4329366D02*
X11086950Y-4369366D01*
X11105000Y-9240000D02*
X11145000Y-9280000D01*
X11145000Y-9240000D02*
X11105000Y-9280000D01*
X11120000Y-5260000D02*
X11160000Y-5300000D01*
X11160000Y-5260000D02*
X11120000Y-5300000D01*
X11199000Y-2879000D02*
X11239000Y-2919000D01*
X11239000Y-2879000D02*
X11199000Y-2919000D01*
X11255000Y-9240000D02*
X11295000Y-9280000D01*
X11295000Y-9240000D02*
X11255000Y-9280000D01*
X11328000Y-3083000D02*
X11368000Y-3123000D01*
X11368000Y-3083000D02*
X11328000Y-3123000D01*
X11380000Y-5260000D02*
X11420000Y-5300000D01*
X11420000Y-5260000D02*
X11380000Y-5300000D01*
X11405000Y-9240000D02*
X11445000Y-9280000D01*
X11445000Y-9240000D02*
X11405000Y-9280000D01*
X11432000Y-4780000D02*
X11472000Y-4820000D01*
X11472000Y-4780000D02*
X11432000Y-4820000D01*
X11466000Y-2975000D02*
X11506000Y-3015000D01*
X11506000Y-2975000D02*
X11466000Y-3015000D01*
X11555000Y-9240000D02*
X11595000Y-9280000D01*
X11595000Y-9240000D02*
X11555000Y-9280000D01*
X11580214Y-4276047D02*
X11620214Y-4316047D01*
X11620214Y-4276047D02*
X11580214Y-4316047D01*
X11630000Y-5260000D02*
X11670000Y-5300000D01*
X11670000Y-5260000D02*
X11630000Y-5300000D01*
X11661000Y-2459000D02*
X11701000Y-2499000D01*
X11701000Y-2459000D02*
X11661000Y-2499000D01*
X11705000Y-9240000D02*
X11745000Y-9280000D01*
X11745000Y-9240000D02*
X11705000Y-9280000D01*
X11763000Y-3083000D02*
X11803000Y-3123000D01*
X11803000Y-3083000D02*
X11763000Y-3123000D01*
X11855000Y-9240000D02*
X11895000Y-9280000D01*
X11895000Y-9240000D02*
X11855000Y-9280000D01*
X11880000Y-5260000D02*
X11920000Y-5300000D01*
X11920000Y-5260000D02*
X11880000Y-5300000D01*
X11953000Y-2557000D02*
X11993000Y-2597000D01*
X11993000Y-2557000D02*
X11953000Y-2597000D01*
X12005000Y-9240000D02*
X12045000Y-9280000D01*
X12045000Y-9240000D02*
X12005000Y-9280000D01*
X12120000Y-2603000D02*
X12160000Y-2643000D01*
X12160000Y-2603000D02*
X12120000Y-2643000D01*
X12155000Y-9240000D02*
X12195000Y-9280000D01*
X12195000Y-9240000D02*
X12155000Y-9280000D01*
X12320000Y-9240000D02*
X12360000Y-9280000D01*
X12360000Y-9240000D02*
X12320000Y-9280000D01*
D13*
X7800000Y-4030000D02*
G75*
G03*
X7800000Y-4030000I-40000J0D01*
G01*
X10040000Y-4020000D02*
G75*
G03*
X10040000Y-4020000I-40000J0D01*
G01*
X12060000Y-4290000D02*
G75*
G03*
X12060000Y-4290000I-40000J0D01*
G01*
X12070000Y-5900000D02*
G75*
G03*
X12070000Y-5900000I-40000J0D01*
G01*
X12070000Y-7830000D02*
G75*
G03*
X12070000Y-7830000I-40000J0D01*
G01*
X12070000Y-8610000D02*
G75*
G03*
X12070000Y-8610000I-40000J0D01*
G01*
X12110000Y-6850000D02*
G75*
G03*
X12110000Y-6850000I-40000J0D01*
G01*
X12270000Y-4880000D02*
G75*
G03*
X12270000Y-4880000I-40000J0D01*
G01*
X12340000Y-6320000D02*
G75*
G03*
X12340000Y-6320000I-40000J0D01*
G01*
X12370000Y-5490000D02*
G75*
G03*
X12370000Y-5490000I-40000J0D01*
G01*
X12370000Y-7450000D02*
G75*
G03*
X12370000Y-7450000I-40000J0D01*
G01*
X12380000Y-9020000D02*
G75*
G03*
X12380000Y-9020000I-40000J0D01*
G01*
X12430000Y-8400000D02*
G75*
G03*
X12430000Y-8400000I-40000J0D01*
G01*
D11*
X6975119Y-10317976D02*
X6975119Y-10117976D01*
X7022738Y-10117976D01*
X7051309Y-10127500D01*
X7070357Y-10146548D01*
X7079881Y-10165595D01*
X7089405Y-10203690D01*
X7089405Y-10232262D01*
X7079881Y-10270357D01*
X7070357Y-10289405D01*
X7051309Y-10308452D01*
X7022738Y-10317976D01*
X6975119Y-10317976D01*
X7175119Y-10317976D02*
X7175119Y-10184643D01*
X7175119Y-10222738D02*
X7184643Y-10203690D01*
X7194167Y-10194167D01*
X7213214Y-10184643D01*
X7232262Y-10184643D01*
X7298928Y-10317976D02*
X7298928Y-10184643D01*
X7298928Y-10117976D02*
X7289405Y-10127500D01*
X7298928Y-10137024D01*
X7308452Y-10127500D01*
X7298928Y-10117976D01*
X7298928Y-10137024D01*
X7422738Y-10317976D02*
X7403690Y-10308452D01*
X7394167Y-10289405D01*
X7394167Y-10117976D01*
X7527500Y-10317976D02*
X7508452Y-10308452D01*
X7498928Y-10289405D01*
X7498928Y-10117976D01*
X7756071Y-10317976D02*
X7756071Y-10117976D01*
X7822738Y-10260833D01*
X7889405Y-10117976D01*
X7889405Y-10317976D01*
X8070357Y-10317976D02*
X8070357Y-10213214D01*
X8060833Y-10194167D01*
X8041786Y-10184643D01*
X8003690Y-10184643D01*
X7984643Y-10194167D01*
X8070357Y-10308452D02*
X8051309Y-10317976D01*
X8003690Y-10317976D01*
X7984643Y-10308452D01*
X7975119Y-10289405D01*
X7975119Y-10270357D01*
X7984643Y-10251310D01*
X8003690Y-10241786D01*
X8051309Y-10241786D01*
X8070357Y-10232262D01*
X8165595Y-10184643D02*
X8165595Y-10384643D01*
X8165595Y-10194167D02*
X8184643Y-10184643D01*
X8222738Y-10184643D01*
X8241786Y-10194167D01*
X8251309Y-10203690D01*
X8260833Y-10222738D01*
X8260833Y-10279881D01*
X8251309Y-10298929D01*
X8241786Y-10308452D01*
X8222738Y-10317976D01*
X8184643Y-10317976D01*
X8165595Y-10308452D01*
X8346548Y-10298929D02*
X8356071Y-10308452D01*
X8346548Y-10317976D01*
X8337024Y-10308452D01*
X8346548Y-10298929D01*
X8346548Y-10317976D01*
X8346548Y-10194167D02*
X8356071Y-10203690D01*
X8346548Y-10213214D01*
X8337024Y-10203690D01*
X8346548Y-10194167D01*
X8346548Y-10213214D01*
D12*
X6677500Y-10627500D02*
X6717500Y-10667500D01*
X6717500Y-10627500D02*
X6677500Y-10667500D01*
D11*
X7013214Y-10537976D02*
X7032262Y-10537976D01*
X7051309Y-10547500D01*
X7060833Y-10557024D01*
X7070357Y-10576071D01*
X7079881Y-10614167D01*
X7079881Y-10661786D01*
X7070357Y-10699881D01*
X7060833Y-10718929D01*
X7051309Y-10728452D01*
X7032262Y-10737976D01*
X7013214Y-10737976D01*
X6994167Y-10728452D01*
X6984643Y-10718929D01*
X6975119Y-10699881D01*
X6965595Y-10661786D01*
X6965595Y-10614167D01*
X6975119Y-10576071D01*
X6984643Y-10557024D01*
X6994167Y-10547500D01*
X7013214Y-10537976D01*
X7165595Y-10718929D02*
X7175119Y-10728452D01*
X7165595Y-10737976D01*
X7156071Y-10728452D01*
X7165595Y-10718929D01*
X7165595Y-10737976D01*
X7346548Y-10604643D02*
X7346548Y-10737976D01*
X7298928Y-10528452D02*
X7251309Y-10671310D01*
X7375119Y-10671310D01*
X7489405Y-10537976D02*
X7508452Y-10537976D01*
X7527500Y-10547500D01*
X7537024Y-10557024D01*
X7546548Y-10576071D01*
X7556071Y-10614167D01*
X7556071Y-10661786D01*
X7546548Y-10699881D01*
X7537024Y-10718929D01*
X7527500Y-10728452D01*
X7508452Y-10737976D01*
X7489405Y-10737976D01*
X7470357Y-10728452D01*
X7460833Y-10718929D01*
X7451309Y-10699881D01*
X7441786Y-10661786D01*
X7441786Y-10614167D01*
X7451309Y-10576071D01*
X7460833Y-10557024D01*
X7470357Y-10547500D01*
X7489405Y-10537976D01*
X7679881Y-10537976D02*
X7698928Y-10537976D01*
X7717976Y-10547500D01*
X7727500Y-10557024D01*
X7737024Y-10576071D01*
X7746548Y-10614167D01*
X7746548Y-10661786D01*
X7737024Y-10699881D01*
X7727500Y-10718929D01*
X7717976Y-10728452D01*
X7698928Y-10737976D01*
X7679881Y-10737976D01*
X7660833Y-10728452D01*
X7651309Y-10718929D01*
X7641786Y-10699881D01*
X7632262Y-10661786D01*
X7632262Y-10614167D01*
X7641786Y-10576071D01*
X7651309Y-10557024D01*
X7660833Y-10547500D01*
X7679881Y-10537976D01*
X7832262Y-10737976D02*
X7832262Y-10604643D01*
X7832262Y-10623690D02*
X7841786Y-10614167D01*
X7860833Y-10604643D01*
X7889405Y-10604643D01*
X7908452Y-10614167D01*
X7917976Y-10633214D01*
X7917976Y-10737976D01*
X7917976Y-10633214D02*
X7927500Y-10614167D01*
X7946548Y-10604643D01*
X7975119Y-10604643D01*
X7994167Y-10614167D01*
X8003690Y-10633214D01*
X8003690Y-10737976D01*
X8098928Y-10737976D02*
X8098928Y-10604643D01*
X8098928Y-10623690D02*
X8108452Y-10614167D01*
X8127500Y-10604643D01*
X8156071Y-10604643D01*
X8175119Y-10614167D01*
X8184643Y-10633214D01*
X8184643Y-10737976D01*
X8184643Y-10633214D02*
X8194167Y-10614167D01*
X8213214Y-10604643D01*
X8241786Y-10604643D01*
X8260833Y-10614167D01*
X8270357Y-10633214D01*
X8270357Y-10737976D01*
X8660833Y-10528452D02*
X8489405Y-10785595D01*
X8917976Y-10537976D02*
X8937024Y-10537976D01*
X8956071Y-10547500D01*
X8965595Y-10557024D01*
X8975119Y-10576071D01*
X8984643Y-10614167D01*
X8984643Y-10661786D01*
X8975119Y-10699881D01*
X8965595Y-10718929D01*
X8956071Y-10728452D01*
X8937024Y-10737976D01*
X8917976Y-10737976D01*
X8898929Y-10728452D01*
X8889405Y-10718929D01*
X8879881Y-10699881D01*
X8870357Y-10661786D01*
X8870357Y-10614167D01*
X8879881Y-10576071D01*
X8889405Y-10557024D01*
X8898929Y-10547500D01*
X8917976Y-10537976D01*
X9070357Y-10718929D02*
X9079881Y-10728452D01*
X9070357Y-10737976D01*
X9060833Y-10728452D01*
X9070357Y-10718929D01*
X9070357Y-10737976D01*
X9203690Y-10537976D02*
X9222738Y-10537976D01*
X9241786Y-10547500D01*
X9251310Y-10557024D01*
X9260833Y-10576071D01*
X9270357Y-10614167D01*
X9270357Y-10661786D01*
X9260833Y-10699881D01*
X9251310Y-10718929D01*
X9241786Y-10728452D01*
X9222738Y-10737976D01*
X9203690Y-10737976D01*
X9184643Y-10728452D01*
X9175119Y-10718929D01*
X9165595Y-10699881D01*
X9156071Y-10661786D01*
X9156071Y-10614167D01*
X9165595Y-10576071D01*
X9175119Y-10557024D01*
X9184643Y-10547500D01*
X9203690Y-10537976D01*
X9460833Y-10737976D02*
X9346548Y-10737976D01*
X9403690Y-10737976D02*
X9403690Y-10537976D01*
X9384643Y-10566548D01*
X9365595Y-10585595D01*
X9346548Y-10595119D01*
X9641786Y-10537976D02*
X9546548Y-10537976D01*
X9537024Y-10633214D01*
X9546548Y-10623690D01*
X9565595Y-10614167D01*
X9613214Y-10614167D01*
X9632262Y-10623690D01*
X9641786Y-10633214D01*
X9651310Y-10652262D01*
X9651310Y-10699881D01*
X9641786Y-10718929D01*
X9632262Y-10728452D01*
X9613214Y-10737976D01*
X9565595Y-10737976D01*
X9546548Y-10728452D01*
X9537024Y-10718929D01*
X9717976Y-10537976D02*
X9851310Y-10537976D01*
X9765595Y-10737976D01*
X9917976Y-10537976D02*
X9917976Y-10576071D01*
X9994167Y-10537976D02*
X9994167Y-10576071D01*
X10289405Y-10814167D02*
X10279881Y-10804643D01*
X10260833Y-10776071D01*
X10251310Y-10757024D01*
X10241786Y-10728452D01*
X10232262Y-10680833D01*
X10232262Y-10642738D01*
X10241786Y-10595119D01*
X10251310Y-10566548D01*
X10260833Y-10547500D01*
X10279881Y-10518929D01*
X10289405Y-10509405D01*
X10375119Y-10737976D02*
X10413214Y-10737976D01*
X10432262Y-10728452D01*
X10441786Y-10718929D01*
X10460833Y-10690357D01*
X10470357Y-10652262D01*
X10470357Y-10576071D01*
X10460833Y-10557024D01*
X10451310Y-10547500D01*
X10432262Y-10537976D01*
X10394167Y-10537976D01*
X10375119Y-10547500D01*
X10365595Y-10557024D01*
X10356071Y-10576071D01*
X10356071Y-10623690D01*
X10365595Y-10642738D01*
X10375119Y-10652262D01*
X10394167Y-10661786D01*
X10432262Y-10661786D01*
X10451310Y-10652262D01*
X10460833Y-10642738D01*
X10470357Y-10623690D01*
X10641786Y-10604643D02*
X10641786Y-10737976D01*
X10594167Y-10528452D02*
X10546548Y-10671310D01*
X10670357Y-10671310D01*
X10898929Y-10737976D02*
X10898929Y-10537976D01*
X10984643Y-10737976D02*
X10984643Y-10633214D01*
X10975119Y-10614167D01*
X10956071Y-10604643D01*
X10927500Y-10604643D01*
X10908452Y-10614167D01*
X10898929Y-10623690D01*
X11108452Y-10737976D02*
X11089405Y-10728452D01*
X11079881Y-10718929D01*
X11070357Y-10699881D01*
X11070357Y-10642738D01*
X11079881Y-10623690D01*
X11089405Y-10614167D01*
X11108452Y-10604643D01*
X11137024Y-10604643D01*
X11156071Y-10614167D01*
X11165595Y-10623690D01*
X11175119Y-10642738D01*
X11175119Y-10699881D01*
X11165595Y-10718929D01*
X11156071Y-10728452D01*
X11137024Y-10737976D01*
X11108452Y-10737976D01*
X11289405Y-10737976D02*
X11270357Y-10728452D01*
X11260833Y-10709405D01*
X11260833Y-10537976D01*
X11441786Y-10728452D02*
X11422738Y-10737976D01*
X11384643Y-10737976D01*
X11365595Y-10728452D01*
X11356071Y-10709405D01*
X11356071Y-10633214D01*
X11365595Y-10614167D01*
X11384643Y-10604643D01*
X11422738Y-10604643D01*
X11441786Y-10614167D01*
X11451309Y-10633214D01*
X11451309Y-10652262D01*
X11356071Y-10671310D01*
X11527500Y-10728452D02*
X11546548Y-10737976D01*
X11584643Y-10737976D01*
X11603690Y-10728452D01*
X11613214Y-10709405D01*
X11613214Y-10699881D01*
X11603690Y-10680833D01*
X11584643Y-10671310D01*
X11556071Y-10671310D01*
X11537024Y-10661786D01*
X11527500Y-10642738D01*
X11527500Y-10633214D01*
X11537024Y-10614167D01*
X11556071Y-10604643D01*
X11584643Y-10604643D01*
X11603690Y-10614167D01*
X11679881Y-10814167D02*
X11689405Y-10804643D01*
X11708452Y-10776071D01*
X11717976Y-10757024D01*
X11727500Y-10728452D01*
X11737024Y-10680833D01*
X11737024Y-10642738D01*
X11727500Y-10595119D01*
X11717976Y-10566548D01*
X11708452Y-10547500D01*
X11689405Y-10518929D01*
X11679881Y-10509405D01*
D13*
X6717500Y-10911500D02*
G75*
G03*
X6717500Y-10911500I-40000J0D01*
G01*
D11*
X7013214Y-10801976D02*
X7032262Y-10801976D01*
X7051309Y-10811500D01*
X7060833Y-10821024D01*
X7070357Y-10840071D01*
X7079881Y-10878167D01*
X7079881Y-10925786D01*
X7070357Y-10963881D01*
X7060833Y-10982929D01*
X7051309Y-10992452D01*
X7032262Y-11001976D01*
X7013214Y-11001976D01*
X6994167Y-10992452D01*
X6984643Y-10982929D01*
X6975119Y-10963881D01*
X6965595Y-10925786D01*
X6965595Y-10878167D01*
X6975119Y-10840071D01*
X6984643Y-10821024D01*
X6994167Y-10811500D01*
X7013214Y-10801976D01*
X7165595Y-10982929D02*
X7175119Y-10992452D01*
X7165595Y-11001976D01*
X7156071Y-10992452D01*
X7165595Y-10982929D01*
X7165595Y-11001976D01*
X7289405Y-10887690D02*
X7270357Y-10878167D01*
X7260833Y-10868643D01*
X7251309Y-10849595D01*
X7251309Y-10840071D01*
X7260833Y-10821024D01*
X7270357Y-10811500D01*
X7289405Y-10801976D01*
X7327500Y-10801976D01*
X7346548Y-10811500D01*
X7356071Y-10821024D01*
X7365595Y-10840071D01*
X7365595Y-10849595D01*
X7356071Y-10868643D01*
X7346548Y-10878167D01*
X7327500Y-10887690D01*
X7289405Y-10887690D01*
X7270357Y-10897214D01*
X7260833Y-10906738D01*
X7251309Y-10925786D01*
X7251309Y-10963881D01*
X7260833Y-10982929D01*
X7270357Y-10992452D01*
X7289405Y-11001976D01*
X7327500Y-11001976D01*
X7346548Y-10992452D01*
X7356071Y-10982929D01*
X7365595Y-10963881D01*
X7365595Y-10925786D01*
X7356071Y-10906738D01*
X7346548Y-10897214D01*
X7327500Y-10887690D01*
X7489405Y-10801976D02*
X7508452Y-10801976D01*
X7527500Y-10811500D01*
X7537024Y-10821024D01*
X7546548Y-10840071D01*
X7556071Y-10878167D01*
X7556071Y-10925786D01*
X7546548Y-10963881D01*
X7537024Y-10982929D01*
X7527500Y-10992452D01*
X7508452Y-11001976D01*
X7489405Y-11001976D01*
X7470357Y-10992452D01*
X7460833Y-10982929D01*
X7451309Y-10963881D01*
X7441786Y-10925786D01*
X7441786Y-10878167D01*
X7451309Y-10840071D01*
X7460833Y-10821024D01*
X7470357Y-10811500D01*
X7489405Y-10801976D01*
X7679881Y-10801976D02*
X7698928Y-10801976D01*
X7717976Y-10811500D01*
X7727500Y-10821024D01*
X7737024Y-10840071D01*
X7746548Y-10878167D01*
X7746548Y-10925786D01*
X7737024Y-10963881D01*
X7727500Y-10982929D01*
X7717976Y-10992452D01*
X7698928Y-11001976D01*
X7679881Y-11001976D01*
X7660833Y-10992452D01*
X7651309Y-10982929D01*
X7641786Y-10963881D01*
X7632262Y-10925786D01*
X7632262Y-10878167D01*
X7641786Y-10840071D01*
X7651309Y-10821024D01*
X7660833Y-10811500D01*
X7679881Y-10801976D01*
X7832262Y-11001976D02*
X7832262Y-10868643D01*
X7832262Y-10887690D02*
X7841786Y-10878167D01*
X7860833Y-10868643D01*
X7889405Y-10868643D01*
X7908452Y-10878167D01*
X7917976Y-10897214D01*
X7917976Y-11001976D01*
X7917976Y-10897214D02*
X7927500Y-10878167D01*
X7946548Y-10868643D01*
X7975119Y-10868643D01*
X7994167Y-10878167D01*
X8003690Y-10897214D01*
X8003690Y-11001976D01*
X8098928Y-11001976D02*
X8098928Y-10868643D01*
X8098928Y-10887690D02*
X8108452Y-10878167D01*
X8127500Y-10868643D01*
X8156071Y-10868643D01*
X8175119Y-10878167D01*
X8184643Y-10897214D01*
X8184643Y-11001976D01*
X8184643Y-10897214D02*
X8194167Y-10878167D01*
X8213214Y-10868643D01*
X8241786Y-10868643D01*
X8260833Y-10878167D01*
X8270357Y-10897214D01*
X8270357Y-11001976D01*
X8660833Y-10792452D02*
X8489405Y-11049595D01*
X8917976Y-10801976D02*
X8937024Y-10801976D01*
X8956071Y-10811500D01*
X8965595Y-10821024D01*
X8975119Y-10840071D01*
X8984643Y-10878167D01*
X8984643Y-10925786D01*
X8975119Y-10963881D01*
X8965595Y-10982929D01*
X8956071Y-10992452D01*
X8937024Y-11001976D01*
X8917976Y-11001976D01*
X8898929Y-10992452D01*
X8889405Y-10982929D01*
X8879881Y-10963881D01*
X8870357Y-10925786D01*
X8870357Y-10878167D01*
X8879881Y-10840071D01*
X8889405Y-10821024D01*
X8898929Y-10811500D01*
X8917976Y-10801976D01*
X9070357Y-10982929D02*
X9079881Y-10992452D01*
X9070357Y-11001976D01*
X9060833Y-10992452D01*
X9070357Y-10982929D01*
X9070357Y-11001976D01*
X9203690Y-10801976D02*
X9222738Y-10801976D01*
X9241786Y-10811500D01*
X9251310Y-10821024D01*
X9260833Y-10840071D01*
X9270357Y-10878167D01*
X9270357Y-10925786D01*
X9260833Y-10963881D01*
X9251310Y-10982929D01*
X9241786Y-10992452D01*
X9222738Y-11001976D01*
X9203690Y-11001976D01*
X9184643Y-10992452D01*
X9175119Y-10982929D01*
X9165595Y-10963881D01*
X9156071Y-10925786D01*
X9156071Y-10878167D01*
X9165595Y-10840071D01*
X9175119Y-10821024D01*
X9184643Y-10811500D01*
X9203690Y-10801976D01*
X9337024Y-10801976D02*
X9460833Y-10801976D01*
X9394167Y-10878167D01*
X9422738Y-10878167D01*
X9441786Y-10887690D01*
X9451310Y-10897214D01*
X9460833Y-10916262D01*
X9460833Y-10963881D01*
X9451310Y-10982929D01*
X9441786Y-10992452D01*
X9422738Y-11001976D01*
X9365595Y-11001976D01*
X9346548Y-10992452D01*
X9337024Y-10982929D01*
X9651310Y-11001976D02*
X9537024Y-11001976D01*
X9594167Y-11001976D02*
X9594167Y-10801976D01*
X9575119Y-10830548D01*
X9556071Y-10849595D01*
X9537024Y-10859119D01*
X9832262Y-10801976D02*
X9737024Y-10801976D01*
X9727500Y-10897214D01*
X9737024Y-10887690D01*
X9756071Y-10878167D01*
X9803690Y-10878167D01*
X9822738Y-10887690D01*
X9832262Y-10897214D01*
X9841786Y-10916262D01*
X9841786Y-10963881D01*
X9832262Y-10982929D01*
X9822738Y-10992452D01*
X9803690Y-11001976D01*
X9756071Y-11001976D01*
X9737024Y-10992452D01*
X9727500Y-10982929D01*
X9917976Y-10801976D02*
X9917976Y-10840071D01*
X9994167Y-10801976D02*
X9994167Y-10840071D01*
X10289405Y-11078167D02*
X10279881Y-11068643D01*
X10260833Y-11040071D01*
X10251310Y-11021024D01*
X10241786Y-10992452D01*
X10232262Y-10944833D01*
X10232262Y-10906738D01*
X10241786Y-10859119D01*
X10251310Y-10830548D01*
X10260833Y-10811500D01*
X10279881Y-10782929D01*
X10289405Y-10773405D01*
X10470357Y-11001976D02*
X10356071Y-11001976D01*
X10413214Y-11001976D02*
X10413214Y-10801976D01*
X10394167Y-10830548D01*
X10375119Y-10849595D01*
X10356071Y-10859119D01*
X10537024Y-10801976D02*
X10660833Y-10801976D01*
X10594167Y-10878167D01*
X10622738Y-10878167D01*
X10641786Y-10887690D01*
X10651310Y-10897214D01*
X10660833Y-10916262D01*
X10660833Y-10963881D01*
X10651310Y-10982929D01*
X10641786Y-10992452D01*
X10622738Y-11001976D01*
X10565595Y-11001976D01*
X10546548Y-10992452D01*
X10537024Y-10982929D01*
X10898929Y-11001976D02*
X10898929Y-10801976D01*
X10984643Y-11001976D02*
X10984643Y-10897214D01*
X10975119Y-10878167D01*
X10956071Y-10868643D01*
X10927500Y-10868643D01*
X10908452Y-10878167D01*
X10898929Y-10887690D01*
X11108452Y-11001976D02*
X11089405Y-10992452D01*
X11079881Y-10982929D01*
X11070357Y-10963881D01*
X11070357Y-10906738D01*
X11079881Y-10887690D01*
X11089405Y-10878167D01*
X11108452Y-10868643D01*
X11137024Y-10868643D01*
X11156071Y-10878167D01*
X11165595Y-10887690D01*
X11175119Y-10906738D01*
X11175119Y-10963881D01*
X11165595Y-10982929D01*
X11156071Y-10992452D01*
X11137024Y-11001976D01*
X11108452Y-11001976D01*
X11289405Y-11001976D02*
X11270357Y-10992452D01*
X11260833Y-10973405D01*
X11260833Y-10801976D01*
X11441786Y-10992452D02*
X11422738Y-11001976D01*
X11384643Y-11001976D01*
X11365595Y-10992452D01*
X11356071Y-10973405D01*
X11356071Y-10897214D01*
X11365595Y-10878167D01*
X11384643Y-10868643D01*
X11422738Y-10868643D01*
X11441786Y-10878167D01*
X11451309Y-10897214D01*
X11451309Y-10916262D01*
X11356071Y-10935310D01*
X11527500Y-10992452D02*
X11546548Y-11001976D01*
X11584643Y-11001976D01*
X11603690Y-10992452D01*
X11613214Y-10973405D01*
X11613214Y-10963881D01*
X11603690Y-10944833D01*
X11584643Y-10935310D01*
X11556071Y-10935310D01*
X11537024Y-10925786D01*
X11527500Y-10906738D01*
X11527500Y-10897214D01*
X11537024Y-10878167D01*
X11556071Y-10868643D01*
X11584643Y-10868643D01*
X11603690Y-10878167D01*
X11679881Y-11078167D02*
X11689405Y-11068643D01*
X11708452Y-11040071D01*
X11717976Y-11021024D01*
X11727500Y-10992452D01*
X11737024Y-10944833D01*
X11737024Y-10906738D01*
X11727500Y-10859119D01*
X11717976Y-10830548D01*
X11708452Y-10811500D01*
X11689405Y-10782929D01*
X11679881Y-10773405D01*
M02*
