G04 #@! TF.GenerationSoftware,KiCad,Pcbnew,6.0.8*
G04 #@! TF.CreationDate,2022-10-09T16:44:11-07:00*
G04 #@! TF.ProjectId,interposer,696e7465-7270-46f7-9365-722e6b696361,v4.0*
G04 #@! TF.SameCoordinates,Original*
G04 #@! TF.FileFunction,Legend,Bot*
G04 #@! TF.FilePolarity,Positive*
%FSLAX46Y46*%
G04 Gerber Fmt 4.6, Leading zero omitted, Abs format (unit mm)*
G04 Created by KiCad (PCBNEW 6.0.8) date 2022-10-09 16:44:11*
%MOMM*%
%LPD*%
G01*
G04 APERTURE LIST*
%ADD10C,0.300000*%
%ADD11C,7.200000*%
%ADD12C,2.300000*%
G04 APERTURE END LIST*
D10*
X105115714Y-68001071D02*
X104830000Y-69001071D01*
X104544285Y-68286785D01*
X104258571Y-69001071D01*
X103972857Y-68001071D01*
X103401428Y-69001071D02*
X103401428Y-67501071D01*
X102758571Y-69001071D02*
X102758571Y-68215357D01*
X102830000Y-68072500D01*
X102972857Y-68001071D01*
X103187142Y-68001071D01*
X103330000Y-68072500D01*
X103401428Y-68143928D01*
X101401428Y-69001071D02*
X101401428Y-68215357D01*
X101472857Y-68072500D01*
X101615714Y-68001071D01*
X101901428Y-68001071D01*
X102044285Y-68072500D01*
X101401428Y-68929642D02*
X101544285Y-69001071D01*
X101901428Y-69001071D01*
X102044285Y-68929642D01*
X102115714Y-68786785D01*
X102115714Y-68643928D01*
X102044285Y-68501071D01*
X101901428Y-68429642D01*
X101544285Y-68429642D01*
X101401428Y-68358214D01*
X100901428Y-68001071D02*
X100330000Y-68001071D01*
X100687142Y-67501071D02*
X100687142Y-68786785D01*
X100615714Y-68929642D01*
X100472857Y-69001071D01*
X100330000Y-69001071D01*
X99258571Y-68929642D02*
X99401428Y-69001071D01*
X99687142Y-69001071D01*
X99830000Y-68929642D01*
X99901428Y-68786785D01*
X99901428Y-68215357D01*
X99830000Y-68072500D01*
X99687142Y-68001071D01*
X99401428Y-68001071D01*
X99258571Y-68072500D01*
X99187142Y-68215357D01*
X99187142Y-68358214D01*
X99901428Y-68501071D01*
X98687142Y-68001071D02*
X98330000Y-69001071D01*
X97972857Y-68001071D01*
X96830000Y-68929642D02*
X96972857Y-69001071D01*
X97258571Y-69001071D01*
X97401428Y-68929642D01*
X97472857Y-68786785D01*
X97472857Y-68215357D01*
X97401428Y-68072500D01*
X97258571Y-68001071D01*
X96972857Y-68001071D01*
X96830000Y-68072500D01*
X96758571Y-68215357D01*
X96758571Y-68358214D01*
X97472857Y-68501071D01*
X96115714Y-69001071D02*
X96115714Y-68001071D01*
X96115714Y-68286785D02*
X96044285Y-68143928D01*
X95972857Y-68072500D01*
X95830000Y-68001071D01*
X95687142Y-68001071D01*
X95115714Y-68929642D02*
X95115714Y-69001071D01*
X95187142Y-69143928D01*
X95258571Y-69215357D01*
X102294285Y-71416071D02*
X102437142Y-71344642D01*
X102508571Y-71201785D01*
X102508571Y-69916071D01*
X101508571Y-71416071D02*
X101651428Y-71344642D01*
X101722857Y-71273214D01*
X101794285Y-71130357D01*
X101794285Y-70701785D01*
X101722857Y-70558928D01*
X101651428Y-70487500D01*
X101508571Y-70416071D01*
X101294285Y-70416071D01*
X101151428Y-70487500D01*
X101080000Y-70558928D01*
X101008571Y-70701785D01*
X101008571Y-71130357D01*
X101080000Y-71273214D01*
X101151428Y-71344642D01*
X101294285Y-71416071D01*
X101508571Y-71416071D01*
X100437142Y-71344642D02*
X100294285Y-71416071D01*
X100008571Y-71416071D01*
X99865714Y-71344642D01*
X99794285Y-71201785D01*
X99794285Y-71130357D01*
X99865714Y-70987500D01*
X100008571Y-70916071D01*
X100222857Y-70916071D01*
X100365714Y-70844642D01*
X100437142Y-70701785D01*
X100437142Y-70630357D01*
X100365714Y-70487500D01*
X100222857Y-70416071D01*
X100008571Y-70416071D01*
X99865714Y-70487500D01*
X98580000Y-71344642D02*
X98722857Y-71416071D01*
X99008571Y-71416071D01*
X99151428Y-71344642D01*
X99222857Y-71201785D01*
X99222857Y-70630357D01*
X99151428Y-70487500D01*
X99008571Y-70416071D01*
X98722857Y-70416071D01*
X98580000Y-70487500D01*
X98508571Y-70630357D01*
X98508571Y-70773214D01*
X99222857Y-70916071D01*
X97865714Y-71416071D02*
X97865714Y-70416071D01*
X97865714Y-70701785D02*
X97794285Y-70558928D01*
X97722857Y-70487500D01*
X97580000Y-70416071D01*
X97437142Y-70416071D01*
X106792571Y-52248000D02*
X106937714Y-52175428D01*
X107155428Y-52175428D01*
X107373142Y-52248000D01*
X107518285Y-52393142D01*
X107590857Y-52538285D01*
X107663428Y-52828571D01*
X107663428Y-53046285D01*
X107590857Y-53336571D01*
X107518285Y-53481714D01*
X107373142Y-53626857D01*
X107155428Y-53699428D01*
X107010285Y-53699428D01*
X106792571Y-53626857D01*
X106720000Y-53554285D01*
X106720000Y-53046285D01*
X107010285Y-53046285D01*
X105849142Y-52175428D02*
X105849142Y-52538285D01*
X106212000Y-52393142D02*
X105849142Y-52538285D01*
X105486285Y-52393142D01*
X106066857Y-52828571D02*
X105849142Y-52538285D01*
X105631428Y-52828571D01*
X104688000Y-52175428D02*
X104688000Y-52538285D01*
X105050857Y-52393142D02*
X104688000Y-52538285D01*
X104325142Y-52393142D01*
X104905714Y-52828571D02*
X104688000Y-52538285D01*
X104470285Y-52828571D01*
X103526857Y-52175428D02*
X103526857Y-52538285D01*
X103889714Y-52393142D02*
X103526857Y-52538285D01*
X103164000Y-52393142D01*
X103744571Y-52828571D02*
X103526857Y-52538285D01*
X103309142Y-52828571D01*
G36*
X118760855Y-25649221D02*
G01*
X119787255Y-25921587D01*
X119857104Y-25938870D01*
X120731784Y-26173472D01*
X121400824Y-26384651D01*
X121724299Y-26528562D01*
X121735156Y-26540524D01*
X121710096Y-26855050D01*
X121424836Y-27334051D01*
X121118653Y-27852876D01*
X121188104Y-28217908D01*
X121242863Y-28346568D01*
X121038010Y-28731950D01*
X120404788Y-29314234D01*
X119960854Y-29674005D01*
X118923742Y-30536067D01*
X118133482Y-31246175D01*
X117479267Y-31914770D01*
X116850289Y-32652295D01*
X116135742Y-33569190D01*
X115886859Y-33902227D01*
X115092507Y-35030828D01*
X114343223Y-36179550D01*
X113773395Y-37144976D01*
X113459974Y-37730699D01*
X113155780Y-38365467D01*
X113046139Y-38798443D01*
X113103997Y-39172329D01*
X113302300Y-39629827D01*
X113378128Y-39783668D01*
X113675985Y-40286156D01*
X113884723Y-40489472D01*
X113910132Y-40493501D01*
X114245462Y-40677224D01*
X114749193Y-41049766D01*
X115438582Y-41608823D01*
X115331288Y-41733333D01*
X114687522Y-42480392D01*
X114554525Y-42653026D01*
X114310926Y-42969224D01*
X113977688Y-43724293D01*
X113969905Y-43741928D01*
X114091094Y-44359660D01*
X114528786Y-44721568D01*
X114674384Y-44841957D01*
X115250055Y-45201887D01*
X115662927Y-45593137D01*
X115860957Y-45780796D01*
X116319770Y-46215582D01*
X117189417Y-47513118D01*
X117459257Y-48162014D01*
X117642762Y-48990266D01*
X117634851Y-49679435D01*
X117421569Y-50075490D01*
X117262053Y-50319899D01*
X117172549Y-50853616D01*
X117138265Y-51218864D01*
X117093403Y-51348309D01*
X116827871Y-52114467D01*
X116301136Y-52814706D01*
X116205249Y-52931550D01*
X115942721Y-53458441D01*
X115692670Y-54184313D01*
X115619388Y-54440239D01*
X115489287Y-54858043D01*
X115332754Y-55283606D01*
X115116373Y-55789523D01*
X114806727Y-56448389D01*
X114370397Y-57332801D01*
X113773968Y-58515354D01*
X113299693Y-59447934D01*
X112984023Y-60068644D01*
X112650370Y-60731269D01*
X112088878Y-61909806D01*
X111741142Y-62766075D01*
X111579651Y-63373108D01*
X111576891Y-63803938D01*
X111603985Y-64146190D01*
X111482832Y-64574348D01*
X111123507Y-65094195D01*
X110459561Y-65825980D01*
X110242110Y-66052328D01*
X109630060Y-66645825D01*
X109156426Y-66969463D01*
X108671253Y-67103418D01*
X108024585Y-67127864D01*
X106833412Y-66975206D01*
X105242862Y-66373867D01*
X103507179Y-65309436D01*
X102971218Y-64925665D01*
X101984171Y-64218261D01*
X101050855Y-63548746D01*
X99745827Y-62611976D01*
X99893099Y-63348336D01*
X99910775Y-63442895D01*
X99915514Y-64016600D01*
X99649421Y-64230243D01*
X99083911Y-64087945D01*
X98190405Y-63593829D01*
X97632500Y-63252859D01*
X96252189Y-62491011D01*
X94729226Y-61775528D01*
X92893137Y-61023699D01*
X91761552Y-60557760D01*
X90059623Y-59776107D01*
X88380581Y-58921314D01*
X86835861Y-58053825D01*
X85536895Y-57234087D01*
X84595114Y-56522544D01*
X83909653Y-55882601D01*
X82091697Y-53733608D01*
X80563828Y-51182723D01*
X80526555Y-51108910D01*
X80103231Y-50321500D01*
X79746531Y-49742051D01*
X79530280Y-49491377D01*
X79098607Y-49234700D01*
X78401303Y-48617877D01*
X77650421Y-47788061D01*
X76962177Y-46864144D01*
X76578138Y-46263602D01*
X75373804Y-43929832D01*
X74663129Y-41635317D01*
X74446112Y-39363859D01*
X75846954Y-39363859D01*
X76078020Y-41637962D01*
X76767448Y-43897265D01*
X77905366Y-46082160D01*
X78694755Y-47318243D01*
X78888237Y-45973818D01*
X78984700Y-45360891D01*
X79135483Y-44693134D01*
X79274184Y-44494802D01*
X79408320Y-44748181D01*
X79547247Y-45229344D01*
X80488269Y-48066991D01*
X81542752Y-50485607D01*
X82762714Y-52551123D01*
X84200171Y-54329465D01*
X85907139Y-55886564D01*
X87935635Y-57288349D01*
X90337674Y-58600747D01*
X90585426Y-58722947D01*
X91746692Y-59285179D01*
X92774274Y-59766471D01*
X93564507Y-60119042D01*
X94013726Y-60295111D01*
X94386992Y-60423815D01*
X95150222Y-60726747D01*
X96005882Y-61096997D01*
X96621893Y-61378069D01*
X97352715Y-61719265D01*
X97811275Y-61943022D01*
X97901253Y-61988883D01*
X98184215Y-62077602D01*
X98199304Y-61875467D01*
X97964620Y-61307470D01*
X97810965Y-61079474D01*
X97298479Y-60533797D01*
X96547929Y-59851896D01*
X96191273Y-59561569D01*
X97495932Y-59561569D01*
X97661311Y-59865136D01*
X98048223Y-60248284D01*
X98693447Y-60752948D01*
X99633764Y-61421062D01*
X100905953Y-62294563D01*
X102546792Y-63415384D01*
X103144780Y-63819032D01*
X104209092Y-64512881D01*
X105173074Y-65113474D01*
X105883390Y-65523915D01*
X106059260Y-65614028D01*
X106950511Y-65970108D01*
X107717284Y-66125006D01*
X108254446Y-66067929D01*
X108456863Y-65788086D01*
X108458641Y-65763839D01*
X108703490Y-65447787D01*
X109235909Y-65167339D01*
X109504759Y-65064252D01*
X109824988Y-64836541D01*
X109746400Y-64572173D01*
X109687700Y-64308038D01*
X109830392Y-63819141D01*
X110204164Y-63046710D01*
X110835001Y-61927618D01*
X111282324Y-61153520D01*
X111752600Y-60315411D01*
X112072577Y-59715157D01*
X112190239Y-59447934D01*
X112142220Y-59372587D01*
X111783819Y-59089268D01*
X111190505Y-58719382D01*
X111095294Y-58664577D01*
X110542184Y-58297815D01*
X110352656Y-58006680D01*
X110445364Y-57677419D01*
X110551053Y-57467131D01*
X110691195Y-56984112D01*
X110506396Y-56866172D01*
X110010221Y-57130366D01*
X109814514Y-57267733D01*
X109410982Y-57479082D01*
X109034568Y-57441067D01*
X108453848Y-57157761D01*
X107743933Y-56816493D01*
X107255848Y-56747726D01*
X106922446Y-57027989D01*
X106607696Y-57697016D01*
X106442238Y-58149814D01*
X106344081Y-58706025D01*
X106486639Y-59066624D01*
X106613719Y-59237445D01*
X106623815Y-59344720D01*
X106448903Y-59366690D01*
X106030280Y-59292805D01*
X105309244Y-59112513D01*
X104227093Y-58815262D01*
X102725123Y-58390500D01*
X99124441Y-57367274D01*
X98191904Y-58450030D01*
X97961201Y-58708997D01*
X97682656Y-59025434D01*
X97515307Y-59295647D01*
X97495932Y-59561569D01*
X96191273Y-59561569D01*
X95661189Y-59130067D01*
X95363110Y-58898938D01*
X94322599Y-58079472D01*
X93076743Y-57084803D01*
X91756602Y-56019926D01*
X90493234Y-54989839D01*
X89594891Y-54250014D01*
X88667503Y-53467586D01*
X88018312Y-52875339D01*
X87584528Y-52402481D01*
X87303363Y-51978216D01*
X87112029Y-51531750D01*
X86947736Y-50992289D01*
X86824152Y-50576737D01*
X86525523Y-49858289D01*
X86104441Y-49353415D01*
X85420325Y-48866456D01*
X84760893Y-48415591D01*
X84166856Y-47825498D01*
X83879059Y-47149961D01*
X83857997Y-46893968D01*
X84550980Y-46893968D01*
X84558325Y-47076508D01*
X84660031Y-47445855D01*
X84946137Y-47808060D01*
X85498175Y-48249833D01*
X86397681Y-48857882D01*
X86787770Y-49118953D01*
X87511782Y-49641122D01*
X87989503Y-50040574D01*
X88132843Y-50246796D01*
X88014538Y-50317677D01*
X87612519Y-50270402D01*
X87327511Y-50238923D01*
X87371474Y-50550664D01*
X87457053Y-50805889D01*
X87539216Y-51216445D01*
X87562917Y-51354103D01*
X87719859Y-51409883D01*
X88078223Y-51249809D01*
X88700710Y-50842381D01*
X89650019Y-50156105D01*
X91387293Y-48874629D01*
X88412543Y-47907840D01*
X88366830Y-47892953D01*
X87190865Y-47489395D01*
X86164102Y-47100248D01*
X85395592Y-46769159D01*
X85375791Y-46757838D01*
X89902293Y-46757838D01*
X89902655Y-46830873D01*
X90108528Y-47193164D01*
X90522493Y-47725393D01*
X90743136Y-47980527D01*
X91082638Y-48325542D01*
X91228722Y-48329732D01*
X91264390Y-48026819D01*
X91250067Y-47909843D01*
X91019972Y-47468983D01*
X90621388Y-47039420D01*
X90200199Y-46757067D01*
X89902293Y-46757838D01*
X85375791Y-46757838D01*
X84994387Y-46539774D01*
X84712009Y-46314723D01*
X84576085Y-46391836D01*
X84550980Y-46893968D01*
X83857997Y-46893968D01*
X83803922Y-46236734D01*
X83796206Y-45961262D01*
X83707953Y-45477578D01*
X83465836Y-44996840D01*
X83001740Y-44402726D01*
X82247549Y-43578915D01*
X82149084Y-43474525D01*
X81310479Y-42574946D01*
X80774180Y-41939224D01*
X80505214Y-41476680D01*
X80483426Y-41250478D01*
X80780015Y-41250478D01*
X83194252Y-43857592D01*
X83376534Y-44054051D01*
X84419493Y-45156434D01*
X85176975Y-45908776D01*
X85679834Y-46337871D01*
X85958924Y-46470515D01*
X86045098Y-46333504D01*
X85899320Y-46111916D01*
X85603504Y-45733632D01*
X88908824Y-45733632D01*
X90122736Y-46333504D01*
X90278431Y-46410443D01*
X90712874Y-46641064D01*
X91435262Y-47147114D01*
X91734465Y-47585294D01*
X91863917Y-48026819D01*
X91880580Y-48083652D01*
X92186439Y-48270326D01*
X92706373Y-48029215D01*
X93038918Y-47716731D01*
X93253490Y-47031602D01*
X93008886Y-46199315D01*
X93005181Y-46192440D01*
X92802679Y-45946679D01*
X92449713Y-45803713D01*
X91830678Y-45738410D01*
X90829964Y-45725639D01*
X88908824Y-45733632D01*
X85603504Y-45733632D01*
X85490705Y-45589386D01*
X84882732Y-44846087D01*
X84138956Y-43961120D01*
X83496899Y-43202273D01*
X82908118Y-42477153D01*
X82566678Y-41983425D01*
X82428196Y-41638491D01*
X82448292Y-41359755D01*
X82582584Y-41064621D01*
X82607281Y-41019506D01*
X83044271Y-40365634D01*
X83587255Y-39707386D01*
X83788100Y-39480556D01*
X84050889Y-39040488D01*
X83950524Y-38763433D01*
X83687386Y-38690174D01*
X83342753Y-39027616D01*
X83064728Y-39320905D01*
X82695263Y-39406682D01*
X82535386Y-39420037D01*
X82096162Y-39711258D01*
X81571963Y-40265004D01*
X80780015Y-41250478D01*
X80483426Y-41250478D01*
X80468608Y-41096637D01*
X80629389Y-40708417D01*
X80952583Y-40221341D01*
X81563247Y-39361077D01*
X82209066Y-38567743D01*
X82767599Y-38116406D01*
X83297097Y-38020637D01*
X83855813Y-38294003D01*
X84502000Y-38950076D01*
X85293909Y-40002424D01*
X86289793Y-41464617D01*
X86863003Y-42307427D01*
X87614318Y-43366094D01*
X88258336Y-44221067D01*
X88740643Y-44800862D01*
X89006822Y-45033992D01*
X89381202Y-45088349D01*
X90121190Y-45148048D01*
X91025490Y-45192201D01*
X92093258Y-45264704D01*
X92913328Y-45466127D01*
X93416380Y-45872859D01*
X93696971Y-46566469D01*
X93763842Y-47031602D01*
X93849660Y-47628531D01*
X93872156Y-47889375D01*
X93932737Y-48874629D01*
X93943498Y-49049633D01*
X93994655Y-50398306D01*
X94015768Y-51694117D01*
X94017326Y-52125998D01*
X94037396Y-53148318D01*
X94105627Y-53829692D01*
X94254320Y-54288242D01*
X94515773Y-54642090D01*
X94922286Y-55009359D01*
X95103258Y-55128945D01*
X95700381Y-55436164D01*
X96534312Y-55816725D01*
X97467752Y-56213145D01*
X98363405Y-56567937D01*
X99083972Y-56823619D01*
X99492157Y-56922704D01*
X99512514Y-56895220D01*
X99565689Y-56524069D01*
X99602750Y-55810068D01*
X99616667Y-54869196D01*
X99641533Y-53752026D01*
X99744698Y-52922457D01*
X99968118Y-52191697D01*
X100314291Y-51445098D01*
X101578553Y-51445098D01*
X101635396Y-51430983D01*
X102006118Y-51195314D01*
X102538693Y-50764559D01*
X103093632Y-50262965D01*
X103531443Y-49814776D01*
X103712637Y-49544239D01*
X103675172Y-49396929D01*
X103395014Y-49203921D01*
X105717647Y-49203921D01*
X105765161Y-49322928D01*
X106105873Y-49452941D01*
X106283744Y-49417107D01*
X106340196Y-49203921D01*
X106289227Y-49135913D01*
X105951970Y-48954902D01*
X105896375Y-48962029D01*
X105717647Y-49203921D01*
X103395014Y-49203921D01*
X103348171Y-49171650D01*
X102876486Y-49128012D01*
X102494873Y-49310983D01*
X102449792Y-49371083D01*
X102169832Y-49861235D01*
X101859826Y-50530373D01*
X101776106Y-50737002D01*
X101599982Y-51242719D01*
X101578553Y-51445098D01*
X100314291Y-51445098D01*
X100353751Y-51359993D01*
X100837224Y-50538572D01*
X101929402Y-49134299D01*
X102491223Y-48576552D01*
X103316458Y-48576552D01*
X103620546Y-48732401D01*
X103902556Y-48824492D01*
X104586662Y-48896047D01*
X105099805Y-48757278D01*
X105334482Y-48455857D01*
X105263843Y-48261433D01*
X106725817Y-48261433D01*
X106809187Y-48455857D01*
X106859230Y-48572561D01*
X107259511Y-49073753D01*
X107389027Y-49203921D01*
X107727642Y-49544239D01*
X107788637Y-49605541D01*
X108305609Y-50027381D01*
X108669424Y-50198730D01*
X108761322Y-50179976D01*
X109142918Y-49861830D01*
X109512843Y-49264907D01*
X109613081Y-49050481D01*
X109819826Y-48641359D01*
X109869090Y-48658435D01*
X109794761Y-49079411D01*
X109790388Y-49100998D01*
X109658817Y-49896609D01*
X109730011Y-50367670D01*
X110089433Y-50670767D01*
X110822549Y-50962486D01*
X111563084Y-51217714D01*
X112215301Y-51391753D01*
X112498868Y-51348309D01*
X112467056Y-51070827D01*
X112173136Y-50542753D01*
X112125254Y-50463433D01*
X111732662Y-49737667D01*
X111256746Y-48767927D01*
X110789874Y-47741282D01*
X110653115Y-47434037D01*
X110256098Y-46621426D01*
X109925485Y-46054916D01*
X109721819Y-45842157D01*
X109666169Y-45855671D01*
X109282461Y-46080771D01*
X108761570Y-46458261D01*
X108693666Y-46507471D01*
X108021695Y-47037329D01*
X107388457Y-47571904D01*
X106915861Y-48012752D01*
X106725817Y-48261433D01*
X105263843Y-48261433D01*
X105183192Y-48039454D01*
X104899037Y-47794435D01*
X104411497Y-47764037D01*
X103738209Y-48127354D01*
X103381551Y-48395524D01*
X103316458Y-48576552D01*
X102491223Y-48576552D01*
X103250472Y-47822809D01*
X103947806Y-47295758D01*
X105826615Y-47295758D01*
X105897211Y-47542368D01*
X105949881Y-47557226D01*
X106329674Y-47429305D01*
X106852732Y-47069213D01*
X107585294Y-46458261D01*
X106838235Y-46757800D01*
X106830036Y-46761093D01*
X106245939Y-47022058D01*
X105882714Y-47230955D01*
X105826615Y-47295758D01*
X103947806Y-47295758D01*
X104649886Y-46765120D01*
X105312922Y-46291286D01*
X105412572Y-46153485D01*
X106491828Y-46153485D01*
X106616969Y-46159479D01*
X107087255Y-45966666D01*
X107200984Y-45916513D01*
X107407237Y-45780796D01*
X107164206Y-45735149D01*
X106943214Y-45757478D01*
X106678174Y-45914098D01*
X106589216Y-45966666D01*
X106491828Y-46153485D01*
X105412572Y-46153485D01*
X105585682Y-45914098D01*
X105397957Y-45642999D01*
X105238141Y-45593137D01*
X107709804Y-45593137D01*
X107834314Y-45717647D01*
X107958824Y-45593137D01*
X107834314Y-45468627D01*
X107709804Y-45593137D01*
X105238141Y-45593137D01*
X104752569Y-45441640D01*
X104366816Y-45355022D01*
X103883134Y-45157854D01*
X103802697Y-44861793D01*
X103876597Y-44721568D01*
X104472549Y-44721568D01*
X104479785Y-44781090D01*
X104721569Y-44970588D01*
X104781091Y-44963352D01*
X104970588Y-44721568D01*
X104963352Y-44662046D01*
X104721569Y-44472549D01*
X104662047Y-44479785D01*
X104472549Y-44721568D01*
X103876597Y-44721568D01*
X104062479Y-44368858D01*
X104249152Y-43963601D01*
X107080513Y-43963601D01*
X107245596Y-44125603D01*
X107707538Y-44202836D01*
X108098102Y-43950613D01*
X108128269Y-43724293D01*
X107904642Y-43315566D01*
X107830818Y-43243731D01*
X107527915Y-43082273D01*
X107231190Y-43328554D01*
X107085310Y-43581542D01*
X107080513Y-43963601D01*
X104249152Y-43963601D01*
X104303302Y-43846045D01*
X104330919Y-43397142D01*
X104320543Y-43185807D01*
X104598531Y-42887814D01*
X104807460Y-42770048D01*
X104861071Y-42526064D01*
X104550041Y-42318865D01*
X103955584Y-42231372D01*
X103502653Y-42272510D01*
X102646597Y-42404467D01*
X101549119Y-42605694D01*
X100339574Y-42853921D01*
X99311092Y-43056571D01*
X97168195Y-43354058D01*
X95168997Y-43467756D01*
X93418466Y-43394183D01*
X92021569Y-43129857D01*
X91542308Y-42967636D01*
X90628695Y-42577082D01*
X92021569Y-42577082D01*
X92045785Y-42635882D01*
X92374163Y-42785515D01*
X92924822Y-42867845D01*
X93490086Y-42863163D01*
X93862284Y-42751763D01*
X94030201Y-42649411D01*
X94691172Y-42441192D01*
X95539662Y-42308110D01*
X96357339Y-42277028D01*
X96925871Y-42374811D01*
X97053780Y-42507834D01*
X96760563Y-42618272D01*
X96005882Y-42718037D01*
X95437922Y-42791299D01*
X94967827Y-42899904D01*
X94885294Y-42999911D01*
X95081484Y-43035125D01*
X95713143Y-43017168D01*
X96649741Y-42926609D01*
X97780767Y-42778443D01*
X98995709Y-42587667D01*
X100184055Y-42369276D01*
X101235294Y-42138266D01*
X102252091Y-41915196D01*
X103509305Y-41760348D01*
X104415556Y-41840469D01*
X105024674Y-42155809D01*
X105207966Y-42305302D01*
X105471650Y-42403282D01*
X105517462Y-42396014D01*
X110537623Y-42396014D01*
X110707092Y-42864829D01*
X110902106Y-43064054D01*
X111308204Y-43200897D01*
X111599490Y-42865846D01*
X111651280Y-42653026D01*
X111517132Y-42179631D01*
X111071569Y-41982353D01*
X110765520Y-42053558D01*
X110537623Y-42396014D01*
X105517462Y-42396014D01*
X105840088Y-42344830D01*
X106425901Y-42105984D01*
X107195922Y-41733333D01*
X113437255Y-41733333D01*
X113444491Y-41792855D01*
X113686275Y-41982353D01*
X113745797Y-41975116D01*
X113935294Y-41733333D01*
X113928058Y-41673811D01*
X113686275Y-41484313D01*
X113626753Y-41491550D01*
X113437255Y-41733333D01*
X107195922Y-41733333D01*
X107341712Y-41662778D01*
X108145030Y-41247272D01*
X108808111Y-40830111D01*
X109175163Y-40458554D01*
X109339705Y-40057459D01*
X109445375Y-39621396D01*
X109800666Y-38430151D01*
X110285829Y-37012711D01*
X110844675Y-35521952D01*
X111421015Y-34110747D01*
X111958660Y-32931971D01*
X112923287Y-30978647D01*
X112246447Y-31408555D01*
X111659644Y-31817198D01*
X111055519Y-32303545D01*
X111018286Y-32336993D01*
X110504405Y-32719845D01*
X110274977Y-32702646D01*
X110329111Y-32293076D01*
X110665918Y-31498813D01*
X111284508Y-30327536D01*
X111767422Y-29415157D01*
X112345269Y-28241665D01*
X112859648Y-27122276D01*
X113641209Y-25335728D01*
X112524079Y-26188452D01*
X112050458Y-26527340D01*
X111348242Y-26926020D01*
X110872872Y-27051589D01*
X110698039Y-26876290D01*
X110737908Y-26750808D01*
X110966745Y-26283141D01*
X111331085Y-25631192D01*
X111554890Y-25231264D01*
X111787995Y-24742004D01*
X111816205Y-24550980D01*
X111736321Y-24573183D01*
X111316207Y-24771031D01*
X110701807Y-25107210D01*
X110416053Y-25259113D01*
X109855632Y-25475938D01*
X109547172Y-25475276D01*
X109517560Y-25323879D01*
X109635577Y-24819827D01*
X109643782Y-24800000D01*
X110372642Y-24800000D01*
X110574054Y-24701620D01*
X111077790Y-24379637D01*
X111751025Y-23911321D01*
X112336165Y-23513755D01*
X112858814Y-23210717D01*
X113104452Y-23139092D01*
X113061564Y-23371572D01*
X112820996Y-23918108D01*
X112433739Y-24650320D01*
X112072319Y-25339304D01*
X111860121Y-25848209D01*
X111857111Y-26041208D01*
X112067136Y-25936527D01*
X112558272Y-25576442D01*
X113188235Y-25049019D01*
X113777057Y-24546493D01*
X114314767Y-24158734D01*
X114599149Y-24085915D01*
X114682353Y-24301960D01*
X114689589Y-24361482D01*
X114931373Y-24550980D01*
X115120622Y-24355225D01*
X115166412Y-23778836D01*
X115057232Y-22915279D01*
X114797759Y-21858792D01*
X114631347Y-21384980D01*
X114034667Y-20301485D01*
X113075959Y-19136634D01*
X111736791Y-17702941D01*
X111916575Y-18574509D01*
X111932209Y-18654715D01*
X111971879Y-19915592D01*
X111687746Y-21251374D01*
X111655853Y-21401309D01*
X110973731Y-23162460D01*
X110922290Y-23276667D01*
X110594640Y-24048453D01*
X110397749Y-24593485D01*
X110372642Y-24800000D01*
X109643782Y-24800000D01*
X109920226Y-24131956D01*
X110481444Y-22976801D01*
X109584998Y-23763890D01*
X109296625Y-23999734D01*
X108693827Y-24394477D01*
X108261433Y-24550049D01*
X107847444Y-24474173D01*
X107014981Y-24030890D01*
X106090799Y-23247852D01*
X105160237Y-22190004D01*
X104594643Y-21518583D01*
X104181868Y-21183110D01*
X104013137Y-21276476D01*
X104101327Y-21789103D01*
X104459314Y-22711411D01*
X104640657Y-23151357D01*
X104828492Y-23729760D01*
X104846501Y-24011015D01*
X104820785Y-24028845D01*
X104517340Y-23922423D01*
X104030284Y-23485103D01*
X103429601Y-22796068D01*
X102785273Y-21934501D01*
X102167283Y-20979584D01*
X101151365Y-19275835D01*
X100448685Y-20687375D01*
X100112194Y-21314656D01*
X99530212Y-22264472D01*
X98989981Y-23013673D01*
X98233957Y-23928431D01*
X99298841Y-24066495D01*
X99346503Y-24072848D01*
X100329992Y-24266264D01*
X101309530Y-24554582D01*
X102122154Y-24882239D01*
X102604902Y-25193675D01*
X102887572Y-25428414D01*
X103477275Y-25852975D01*
X104223530Y-26354335D01*
X104862195Y-26799640D01*
X105320794Y-27160389D01*
X105753026Y-27500397D01*
X106445261Y-28133350D01*
X106608714Y-28305974D01*
X107026591Y-28819578D01*
X107146576Y-29201425D01*
X107030371Y-29606904D01*
X106934718Y-29793227D01*
X106677517Y-30177665D01*
X106421945Y-30559668D01*
X105678406Y-31490010D01*
X104813821Y-32459282D01*
X103937911Y-33342517D01*
X103160395Y-34014743D01*
X102713322Y-34395909D01*
X102306121Y-34839162D01*
X102059390Y-35107737D01*
X101648594Y-35756862D01*
X101432177Y-36233389D01*
X101305637Y-36352919D01*
X101259494Y-36068137D01*
X101221799Y-35799861D01*
X100980017Y-35536539D01*
X100534862Y-35709374D01*
X99905299Y-36314912D01*
X99670185Y-36571249D01*
X99379283Y-36805762D01*
X99349477Y-36658664D01*
X99403397Y-36414167D01*
X99258729Y-36276574D01*
X98749571Y-36341164D01*
X98483132Y-36387506D01*
X98060291Y-36394287D01*
X98101244Y-36254431D01*
X98620588Y-36005882D01*
X99010956Y-35758474D01*
X99232145Y-35209964D01*
X99009878Y-34528738D01*
X98812352Y-34334971D01*
X98443361Y-34308274D01*
X97768593Y-34476479D01*
X97764205Y-34477795D01*
X97113849Y-34720456D01*
X96821033Y-35012426D01*
X96752941Y-35485674D01*
X96704745Y-35835135D01*
X96472795Y-36250047D01*
X95976479Y-36742325D01*
X95137009Y-37405580D01*
X94791987Y-37667941D01*
X94069993Y-38272016D01*
X93578092Y-38839034D01*
X93187971Y-39539135D01*
X92771323Y-40542457D01*
X92652718Y-40847900D01*
X92330627Y-41693785D01*
X92105970Y-42308915D01*
X92021569Y-42577082D01*
X90628695Y-42577082D01*
X90620954Y-42573773D01*
X89817451Y-42135197D01*
X89249678Y-41720297D01*
X89035511Y-41397461D01*
X89039285Y-41375495D01*
X89284147Y-41083509D01*
X89835642Y-40633992D01*
X90587583Y-40114706D01*
X91455727Y-39534409D01*
X92609779Y-38718874D01*
X93635895Y-37951834D01*
X93674437Y-37921823D01*
X94507357Y-37273439D01*
X95267935Y-36681680D01*
X95795884Y-36271253D01*
X96231538Y-35814890D01*
X96366367Y-35318698D01*
X96096691Y-34975039D01*
X95447190Y-34882229D01*
X95250223Y-34894985D01*
X94417205Y-34870891D01*
X93927690Y-34731916D01*
X93818499Y-34527966D01*
X94126448Y-34308945D01*
X94888356Y-34124759D01*
X95216848Y-34067331D01*
X95837277Y-33905512D01*
X96010122Y-33814129D01*
X100063812Y-33814129D01*
X100129582Y-34357871D01*
X100305645Y-34797797D01*
X100542227Y-35009804D01*
X100641101Y-34839162D01*
X100629238Y-34393725D01*
X100520320Y-33887673D01*
X100343484Y-33536948D01*
X100292784Y-33527447D01*
X100902656Y-33527447D01*
X101072613Y-34073585D01*
X101359804Y-34755994D01*
X102520675Y-33824566D01*
X102606062Y-33755033D01*
X103262229Y-33173739D01*
X103998588Y-32460937D01*
X104726176Y-31710778D01*
X105356028Y-31017412D01*
X105799180Y-30474991D01*
X105966667Y-30177665D01*
X105965425Y-30172154D01*
X105751023Y-30243528D01*
X105239787Y-30537152D01*
X104534804Y-30994236D01*
X103783067Y-31483557D01*
X102834412Y-32059794D01*
X102061504Y-32486717D01*
X101743834Y-32652561D01*
X101706681Y-32674340D01*
X101179202Y-32983543D01*
X100902744Y-33200853D01*
X100902656Y-33527447D01*
X100292784Y-33527447D01*
X100151655Y-33501000D01*
X100063812Y-33814129D01*
X96010122Y-33814129D01*
X96143394Y-33743668D01*
X96165521Y-33556803D01*
X96156939Y-32956728D01*
X96112599Y-32060221D01*
X96041441Y-30980676D01*
X95952408Y-29831483D01*
X95854440Y-28726037D01*
X95756480Y-27777729D01*
X95667467Y-27099952D01*
X95630198Y-26945967D01*
X96262012Y-26945967D01*
X96285755Y-27828393D01*
X96380483Y-29054473D01*
X96540400Y-30699623D01*
X96672763Y-31915464D01*
X96792438Y-32737465D01*
X96918239Y-33223990D01*
X97071302Y-33456307D01*
X97272762Y-33515686D01*
X97317340Y-33515139D01*
X97655176Y-33440593D01*
X97854220Y-33186166D01*
X97926817Y-32674340D01*
X97885308Y-31827600D01*
X97742035Y-30568430D01*
X97691255Y-30133985D01*
X97579978Y-28810785D01*
X97541289Y-27898048D01*
X97998039Y-27898048D01*
X98001586Y-28253740D01*
X98046877Y-29174740D01*
X98133343Y-29850185D01*
X98247059Y-30153921D01*
X98418802Y-30087992D01*
X98496079Y-29654207D01*
X98553503Y-29147610D01*
X98769942Y-28488872D01*
X98779002Y-28471877D01*
X98919261Y-28129479D01*
X98769942Y-28146410D01*
X98633036Y-28212593D01*
X98498964Y-28140080D01*
X98610243Y-27848394D01*
X98935079Y-27468135D01*
X99279967Y-27210106D01*
X100352511Y-26784092D01*
X101651591Y-26655834D01*
X103040686Y-26846017D01*
X103685851Y-27005836D01*
X104253851Y-27132354D01*
X104472549Y-27160389D01*
X104423756Y-27111477D01*
X104077634Y-26856312D01*
X103508567Y-26469426D01*
X103295245Y-26333406D01*
X102650838Y-26030357D01*
X102288206Y-26087872D01*
X102078836Y-26171229D01*
X101872405Y-25841959D01*
X101504163Y-25343358D01*
X100809794Y-24991732D01*
X99966034Y-24849096D01*
X99139318Y-24942260D01*
X98496079Y-25298039D01*
X98480698Y-25313573D01*
X98234035Y-25646307D01*
X98087149Y-26105597D01*
X98016372Y-26814994D01*
X97998039Y-27898048D01*
X97541289Y-27898048D01*
X97525563Y-27527041D01*
X97539302Y-26508855D01*
X97644125Y-24862642D01*
X96949513Y-25376190D01*
X96674653Y-25606469D01*
X96450665Y-25910421D01*
X96315050Y-26331782D01*
X96262012Y-26945967D01*
X95630198Y-26945967D01*
X95596345Y-26806099D01*
X95536583Y-26804444D01*
X95199986Y-27034757D01*
X94652129Y-27528437D01*
X93971279Y-28203919D01*
X93235701Y-28979638D01*
X92523661Y-29774029D01*
X91913424Y-30505527D01*
X91483257Y-31092567D01*
X91359474Y-31295028D01*
X90883054Y-32196518D01*
X90367317Y-33314753D01*
X89904052Y-34454332D01*
X89543344Y-35452830D01*
X89234965Y-36418209D01*
X88964255Y-37432685D01*
X88692062Y-38643759D01*
X88379232Y-40198937D01*
X88321217Y-40412017D01*
X88111757Y-40621765D01*
X87829745Y-40431092D01*
X87502602Y-39900517D01*
X87157742Y-39090561D01*
X86822586Y-38061744D01*
X86524549Y-36874585D01*
X86291050Y-35589606D01*
X86193403Y-34858723D01*
X86122735Y-33879647D01*
X86175950Y-33056715D01*
X86357049Y-32183399D01*
X86506845Y-31561074D01*
X86620646Y-30994813D01*
X86631529Y-30776470D01*
X86520003Y-30939412D01*
X86227299Y-31466811D01*
X85804005Y-32272390D01*
X85298039Y-33266666D01*
X84844048Y-34144071D01*
X84379635Y-34980005D01*
X84025997Y-35547633D01*
X83836029Y-35756862D01*
X83752281Y-35692858D01*
X83571012Y-35259964D01*
X83384930Y-34528674D01*
X83219941Y-33629049D01*
X83101950Y-32691147D01*
X83056863Y-31845028D01*
X83073748Y-31420550D01*
X83189538Y-30379713D01*
X83387891Y-29183949D01*
X83636587Y-27995961D01*
X83903406Y-26978450D01*
X84156128Y-26294117D01*
X84244147Y-26125380D01*
X84626474Y-25435740D01*
X85069037Y-24678298D01*
X85666402Y-23685028D01*
X84883485Y-24242514D01*
X84385553Y-24579057D01*
X83972069Y-24761261D01*
X83826048Y-24601564D01*
X83883619Y-24090240D01*
X84032945Y-23478726D01*
X84793840Y-21671209D01*
X85968754Y-19990156D01*
X87495753Y-18499725D01*
X89312903Y-17264072D01*
X91358269Y-16347353D01*
X91831830Y-16211957D01*
X92669800Y-16033424D01*
X93649038Y-15868085D01*
X94664310Y-15728469D01*
X95610382Y-15627107D01*
X96382020Y-15576530D01*
X96873990Y-15589266D01*
X96981059Y-15677847D01*
X96786062Y-15756175D01*
X96182794Y-15910676D01*
X95281195Y-16104407D01*
X94188850Y-16312901D01*
X92291521Y-16736508D01*
X90666329Y-17311382D01*
X89253764Y-18086546D01*
X87911257Y-19125882D01*
X87523676Y-19498427D01*
X86750014Y-20377212D01*
X85990047Y-21378689D01*
X85358642Y-22346647D01*
X84970662Y-23124879D01*
X84911700Y-23312288D01*
X84975862Y-23444253D01*
X85365899Y-23275461D01*
X85598542Y-23143031D01*
X86249815Y-22730269D01*
X86978508Y-22231704D01*
X87391340Y-21956564D01*
X87915677Y-21673047D01*
X88180710Y-21623193D01*
X88173729Y-21745568D01*
X87933715Y-22157352D01*
X87483004Y-22723443D01*
X86308138Y-24163459D01*
X85250748Y-25818153D01*
X84536338Y-27512429D01*
X84107827Y-29387802D01*
X83908129Y-31585784D01*
X83883776Y-32255254D01*
X83868705Y-33161159D01*
X83881945Y-33782828D01*
X83922850Y-34013725D01*
X83986603Y-33962078D01*
X84234715Y-33591804D01*
X84569130Y-32982071D01*
X84917066Y-32346040D01*
X85557615Y-31314303D01*
X86276072Y-30275911D01*
X87005404Y-29317486D01*
X87678581Y-28525650D01*
X88228570Y-27987026D01*
X88588339Y-27788235D01*
X88614898Y-27908231D01*
X88470658Y-28359389D01*
X88163082Y-29030734D01*
X87946885Y-29483864D01*
X87258063Y-31515741D01*
X86954672Y-33616607D01*
X87062409Y-35632353D01*
X87234819Y-36573839D01*
X87409204Y-37382000D01*
X87546350Y-37873529D01*
X87617542Y-38052419D01*
X87705393Y-38185226D01*
X87797537Y-38101448D01*
X87921966Y-37734162D01*
X88106675Y-37016445D01*
X88379658Y-35881372D01*
X88560877Y-35196018D01*
X89364899Y-33004708D01*
X90440977Y-30965088D01*
X91705089Y-29244842D01*
X91990396Y-28929536D01*
X92755225Y-28115879D01*
X93730543Y-27105082D01*
X94820634Y-25995878D01*
X95929783Y-24886999D01*
X96738181Y-24076506D01*
X97840482Y-22915462D01*
X98665024Y-21951424D01*
X99276571Y-21106466D01*
X99739888Y-20302663D01*
X100569190Y-18669052D01*
X99096850Y-15482748D01*
X97624510Y-12296443D01*
X95869274Y-12424245D01*
X94735953Y-12574379D01*
X93411273Y-12851806D01*
X92199839Y-13194622D01*
X90925487Y-13644579D01*
X89449514Y-14258139D01*
X88183307Y-14936858D01*
X87070073Y-15737326D01*
X86053019Y-16716130D01*
X85075355Y-17929861D01*
X84080287Y-19435107D01*
X83011022Y-21288458D01*
X81810770Y-23546502D01*
X80943044Y-25164683D01*
X80086485Y-26608504D01*
X79295079Y-27751957D01*
X78512255Y-28683137D01*
X78271238Y-28944010D01*
X77663022Y-29629139D01*
X77239391Y-30146854D01*
X77080392Y-30401112D01*
X77206063Y-30462068D01*
X77703517Y-30477093D01*
X78450000Y-30413715D01*
X78451622Y-30413513D01*
X79326467Y-30347929D01*
X79743389Y-30440595D01*
X79722399Y-30709757D01*
X79283508Y-31173660D01*
X78880111Y-31590269D01*
X78140522Y-32583209D01*
X77402941Y-33808081D01*
X76756787Y-35110590D01*
X76291480Y-36336440D01*
X76084120Y-37134561D01*
X75846954Y-39363859D01*
X74446112Y-39363859D01*
X74445833Y-39360939D01*
X74721635Y-37087577D01*
X75490257Y-34796110D01*
X76751417Y-32467419D01*
X77009965Y-32025755D01*
X77036775Y-31728710D01*
X76710363Y-31562456D01*
X75959804Y-31434446D01*
X75738709Y-31403107D01*
X75162627Y-31321283D01*
X74901471Y-31283914D01*
X74791579Y-31163436D01*
X74942056Y-30764068D01*
X75391988Y-30153101D01*
X76098866Y-29397501D01*
X76399273Y-29089916D01*
X77523069Y-27752368D01*
X78735244Y-26054100D01*
X79977796Y-24080300D01*
X81192724Y-21916157D01*
X82314625Y-19862260D01*
X83326747Y-18173631D01*
X84267943Y-16817024D01*
X85194481Y-15726309D01*
X86162626Y-14835359D01*
X87228646Y-14078044D01*
X88448806Y-13388236D01*
X89500677Y-12870827D01*
X91437348Y-12084236D01*
X93374631Y-11553024D01*
X95540743Y-11207001D01*
X96943251Y-11042251D01*
X96715265Y-10540490D01*
X97798688Y-10540490D01*
X97971882Y-11075982D01*
X98371187Y-12019305D01*
X98998395Y-13381507D01*
X99855299Y-15173633D01*
X100308232Y-16105105D01*
X101055528Y-17619829D01*
X101742804Y-18986590D01*
X102331530Y-20129967D01*
X102783172Y-20974537D01*
X103059199Y-21444880D01*
X103653280Y-22319148D01*
X103533193Y-21069378D01*
X103527467Y-21007561D01*
X103517016Y-20196291D01*
X103663987Y-19848215D01*
X103957743Y-19969587D01*
X104387651Y-20566666D01*
X104436662Y-20647739D01*
X104777800Y-21120653D01*
X105019045Y-21313725D01*
X105027045Y-21251374D01*
X104855239Y-20865361D01*
X104486346Y-20204847D01*
X103969276Y-19360825D01*
X103687503Y-18908844D01*
X103195836Y-18074152D01*
X102856169Y-17433019D01*
X102729412Y-17096671D01*
X102729437Y-17093506D01*
X102876361Y-16689001D01*
X103224058Y-16156577D01*
X103329888Y-16013137D01*
X103568184Y-15478901D01*
X103439832Y-15171136D01*
X102964267Y-15164092D01*
X102904961Y-15177829D01*
X102575855Y-15100053D01*
X102432076Y-14625492D01*
X102344007Y-14229302D01*
X102078627Y-14031076D01*
X101484314Y-14021226D01*
X101170430Y-14029073D01*
X100793757Y-13952770D01*
X100438754Y-13700320D01*
X100006206Y-13192246D01*
X99396895Y-12349068D01*
X99331159Y-12255902D01*
X98617840Y-11270536D01*
X98123459Y-10648814D01*
X97849811Y-10401783D01*
X97798688Y-10540490D01*
X96715265Y-10540490D01*
X96250090Y-9516713D01*
X95918553Y-8727656D01*
X95709269Y-8109182D01*
X95671592Y-7804411D01*
X95785037Y-7697198D01*
X96159509Y-7632551D01*
X96811589Y-7730452D01*
X97801351Y-8002074D01*
X99188863Y-8458589D01*
X99928045Y-8721922D01*
X103253291Y-10165287D01*
X106239734Y-11926595D01*
X108951336Y-14042430D01*
X109110792Y-14182399D01*
X110051502Y-14957479D01*
X110995990Y-15666411D01*
X111761679Y-16170914D01*
X112057973Y-16348510D01*
X113721056Y-17640996D01*
X114957677Y-19184634D01*
X115760622Y-20968159D01*
X116122675Y-22980305D01*
X116167452Y-23626609D01*
X116185717Y-23778836D01*
X116248656Y-24303388D01*
X116397598Y-24694265D01*
X116675135Y-24927697D01*
X117142124Y-25132139D01*
X117726068Y-25335728D01*
X117793647Y-25359289D01*
X118760855Y-25649221D01*
G37*
%LPC*%
D11*
X100000000Y-84650000D03*
D12*
X100000000Y-59650000D03*
M02*
