G04 #@! TF.GenerationSoftware,KiCad,Pcbnew,6.0.8*
G04 #@! TF.CreationDate,2022-10-09T16:44:10-07:00*
G04 #@! TF.ProjectId,interposer,696e7465-7270-46f7-9365-722e6b696361,v4.0*
G04 #@! TF.SameCoordinates,Original*
G04 #@! TF.FileFunction,Copper,L2,Bot*
G04 #@! TF.FilePolarity,Positive*
%FSLAX46Y46*%
G04 Gerber Fmt 4.6, Leading zero omitted, Abs format (unit mm)*
G04 Created by KiCad (PCBNEW 6.0.8) date 2022-10-09 16:44:10*
%MOMM*%
%LPD*%
G01*
G04 APERTURE LIST*
G04 #@! TA.AperFunction,ViaPad*
%ADD10C,1.000000*%
G04 #@! TD*
G04 #@! TA.AperFunction,ViaPad*
%ADD11C,0.600000*%
G04 #@! TD*
G04 #@! TA.AperFunction,Conductor*
%ADD12C,0.400000*%
G04 #@! TD*
G04 APERTURE END LIST*
D10*
X120300000Y-78300000D03*
X123300000Y-74500000D03*
X123000000Y-63200000D03*
X120300000Y-59000000D03*
X123300000Y-54900000D03*
X122300000Y-48800000D03*
X120300000Y-86100000D03*
X77600000Y-40300000D03*
X100000000Y-40200000D03*
X120200000Y-42900000D03*
D11*
X99230000Y-64020000D03*
D10*
X123900000Y-84000000D03*
D11*
X78486000Y-55626000D03*
X99060000Y-90170000D03*
X78486000Y-76962000D03*
D10*
X123400000Y-90200000D03*
D11*
X123400000Y-92600000D03*
X95270000Y-35300000D03*
X76200000Y-47498000D03*
X78486000Y-85344000D03*
D10*
X120700000Y-68500000D03*
D11*
X87170000Y-34190000D03*
X78486000Y-66548000D03*
X79720000Y-48020000D03*
X84300000Y-92600000D03*
X83770000Y-24740000D03*
X82700000Y-58300000D03*
X83500000Y-56000000D03*
X78300000Y-92600000D03*
X85700000Y-92600000D03*
X85130000Y-25050000D03*
X85700000Y-66690000D03*
X87250000Y-92600000D03*
X86470000Y-25560000D03*
X87400000Y-65660000D03*
X88800000Y-64370000D03*
X88240000Y-26180000D03*
X88800000Y-92600000D03*
X90200000Y-92600000D03*
X108250000Y-92600000D03*
X93700000Y-47800000D03*
X107540000Y-24850000D03*
X101600000Y-57000000D03*
X91800000Y-92600000D03*
X109080000Y-26260000D03*
X96200000Y-47800000D03*
X102006139Y-56086186D03*
X109750000Y-92600000D03*
X93300000Y-92600000D03*
X98700000Y-47800000D03*
X104100000Y-56800000D03*
X111250000Y-92600000D03*
X110720000Y-27450000D03*
X94700000Y-92600000D03*
X112750000Y-92600000D03*
X112190000Y-28990000D03*
X104400000Y-55800000D03*
X101300000Y-47800000D03*
X96200000Y-92600000D03*
X107600000Y-55240000D03*
X114250000Y-92600000D03*
X113480000Y-31030000D03*
X103860000Y-42300000D03*
X97700000Y-92600000D03*
X103890000Y-53060000D03*
X106480000Y-42160000D03*
X114860000Y-29950000D03*
X115750000Y-92600000D03*
X103500000Y-62100000D03*
X106300000Y-52800000D03*
X99300000Y-92600000D03*
X117250000Y-92600000D03*
X116810000Y-24790000D03*
X108499500Y-43210000D03*
X108900000Y-52800000D03*
X104499994Y-62700000D03*
X100800000Y-92600000D03*
X118750000Y-92600000D03*
X111069500Y-43493662D03*
X117830000Y-31030000D03*
X102300000Y-92600000D03*
X111400000Y-52800000D03*
X105500000Y-63300000D03*
X103800000Y-92600000D03*
X114000000Y-52800000D03*
X106499994Y-63900000D03*
X121750000Y-92600000D03*
X121400000Y-26230000D03*
X116002138Y-42960469D03*
X105300000Y-92600000D03*
X116500000Y-52800000D03*
X107507115Y-64507115D03*
X119000000Y-52800000D03*
X108500000Y-65100000D03*
X106800000Y-92600000D03*
X114520000Y-48000000D03*
X119730000Y-25770000D03*
X120250000Y-92600000D03*
X90600000Y-56000000D03*
X82800000Y-92600000D03*
X84499996Y-62600000D03*
X88500000Y-56000000D03*
X84600000Y-60700000D03*
X81300000Y-92600000D03*
X79800000Y-92600000D03*
X83847602Y-58952398D03*
X86200000Y-55400000D03*
D12*
X79720000Y-28790000D02*
X83770000Y-24740000D01*
X79720000Y-48020000D02*
X79720000Y-28790000D01*
X83500000Y-56000000D02*
X83500000Y-57500000D01*
X83500000Y-57500000D02*
X82700000Y-58300000D01*
X82110000Y-66690000D02*
X79850000Y-64430000D01*
X79850000Y-64430000D02*
X79850000Y-49200000D01*
X81800000Y-28380000D02*
X85130000Y-25050000D01*
X81800000Y-43520000D02*
X81800000Y-28380000D01*
X80620000Y-44700000D02*
X81800000Y-43520000D01*
X79850000Y-49200000D02*
X80620000Y-48430000D01*
X80620000Y-48430000D02*
X80620000Y-44700000D01*
X85700000Y-66690000D02*
X82110000Y-66690000D01*
X80650000Y-49550000D02*
X80650000Y-64098630D01*
X80650000Y-64098630D02*
X82211370Y-65660000D01*
X82211370Y-65660000D02*
X87400000Y-65660000D01*
X86060000Y-25560000D02*
X82650000Y-28970000D01*
X86470000Y-25560000D02*
X86060000Y-25560000D01*
X82650000Y-28970000D02*
X82650000Y-43801370D01*
X81420000Y-45031370D02*
X81420000Y-48780000D01*
X82650000Y-43801370D02*
X81420000Y-45031370D01*
X81420000Y-48780000D02*
X80650000Y-49550000D01*
X87460000Y-64370000D02*
X87000000Y-64830000D01*
X81541370Y-63858630D02*
X81541370Y-49790000D01*
X81541370Y-49790000D02*
X82220000Y-49111370D01*
X88800000Y-64370000D02*
X87460000Y-64370000D01*
X82512740Y-64830000D02*
X81541370Y-63858630D01*
X83450000Y-30970000D02*
X88240000Y-26180000D01*
X87000000Y-64830000D02*
X82512740Y-64830000D01*
X82220000Y-45490000D02*
X83450000Y-44260000D01*
X88800000Y-64370000D02*
X88760000Y-64330000D01*
X82220000Y-49111370D02*
X82220000Y-45490000D01*
X83450000Y-44260000D02*
X83450000Y-30970000D01*
X93700000Y-47800000D02*
X93700000Y-49100000D01*
X93700000Y-49100000D02*
X101600000Y-57000000D01*
X93700000Y-38690000D02*
X107540000Y-24850000D01*
X93700000Y-47800000D02*
X93700000Y-38690000D01*
X96200000Y-47800000D02*
X96200000Y-37380000D01*
X107320000Y-26260000D02*
X109080000Y-26260000D01*
X96200000Y-47800000D02*
X96200000Y-50280047D01*
X96200000Y-50280047D02*
X102006139Y-56086186D01*
X101520000Y-32060000D02*
X107320000Y-26260000D01*
X96200000Y-37380000D02*
X101520000Y-32060000D01*
X98700000Y-36040000D02*
X101620000Y-33120000D01*
X101620000Y-33120000D02*
X107290000Y-27450000D01*
X98700000Y-51400000D02*
X104100000Y-56800000D01*
X98700000Y-47800000D02*
X98700000Y-51400000D01*
X98700000Y-47800000D02*
X98700000Y-36040000D01*
X107290000Y-27450000D02*
X110720000Y-27450000D01*
X105500685Y-30370685D02*
X106881370Y-28990000D01*
X101300000Y-47800000D02*
X101300000Y-34571370D01*
X101300000Y-34571370D02*
X105500685Y-30370685D01*
X101300000Y-47800000D02*
X101300000Y-52700000D01*
X106881370Y-28990000D02*
X112190000Y-28990000D01*
X101300000Y-52700000D02*
X104400000Y-55800000D01*
X113690000Y-31240000D02*
X113480000Y-31030000D01*
X113690000Y-35970000D02*
X113690000Y-31240000D01*
X107600000Y-42060000D02*
X113690000Y-35970000D01*
X107600000Y-55240000D02*
X107600000Y-42060000D01*
X103860000Y-42300000D02*
X103860000Y-53030000D01*
X103860000Y-53030000D02*
X103890000Y-53060000D01*
X112480000Y-29950000D02*
X114860000Y-29950000D01*
X106480000Y-42160000D02*
X106480000Y-41240000D01*
X106860000Y-41240000D02*
X112105000Y-35995000D01*
X112105000Y-30325000D02*
X112480000Y-29950000D01*
X106480000Y-41240000D02*
X106860000Y-41240000D01*
X112105000Y-35995000D02*
X112105000Y-30325000D01*
X106300000Y-59300000D02*
X103500000Y-62100000D01*
X106300000Y-52800000D02*
X106300000Y-59300000D01*
X116810000Y-34899500D02*
X108499500Y-43210000D01*
X116810000Y-24790000D02*
X116810000Y-34899500D01*
X108900000Y-58299994D02*
X104499994Y-62700000D01*
X108900000Y-52800000D02*
X108900000Y-58299994D01*
X111069500Y-43493662D02*
X117830000Y-36733162D01*
X117830000Y-36733162D02*
X117830000Y-31030000D01*
X111400000Y-52800000D02*
X111400000Y-57400000D01*
X111400000Y-57400000D02*
X105500000Y-63300000D01*
X114000000Y-52800000D02*
X114000000Y-56399994D01*
X114000000Y-56399994D02*
X106499994Y-63900000D01*
X116002138Y-40839232D02*
X118720685Y-38120685D01*
X120530000Y-35648630D02*
X120530000Y-27100000D01*
X120530000Y-27100000D02*
X121400000Y-26230000D01*
X120530000Y-36311370D02*
X120530000Y-35648630D01*
X118720685Y-38120685D02*
X120530000Y-36311370D01*
X116002138Y-42960469D02*
X116002138Y-40839232D01*
X116500000Y-55514230D02*
X107507115Y-64507115D01*
X116500000Y-52800000D02*
X116500000Y-55514230D01*
X108500000Y-65100000D02*
X119000000Y-54600000D01*
X119000000Y-54600000D02*
X119000000Y-52800000D01*
X114520000Y-48000000D02*
X114520000Y-41190000D01*
X114520000Y-41190000D02*
X118900000Y-36810000D01*
X119730000Y-35980000D02*
X119730000Y-25770000D01*
X118900000Y-36810000D02*
X119730000Y-35980000D01*
X84499996Y-62600000D02*
X90600000Y-56499996D01*
X90600000Y-56499996D02*
X90600000Y-56000000D01*
X84500000Y-62600000D02*
X84499996Y-62600000D01*
X84600000Y-59900000D02*
X88500000Y-56000000D01*
X84600000Y-60700000D02*
X84600000Y-59900000D01*
X83847602Y-58952398D02*
X86200000Y-56600000D01*
X86200000Y-56600000D02*
X86200000Y-55400000D01*
G04 #@! TA.AperFunction,Conductor*
G36*
X131183621Y-5028502D02*
G01*
X131230114Y-5082158D01*
X131241500Y-5134500D01*
X131241500Y-23662434D01*
X131221498Y-23730555D01*
X131167842Y-23777048D01*
X131125164Y-23788063D01*
X121994404Y-24490428D01*
X121981278Y-24490751D01*
X121964327Y-24490284D01*
X121950173Y-24489894D01*
X121950172Y-24489894D01*
X121941199Y-24489647D01*
X121932520Y-24491928D01*
X121932517Y-24491928D01*
X121882403Y-24505097D01*
X121877756Y-24506224D01*
X121827217Y-24517473D01*
X121818420Y-24519431D01*
X121810989Y-24523525D01*
X121808525Y-24524509D01*
X121800324Y-24526664D01*
X121792635Y-24531288D01*
X121792633Y-24531289D01*
X121748239Y-24557988D01*
X121744096Y-24560374D01*
X121743610Y-24560642D01*
X121690840Y-24589711D01*
X121684857Y-24595725D01*
X121682765Y-24597364D01*
X121675500Y-24601733D01*
X121669417Y-24608330D01*
X121669415Y-24608332D01*
X121634297Y-24646419D01*
X121630991Y-24649871D01*
X121611220Y-24669745D01*
X121588112Y-24692973D01*
X121584061Y-24700418D01*
X121582507Y-24702587D01*
X121576763Y-24708817D01*
X121572778Y-24716852D01*
X121572777Y-24716854D01*
X121558573Y-24745497D01*
X121552047Y-24758657D01*
X121549755Y-24763278D01*
X121547565Y-24767490D01*
X121518495Y-24820917D01*
X121516696Y-24829203D01*
X121515814Y-24831721D01*
X121512050Y-24839309D01*
X121507820Y-24863107D01*
X121501410Y-24899170D01*
X121500485Y-24903855D01*
X121489491Y-24954488D01*
X121487587Y-24963258D01*
X121488220Y-24972207D01*
X121488220Y-24972213D01*
X121490695Y-25007176D01*
X121490981Y-25018762D01*
X121485775Y-25261693D01*
X121485012Y-25297312D01*
X121463555Y-25364988D01*
X121408916Y-25410321D01*
X121372213Y-25419922D01*
X121286434Y-25428937D01*
X121232289Y-25434628D01*
X121232288Y-25434628D01*
X121225288Y-25435364D01*
X121053579Y-25493818D01*
X120996836Y-25528727D01*
X120905095Y-25585166D01*
X120905092Y-25585168D01*
X120899088Y-25588862D01*
X120894053Y-25593793D01*
X120894050Y-25593795D01*
X120805410Y-25680598D01*
X120769493Y-25715771D01*
X120763605Y-25724908D01*
X120761740Y-25726519D01*
X120761226Y-25727150D01*
X120761115Y-25727060D01*
X120709896Y-25771332D01*
X120639610Y-25781351D01*
X120575065Y-25751779D01*
X120536754Y-25692006D01*
X120532478Y-25670701D01*
X120524182Y-25596743D01*
X120523397Y-25589745D01*
X120519571Y-25578757D01*
X120466064Y-25425106D01*
X120466062Y-25425103D01*
X120463745Y-25418448D01*
X120457365Y-25408238D01*
X120371359Y-25270598D01*
X120367626Y-25264624D01*
X120353941Y-25250843D01*
X120244778Y-25140915D01*
X120244774Y-25140912D01*
X120239815Y-25135918D01*
X120228697Y-25128862D01*
X120118485Y-25058920D01*
X120086666Y-25038727D01*
X120038891Y-25021715D01*
X119922425Y-24980243D01*
X119922420Y-24980242D01*
X119915790Y-24977881D01*
X119908802Y-24977048D01*
X119908799Y-24977047D01*
X119785698Y-24962368D01*
X119735680Y-24956404D01*
X119728677Y-24957140D01*
X119728676Y-24957140D01*
X119562288Y-24974628D01*
X119562286Y-24974629D01*
X119555288Y-24975364D01*
X119383579Y-25033818D01*
X119340049Y-25060598D01*
X119235095Y-25125166D01*
X119235092Y-25125168D01*
X119229088Y-25128862D01*
X119224053Y-25133793D01*
X119224050Y-25133795D01*
X119104525Y-25250843D01*
X119099493Y-25255771D01*
X119001235Y-25408238D01*
X118998826Y-25414858D01*
X118998824Y-25414861D01*
X118947431Y-25556062D01*
X118939197Y-25578685D01*
X118916463Y-25758640D01*
X118934163Y-25939160D01*
X118991418Y-26111273D01*
X118995065Y-26117296D01*
X118995066Y-26117297D01*
X119003276Y-26130853D01*
X119021500Y-26196124D01*
X119021500Y-35634340D01*
X119001498Y-35702461D01*
X118984595Y-35723435D01*
X118753595Y-35954435D01*
X118691283Y-35988461D01*
X118620468Y-35983396D01*
X118563632Y-35940849D01*
X118538821Y-35874329D01*
X118538500Y-35865340D01*
X118538500Y-31460132D01*
X118551983Y-31404400D01*
X118553643Y-31401902D01*
X118605785Y-31264640D01*
X118615555Y-31238920D01*
X118615556Y-31238918D01*
X118618055Y-31232338D01*
X118622228Y-31202648D01*
X118642748Y-31056639D01*
X118642748Y-31056636D01*
X118643299Y-31052717D01*
X118643616Y-31030000D01*
X118623397Y-30849745D01*
X118593120Y-30762800D01*
X118566064Y-30685106D01*
X118566062Y-30685103D01*
X118563745Y-30678448D01*
X118467626Y-30524624D01*
X118462664Y-30519627D01*
X118344778Y-30400915D01*
X118344774Y-30400912D01*
X118339815Y-30395918D01*
X118186666Y-30298727D01*
X118155887Y-30287767D01*
X118022425Y-30240243D01*
X118022420Y-30240242D01*
X118015790Y-30237881D01*
X118008802Y-30237048D01*
X118008799Y-30237047D01*
X117885477Y-30222342D01*
X117835680Y-30216404D01*
X117828677Y-30217140D01*
X117828676Y-30217140D01*
X117786578Y-30221565D01*
X117657669Y-30235114D01*
X117587833Y-30222342D01*
X117535986Y-30173840D01*
X117518500Y-30109804D01*
X117518500Y-25220132D01*
X117531983Y-25164400D01*
X117533643Y-25161902D01*
X117541616Y-25140915D01*
X117595555Y-24998920D01*
X117595556Y-24998918D01*
X117598055Y-24992338D01*
X117600544Y-24974628D01*
X117622748Y-24816639D01*
X117622748Y-24816636D01*
X117623299Y-24812717D01*
X117623616Y-24790000D01*
X117603397Y-24609745D01*
X117600487Y-24601388D01*
X117546064Y-24445106D01*
X117546062Y-24445103D01*
X117543745Y-24438448D01*
X117512502Y-24388448D01*
X117451359Y-24290598D01*
X117447626Y-24284624D01*
X117420241Y-24257047D01*
X117324778Y-24160915D01*
X117324774Y-24160912D01*
X117319815Y-24155918D01*
X117308697Y-24148862D01*
X117259297Y-24117512D01*
X117166666Y-24058727D01*
X117106318Y-24037238D01*
X117002425Y-24000243D01*
X117002420Y-24000242D01*
X116995790Y-23997881D01*
X116988802Y-23997048D01*
X116988799Y-23997047D01*
X116865698Y-23982368D01*
X116815680Y-23976404D01*
X116808677Y-23977140D01*
X116808676Y-23977140D01*
X116642288Y-23994628D01*
X116642286Y-23994629D01*
X116635288Y-23995364D01*
X116463579Y-24053818D01*
X116449457Y-24062506D01*
X116315095Y-24145166D01*
X116315092Y-24145168D01*
X116309088Y-24148862D01*
X116304053Y-24153793D01*
X116304050Y-24153795D01*
X116184525Y-24270843D01*
X116179493Y-24275771D01*
X116081235Y-24428238D01*
X116078826Y-24434858D01*
X116078824Y-24434861D01*
X116032552Y-24561992D01*
X116019197Y-24598685D01*
X115996463Y-24778640D01*
X116014163Y-24959160D01*
X116071418Y-25131273D01*
X116075065Y-25137296D01*
X116075066Y-25137297D01*
X116083276Y-25150853D01*
X116101500Y-25216124D01*
X116101500Y-34553840D01*
X116081498Y-34621961D01*
X116064595Y-34642935D01*
X114616838Y-36090692D01*
X114554526Y-36124718D01*
X114483711Y-36119653D01*
X114426875Y-36077106D01*
X114401952Y-36008850D01*
X114400777Y-35988461D01*
X114398709Y-35952602D01*
X114398500Y-35945349D01*
X114398500Y-31268927D01*
X114398792Y-31260358D01*
X114402210Y-31210225D01*
X114402210Y-31210221D01*
X114402726Y-31202648D01*
X114391736Y-31139681D01*
X114390775Y-31133165D01*
X114384014Y-31077298D01*
X114383102Y-31069758D01*
X114380419Y-31062657D01*
X114379778Y-31060048D01*
X114375309Y-31043715D01*
X114374548Y-31041195D01*
X114373243Y-31033717D01*
X114369883Y-31026062D01*
X114347559Y-30975204D01*
X114345068Y-30969099D01*
X114325175Y-30916456D01*
X114325173Y-30916452D01*
X114322487Y-30909344D01*
X114318184Y-30903083D01*
X114316947Y-30900717D01*
X114308720Y-30885937D01*
X114307369Y-30883653D01*
X114304315Y-30876695D01*
X114299689Y-30870666D01*
X114292429Y-30861204D01*
X114266828Y-30794984D01*
X114281092Y-30725435D01*
X114330693Y-30674639D01*
X114392391Y-30658500D01*
X114429800Y-30658500D01*
X114486609Y-30672033D01*
X114487260Y-30672362D01*
X114493159Y-30676222D01*
X114499767Y-30678680D01*
X114499768Y-30678680D01*
X114656558Y-30736990D01*
X114656560Y-30736990D01*
X114663168Y-30739448D01*
X114746995Y-30750633D01*
X114835980Y-30762507D01*
X114835984Y-30762507D01*
X114842961Y-30763438D01*
X114849972Y-30762800D01*
X114849976Y-30762800D01*
X114992459Y-30749832D01*
X115023600Y-30746998D01*
X115030302Y-30744820D01*
X115030304Y-30744820D01*
X115189409Y-30693124D01*
X115189412Y-30693123D01*
X115196108Y-30690947D01*
X115351912Y-30598069D01*
X115483266Y-30472982D01*
X115583643Y-30321902D01*
X115648055Y-30152338D01*
X115649035Y-30145366D01*
X115672748Y-29976639D01*
X115672748Y-29976636D01*
X115673299Y-29972717D01*
X115673452Y-29961738D01*
X115673561Y-29953962D01*
X115673561Y-29953957D01*
X115673616Y-29950000D01*
X115653397Y-29769745D01*
X115641439Y-29735405D01*
X115596064Y-29605106D01*
X115596062Y-29605103D01*
X115593745Y-29598448D01*
X115497626Y-29444624D01*
X115492664Y-29439627D01*
X115374778Y-29320915D01*
X115374774Y-29320912D01*
X115369815Y-29315918D01*
X115216666Y-29218727D01*
X115142557Y-29192338D01*
X115052425Y-29160243D01*
X115052420Y-29160242D01*
X115045790Y-29157881D01*
X115038802Y-29157048D01*
X115038799Y-29157047D01*
X114915698Y-29142368D01*
X114865680Y-29136404D01*
X114858677Y-29137140D01*
X114858676Y-29137140D01*
X114692288Y-29154628D01*
X114692286Y-29154629D01*
X114685288Y-29155364D01*
X114595094Y-29186068D01*
X114520249Y-29211547D01*
X114520246Y-29211548D01*
X114513579Y-29213818D01*
X114507576Y-29217511D01*
X114507574Y-29217512D01*
X114498949Y-29222818D01*
X114432928Y-29241500D01*
X113116092Y-29241500D01*
X113047971Y-29221498D01*
X113001478Y-29167842D01*
X112991318Y-29097964D01*
X113002748Y-29016639D01*
X113002748Y-29016636D01*
X113003299Y-29012717D01*
X113003616Y-28990000D01*
X112983397Y-28809745D01*
X112958315Y-28737720D01*
X112926064Y-28645106D01*
X112926062Y-28645103D01*
X112923745Y-28638448D01*
X112827626Y-28484624D01*
X112822664Y-28479627D01*
X112704778Y-28360915D01*
X112704774Y-28360912D01*
X112699815Y-28355918D01*
X112546666Y-28258727D01*
X112492524Y-28239448D01*
X112382425Y-28200243D01*
X112382420Y-28200242D01*
X112375790Y-28197881D01*
X112368802Y-28197048D01*
X112368799Y-28197047D01*
X112245698Y-28182368D01*
X112195680Y-28176404D01*
X112188677Y-28177140D01*
X112188676Y-28177140D01*
X112022288Y-28194628D01*
X112022286Y-28194629D01*
X112015288Y-28195364D01*
X111925094Y-28226068D01*
X111850249Y-28251547D01*
X111850246Y-28251548D01*
X111843579Y-28253818D01*
X111837576Y-28257511D01*
X111837574Y-28257512D01*
X111828949Y-28262818D01*
X111762928Y-28281500D01*
X111334313Y-28281500D01*
X111266192Y-28261498D01*
X111219699Y-28207842D01*
X111209595Y-28137568D01*
X111239089Y-28072988D01*
X111247421Y-28064254D01*
X111343266Y-27972982D01*
X111443643Y-27821902D01*
X111508055Y-27652338D01*
X111533299Y-27472717D01*
X111533616Y-27450000D01*
X111513397Y-27269745D01*
X111453745Y-27098448D01*
X111357626Y-26944624D01*
X111330532Y-26917340D01*
X111234778Y-26820915D01*
X111234774Y-26820912D01*
X111229815Y-26815918D01*
X111076666Y-26718727D01*
X111015961Y-26697111D01*
X110912425Y-26660243D01*
X110912420Y-26660242D01*
X110905790Y-26657881D01*
X110898802Y-26657048D01*
X110898799Y-26657047D01*
X110775698Y-26642368D01*
X110725680Y-26636404D01*
X110718677Y-26637140D01*
X110718676Y-26637140D01*
X110552288Y-26654628D01*
X110552286Y-26654629D01*
X110545288Y-26655364D01*
X110455094Y-26686068D01*
X110380249Y-26711547D01*
X110380246Y-26711548D01*
X110373579Y-26713818D01*
X110367576Y-26717511D01*
X110367574Y-26717512D01*
X110358949Y-26722818D01*
X110292928Y-26741500D01*
X109944658Y-26741500D01*
X109876537Y-26721498D01*
X109830044Y-26667842D01*
X109819940Y-26597568D01*
X109826870Y-26570756D01*
X109845247Y-26522381D01*
X109868055Y-26462338D01*
X109884112Y-26348088D01*
X109892748Y-26286639D01*
X109892748Y-26286636D01*
X109893299Y-26282717D01*
X109893616Y-26260000D01*
X109873397Y-26079745D01*
X109848229Y-26007473D01*
X109816064Y-25915106D01*
X109816062Y-25915103D01*
X109813745Y-25908448D01*
X109717626Y-25754624D01*
X109690254Y-25727060D01*
X109594778Y-25630915D01*
X109594774Y-25630912D01*
X109589815Y-25625918D01*
X109543843Y-25596743D01*
X109515387Y-25578685D01*
X109436666Y-25528727D01*
X109407463Y-25518328D01*
X109272425Y-25470243D01*
X109272420Y-25470242D01*
X109265790Y-25467881D01*
X109258802Y-25467048D01*
X109258799Y-25467047D01*
X109135698Y-25452368D01*
X109085680Y-25446404D01*
X109078677Y-25447140D01*
X109078676Y-25447140D01*
X108912288Y-25464628D01*
X108912286Y-25464629D01*
X108905288Y-25465364D01*
X108828375Y-25491547D01*
X108740249Y-25521547D01*
X108740246Y-25521548D01*
X108733579Y-25523818D01*
X108727576Y-25527511D01*
X108727574Y-25527512D01*
X108718949Y-25532818D01*
X108652928Y-25551500D01*
X108279648Y-25551500D01*
X108211527Y-25531498D01*
X108165034Y-25477842D01*
X108154930Y-25407568D01*
X108174700Y-25355773D01*
X108221531Y-25285286D01*
X108263643Y-25221902D01*
X108305423Y-25111917D01*
X108325555Y-25058920D01*
X108325556Y-25058918D01*
X108328055Y-25052338D01*
X108334402Y-25007176D01*
X108352748Y-24876639D01*
X108352748Y-24876636D01*
X108353299Y-24872717D01*
X108353616Y-24850000D01*
X108333397Y-24669745D01*
X108329593Y-24658820D01*
X108276064Y-24505106D01*
X108276060Y-24505097D01*
X108273745Y-24498448D01*
X108226170Y-24422312D01*
X108181359Y-24350598D01*
X108177626Y-24344624D01*
X108149561Y-24316362D01*
X108054778Y-24220915D01*
X108054774Y-24220912D01*
X108049815Y-24215918D01*
X108038697Y-24208862D01*
X107955270Y-24155918D01*
X107896666Y-24118727D01*
X107850093Y-24102143D01*
X107732425Y-24060243D01*
X107732420Y-24060242D01*
X107725790Y-24057881D01*
X107718802Y-24057048D01*
X107718799Y-24057047D01*
X107595698Y-24042368D01*
X107545680Y-24036404D01*
X107538677Y-24037140D01*
X107538676Y-24037140D01*
X107372288Y-24054628D01*
X107372286Y-24054629D01*
X107365288Y-24055364D01*
X107193579Y-24113818D01*
X107187575Y-24117512D01*
X107045095Y-24205166D01*
X107045092Y-24205168D01*
X107039088Y-24208862D01*
X107034053Y-24213793D01*
X107034050Y-24213795D01*
X106914525Y-24330843D01*
X106909493Y-24335771D01*
X106862389Y-24408862D01*
X106816665Y-24479813D01*
X106811235Y-24488238D01*
X106808825Y-24494858D01*
X106808824Y-24494861D01*
X106770110Y-24601226D01*
X106740804Y-24647226D01*
X93219480Y-38168550D01*
X93213215Y-38174404D01*
X93169615Y-38212439D01*
X93165248Y-38218653D01*
X93132872Y-38264719D01*
X93128939Y-38270014D01*
X93089524Y-38320282D01*
X93086401Y-38327198D01*
X93085017Y-38329484D01*
X93076643Y-38344165D01*
X93075378Y-38346525D01*
X93071010Y-38352739D01*
X93068250Y-38359818D01*
X93068249Y-38359820D01*
X93047798Y-38412275D01*
X93045247Y-38418344D01*
X93018955Y-38476573D01*
X93017571Y-38484040D01*
X93016770Y-38486595D01*
X93012141Y-38502848D01*
X93011478Y-38505428D01*
X93008718Y-38512509D01*
X93007727Y-38520040D01*
X93007726Y-38520042D01*
X93000379Y-38575852D01*
X92999348Y-38582359D01*
X92987704Y-38645186D01*
X92988141Y-38652766D01*
X92988141Y-38652767D01*
X92991291Y-38707392D01*
X92991500Y-38714646D01*
X92991500Y-47369710D01*
X92975341Y-47424598D01*
X92978183Y-47426009D01*
X92975053Y-47432313D01*
X92971235Y-47438238D01*
X92968826Y-47444858D01*
X92968824Y-47444861D01*
X92923383Y-47569710D01*
X92909197Y-47608685D01*
X92886463Y-47788640D01*
X92904163Y-47969160D01*
X92961418Y-48141273D01*
X92965065Y-48147296D01*
X92965066Y-48147297D01*
X92973276Y-48160853D01*
X92991500Y-48226124D01*
X92991500Y-49071088D01*
X92991208Y-49079658D01*
X92990342Y-49092368D01*
X92987275Y-49137352D01*
X92988580Y-49144829D01*
X92988580Y-49144830D01*
X92998261Y-49200299D01*
X92999223Y-49206821D01*
X93006898Y-49270242D01*
X93009581Y-49277343D01*
X93010222Y-49279952D01*
X93014685Y-49296262D01*
X93015450Y-49298798D01*
X93016757Y-49306284D01*
X93019811Y-49313241D01*
X93042442Y-49364795D01*
X93044933Y-49370899D01*
X93067513Y-49430656D01*
X93071817Y-49436919D01*
X93073054Y-49439285D01*
X93081299Y-49454097D01*
X93082632Y-49456351D01*
X93085685Y-49463305D01*
X93103917Y-49487064D01*
X93124579Y-49513991D01*
X93128459Y-49519332D01*
X93160339Y-49565720D01*
X93160344Y-49565725D01*
X93164643Y-49571981D01*
X93170313Y-49577032D01*
X93170314Y-49577034D01*
X93211170Y-49613435D01*
X93216446Y-49618416D01*
X100801532Y-57203503D01*
X100831995Y-57252825D01*
X100861418Y-57341273D01*
X100865065Y-57347295D01*
X100865066Y-57347297D01*
X100925053Y-57446347D01*
X100955380Y-57496424D01*
X100960269Y-57501487D01*
X100960270Y-57501488D01*
X101000478Y-57543124D01*
X101081382Y-57626902D01*
X101233159Y-57726222D01*
X101239763Y-57728678D01*
X101239765Y-57728679D01*
X101396558Y-57786990D01*
X101396560Y-57786990D01*
X101403168Y-57789448D01*
X101486995Y-57800633D01*
X101575980Y-57812507D01*
X101575984Y-57812507D01*
X101582961Y-57813438D01*
X101589972Y-57812800D01*
X101589976Y-57812800D01*
X101732459Y-57799832D01*
X101763600Y-57796998D01*
X101770302Y-57794820D01*
X101770304Y-57794820D01*
X101929409Y-57743124D01*
X101929412Y-57743123D01*
X101936108Y-57740947D01*
X102091912Y-57648069D01*
X102223266Y-57522982D01*
X102323643Y-57371902D01*
X102388055Y-57202338D01*
X102389035Y-57195366D01*
X102412748Y-57026639D01*
X102412748Y-57026636D01*
X102413299Y-57022717D01*
X102413616Y-57000000D01*
X102400019Y-56878784D01*
X102412303Y-56808860D01*
X102460717Y-56756511D01*
X102492002Y-56737862D01*
X102492008Y-56737857D01*
X102498051Y-56734255D01*
X102503145Y-56729404D01*
X102503149Y-56729401D01*
X102624189Y-56614135D01*
X102629405Y-56609168D01*
X102655105Y-56570486D01*
X102709463Y-56524816D01*
X102779883Y-56515784D01*
X102849148Y-56551119D01*
X103301532Y-57003503D01*
X103331995Y-57052825D01*
X103361418Y-57141273D01*
X103365065Y-57147295D01*
X103365066Y-57147297D01*
X103428976Y-57252825D01*
X103455380Y-57296424D01*
X103460269Y-57301487D01*
X103460270Y-57301488D01*
X103498690Y-57341273D01*
X103581382Y-57426902D01*
X103733159Y-57526222D01*
X103739763Y-57528678D01*
X103739765Y-57528679D01*
X103896558Y-57586990D01*
X103896560Y-57586990D01*
X103903168Y-57589448D01*
X103986995Y-57600633D01*
X104075980Y-57612507D01*
X104075984Y-57612507D01*
X104082961Y-57613438D01*
X104089972Y-57612800D01*
X104089976Y-57612800D01*
X104232459Y-57599832D01*
X104263600Y-57596998D01*
X104270302Y-57594820D01*
X104270304Y-57594820D01*
X104429409Y-57543124D01*
X104429412Y-57543123D01*
X104436108Y-57540947D01*
X104591912Y-57448069D01*
X104723266Y-57322982D01*
X104823643Y-57171902D01*
X104888055Y-57002338D01*
X104889035Y-56995366D01*
X104912748Y-56826639D01*
X104912748Y-56826636D01*
X104913299Y-56822717D01*
X104913616Y-56800000D01*
X104893397Y-56619745D01*
X104874836Y-56566445D01*
X104871322Y-56495537D01*
X104906935Y-56433764D01*
X105018159Y-56327846D01*
X105018162Y-56327843D01*
X105023266Y-56322982D01*
X105123643Y-56171902D01*
X105177757Y-56029448D01*
X105185555Y-56008920D01*
X105185556Y-56008918D01*
X105188055Y-56002338D01*
X105189980Y-55988640D01*
X105212748Y-55826639D01*
X105212748Y-55826636D01*
X105213299Y-55822717D01*
X105213616Y-55800000D01*
X105193397Y-55619745D01*
X105191080Y-55613091D01*
X105136064Y-55455106D01*
X105136062Y-55455103D01*
X105133745Y-55448448D01*
X105092003Y-55381646D01*
X105041359Y-55300598D01*
X105037626Y-55294624D01*
X105009561Y-55266362D01*
X104914778Y-55170915D01*
X104914774Y-55170912D01*
X104909815Y-55165918D01*
X104756666Y-55068727D01*
X104649908Y-55030712D01*
X104603078Y-55001108D01*
X103677416Y-54075446D01*
X103643390Y-54013134D01*
X103648455Y-53942319D01*
X103691002Y-53885483D01*
X103757522Y-53860672D01*
X103783175Y-53861458D01*
X103865979Y-53872507D01*
X103865984Y-53872507D01*
X103872961Y-53873438D01*
X103879972Y-53872800D01*
X103879976Y-53872800D01*
X104022459Y-53859832D01*
X104053600Y-53856998D01*
X104060302Y-53854820D01*
X104060304Y-53854820D01*
X104219409Y-53803124D01*
X104219412Y-53803123D01*
X104226108Y-53800947D01*
X104381912Y-53708069D01*
X104513266Y-53582982D01*
X104613643Y-53431902D01*
X104660432Y-53308731D01*
X104675555Y-53268920D01*
X104675556Y-53268918D01*
X104678055Y-53262338D01*
X104703299Y-53082717D01*
X104703616Y-53060000D01*
X104683397Y-52879745D01*
X104679546Y-52868685D01*
X104626063Y-52715105D01*
X104623745Y-52708448D01*
X104620008Y-52702467D01*
X104587646Y-52650676D01*
X104568500Y-52583907D01*
X104568500Y-42730132D01*
X104581983Y-42674400D01*
X104583643Y-42671902D01*
X104611448Y-42598707D01*
X104645555Y-42508920D01*
X104645556Y-42508918D01*
X104648055Y-42502338D01*
X104649144Y-42494590D01*
X104672748Y-42326639D01*
X104672748Y-42326636D01*
X104673299Y-42322717D01*
X104673616Y-42300000D01*
X104653397Y-42119745D01*
X104649647Y-42108976D01*
X104596064Y-41955106D01*
X104596062Y-41955103D01*
X104593745Y-41948448D01*
X104497626Y-41794624D01*
X104488835Y-41785771D01*
X104374778Y-41670915D01*
X104374774Y-41670912D01*
X104369815Y-41665918D01*
X104361666Y-41660746D01*
X104253570Y-41592147D01*
X104216666Y-41568727D01*
X104187463Y-41558328D01*
X104052425Y-41510243D01*
X104052420Y-41510242D01*
X104045790Y-41507881D01*
X104038802Y-41507048D01*
X104038799Y-41507047D01*
X103915698Y-41492368D01*
X103865680Y-41486404D01*
X103858677Y-41487140D01*
X103858676Y-41487140D01*
X103692288Y-41504628D01*
X103692286Y-41504629D01*
X103685288Y-41505364D01*
X103513579Y-41563818D01*
X103507575Y-41567512D01*
X103365095Y-41655166D01*
X103365092Y-41655168D01*
X103359088Y-41658862D01*
X103354053Y-41663793D01*
X103354050Y-41663795D01*
X103248087Y-41767562D01*
X103229493Y-41785771D01*
X103131235Y-41938238D01*
X103128826Y-41944858D01*
X103128824Y-41944861D01*
X103075029Y-42092662D01*
X103069197Y-42108685D01*
X103046463Y-42288640D01*
X103064163Y-42469160D01*
X103121418Y-42641273D01*
X103125065Y-42647296D01*
X103125066Y-42647297D01*
X103133276Y-42660853D01*
X103151500Y-42726124D01*
X103151500Y-52702768D01*
X103143901Y-52745863D01*
X103124197Y-52800000D01*
X103099197Y-52868685D01*
X103076463Y-53048640D01*
X103088418Y-53170563D01*
X103075159Y-53240311D01*
X103026296Y-53291818D01*
X102957343Y-53308731D01*
X102890193Y-53285681D01*
X102873924Y-53271954D01*
X102045405Y-52443435D01*
X102011379Y-52381123D01*
X102008500Y-52354340D01*
X102008500Y-48230132D01*
X102021983Y-48174400D01*
X102023643Y-48171902D01*
X102088055Y-48002338D01*
X102090963Y-47981646D01*
X102112748Y-47826639D01*
X102112748Y-47826636D01*
X102113299Y-47822717D01*
X102113616Y-47800000D01*
X102093397Y-47619745D01*
X102091080Y-47613091D01*
X102036064Y-47455106D01*
X102036062Y-47455103D01*
X102033745Y-47448448D01*
X102027644Y-47438684D01*
X102008500Y-47371918D01*
X102008500Y-34917030D01*
X102028502Y-34848909D01*
X102045405Y-34827935D01*
X106032078Y-30841262D01*
X107137936Y-29735405D01*
X107200248Y-29701379D01*
X107227031Y-29698500D01*
X111436730Y-29698500D01*
X111504851Y-29718502D01*
X111551344Y-29772158D01*
X111561448Y-29842432D01*
X111539824Y-29896941D01*
X111537879Y-29899709D01*
X111533939Y-29905014D01*
X111494524Y-29955282D01*
X111491401Y-29962198D01*
X111490017Y-29964484D01*
X111481643Y-29979165D01*
X111480378Y-29981525D01*
X111476010Y-29987739D01*
X111473250Y-29994818D01*
X111473249Y-29994820D01*
X111452798Y-30047275D01*
X111450247Y-30053344D01*
X111423955Y-30111573D01*
X111422571Y-30119040D01*
X111421770Y-30121595D01*
X111417141Y-30137848D01*
X111416478Y-30140428D01*
X111413718Y-30147509D01*
X111412727Y-30155040D01*
X111412726Y-30155042D01*
X111405379Y-30210852D01*
X111404348Y-30217359D01*
X111392704Y-30280186D01*
X111393141Y-30287766D01*
X111393141Y-30287767D01*
X111396291Y-30342392D01*
X111396500Y-30349646D01*
X111396500Y-35649340D01*
X111376498Y-35717461D01*
X111359595Y-35738435D01*
X106603435Y-40494595D01*
X106541123Y-40528621D01*
X106514340Y-40531500D01*
X106488762Y-40531500D01*
X106488102Y-40531498D01*
X106397969Y-40531026D01*
X106368873Y-40538011D01*
X106361379Y-40539810D01*
X106347105Y-40542378D01*
X106317300Y-40545985D01*
X106317298Y-40545985D01*
X106309758Y-40546898D01*
X106302651Y-40549583D01*
X106302649Y-40549584D01*
X106278670Y-40558645D01*
X106263543Y-40563299D01*
X106238606Y-40569285D01*
X106238602Y-40569287D01*
X106231223Y-40571058D01*
X106197781Y-40588318D01*
X106184539Y-40594214D01*
X106156451Y-40604827D01*
X106156448Y-40604829D01*
X106149344Y-40607513D01*
X106121944Y-40626345D01*
X106108387Y-40634459D01*
X106078839Y-40649709D01*
X106073118Y-40654700D01*
X106073112Y-40654704D01*
X106050487Y-40674442D01*
X106039021Y-40683336D01*
X106014280Y-40700339D01*
X106014275Y-40700344D01*
X106008019Y-40704643D01*
X105985906Y-40729462D01*
X105974662Y-40740588D01*
X105955341Y-40757443D01*
X105955338Y-40757447D01*
X105949615Y-40762439D01*
X105945247Y-40768653D01*
X105945245Y-40768656D01*
X105927979Y-40793222D01*
X105918972Y-40804586D01*
X105893943Y-40832679D01*
X105890391Y-40839388D01*
X105890388Y-40839392D01*
X105878389Y-40862054D01*
X105870124Y-40875541D01*
X105855381Y-40896519D01*
X105851010Y-40902739D01*
X105848249Y-40909820D01*
X105848247Y-40909824D01*
X105837343Y-40937790D01*
X105831306Y-40950977D01*
X105817254Y-40977518D01*
X105813700Y-40984231D01*
X105811851Y-40991591D01*
X105811849Y-40991597D01*
X105805603Y-41016466D01*
X105800791Y-41031543D01*
X105788718Y-41062509D01*
X105787727Y-41070039D01*
X105787726Y-41070042D01*
X105783808Y-41099807D01*
X105781090Y-41114059D01*
X105771924Y-41150549D01*
X105771884Y-41158147D01*
X105771884Y-41158148D01*
X105771714Y-41190660D01*
X105771665Y-41192035D01*
X105771500Y-41193294D01*
X105771500Y-41231238D01*
X105771498Y-41231898D01*
X105771026Y-41322031D01*
X105771390Y-41323548D01*
X105771500Y-41325450D01*
X105771500Y-41729710D01*
X105755341Y-41784598D01*
X105758183Y-41786009D01*
X105755053Y-41792313D01*
X105751235Y-41798238D01*
X105748826Y-41804858D01*
X105748824Y-41804861D01*
X105699723Y-41939766D01*
X105689197Y-41968685D01*
X105666463Y-42148640D01*
X105684163Y-42329160D01*
X105741418Y-42501273D01*
X105745065Y-42507295D01*
X105745066Y-42507297D01*
X105829853Y-42647297D01*
X105835380Y-42656424D01*
X105961382Y-42786902D01*
X106113159Y-42886222D01*
X106119763Y-42888678D01*
X106119765Y-42888679D01*
X106276558Y-42946990D01*
X106276560Y-42946990D01*
X106283168Y-42949448D01*
X106365765Y-42960469D01*
X106455980Y-42972507D01*
X106455984Y-42972507D01*
X106462961Y-42973438D01*
X106469972Y-42972800D01*
X106469976Y-42972800D01*
X106612459Y-42959832D01*
X106643600Y-42956998D01*
X106726566Y-42930041D01*
X106797531Y-42928013D01*
X106858329Y-42964676D01*
X106889654Y-43028388D01*
X106891500Y-43049874D01*
X106891500Y-51988564D01*
X106871498Y-52056685D01*
X106817842Y-52103178D01*
X106747568Y-52113282D01*
X106697987Y-52094950D01*
X106696142Y-52093779D01*
X106656666Y-52068727D01*
X106613794Y-52053461D01*
X106492425Y-52010243D01*
X106492420Y-52010242D01*
X106485790Y-52007881D01*
X106478802Y-52007048D01*
X106478799Y-52007047D01*
X106328641Y-51989142D01*
X106305680Y-51986404D01*
X106298677Y-51987140D01*
X106298676Y-51987140D01*
X106132288Y-52004628D01*
X106132286Y-52004629D01*
X106125288Y-52005364D01*
X105953579Y-52063818D01*
X105926359Y-52080564D01*
X105805095Y-52155166D01*
X105805092Y-52155168D01*
X105799088Y-52158862D01*
X105794053Y-52163793D01*
X105794050Y-52163795D01*
X105674525Y-52280843D01*
X105669493Y-52285771D01*
X105571235Y-52438238D01*
X105568826Y-52444858D01*
X105568824Y-52444861D01*
X105511606Y-52602066D01*
X105509197Y-52608685D01*
X105486463Y-52788640D01*
X105504163Y-52969160D01*
X105561418Y-53141273D01*
X105565065Y-53147296D01*
X105565066Y-53147297D01*
X105573276Y-53160853D01*
X105591500Y-53226124D01*
X105591500Y-58954340D01*
X105571498Y-59022461D01*
X105554595Y-59043435D01*
X103296563Y-61301467D01*
X103248074Y-61331650D01*
X103153579Y-61363818D01*
X103147575Y-61367512D01*
X103005095Y-61455166D01*
X103005092Y-61455168D01*
X102999088Y-61458862D01*
X102994053Y-61463793D01*
X102994050Y-61463795D01*
X102874525Y-61580843D01*
X102869493Y-61585771D01*
X102771235Y-61738238D01*
X102768826Y-61744858D01*
X102768824Y-61744861D01*
X102726354Y-61861547D01*
X102709197Y-61908685D01*
X102686463Y-62088640D01*
X102704163Y-62269160D01*
X102761418Y-62441273D01*
X102855380Y-62596424D01*
X102981382Y-62726902D01*
X102987278Y-62730760D01*
X103125190Y-62821007D01*
X103133159Y-62826222D01*
X103139763Y-62828678D01*
X103139765Y-62828679D01*
X103296558Y-62886990D01*
X103296560Y-62886990D01*
X103303168Y-62889448D01*
X103386995Y-62900633D01*
X103475980Y-62912507D01*
X103475984Y-62912507D01*
X103482961Y-62913438D01*
X103489972Y-62912800D01*
X103489976Y-62912800D01*
X103612499Y-62901649D01*
X103682152Y-62915394D01*
X103733317Y-62964615D01*
X103743476Y-62987355D01*
X103761412Y-63041273D01*
X103765059Y-63047295D01*
X103765060Y-63047297D01*
X103807341Y-63117111D01*
X103855374Y-63196424D01*
X103860263Y-63201487D01*
X103860264Y-63201488D01*
X103937115Y-63281068D01*
X103981376Y-63326902D01*
X103987272Y-63330760D01*
X104089471Y-63397637D01*
X104133153Y-63426222D01*
X104139757Y-63428678D01*
X104139759Y-63428679D01*
X104296552Y-63486990D01*
X104296554Y-63486990D01*
X104303162Y-63489448D01*
X104386989Y-63500633D01*
X104475974Y-63512507D01*
X104475978Y-63512507D01*
X104482955Y-63513438D01*
X104489966Y-63512800D01*
X104489970Y-63512800D01*
X104612504Y-63501648D01*
X104682157Y-63515393D01*
X104733322Y-63564614D01*
X104743482Y-63587356D01*
X104761418Y-63641273D01*
X104765065Y-63647295D01*
X104765066Y-63647297D01*
X104833508Y-63760308D01*
X104855380Y-63796424D01*
X104860269Y-63801487D01*
X104860270Y-63801488D01*
X104892288Y-63834643D01*
X104981382Y-63926902D01*
X105133159Y-64026222D01*
X105139763Y-64028678D01*
X105139765Y-64028679D01*
X105296558Y-64086990D01*
X105296560Y-64086990D01*
X105303168Y-64089448D01*
X105386995Y-64100633D01*
X105475980Y-64112507D01*
X105475984Y-64112507D01*
X105482961Y-64113438D01*
X105489972Y-64112800D01*
X105489976Y-64112800D01*
X105612499Y-64101649D01*
X105682152Y-64115394D01*
X105733317Y-64164615D01*
X105743476Y-64187355D01*
X105761412Y-64241273D01*
X105765059Y-64247295D01*
X105765060Y-64247297D01*
X105850731Y-64388757D01*
X105855374Y-64396424D01*
X105981376Y-64526902D01*
X106133153Y-64626222D01*
X106139757Y-64628678D01*
X106139759Y-64628679D01*
X106296552Y-64686990D01*
X106296554Y-64686990D01*
X106303162Y-64689448D01*
X106386989Y-64700633D01*
X106475974Y-64712507D01*
X106475978Y-64712507D01*
X106482955Y-64713438D01*
X106489966Y-64712800D01*
X106489970Y-64712800D01*
X106571158Y-64705411D01*
X106617114Y-64701228D01*
X106686766Y-64714973D01*
X106737931Y-64764194D01*
X106748090Y-64786935D01*
X106768533Y-64848388D01*
X106772180Y-64854410D01*
X106772181Y-64854412D01*
X106829112Y-64948416D01*
X106862495Y-65003539D01*
X106867384Y-65008602D01*
X106867385Y-65008603D01*
X106880011Y-65021677D01*
X106988497Y-65134017D01*
X107140274Y-65233337D01*
X107146878Y-65235793D01*
X107146880Y-65235794D01*
X107303673Y-65294105D01*
X107303675Y-65294105D01*
X107310283Y-65296563D01*
X107394110Y-65307748D01*
X107483095Y-65319622D01*
X107483099Y-65319622D01*
X107490076Y-65320553D01*
X107497087Y-65319915D01*
X107497091Y-65319915D01*
X107615011Y-65309183D01*
X107684664Y-65322928D01*
X107735829Y-65372149D01*
X107745989Y-65394892D01*
X107761418Y-65441273D01*
X107765065Y-65447295D01*
X107765066Y-65447297D01*
X107780688Y-65473091D01*
X107855380Y-65596424D01*
X107981382Y-65726902D01*
X108133159Y-65826222D01*
X108139763Y-65828678D01*
X108139765Y-65828679D01*
X108296558Y-65886990D01*
X108296560Y-65886990D01*
X108303168Y-65889448D01*
X108386995Y-65900633D01*
X108475980Y-65912507D01*
X108475984Y-65912507D01*
X108482961Y-65913438D01*
X108489972Y-65912800D01*
X108489976Y-65912800D01*
X108632459Y-65899832D01*
X108663600Y-65896998D01*
X108670302Y-65894820D01*
X108670304Y-65894820D01*
X108829409Y-65843124D01*
X108829412Y-65843123D01*
X108836108Y-65840947D01*
X108991912Y-65748069D01*
X109123266Y-65622982D01*
X109223643Y-65471902D01*
X109271372Y-65346256D01*
X109300065Y-65301905D01*
X119480528Y-55121443D01*
X119486793Y-55115589D01*
X119524664Y-55082552D01*
X119524665Y-55082551D01*
X119530385Y-55077561D01*
X119567136Y-55025271D01*
X119571028Y-55020029D01*
X119610476Y-54969718D01*
X119613600Y-54962799D01*
X119614988Y-54960507D01*
X119623357Y-54945835D01*
X119624622Y-54943475D01*
X119628990Y-54937261D01*
X119652203Y-54877723D01*
X119654759Y-54871642D01*
X119677918Y-54820352D01*
X119681045Y-54813427D01*
X119682430Y-54805954D01*
X119683234Y-54803388D01*
X119687855Y-54787165D01*
X119688520Y-54784573D01*
X119691282Y-54777491D01*
X119693303Y-54762143D01*
X119699622Y-54714139D01*
X119700654Y-54707623D01*
X119710911Y-54652281D01*
X119712295Y-54644814D01*
X119708709Y-54582620D01*
X119708500Y-54575367D01*
X119708500Y-53230132D01*
X119721983Y-53174400D01*
X119723643Y-53171902D01*
X119770467Y-53048640D01*
X119785555Y-53008920D01*
X119785556Y-53008918D01*
X119788055Y-53002338D01*
X119789035Y-52995366D01*
X119812748Y-52826639D01*
X119812748Y-52826636D01*
X119813299Y-52822717D01*
X119813616Y-52800000D01*
X119793397Y-52619745D01*
X119791080Y-52613091D01*
X119736064Y-52455106D01*
X119736062Y-52455103D01*
X119733745Y-52448448D01*
X119637626Y-52294624D01*
X119632664Y-52289627D01*
X119514778Y-52170915D01*
X119514774Y-52170912D01*
X119509815Y-52165918D01*
X119498697Y-52158862D01*
X119429767Y-52115118D01*
X119356666Y-52068727D01*
X119313794Y-52053461D01*
X119192425Y-52010243D01*
X119192420Y-52010242D01*
X119185790Y-52007881D01*
X119178802Y-52007048D01*
X119178799Y-52007047D01*
X119028641Y-51989142D01*
X119005680Y-51986404D01*
X118998677Y-51987140D01*
X118998676Y-51987140D01*
X118832288Y-52004628D01*
X118832286Y-52004629D01*
X118825288Y-52005364D01*
X118653579Y-52063818D01*
X118626359Y-52080564D01*
X118505095Y-52155166D01*
X118505092Y-52155168D01*
X118499088Y-52158862D01*
X118494053Y-52163793D01*
X118494050Y-52163795D01*
X118374525Y-52280843D01*
X118369493Y-52285771D01*
X118271235Y-52438238D01*
X118268826Y-52444858D01*
X118268824Y-52444861D01*
X118211606Y-52602066D01*
X118209197Y-52608685D01*
X118186463Y-52788640D01*
X118204163Y-52969160D01*
X118261418Y-53141273D01*
X118265065Y-53147296D01*
X118265066Y-53147297D01*
X118273276Y-53160853D01*
X118291500Y-53226124D01*
X118291500Y-54254340D01*
X118271498Y-54322461D01*
X118254595Y-54343435D01*
X117423595Y-55174435D01*
X117361283Y-55208461D01*
X117290468Y-55203396D01*
X117233632Y-55160849D01*
X117208821Y-55094329D01*
X117208500Y-55085340D01*
X117208500Y-53230132D01*
X117221983Y-53174400D01*
X117223643Y-53171902D01*
X117270467Y-53048640D01*
X117285555Y-53008920D01*
X117285556Y-53008918D01*
X117288055Y-53002338D01*
X117289035Y-52995366D01*
X117312748Y-52826639D01*
X117312748Y-52826636D01*
X117313299Y-52822717D01*
X117313616Y-52800000D01*
X117293397Y-52619745D01*
X117291080Y-52613091D01*
X117236064Y-52455106D01*
X117236062Y-52455103D01*
X117233745Y-52448448D01*
X117137626Y-52294624D01*
X117132664Y-52289627D01*
X117014778Y-52170915D01*
X117014774Y-52170912D01*
X117009815Y-52165918D01*
X116998697Y-52158862D01*
X116929767Y-52115118D01*
X116856666Y-52068727D01*
X116813794Y-52053461D01*
X116692425Y-52010243D01*
X116692420Y-52010242D01*
X116685790Y-52007881D01*
X116678802Y-52007048D01*
X116678799Y-52007047D01*
X116528641Y-51989142D01*
X116505680Y-51986404D01*
X116498677Y-51987140D01*
X116498676Y-51987140D01*
X116332288Y-52004628D01*
X116332286Y-52004629D01*
X116325288Y-52005364D01*
X116153579Y-52063818D01*
X116126359Y-52080564D01*
X116005095Y-52155166D01*
X116005092Y-52155168D01*
X115999088Y-52158862D01*
X115994053Y-52163793D01*
X115994050Y-52163795D01*
X115874525Y-52280843D01*
X115869493Y-52285771D01*
X115771235Y-52438238D01*
X115768826Y-52444858D01*
X115768824Y-52444861D01*
X115711606Y-52602066D01*
X115709197Y-52608685D01*
X115686463Y-52788640D01*
X115704163Y-52969160D01*
X115761418Y-53141273D01*
X115765065Y-53147296D01*
X115765066Y-53147297D01*
X115773276Y-53160853D01*
X115791500Y-53226124D01*
X115791500Y-55168570D01*
X115771498Y-55236691D01*
X115754595Y-55257665D01*
X114923595Y-56088665D01*
X114861283Y-56122691D01*
X114790468Y-56117626D01*
X114733632Y-56075079D01*
X114708821Y-56008559D01*
X114708500Y-55999570D01*
X114708500Y-53230132D01*
X114721983Y-53174400D01*
X114723643Y-53171902D01*
X114770467Y-53048640D01*
X114785555Y-53008920D01*
X114785556Y-53008918D01*
X114788055Y-53002338D01*
X114789035Y-52995366D01*
X114812748Y-52826639D01*
X114812748Y-52826636D01*
X114813299Y-52822717D01*
X114813616Y-52800000D01*
X114793397Y-52619745D01*
X114791080Y-52613091D01*
X114736064Y-52455106D01*
X114736062Y-52455103D01*
X114733745Y-52448448D01*
X114637626Y-52294624D01*
X114632664Y-52289627D01*
X114514778Y-52170915D01*
X114514774Y-52170912D01*
X114509815Y-52165918D01*
X114498697Y-52158862D01*
X114429767Y-52115118D01*
X114356666Y-52068727D01*
X114313794Y-52053461D01*
X114192425Y-52010243D01*
X114192420Y-52010242D01*
X114185790Y-52007881D01*
X114178802Y-52007048D01*
X114178799Y-52007047D01*
X114028641Y-51989142D01*
X114005680Y-51986404D01*
X113998677Y-51987140D01*
X113998676Y-51987140D01*
X113832288Y-52004628D01*
X113832286Y-52004629D01*
X113825288Y-52005364D01*
X113653579Y-52063818D01*
X113626359Y-52080564D01*
X113505095Y-52155166D01*
X113505092Y-52155168D01*
X113499088Y-52158862D01*
X113494053Y-52163793D01*
X113494050Y-52163795D01*
X113374525Y-52280843D01*
X113369493Y-52285771D01*
X113271235Y-52438238D01*
X113268826Y-52444858D01*
X113268824Y-52444861D01*
X113211606Y-52602066D01*
X113209197Y-52608685D01*
X113186463Y-52788640D01*
X113204163Y-52969160D01*
X113261418Y-53141273D01*
X113265065Y-53147296D01*
X113265066Y-53147297D01*
X113273276Y-53160853D01*
X113291500Y-53226124D01*
X113291500Y-56054334D01*
X113271498Y-56122455D01*
X113254595Y-56143429D01*
X112323595Y-57074429D01*
X112261283Y-57108455D01*
X112190468Y-57103390D01*
X112133632Y-57060843D01*
X112108821Y-56994323D01*
X112108500Y-56985334D01*
X112108500Y-53230132D01*
X112121983Y-53174400D01*
X112123643Y-53171902D01*
X112170467Y-53048640D01*
X112185555Y-53008920D01*
X112185556Y-53008918D01*
X112188055Y-53002338D01*
X112189035Y-52995366D01*
X112212748Y-52826639D01*
X112212748Y-52826636D01*
X112213299Y-52822717D01*
X112213616Y-52800000D01*
X112193397Y-52619745D01*
X112191080Y-52613091D01*
X112136064Y-52455106D01*
X112136062Y-52455103D01*
X112133745Y-52448448D01*
X112037626Y-52294624D01*
X112032664Y-52289627D01*
X111914778Y-52170915D01*
X111914774Y-52170912D01*
X111909815Y-52165918D01*
X111898697Y-52158862D01*
X111829767Y-52115118D01*
X111756666Y-52068727D01*
X111713794Y-52053461D01*
X111592425Y-52010243D01*
X111592420Y-52010242D01*
X111585790Y-52007881D01*
X111578802Y-52007048D01*
X111578799Y-52007047D01*
X111428641Y-51989142D01*
X111405680Y-51986404D01*
X111398677Y-51987140D01*
X111398676Y-51987140D01*
X111232288Y-52004628D01*
X111232286Y-52004629D01*
X111225288Y-52005364D01*
X111053579Y-52063818D01*
X111026359Y-52080564D01*
X110905095Y-52155166D01*
X110905092Y-52155168D01*
X110899088Y-52158862D01*
X110894053Y-52163793D01*
X110894050Y-52163795D01*
X110774525Y-52280843D01*
X110769493Y-52285771D01*
X110671235Y-52438238D01*
X110668826Y-52444858D01*
X110668824Y-52444861D01*
X110611606Y-52602066D01*
X110609197Y-52608685D01*
X110586463Y-52788640D01*
X110604163Y-52969160D01*
X110661418Y-53141273D01*
X110665065Y-53147296D01*
X110665066Y-53147297D01*
X110673276Y-53160853D01*
X110691500Y-53226124D01*
X110691500Y-57054340D01*
X110671498Y-57122461D01*
X110654595Y-57143435D01*
X109823595Y-57974435D01*
X109761283Y-58008461D01*
X109690468Y-58003396D01*
X109633632Y-57960849D01*
X109608821Y-57894329D01*
X109608500Y-57885340D01*
X109608500Y-53230132D01*
X109621983Y-53174400D01*
X109623643Y-53171902D01*
X109670467Y-53048640D01*
X109685555Y-53008920D01*
X109685556Y-53008918D01*
X109688055Y-53002338D01*
X109689035Y-52995366D01*
X109712748Y-52826639D01*
X109712748Y-52826636D01*
X109713299Y-52822717D01*
X109713616Y-52800000D01*
X109693397Y-52619745D01*
X109691080Y-52613091D01*
X109636064Y-52455106D01*
X109636062Y-52455103D01*
X109633745Y-52448448D01*
X109537626Y-52294624D01*
X109532664Y-52289627D01*
X109414778Y-52170915D01*
X109414774Y-52170912D01*
X109409815Y-52165918D01*
X109398697Y-52158862D01*
X109329767Y-52115118D01*
X109256666Y-52068727D01*
X109213794Y-52053461D01*
X109092425Y-52010243D01*
X109092420Y-52010242D01*
X109085790Y-52007881D01*
X109078802Y-52007048D01*
X109078799Y-52007047D01*
X108928641Y-51989142D01*
X108905680Y-51986404D01*
X108898677Y-51987140D01*
X108898676Y-51987140D01*
X108732288Y-52004628D01*
X108732286Y-52004629D01*
X108725288Y-52005364D01*
X108553579Y-52063818D01*
X108526359Y-52080564D01*
X108500522Y-52096459D01*
X108432021Y-52115118D01*
X108364307Y-52093779D01*
X108318879Y-52039220D01*
X108308500Y-51989142D01*
X108308500Y-44144155D01*
X108328502Y-44076034D01*
X108382158Y-44029541D01*
X108451165Y-44019262D01*
X108455477Y-44019837D01*
X108475480Y-44022507D01*
X108475484Y-44022507D01*
X108482461Y-44023438D01*
X108489472Y-44022800D01*
X108489476Y-44022800D01*
X108631959Y-44009832D01*
X108663100Y-44006998D01*
X108669802Y-44004820D01*
X108669804Y-44004820D01*
X108828909Y-43953124D01*
X108828912Y-43953123D01*
X108835608Y-43950947D01*
X108938636Y-43889530D01*
X108985360Y-43861677D01*
X108985362Y-43861676D01*
X108991412Y-43858069D01*
X109122766Y-43732982D01*
X109223143Y-43581902D01*
X109258314Y-43489315D01*
X109270872Y-43456256D01*
X109299565Y-43411905D01*
X116906405Y-35805065D01*
X116968717Y-35771039D01*
X117039532Y-35776104D01*
X117096368Y-35818651D01*
X117121179Y-35885171D01*
X117121500Y-35894160D01*
X117121500Y-36387502D01*
X117101498Y-36455623D01*
X117084595Y-36476597D01*
X110866063Y-42695129D01*
X110817574Y-42725312D01*
X110723079Y-42757480D01*
X110674749Y-42787213D01*
X110574595Y-42848828D01*
X110574592Y-42848830D01*
X110568588Y-42852524D01*
X110563553Y-42857455D01*
X110563550Y-42857457D01*
X110445766Y-42972800D01*
X110438993Y-42979433D01*
X110340735Y-43131900D01*
X110338326Y-43138520D01*
X110338324Y-43138523D01*
X110327090Y-43169389D01*
X110278697Y-43302347D01*
X110255963Y-43482302D01*
X110273663Y-43662822D01*
X110330918Y-43834935D01*
X110334565Y-43840957D01*
X110334566Y-43840959D01*
X110401177Y-43950947D01*
X110424880Y-43990086D01*
X110429769Y-43995149D01*
X110429770Y-43995150D01*
X110506621Y-44074730D01*
X110550882Y-44120564D01*
X110702659Y-44219884D01*
X110709263Y-44222340D01*
X110709265Y-44222341D01*
X110866058Y-44280652D01*
X110866060Y-44280652D01*
X110872668Y-44283110D01*
X110956495Y-44294295D01*
X111045480Y-44306169D01*
X111045484Y-44306169D01*
X111052461Y-44307100D01*
X111059472Y-44306462D01*
X111059476Y-44306462D01*
X111201959Y-44293494D01*
X111233100Y-44290660D01*
X111239802Y-44288482D01*
X111239804Y-44288482D01*
X111398909Y-44236786D01*
X111398912Y-44236785D01*
X111405608Y-44234609D01*
X111561412Y-44141731D01*
X111692766Y-44016644D01*
X111793143Y-43865564D01*
X111833963Y-43758106D01*
X111840872Y-43739918D01*
X111869565Y-43695567D01*
X113596405Y-41968727D01*
X113658717Y-41934701D01*
X113729532Y-41939766D01*
X113786368Y-41982313D01*
X113811179Y-42048833D01*
X113811500Y-42057822D01*
X113811500Y-47569710D01*
X113795341Y-47624598D01*
X113798183Y-47626009D01*
X113795053Y-47632313D01*
X113791235Y-47638238D01*
X113788826Y-47644858D01*
X113788824Y-47644861D01*
X113781545Y-47664861D01*
X113729197Y-47808685D01*
X113706463Y-47988640D01*
X113724163Y-48169160D01*
X113781418Y-48341273D01*
X113785065Y-48347295D01*
X113785066Y-48347297D01*
X113797179Y-48367297D01*
X113875380Y-48496424D01*
X113880269Y-48501487D01*
X113880270Y-48501488D01*
X113894694Y-48516424D01*
X114001382Y-48626902D01*
X114153159Y-48726222D01*
X114159763Y-48728678D01*
X114159765Y-48728679D01*
X114316558Y-48786990D01*
X114316560Y-48786990D01*
X114323168Y-48789448D01*
X114406995Y-48800633D01*
X114495980Y-48812507D01*
X114495984Y-48812507D01*
X114502961Y-48813438D01*
X114509972Y-48812800D01*
X114509976Y-48812800D01*
X114652459Y-48799832D01*
X114683600Y-48796998D01*
X114690302Y-48794820D01*
X114690304Y-48794820D01*
X114849409Y-48743124D01*
X114849412Y-48743123D01*
X114856108Y-48740947D01*
X114998232Y-48656224D01*
X115005860Y-48651677D01*
X115005862Y-48651676D01*
X115011912Y-48648069D01*
X115143266Y-48522982D01*
X115243643Y-48371902D01*
X115297497Y-48230132D01*
X115305555Y-48208920D01*
X115305556Y-48208918D01*
X115308055Y-48202338D01*
X115310892Y-48182151D01*
X115332748Y-48026639D01*
X115332748Y-48026636D01*
X115333299Y-48022717D01*
X115333492Y-48008920D01*
X115333561Y-48003962D01*
X115333561Y-48003957D01*
X115333616Y-48000000D01*
X115313397Y-47819745D01*
X115311080Y-47813091D01*
X115256064Y-47655106D01*
X115256062Y-47655103D01*
X115253745Y-47648448D01*
X115247644Y-47638684D01*
X115228500Y-47571918D01*
X115228500Y-43635152D01*
X115248502Y-43567031D01*
X115302158Y-43520538D01*
X115372432Y-43510434D01*
X115437012Y-43539928D01*
X115445136Y-43547624D01*
X115478625Y-43582303D01*
X115478629Y-43582307D01*
X115483520Y-43587371D01*
X115489416Y-43591229D01*
X115609036Y-43669506D01*
X115635297Y-43686691D01*
X115641901Y-43689147D01*
X115641903Y-43689148D01*
X115798696Y-43747459D01*
X115798698Y-43747459D01*
X115805306Y-43749917D01*
X115889133Y-43761102D01*
X115978118Y-43772976D01*
X115978122Y-43772976D01*
X115985099Y-43773907D01*
X115992110Y-43773269D01*
X115992114Y-43773269D01*
X116134597Y-43760301D01*
X116165738Y-43757467D01*
X116172440Y-43755289D01*
X116172442Y-43755289D01*
X116331547Y-43703593D01*
X116331550Y-43703592D01*
X116338246Y-43701416D01*
X116494050Y-43608538D01*
X116625404Y-43483451D01*
X116725781Y-43332371D01*
X116790193Y-43162807D01*
X116815437Y-42983186D01*
X116815590Y-42972207D01*
X116815699Y-42964431D01*
X116815699Y-42964426D01*
X116815754Y-42960469D01*
X116795535Y-42780214D01*
X116787618Y-42757480D01*
X116738202Y-42615575D01*
X116738200Y-42615572D01*
X116735883Y-42608917D01*
X116729782Y-42599153D01*
X116710638Y-42532387D01*
X116710638Y-41184892D01*
X116730640Y-41116771D01*
X116747543Y-41095797D01*
X121010520Y-36832820D01*
X121016787Y-36826965D01*
X121027252Y-36817836D01*
X121091734Y-36788129D01*
X121162041Y-36797999D01*
X121215851Y-36844314D01*
X121236051Y-36915484D01*
X121219808Y-37673470D01*
X121192442Y-38950528D01*
X121192167Y-38956098D01*
X121191500Y-38960386D01*
X121191500Y-38993185D01*
X121191471Y-38995884D01*
X121190834Y-39025611D01*
X121191355Y-39029904D01*
X121191500Y-39035714D01*
X121191500Y-41591377D01*
X121191498Y-41592147D01*
X121191024Y-41669721D01*
X121193491Y-41678352D01*
X121199150Y-41698153D01*
X121202728Y-41714915D01*
X121206920Y-41744187D01*
X121210634Y-41752355D01*
X121210634Y-41752356D01*
X121217548Y-41767562D01*
X121223996Y-41785086D01*
X121231051Y-41809771D01*
X121235843Y-41817365D01*
X121235844Y-41817368D01*
X121246830Y-41834780D01*
X121254969Y-41849863D01*
X121267208Y-41876782D01*
X121273069Y-41883584D01*
X121283970Y-41896235D01*
X121295073Y-41911239D01*
X121308776Y-41932958D01*
X121315501Y-41938897D01*
X121315504Y-41938901D01*
X121330938Y-41952532D01*
X121342982Y-41964724D01*
X121356427Y-41980327D01*
X121356430Y-41980329D01*
X121362287Y-41987127D01*
X121369816Y-41992007D01*
X121369817Y-41992008D01*
X121383835Y-42001094D01*
X121398709Y-42012385D01*
X121411217Y-42023431D01*
X121417951Y-42029378D01*
X121444711Y-42041942D01*
X121459691Y-42050263D01*
X121476983Y-42061471D01*
X121476988Y-42061473D01*
X121484515Y-42066352D01*
X121493108Y-42068922D01*
X121493113Y-42068924D01*
X121509120Y-42073711D01*
X121526564Y-42080372D01*
X121541676Y-42087467D01*
X121541678Y-42087468D01*
X121549800Y-42091281D01*
X121558667Y-42092662D01*
X121558668Y-42092662D01*
X121568310Y-42094163D01*
X121579017Y-42095830D01*
X121595732Y-42099613D01*
X121615466Y-42105515D01*
X121615472Y-42105516D01*
X121624066Y-42108086D01*
X121633037Y-42108141D01*
X121633038Y-42108141D01*
X121643097Y-42108202D01*
X121658506Y-42108296D01*
X121659289Y-42108329D01*
X121660386Y-42108500D01*
X121691377Y-42108500D01*
X121692147Y-42108502D01*
X121765785Y-42108952D01*
X121765786Y-42108952D01*
X121769721Y-42108976D01*
X121771065Y-42108592D01*
X121772410Y-42108500D01*
X125065500Y-42108500D01*
X125133621Y-42128502D01*
X125180114Y-42182158D01*
X125191500Y-42234500D01*
X125191500Y-90765500D01*
X125171498Y-90833621D01*
X125117842Y-90880114D01*
X125065500Y-90891500D01*
X124608623Y-90891500D01*
X124607853Y-90891498D01*
X124607037Y-90891493D01*
X124530279Y-90891024D01*
X124507918Y-90897415D01*
X124501847Y-90899150D01*
X124485085Y-90902728D01*
X124455813Y-90906920D01*
X124447645Y-90910634D01*
X124447644Y-90910634D01*
X124432438Y-90917548D01*
X124414914Y-90923996D01*
X124390229Y-90931051D01*
X124382635Y-90935843D01*
X124382632Y-90935844D01*
X124365220Y-90946830D01*
X124350137Y-90954969D01*
X124323218Y-90967208D01*
X124316416Y-90973069D01*
X124303765Y-90983970D01*
X124288761Y-90995073D01*
X124267042Y-91008776D01*
X124261103Y-91015501D01*
X124261099Y-91015504D01*
X124247468Y-91030938D01*
X124235276Y-91042982D01*
X124219673Y-91056427D01*
X124219671Y-91056430D01*
X124212873Y-91062287D01*
X124207993Y-91069816D01*
X124207992Y-91069817D01*
X124198906Y-91083835D01*
X124187615Y-91098709D01*
X124176569Y-91111217D01*
X124170622Y-91117951D01*
X124164312Y-91131391D01*
X124158058Y-91144711D01*
X124149737Y-91159691D01*
X124138529Y-91176983D01*
X124138527Y-91176988D01*
X124133648Y-91184515D01*
X124131078Y-91193108D01*
X124131076Y-91193113D01*
X124126289Y-91209120D01*
X124119628Y-91226564D01*
X124112533Y-91241676D01*
X124108719Y-91249800D01*
X124107338Y-91258667D01*
X124107338Y-91258668D01*
X124104170Y-91279015D01*
X124100387Y-91295732D01*
X124094485Y-91315466D01*
X124094484Y-91315472D01*
X124091914Y-91324066D01*
X124091859Y-91333037D01*
X124091859Y-91333038D01*
X124091704Y-91358497D01*
X124091671Y-91359289D01*
X124091500Y-91360386D01*
X124091500Y-91391377D01*
X124091498Y-91392147D01*
X124091024Y-91469721D01*
X124091408Y-91471065D01*
X124091500Y-91472410D01*
X124091500Y-99365500D01*
X124071498Y-99433621D01*
X124017842Y-99480114D01*
X123965500Y-99491500D01*
X76034500Y-99491500D01*
X75966379Y-99471498D01*
X75919886Y-99417842D01*
X75908500Y-99365500D01*
X75908500Y-92588640D01*
X77486463Y-92588640D01*
X77504163Y-92769160D01*
X77561418Y-92941273D01*
X77565065Y-92947295D01*
X77565066Y-92947297D01*
X77638521Y-93068586D01*
X77655380Y-93096424D01*
X77660269Y-93101487D01*
X77660270Y-93101488D01*
X77692368Y-93134726D01*
X77781382Y-93226902D01*
X77933159Y-93326222D01*
X77939763Y-93328678D01*
X77939765Y-93328679D01*
X78096558Y-93386990D01*
X78096560Y-93386990D01*
X78103168Y-93389448D01*
X78186995Y-93400633D01*
X78275980Y-93412507D01*
X78275984Y-93412507D01*
X78282961Y-93413438D01*
X78289972Y-93412800D01*
X78289976Y-93412800D01*
X78432459Y-93399832D01*
X78463600Y-93396998D01*
X78470302Y-93394820D01*
X78470304Y-93394820D01*
X78629409Y-93343124D01*
X78629412Y-93343123D01*
X78636108Y-93340947D01*
X78791912Y-93248069D01*
X78923266Y-93122982D01*
X78943310Y-93092813D01*
X78997667Y-93047144D01*
X79068086Y-93038112D01*
X79132210Y-93068586D01*
X79148088Y-93085667D01*
X79151728Y-93090393D01*
X79155380Y-93096424D01*
X79281382Y-93226902D01*
X79433159Y-93326222D01*
X79439763Y-93328678D01*
X79439765Y-93328679D01*
X79596558Y-93386990D01*
X79596560Y-93386990D01*
X79603168Y-93389448D01*
X79686995Y-93400633D01*
X79775980Y-93412507D01*
X79775984Y-93412507D01*
X79782961Y-93413438D01*
X79789972Y-93412800D01*
X79789976Y-93412800D01*
X79932459Y-93399832D01*
X79963600Y-93396998D01*
X79970302Y-93394820D01*
X79970304Y-93394820D01*
X80129409Y-93343124D01*
X80129412Y-93343123D01*
X80136108Y-93340947D01*
X80291912Y-93248069D01*
X80423266Y-93122982D01*
X80443310Y-93092813D01*
X80497667Y-93047144D01*
X80568086Y-93038112D01*
X80632210Y-93068586D01*
X80648088Y-93085667D01*
X80651728Y-93090393D01*
X80655380Y-93096424D01*
X80781382Y-93226902D01*
X80933159Y-93326222D01*
X80939763Y-93328678D01*
X80939765Y-93328679D01*
X81096558Y-93386990D01*
X81096560Y-93386990D01*
X81103168Y-93389448D01*
X81186995Y-93400633D01*
X81275980Y-93412507D01*
X81275984Y-93412507D01*
X81282961Y-93413438D01*
X81289972Y-93412800D01*
X81289976Y-93412800D01*
X81432459Y-93399832D01*
X81463600Y-93396998D01*
X81470302Y-93394820D01*
X81470304Y-93394820D01*
X81629409Y-93343124D01*
X81629412Y-93343123D01*
X81636108Y-93340947D01*
X81791912Y-93248069D01*
X81923266Y-93122982D01*
X81943310Y-93092813D01*
X81997667Y-93047144D01*
X82068086Y-93038112D01*
X82132210Y-93068586D01*
X82148088Y-93085667D01*
X82151728Y-93090393D01*
X82155380Y-93096424D01*
X82281382Y-93226902D01*
X82433159Y-93326222D01*
X82439763Y-93328678D01*
X82439765Y-93328679D01*
X82596558Y-93386990D01*
X82596560Y-93386990D01*
X82603168Y-93389448D01*
X82686995Y-93400633D01*
X82775980Y-93412507D01*
X82775984Y-93412507D01*
X82782961Y-93413438D01*
X82789972Y-93412800D01*
X82789976Y-93412800D01*
X82932459Y-93399832D01*
X82963600Y-93396998D01*
X82970302Y-93394820D01*
X82970304Y-93394820D01*
X83129409Y-93343124D01*
X83129412Y-93343123D01*
X83136108Y-93340947D01*
X83291912Y-93248069D01*
X83423266Y-93122982D01*
X83443310Y-93092813D01*
X83497667Y-93047144D01*
X83568086Y-93038112D01*
X83632210Y-93068586D01*
X83648088Y-93085667D01*
X83651728Y-93090393D01*
X83655380Y-93096424D01*
X83781382Y-93226902D01*
X83933159Y-93326222D01*
X83939763Y-93328678D01*
X83939765Y-93328679D01*
X84096558Y-93386990D01*
X84096560Y-93386990D01*
X84103168Y-93389448D01*
X84186995Y-93400633D01*
X84275980Y-93412507D01*
X84275984Y-93412507D01*
X84282961Y-93413438D01*
X84289972Y-93412800D01*
X84289976Y-93412800D01*
X84432459Y-93399832D01*
X84463600Y-93396998D01*
X84470302Y-93394820D01*
X84470304Y-93394820D01*
X84629409Y-93343124D01*
X84629412Y-93343123D01*
X84636108Y-93340947D01*
X84791912Y-93248069D01*
X84914839Y-93131007D01*
X84977964Y-93098515D01*
X85048635Y-93105308D01*
X85092367Y-93134726D01*
X85176483Y-93221830D01*
X85176488Y-93221834D01*
X85181382Y-93226902D01*
X85333159Y-93326222D01*
X85339763Y-93328678D01*
X85339765Y-93328679D01*
X85496558Y-93386990D01*
X85496560Y-93386990D01*
X85503168Y-93389448D01*
X85586995Y-93400633D01*
X85675980Y-93412507D01*
X85675984Y-93412507D01*
X85682961Y-93413438D01*
X85689972Y-93412800D01*
X85689976Y-93412800D01*
X85832459Y-93399832D01*
X85863600Y-93396998D01*
X85870302Y-93394820D01*
X85870304Y-93394820D01*
X86029409Y-93343124D01*
X86029412Y-93343123D01*
X86036108Y-93340947D01*
X86191912Y-93248069D01*
X86323266Y-93122982D01*
X86369393Y-93053555D01*
X86423750Y-93007885D01*
X86494170Y-92998852D01*
X86558294Y-93029325D01*
X86582115Y-93058008D01*
X86605380Y-93096424D01*
X86610269Y-93101487D01*
X86610270Y-93101488D01*
X86642368Y-93134726D01*
X86731382Y-93226902D01*
X86883159Y-93326222D01*
X86889763Y-93328678D01*
X86889765Y-93328679D01*
X87046558Y-93386990D01*
X87046560Y-93386990D01*
X87053168Y-93389448D01*
X87136995Y-93400633D01*
X87225980Y-93412507D01*
X87225984Y-93412507D01*
X87232961Y-93413438D01*
X87239972Y-93412800D01*
X87239976Y-93412800D01*
X87382459Y-93399832D01*
X87413600Y-93396998D01*
X87420302Y-93394820D01*
X87420304Y-93394820D01*
X87579409Y-93343124D01*
X87579412Y-93343123D01*
X87586108Y-93340947D01*
X87741912Y-93248069D01*
X87873266Y-93122982D01*
X87919393Y-93053555D01*
X87973750Y-93007885D01*
X88044170Y-92998852D01*
X88108294Y-93029325D01*
X88132115Y-93058008D01*
X88155380Y-93096424D01*
X88160269Y-93101487D01*
X88160270Y-93101488D01*
X88192368Y-93134726D01*
X88281382Y-93226902D01*
X88433159Y-93326222D01*
X88439763Y-93328678D01*
X88439765Y-93328679D01*
X88596558Y-93386990D01*
X88596560Y-93386990D01*
X88603168Y-93389448D01*
X88686995Y-93400633D01*
X88775980Y-93412507D01*
X88775984Y-93412507D01*
X88782961Y-93413438D01*
X88789972Y-93412800D01*
X88789976Y-93412800D01*
X88932459Y-93399832D01*
X88963600Y-93396998D01*
X88970302Y-93394820D01*
X88970304Y-93394820D01*
X89129409Y-93343124D01*
X89129412Y-93343123D01*
X89136108Y-93340947D01*
X89291912Y-93248069D01*
X89414839Y-93131007D01*
X89477964Y-93098515D01*
X89548635Y-93105308D01*
X89592367Y-93134726D01*
X89676483Y-93221830D01*
X89676488Y-93221834D01*
X89681382Y-93226902D01*
X89833159Y-93326222D01*
X89839763Y-93328678D01*
X89839765Y-93328679D01*
X89996558Y-93386990D01*
X89996560Y-93386990D01*
X90003168Y-93389448D01*
X90086995Y-93400633D01*
X90175980Y-93412507D01*
X90175984Y-93412507D01*
X90182961Y-93413438D01*
X90189972Y-93412800D01*
X90189976Y-93412800D01*
X90332459Y-93399832D01*
X90363600Y-93396998D01*
X90370302Y-93394820D01*
X90370304Y-93394820D01*
X90529409Y-93343124D01*
X90529412Y-93343123D01*
X90536108Y-93340947D01*
X90691912Y-93248069D01*
X90823266Y-93122982D01*
X90827167Y-93117111D01*
X90895550Y-93014186D01*
X90949908Y-92968515D01*
X91020327Y-92959483D01*
X91084451Y-92989956D01*
X91108274Y-93018642D01*
X91155380Y-93096424D01*
X91160269Y-93101487D01*
X91160270Y-93101488D01*
X91192368Y-93134726D01*
X91281382Y-93226902D01*
X91433159Y-93326222D01*
X91439763Y-93328678D01*
X91439765Y-93328679D01*
X91596558Y-93386990D01*
X91596560Y-93386990D01*
X91603168Y-93389448D01*
X91686995Y-93400633D01*
X91775980Y-93412507D01*
X91775984Y-93412507D01*
X91782961Y-93413438D01*
X91789972Y-93412800D01*
X91789976Y-93412800D01*
X91932459Y-93399832D01*
X91963600Y-93396998D01*
X91970302Y-93394820D01*
X91970304Y-93394820D01*
X92129409Y-93343124D01*
X92129412Y-93343123D01*
X92136108Y-93340947D01*
X92291912Y-93248069D01*
X92423266Y-93122982D01*
X92443310Y-93092813D01*
X92497667Y-93047144D01*
X92568086Y-93038112D01*
X92632210Y-93068586D01*
X92648088Y-93085667D01*
X92651728Y-93090393D01*
X92655380Y-93096424D01*
X92781382Y-93226902D01*
X92933159Y-93326222D01*
X92939763Y-93328678D01*
X92939765Y-93328679D01*
X93096558Y-93386990D01*
X93096560Y-93386990D01*
X93103168Y-93389448D01*
X93186995Y-93400633D01*
X93275980Y-93412507D01*
X93275984Y-93412507D01*
X93282961Y-93413438D01*
X93289972Y-93412800D01*
X93289976Y-93412800D01*
X93432459Y-93399832D01*
X93463600Y-93396998D01*
X93470302Y-93394820D01*
X93470304Y-93394820D01*
X93629409Y-93343124D01*
X93629412Y-93343123D01*
X93636108Y-93340947D01*
X93791912Y-93248069D01*
X93914839Y-93131007D01*
X93977964Y-93098515D01*
X94048635Y-93105308D01*
X94092367Y-93134726D01*
X94176483Y-93221830D01*
X94176488Y-93221834D01*
X94181382Y-93226902D01*
X94333159Y-93326222D01*
X94339763Y-93328678D01*
X94339765Y-93328679D01*
X94496558Y-93386990D01*
X94496560Y-93386990D01*
X94503168Y-93389448D01*
X94586995Y-93400633D01*
X94675980Y-93412507D01*
X94675984Y-93412507D01*
X94682961Y-93413438D01*
X94689972Y-93412800D01*
X94689976Y-93412800D01*
X94832459Y-93399832D01*
X94863600Y-93396998D01*
X94870302Y-93394820D01*
X94870304Y-93394820D01*
X95029409Y-93343124D01*
X95029412Y-93343123D01*
X95036108Y-93340947D01*
X95191912Y-93248069D01*
X95323266Y-93122982D01*
X95343310Y-93092813D01*
X95397667Y-93047144D01*
X95468086Y-93038112D01*
X95532210Y-93068586D01*
X95548088Y-93085667D01*
X95551728Y-93090393D01*
X95555380Y-93096424D01*
X95681382Y-93226902D01*
X95833159Y-93326222D01*
X95839763Y-93328678D01*
X95839765Y-93328679D01*
X95996558Y-93386990D01*
X95996560Y-93386990D01*
X96003168Y-93389448D01*
X96086995Y-93400633D01*
X96175980Y-93412507D01*
X96175984Y-93412507D01*
X96182961Y-93413438D01*
X96189972Y-93412800D01*
X96189976Y-93412800D01*
X96332459Y-93399832D01*
X96363600Y-93396998D01*
X96370302Y-93394820D01*
X96370304Y-93394820D01*
X96529409Y-93343124D01*
X96529412Y-93343123D01*
X96536108Y-93340947D01*
X96691912Y-93248069D01*
X96823266Y-93122982D01*
X96843310Y-93092813D01*
X96897667Y-93047144D01*
X96968086Y-93038112D01*
X97032210Y-93068586D01*
X97048088Y-93085667D01*
X97051728Y-93090393D01*
X97055380Y-93096424D01*
X97181382Y-93226902D01*
X97333159Y-93326222D01*
X97339763Y-93328678D01*
X97339765Y-93328679D01*
X97496558Y-93386990D01*
X97496560Y-93386990D01*
X97503168Y-93389448D01*
X97586995Y-93400633D01*
X97675980Y-93412507D01*
X97675984Y-93412507D01*
X97682961Y-93413438D01*
X97689972Y-93412800D01*
X97689976Y-93412800D01*
X97832459Y-93399832D01*
X97863600Y-93396998D01*
X97870302Y-93394820D01*
X97870304Y-93394820D01*
X98029409Y-93343124D01*
X98029412Y-93343123D01*
X98036108Y-93340947D01*
X98191912Y-93248069D01*
X98323266Y-93122982D01*
X98327167Y-93117111D01*
X98395550Y-93014186D01*
X98449908Y-92968515D01*
X98520327Y-92959483D01*
X98584451Y-92989956D01*
X98608274Y-93018642D01*
X98655380Y-93096424D01*
X98660269Y-93101487D01*
X98660270Y-93101488D01*
X98692368Y-93134726D01*
X98781382Y-93226902D01*
X98933159Y-93326222D01*
X98939763Y-93328678D01*
X98939765Y-93328679D01*
X99096558Y-93386990D01*
X99096560Y-93386990D01*
X99103168Y-93389448D01*
X99186995Y-93400633D01*
X99275980Y-93412507D01*
X99275984Y-93412507D01*
X99282961Y-93413438D01*
X99289972Y-93412800D01*
X99289976Y-93412800D01*
X99432459Y-93399832D01*
X99463600Y-93396998D01*
X99470302Y-93394820D01*
X99470304Y-93394820D01*
X99629409Y-93343124D01*
X99629412Y-93343123D01*
X99636108Y-93340947D01*
X99791912Y-93248069D01*
X99923266Y-93122982D01*
X99943310Y-93092813D01*
X99997667Y-93047144D01*
X100068086Y-93038112D01*
X100132210Y-93068586D01*
X100148088Y-93085667D01*
X100151728Y-93090393D01*
X100155380Y-93096424D01*
X100281382Y-93226902D01*
X100433159Y-93326222D01*
X100439763Y-93328678D01*
X100439765Y-93328679D01*
X100596558Y-93386990D01*
X100596560Y-93386990D01*
X100603168Y-93389448D01*
X100686995Y-93400633D01*
X100775980Y-93412507D01*
X100775984Y-93412507D01*
X100782961Y-93413438D01*
X100789972Y-93412800D01*
X100789976Y-93412800D01*
X100932459Y-93399832D01*
X100963600Y-93396998D01*
X100970302Y-93394820D01*
X100970304Y-93394820D01*
X101129409Y-93343124D01*
X101129412Y-93343123D01*
X101136108Y-93340947D01*
X101291912Y-93248069D01*
X101423266Y-93122982D01*
X101443310Y-93092813D01*
X101497667Y-93047144D01*
X101568086Y-93038112D01*
X101632210Y-93068586D01*
X101648088Y-93085667D01*
X101651728Y-93090393D01*
X101655380Y-93096424D01*
X101781382Y-93226902D01*
X101933159Y-93326222D01*
X101939763Y-93328678D01*
X101939765Y-93328679D01*
X102096558Y-93386990D01*
X102096560Y-93386990D01*
X102103168Y-93389448D01*
X102186995Y-93400633D01*
X102275980Y-93412507D01*
X102275984Y-93412507D01*
X102282961Y-93413438D01*
X102289972Y-93412800D01*
X102289976Y-93412800D01*
X102432459Y-93399832D01*
X102463600Y-93396998D01*
X102470302Y-93394820D01*
X102470304Y-93394820D01*
X102629409Y-93343124D01*
X102629412Y-93343123D01*
X102636108Y-93340947D01*
X102791912Y-93248069D01*
X102923266Y-93122982D01*
X102943310Y-93092813D01*
X102997667Y-93047144D01*
X103068086Y-93038112D01*
X103132210Y-93068586D01*
X103148088Y-93085667D01*
X103151728Y-93090393D01*
X103155380Y-93096424D01*
X103281382Y-93226902D01*
X103433159Y-93326222D01*
X103439763Y-93328678D01*
X103439765Y-93328679D01*
X103596558Y-93386990D01*
X103596560Y-93386990D01*
X103603168Y-93389448D01*
X103686995Y-93400633D01*
X103775980Y-93412507D01*
X103775984Y-93412507D01*
X103782961Y-93413438D01*
X103789972Y-93412800D01*
X103789976Y-93412800D01*
X103932459Y-93399832D01*
X103963600Y-93396998D01*
X103970302Y-93394820D01*
X103970304Y-93394820D01*
X104129409Y-93343124D01*
X104129412Y-93343123D01*
X104136108Y-93340947D01*
X104291912Y-93248069D01*
X104423266Y-93122982D01*
X104443310Y-93092813D01*
X104497667Y-93047144D01*
X104568086Y-93038112D01*
X104632210Y-93068586D01*
X104648088Y-93085667D01*
X104651728Y-93090393D01*
X104655380Y-93096424D01*
X104781382Y-93226902D01*
X104933159Y-93326222D01*
X104939763Y-93328678D01*
X104939765Y-93328679D01*
X105096558Y-93386990D01*
X105096560Y-93386990D01*
X105103168Y-93389448D01*
X105186995Y-93400633D01*
X105275980Y-93412507D01*
X105275984Y-93412507D01*
X105282961Y-93413438D01*
X105289972Y-93412800D01*
X105289976Y-93412800D01*
X105432459Y-93399832D01*
X105463600Y-93396998D01*
X105470302Y-93394820D01*
X105470304Y-93394820D01*
X105629409Y-93343124D01*
X105629412Y-93343123D01*
X105636108Y-93340947D01*
X105791912Y-93248069D01*
X105923266Y-93122982D01*
X105943310Y-93092813D01*
X105997667Y-93047144D01*
X106068086Y-93038112D01*
X106132210Y-93068586D01*
X106148088Y-93085667D01*
X106151728Y-93090393D01*
X106155380Y-93096424D01*
X106281382Y-93226902D01*
X106433159Y-93326222D01*
X106439763Y-93328678D01*
X106439765Y-93328679D01*
X106596558Y-93386990D01*
X106596560Y-93386990D01*
X106603168Y-93389448D01*
X106686995Y-93400633D01*
X106775980Y-93412507D01*
X106775984Y-93412507D01*
X106782961Y-93413438D01*
X106789972Y-93412800D01*
X106789976Y-93412800D01*
X106932459Y-93399832D01*
X106963600Y-93396998D01*
X106970302Y-93394820D01*
X106970304Y-93394820D01*
X107129409Y-93343124D01*
X107129412Y-93343123D01*
X107136108Y-93340947D01*
X107291912Y-93248069D01*
X107423266Y-93122982D01*
X107427167Y-93117110D01*
X107429360Y-93114497D01*
X107488469Y-93075170D01*
X107559457Y-93074042D01*
X107616519Y-93107960D01*
X107726483Y-93221830D01*
X107726488Y-93221834D01*
X107731382Y-93226902D01*
X107883159Y-93326222D01*
X107889763Y-93328678D01*
X107889765Y-93328679D01*
X108046558Y-93386990D01*
X108046560Y-93386990D01*
X108053168Y-93389448D01*
X108136995Y-93400633D01*
X108225980Y-93412507D01*
X108225984Y-93412507D01*
X108232961Y-93413438D01*
X108239972Y-93412800D01*
X108239976Y-93412800D01*
X108382459Y-93399832D01*
X108413600Y-93396998D01*
X108420302Y-93394820D01*
X108420304Y-93394820D01*
X108579409Y-93343124D01*
X108579412Y-93343123D01*
X108586108Y-93340947D01*
X108741912Y-93248069D01*
X108873266Y-93122982D01*
X108893310Y-93092813D01*
X108947667Y-93047144D01*
X109018086Y-93038112D01*
X109082210Y-93068586D01*
X109098088Y-93085667D01*
X109101728Y-93090393D01*
X109105380Y-93096424D01*
X109231382Y-93226902D01*
X109383159Y-93326222D01*
X109389763Y-93328678D01*
X109389765Y-93328679D01*
X109546558Y-93386990D01*
X109546560Y-93386990D01*
X109553168Y-93389448D01*
X109636995Y-93400633D01*
X109725980Y-93412507D01*
X109725984Y-93412507D01*
X109732961Y-93413438D01*
X109739972Y-93412800D01*
X109739976Y-93412800D01*
X109882459Y-93399832D01*
X109913600Y-93396998D01*
X109920302Y-93394820D01*
X109920304Y-93394820D01*
X110079409Y-93343124D01*
X110079412Y-93343123D01*
X110086108Y-93340947D01*
X110241912Y-93248069D01*
X110373266Y-93122982D01*
X110393310Y-93092813D01*
X110447667Y-93047144D01*
X110518086Y-93038112D01*
X110582210Y-93068586D01*
X110598088Y-93085667D01*
X110601728Y-93090393D01*
X110605380Y-93096424D01*
X110731382Y-93226902D01*
X110883159Y-93326222D01*
X110889763Y-93328678D01*
X110889765Y-93328679D01*
X111046558Y-93386990D01*
X111046560Y-93386990D01*
X111053168Y-93389448D01*
X111136995Y-93400633D01*
X111225980Y-93412507D01*
X111225984Y-93412507D01*
X111232961Y-93413438D01*
X111239972Y-93412800D01*
X111239976Y-93412800D01*
X111382459Y-93399832D01*
X111413600Y-93396998D01*
X111420302Y-93394820D01*
X111420304Y-93394820D01*
X111579409Y-93343124D01*
X111579412Y-93343123D01*
X111586108Y-93340947D01*
X111741912Y-93248069D01*
X111873266Y-93122982D01*
X111893310Y-93092813D01*
X111947667Y-93047144D01*
X112018086Y-93038112D01*
X112082210Y-93068586D01*
X112098088Y-93085667D01*
X112101728Y-93090393D01*
X112105380Y-93096424D01*
X112231382Y-93226902D01*
X112383159Y-93326222D01*
X112389763Y-93328678D01*
X112389765Y-93328679D01*
X112546558Y-93386990D01*
X112546560Y-93386990D01*
X112553168Y-93389448D01*
X112636995Y-93400633D01*
X112725980Y-93412507D01*
X112725984Y-93412507D01*
X112732961Y-93413438D01*
X112739972Y-93412800D01*
X112739976Y-93412800D01*
X112882459Y-93399832D01*
X112913600Y-93396998D01*
X112920302Y-93394820D01*
X112920304Y-93394820D01*
X113079409Y-93343124D01*
X113079412Y-93343123D01*
X113086108Y-93340947D01*
X113241912Y-93248069D01*
X113373266Y-93122982D01*
X113393310Y-93092813D01*
X113447667Y-93047144D01*
X113518086Y-93038112D01*
X113582210Y-93068586D01*
X113598088Y-93085667D01*
X113601728Y-93090393D01*
X113605380Y-93096424D01*
X113731382Y-93226902D01*
X113883159Y-93326222D01*
X113889763Y-93328678D01*
X113889765Y-93328679D01*
X114046558Y-93386990D01*
X114046560Y-93386990D01*
X114053168Y-93389448D01*
X114136995Y-93400633D01*
X114225980Y-93412507D01*
X114225984Y-93412507D01*
X114232961Y-93413438D01*
X114239972Y-93412800D01*
X114239976Y-93412800D01*
X114382459Y-93399832D01*
X114413600Y-93396998D01*
X114420302Y-93394820D01*
X114420304Y-93394820D01*
X114579409Y-93343124D01*
X114579412Y-93343123D01*
X114586108Y-93340947D01*
X114741912Y-93248069D01*
X114873266Y-93122982D01*
X114893310Y-93092813D01*
X114947667Y-93047144D01*
X115018086Y-93038112D01*
X115082210Y-93068586D01*
X115098088Y-93085667D01*
X115101728Y-93090393D01*
X115105380Y-93096424D01*
X115231382Y-93226902D01*
X115383159Y-93326222D01*
X115389763Y-93328678D01*
X115389765Y-93328679D01*
X115546558Y-93386990D01*
X115546560Y-93386990D01*
X115553168Y-93389448D01*
X115636995Y-93400633D01*
X115725980Y-93412507D01*
X115725984Y-93412507D01*
X115732961Y-93413438D01*
X115739972Y-93412800D01*
X115739976Y-93412800D01*
X115882459Y-93399832D01*
X115913600Y-93396998D01*
X115920302Y-93394820D01*
X115920304Y-93394820D01*
X116079409Y-93343124D01*
X116079412Y-93343123D01*
X116086108Y-93340947D01*
X116241912Y-93248069D01*
X116373266Y-93122982D01*
X116393310Y-93092813D01*
X116447667Y-93047144D01*
X116518086Y-93038112D01*
X116582210Y-93068586D01*
X116598088Y-93085667D01*
X116601728Y-93090393D01*
X116605380Y-93096424D01*
X116731382Y-93226902D01*
X116883159Y-93326222D01*
X116889763Y-93328678D01*
X116889765Y-93328679D01*
X117046558Y-93386990D01*
X117046560Y-93386990D01*
X117053168Y-93389448D01*
X117136995Y-93400633D01*
X117225980Y-93412507D01*
X117225984Y-93412507D01*
X117232961Y-93413438D01*
X117239972Y-93412800D01*
X117239976Y-93412800D01*
X117382459Y-93399832D01*
X117413600Y-93396998D01*
X117420302Y-93394820D01*
X117420304Y-93394820D01*
X117579409Y-93343124D01*
X117579412Y-93343123D01*
X117586108Y-93340947D01*
X117741912Y-93248069D01*
X117873266Y-93122982D01*
X117893310Y-93092813D01*
X117947667Y-93047144D01*
X118018086Y-93038112D01*
X118082210Y-93068586D01*
X118098088Y-93085667D01*
X118101728Y-93090393D01*
X118105380Y-93096424D01*
X118231382Y-93226902D01*
X118383159Y-93326222D01*
X118389763Y-93328678D01*
X118389765Y-93328679D01*
X118546558Y-93386990D01*
X118546560Y-93386990D01*
X118553168Y-93389448D01*
X118636995Y-93400633D01*
X118725980Y-93412507D01*
X118725984Y-93412507D01*
X118732961Y-93413438D01*
X118739972Y-93412800D01*
X118739976Y-93412800D01*
X118882459Y-93399832D01*
X118913600Y-93396998D01*
X118920302Y-93394820D01*
X118920304Y-93394820D01*
X119079409Y-93343124D01*
X119079412Y-93343123D01*
X119086108Y-93340947D01*
X119241912Y-93248069D01*
X119373266Y-93122982D01*
X119393310Y-93092813D01*
X119447667Y-93047144D01*
X119518086Y-93038112D01*
X119582210Y-93068586D01*
X119598088Y-93085667D01*
X119601728Y-93090393D01*
X119605380Y-93096424D01*
X119731382Y-93226902D01*
X119883159Y-93326222D01*
X119889763Y-93328678D01*
X119889765Y-93328679D01*
X120046558Y-93386990D01*
X120046560Y-93386990D01*
X120053168Y-93389448D01*
X120136995Y-93400633D01*
X120225980Y-93412507D01*
X120225984Y-93412507D01*
X120232961Y-93413438D01*
X120239972Y-93412800D01*
X120239976Y-93412800D01*
X120382459Y-93399832D01*
X120413600Y-93396998D01*
X120420302Y-93394820D01*
X120420304Y-93394820D01*
X120579409Y-93343124D01*
X120579412Y-93343123D01*
X120586108Y-93340947D01*
X120741912Y-93248069D01*
X120873266Y-93122982D01*
X120893310Y-93092813D01*
X120947667Y-93047144D01*
X121018086Y-93038112D01*
X121082210Y-93068586D01*
X121098088Y-93085667D01*
X121101728Y-93090393D01*
X121105380Y-93096424D01*
X121231382Y-93226902D01*
X121383159Y-93326222D01*
X121389763Y-93328678D01*
X121389765Y-93328679D01*
X121546558Y-93386990D01*
X121546560Y-93386990D01*
X121553168Y-93389448D01*
X121636995Y-93400633D01*
X121725980Y-93412507D01*
X121725984Y-93412507D01*
X121732961Y-93413438D01*
X121739972Y-93412800D01*
X121739976Y-93412800D01*
X121882459Y-93399832D01*
X121913600Y-93396998D01*
X121920302Y-93394820D01*
X121920304Y-93394820D01*
X122079409Y-93343124D01*
X122079412Y-93343123D01*
X122086108Y-93340947D01*
X122241912Y-93248069D01*
X122373266Y-93122982D01*
X122473643Y-92971902D01*
X122538055Y-92802338D01*
X122539035Y-92795366D01*
X122562748Y-92626639D01*
X122562748Y-92626636D01*
X122563299Y-92622717D01*
X122563616Y-92600000D01*
X122543397Y-92419745D01*
X122541080Y-92413091D01*
X122486064Y-92255106D01*
X122486062Y-92255103D01*
X122483745Y-92248448D01*
X122480009Y-92242469D01*
X122391359Y-92100598D01*
X122391356Y-92100594D01*
X122387626Y-92094624D01*
X122361246Y-92068059D01*
X122264778Y-91970915D01*
X122264774Y-91970912D01*
X122259815Y-91965918D01*
X122248697Y-91958862D01*
X122153565Y-91898490D01*
X122106666Y-91868727D01*
X122041701Y-91845594D01*
X121942425Y-91810243D01*
X121942420Y-91810242D01*
X121935790Y-91807881D01*
X121928802Y-91807048D01*
X121928799Y-91807047D01*
X121796101Y-91791224D01*
X121755680Y-91786404D01*
X121748677Y-91787140D01*
X121748676Y-91787140D01*
X121582288Y-91804628D01*
X121582286Y-91804629D01*
X121575288Y-91805364D01*
X121403579Y-91863818D01*
X121379589Y-91878577D01*
X121255095Y-91955166D01*
X121255092Y-91955168D01*
X121249088Y-91958862D01*
X121244053Y-91963793D01*
X121244050Y-91963795D01*
X121138845Y-92066820D01*
X121119493Y-92085771D01*
X121106514Y-92105911D01*
X121052804Y-92152334D01*
X120982517Y-92162350D01*
X120917973Y-92132777D01*
X120893753Y-92104429D01*
X120887626Y-92094624D01*
X120861246Y-92068059D01*
X120764778Y-91970915D01*
X120764774Y-91970912D01*
X120759815Y-91965918D01*
X120748697Y-91958862D01*
X120653565Y-91898490D01*
X120606666Y-91868727D01*
X120541701Y-91845594D01*
X120442425Y-91810243D01*
X120442420Y-91810242D01*
X120435790Y-91807881D01*
X120428802Y-91807048D01*
X120428799Y-91807047D01*
X120296101Y-91791224D01*
X120255680Y-91786404D01*
X120248677Y-91787140D01*
X120248676Y-91787140D01*
X120082288Y-91804628D01*
X120082286Y-91804629D01*
X120075288Y-91805364D01*
X119903579Y-91863818D01*
X119879589Y-91878577D01*
X119755095Y-91955166D01*
X119755092Y-91955168D01*
X119749088Y-91958862D01*
X119744053Y-91963793D01*
X119744050Y-91963795D01*
X119638845Y-92066820D01*
X119619493Y-92085771D01*
X119606514Y-92105911D01*
X119552804Y-92152334D01*
X119482517Y-92162350D01*
X119417973Y-92132777D01*
X119393753Y-92104429D01*
X119387626Y-92094624D01*
X119361246Y-92068059D01*
X119264778Y-91970915D01*
X119264774Y-91970912D01*
X119259815Y-91965918D01*
X119248697Y-91958862D01*
X119153565Y-91898490D01*
X119106666Y-91868727D01*
X119041701Y-91845594D01*
X118942425Y-91810243D01*
X118942420Y-91810242D01*
X118935790Y-91807881D01*
X118928802Y-91807048D01*
X118928799Y-91807047D01*
X118796101Y-91791224D01*
X118755680Y-91786404D01*
X118748677Y-91787140D01*
X118748676Y-91787140D01*
X118582288Y-91804628D01*
X118582286Y-91804629D01*
X118575288Y-91805364D01*
X118403579Y-91863818D01*
X118379589Y-91878577D01*
X118255095Y-91955166D01*
X118255092Y-91955168D01*
X118249088Y-91958862D01*
X118244053Y-91963793D01*
X118244050Y-91963795D01*
X118138845Y-92066820D01*
X118119493Y-92085771D01*
X118106514Y-92105911D01*
X118052804Y-92152334D01*
X117982517Y-92162350D01*
X117917973Y-92132777D01*
X117893753Y-92104429D01*
X117887626Y-92094624D01*
X117861246Y-92068059D01*
X117764778Y-91970915D01*
X117764774Y-91970912D01*
X117759815Y-91965918D01*
X117748697Y-91958862D01*
X117653565Y-91898490D01*
X117606666Y-91868727D01*
X117541701Y-91845594D01*
X117442425Y-91810243D01*
X117442420Y-91810242D01*
X117435790Y-91807881D01*
X117428802Y-91807048D01*
X117428799Y-91807047D01*
X117296101Y-91791224D01*
X117255680Y-91786404D01*
X117248677Y-91787140D01*
X117248676Y-91787140D01*
X117082288Y-91804628D01*
X117082286Y-91804629D01*
X117075288Y-91805364D01*
X116903579Y-91863818D01*
X116879589Y-91878577D01*
X116755095Y-91955166D01*
X116755092Y-91955168D01*
X116749088Y-91958862D01*
X116744053Y-91963793D01*
X116744050Y-91963795D01*
X116638845Y-92066820D01*
X116619493Y-92085771D01*
X116606514Y-92105911D01*
X116552804Y-92152334D01*
X116482517Y-92162350D01*
X116417973Y-92132777D01*
X116393753Y-92104429D01*
X116387626Y-92094624D01*
X116361246Y-92068059D01*
X116264778Y-91970915D01*
X116264774Y-91970912D01*
X116259815Y-91965918D01*
X116248697Y-91958862D01*
X116153565Y-91898490D01*
X116106666Y-91868727D01*
X116041701Y-91845594D01*
X115942425Y-91810243D01*
X115942420Y-91810242D01*
X115935790Y-91807881D01*
X115928802Y-91807048D01*
X115928799Y-91807047D01*
X115796101Y-91791224D01*
X115755680Y-91786404D01*
X115748677Y-91787140D01*
X115748676Y-91787140D01*
X115582288Y-91804628D01*
X115582286Y-91804629D01*
X115575288Y-91805364D01*
X115403579Y-91863818D01*
X115379589Y-91878577D01*
X115255095Y-91955166D01*
X115255092Y-91955168D01*
X115249088Y-91958862D01*
X115244053Y-91963793D01*
X115244050Y-91963795D01*
X115138845Y-92066820D01*
X115119493Y-92085771D01*
X115106514Y-92105911D01*
X115052804Y-92152334D01*
X114982517Y-92162350D01*
X114917973Y-92132777D01*
X114893753Y-92104429D01*
X114887626Y-92094624D01*
X114861246Y-92068059D01*
X114764778Y-91970915D01*
X114764774Y-91970912D01*
X114759815Y-91965918D01*
X114748697Y-91958862D01*
X114653565Y-91898490D01*
X114606666Y-91868727D01*
X114541701Y-91845594D01*
X114442425Y-91810243D01*
X114442420Y-91810242D01*
X114435790Y-91807881D01*
X114428802Y-91807048D01*
X114428799Y-91807047D01*
X114296101Y-91791224D01*
X114255680Y-91786404D01*
X114248677Y-91787140D01*
X114248676Y-91787140D01*
X114082288Y-91804628D01*
X114082286Y-91804629D01*
X114075288Y-91805364D01*
X113903579Y-91863818D01*
X113879589Y-91878577D01*
X113755095Y-91955166D01*
X113755092Y-91955168D01*
X113749088Y-91958862D01*
X113744053Y-91963793D01*
X113744050Y-91963795D01*
X113638845Y-92066820D01*
X113619493Y-92085771D01*
X113606514Y-92105911D01*
X113552804Y-92152334D01*
X113482517Y-92162350D01*
X113417973Y-92132777D01*
X113393753Y-92104429D01*
X113387626Y-92094624D01*
X113361246Y-92068059D01*
X113264778Y-91970915D01*
X113264774Y-91970912D01*
X113259815Y-91965918D01*
X113248697Y-91958862D01*
X113153565Y-91898490D01*
X113106666Y-91868727D01*
X113041701Y-91845594D01*
X112942425Y-91810243D01*
X112942420Y-91810242D01*
X112935790Y-91807881D01*
X112928802Y-91807048D01*
X112928799Y-91807047D01*
X112796101Y-91791224D01*
X112755680Y-91786404D01*
X112748677Y-91787140D01*
X112748676Y-91787140D01*
X112582288Y-91804628D01*
X112582286Y-91804629D01*
X112575288Y-91805364D01*
X112403579Y-91863818D01*
X112379589Y-91878577D01*
X112255095Y-91955166D01*
X112255092Y-91955168D01*
X112249088Y-91958862D01*
X112244053Y-91963793D01*
X112244050Y-91963795D01*
X112138845Y-92066820D01*
X112119493Y-92085771D01*
X112106514Y-92105911D01*
X112052804Y-92152334D01*
X111982517Y-92162350D01*
X111917973Y-92132777D01*
X111893753Y-92104429D01*
X111887626Y-92094624D01*
X111861246Y-92068059D01*
X111764778Y-91970915D01*
X111764774Y-91970912D01*
X111759815Y-91965918D01*
X111748697Y-91958862D01*
X111653565Y-91898490D01*
X111606666Y-91868727D01*
X111541701Y-91845594D01*
X111442425Y-91810243D01*
X111442420Y-91810242D01*
X111435790Y-91807881D01*
X111428802Y-91807048D01*
X111428799Y-91807047D01*
X111296101Y-91791224D01*
X111255680Y-91786404D01*
X111248677Y-91787140D01*
X111248676Y-91787140D01*
X111082288Y-91804628D01*
X111082286Y-91804629D01*
X111075288Y-91805364D01*
X110903579Y-91863818D01*
X110879589Y-91878577D01*
X110755095Y-91955166D01*
X110755092Y-91955168D01*
X110749088Y-91958862D01*
X110744053Y-91963793D01*
X110744050Y-91963795D01*
X110638845Y-92066820D01*
X110619493Y-92085771D01*
X110606514Y-92105911D01*
X110552804Y-92152334D01*
X110482517Y-92162350D01*
X110417973Y-92132777D01*
X110393753Y-92104429D01*
X110387626Y-92094624D01*
X110361246Y-92068059D01*
X110264778Y-91970915D01*
X110264774Y-91970912D01*
X110259815Y-91965918D01*
X110248697Y-91958862D01*
X110153565Y-91898490D01*
X110106666Y-91868727D01*
X110041701Y-91845594D01*
X109942425Y-91810243D01*
X109942420Y-91810242D01*
X109935790Y-91807881D01*
X109928802Y-91807048D01*
X109928799Y-91807047D01*
X109796101Y-91791224D01*
X109755680Y-91786404D01*
X109748677Y-91787140D01*
X109748676Y-91787140D01*
X109582288Y-91804628D01*
X109582286Y-91804629D01*
X109575288Y-91805364D01*
X109403579Y-91863818D01*
X109379589Y-91878577D01*
X109255095Y-91955166D01*
X109255092Y-91955168D01*
X109249088Y-91958862D01*
X109244053Y-91963793D01*
X109244050Y-91963795D01*
X109138845Y-92066820D01*
X109119493Y-92085771D01*
X109106514Y-92105911D01*
X109052804Y-92152334D01*
X108982517Y-92162350D01*
X108917973Y-92132777D01*
X108893753Y-92104429D01*
X108887626Y-92094624D01*
X108861246Y-92068059D01*
X108764778Y-91970915D01*
X108764774Y-91970912D01*
X108759815Y-91965918D01*
X108748697Y-91958862D01*
X108653565Y-91898490D01*
X108606666Y-91868727D01*
X108541701Y-91845594D01*
X108442425Y-91810243D01*
X108442420Y-91810242D01*
X108435790Y-91807881D01*
X108428802Y-91807048D01*
X108428799Y-91807047D01*
X108296101Y-91791224D01*
X108255680Y-91786404D01*
X108248677Y-91787140D01*
X108248676Y-91787140D01*
X108082288Y-91804628D01*
X108082286Y-91804629D01*
X108075288Y-91805364D01*
X107903579Y-91863818D01*
X107879589Y-91878577D01*
X107755095Y-91955166D01*
X107755092Y-91955168D01*
X107749088Y-91958862D01*
X107744053Y-91963793D01*
X107744050Y-91963795D01*
X107638845Y-92066820D01*
X107620829Y-92084462D01*
X107620827Y-92084464D01*
X107619493Y-92085771D01*
X107619263Y-92085537D01*
X107563958Y-92123453D01*
X107492993Y-92125568D01*
X107435469Y-92092452D01*
X107314778Y-91970915D01*
X107314774Y-91970912D01*
X107309815Y-91965918D01*
X107298697Y-91958862D01*
X107203565Y-91898490D01*
X107156666Y-91868727D01*
X107091701Y-91845594D01*
X106992425Y-91810243D01*
X106992420Y-91810242D01*
X106985790Y-91807881D01*
X106978802Y-91807048D01*
X106978799Y-91807047D01*
X106846101Y-91791224D01*
X106805680Y-91786404D01*
X106798677Y-91787140D01*
X106798676Y-91787140D01*
X106632288Y-91804628D01*
X106632286Y-91804629D01*
X106625288Y-91805364D01*
X106453579Y-91863818D01*
X106429589Y-91878577D01*
X106305095Y-91955166D01*
X106305092Y-91955168D01*
X106299088Y-91958862D01*
X106294053Y-91963793D01*
X106294050Y-91963795D01*
X106188845Y-92066820D01*
X106169493Y-92085771D01*
X106156514Y-92105911D01*
X106102804Y-92152334D01*
X106032517Y-92162350D01*
X105967973Y-92132777D01*
X105943753Y-92104429D01*
X105937626Y-92094624D01*
X105911246Y-92068059D01*
X105814778Y-91970915D01*
X105814774Y-91970912D01*
X105809815Y-91965918D01*
X105798697Y-91958862D01*
X105703565Y-91898490D01*
X105656666Y-91868727D01*
X105591701Y-91845594D01*
X105492425Y-91810243D01*
X105492420Y-91810242D01*
X105485790Y-91807881D01*
X105478802Y-91807048D01*
X105478799Y-91807047D01*
X105346101Y-91791224D01*
X105305680Y-91786404D01*
X105298677Y-91787140D01*
X105298676Y-91787140D01*
X105132288Y-91804628D01*
X105132286Y-91804629D01*
X105125288Y-91805364D01*
X104953579Y-91863818D01*
X104929589Y-91878577D01*
X104805095Y-91955166D01*
X104805092Y-91955168D01*
X104799088Y-91958862D01*
X104794053Y-91963793D01*
X104794050Y-91963795D01*
X104688845Y-92066820D01*
X104669493Y-92085771D01*
X104656514Y-92105911D01*
X104602804Y-92152334D01*
X104532517Y-92162350D01*
X104467973Y-92132777D01*
X104443753Y-92104429D01*
X104437626Y-92094624D01*
X104411246Y-92068059D01*
X104314778Y-91970915D01*
X104314774Y-91970912D01*
X104309815Y-91965918D01*
X104298697Y-91958862D01*
X104203565Y-91898490D01*
X104156666Y-91868727D01*
X104091701Y-91845594D01*
X103992425Y-91810243D01*
X103992420Y-91810242D01*
X103985790Y-91807881D01*
X103978802Y-91807048D01*
X103978799Y-91807047D01*
X103846101Y-91791224D01*
X103805680Y-91786404D01*
X103798677Y-91787140D01*
X103798676Y-91787140D01*
X103632288Y-91804628D01*
X103632286Y-91804629D01*
X103625288Y-91805364D01*
X103453579Y-91863818D01*
X103429589Y-91878577D01*
X103305095Y-91955166D01*
X103305092Y-91955168D01*
X103299088Y-91958862D01*
X103294053Y-91963793D01*
X103294050Y-91963795D01*
X103188845Y-92066820D01*
X103169493Y-92085771D01*
X103156514Y-92105911D01*
X103102804Y-92152334D01*
X103032517Y-92162350D01*
X102967973Y-92132777D01*
X102943753Y-92104429D01*
X102937626Y-92094624D01*
X102911246Y-92068059D01*
X102814778Y-91970915D01*
X102814774Y-91970912D01*
X102809815Y-91965918D01*
X102798697Y-91958862D01*
X102703565Y-91898490D01*
X102656666Y-91868727D01*
X102591701Y-91845594D01*
X102492425Y-91810243D01*
X102492420Y-91810242D01*
X102485790Y-91807881D01*
X102478802Y-91807048D01*
X102478799Y-91807047D01*
X102346101Y-91791224D01*
X102305680Y-91786404D01*
X102298677Y-91787140D01*
X102298676Y-91787140D01*
X102132288Y-91804628D01*
X102132286Y-91804629D01*
X102125288Y-91805364D01*
X101953579Y-91863818D01*
X101929589Y-91878577D01*
X101805095Y-91955166D01*
X101805092Y-91955168D01*
X101799088Y-91958862D01*
X101794053Y-91963793D01*
X101794050Y-91963795D01*
X101688845Y-92066820D01*
X101669493Y-92085771D01*
X101656514Y-92105911D01*
X101602804Y-92152334D01*
X101532517Y-92162350D01*
X101467973Y-92132777D01*
X101443753Y-92104429D01*
X101437626Y-92094624D01*
X101411246Y-92068059D01*
X101314778Y-91970915D01*
X101314774Y-91970912D01*
X101309815Y-91965918D01*
X101298697Y-91958862D01*
X101203565Y-91898490D01*
X101156666Y-91868727D01*
X101091701Y-91845594D01*
X100992425Y-91810243D01*
X100992420Y-91810242D01*
X100985790Y-91807881D01*
X100978802Y-91807048D01*
X100978799Y-91807047D01*
X100846101Y-91791224D01*
X100805680Y-91786404D01*
X100798677Y-91787140D01*
X100798676Y-91787140D01*
X100632288Y-91804628D01*
X100632286Y-91804629D01*
X100625288Y-91805364D01*
X100453579Y-91863818D01*
X100429589Y-91878577D01*
X100305095Y-91955166D01*
X100305092Y-91955168D01*
X100299088Y-91958862D01*
X100294053Y-91963793D01*
X100294050Y-91963795D01*
X100188845Y-92066820D01*
X100169493Y-92085771D01*
X100156514Y-92105911D01*
X100102804Y-92152334D01*
X100032517Y-92162350D01*
X99967973Y-92132777D01*
X99943753Y-92104429D01*
X99937626Y-92094624D01*
X99911246Y-92068059D01*
X99814778Y-91970915D01*
X99814774Y-91970912D01*
X99809815Y-91965918D01*
X99798697Y-91958862D01*
X99703565Y-91898490D01*
X99656666Y-91868727D01*
X99591701Y-91845594D01*
X99492425Y-91810243D01*
X99492420Y-91810242D01*
X99485790Y-91807881D01*
X99478802Y-91807048D01*
X99478799Y-91807047D01*
X99346101Y-91791224D01*
X99305680Y-91786404D01*
X99298677Y-91787140D01*
X99298676Y-91787140D01*
X99132288Y-91804628D01*
X99132286Y-91804629D01*
X99125288Y-91805364D01*
X98953579Y-91863818D01*
X98929589Y-91878577D01*
X98805095Y-91955166D01*
X98805092Y-91955168D01*
X98799088Y-91958862D01*
X98794053Y-91963793D01*
X98794050Y-91963795D01*
X98688845Y-92066820D01*
X98669493Y-92085771D01*
X98605742Y-92184694D01*
X98552029Y-92231117D01*
X98481742Y-92241132D01*
X98417199Y-92211557D01*
X98392978Y-92183207D01*
X98386079Y-92172166D01*
X98337626Y-92094624D01*
X98311246Y-92068059D01*
X98214778Y-91970915D01*
X98214774Y-91970912D01*
X98209815Y-91965918D01*
X98198697Y-91958862D01*
X98103565Y-91898490D01*
X98056666Y-91868727D01*
X97991701Y-91845594D01*
X97892425Y-91810243D01*
X97892420Y-91810242D01*
X97885790Y-91807881D01*
X97878802Y-91807048D01*
X97878799Y-91807047D01*
X97746101Y-91791224D01*
X97705680Y-91786404D01*
X97698677Y-91787140D01*
X97698676Y-91787140D01*
X97532288Y-91804628D01*
X97532286Y-91804629D01*
X97525288Y-91805364D01*
X97353579Y-91863818D01*
X97329589Y-91878577D01*
X97205095Y-91955166D01*
X97205092Y-91955168D01*
X97199088Y-91958862D01*
X97194053Y-91963793D01*
X97194050Y-91963795D01*
X97088845Y-92066820D01*
X97069493Y-92085771D01*
X97056514Y-92105911D01*
X97002804Y-92152334D01*
X96932517Y-92162350D01*
X96867973Y-92132777D01*
X96843753Y-92104429D01*
X96837626Y-92094624D01*
X96811246Y-92068059D01*
X96714778Y-91970915D01*
X96714774Y-91970912D01*
X96709815Y-91965918D01*
X96698697Y-91958862D01*
X96603565Y-91898490D01*
X96556666Y-91868727D01*
X96491701Y-91845594D01*
X96392425Y-91810243D01*
X96392420Y-91810242D01*
X96385790Y-91807881D01*
X96378802Y-91807048D01*
X96378799Y-91807047D01*
X96246101Y-91791224D01*
X96205680Y-91786404D01*
X96198677Y-91787140D01*
X96198676Y-91787140D01*
X96032288Y-91804628D01*
X96032286Y-91804629D01*
X96025288Y-91805364D01*
X95853579Y-91863818D01*
X95829589Y-91878577D01*
X95705095Y-91955166D01*
X95705092Y-91955168D01*
X95699088Y-91958862D01*
X95694053Y-91963793D01*
X95694050Y-91963795D01*
X95588845Y-92066820D01*
X95569493Y-92085771D01*
X95556514Y-92105911D01*
X95502804Y-92152334D01*
X95432517Y-92162350D01*
X95367973Y-92132777D01*
X95343753Y-92104429D01*
X95337626Y-92094624D01*
X95311246Y-92068059D01*
X95214778Y-91970915D01*
X95214774Y-91970912D01*
X95209815Y-91965918D01*
X95198697Y-91958862D01*
X95103565Y-91898490D01*
X95056666Y-91868727D01*
X94991701Y-91845594D01*
X94892425Y-91810243D01*
X94892420Y-91810242D01*
X94885790Y-91807881D01*
X94878802Y-91807048D01*
X94878799Y-91807047D01*
X94746101Y-91791224D01*
X94705680Y-91786404D01*
X94698677Y-91787140D01*
X94698676Y-91787140D01*
X94532288Y-91804628D01*
X94532286Y-91804629D01*
X94525288Y-91805364D01*
X94353579Y-91863818D01*
X94329589Y-91878577D01*
X94205095Y-91955166D01*
X94205092Y-91955168D01*
X94199088Y-91958862D01*
X94194053Y-91963793D01*
X94194050Y-91963795D01*
X94087580Y-92068059D01*
X94024915Y-92101430D01*
X93954156Y-92095624D01*
X93910017Y-92066820D01*
X93814783Y-91970919D01*
X93814774Y-91970912D01*
X93809815Y-91965918D01*
X93798697Y-91958862D01*
X93703565Y-91898490D01*
X93656666Y-91868727D01*
X93591701Y-91845594D01*
X93492425Y-91810243D01*
X93492420Y-91810242D01*
X93485790Y-91807881D01*
X93478802Y-91807048D01*
X93478799Y-91807047D01*
X93346101Y-91791224D01*
X93305680Y-91786404D01*
X93298677Y-91787140D01*
X93298676Y-91787140D01*
X93132288Y-91804628D01*
X93132286Y-91804629D01*
X93125288Y-91805364D01*
X92953579Y-91863818D01*
X92929589Y-91878577D01*
X92805095Y-91955166D01*
X92805092Y-91955168D01*
X92799088Y-91958862D01*
X92794053Y-91963793D01*
X92794050Y-91963795D01*
X92688845Y-92066820D01*
X92669493Y-92085771D01*
X92656514Y-92105911D01*
X92602804Y-92152334D01*
X92532517Y-92162350D01*
X92467973Y-92132777D01*
X92443753Y-92104429D01*
X92437626Y-92094624D01*
X92411246Y-92068059D01*
X92314778Y-91970915D01*
X92314774Y-91970912D01*
X92309815Y-91965918D01*
X92298697Y-91958862D01*
X92203565Y-91898490D01*
X92156666Y-91868727D01*
X92091701Y-91845594D01*
X91992425Y-91810243D01*
X91992420Y-91810242D01*
X91985790Y-91807881D01*
X91978802Y-91807048D01*
X91978799Y-91807047D01*
X91846101Y-91791224D01*
X91805680Y-91786404D01*
X91798677Y-91787140D01*
X91798676Y-91787140D01*
X91632288Y-91804628D01*
X91632286Y-91804629D01*
X91625288Y-91805364D01*
X91453579Y-91863818D01*
X91429589Y-91878577D01*
X91305095Y-91955166D01*
X91305092Y-91955168D01*
X91299088Y-91958862D01*
X91294053Y-91963793D01*
X91294050Y-91963795D01*
X91188845Y-92066820D01*
X91169493Y-92085771D01*
X91105742Y-92184694D01*
X91052029Y-92231117D01*
X90981742Y-92241132D01*
X90917199Y-92211557D01*
X90892978Y-92183207D01*
X90886079Y-92172166D01*
X90837626Y-92094624D01*
X90811246Y-92068059D01*
X90714778Y-91970915D01*
X90714774Y-91970912D01*
X90709815Y-91965918D01*
X90698697Y-91958862D01*
X90603565Y-91898490D01*
X90556666Y-91868727D01*
X90491701Y-91845594D01*
X90392425Y-91810243D01*
X90392420Y-91810242D01*
X90385790Y-91807881D01*
X90378802Y-91807048D01*
X90378799Y-91807047D01*
X90246101Y-91791224D01*
X90205680Y-91786404D01*
X90198677Y-91787140D01*
X90198676Y-91787140D01*
X90032288Y-91804628D01*
X90032286Y-91804629D01*
X90025288Y-91805364D01*
X89853579Y-91863818D01*
X89829589Y-91878577D01*
X89705095Y-91955166D01*
X89705092Y-91955168D01*
X89699088Y-91958862D01*
X89694053Y-91963793D01*
X89694050Y-91963795D01*
X89587580Y-92068059D01*
X89524915Y-92101430D01*
X89454156Y-92095624D01*
X89410017Y-92066820D01*
X89314783Y-91970919D01*
X89314774Y-91970912D01*
X89309815Y-91965918D01*
X89298697Y-91958862D01*
X89203565Y-91898490D01*
X89156666Y-91868727D01*
X89091701Y-91845594D01*
X88992425Y-91810243D01*
X88992420Y-91810242D01*
X88985790Y-91807881D01*
X88978802Y-91807048D01*
X88978799Y-91807047D01*
X88846101Y-91791224D01*
X88805680Y-91786404D01*
X88798677Y-91787140D01*
X88798676Y-91787140D01*
X88632288Y-91804628D01*
X88632286Y-91804629D01*
X88625288Y-91805364D01*
X88453579Y-91863818D01*
X88429589Y-91878577D01*
X88305095Y-91955166D01*
X88305092Y-91955168D01*
X88299088Y-91958862D01*
X88294053Y-91963793D01*
X88294050Y-91963795D01*
X88188845Y-92066820D01*
X88169493Y-92085771D01*
X88131127Y-92145304D01*
X88077415Y-92191726D01*
X88007129Y-92201741D01*
X87942585Y-92172166D01*
X87918364Y-92143816D01*
X87911466Y-92132777D01*
X87887626Y-92094624D01*
X87861246Y-92068059D01*
X87764778Y-91970915D01*
X87764774Y-91970912D01*
X87759815Y-91965918D01*
X87748697Y-91958862D01*
X87653565Y-91898490D01*
X87606666Y-91868727D01*
X87541701Y-91845594D01*
X87442425Y-91810243D01*
X87442420Y-91810242D01*
X87435790Y-91807881D01*
X87428802Y-91807048D01*
X87428799Y-91807047D01*
X87296101Y-91791224D01*
X87255680Y-91786404D01*
X87248677Y-91787140D01*
X87248676Y-91787140D01*
X87082288Y-91804628D01*
X87082286Y-91804629D01*
X87075288Y-91805364D01*
X86903579Y-91863818D01*
X86879589Y-91878577D01*
X86755095Y-91955166D01*
X86755092Y-91955168D01*
X86749088Y-91958862D01*
X86744053Y-91963793D01*
X86744050Y-91963795D01*
X86638845Y-92066820D01*
X86619493Y-92085771D01*
X86581127Y-92145304D01*
X86527415Y-92191726D01*
X86457129Y-92201741D01*
X86392585Y-92172166D01*
X86368364Y-92143816D01*
X86361466Y-92132777D01*
X86337626Y-92094624D01*
X86311246Y-92068059D01*
X86214778Y-91970915D01*
X86214774Y-91970912D01*
X86209815Y-91965918D01*
X86198697Y-91958862D01*
X86103565Y-91898490D01*
X86056666Y-91868727D01*
X85991701Y-91845594D01*
X85892425Y-91810243D01*
X85892420Y-91810242D01*
X85885790Y-91807881D01*
X85878802Y-91807048D01*
X85878799Y-91807047D01*
X85746101Y-91791224D01*
X85705680Y-91786404D01*
X85698677Y-91787140D01*
X85698676Y-91787140D01*
X85532288Y-91804628D01*
X85532286Y-91804629D01*
X85525288Y-91805364D01*
X85353579Y-91863818D01*
X85329589Y-91878577D01*
X85205095Y-91955166D01*
X85205092Y-91955168D01*
X85199088Y-91958862D01*
X85194053Y-91963793D01*
X85194050Y-91963795D01*
X85087580Y-92068059D01*
X85024915Y-92101430D01*
X84954156Y-92095624D01*
X84910017Y-92066820D01*
X84814783Y-91970919D01*
X84814774Y-91970912D01*
X84809815Y-91965918D01*
X84798697Y-91958862D01*
X84703565Y-91898490D01*
X84656666Y-91868727D01*
X84591701Y-91845594D01*
X84492425Y-91810243D01*
X84492420Y-91810242D01*
X84485790Y-91807881D01*
X84478802Y-91807048D01*
X84478799Y-91807047D01*
X84346101Y-91791224D01*
X84305680Y-91786404D01*
X84298677Y-91787140D01*
X84298676Y-91787140D01*
X84132288Y-91804628D01*
X84132286Y-91804629D01*
X84125288Y-91805364D01*
X83953579Y-91863818D01*
X83929589Y-91878577D01*
X83805095Y-91955166D01*
X83805092Y-91955168D01*
X83799088Y-91958862D01*
X83794053Y-91963793D01*
X83794050Y-91963795D01*
X83688845Y-92066820D01*
X83669493Y-92085771D01*
X83656514Y-92105911D01*
X83602804Y-92152334D01*
X83532517Y-92162350D01*
X83467973Y-92132777D01*
X83443753Y-92104429D01*
X83437626Y-92094624D01*
X83411246Y-92068059D01*
X83314778Y-91970915D01*
X83314774Y-91970912D01*
X83309815Y-91965918D01*
X83298697Y-91958862D01*
X83203565Y-91898490D01*
X83156666Y-91868727D01*
X83091701Y-91845594D01*
X82992425Y-91810243D01*
X82992420Y-91810242D01*
X82985790Y-91807881D01*
X82978802Y-91807048D01*
X82978799Y-91807047D01*
X82846101Y-91791224D01*
X82805680Y-91786404D01*
X82798677Y-91787140D01*
X82798676Y-91787140D01*
X82632288Y-91804628D01*
X82632286Y-91804629D01*
X82625288Y-91805364D01*
X82453579Y-91863818D01*
X82429589Y-91878577D01*
X82305095Y-91955166D01*
X82305092Y-91955168D01*
X82299088Y-91958862D01*
X82294053Y-91963793D01*
X82294050Y-91963795D01*
X82188845Y-92066820D01*
X82169493Y-92085771D01*
X82156514Y-92105911D01*
X82102804Y-92152334D01*
X82032517Y-92162350D01*
X81967973Y-92132777D01*
X81943753Y-92104429D01*
X81937626Y-92094624D01*
X81911246Y-92068059D01*
X81814778Y-91970915D01*
X81814774Y-91970912D01*
X81809815Y-91965918D01*
X81798697Y-91958862D01*
X81703565Y-91898490D01*
X81656666Y-91868727D01*
X81591701Y-91845594D01*
X81492425Y-91810243D01*
X81492420Y-91810242D01*
X81485790Y-91807881D01*
X81478802Y-91807048D01*
X81478799Y-91807047D01*
X81346101Y-91791224D01*
X81305680Y-91786404D01*
X81298677Y-91787140D01*
X81298676Y-91787140D01*
X81132288Y-91804628D01*
X81132286Y-91804629D01*
X81125288Y-91805364D01*
X80953579Y-91863818D01*
X80929589Y-91878577D01*
X80805095Y-91955166D01*
X80805092Y-91955168D01*
X80799088Y-91958862D01*
X80794053Y-91963793D01*
X80794050Y-91963795D01*
X80688845Y-92066820D01*
X80669493Y-92085771D01*
X80656514Y-92105911D01*
X80602804Y-92152334D01*
X80532517Y-92162350D01*
X80467973Y-92132777D01*
X80443753Y-92104429D01*
X80437626Y-92094624D01*
X80411246Y-92068059D01*
X80314778Y-91970915D01*
X80314774Y-91970912D01*
X80309815Y-91965918D01*
X80298697Y-91958862D01*
X80203565Y-91898490D01*
X80156666Y-91868727D01*
X80091701Y-91845594D01*
X79992425Y-91810243D01*
X79992420Y-91810242D01*
X79985790Y-91807881D01*
X79978802Y-91807048D01*
X79978799Y-91807047D01*
X79846101Y-91791224D01*
X79805680Y-91786404D01*
X79798677Y-91787140D01*
X79798676Y-91787140D01*
X79632288Y-91804628D01*
X79632286Y-91804629D01*
X79625288Y-91805364D01*
X79453579Y-91863818D01*
X79429589Y-91878577D01*
X79305095Y-91955166D01*
X79305092Y-91955168D01*
X79299088Y-91958862D01*
X79294053Y-91963793D01*
X79294050Y-91963795D01*
X79188845Y-92066820D01*
X79169493Y-92085771D01*
X79156514Y-92105911D01*
X79102804Y-92152334D01*
X79032517Y-92162350D01*
X78967973Y-92132777D01*
X78943753Y-92104429D01*
X78937626Y-92094624D01*
X78911246Y-92068059D01*
X78814778Y-91970915D01*
X78814774Y-91970912D01*
X78809815Y-91965918D01*
X78798697Y-91958862D01*
X78703565Y-91898490D01*
X78656666Y-91868727D01*
X78591701Y-91845594D01*
X78492425Y-91810243D01*
X78492420Y-91810242D01*
X78485790Y-91807881D01*
X78478802Y-91807048D01*
X78478799Y-91807047D01*
X78346101Y-91791224D01*
X78305680Y-91786404D01*
X78298677Y-91787140D01*
X78298676Y-91787140D01*
X78132288Y-91804628D01*
X78132286Y-91804629D01*
X78125288Y-91805364D01*
X77953579Y-91863818D01*
X77929589Y-91878577D01*
X77805095Y-91955166D01*
X77805092Y-91955168D01*
X77799088Y-91958862D01*
X77794053Y-91963793D01*
X77794050Y-91963795D01*
X77688845Y-92066820D01*
X77669493Y-92085771D01*
X77571235Y-92238238D01*
X77568826Y-92244858D01*
X77568824Y-92244861D01*
X77511606Y-92402066D01*
X77509197Y-92408685D01*
X77486463Y-92588640D01*
X75908500Y-92588640D01*
X75908500Y-91408623D01*
X75908502Y-91407853D01*
X75908800Y-91359102D01*
X75908976Y-91330279D01*
X75900850Y-91301847D01*
X75897272Y-91285085D01*
X75894352Y-91264698D01*
X75893080Y-91255813D01*
X75882451Y-91232436D01*
X75876004Y-91214913D01*
X75871416Y-91198862D01*
X75868949Y-91190229D01*
X75864156Y-91182632D01*
X75853170Y-91165220D01*
X75845030Y-91150135D01*
X75842564Y-91144711D01*
X75832792Y-91123218D01*
X75816030Y-91103765D01*
X75804927Y-91088761D01*
X75791224Y-91067042D01*
X75784499Y-91061103D01*
X75784496Y-91061099D01*
X75769062Y-91047468D01*
X75757018Y-91035276D01*
X75743573Y-91019673D01*
X75743570Y-91019671D01*
X75737713Y-91012873D01*
X75724009Y-91003990D01*
X75716165Y-90998906D01*
X75701291Y-90987615D01*
X75688783Y-90976569D01*
X75688782Y-90976568D01*
X75682049Y-90970622D01*
X75655287Y-90958057D01*
X75640309Y-90949737D01*
X75623017Y-90938529D01*
X75623012Y-90938527D01*
X75615485Y-90933648D01*
X75606892Y-90931078D01*
X75606887Y-90931076D01*
X75590880Y-90926289D01*
X75573436Y-90919628D01*
X75558324Y-90912533D01*
X75558322Y-90912532D01*
X75550200Y-90908719D01*
X75541333Y-90907338D01*
X75541332Y-90907338D01*
X75530478Y-90905648D01*
X75520983Y-90904170D01*
X75504268Y-90900387D01*
X75484534Y-90894485D01*
X75484528Y-90894484D01*
X75475934Y-90891914D01*
X75466963Y-90891859D01*
X75466962Y-90891859D01*
X75456903Y-90891798D01*
X75441494Y-90891704D01*
X75440711Y-90891671D01*
X75439614Y-90891500D01*
X75408623Y-90891500D01*
X75407853Y-90891498D01*
X75334215Y-90891048D01*
X75334214Y-90891048D01*
X75330279Y-90891024D01*
X75328935Y-90891408D01*
X75327590Y-90891500D01*
X74934500Y-90891500D01*
X74866379Y-90871498D01*
X74819886Y-90817842D01*
X74808500Y-90765500D01*
X74808500Y-84621283D01*
X95886645Y-84621283D01*
X95903474Y-85022813D01*
X95959406Y-85420785D01*
X96053905Y-85811399D01*
X96186071Y-86190927D01*
X96354641Y-86555747D01*
X96558008Y-86902377D01*
X96794228Y-87227507D01*
X96796261Y-87229797D01*
X96796266Y-87229803D01*
X96833744Y-87272015D01*
X97061049Y-87528034D01*
X97355922Y-87801089D01*
X97676034Y-88044067D01*
X97678652Y-88045678D01*
X97678657Y-88045681D01*
X97847181Y-88149357D01*
X98018328Y-88254648D01*
X98379538Y-88430822D01*
X98382419Y-88431893D01*
X98382425Y-88431896D01*
X98439385Y-88453079D01*
X98756215Y-88570907D01*
X99144765Y-88673566D01*
X99541478Y-88737820D01*
X99544551Y-88738013D01*
X99544557Y-88738014D01*
X99688274Y-88747056D01*
X99870182Y-88758500D01*
X100101312Y-88758500D01*
X100102838Y-88758425D01*
X100102853Y-88758425D01*
X100266656Y-88750413D01*
X100401403Y-88743823D01*
X100798974Y-88685115D01*
X100801970Y-88684368D01*
X100801975Y-88684367D01*
X100926797Y-88653245D01*
X101188919Y-88587891D01*
X101191827Y-88586856D01*
X101191832Y-88586854D01*
X101373243Y-88522257D01*
X101567516Y-88453079D01*
X101931150Y-88281965D01*
X101933791Y-88280391D01*
X101933796Y-88280388D01*
X102108866Y-88176025D01*
X102276351Y-88076184D01*
X102599824Y-87837699D01*
X102602107Y-87835643D01*
X102602116Y-87835636D01*
X102896184Y-87570856D01*
X102896192Y-87570848D01*
X102898481Y-87568787D01*
X103169472Y-87272015D01*
X103410209Y-86950215D01*
X103440789Y-86899721D01*
X103616804Y-86609087D01*
X103616809Y-86609078D01*
X103618395Y-86606459D01*
X103792043Y-86244028D01*
X103929495Y-85866382D01*
X104029439Y-85477125D01*
X104090921Y-85079973D01*
X104113355Y-84678717D01*
X104096526Y-84277187D01*
X104040594Y-83879215D01*
X103946095Y-83488601D01*
X103813929Y-83109073D01*
X103645359Y-82744253D01*
X103441992Y-82397623D01*
X103205772Y-82072493D01*
X103168444Y-82030449D01*
X102940996Y-81774269D01*
X102940993Y-81774266D01*
X102938951Y-81771966D01*
X102644078Y-81498911D01*
X102323966Y-81255933D01*
X102321348Y-81254322D01*
X102321343Y-81254319D01*
X102152819Y-81150642D01*
X101981672Y-81045352D01*
X101620462Y-80869178D01*
X101617581Y-80868107D01*
X101617575Y-80868104D01*
X101382665Y-80780742D01*
X101243785Y-80729093D01*
X100855235Y-80626434D01*
X100458522Y-80562180D01*
X100455449Y-80561987D01*
X100455443Y-80561986D01*
X100311726Y-80552944D01*
X100129818Y-80541500D01*
X99898688Y-80541500D01*
X99897162Y-80541575D01*
X99897147Y-80541575D01*
X99733344Y-80549587D01*
X99598597Y-80556177D01*
X99201026Y-80614885D01*
X99198030Y-80615632D01*
X99198025Y-80615633D01*
X99073203Y-80646755D01*
X98811081Y-80712109D01*
X98808173Y-80713144D01*
X98808168Y-80713146D01*
X98626757Y-80777744D01*
X98432484Y-80846921D01*
X98068850Y-81018035D01*
X98066209Y-81019609D01*
X98066204Y-81019612D01*
X97891134Y-81123975D01*
X97723649Y-81223816D01*
X97400176Y-81462301D01*
X97397893Y-81464357D01*
X97397884Y-81464364D01*
X97103816Y-81729144D01*
X97103808Y-81729152D01*
X97101519Y-81731213D01*
X96830528Y-82027985D01*
X96589791Y-82349785D01*
X96588194Y-82352422D01*
X96383196Y-82690913D01*
X96383191Y-82690922D01*
X96381605Y-82693541D01*
X96207957Y-83055972D01*
X96070505Y-83433618D01*
X95970561Y-83822875D01*
X95909079Y-84220027D01*
X95886645Y-84621283D01*
X74808500Y-84621283D01*
X74808500Y-48008640D01*
X78906463Y-48008640D01*
X78924163Y-48189160D01*
X78981418Y-48361273D01*
X78985065Y-48367295D01*
X78985066Y-48367297D01*
X79066335Y-48501488D01*
X79075380Y-48516424D01*
X79201382Y-48646902D01*
X79207279Y-48650761D01*
X79212703Y-48655248D01*
X79211895Y-48656224D01*
X79253237Y-48704746D01*
X79262756Y-48775101D01*
X79245968Y-48821404D01*
X79244213Y-48824301D01*
X79239524Y-48830282D01*
X79236396Y-48837210D01*
X79235002Y-48839512D01*
X79226643Y-48854165D01*
X79225378Y-48856525D01*
X79221010Y-48862739D01*
X79218250Y-48869818D01*
X79218249Y-48869820D01*
X79197798Y-48922275D01*
X79195247Y-48928344D01*
X79168955Y-48986573D01*
X79167571Y-48994040D01*
X79166770Y-48996595D01*
X79162141Y-49012848D01*
X79161478Y-49015428D01*
X79158718Y-49022509D01*
X79152323Y-49071088D01*
X79150379Y-49085852D01*
X79149348Y-49092359D01*
X79137704Y-49155186D01*
X79138141Y-49162766D01*
X79138141Y-49162767D01*
X79141291Y-49217392D01*
X79141500Y-49224646D01*
X79141500Y-64401088D01*
X79141208Y-64409658D01*
X79137275Y-64467352D01*
X79138580Y-64474829D01*
X79138580Y-64474830D01*
X79148261Y-64530299D01*
X79149223Y-64536821D01*
X79156898Y-64600242D01*
X79159581Y-64607343D01*
X79160222Y-64609952D01*
X79164685Y-64626262D01*
X79165450Y-64628798D01*
X79166757Y-64636284D01*
X79169811Y-64643241D01*
X79192442Y-64694795D01*
X79194935Y-64700904D01*
X79210427Y-64741902D01*
X79217513Y-64760656D01*
X79221817Y-64766919D01*
X79223054Y-64769285D01*
X79231299Y-64784097D01*
X79232632Y-64786351D01*
X79235685Y-64793305D01*
X79272825Y-64841705D01*
X79274579Y-64843991D01*
X79278459Y-64849332D01*
X79310339Y-64895720D01*
X79310344Y-64895725D01*
X79314643Y-64901981D01*
X79320313Y-64907032D01*
X79320314Y-64907034D01*
X79361170Y-64943435D01*
X79366446Y-64948416D01*
X81588550Y-67170520D01*
X81594404Y-67176785D01*
X81632439Y-67220385D01*
X81638657Y-67224755D01*
X81684697Y-67257112D01*
X81689993Y-67261045D01*
X81740282Y-67300477D01*
X81747204Y-67303602D01*
X81749452Y-67304964D01*
X81764185Y-67313368D01*
X81766524Y-67314622D01*
X81772739Y-67318990D01*
X81779815Y-67321749D01*
X81779819Y-67321751D01*
X81828693Y-67340806D01*
X81830928Y-67341677D01*
X81832269Y-67342200D01*
X81838334Y-67344749D01*
X81896573Y-67371045D01*
X81904038Y-67372429D01*
X81906582Y-67373226D01*
X81922848Y-67377859D01*
X81925428Y-67378521D01*
X81932509Y-67381282D01*
X81940042Y-67382274D01*
X81940043Y-67382274D01*
X81972699Y-67386573D01*
X81995857Y-67389622D01*
X82002355Y-67390650D01*
X82065187Y-67402296D01*
X82072767Y-67401859D01*
X82072768Y-67401859D01*
X82127398Y-67398709D01*
X82134651Y-67398500D01*
X85269800Y-67398500D01*
X85326609Y-67412033D01*
X85327260Y-67412362D01*
X85333159Y-67416222D01*
X85339767Y-67418680D01*
X85339768Y-67418680D01*
X85496558Y-67476990D01*
X85496560Y-67476990D01*
X85503168Y-67479448D01*
X85586995Y-67490633D01*
X85675980Y-67502507D01*
X85675984Y-67502507D01*
X85682961Y-67503438D01*
X85689972Y-67502800D01*
X85689976Y-67502800D01*
X85832459Y-67489832D01*
X85863600Y-67486998D01*
X85870302Y-67484820D01*
X85870304Y-67484820D01*
X86029409Y-67433124D01*
X86029412Y-67433123D01*
X86036108Y-67430947D01*
X86141835Y-67367921D01*
X86185860Y-67341677D01*
X86185862Y-67341676D01*
X86191912Y-67338069D01*
X86323266Y-67212982D01*
X86423643Y-67061902D01*
X86488055Y-66892338D01*
X86513299Y-66712717D01*
X86513616Y-66690000D01*
X86493397Y-66509745D01*
X86496286Y-66509421D01*
X86499871Y-66451590D01*
X86541876Y-66394353D01*
X86608158Y-66368912D01*
X86618339Y-66368500D01*
X86969800Y-66368500D01*
X87026609Y-66382033D01*
X87027260Y-66382362D01*
X87033159Y-66386222D01*
X87039767Y-66388680D01*
X87039768Y-66388680D01*
X87196558Y-66446990D01*
X87196560Y-66446990D01*
X87203168Y-66449448D01*
X87286995Y-66460633D01*
X87375980Y-66472507D01*
X87375984Y-66472507D01*
X87382961Y-66473438D01*
X87389972Y-66472800D01*
X87389976Y-66472800D01*
X87532459Y-66459832D01*
X87563600Y-66456998D01*
X87570302Y-66454820D01*
X87570304Y-66454820D01*
X87729409Y-66403124D01*
X87729412Y-66403123D01*
X87736108Y-66400947D01*
X87891912Y-66308069D01*
X88023266Y-66182982D01*
X88123643Y-66031902D01*
X88177757Y-65889448D01*
X88185555Y-65868920D01*
X88185556Y-65868918D01*
X88188055Y-65862338D01*
X88191568Y-65837340D01*
X88212748Y-65686639D01*
X88212748Y-65686636D01*
X88213299Y-65682717D01*
X88213616Y-65660000D01*
X88193397Y-65479745D01*
X88188372Y-65465314D01*
X88136064Y-65315106D01*
X88136062Y-65315103D01*
X88133745Y-65308448D01*
X88110512Y-65271268D01*
X88091377Y-65202901D01*
X88112242Y-65135039D01*
X88166484Y-65089231D01*
X88217367Y-65078500D01*
X88369800Y-65078500D01*
X88426609Y-65092033D01*
X88427260Y-65092362D01*
X88433159Y-65096222D01*
X88439767Y-65098680D01*
X88439768Y-65098680D01*
X88596558Y-65156990D01*
X88596560Y-65156990D01*
X88603168Y-65159448D01*
X88686995Y-65170633D01*
X88775980Y-65182507D01*
X88775984Y-65182507D01*
X88782961Y-65183438D01*
X88789972Y-65182800D01*
X88789976Y-65182800D01*
X88932459Y-65169832D01*
X88963600Y-65166998D01*
X88970302Y-65164820D01*
X88970304Y-65164820D01*
X89129409Y-65113124D01*
X89129412Y-65113123D01*
X89136108Y-65110947D01*
X89291912Y-65018069D01*
X89423266Y-64892982D01*
X89523643Y-64741902D01*
X89577455Y-64600242D01*
X89585555Y-64578920D01*
X89585556Y-64578918D01*
X89588055Y-64572338D01*
X89593508Y-64533537D01*
X89612748Y-64396639D01*
X89612748Y-64396636D01*
X89613299Y-64392717D01*
X89613616Y-64370000D01*
X89593397Y-64189745D01*
X89561099Y-64096998D01*
X89536064Y-64025106D01*
X89536062Y-64025103D01*
X89533745Y-64018448D01*
X89476541Y-63926902D01*
X89441359Y-63870598D01*
X89437626Y-63864624D01*
X89413485Y-63840314D01*
X89314778Y-63740915D01*
X89314774Y-63740912D01*
X89309815Y-63735918D01*
X89156666Y-63638727D01*
X89127463Y-63628328D01*
X88992425Y-63580243D01*
X88992420Y-63580242D01*
X88985790Y-63577881D01*
X88978802Y-63577048D01*
X88978799Y-63577047D01*
X88855698Y-63562368D01*
X88805680Y-63556404D01*
X88798677Y-63557140D01*
X88798676Y-63557140D01*
X88632288Y-63574628D01*
X88632286Y-63574629D01*
X88625288Y-63575364D01*
X88546854Y-63602065D01*
X88460249Y-63631547D01*
X88460246Y-63631548D01*
X88453579Y-63633818D01*
X88447576Y-63637511D01*
X88447574Y-63637512D01*
X88438949Y-63642818D01*
X88372928Y-63661500D01*
X87488912Y-63661500D01*
X87480342Y-63661208D01*
X87430224Y-63657791D01*
X87430220Y-63657791D01*
X87422648Y-63657275D01*
X87415171Y-63658580D01*
X87415170Y-63658580D01*
X87400113Y-63661208D01*
X87359703Y-63668261D01*
X87353186Y-63669222D01*
X87289758Y-63676898D01*
X87282650Y-63679584D01*
X87280056Y-63680221D01*
X87263750Y-63684682D01*
X87261199Y-63685452D01*
X87253716Y-63686758D01*
X87246764Y-63689810D01*
X87246763Y-63689810D01*
X87195212Y-63712439D01*
X87189105Y-63714931D01*
X87143555Y-63732143D01*
X87129344Y-63737513D01*
X87123083Y-63741816D01*
X87120717Y-63743053D01*
X87105937Y-63751280D01*
X87103652Y-63752631D01*
X87096695Y-63755685D01*
X87090675Y-63760305D01*
X87090669Y-63760308D01*
X87059542Y-63784194D01*
X87045998Y-63794587D01*
X87040668Y-63798459D01*
X86994280Y-63830339D01*
X86994275Y-63830344D01*
X86988019Y-63834643D01*
X86982968Y-63840313D01*
X86982966Y-63840314D01*
X86946565Y-63881170D01*
X86941584Y-63886446D01*
X86743435Y-64084595D01*
X86681123Y-64118621D01*
X86654340Y-64121500D01*
X82858402Y-64121500D01*
X82790281Y-64101498D01*
X82769307Y-64084596D01*
X82286775Y-63602065D01*
X82252750Y-63539752D01*
X82249870Y-63512969D01*
X82249870Y-59176537D01*
X82269872Y-59108416D01*
X82323528Y-59061923D01*
X82393802Y-59051819D01*
X82419782Y-59058437D01*
X82503168Y-59089448D01*
X82586995Y-59100633D01*
X82675980Y-59112507D01*
X82675984Y-59112507D01*
X82682961Y-59113438D01*
X82689972Y-59112800D01*
X82689976Y-59112800D01*
X82832459Y-59099832D01*
X82863600Y-59096998D01*
X82870300Y-59094821D01*
X82870305Y-59094820D01*
X82907039Y-59082884D01*
X82978007Y-59080857D01*
X83038805Y-59117519D01*
X83065532Y-59162944D01*
X83109020Y-59293671D01*
X83112667Y-59299693D01*
X83112668Y-59299695D01*
X83170196Y-59394685D01*
X83202982Y-59448822D01*
X83328984Y-59579300D01*
X83480761Y-59678620D01*
X83487365Y-59681076D01*
X83487367Y-59681077D01*
X83644160Y-59739388D01*
X83644162Y-59739388D01*
X83650770Y-59741846D01*
X83657755Y-59742778D01*
X83657759Y-59742779D01*
X83779818Y-59759065D01*
X83844695Y-59787901D01*
X83883683Y-59847234D01*
X83888945Y-59876705D01*
X83891291Y-59917393D01*
X83891500Y-59924646D01*
X83891500Y-60269710D01*
X83875341Y-60324598D01*
X83878183Y-60326009D01*
X83875053Y-60332313D01*
X83871235Y-60338238D01*
X83868826Y-60344858D01*
X83868824Y-60344861D01*
X83846837Y-60405271D01*
X83809197Y-60508685D01*
X83786463Y-60688640D01*
X83804163Y-60869160D01*
X83861418Y-61041273D01*
X83955380Y-61196424D01*
X83960269Y-61201487D01*
X83960270Y-61201488D01*
X83991048Y-61233359D01*
X84081382Y-61326902D01*
X84233159Y-61426222D01*
X84239763Y-61428678D01*
X84239765Y-61428679D01*
X84368940Y-61476719D01*
X84425817Y-61519211D01*
X84450690Y-61585708D01*
X84435665Y-61655096D01*
X84414115Y-61683911D01*
X84296559Y-61801467D01*
X84248070Y-61831650D01*
X84153575Y-61863818D01*
X84147571Y-61867512D01*
X84005091Y-61955166D01*
X84005088Y-61955168D01*
X83999084Y-61958862D01*
X83994049Y-61963793D01*
X83994046Y-61963795D01*
X83874521Y-62080843D01*
X83869489Y-62085771D01*
X83771231Y-62238238D01*
X83709193Y-62408685D01*
X83686459Y-62588640D01*
X83704159Y-62769160D01*
X83761414Y-62941273D01*
X83765061Y-62947295D01*
X83765062Y-62947297D01*
X83821976Y-63041273D01*
X83855376Y-63096424D01*
X83981378Y-63226902D01*
X84133155Y-63326222D01*
X84139759Y-63328678D01*
X84139761Y-63328679D01*
X84296554Y-63386990D01*
X84296556Y-63386990D01*
X84303164Y-63389448D01*
X84386991Y-63400633D01*
X84475976Y-63412507D01*
X84475980Y-63412507D01*
X84482957Y-63413438D01*
X84489968Y-63412800D01*
X84489972Y-63412800D01*
X84632455Y-63399832D01*
X84663596Y-63396998D01*
X84670298Y-63394820D01*
X84670300Y-63394820D01*
X84829405Y-63343124D01*
X84829408Y-63343123D01*
X84836104Y-63340947D01*
X84991908Y-63248069D01*
X85123262Y-63122982D01*
X85223639Y-62971902D01*
X85271368Y-62846256D01*
X85300061Y-62801905D01*
X88184574Y-59917393D01*
X88451967Y-59650000D01*
X98336372Y-59650000D01*
X98356854Y-59910249D01*
X98358008Y-59915056D01*
X98358009Y-59915062D01*
X98360310Y-59924646D01*
X98417796Y-60164089D01*
X98419689Y-60168660D01*
X98419690Y-60168662D01*
X98484866Y-60326009D01*
X98517697Y-60405271D01*
X98654097Y-60627856D01*
X98823637Y-60826363D01*
X99022144Y-60995903D01*
X99244729Y-61132303D01*
X99249299Y-61134196D01*
X99249303Y-61134198D01*
X99411756Y-61201488D01*
X99485911Y-61232204D01*
X99574931Y-61253576D01*
X99734938Y-61291991D01*
X99734944Y-61291992D01*
X99739751Y-61293146D01*
X99830884Y-61300318D01*
X99932385Y-61308307D01*
X99932394Y-61308307D01*
X99934842Y-61308500D01*
X100065158Y-61308500D01*
X100067606Y-61308307D01*
X100067615Y-61308307D01*
X100169116Y-61300318D01*
X100260249Y-61293146D01*
X100265056Y-61291992D01*
X100265062Y-61291991D01*
X100425069Y-61253576D01*
X100514089Y-61232204D01*
X100588244Y-61201488D01*
X100750697Y-61134198D01*
X100750701Y-61134196D01*
X100755271Y-61132303D01*
X100977856Y-60995903D01*
X101176363Y-60826363D01*
X101345903Y-60627856D01*
X101482303Y-60405271D01*
X101515135Y-60326009D01*
X101580310Y-60168662D01*
X101580311Y-60168660D01*
X101582204Y-60164089D01*
X101639690Y-59924646D01*
X101641991Y-59915062D01*
X101641992Y-59915056D01*
X101643146Y-59910249D01*
X101663628Y-59650000D01*
X101643146Y-59389751D01*
X101641992Y-59384944D01*
X101641991Y-59384938D01*
X101595075Y-59189524D01*
X101582204Y-59135911D01*
X101574586Y-59117519D01*
X101484198Y-58899303D01*
X101484196Y-58899299D01*
X101482303Y-58894729D01*
X101345903Y-58672144D01*
X101176363Y-58473637D01*
X100977856Y-58304097D01*
X100755271Y-58167697D01*
X100750701Y-58165804D01*
X100750697Y-58165802D01*
X100518662Y-58069690D01*
X100518660Y-58069689D01*
X100514089Y-58067796D01*
X100412594Y-58043429D01*
X100265062Y-58008009D01*
X100265056Y-58008008D01*
X100260249Y-58006854D01*
X100169116Y-57999682D01*
X100067615Y-57991693D01*
X100067606Y-57991693D01*
X100065158Y-57991500D01*
X99934842Y-57991500D01*
X99932394Y-57991693D01*
X99932385Y-57991693D01*
X99830884Y-57999682D01*
X99739751Y-58006854D01*
X99734944Y-58008008D01*
X99734938Y-58008009D01*
X99587406Y-58043429D01*
X99485911Y-58067796D01*
X99481340Y-58069689D01*
X99481338Y-58069690D01*
X99249303Y-58165802D01*
X99249299Y-58165804D01*
X99244729Y-58167697D01*
X99022144Y-58304097D01*
X98823637Y-58473637D01*
X98654097Y-58672144D01*
X98517697Y-58894729D01*
X98515804Y-58899299D01*
X98515802Y-58899303D01*
X98425414Y-59117519D01*
X98417796Y-59135911D01*
X98404925Y-59189524D01*
X98358009Y-59384938D01*
X98358008Y-59384944D01*
X98356854Y-59389751D01*
X98336372Y-59650000D01*
X88451967Y-59650000D01*
X91080528Y-57021439D01*
X91086793Y-57015585D01*
X91124664Y-56982548D01*
X91124665Y-56982547D01*
X91130385Y-56977557D01*
X91167136Y-56925267D01*
X91171028Y-56920025D01*
X91210476Y-56869714D01*
X91213600Y-56862795D01*
X91214988Y-56860503D01*
X91223357Y-56845831D01*
X91224622Y-56843471D01*
X91228990Y-56837257D01*
X91252203Y-56777719D01*
X91254759Y-56771638D01*
X91261590Y-56756511D01*
X91281045Y-56713423D01*
X91282430Y-56705950D01*
X91283234Y-56703384D01*
X91287855Y-56687161D01*
X91288520Y-56684569D01*
X91291282Y-56677487D01*
X91299622Y-56614135D01*
X91300654Y-56607619D01*
X91310911Y-56552277D01*
X91312295Y-56544810D01*
X91311037Y-56522982D01*
X91308709Y-56482616D01*
X91308500Y-56475363D01*
X91308500Y-56430132D01*
X91321983Y-56374400D01*
X91323643Y-56371902D01*
X91340379Y-56327846D01*
X91385555Y-56208920D01*
X91385556Y-56208918D01*
X91388055Y-56202338D01*
X91389035Y-56195366D01*
X91412748Y-56026639D01*
X91412748Y-56026636D01*
X91413299Y-56022717D01*
X91413616Y-56000000D01*
X91393397Y-55819745D01*
X91391080Y-55813091D01*
X91336064Y-55655106D01*
X91336062Y-55655103D01*
X91333745Y-55648448D01*
X91237626Y-55494624D01*
X91198383Y-55455106D01*
X91114778Y-55370915D01*
X91114774Y-55370912D01*
X91109815Y-55365918D01*
X91098697Y-55358862D01*
X91050538Y-55328300D01*
X90956666Y-55268727D01*
X90925600Y-55257665D01*
X90792425Y-55210243D01*
X90792420Y-55210242D01*
X90785790Y-55207881D01*
X90778802Y-55207048D01*
X90778799Y-55207047D01*
X90655698Y-55192368D01*
X90605680Y-55186404D01*
X90598677Y-55187140D01*
X90598676Y-55187140D01*
X90432288Y-55204628D01*
X90432286Y-55204629D01*
X90425288Y-55205364D01*
X90253579Y-55263818D01*
X90247575Y-55267512D01*
X90105095Y-55355166D01*
X90105092Y-55355168D01*
X90099088Y-55358862D01*
X90094053Y-55363793D01*
X90094050Y-55363795D01*
X90013711Y-55442469D01*
X89969493Y-55485771D01*
X89871235Y-55638238D01*
X89868826Y-55644858D01*
X89868824Y-55644861D01*
X89824981Y-55765319D01*
X89809197Y-55808685D01*
X89786463Y-55988640D01*
X89804163Y-56169160D01*
X89806387Y-56175845D01*
X89810728Y-56188894D01*
X89813251Y-56259846D01*
X89780265Y-56317761D01*
X85583181Y-60514845D01*
X85520869Y-60548871D01*
X85450054Y-60543806D01*
X85393218Y-60501259D01*
X85375095Y-60467188D01*
X85351940Y-60400697D01*
X85333745Y-60348448D01*
X85327644Y-60338684D01*
X85308500Y-60271918D01*
X85308500Y-60245660D01*
X85328502Y-60177539D01*
X85345405Y-60156565D01*
X88703493Y-56798477D01*
X88753651Y-56767739D01*
X88829411Y-56743123D01*
X88836108Y-56740947D01*
X88991912Y-56648069D01*
X89123266Y-56522982D01*
X89223643Y-56371902D01*
X89288055Y-56202338D01*
X89289035Y-56195366D01*
X89312748Y-56026639D01*
X89312748Y-56026636D01*
X89313299Y-56022717D01*
X89313616Y-56000000D01*
X89293397Y-55819745D01*
X89291080Y-55813091D01*
X89236064Y-55655106D01*
X89236062Y-55655103D01*
X89233745Y-55648448D01*
X89137626Y-55494624D01*
X89098383Y-55455106D01*
X89014778Y-55370915D01*
X89014774Y-55370912D01*
X89009815Y-55365918D01*
X88998697Y-55358862D01*
X88950538Y-55328300D01*
X88856666Y-55268727D01*
X88825600Y-55257665D01*
X88692425Y-55210243D01*
X88692420Y-55210242D01*
X88685790Y-55207881D01*
X88678802Y-55207048D01*
X88678799Y-55207047D01*
X88555698Y-55192368D01*
X88505680Y-55186404D01*
X88498677Y-55187140D01*
X88498676Y-55187140D01*
X88332288Y-55204628D01*
X88332286Y-55204629D01*
X88325288Y-55205364D01*
X88153579Y-55263818D01*
X88147575Y-55267512D01*
X88005095Y-55355166D01*
X88005092Y-55355168D01*
X87999088Y-55358862D01*
X87994053Y-55363793D01*
X87994050Y-55363795D01*
X87913711Y-55442469D01*
X87869493Y-55485771D01*
X87771235Y-55638238D01*
X87768825Y-55644858D01*
X87768824Y-55644861D01*
X87730110Y-55751226D01*
X87700804Y-55797226D01*
X87123595Y-56374435D01*
X87061283Y-56408461D01*
X86990468Y-56403396D01*
X86933632Y-56360849D01*
X86908821Y-56294329D01*
X86908500Y-56285340D01*
X86908500Y-55830132D01*
X86921983Y-55774400D01*
X86923643Y-55771902D01*
X86970540Y-55648448D01*
X86985555Y-55608920D01*
X86985556Y-55608918D01*
X86988055Y-55602338D01*
X86989035Y-55595366D01*
X87012748Y-55426639D01*
X87012748Y-55426636D01*
X87013299Y-55422717D01*
X87013616Y-55400000D01*
X86993397Y-55219745D01*
X86990088Y-55210243D01*
X86936064Y-55055106D01*
X86936062Y-55055103D01*
X86933745Y-55048448D01*
X86888281Y-54975690D01*
X86841359Y-54900598D01*
X86837626Y-54894624D01*
X86814804Y-54871642D01*
X86714778Y-54770915D01*
X86714774Y-54770912D01*
X86709815Y-54765918D01*
X86698697Y-54758862D01*
X86617956Y-54707623D01*
X86556666Y-54668727D01*
X86510480Y-54652281D01*
X86392425Y-54610243D01*
X86392420Y-54610242D01*
X86385790Y-54607881D01*
X86378802Y-54607048D01*
X86378799Y-54607047D01*
X86255698Y-54592368D01*
X86205680Y-54586404D01*
X86198677Y-54587140D01*
X86198676Y-54587140D01*
X86032288Y-54604628D01*
X86032286Y-54604629D01*
X86025288Y-54605364D01*
X85853579Y-54663818D01*
X85847575Y-54667512D01*
X85705095Y-54755166D01*
X85705092Y-54755168D01*
X85699088Y-54758862D01*
X85694053Y-54763793D01*
X85694050Y-54763795D01*
X85583921Y-54871642D01*
X85569493Y-54885771D01*
X85471235Y-55038238D01*
X85468826Y-55044858D01*
X85468824Y-55044861D01*
X85426608Y-55160849D01*
X85409197Y-55208685D01*
X85386463Y-55388640D01*
X85404163Y-55569160D01*
X85461418Y-55741273D01*
X85465065Y-55747296D01*
X85465066Y-55747297D01*
X85473276Y-55760853D01*
X85491500Y-55826124D01*
X85491500Y-56254340D01*
X85471498Y-56322461D01*
X85454595Y-56343435D01*
X84423595Y-57374435D01*
X84361283Y-57408461D01*
X84290468Y-57403396D01*
X84233632Y-57360849D01*
X84208821Y-57294329D01*
X84208500Y-57285340D01*
X84208500Y-56430132D01*
X84221983Y-56374400D01*
X84223643Y-56371902D01*
X84240379Y-56327846D01*
X84285555Y-56208920D01*
X84285556Y-56208918D01*
X84288055Y-56202338D01*
X84289035Y-56195366D01*
X84312748Y-56026639D01*
X84312748Y-56026636D01*
X84313299Y-56022717D01*
X84313616Y-56000000D01*
X84293397Y-55819745D01*
X84291080Y-55813091D01*
X84236064Y-55655106D01*
X84236062Y-55655103D01*
X84233745Y-55648448D01*
X84137626Y-55494624D01*
X84098383Y-55455106D01*
X84014778Y-55370915D01*
X84014774Y-55370912D01*
X84009815Y-55365918D01*
X83998697Y-55358862D01*
X83950538Y-55328300D01*
X83856666Y-55268727D01*
X83825600Y-55257665D01*
X83692425Y-55210243D01*
X83692420Y-55210242D01*
X83685790Y-55207881D01*
X83678802Y-55207048D01*
X83678799Y-55207047D01*
X83555698Y-55192368D01*
X83505680Y-55186404D01*
X83498677Y-55187140D01*
X83498676Y-55187140D01*
X83332288Y-55204628D01*
X83332286Y-55204629D01*
X83325288Y-55205364D01*
X83153579Y-55263818D01*
X83147575Y-55267512D01*
X83005095Y-55355166D01*
X83005092Y-55355168D01*
X82999088Y-55358862D01*
X82994053Y-55363793D01*
X82994050Y-55363795D01*
X82913711Y-55442469D01*
X82869493Y-55485771D01*
X82771235Y-55638238D01*
X82768826Y-55644858D01*
X82768824Y-55644861D01*
X82724981Y-55765319D01*
X82709197Y-55808685D01*
X82686463Y-55988640D01*
X82704163Y-56169160D01*
X82761418Y-56341273D01*
X82773274Y-56360849D01*
X82773276Y-56360853D01*
X82791500Y-56426124D01*
X82791500Y-57154340D01*
X82771498Y-57222461D01*
X82754595Y-57243435D01*
X82496563Y-57501467D01*
X82448076Y-57531649D01*
X82416474Y-57542407D01*
X82345544Y-57545425D01*
X82284240Y-57509615D01*
X82252028Y-57446347D01*
X82249870Y-57423129D01*
X82249870Y-50135660D01*
X82269872Y-50067539D01*
X82286775Y-50046565D01*
X82700520Y-49632820D01*
X82706785Y-49626966D01*
X82744660Y-49593925D01*
X82750385Y-49588931D01*
X82787114Y-49536670D01*
X82791046Y-49531375D01*
X82825791Y-49487064D01*
X82830477Y-49481088D01*
X82833602Y-49474166D01*
X82834964Y-49471918D01*
X82843368Y-49457185D01*
X82844622Y-49454846D01*
X82848990Y-49448631D01*
X82851749Y-49441555D01*
X82851751Y-49441551D01*
X82872200Y-49389101D01*
X82874749Y-49383036D01*
X82901045Y-49324797D01*
X82902429Y-49317332D01*
X82903226Y-49314788D01*
X82907859Y-49298522D01*
X82908521Y-49295942D01*
X82911282Y-49288861D01*
X82919622Y-49225513D01*
X82920653Y-49218999D01*
X82920951Y-49217392D01*
X82932296Y-49156183D01*
X82928709Y-49093977D01*
X82928500Y-49086723D01*
X82928500Y-45835660D01*
X82948502Y-45767539D01*
X82965405Y-45746565D01*
X83930520Y-44781450D01*
X83936785Y-44775596D01*
X83974660Y-44742555D01*
X83980385Y-44737561D01*
X84017114Y-44685300D01*
X84021046Y-44680005D01*
X84055791Y-44635694D01*
X84060477Y-44629718D01*
X84063602Y-44622796D01*
X84064964Y-44620548D01*
X84073368Y-44605815D01*
X84074622Y-44603476D01*
X84078990Y-44597261D01*
X84081749Y-44590185D01*
X84081751Y-44590181D01*
X84102200Y-44537731D01*
X84104749Y-44531666D01*
X84131045Y-44473427D01*
X84132429Y-44465962D01*
X84133226Y-44463418D01*
X84137859Y-44447152D01*
X84138521Y-44444572D01*
X84141282Y-44437491D01*
X84149622Y-44374143D01*
X84150653Y-44367629D01*
X84160912Y-44312278D01*
X84162296Y-44304813D01*
X84158709Y-44242602D01*
X84158500Y-44235349D01*
X84158500Y-31315660D01*
X84178502Y-31247539D01*
X84195405Y-31226565D01*
X88443493Y-26978477D01*
X88493651Y-26947739D01*
X88569411Y-26923123D01*
X88576108Y-26920947D01*
X88731912Y-26828069D01*
X88863266Y-26702982D01*
X88963643Y-26551902D01*
X89028055Y-26382338D01*
X89029306Y-26373438D01*
X89052748Y-26206639D01*
X89052748Y-26206636D01*
X89053299Y-26202717D01*
X89053616Y-26180000D01*
X89033397Y-25999745D01*
X89025555Y-25977226D01*
X88976064Y-25835106D01*
X88976062Y-25835103D01*
X88973745Y-25828448D01*
X88877626Y-25674624D01*
X88800287Y-25596743D01*
X88754778Y-25550915D01*
X88754774Y-25550912D01*
X88749815Y-25545918D01*
X88738697Y-25538862D01*
X88634865Y-25472969D01*
X88596666Y-25448727D01*
X88531538Y-25425536D01*
X88432425Y-25390243D01*
X88432420Y-25390242D01*
X88425790Y-25387881D01*
X88418802Y-25387048D01*
X88418799Y-25387047D01*
X88295698Y-25372368D01*
X88245680Y-25366404D01*
X88238677Y-25367140D01*
X88238676Y-25367140D01*
X88072288Y-25384628D01*
X88072286Y-25384629D01*
X88065288Y-25385364D01*
X87893579Y-25443818D01*
X87850626Y-25470243D01*
X87745095Y-25535166D01*
X87745092Y-25535168D01*
X87739088Y-25538862D01*
X87734053Y-25543793D01*
X87734050Y-25543795D01*
X87614525Y-25660843D01*
X87609493Y-25665771D01*
X87511235Y-25818238D01*
X87508825Y-25824858D01*
X87508824Y-25824861D01*
X87470110Y-25931226D01*
X87440804Y-25977226D01*
X87430074Y-25987956D01*
X87367762Y-26021982D01*
X87296947Y-26016917D01*
X87240111Y-25974370D01*
X87215300Y-25907850D01*
X87223191Y-25854117D01*
X87255555Y-25768920D01*
X87255556Y-25768918D01*
X87258055Y-25762338D01*
X87259558Y-25751646D01*
X87282748Y-25586639D01*
X87282748Y-25586636D01*
X87283299Y-25582717D01*
X87283616Y-25560000D01*
X87263397Y-25379745D01*
X87259042Y-25367238D01*
X87206064Y-25215106D01*
X87206062Y-25215103D01*
X87203745Y-25208448D01*
X87107626Y-25054624D01*
X87102664Y-25049627D01*
X86984778Y-24930915D01*
X86984774Y-24930912D01*
X86979815Y-24925918D01*
X86953803Y-24909410D01*
X86861966Y-24851129D01*
X86826666Y-24828727D01*
X86754832Y-24803148D01*
X86662425Y-24770243D01*
X86662420Y-24770242D01*
X86655790Y-24767881D01*
X86648802Y-24767048D01*
X86648799Y-24767047D01*
X86525698Y-24752368D01*
X86475680Y-24746404D01*
X86468677Y-24747140D01*
X86468676Y-24747140D01*
X86302288Y-24764628D01*
X86302286Y-24764629D01*
X86295288Y-24765364D01*
X86225978Y-24788959D01*
X86130249Y-24821547D01*
X86130246Y-24821548D01*
X86123579Y-24823818D01*
X86115600Y-24828727D01*
X86113535Y-24829997D01*
X86038946Y-24848386D01*
X86030225Y-24847791D01*
X86030221Y-24847791D01*
X86022648Y-24847275D01*
X86015169Y-24848580D01*
X86012276Y-24848732D01*
X85943202Y-24832322D01*
X85893965Y-24781173D01*
X85886692Y-24764343D01*
X85879299Y-24743114D01*
X85863745Y-24698448D01*
X85838983Y-24658820D01*
X85771359Y-24550598D01*
X85767626Y-24544624D01*
X85762664Y-24539627D01*
X85644778Y-24420915D01*
X85644774Y-24420912D01*
X85639815Y-24415918D01*
X85628697Y-24408862D01*
X85571103Y-24372312D01*
X85486666Y-24318727D01*
X85457463Y-24308328D01*
X85322425Y-24260243D01*
X85322420Y-24260242D01*
X85315790Y-24257881D01*
X85308802Y-24257048D01*
X85308799Y-24257047D01*
X85170826Y-24240595D01*
X85135680Y-24236404D01*
X85128677Y-24237140D01*
X85128676Y-24237140D01*
X84962288Y-24254628D01*
X84962286Y-24254629D01*
X84955288Y-24255364D01*
X84783579Y-24313818D01*
X84654334Y-24393331D01*
X84585835Y-24411989D01*
X84518120Y-24390650D01*
X84481459Y-24352783D01*
X84475455Y-24343174D01*
X84407626Y-24234624D01*
X84398835Y-24225771D01*
X84284778Y-24110915D01*
X84284774Y-24110912D01*
X84279815Y-24105918D01*
X84268697Y-24098862D01*
X84205454Y-24058727D01*
X84126666Y-24008727D01*
X84087071Y-23994628D01*
X83962425Y-23950243D01*
X83962420Y-23950242D01*
X83955790Y-23947881D01*
X83948802Y-23947048D01*
X83948799Y-23947047D01*
X83825698Y-23932368D01*
X83775680Y-23926404D01*
X83768677Y-23927140D01*
X83768676Y-23927140D01*
X83602288Y-23944628D01*
X83602286Y-23944629D01*
X83595288Y-23945364D01*
X83423579Y-24003818D01*
X83370590Y-24036417D01*
X83275095Y-24095166D01*
X83275092Y-24095168D01*
X83269088Y-24098862D01*
X83264053Y-24103793D01*
X83264050Y-24103795D01*
X83144525Y-24220843D01*
X83139493Y-24225771D01*
X83041235Y-24378238D01*
X83038825Y-24384858D01*
X83038824Y-24384861D01*
X83000110Y-24491226D01*
X82970804Y-24537226D01*
X79239480Y-28268550D01*
X79233215Y-28274404D01*
X79189615Y-28312439D01*
X79152872Y-28364719D01*
X79148939Y-28370014D01*
X79109524Y-28420282D01*
X79106401Y-28427198D01*
X79105017Y-28429484D01*
X79096643Y-28444165D01*
X79095378Y-28446525D01*
X79091010Y-28452739D01*
X79088250Y-28459818D01*
X79088249Y-28459820D01*
X79067798Y-28512275D01*
X79065247Y-28518344D01*
X79038955Y-28576573D01*
X79037571Y-28584040D01*
X79036770Y-28586595D01*
X79032141Y-28602848D01*
X79031478Y-28605428D01*
X79028718Y-28612509D01*
X79027727Y-28620040D01*
X79027726Y-28620042D01*
X79020379Y-28675852D01*
X79019348Y-28682359D01*
X79007704Y-28745186D01*
X79008141Y-28752766D01*
X79008141Y-28752767D01*
X79011291Y-28807392D01*
X79011500Y-28814646D01*
X79011500Y-47589710D01*
X78995341Y-47644598D01*
X78998183Y-47646009D01*
X78995053Y-47652313D01*
X78991235Y-47658238D01*
X78988826Y-47664858D01*
X78988824Y-47664861D01*
X78932451Y-47819745D01*
X78929197Y-47828685D01*
X78906463Y-48008640D01*
X74808500Y-48008640D01*
X74808500Y-39038600D01*
X74808656Y-39033017D01*
X74809232Y-39028711D01*
X74808734Y-39005446D01*
X74808529Y-38995904D01*
X74808500Y-38993205D01*
X74808500Y-38963487D01*
X74807887Y-38959211D01*
X74807618Y-38953399D01*
X74509082Y-25021715D01*
X74509457Y-25008940D01*
X74512018Y-24977021D01*
X74512018Y-24977019D01*
X74512736Y-24968068D01*
X74510913Y-24959277D01*
X74510913Y-24959273D01*
X74500574Y-24909410D01*
X74499634Y-24904359D01*
X74491341Y-24854141D01*
X74491341Y-24854140D01*
X74489878Y-24845283D01*
X74486287Y-24837814D01*
X74484845Y-24833550D01*
X74483164Y-24825444D01*
X74455022Y-24772547D01*
X74452719Y-24767996D01*
X74430655Y-24722104D01*
X74430653Y-24722101D01*
X74426763Y-24714010D01*
X74421226Y-24707856D01*
X74421224Y-24707852D01*
X74418640Y-24704162D01*
X74414751Y-24696852D01*
X74372909Y-24653996D01*
X74369416Y-24650270D01*
X74329342Y-24605727D01*
X74322290Y-24601368D01*
X74318779Y-24598553D01*
X74312997Y-24592631D01*
X74305176Y-24588226D01*
X74305174Y-24588225D01*
X74260831Y-24563253D01*
X74256408Y-24560642D01*
X74255975Y-24560374D01*
X74240160Y-24550598D01*
X74213081Y-24533859D01*
X74213080Y-24533858D01*
X74205445Y-24529139D01*
X74197465Y-24526937D01*
X74193292Y-24525217D01*
X74186081Y-24521157D01*
X74177341Y-24519125D01*
X74177335Y-24519123D01*
X74127742Y-24507594D01*
X74122766Y-24506330D01*
X74073685Y-24492791D01*
X74065032Y-24490404D01*
X74056061Y-24490541D01*
X74056059Y-24490541D01*
X74033528Y-24490886D01*
X74020089Y-24491092D01*
X74008860Y-24490763D01*
X67875192Y-24036417D01*
X67808735Y-24011437D01*
X67766333Y-23954494D01*
X67758500Y-23910761D01*
X67758500Y-5134500D01*
X67778502Y-5066379D01*
X67832158Y-5019886D01*
X67884500Y-5008500D01*
X131115500Y-5008500D01*
X131183621Y-5028502D01*
G37*
G04 #@! TD.AperFunction*
G04 #@! TA.AperFunction,Conductor*
G36*
X100509532Y-35336604D02*
G01*
X100566368Y-35379151D01*
X100591179Y-35445671D01*
X100591500Y-35454660D01*
X100591500Y-47369710D01*
X100575341Y-47424598D01*
X100578183Y-47426009D01*
X100575053Y-47432313D01*
X100571235Y-47438238D01*
X100568826Y-47444858D01*
X100568824Y-47444861D01*
X100523383Y-47569710D01*
X100509197Y-47608685D01*
X100486463Y-47788640D01*
X100504163Y-47969160D01*
X100561418Y-48141273D01*
X100565065Y-48147296D01*
X100565066Y-48147297D01*
X100573276Y-48160853D01*
X100591500Y-48226124D01*
X100591500Y-51985340D01*
X100571498Y-52053461D01*
X100517842Y-52099954D01*
X100447568Y-52110058D01*
X100382988Y-52080564D01*
X100376405Y-52074435D01*
X99445405Y-51143435D01*
X99411379Y-51081123D01*
X99408500Y-51054340D01*
X99408500Y-48230132D01*
X99421983Y-48174400D01*
X99423643Y-48171902D01*
X99488055Y-48002338D01*
X99490963Y-47981646D01*
X99512748Y-47826639D01*
X99512748Y-47826636D01*
X99513299Y-47822717D01*
X99513616Y-47800000D01*
X99493397Y-47619745D01*
X99491080Y-47613091D01*
X99436064Y-47455106D01*
X99436062Y-47455103D01*
X99433745Y-47448448D01*
X99427644Y-47438684D01*
X99408500Y-47371918D01*
X99408500Y-36385660D01*
X99428502Y-36317539D01*
X99445405Y-36296565D01*
X100376405Y-35365565D01*
X100438717Y-35331539D01*
X100509532Y-35336604D01*
G37*
G04 #@! TD.AperFunction*
M02*
