%TF.GenerationSoftware,KiCad,Pcbnew,9.0.7*%
%TF.CreationDate,2026-03-30T19:08:54-07:00*%
%TF.ProjectId,tht_gb_adapter,7468745f-6762-45f6-9164-61707465722e,rev?*%
%TF.SameCoordinates,Original*%
%TF.FileFunction,Soldermask,Top*%
%TF.FilePolarity,Negative*%
%FSLAX46Y46*%
G04 Gerber Fmt 4.6, Leading zero omitted, Abs format (unit mm)*
G04 Created by KiCad (PCBNEW 9.0.7) date 2026-03-30 19:08:54*
%MOMM*%
%LPD*%
G01*
G04 APERTURE LIST*
%ADD10C,0.000000*%
%ADD11R,1.700000X1.700000*%
%ADD12C,1.700000*%
%ADD13R,1.300000X6.000000*%
%ADD14R,1.000000X5.500000*%
%ADD15R,4.600000X3.000000*%
G04 APERTURE END LIST*
D10*
%TO.C,REF\u002A\u002A*%
G36*
X145528129Y-77210782D02*
G01*
X145558885Y-77245414D01*
X145571508Y-77268378D01*
X145572996Y-77291290D01*
X145558959Y-77320764D01*
X145525010Y-77363413D01*
X145466759Y-77425850D01*
X145380967Y-77513523D01*
X145298457Y-77594535D01*
X145224981Y-77661693D01*
X145167866Y-77708645D01*
X145134437Y-77729040D01*
X145131942Y-77729416D01*
X145084504Y-77716366D01*
X145052321Y-77697902D01*
X145020209Y-77653214D01*
X144997815Y-77582615D01*
X144995384Y-77567812D01*
X144981708Y-77469355D01*
X144882782Y-77541135D01*
X144812327Y-77589167D01*
X144767480Y-77608655D01*
X144738235Y-77601182D01*
X144714586Y-77568331D01*
X144714301Y-77567800D01*
X144696137Y-77523793D01*
X144698097Y-77485793D01*
X144725243Y-77446065D01*
X144782635Y-77396872D01*
X144864778Y-77337802D01*
X144978758Y-77264468D01*
X145063620Y-77224991D01*
X145122725Y-77219739D01*
X145159431Y-77249080D01*
X145177097Y-77313385D01*
X145179963Y-77372431D01*
X145179963Y-77454670D01*
X145321238Y-77323875D01*
X145390230Y-77263269D01*
X145448973Y-77217571D01*
X145487365Y-77194461D01*
X145493324Y-77193080D01*
X145528129Y-77210782D01*
G37*
G36*
X140436523Y-77243739D02*
G01*
X140474045Y-77250236D01*
X140493269Y-77266577D01*
X140499193Y-77304615D01*
X140496816Y-77376198D01*
X140496323Y-77385504D01*
X140494467Y-77457490D01*
X140497004Y-77506169D01*
X140501768Y-77519618D01*
X140527049Y-77509964D01*
X140583518Y-77484232D01*
X140660672Y-77447264D01*
X140691458Y-77432153D01*
X140777785Y-77390200D01*
X140832310Y-77367248D01*
X140864896Y-77361319D01*
X140885405Y-77370433D01*
X140901762Y-77389962D01*
X140926266Y-77430335D01*
X140930911Y-77465053D01*
X140911081Y-77499070D01*
X140862162Y-77537341D01*
X140779538Y-77584820D01*
X140666483Y-77642539D01*
X140561094Y-77693244D01*
X140467356Y-77735114D01*
X140394867Y-77764080D01*
X140353229Y-77776074D01*
X140351107Y-77776184D01*
X140305214Y-77755956D01*
X140278476Y-77719691D01*
X140264532Y-77654936D01*
X140278976Y-77587928D01*
X140300192Y-77517852D01*
X140300940Y-77480805D01*
X140277621Y-77476233D01*
X140226636Y-77503580D01*
X140144388Y-77562288D01*
X140139030Y-77566308D01*
X140014808Y-77659647D01*
X139955926Y-77599624D01*
X139897043Y-77539601D01*
X139989608Y-77458588D01*
X140075820Y-77393388D01*
X140175877Y-77333306D01*
X140277342Y-77284321D01*
X140367777Y-77252411D01*
X140434745Y-77243557D01*
X140436523Y-77243739D01*
G37*
%TD*%
D11*
%TO.C,J2*%
X132610000Y-82495000D03*
D12*
X135150000Y-82495000D03*
X137690000Y-82495000D03*
X140230000Y-82495000D03*
X142770000Y-82495000D03*
X145310000Y-82495000D03*
X147850000Y-82495000D03*
X150390000Y-82495000D03*
X152930000Y-82495000D03*
X155470000Y-82495000D03*
X158010000Y-82495000D03*
X160550000Y-82495000D03*
X163090000Y-82495000D03*
X165630000Y-82495000D03*
X168170000Y-82495000D03*
X170710000Y-82495000D03*
X173250000Y-82495000D03*
X175790000Y-82495000D03*
X178330000Y-82495000D03*
X180870000Y-82495000D03*
X183410000Y-82495000D03*
X185950000Y-82495000D03*
X188490000Y-82495000D03*
X191030000Y-82495000D03*
X193570000Y-82495000D03*
X196110000Y-82495000D03*
X198650000Y-82495000D03*
X201190000Y-82495000D03*
X203730000Y-82495000D03*
X206270000Y-82495000D03*
X208810000Y-82495000D03*
X211350000Y-82495000D03*
%TD*%
D13*
%TO.C,J1*%
X148850000Y-71250000D03*
D14*
X150500000Y-71000000D03*
X152000000Y-71000000D03*
X153500000Y-71000000D03*
X155000000Y-71000000D03*
X156500000Y-71000000D03*
X158000000Y-71000000D03*
X159500000Y-71000000D03*
X161000000Y-71000000D03*
X162500000Y-71000000D03*
X164000000Y-71000000D03*
X165500000Y-71000000D03*
X167000000Y-71000000D03*
X168500000Y-71000000D03*
X170000000Y-71000000D03*
X171500000Y-71000000D03*
X173000000Y-71000000D03*
X174500000Y-71000000D03*
X176000000Y-71000000D03*
X177500000Y-71000000D03*
X179000000Y-71000000D03*
X180500000Y-71000000D03*
X182000000Y-71000000D03*
X183500000Y-71000000D03*
X185000000Y-71000000D03*
X186500000Y-71000000D03*
X188000000Y-71000000D03*
X189500000Y-71000000D03*
X191000000Y-71000000D03*
X192500000Y-71000000D03*
X194000000Y-71000000D03*
D15*
X158850000Y-48870000D03*
X185650000Y-48870000D03*
D13*
X195650000Y-71250000D03*
%TD*%
M02*
