%TF.GenerationSoftware,KiCad,Pcbnew,9.0.7*%
%TF.CreationDate,2026-03-30T19:08:54-07:00*%
%TF.ProjectId,tht_gb_adapter,7468745f-6762-45f6-9164-61707465722e,rev?*%
%TF.SameCoordinates,Original*%
%TF.FileFunction,Legend,Top*%
%TF.FilePolarity,Positive*%
%FSLAX46Y46*%
G04 Gerber Fmt 4.6, Leading zero omitted, Abs format (unit mm)*
G04 Created by KiCad (PCBNEW 9.0.7) date 2026-03-30 19:08:54*
%MOMM*%
%LPD*%
G01*
G04 APERTURE LIST*
%ADD10C,0.150000*%
%ADD11C,0.000000*%
%ADD12C,0.120000*%
%ADD13R,1.700000X1.700000*%
%ADD14C,1.700000*%
%ADD15R,1.300000X6.000000*%
%ADD16R,1.000000X5.500000*%
%ADD17R,4.600000X3.000000*%
G04 APERTURE END LIST*
D10*
X131666666Y-79454819D02*
X131666666Y-80169104D01*
X131666666Y-80169104D02*
X131619047Y-80311961D01*
X131619047Y-80311961D02*
X131523809Y-80407200D01*
X131523809Y-80407200D02*
X131380952Y-80454819D01*
X131380952Y-80454819D02*
X131285714Y-80454819D01*
X132095238Y-79550057D02*
X132142857Y-79502438D01*
X132142857Y-79502438D02*
X132238095Y-79454819D01*
X132238095Y-79454819D02*
X132476190Y-79454819D01*
X132476190Y-79454819D02*
X132571428Y-79502438D01*
X132571428Y-79502438D02*
X132619047Y-79550057D01*
X132619047Y-79550057D02*
X132666666Y-79645295D01*
X132666666Y-79645295D02*
X132666666Y-79740533D01*
X132666666Y-79740533D02*
X132619047Y-79883390D01*
X132619047Y-79883390D02*
X132047619Y-80454819D01*
X132047619Y-80454819D02*
X132666666Y-80454819D01*
X145666666Y-69454819D02*
X145666666Y-70169104D01*
X145666666Y-70169104D02*
X145619047Y-70311961D01*
X145619047Y-70311961D02*
X145523809Y-70407200D01*
X145523809Y-70407200D02*
X145380952Y-70454819D01*
X145380952Y-70454819D02*
X145285714Y-70454819D01*
X146666666Y-70454819D02*
X146095238Y-70454819D01*
X146380952Y-70454819D02*
X146380952Y-69454819D01*
X146380952Y-69454819D02*
X146285714Y-69597676D01*
X146285714Y-69597676D02*
X146190476Y-69692914D01*
X146190476Y-69692914D02*
X146095238Y-69740533D01*
D11*
%TO.C,REF\u002A\u002A*%
G36*
X142782556Y-77081292D02*
G01*
X142881386Y-77087267D01*
X142884330Y-77087539D01*
X143060030Y-77104004D01*
X143052917Y-77189359D01*
X143049657Y-77227176D01*
X143042186Y-77252688D01*
X143022808Y-77267918D01*
X142983826Y-77274889D01*
X142917541Y-77275625D01*
X142816257Y-77272147D01*
X142748421Y-77269395D01*
X142544334Y-77261236D01*
X142544334Y-77181567D01*
X142549149Y-77127193D01*
X142572957Y-77100713D01*
X142626483Y-77086486D01*
X142691105Y-77081006D01*
X142782556Y-77081292D01*
G37*
G36*
X143824615Y-77603826D02*
G01*
X143858676Y-77624446D01*
X143902642Y-77658222D01*
X143916144Y-77690405D01*
X143899029Y-77733542D01*
X143856624Y-77793016D01*
X143759743Y-77882207D01*
X143631158Y-77938775D01*
X143472677Y-77962547D01*
X143286108Y-77953352D01*
X143073256Y-77911018D01*
X142960159Y-77878203D01*
X142851191Y-77843617D01*
X142736618Y-77925929D01*
X142587558Y-78021638D01*
X142456772Y-78079026D01*
X142337623Y-78099212D01*
X142223474Y-78083313D01*
X142107689Y-78032450D01*
X142107006Y-78032059D01*
X142042431Y-77992371D01*
X141998357Y-77960197D01*
X141985331Y-77944812D01*
X141999432Y-77916581D01*
X142032329Y-77872276D01*
X142032931Y-77871552D01*
X142079756Y-77815312D01*
X142169445Y-77865721D01*
X142259385Y-77903086D01*
X142349832Y-77910614D01*
X142447691Y-77886550D01*
X142559871Y-77829142D01*
X142693279Y-77736639D01*
X142700832Y-77730907D01*
X142822344Y-77638378D01*
X142992384Y-77698436D01*
X143090741Y-77729326D01*
X143184052Y-77748325D01*
X143290435Y-77758209D01*
X143403721Y-77761507D01*
X143645017Y-77764522D01*
X143720955Y-77674243D01*
X143766806Y-77621746D01*
X143796698Y-77599959D01*
X143824615Y-77603826D01*
G37*
G36*
X142204731Y-76089653D02*
G01*
X142202423Y-76292563D01*
X142196199Y-76456100D01*
X142185066Y-76587449D01*
X142168026Y-76693794D01*
X142144083Y-76782318D01*
X142112243Y-76860207D01*
X142092667Y-76898104D01*
X142018273Y-76988100D01*
X141915363Y-77052012D01*
X141796425Y-77085998D01*
X141673946Y-77086215D01*
X141576382Y-77056977D01*
X141504420Y-77015393D01*
X141442685Y-76967733D01*
X141431745Y-76956794D01*
X141360142Y-76849549D01*
X141304669Y-76704465D01*
X141266609Y-76527924D01*
X141247247Y-76326310D01*
X141247864Y-76106004D01*
X141250762Y-76056336D01*
X141267078Y-75816955D01*
X141019781Y-75816955D01*
X140772485Y-75816955D01*
X140714270Y-75931836D01*
X140642669Y-76121801D01*
X140607188Y-76331757D01*
X140608391Y-76551500D01*
X140646840Y-76770827D01*
X140664608Y-76831556D01*
X140693160Y-76923434D01*
X140707558Y-76981415D01*
X140708783Y-77015726D01*
X140697814Y-77036595D01*
X140685273Y-77047304D01*
X140629398Y-77075852D01*
X140584418Y-77065579D01*
X140545183Y-77013586D01*
X140519562Y-76954007D01*
X140448773Y-76702288D01*
X140423835Y-76452123D01*
X140444803Y-76205700D01*
X140495807Y-76009379D01*
X140553558Y-75840279D01*
X140406063Y-75840279D01*
X140258568Y-75840279D01*
X140258568Y-75750508D01*
X140258568Y-75660736D01*
X140614261Y-75645573D01*
X140740700Y-75641213D01*
X140902052Y-75637224D01*
X141086585Y-75633806D01*
X141282564Y-75631157D01*
X141478255Y-75629478D01*
X141588044Y-75629025D01*
X142206134Y-75627640D01*
X142204731Y-76089653D01*
G37*
G36*
X145618699Y-75659517D02*
G01*
X145625938Y-75746983D01*
X145450855Y-75746983D01*
X145275772Y-75746983D01*
X145321114Y-75878769D01*
X145362271Y-76034215D01*
X145390475Y-76215492D01*
X145405218Y-76408892D01*
X145405995Y-76600705D01*
X145392299Y-76777225D01*
X145363625Y-76924742D01*
X145360175Y-76936514D01*
X145337617Y-77000580D01*
X145314131Y-77030434D01*
X145278620Y-77037393D01*
X145262060Y-77036570D01*
X145204874Y-77026802D01*
X145176514Y-77002057D01*
X145173145Y-76952995D01*
X145190931Y-76870276D01*
X145192045Y-76866072D01*
X145212359Y-76757756D01*
X145222828Y-76629570D01*
X145224356Y-76488789D01*
X145217843Y-76342686D01*
X145204191Y-76198534D01*
X145184300Y-76063608D01*
X145159074Y-75945181D01*
X145129412Y-75850525D01*
X145096216Y-75786916D01*
X145060388Y-75761625D01*
X145055164Y-75761560D01*
X145014472Y-75763292D01*
X144941394Y-75765247D01*
X144850188Y-75767057D01*
X144829630Y-75767391D01*
X144642566Y-75770307D01*
X144657560Y-75986055D01*
X144661529Y-76117086D01*
X144658294Y-76269964D01*
X144648511Y-76420551D01*
X144644764Y-76458303D01*
X144619040Y-76634257D01*
X144582756Y-76770504D01*
X144532915Y-76873367D01*
X144466522Y-76949170D01*
X144387831Y-77000656D01*
X144258808Y-77042641D01*
X144116090Y-77051606D01*
X143978903Y-77027198D01*
X143932121Y-77009051D01*
X143819648Y-76938435D01*
X143735924Y-76839778D01*
X143694640Y-76761265D01*
X143680866Y-76724109D01*
X143670130Y-76677692D01*
X143661926Y-76615546D01*
X143655750Y-76531201D01*
X143651095Y-76418189D01*
X143647456Y-76270041D01*
X143645000Y-76126000D01*
X143636811Y-75583714D01*
X144320922Y-75579716D01*
X144513947Y-75578586D01*
X144708686Y-75577442D01*
X144895417Y-75576341D01*
X145064419Y-75575340D01*
X145205971Y-75574499D01*
X145308246Y-75573885D01*
X145611460Y-75572051D01*
X145618699Y-75659517D01*
G37*
G36*
X146449198Y-71197170D02*
G01*
X146478912Y-71235823D01*
X146521663Y-71309991D01*
X146573734Y-71411656D01*
X146631407Y-71532796D01*
X146690963Y-71665394D01*
X146748684Y-71801429D01*
X146800852Y-71932881D01*
X146839230Y-72038443D01*
X146937542Y-72377445D01*
X147012213Y-72749670D01*
X147062315Y-73147596D01*
X147086918Y-73563699D01*
X147085096Y-73990457D01*
X147083936Y-74020995D01*
X147064265Y-74382400D01*
X147035418Y-74701760D01*
X146996324Y-74982969D01*
X146945913Y-75229920D01*
X146883114Y-75446507D01*
X146806858Y-75636624D01*
X146716075Y-75804165D01*
X146609693Y-75953023D01*
X146527304Y-76046181D01*
X146416885Y-76161325D01*
X146721136Y-76170804D01*
X146855083Y-76175959D01*
X146949339Y-76183552D01*
X147010864Y-76196365D01*
X147046613Y-76217185D01*
X147063545Y-76248793D01*
X147068617Y-76293973D01*
X147068862Y-76309935D01*
X147050869Y-76381796D01*
X146998108Y-76477714D01*
X146913430Y-76594166D01*
X146799687Y-76727624D01*
X146659730Y-76874562D01*
X146496408Y-77031456D01*
X146454377Y-77069905D01*
X146294355Y-77214957D01*
X146410122Y-77361457D01*
X146500711Y-77480911D01*
X146589842Y-77607122D01*
X146673554Y-77733517D01*
X146747882Y-77853526D01*
X146808862Y-77960577D01*
X146852531Y-78048098D01*
X146874926Y-78109517D01*
X146875797Y-78133525D01*
X146848882Y-78150984D01*
X146784445Y-78174210D01*
X146690952Y-78201155D01*
X146576868Y-78229772D01*
X146450661Y-78258013D01*
X146320796Y-78283829D01*
X146195740Y-78305173D01*
X146124591Y-78315230D01*
X145984184Y-78328475D01*
X145854885Y-78328739D01*
X145710499Y-78315900D01*
X145688974Y-78313226D01*
X145463274Y-78284494D01*
X145199167Y-78411930D01*
X145072113Y-78470202D01*
X144934906Y-78528200D01*
X144806205Y-78578271D01*
X144725142Y-78606445D01*
X144633425Y-78635992D01*
X144560039Y-78660083D01*
X144515220Y-78675336D01*
X144506440Y-78678741D01*
X144515266Y-78697863D01*
X144547000Y-78742514D01*
X144588858Y-78795682D01*
X144820914Y-79108020D01*
X145019898Y-79434306D01*
X145182154Y-79767536D01*
X145304025Y-80100707D01*
X145342035Y-80237924D01*
X145362734Y-80331214D01*
X145384147Y-80445480D01*
X145404970Y-80571312D01*
X145423900Y-80699296D01*
X145439634Y-80820022D01*
X145450867Y-80924078D01*
X145456298Y-81002051D01*
X145454623Y-81044530D01*
X145454005Y-81046486D01*
X145421386Y-81068866D01*
X145347427Y-81072253D01*
X145294102Y-81066784D01*
X145285300Y-81044475D01*
X145275159Y-80987365D01*
X145265699Y-80907178D01*
X145264635Y-80895789D01*
X145216325Y-80527640D01*
X145138930Y-80185670D01*
X145029495Y-79863031D01*
X144885067Y-79552875D01*
X144702692Y-79248354D01*
X144479414Y-78942620D01*
X144358424Y-78795287D01*
X144298234Y-78721357D01*
X144251912Y-78658725D01*
X144226458Y-78617119D01*
X144223673Y-78608092D01*
X144244787Y-78591135D01*
X144303369Y-78563468D01*
X144392281Y-78528029D01*
X144504386Y-78487755D01*
X144567704Y-78466461D01*
X144765589Y-78398125D01*
X144940419Y-78329694D01*
X145111453Y-78252976D01*
X145297951Y-78159779D01*
X145338370Y-78138667D01*
X145377336Y-78120906D01*
X145418009Y-78111309D01*
X145471547Y-78109484D01*
X145549107Y-78115037D01*
X145659977Y-78127354D01*
X145809507Y-78141534D01*
X145938214Y-78144287D01*
X146070481Y-78135693D01*
X146131711Y-78128871D01*
X146254418Y-78111710D01*
X146373663Y-78091012D01*
X146479579Y-78068905D01*
X146562302Y-78047516D01*
X146611966Y-78028972D01*
X146619597Y-78023663D01*
X146614353Y-77997978D01*
X146585085Y-77941415D01*
X146535884Y-77860321D01*
X146470842Y-77761043D01*
X146394048Y-77649927D01*
X146309594Y-77533321D01*
X146266936Y-77476475D01*
X146199611Y-77387709D01*
X146141450Y-77310760D01*
X146098989Y-77254291D01*
X146079408Y-77227873D01*
X146081741Y-77207418D01*
X146107499Y-77168185D01*
X146159092Y-77107445D01*
X146238931Y-77022470D01*
X146349428Y-76910532D01*
X146432902Y-76827858D01*
X146542956Y-76718376D01*
X146642642Y-76617037D01*
X146726766Y-76529295D01*
X146790136Y-76460606D01*
X146827557Y-76416423D01*
X146834599Y-76405890D01*
X146860943Y-76353411D01*
X146405302Y-76353411D01*
X146240465Y-76352708D01*
X146117580Y-76350399D01*
X146031969Y-76346185D01*
X145978951Y-76339767D01*
X145953851Y-76330843D01*
X145950241Y-76324255D01*
X145968003Y-76297218D01*
X146014523Y-76251957D01*
X146080544Y-76197284D01*
X146096017Y-76185434D01*
X146297468Y-76018094D01*
X146458471Y-75848018D01*
X146584833Y-75666436D01*
X146682362Y-75464577D01*
X146756865Y-75233671D01*
X146774956Y-75160187D01*
X146824598Y-74898899D01*
X146861921Y-74603072D01*
X146886776Y-74283200D01*
X146899013Y-73949776D01*
X146898483Y-73613295D01*
X146885035Y-73284250D01*
X146858520Y-72973135D01*
X146818789Y-72690445D01*
X146810826Y-72646588D01*
X146747242Y-72372300D01*
X146659035Y-72084076D01*
X146552915Y-71802535D01*
X146488299Y-71655760D01*
X146380414Y-71424685D01*
X146170868Y-71583971D01*
X145814877Y-71868080D01*
X145501446Y-72146712D01*
X145231410Y-72419031D01*
X145005604Y-72684198D01*
X144840199Y-72917117D01*
X144758055Y-73055442D01*
X144666748Y-73226351D01*
X144572168Y-73418279D01*
X144480210Y-73619658D01*
X144467940Y-73647809D01*
X144421883Y-73751089D01*
X144382361Y-73824120D01*
X144343613Y-73866557D01*
X144299879Y-73878057D01*
X144245400Y-73858274D01*
X144174415Y-73806865D01*
X144081165Y-73723484D01*
X143970565Y-73618054D01*
X143740920Y-73409349D01*
X143524632Y-73239664D01*
X143315312Y-73105758D01*
X143106571Y-73004387D01*
X142892020Y-72932310D01*
X142665272Y-72886284D01*
X142491855Y-72867528D01*
X142394274Y-72860736D01*
X142334158Y-72859244D01*
X142302463Y-72864763D01*
X142290144Y-72879003D01*
X142288158Y-72903674D01*
X142288174Y-72906051D01*
X142301684Y-73025887D01*
X142338282Y-73172414D01*
X142394391Y-73334044D01*
X142466434Y-73499193D01*
X142479472Y-73525711D01*
X142532434Y-73634305D01*
X142564790Y-73708335D01*
X142578654Y-73753977D01*
X142576141Y-73777408D01*
X142567658Y-73783373D01*
X142517940Y-73804295D01*
X142438323Y-73843078D01*
X142339235Y-73894128D01*
X142231104Y-73951855D01*
X142124356Y-74010667D01*
X142029418Y-74064973D01*
X141956717Y-74109180D01*
X141941572Y-74119117D01*
X141875938Y-74164595D01*
X141844769Y-74191788D01*
X141843242Y-74207562D01*
X141866534Y-74218784D01*
X141870641Y-74220110D01*
X141908949Y-74224669D01*
X141986391Y-74227968D01*
X142095469Y-74229901D01*
X142228684Y-74230364D01*
X142378536Y-74229253D01*
X142450079Y-74228200D01*
X142975831Y-74219251D01*
X142982914Y-74304092D01*
X142989996Y-74388933D01*
X142493106Y-74404925D01*
X142226781Y-74410145D01*
X142006047Y-74407171D01*
X141830566Y-74395982D01*
X141700001Y-74376555D01*
X141614017Y-74348867D01*
X141609496Y-74346532D01*
X141568259Y-74303908D01*
X141569480Y-74243721D01*
X141612855Y-74167044D01*
X141682895Y-74089454D01*
X141745720Y-74032228D01*
X141798734Y-73991016D01*
X141830872Y-73974381D01*
X141831646Y-73974347D01*
X141871713Y-73957983D01*
X141889282Y-73941742D01*
X141892451Y-73925086D01*
X141882008Y-73894664D01*
X141855486Y-73846710D01*
X141810421Y-73777454D01*
X141744346Y-73683130D01*
X141654796Y-73559969D01*
X141539305Y-73404204D01*
X141524783Y-73384745D01*
X141406847Y-73226541D01*
X141283614Y-73060772D01*
X141162132Y-72896951D01*
X141049447Y-72744588D01*
X140952605Y-72613195D01*
X140896608Y-72536864D01*
X140828564Y-72445479D01*
X140743551Y-72333831D01*
X140646694Y-72208401D01*
X140543118Y-72075672D01*
X140437947Y-71942127D01*
X140336306Y-71814248D01*
X140243320Y-71698518D01*
X140164112Y-71601419D01*
X140103808Y-71529435D01*
X140071468Y-71493074D01*
X140054129Y-71504116D01*
X140022301Y-71552099D01*
X139978945Y-71630704D01*
X139927019Y-71733610D01*
X139869484Y-71854495D01*
X139809300Y-71987040D01*
X139749425Y-72124925D01*
X139692820Y-72261828D01*
X139642445Y-72391429D01*
X139614032Y-72469939D01*
X139516490Y-72791944D01*
X139439207Y-73135756D01*
X139382395Y-73493933D01*
X139346270Y-73859031D01*
X139331047Y-74223610D01*
X139336938Y-74580227D01*
X139364160Y-74921439D01*
X139412925Y-75239804D01*
X139483449Y-75527881D01*
X139522548Y-75646223D01*
X139563918Y-75747864D01*
X139618329Y-75863993D01*
X139679383Y-75982599D01*
X139740681Y-76091672D01*
X139795826Y-76179203D01*
X139831241Y-76225678D01*
X139892564Y-76300647D01*
X139949731Y-76382216D01*
X139995255Y-76458395D01*
X140021645Y-76517197D01*
X140025326Y-76536414D01*
X140004952Y-76581889D01*
X139976250Y-76599085D01*
X139927339Y-76604776D01*
X139842226Y-76604859D01*
X139730934Y-76600002D01*
X139603487Y-76590875D01*
X139469907Y-76578145D01*
X139340216Y-76562483D01*
X139267291Y-76551773D01*
X139179974Y-76538773D01*
X139112509Y-76530435D01*
X139076290Y-76528111D01*
X139073240Y-76528771D01*
X139078420Y-76551438D01*
X139100011Y-76601433D01*
X139115714Y-76633359D01*
X139187205Y-76745594D01*
X139291137Y-76863110D01*
X139431557Y-76990074D01*
X139562168Y-77093188D01*
X139645493Y-77158850D01*
X139712732Y-77217126D01*
X139756211Y-77261018D01*
X139768760Y-77281628D01*
X139756071Y-77322459D01*
X139725505Y-77375411D01*
X139725039Y-77376073D01*
X139657101Y-77488174D01*
X139587866Y-77629766D01*
X139524513Y-77784469D01*
X139474223Y-77935904D01*
X139465171Y-77968888D01*
X139442967Y-78060436D01*
X139428417Y-78134000D01*
X139423514Y-78178717D01*
X139425169Y-78186740D01*
X139459054Y-78197725D01*
X139529462Y-78206037D01*
X139626336Y-78211520D01*
X139739620Y-78214022D01*
X139859256Y-78213388D01*
X139975188Y-78209463D01*
X140077358Y-78202095D01*
X140118104Y-78197352D01*
X140328329Y-78168623D01*
X140695790Y-78331177D01*
X140832485Y-78390563D01*
X140969306Y-78448098D01*
X141094324Y-78498896D01*
X141195607Y-78538070D01*
X141238182Y-78553337D01*
X141349406Y-78585689D01*
X141495632Y-78619993D01*
X141665401Y-78654025D01*
X141847254Y-78685562D01*
X142029733Y-78712381D01*
X142109050Y-78722324D01*
X142245208Y-78738360D01*
X142229422Y-78822882D01*
X142217740Y-78879443D01*
X142209030Y-78911299D01*
X142207963Y-78913215D01*
X142180727Y-78914665D01*
X142115887Y-78908214D01*
X142021546Y-78895266D01*
X141905812Y-78877227D01*
X141776789Y-78855502D01*
X141642583Y-78831495D01*
X141511299Y-78806611D01*
X141391043Y-78782255D01*
X141289920Y-78759832D01*
X141220689Y-78742099D01*
X141178857Y-78741040D01*
X141167572Y-78767818D01*
X141184237Y-78817442D01*
X141226258Y-78884921D01*
X141291038Y-78965261D01*
X141375984Y-79053473D01*
X141389026Y-79065873D01*
X141473635Y-79144045D01*
X141561341Y-79222690D01*
X141643551Y-79294354D01*
X141711671Y-79351586D01*
X141757110Y-79386933D01*
X141765690Y-79392540D01*
X141790080Y-79415422D01*
X141792509Y-79447631D01*
X141770182Y-79494226D01*
X141720303Y-79560263D01*
X141640074Y-79650801D01*
X141597867Y-79696063D01*
X141495695Y-79804802D01*
X141424758Y-79883561D01*
X141384816Y-79936786D01*
X141375629Y-79968927D01*
X141396956Y-79984431D01*
X141448558Y-79987746D01*
X141530193Y-79983321D01*
X141582548Y-79979570D01*
X141726278Y-79974253D01*
X141827891Y-79983566D01*
X141890349Y-80010144D01*
X141916613Y-80056623D01*
X141909646Y-80125640D01*
X141872410Y-80219830D01*
X141866429Y-80232177D01*
X141824759Y-80330004D01*
X141778111Y-80461181D01*
X141730505Y-80613290D01*
X141685963Y-80773909D01*
X141668557Y-80843310D01*
X141646547Y-80928900D01*
X141626211Y-80998870D01*
X141611810Y-81038604D01*
X141611389Y-81039411D01*
X141580684Y-81059753D01*
X141527408Y-81072804D01*
X141472651Y-81075736D01*
X141437503Y-81065721D01*
X141435289Y-81063031D01*
X141437060Y-81035408D01*
X141449784Y-80976144D01*
X141470233Y-80899758D01*
X141496989Y-80806410D01*
X141530273Y-80689121D01*
X141564130Y-80568898D01*
X141574175Y-80533013D01*
X141605603Y-80427189D01*
X141638190Y-80328342D01*
X141666655Y-80252120D01*
X141676504Y-80229799D01*
X141718196Y-80143585D01*
X141480981Y-80151459D01*
X141359193Y-80153477D01*
X141273069Y-80149341D01*
X141211909Y-80138025D01*
X141171001Y-80121705D01*
X141122496Y-80091790D01*
X141098723Y-80067649D01*
X141098237Y-80065218D01*
X141112210Y-80032479D01*
X141150047Y-79972389D01*
X141205623Y-79893331D01*
X141272816Y-79803686D01*
X141345500Y-79711836D01*
X141417553Y-79626164D01*
X141426213Y-79616303D01*
X141562307Y-79462207D01*
X141349486Y-79266601D01*
X141215101Y-79136575D01*
X141116150Y-79024659D01*
X141048245Y-78924669D01*
X141006996Y-78830423D01*
X140991202Y-78761744D01*
X140979810Y-78702694D01*
X140960184Y-78664732D01*
X140920944Y-78635215D01*
X140850711Y-78601501D01*
X140844451Y-78598706D01*
X140760848Y-78560949D01*
X140654473Y-78512226D01*
X140544755Y-78461450D01*
X140515133Y-78447636D01*
X140316878Y-78354986D01*
X140111931Y-78383967D01*
X139987484Y-78395477D01*
X139837359Y-78400130D01*
X139676675Y-78398321D01*
X139520550Y-78390443D01*
X139384101Y-78376888D01*
X139302277Y-78362901D01*
X139254689Y-78350273D01*
X139231258Y-78331057D01*
X139224628Y-78291653D01*
X139227143Y-78224000D01*
X139243972Y-78097648D01*
X139279973Y-77944884D01*
X139330950Y-77779665D01*
X139392708Y-77615953D01*
X139444685Y-77500281D01*
X139485174Y-77415229D01*
X139515265Y-77347785D01*
X139530816Y-77307455D01*
X139531731Y-77300313D01*
X139353039Y-77163511D01*
X139205893Y-77035188D01*
X139125204Y-76953419D01*
X139046443Y-76855078D01*
X138970719Y-76739933D01*
X138903814Y-76619116D01*
X138851510Y-76503754D01*
X138819589Y-76404977D01*
X138812470Y-76351517D01*
X138815176Y-76293770D01*
X138821920Y-76262149D01*
X138824427Y-76260114D01*
X138851102Y-76265965D01*
X138910641Y-76281427D01*
X138991034Y-76303365D01*
X139005190Y-76307311D01*
X139071118Y-76322830D01*
X139163115Y-76340651D01*
X139271641Y-76359368D01*
X139387157Y-76377576D01*
X139500122Y-76393869D01*
X139600998Y-76406842D01*
X139680245Y-76415089D01*
X139728322Y-76417205D01*
X139737992Y-76415278D01*
X139727963Y-76395333D01*
X139696788Y-76346920D01*
X139650579Y-76279425D01*
X139636452Y-76259336D01*
X139501609Y-76045178D01*
X139390610Y-75815772D01*
X139302335Y-75566467D01*
X139235667Y-75292615D01*
X139189488Y-74989566D01*
X139162678Y-74652672D01*
X139154120Y-74277284D01*
X139154160Y-74254237D01*
X139162451Y-73885451D01*
X139186529Y-73547652D01*
X139228660Y-73230732D01*
X139291112Y-72924585D01*
X139376152Y-72619103D01*
X139486047Y-72304180D01*
X139623063Y-71969708D01*
X139710302Y-71774847D01*
X139799673Y-71584929D01*
X139874282Y-71436972D01*
X139935244Y-71329074D01*
X139983674Y-71259335D01*
X140020689Y-71225851D01*
X140034502Y-71222097D01*
X140066837Y-71240523D01*
X140123714Y-71293654D01*
X140202512Y-71378267D01*
X140300613Y-71491141D01*
X140415396Y-71629054D01*
X140544244Y-71788784D01*
X140684537Y-71967111D01*
X140833655Y-72160811D01*
X140988979Y-72366663D01*
X141147890Y-72581446D01*
X141219657Y-72679857D01*
X141267501Y-72745209D01*
X141333462Y-72834518D01*
X141413299Y-72942116D01*
X141502771Y-73062336D01*
X141597639Y-73189510D01*
X141693662Y-73317970D01*
X141786600Y-73442048D01*
X141872213Y-73556077D01*
X141946260Y-73654388D01*
X142004502Y-73731315D01*
X142042699Y-73781188D01*
X142056158Y-73797995D01*
X142089146Y-73800778D01*
X142154530Y-73780533D01*
X142217542Y-73752889D01*
X142288260Y-73718527D01*
X142338645Y-73692972D01*
X142357741Y-73681791D01*
X142348678Y-73660307D01*
X142324534Y-73606630D01*
X142289876Y-73530875D01*
X142276280Y-73501391D01*
X142188278Y-73274414D01*
X142138944Y-73053295D01*
X142124844Y-72845761D01*
X142124500Y-72661804D01*
X142351910Y-72678038D01*
X142590185Y-72699136D01*
X142792220Y-72727379D01*
X142968241Y-72765831D01*
X143128478Y-72817557D01*
X143283159Y-72885620D01*
X143442512Y-72973084D01*
X143542218Y-73034618D01*
X143645996Y-73106701D01*
X143769467Y-73201615D01*
X143899809Y-73308741D01*
X144024200Y-73417458D01*
X144129820Y-73517149D01*
X144152091Y-73539728D01*
X144213646Y-73598896D01*
X144254363Y-73625533D01*
X144281727Y-73624172D01*
X144286205Y-73620982D01*
X144313316Y-73583178D01*
X144316970Y-73566506D01*
X144327497Y-73531333D01*
X144356185Y-73463927D01*
X144398692Y-73372918D01*
X144450677Y-73266936D01*
X144507797Y-73154611D01*
X144565713Y-73044571D01*
X144620082Y-72945446D01*
X144666563Y-72865867D01*
X144680938Y-72843033D01*
X144843382Y-72609108D01*
X145017304Y-72393328D01*
X145215738Y-72179978D01*
X145300185Y-72096368D01*
X145432074Y-71971670D01*
X145572214Y-71845117D01*
X145716039Y-71720282D01*
X145858982Y-71600741D01*
X145996474Y-71490067D01*
X146123948Y-71391835D01*
X146236837Y-71309619D01*
X146330573Y-71246994D01*
X146400589Y-71207533D01*
X146442318Y-71194813D01*
X146449198Y-71197170D01*
G37*
D12*
%TO.C,J2*%
X131230000Y-83875000D02*
X131230000Y-82495000D01*
X132610000Y-83875000D02*
X131230000Y-83875000D01*
X133880000Y-81115000D02*
X212730000Y-81115000D01*
X133880000Y-83875000D02*
X133880000Y-81115000D01*
X133880000Y-83875000D02*
X212730000Y-83875000D01*
X212730000Y-83875000D02*
X212730000Y-81115000D01*
%TO.C,J1*%
X143850000Y-50370000D02*
X200650000Y-50370000D01*
X143850000Y-68370000D02*
X143850000Y-50370000D01*
X147250000Y-68370000D02*
X143850000Y-68370000D01*
X147250000Y-68370000D02*
X147250000Y-74370000D01*
X147250000Y-74370000D02*
X147250000Y-74870000D01*
X147250000Y-74870000D02*
X197250000Y-74870000D01*
X197250000Y-68370000D02*
X197250000Y-74370000D01*
X197250000Y-68370000D02*
X200650000Y-68370000D01*
X197250000Y-74870000D02*
X197250000Y-74370000D01*
X200650000Y-68370000D02*
X200650000Y-50370000D01*
%TD*%
%LPC*%
D11*
%TO.C,REF\u002A\u002A*%
G36*
X145528129Y-77210782D02*
G01*
X145558885Y-77245414D01*
X145571508Y-77268378D01*
X145572996Y-77291290D01*
X145558959Y-77320764D01*
X145525010Y-77363413D01*
X145466759Y-77425850D01*
X145380967Y-77513523D01*
X145298457Y-77594535D01*
X145224981Y-77661693D01*
X145167866Y-77708645D01*
X145134437Y-77729040D01*
X145131942Y-77729416D01*
X145084504Y-77716366D01*
X145052321Y-77697902D01*
X145020209Y-77653214D01*
X144997815Y-77582615D01*
X144995384Y-77567812D01*
X144981708Y-77469355D01*
X144882782Y-77541135D01*
X144812327Y-77589167D01*
X144767480Y-77608655D01*
X144738235Y-77601182D01*
X144714586Y-77568331D01*
X144714301Y-77567800D01*
X144696137Y-77523793D01*
X144698097Y-77485793D01*
X144725243Y-77446065D01*
X144782635Y-77396872D01*
X144864778Y-77337802D01*
X144978758Y-77264468D01*
X145063620Y-77224991D01*
X145122725Y-77219739D01*
X145159431Y-77249080D01*
X145177097Y-77313385D01*
X145179963Y-77372431D01*
X145179963Y-77454670D01*
X145321238Y-77323875D01*
X145390230Y-77263269D01*
X145448973Y-77217571D01*
X145487365Y-77194461D01*
X145493324Y-77193080D01*
X145528129Y-77210782D01*
G37*
G36*
X140436523Y-77243739D02*
G01*
X140474045Y-77250236D01*
X140493269Y-77266577D01*
X140499193Y-77304615D01*
X140496816Y-77376198D01*
X140496323Y-77385504D01*
X140494467Y-77457490D01*
X140497004Y-77506169D01*
X140501768Y-77519618D01*
X140527049Y-77509964D01*
X140583518Y-77484232D01*
X140660672Y-77447264D01*
X140691458Y-77432153D01*
X140777785Y-77390200D01*
X140832310Y-77367248D01*
X140864896Y-77361319D01*
X140885405Y-77370433D01*
X140901762Y-77389962D01*
X140926266Y-77430335D01*
X140930911Y-77465053D01*
X140911081Y-77499070D01*
X140862162Y-77537341D01*
X140779538Y-77584820D01*
X140666483Y-77642539D01*
X140561094Y-77693244D01*
X140467356Y-77735114D01*
X140394867Y-77764080D01*
X140353229Y-77776074D01*
X140351107Y-77776184D01*
X140305214Y-77755956D01*
X140278476Y-77719691D01*
X140264532Y-77654936D01*
X140278976Y-77587928D01*
X140300192Y-77517852D01*
X140300940Y-77480805D01*
X140277621Y-77476233D01*
X140226636Y-77503580D01*
X140144388Y-77562288D01*
X140139030Y-77566308D01*
X140014808Y-77659647D01*
X139955926Y-77599624D01*
X139897043Y-77539601D01*
X139989608Y-77458588D01*
X140075820Y-77393388D01*
X140175877Y-77333306D01*
X140277342Y-77284321D01*
X140367777Y-77252411D01*
X140434745Y-77243557D01*
X140436523Y-77243739D01*
G37*
%TD*%
D13*
%TO.C,J2*%
X132610000Y-82495000D03*
D14*
X135150000Y-82495000D03*
X137690000Y-82495000D03*
X140230000Y-82495000D03*
X142770000Y-82495000D03*
X145310000Y-82495000D03*
X147850000Y-82495000D03*
X150390000Y-82495000D03*
X152930000Y-82495000D03*
X155470000Y-82495000D03*
X158010000Y-82495000D03*
X160550000Y-82495000D03*
X163090000Y-82495000D03*
X165630000Y-82495000D03*
X168170000Y-82495000D03*
X170710000Y-82495000D03*
X173250000Y-82495000D03*
X175790000Y-82495000D03*
X178330000Y-82495000D03*
X180870000Y-82495000D03*
X183410000Y-82495000D03*
X185950000Y-82495000D03*
X188490000Y-82495000D03*
X191030000Y-82495000D03*
X193570000Y-82495000D03*
X196110000Y-82495000D03*
X198650000Y-82495000D03*
X201190000Y-82495000D03*
X203730000Y-82495000D03*
X206270000Y-82495000D03*
X208810000Y-82495000D03*
X211350000Y-82495000D03*
%TD*%
D15*
%TO.C,J1*%
X148850000Y-71250000D03*
D16*
X150500000Y-71000000D03*
X152000000Y-71000000D03*
X153500000Y-71000000D03*
X155000000Y-71000000D03*
X156500000Y-71000000D03*
X158000000Y-71000000D03*
X159500000Y-71000000D03*
X161000000Y-71000000D03*
X162500000Y-71000000D03*
X164000000Y-71000000D03*
X165500000Y-71000000D03*
X167000000Y-71000000D03*
X168500000Y-71000000D03*
X170000000Y-71000000D03*
X171500000Y-71000000D03*
X173000000Y-71000000D03*
X174500000Y-71000000D03*
X176000000Y-71000000D03*
X177500000Y-71000000D03*
X179000000Y-71000000D03*
X180500000Y-71000000D03*
X182000000Y-71000000D03*
X183500000Y-71000000D03*
X185000000Y-71000000D03*
X186500000Y-71000000D03*
X188000000Y-71000000D03*
X189500000Y-71000000D03*
X191000000Y-71000000D03*
X192500000Y-71000000D03*
X194000000Y-71000000D03*
D17*
X158850000Y-48870000D03*
X185650000Y-48870000D03*
D15*
X195650000Y-71250000D03*
%TD*%
%LPD*%
M02*
