M48
; DRILL file {KiCad 9.0.7} date 2026-03-30T19:08:54-0700
; FORMAT={-:-/ absolute / inch / decimal}
; #@! TF.CreationDate,2026-03-30T19:08:54-07:00
; #@! TF.GenerationSoftware,Kicad,Pcbnew,9.0.7
; #@! TF.FileFunction,Plated,1,2,PTH
FMAT,2
INCH
; #@! TA.AperFunction,Plated,PTH,ComponentDrill
T1C0.0394
%
G90
G05
T1
X5.2209Y-3.2478
X5.3209Y-3.2478
X5.4209Y-3.2478
X5.5209Y-3.2478
X5.6209Y-3.2478
X5.7209Y-3.2478
X5.8209Y-3.2478
X5.9209Y-3.2478
X6.0209Y-3.2478
X6.1209Y-3.2478
X6.2209Y-3.2478
X6.3209Y-3.2478
X6.4209Y-3.2478
X6.5209Y-3.2478
X6.6209Y-3.2478
X6.7209Y-3.2478
X6.8209Y-3.2478
X6.9209Y-3.2478
X7.0209Y-3.2478
X7.1209Y-3.2478
X7.2209Y-3.2478
X7.3209Y-3.2478
X7.4209Y-3.2478
X7.5209Y-3.2478
X7.6209Y-3.2478
X7.7209Y-3.2478
X7.8209Y-3.2478
X7.9209Y-3.2478
X8.0209Y-3.2478
X8.1209Y-3.2478
X8.2209Y-3.2478
X8.3209Y-3.2478
M30
