%TF.GenerationSoftware,KiCad,Pcbnew,6.0.11+dfsg-1~bpo11+1*%
%TF.CreationDate,2023-04-01T22:39:16-07:00*%
%TF.ProjectId,gbpunk,67627075-6e6b-42e6-9b69-6361645f7063,v4.0*%
%TF.SameCoordinates,Original*%
%TF.FileFunction,Drillmap*%
%TF.FilePolarity,Positive*%
%FSLAX45Y45*%
G04 Gerber Fmt 4.5, Leading zero omitted, Abs format (unit mm)*
G04 Created by KiCad (PCBNEW 6.0.11+dfsg-1~bpo11+1) date 2023-04-01 22:39:16*
%MOMM*%
%LPD*%
G01*
G04 APERTURE LIST*
%ADD10C,0.150000*%
%ADD11C,0.200000*%
%ADD12C,0.035000*%
%ADD13C,0.040000*%
%ADD14C,0.060000*%
%ADD15C,0.080000*%
%ADD16C,0.100000*%
G04 APERTURE END LIST*
D10*
X12570000Y-4160000D02*
X12170000Y-4160000D01*
X12460000Y-9140000D02*
X12570000Y-9140000D01*
X12170000Y-3900000D02*
X12170000Y-4160000D01*
X12460000Y-9900000D02*
X12875000Y-9900000D01*
X12460000Y-9900000D02*
X12460000Y-9140000D01*
X12570000Y-9140000D02*
X12570000Y-4160000D01*
X12875000Y-12100000D02*
X7125000Y-12100000D01*
X7430000Y-3900000D02*
X12170000Y-3900000D01*
X7430000Y-9140000D02*
X7430000Y-3900000D01*
X7540000Y-9900000D02*
X7540000Y-9140000D01*
X12875000Y-9900000D02*
X12875000Y-12100000D01*
X7125000Y-12100000D02*
X7125000Y-9900000D01*
X7125000Y-9900000D02*
X7540000Y-9900000D01*
X7540000Y-9140000D02*
X7430000Y-9140000D01*
D11*
D12*
X9805000Y-6955000D02*
X9840000Y-6990000D01*
X9840000Y-6955000D02*
X9805000Y-6990000D01*
X9805000Y-7082500D02*
X9840000Y-7117500D01*
X9840000Y-7082500D02*
X9805000Y-7117500D01*
X9805000Y-7210000D02*
X9840000Y-7245000D01*
X9840000Y-7210000D02*
X9805000Y-7245000D01*
X9932500Y-6955000D02*
X9967500Y-6990000D01*
X9967500Y-6955000D02*
X9932500Y-6990000D01*
X9932500Y-7082500D02*
X9967500Y-7117500D01*
X9967500Y-7082500D02*
X9932500Y-7117500D01*
X9932500Y-7210000D02*
X9967500Y-7245000D01*
X9967500Y-7210000D02*
X9932500Y-7245000D01*
X10060000Y-6955000D02*
X10095000Y-6990000D01*
X10095000Y-6955000D02*
X10060000Y-6990000D01*
X10060000Y-7082500D02*
X10095000Y-7117500D01*
X10095000Y-7082500D02*
X10060000Y-7117500D01*
X10060000Y-7210000D02*
X10095000Y-7245000D01*
X10095000Y-7210000D02*
X10060000Y-7245000D01*
D13*
X7550000Y-8923000D02*
G75*
G03*
X7550000Y-8923000I-20000J0D01*
G01*
X7565000Y-7340000D02*
G75*
G03*
X7565000Y-7340000I-20000J0D01*
G01*
X7631000Y-5118000D02*
G75*
G03*
X7631000Y-5118000I-20000J0D01*
G01*
X7740000Y-8904000D02*
G75*
G03*
X7740000Y-8904000I-20000J0D01*
G01*
X7865000Y-4444000D02*
G75*
G03*
X7865000Y-4444000I-20000J0D01*
G01*
X7865000Y-7376000D02*
G75*
G03*
X7865000Y-7376000I-20000J0D01*
G01*
X7901000Y-4163000D02*
G75*
G03*
X7901000Y-4163000I-20000J0D01*
G01*
X7940000Y-6959000D02*
G75*
G03*
X7940000Y-6959000I-20000J0D01*
G01*
X7993000Y-4850000D02*
G75*
G03*
X7993000Y-4850000I-20000J0D01*
G01*
X7996000Y-9676000D02*
G75*
G03*
X7996000Y-9676000I-20000J0D01*
G01*
X8084000Y-4904000D02*
G75*
G03*
X8084000Y-4904000I-20000J0D01*
G01*
X8114000Y-8500000D02*
G75*
G03*
X8114000Y-8500000I-20000J0D01*
G01*
X8152000Y-4789000D02*
G75*
G03*
X8152000Y-4789000I-20000J0D01*
G01*
X8190000Y-7157000D02*
G75*
G03*
X8190000Y-7157000I-20000J0D01*
G01*
X8201000Y-6456000D02*
G75*
G03*
X8201000Y-6456000I-20000J0D01*
G01*
X8320000Y-7500000D02*
G75*
G03*
X8320000Y-7500000I-20000J0D01*
G01*
X8359894Y-7021718D02*
G75*
G03*
X8359894Y-7021718I-20000J0D01*
G01*
X8393000Y-6237000D02*
G75*
G03*
X8393000Y-6237000I-20000J0D01*
G01*
X8429000Y-8454000D02*
G75*
G03*
X8429000Y-8454000I-20000J0D01*
G01*
X8506000Y-8199000D02*
G75*
G03*
X8506000Y-8199000I-20000J0D01*
G01*
X8520000Y-11800000D02*
G75*
G03*
X8520000Y-11800000I-20000J0D01*
G01*
X8520000Y-11900000D02*
G75*
G03*
X8520000Y-11900000I-20000J0D01*
G01*
X8520000Y-12000000D02*
G75*
G03*
X8520000Y-12000000I-20000J0D01*
G01*
X8567000Y-4814000D02*
G75*
G03*
X8567000Y-4814000I-20000J0D01*
G01*
X8620000Y-11800000D02*
G75*
G03*
X8620000Y-11800000I-20000J0D01*
G01*
X8620000Y-11900000D02*
G75*
G03*
X8620000Y-11900000I-20000J0D01*
G01*
X8620000Y-12000000D02*
G75*
G03*
X8620000Y-12000000I-20000J0D01*
G01*
X8626000Y-8900000D02*
G75*
G03*
X8626000Y-8900000I-20000J0D01*
G01*
X8660000Y-7091000D02*
G75*
G03*
X8660000Y-7091000I-20000J0D01*
G01*
X8720000Y-11800000D02*
G75*
G03*
X8720000Y-11800000I-20000J0D01*
G01*
X8720000Y-11900000D02*
G75*
G03*
X8720000Y-11900000I-20000J0D01*
G01*
X8720000Y-12000000D02*
G75*
G03*
X8720000Y-12000000I-20000J0D01*
G01*
X8788000Y-5650000D02*
G75*
G03*
X8788000Y-5650000I-20000J0D01*
G01*
X8820000Y-11800000D02*
G75*
G03*
X8820000Y-11800000I-20000J0D01*
G01*
X8820000Y-11900000D02*
G75*
G03*
X8820000Y-11900000I-20000J0D01*
G01*
X8820000Y-12000000D02*
G75*
G03*
X8820000Y-12000000I-20000J0D01*
G01*
X8855000Y-6689000D02*
G75*
G03*
X8855000Y-6689000I-20000J0D01*
G01*
X8866000Y-4311000D02*
G75*
G03*
X8866000Y-4311000I-20000J0D01*
G01*
X8930000Y-9083000D02*
G75*
G03*
X8930000Y-9083000I-20000J0D01*
G01*
X8949791Y-6429791D02*
G75*
G03*
X8949791Y-6429791I-20000J0D01*
G01*
X8958000Y-6899000D02*
G75*
G03*
X8958000Y-6899000I-20000J0D01*
G01*
X9110000Y-6474000D02*
G75*
G03*
X9110000Y-6474000I-20000J0D01*
G01*
X9183000Y-5792000D02*
G75*
G03*
X9183000Y-5792000I-20000J0D01*
G01*
X9446000Y-6556000D02*
G75*
G03*
X9446000Y-6556000I-20000J0D01*
G01*
X9479000Y-8525000D02*
G75*
G03*
X9479000Y-8525000I-20000J0D01*
G01*
X9504000Y-4024000D02*
G75*
G03*
X9504000Y-4024000I-20000J0D01*
G01*
X9598000Y-6555000D02*
G75*
G03*
X9598000Y-6555000I-20000J0D01*
G01*
X9648000Y-7978000D02*
G75*
G03*
X9648000Y-7978000I-20000J0D01*
G01*
X9660000Y-8966000D02*
G75*
G03*
X9660000Y-8966000I-20000J0D01*
G01*
X9674500Y-6249500D02*
G75*
G03*
X9674500Y-6249500I-20000J0D01*
G01*
X9727000Y-6865000D02*
G75*
G03*
X9727000Y-6865000I-20000J0D01*
G01*
X9734000Y-6642000D02*
G75*
G03*
X9734000Y-6642000I-20000J0D01*
G01*
X9735000Y-7200000D02*
G75*
G03*
X9735000Y-7200000I-20000J0D01*
G01*
X9743000Y-7047000D02*
G75*
G03*
X9743000Y-7047000I-20000J0D01*
G01*
X9791000Y-7281000D02*
G75*
G03*
X9791000Y-7281000I-20000J0D01*
G01*
X9811000Y-6862000D02*
G75*
G03*
X9811000Y-6862000I-20000J0D01*
G01*
X9845133Y-6634729D02*
G75*
G03*
X9845133Y-6634729I-20000J0D01*
G01*
X9887000Y-7554000D02*
G75*
G03*
X9887000Y-7554000I-20000J0D01*
G01*
X9902000Y-6851000D02*
G75*
G03*
X9902000Y-6851000I-20000J0D01*
G01*
X9904000Y-7337000D02*
G75*
G03*
X9904000Y-7337000I-20000J0D01*
G01*
X9924000Y-7856000D02*
G75*
G03*
X9924000Y-7856000I-20000J0D01*
G01*
X9938934Y-6664440D02*
G75*
G03*
X9938934Y-6664440I-20000J0D01*
G01*
X9941000Y-9217000D02*
G75*
G03*
X9941000Y-9217000I-20000J0D01*
G01*
X9994044Y-6886956D02*
G75*
G03*
X9994044Y-6886956I-20000J0D01*
G01*
X10013000Y-7587000D02*
G75*
G03*
X10013000Y-7587000I-20000J0D01*
G01*
X10034000Y-7882000D02*
G75*
G03*
X10034000Y-7882000I-20000J0D01*
G01*
X10073000Y-8965000D02*
G75*
G03*
X10073000Y-8965000I-20000J0D01*
G01*
X10079000Y-6874000D02*
G75*
G03*
X10079000Y-6874000I-20000J0D01*
G01*
X10094000Y-6644000D02*
G75*
G03*
X10094000Y-6644000I-20000J0D01*
G01*
X10176000Y-7786000D02*
G75*
G03*
X10176000Y-7786000I-20000J0D01*
G01*
X10206000Y-7035000D02*
G75*
G03*
X10206000Y-7035000I-20000J0D01*
G01*
X10210000Y-6898000D02*
G75*
G03*
X10210000Y-6898000I-20000J0D01*
G01*
X10219000Y-6156000D02*
G75*
G03*
X10219000Y-6156000I-20000J0D01*
G01*
X10223000Y-7351000D02*
G75*
G03*
X10223000Y-7351000I-20000J0D01*
G01*
X10233841Y-7676573D02*
G75*
G03*
X10233841Y-7676573I-20000J0D01*
G01*
X10286909Y-7762264D02*
G75*
G03*
X10286909Y-7762264I-20000J0D01*
G01*
X10361000Y-5747000D02*
G75*
G03*
X10361000Y-5747000I-20000J0D01*
G01*
X10371000Y-6573000D02*
G75*
G03*
X10371000Y-6573000I-20000J0D01*
G01*
X10398000Y-8039000D02*
G75*
G03*
X10398000Y-8039000I-20000J0D01*
G01*
X10408000Y-6181000D02*
G75*
G03*
X10408000Y-6181000I-20000J0D01*
G01*
X10420000Y-4686000D02*
G75*
G03*
X10420000Y-4686000I-20000J0D01*
G01*
X10469000Y-6393000D02*
G75*
G03*
X10469000Y-6393000I-20000J0D01*
G01*
X10470000Y-6836000D02*
G75*
G03*
X10470000Y-6836000I-20000J0D01*
G01*
X10471000Y-4989000D02*
G75*
G03*
X10471000Y-4989000I-20000J0D01*
G01*
X10487000Y-6179000D02*
G75*
G03*
X10487000Y-6179000I-20000J0D01*
G01*
X10496000Y-8894000D02*
G75*
G03*
X10496000Y-8894000I-20000J0D01*
G01*
X10530352Y-7351442D02*
G75*
G03*
X10530352Y-7351442I-20000J0D01*
G01*
X10568000Y-6602000D02*
G75*
G03*
X10568000Y-6602000I-20000J0D01*
G01*
X10682000Y-8400000D02*
G75*
G03*
X10682000Y-8400000I-20000J0D01*
G01*
X10723000Y-7618000D02*
G75*
G03*
X10723000Y-7618000I-20000J0D01*
G01*
X10738000Y-6903000D02*
G75*
G03*
X10738000Y-6903000I-20000J0D01*
G01*
X10972000Y-7223000D02*
G75*
G03*
X10972000Y-7223000I-20000J0D01*
G01*
X11078000Y-8499000D02*
G75*
G03*
X11078000Y-8499000I-20000J0D01*
G01*
X11114000Y-6838000D02*
G75*
G03*
X11114000Y-6838000I-20000J0D01*
G01*
X11116000Y-4603000D02*
G75*
G03*
X11116000Y-4603000I-20000J0D01*
G01*
X11141000Y-9213000D02*
G75*
G03*
X11141000Y-9213000I-20000J0D01*
G01*
X11220000Y-11800000D02*
G75*
G03*
X11220000Y-11800000I-20000J0D01*
G01*
X11220000Y-11900000D02*
G75*
G03*
X11220000Y-11900000I-20000J0D01*
G01*
X11220000Y-12000000D02*
G75*
G03*
X11220000Y-12000000I-20000J0D01*
G01*
X11242000Y-4614000D02*
G75*
G03*
X11242000Y-4614000I-20000J0D01*
G01*
X11262000Y-9064000D02*
G75*
G03*
X11262000Y-9064000I-20000J0D01*
G01*
X11308000Y-7454000D02*
G75*
G03*
X11308000Y-7454000I-20000J0D01*
G01*
X11320000Y-11800000D02*
G75*
G03*
X11320000Y-11800000I-20000J0D01*
G01*
X11320000Y-11900000D02*
G75*
G03*
X11320000Y-11900000I-20000J0D01*
G01*
X11320000Y-12000000D02*
G75*
G03*
X11320000Y-12000000I-20000J0D01*
G01*
X11420000Y-6992000D02*
G75*
G03*
X11420000Y-6992000I-20000J0D01*
G01*
X11420000Y-11800000D02*
G75*
G03*
X11420000Y-11800000I-20000J0D01*
G01*
X11420000Y-11900000D02*
G75*
G03*
X11420000Y-11900000I-20000J0D01*
G01*
X11420000Y-12000000D02*
G75*
G03*
X11420000Y-12000000I-20000J0D01*
G01*
X11499000Y-9060000D02*
G75*
G03*
X11499000Y-9060000I-20000J0D01*
G01*
X11520000Y-11800000D02*
G75*
G03*
X11520000Y-11800000I-20000J0D01*
G01*
X11520000Y-11900000D02*
G75*
G03*
X11520000Y-11900000I-20000J0D01*
G01*
X11520000Y-12000000D02*
G75*
G03*
X11520000Y-12000000I-20000J0D01*
G01*
X11619000Y-6772000D02*
G75*
G03*
X11619000Y-6772000I-20000J0D01*
G01*
X11693000Y-8400000D02*
G75*
G03*
X11693000Y-8400000I-20000J0D01*
G01*
X11720000Y-4800000D02*
G75*
G03*
X11720000Y-4800000I-20000J0D01*
G01*
X11851000Y-6371000D02*
G75*
G03*
X11851000Y-6371000I-20000J0D01*
G01*
X11896000Y-9251000D02*
G75*
G03*
X11896000Y-9251000I-20000J0D01*
G01*
X11955000Y-4790000D02*
G75*
G03*
X11955000Y-4790000I-20000J0D01*
G01*
X11984000Y-7000000D02*
G75*
G03*
X11984000Y-7000000I-20000J0D01*
G01*
X12006408Y-6166435D02*
G75*
G03*
X12006408Y-6166435I-20000J0D01*
G01*
X12046000Y-9240000D02*
G75*
G03*
X12046000Y-9240000I-20000J0D01*
G01*
X12094000Y-6171000D02*
G75*
G03*
X12094000Y-6171000I-20000J0D01*
G01*
X12286000Y-6311000D02*
G75*
G03*
X12286000Y-6311000I-20000J0D01*
G01*
X12320000Y-5675000D02*
G75*
G03*
X12320000Y-5675000I-20000J0D01*
G01*
X12333000Y-7732000D02*
G75*
G03*
X12333000Y-7732000I-20000J0D01*
G01*
D14*
X7586000Y-4067000D02*
X7586000Y-4127000D01*
X7556000Y-4097000D02*
X7616000Y-4097000D01*
D11*
X7616000Y-4127000D02*
X7616000Y-4067000D01*
X7556000Y-4127000D02*
X7556000Y-4067000D01*
X7616000Y-4067000D02*
G75*
G03*
X7556000Y-4067000I-30000J0D01*
G01*
X7556000Y-4127000D02*
G75*
G03*
X7616000Y-4127000I30000J0D01*
G01*
D14*
X7586000Y-4485000D02*
X7586000Y-4545000D01*
X7556000Y-4515000D02*
X7616000Y-4515000D01*
D11*
X7616000Y-4570000D02*
X7616000Y-4460000D01*
X7556000Y-4570000D02*
X7556000Y-4460000D01*
X7616000Y-4460000D02*
G75*
G03*
X7556000Y-4460000I-30000J0D01*
G01*
X7556000Y-4570000D02*
G75*
G03*
X7616000Y-4570000I30000J0D01*
G01*
D14*
X8450000Y-4067000D02*
X8450000Y-4127000D01*
X8420000Y-4097000D02*
X8480000Y-4097000D01*
D11*
X8480000Y-4127000D02*
X8480000Y-4067000D01*
X8420000Y-4127000D02*
X8420000Y-4067000D01*
X8480000Y-4067000D02*
G75*
G03*
X8420000Y-4067000I-30000J0D01*
G01*
X8420000Y-4127000D02*
G75*
G03*
X8480000Y-4127000I30000J0D01*
G01*
D14*
X8450000Y-4485000D02*
X8450000Y-4545000D01*
X8420000Y-4515000D02*
X8480000Y-4515000D01*
D11*
X8480000Y-4570000D02*
X8480000Y-4460000D01*
X8420000Y-4570000D02*
X8420000Y-4460000D01*
X8480000Y-4460000D02*
G75*
G03*
X8420000Y-4460000I-30000J0D01*
G01*
X8420000Y-4570000D02*
G75*
G03*
X8480000Y-4570000I30000J0D01*
G01*
D15*
X7823284Y-8647285D02*
X7823284Y-8590716D01*
X7766715Y-8590716D01*
X7766715Y-8647285D01*
X7823284Y-8647285D01*
X7916284Y-5228285D02*
X7916284Y-5171716D01*
X7859715Y-5171716D01*
X7859715Y-5228285D01*
X7916284Y-5228285D01*
X8799285Y-8647285D02*
X8799285Y-8590716D01*
X8742716Y-8590716D01*
X8742716Y-8647285D01*
X8799285Y-8647285D01*
X9806285Y-4620285D02*
X9806285Y-4563716D01*
X9749716Y-4563716D01*
X9749716Y-4620285D01*
X9806285Y-4620285D01*
X9848285Y-4435285D02*
X9848285Y-4378716D01*
X9791716Y-4378716D01*
X9791716Y-4435285D01*
X9848285Y-4435285D01*
X11663284Y-8649285D02*
X11663284Y-8592716D01*
X11606715Y-8592716D01*
X11606715Y-8649285D01*
X11663284Y-8649285D01*
X10900000Y-6550000D02*
X10940000Y-6510000D01*
X10900000Y-6470000D01*
X10860000Y-6510000D01*
X10900000Y-6550000D01*
X10900000Y-6930000D02*
X10940000Y-6890000D01*
X10900000Y-6850000D01*
X10860000Y-6890000D01*
X10900000Y-6930000D01*
D16*
X12250000Y-6442500D02*
X12350000Y-6542500D01*
X12350000Y-6442500D02*
X12250000Y-6542500D01*
X12350000Y-6492500D02*
G75*
G03*
X12350000Y-6492500I-50000J0D01*
G01*
X12250000Y-6696500D02*
X12350000Y-6796500D01*
X12350000Y-6696500D02*
X12250000Y-6796500D01*
X12350000Y-6746500D02*
G75*
G03*
X12350000Y-6746500I-50000J0D01*
G01*
X12250000Y-6950500D02*
X12350000Y-7050500D01*
X12350000Y-6950500D02*
X12250000Y-7050500D01*
X12350000Y-7000500D02*
G75*
G03*
X12350000Y-7000500I-50000J0D01*
G01*
X12250000Y-7204500D02*
X12350000Y-7304500D01*
X12350000Y-7204500D02*
X12250000Y-7304500D01*
X12350000Y-7254500D02*
G75*
G03*
X12350000Y-7254500I-50000J0D01*
G01*
X12250000Y-7458500D02*
X12350000Y-7558500D01*
X12350000Y-7458500D02*
X12250000Y-7558500D01*
X12350000Y-7508500D02*
G75*
G03*
X12350000Y-7508500I-50000J0D01*
G01*
D11*
X7375119Y-12417976D02*
X7375119Y-12217976D01*
X7422738Y-12217976D01*
X7451309Y-12227500D01*
X7470357Y-12246548D01*
X7479881Y-12265595D01*
X7489405Y-12303690D01*
X7489405Y-12332262D01*
X7479881Y-12370357D01*
X7470357Y-12389405D01*
X7451309Y-12408452D01*
X7422738Y-12417976D01*
X7375119Y-12417976D01*
X7575119Y-12417976D02*
X7575119Y-12284643D01*
X7575119Y-12322738D02*
X7584643Y-12303690D01*
X7594167Y-12294167D01*
X7613214Y-12284643D01*
X7632262Y-12284643D01*
X7698928Y-12417976D02*
X7698928Y-12284643D01*
X7698928Y-12217976D02*
X7689405Y-12227500D01*
X7698928Y-12237024D01*
X7708452Y-12227500D01*
X7698928Y-12217976D01*
X7698928Y-12237024D01*
X7822738Y-12417976D02*
X7803690Y-12408452D01*
X7794167Y-12389405D01*
X7794167Y-12217976D01*
X7927500Y-12417976D02*
X7908452Y-12408452D01*
X7898928Y-12389405D01*
X7898928Y-12217976D01*
X8156071Y-12417976D02*
X8156071Y-12217976D01*
X8222738Y-12360833D01*
X8289405Y-12217976D01*
X8289405Y-12417976D01*
X8470357Y-12417976D02*
X8470357Y-12313214D01*
X8460833Y-12294167D01*
X8441786Y-12284643D01*
X8403690Y-12284643D01*
X8384643Y-12294167D01*
X8470357Y-12408452D02*
X8451310Y-12417976D01*
X8403690Y-12417976D01*
X8384643Y-12408452D01*
X8375119Y-12389405D01*
X8375119Y-12370357D01*
X8384643Y-12351309D01*
X8403690Y-12341786D01*
X8451310Y-12341786D01*
X8470357Y-12332262D01*
X8565595Y-12284643D02*
X8565595Y-12484643D01*
X8565595Y-12294167D02*
X8584643Y-12284643D01*
X8622738Y-12284643D01*
X8641786Y-12294167D01*
X8651310Y-12303690D01*
X8660833Y-12322738D01*
X8660833Y-12379881D01*
X8651310Y-12398928D01*
X8641786Y-12408452D01*
X8622738Y-12417976D01*
X8584643Y-12417976D01*
X8565595Y-12408452D01*
X8746548Y-12398928D02*
X8756071Y-12408452D01*
X8746548Y-12417976D01*
X8737024Y-12408452D01*
X8746548Y-12398928D01*
X8746548Y-12417976D01*
X8746548Y-12294167D02*
X8756071Y-12303690D01*
X8746548Y-12313214D01*
X8737024Y-12303690D01*
X8746548Y-12294167D01*
X8746548Y-12313214D01*
D12*
X7082500Y-12730000D02*
X7117500Y-12765000D01*
X7117500Y-12730000D02*
X7082500Y-12765000D01*
D11*
X7413214Y-12637976D02*
X7432262Y-12637976D01*
X7451309Y-12647500D01*
X7460833Y-12657024D01*
X7470357Y-12676071D01*
X7479881Y-12714167D01*
X7479881Y-12761786D01*
X7470357Y-12799881D01*
X7460833Y-12818928D01*
X7451309Y-12828452D01*
X7432262Y-12837976D01*
X7413214Y-12837976D01*
X7394167Y-12828452D01*
X7384643Y-12818928D01*
X7375119Y-12799881D01*
X7365595Y-12761786D01*
X7365595Y-12714167D01*
X7375119Y-12676071D01*
X7384643Y-12657024D01*
X7394167Y-12647500D01*
X7413214Y-12637976D01*
X7565595Y-12818928D02*
X7575119Y-12828452D01*
X7565595Y-12837976D01*
X7556071Y-12828452D01*
X7565595Y-12818928D01*
X7565595Y-12837976D01*
X7641786Y-12637976D02*
X7765595Y-12637976D01*
X7698928Y-12714167D01*
X7727500Y-12714167D01*
X7746548Y-12723690D01*
X7756071Y-12733214D01*
X7765595Y-12752262D01*
X7765595Y-12799881D01*
X7756071Y-12818928D01*
X7746548Y-12828452D01*
X7727500Y-12837976D01*
X7670357Y-12837976D01*
X7651309Y-12828452D01*
X7641786Y-12818928D01*
X7946548Y-12637976D02*
X7851309Y-12637976D01*
X7841786Y-12733214D01*
X7851309Y-12723690D01*
X7870357Y-12714167D01*
X7917976Y-12714167D01*
X7937024Y-12723690D01*
X7946548Y-12733214D01*
X7956071Y-12752262D01*
X7956071Y-12799881D01*
X7946548Y-12818928D01*
X7937024Y-12828452D01*
X7917976Y-12837976D01*
X7870357Y-12837976D01*
X7851309Y-12828452D01*
X7841786Y-12818928D01*
X8079881Y-12637976D02*
X8098928Y-12637976D01*
X8117976Y-12647500D01*
X8127500Y-12657024D01*
X8137024Y-12676071D01*
X8146548Y-12714167D01*
X8146548Y-12761786D01*
X8137024Y-12799881D01*
X8127500Y-12818928D01*
X8117976Y-12828452D01*
X8098928Y-12837976D01*
X8079881Y-12837976D01*
X8060833Y-12828452D01*
X8051309Y-12818928D01*
X8041786Y-12799881D01*
X8032262Y-12761786D01*
X8032262Y-12714167D01*
X8041786Y-12676071D01*
X8051309Y-12657024D01*
X8060833Y-12647500D01*
X8079881Y-12637976D01*
X8232262Y-12837976D02*
X8232262Y-12704643D01*
X8232262Y-12723690D02*
X8241786Y-12714167D01*
X8260833Y-12704643D01*
X8289405Y-12704643D01*
X8308452Y-12714167D01*
X8317976Y-12733214D01*
X8317976Y-12837976D01*
X8317976Y-12733214D02*
X8327500Y-12714167D01*
X8346548Y-12704643D01*
X8375119Y-12704643D01*
X8394167Y-12714167D01*
X8403690Y-12733214D01*
X8403690Y-12837976D01*
X8498929Y-12837976D02*
X8498929Y-12704643D01*
X8498929Y-12723690D02*
X8508452Y-12714167D01*
X8527500Y-12704643D01*
X8556071Y-12704643D01*
X8575119Y-12714167D01*
X8584643Y-12733214D01*
X8584643Y-12837976D01*
X8584643Y-12733214D02*
X8594167Y-12714167D01*
X8613214Y-12704643D01*
X8641786Y-12704643D01*
X8660833Y-12714167D01*
X8670357Y-12733214D01*
X8670357Y-12837976D01*
X9060833Y-12628452D02*
X8889405Y-12885595D01*
X9317976Y-12637976D02*
X9337024Y-12637976D01*
X9356071Y-12647500D01*
X9365595Y-12657024D01*
X9375119Y-12676071D01*
X9384643Y-12714167D01*
X9384643Y-12761786D01*
X9375119Y-12799881D01*
X9365595Y-12818928D01*
X9356071Y-12828452D01*
X9337024Y-12837976D01*
X9317976Y-12837976D01*
X9298929Y-12828452D01*
X9289405Y-12818928D01*
X9279881Y-12799881D01*
X9270357Y-12761786D01*
X9270357Y-12714167D01*
X9279881Y-12676071D01*
X9289405Y-12657024D01*
X9298929Y-12647500D01*
X9317976Y-12637976D01*
X9470357Y-12818928D02*
X9479881Y-12828452D01*
X9470357Y-12837976D01*
X9460833Y-12828452D01*
X9470357Y-12818928D01*
X9470357Y-12837976D01*
X9603690Y-12637976D02*
X9622738Y-12637976D01*
X9641786Y-12647500D01*
X9651310Y-12657024D01*
X9660833Y-12676071D01*
X9670357Y-12714167D01*
X9670357Y-12761786D01*
X9660833Y-12799881D01*
X9651310Y-12818928D01*
X9641786Y-12828452D01*
X9622738Y-12837976D01*
X9603690Y-12837976D01*
X9584643Y-12828452D01*
X9575119Y-12818928D01*
X9565595Y-12799881D01*
X9556071Y-12761786D01*
X9556071Y-12714167D01*
X9565595Y-12676071D01*
X9575119Y-12657024D01*
X9584643Y-12647500D01*
X9603690Y-12637976D01*
X9860833Y-12837976D02*
X9746548Y-12837976D01*
X9803690Y-12837976D02*
X9803690Y-12637976D01*
X9784643Y-12666548D01*
X9765595Y-12685595D01*
X9746548Y-12695119D01*
X9927500Y-12637976D02*
X10051310Y-12637976D01*
X9984643Y-12714167D01*
X10013214Y-12714167D01*
X10032262Y-12723690D01*
X10041786Y-12733214D01*
X10051310Y-12752262D01*
X10051310Y-12799881D01*
X10041786Y-12818928D01*
X10032262Y-12828452D01*
X10013214Y-12837976D01*
X9956071Y-12837976D01*
X9937024Y-12828452D01*
X9927500Y-12818928D01*
X10165595Y-12723690D02*
X10146548Y-12714167D01*
X10137024Y-12704643D01*
X10127500Y-12685595D01*
X10127500Y-12676071D01*
X10137024Y-12657024D01*
X10146548Y-12647500D01*
X10165595Y-12637976D01*
X10203690Y-12637976D01*
X10222738Y-12647500D01*
X10232262Y-12657024D01*
X10241786Y-12676071D01*
X10241786Y-12685595D01*
X10232262Y-12704643D01*
X10222738Y-12714167D01*
X10203690Y-12723690D01*
X10165595Y-12723690D01*
X10146548Y-12733214D01*
X10137024Y-12742738D01*
X10127500Y-12761786D01*
X10127500Y-12799881D01*
X10137024Y-12818928D01*
X10146548Y-12828452D01*
X10165595Y-12837976D01*
X10203690Y-12837976D01*
X10222738Y-12828452D01*
X10232262Y-12818928D01*
X10241786Y-12799881D01*
X10241786Y-12761786D01*
X10232262Y-12742738D01*
X10222738Y-12733214D01*
X10203690Y-12723690D01*
X10317976Y-12637976D02*
X10317976Y-12676071D01*
X10394167Y-12637976D02*
X10394167Y-12676071D01*
X10689405Y-12914167D02*
X10679881Y-12904643D01*
X10660833Y-12876071D01*
X10651310Y-12857024D01*
X10641786Y-12828452D01*
X10632262Y-12780833D01*
X10632262Y-12742738D01*
X10641786Y-12695119D01*
X10651310Y-12666548D01*
X10660833Y-12647500D01*
X10679881Y-12618928D01*
X10689405Y-12609405D01*
X10775119Y-12837976D02*
X10813214Y-12837976D01*
X10832262Y-12828452D01*
X10841786Y-12818928D01*
X10860833Y-12790357D01*
X10870357Y-12752262D01*
X10870357Y-12676071D01*
X10860833Y-12657024D01*
X10851310Y-12647500D01*
X10832262Y-12637976D01*
X10794167Y-12637976D01*
X10775119Y-12647500D01*
X10765595Y-12657024D01*
X10756071Y-12676071D01*
X10756071Y-12723690D01*
X10765595Y-12742738D01*
X10775119Y-12752262D01*
X10794167Y-12761786D01*
X10832262Y-12761786D01*
X10851310Y-12752262D01*
X10860833Y-12742738D01*
X10870357Y-12723690D01*
X11108452Y-12837976D02*
X11108452Y-12637976D01*
X11194167Y-12837976D02*
X11194167Y-12733214D01*
X11184643Y-12714167D01*
X11165595Y-12704643D01*
X11137024Y-12704643D01*
X11117976Y-12714167D01*
X11108452Y-12723690D01*
X11317976Y-12837976D02*
X11298928Y-12828452D01*
X11289405Y-12818928D01*
X11279881Y-12799881D01*
X11279881Y-12742738D01*
X11289405Y-12723690D01*
X11298928Y-12714167D01*
X11317976Y-12704643D01*
X11346548Y-12704643D01*
X11365595Y-12714167D01*
X11375119Y-12723690D01*
X11384643Y-12742738D01*
X11384643Y-12799881D01*
X11375119Y-12818928D01*
X11365595Y-12828452D01*
X11346548Y-12837976D01*
X11317976Y-12837976D01*
X11498928Y-12837976D02*
X11479881Y-12828452D01*
X11470357Y-12809405D01*
X11470357Y-12637976D01*
X11651309Y-12828452D02*
X11632262Y-12837976D01*
X11594167Y-12837976D01*
X11575119Y-12828452D01*
X11565595Y-12809405D01*
X11565595Y-12733214D01*
X11575119Y-12714167D01*
X11594167Y-12704643D01*
X11632262Y-12704643D01*
X11651309Y-12714167D01*
X11660833Y-12733214D01*
X11660833Y-12752262D01*
X11565595Y-12771309D01*
X11737024Y-12828452D02*
X11756071Y-12837976D01*
X11794167Y-12837976D01*
X11813214Y-12828452D01*
X11822738Y-12809405D01*
X11822738Y-12799881D01*
X11813214Y-12780833D01*
X11794167Y-12771309D01*
X11765595Y-12771309D01*
X11746548Y-12761786D01*
X11737024Y-12742738D01*
X11737024Y-12733214D01*
X11746548Y-12714167D01*
X11765595Y-12704643D01*
X11794167Y-12704643D01*
X11813214Y-12714167D01*
X11889405Y-12914167D02*
X11898928Y-12904643D01*
X11917976Y-12876071D01*
X11927500Y-12857024D01*
X11937024Y-12828452D01*
X11946548Y-12780833D01*
X11946548Y-12742738D01*
X11937024Y-12695119D01*
X11927500Y-12666548D01*
X11917976Y-12647500D01*
X11898928Y-12618928D01*
X11889405Y-12609405D01*
D13*
X7117500Y-13011500D02*
G75*
G03*
X7117500Y-13011500I-20000J0D01*
G01*
D11*
X7413214Y-12901976D02*
X7432262Y-12901976D01*
X7451309Y-12911500D01*
X7460833Y-12921024D01*
X7470357Y-12940071D01*
X7479881Y-12978167D01*
X7479881Y-13025786D01*
X7470357Y-13063881D01*
X7460833Y-13082928D01*
X7451309Y-13092452D01*
X7432262Y-13101976D01*
X7413214Y-13101976D01*
X7394167Y-13092452D01*
X7384643Y-13082928D01*
X7375119Y-13063881D01*
X7365595Y-13025786D01*
X7365595Y-12978167D01*
X7375119Y-12940071D01*
X7384643Y-12921024D01*
X7394167Y-12911500D01*
X7413214Y-12901976D01*
X7565595Y-13082928D02*
X7575119Y-13092452D01*
X7565595Y-13101976D01*
X7556071Y-13092452D01*
X7565595Y-13082928D01*
X7565595Y-13101976D01*
X7746548Y-12968643D02*
X7746548Y-13101976D01*
X7698928Y-12892452D02*
X7651309Y-13035309D01*
X7775119Y-13035309D01*
X7889405Y-12901976D02*
X7908452Y-12901976D01*
X7927500Y-12911500D01*
X7937024Y-12921024D01*
X7946548Y-12940071D01*
X7956071Y-12978167D01*
X7956071Y-13025786D01*
X7946548Y-13063881D01*
X7937024Y-13082928D01*
X7927500Y-13092452D01*
X7908452Y-13101976D01*
X7889405Y-13101976D01*
X7870357Y-13092452D01*
X7860833Y-13082928D01*
X7851309Y-13063881D01*
X7841786Y-13025786D01*
X7841786Y-12978167D01*
X7851309Y-12940071D01*
X7860833Y-12921024D01*
X7870357Y-12911500D01*
X7889405Y-12901976D01*
X8079881Y-12901976D02*
X8098928Y-12901976D01*
X8117976Y-12911500D01*
X8127500Y-12921024D01*
X8137024Y-12940071D01*
X8146548Y-12978167D01*
X8146548Y-13025786D01*
X8137024Y-13063881D01*
X8127500Y-13082928D01*
X8117976Y-13092452D01*
X8098928Y-13101976D01*
X8079881Y-13101976D01*
X8060833Y-13092452D01*
X8051309Y-13082928D01*
X8041786Y-13063881D01*
X8032262Y-13025786D01*
X8032262Y-12978167D01*
X8041786Y-12940071D01*
X8051309Y-12921024D01*
X8060833Y-12911500D01*
X8079881Y-12901976D01*
X8232262Y-13101976D02*
X8232262Y-12968643D01*
X8232262Y-12987690D02*
X8241786Y-12978167D01*
X8260833Y-12968643D01*
X8289405Y-12968643D01*
X8308452Y-12978167D01*
X8317976Y-12997214D01*
X8317976Y-13101976D01*
X8317976Y-12997214D02*
X8327500Y-12978167D01*
X8346548Y-12968643D01*
X8375119Y-12968643D01*
X8394167Y-12978167D01*
X8403690Y-12997214D01*
X8403690Y-13101976D01*
X8498929Y-13101976D02*
X8498929Y-12968643D01*
X8498929Y-12987690D02*
X8508452Y-12978167D01*
X8527500Y-12968643D01*
X8556071Y-12968643D01*
X8575119Y-12978167D01*
X8584643Y-12997214D01*
X8584643Y-13101976D01*
X8584643Y-12997214D02*
X8594167Y-12978167D01*
X8613214Y-12968643D01*
X8641786Y-12968643D01*
X8660833Y-12978167D01*
X8670357Y-12997214D01*
X8670357Y-13101976D01*
X9060833Y-12892452D02*
X8889405Y-13149595D01*
X9317976Y-12901976D02*
X9337024Y-12901976D01*
X9356071Y-12911500D01*
X9365595Y-12921024D01*
X9375119Y-12940071D01*
X9384643Y-12978167D01*
X9384643Y-13025786D01*
X9375119Y-13063881D01*
X9365595Y-13082928D01*
X9356071Y-13092452D01*
X9337024Y-13101976D01*
X9317976Y-13101976D01*
X9298929Y-13092452D01*
X9289405Y-13082928D01*
X9279881Y-13063881D01*
X9270357Y-13025786D01*
X9270357Y-12978167D01*
X9279881Y-12940071D01*
X9289405Y-12921024D01*
X9298929Y-12911500D01*
X9317976Y-12901976D01*
X9470357Y-13082928D02*
X9479881Y-13092452D01*
X9470357Y-13101976D01*
X9460833Y-13092452D01*
X9470357Y-13082928D01*
X9470357Y-13101976D01*
X9603690Y-12901976D02*
X9622738Y-12901976D01*
X9641786Y-12911500D01*
X9651310Y-12921024D01*
X9660833Y-12940071D01*
X9670357Y-12978167D01*
X9670357Y-13025786D01*
X9660833Y-13063881D01*
X9651310Y-13082928D01*
X9641786Y-13092452D01*
X9622738Y-13101976D01*
X9603690Y-13101976D01*
X9584643Y-13092452D01*
X9575119Y-13082928D01*
X9565595Y-13063881D01*
X9556071Y-13025786D01*
X9556071Y-12978167D01*
X9565595Y-12940071D01*
X9575119Y-12921024D01*
X9584643Y-12911500D01*
X9603690Y-12901976D01*
X9860833Y-13101976D02*
X9746548Y-13101976D01*
X9803690Y-13101976D02*
X9803690Y-12901976D01*
X9784643Y-12930548D01*
X9765595Y-12949595D01*
X9746548Y-12959119D01*
X10041786Y-12901976D02*
X9946548Y-12901976D01*
X9937024Y-12997214D01*
X9946548Y-12987690D01*
X9965595Y-12978167D01*
X10013214Y-12978167D01*
X10032262Y-12987690D01*
X10041786Y-12997214D01*
X10051310Y-13016262D01*
X10051310Y-13063881D01*
X10041786Y-13082928D01*
X10032262Y-13092452D01*
X10013214Y-13101976D01*
X9965595Y-13101976D01*
X9946548Y-13092452D01*
X9937024Y-13082928D01*
X10117976Y-12901976D02*
X10251310Y-12901976D01*
X10165595Y-13101976D01*
X10317976Y-12901976D02*
X10317976Y-12940071D01*
X10394167Y-12901976D02*
X10394167Y-12940071D01*
X10689405Y-13178167D02*
X10679881Y-13168643D01*
X10660833Y-13140071D01*
X10651310Y-13121024D01*
X10641786Y-13092452D01*
X10632262Y-13044833D01*
X10632262Y-13006738D01*
X10641786Y-12959119D01*
X10651310Y-12930548D01*
X10660833Y-12911500D01*
X10679881Y-12882928D01*
X10689405Y-12873405D01*
X10870357Y-13101976D02*
X10756071Y-13101976D01*
X10813214Y-13101976D02*
X10813214Y-12901976D01*
X10794167Y-12930548D01*
X10775119Y-12949595D01*
X10756071Y-12959119D01*
X10946548Y-12921024D02*
X10956071Y-12911500D01*
X10975119Y-12901976D01*
X11022738Y-12901976D01*
X11041786Y-12911500D01*
X11051310Y-12921024D01*
X11060833Y-12940071D01*
X11060833Y-12959119D01*
X11051310Y-12987690D01*
X10937024Y-13101976D01*
X11060833Y-13101976D01*
X11232262Y-12901976D02*
X11194167Y-12901976D01*
X11175119Y-12911500D01*
X11165595Y-12921024D01*
X11146548Y-12949595D01*
X11137024Y-12987690D01*
X11137024Y-13063881D01*
X11146548Y-13082928D01*
X11156071Y-13092452D01*
X11175119Y-13101976D01*
X11213214Y-13101976D01*
X11232262Y-13092452D01*
X11241786Y-13082928D01*
X11251309Y-13063881D01*
X11251309Y-13016262D01*
X11241786Y-12997214D01*
X11232262Y-12987690D01*
X11213214Y-12978167D01*
X11175119Y-12978167D01*
X11156071Y-12987690D01*
X11146548Y-12997214D01*
X11137024Y-13016262D01*
X11489405Y-13101976D02*
X11489405Y-12901976D01*
X11575119Y-13101976D02*
X11575119Y-12997214D01*
X11565595Y-12978167D01*
X11546548Y-12968643D01*
X11517976Y-12968643D01*
X11498928Y-12978167D01*
X11489405Y-12987690D01*
X11698928Y-13101976D02*
X11679881Y-13092452D01*
X11670357Y-13082928D01*
X11660833Y-13063881D01*
X11660833Y-13006738D01*
X11670357Y-12987690D01*
X11679881Y-12978167D01*
X11698928Y-12968643D01*
X11727500Y-12968643D01*
X11746548Y-12978167D01*
X11756071Y-12987690D01*
X11765595Y-13006738D01*
X11765595Y-13063881D01*
X11756071Y-13082928D01*
X11746548Y-13092452D01*
X11727500Y-13101976D01*
X11698928Y-13101976D01*
X11879881Y-13101976D02*
X11860833Y-13092452D01*
X11851309Y-13073405D01*
X11851309Y-12901976D01*
X12032262Y-13092452D02*
X12013214Y-13101976D01*
X11975119Y-13101976D01*
X11956071Y-13092452D01*
X11946548Y-13073405D01*
X11946548Y-12997214D01*
X11956071Y-12978167D01*
X11975119Y-12968643D01*
X12013214Y-12968643D01*
X12032262Y-12978167D01*
X12041786Y-12997214D01*
X12041786Y-13016262D01*
X11946548Y-13035309D01*
X12117976Y-13092452D02*
X12137024Y-13101976D01*
X12175119Y-13101976D01*
X12194167Y-13092452D01*
X12203690Y-13073405D01*
X12203690Y-13063881D01*
X12194167Y-13044833D01*
X12175119Y-13035309D01*
X12146548Y-13035309D01*
X12127500Y-13025786D01*
X12117976Y-13006738D01*
X12117976Y-12997214D01*
X12127500Y-12978167D01*
X12146548Y-12968643D01*
X12175119Y-12968643D01*
X12194167Y-12978167D01*
X12270357Y-13178167D02*
X12279881Y-13168643D01*
X12298928Y-13140071D01*
X12308452Y-13121024D01*
X12317976Y-13092452D01*
X12327500Y-13044833D01*
X12327500Y-13006738D01*
X12317976Y-12959119D01*
X12308452Y-12930548D01*
X12298928Y-12911500D01*
X12279881Y-12882928D01*
X12270357Y-12873405D01*
D14*
X7087500Y-13245500D02*
X7087500Y-13305500D01*
X7057500Y-13275500D02*
X7117500Y-13275500D01*
D11*
X7413214Y-13165976D02*
X7432262Y-13165976D01*
X7451309Y-13175500D01*
X7460833Y-13185024D01*
X7470357Y-13204071D01*
X7479881Y-13242167D01*
X7479881Y-13289786D01*
X7470357Y-13327881D01*
X7460833Y-13346928D01*
X7451309Y-13356452D01*
X7432262Y-13365976D01*
X7413214Y-13365976D01*
X7394167Y-13356452D01*
X7384643Y-13346928D01*
X7375119Y-13327881D01*
X7365595Y-13289786D01*
X7365595Y-13242167D01*
X7375119Y-13204071D01*
X7384643Y-13185024D01*
X7394167Y-13175500D01*
X7413214Y-13165976D01*
X7565595Y-13346928D02*
X7575119Y-13356452D01*
X7565595Y-13365976D01*
X7556071Y-13356452D01*
X7565595Y-13346928D01*
X7565595Y-13365976D01*
X7746548Y-13165976D02*
X7708452Y-13165976D01*
X7689405Y-13175500D01*
X7679881Y-13185024D01*
X7660833Y-13213595D01*
X7651309Y-13251690D01*
X7651309Y-13327881D01*
X7660833Y-13346928D01*
X7670357Y-13356452D01*
X7689405Y-13365976D01*
X7727500Y-13365976D01*
X7746548Y-13356452D01*
X7756071Y-13346928D01*
X7765595Y-13327881D01*
X7765595Y-13280262D01*
X7756071Y-13261214D01*
X7746548Y-13251690D01*
X7727500Y-13242167D01*
X7689405Y-13242167D01*
X7670357Y-13251690D01*
X7660833Y-13261214D01*
X7651309Y-13280262D01*
X7889405Y-13165976D02*
X7908452Y-13165976D01*
X7927500Y-13175500D01*
X7937024Y-13185024D01*
X7946548Y-13204071D01*
X7956071Y-13242167D01*
X7956071Y-13289786D01*
X7946548Y-13327881D01*
X7937024Y-13346928D01*
X7927500Y-13356452D01*
X7908452Y-13365976D01*
X7889405Y-13365976D01*
X7870357Y-13356452D01*
X7860833Y-13346928D01*
X7851309Y-13327881D01*
X7841786Y-13289786D01*
X7841786Y-13242167D01*
X7851309Y-13204071D01*
X7860833Y-13185024D01*
X7870357Y-13175500D01*
X7889405Y-13165976D01*
X8079881Y-13165976D02*
X8098928Y-13165976D01*
X8117976Y-13175500D01*
X8127500Y-13185024D01*
X8137024Y-13204071D01*
X8146548Y-13242167D01*
X8146548Y-13289786D01*
X8137024Y-13327881D01*
X8127500Y-13346928D01*
X8117976Y-13356452D01*
X8098928Y-13365976D01*
X8079881Y-13365976D01*
X8060833Y-13356452D01*
X8051309Y-13346928D01*
X8041786Y-13327881D01*
X8032262Y-13289786D01*
X8032262Y-13242167D01*
X8041786Y-13204071D01*
X8051309Y-13185024D01*
X8060833Y-13175500D01*
X8079881Y-13165976D01*
X8232262Y-13365976D02*
X8232262Y-13232643D01*
X8232262Y-13251690D02*
X8241786Y-13242167D01*
X8260833Y-13232643D01*
X8289405Y-13232643D01*
X8308452Y-13242167D01*
X8317976Y-13261214D01*
X8317976Y-13365976D01*
X8317976Y-13261214D02*
X8327500Y-13242167D01*
X8346548Y-13232643D01*
X8375119Y-13232643D01*
X8394167Y-13242167D01*
X8403690Y-13261214D01*
X8403690Y-13365976D01*
X8498929Y-13365976D02*
X8498929Y-13232643D01*
X8498929Y-13251690D02*
X8508452Y-13242167D01*
X8527500Y-13232643D01*
X8556071Y-13232643D01*
X8575119Y-13242167D01*
X8584643Y-13261214D01*
X8584643Y-13365976D01*
X8584643Y-13261214D02*
X8594167Y-13242167D01*
X8613214Y-13232643D01*
X8641786Y-13232643D01*
X8660833Y-13242167D01*
X8670357Y-13261214D01*
X8670357Y-13365976D01*
X9060833Y-13156452D02*
X8889405Y-13413595D01*
X9317976Y-13165976D02*
X9337024Y-13165976D01*
X9356071Y-13175500D01*
X9365595Y-13185024D01*
X9375119Y-13204071D01*
X9384643Y-13242167D01*
X9384643Y-13289786D01*
X9375119Y-13327881D01*
X9365595Y-13346928D01*
X9356071Y-13356452D01*
X9337024Y-13365976D01*
X9317976Y-13365976D01*
X9298929Y-13356452D01*
X9289405Y-13346928D01*
X9279881Y-13327881D01*
X9270357Y-13289786D01*
X9270357Y-13242167D01*
X9279881Y-13204071D01*
X9289405Y-13185024D01*
X9298929Y-13175500D01*
X9317976Y-13165976D01*
X9470357Y-13346928D02*
X9479881Y-13356452D01*
X9470357Y-13365976D01*
X9460833Y-13356452D01*
X9470357Y-13346928D01*
X9470357Y-13365976D01*
X9603690Y-13165976D02*
X9622738Y-13165976D01*
X9641786Y-13175500D01*
X9651310Y-13185024D01*
X9660833Y-13204071D01*
X9670357Y-13242167D01*
X9670357Y-13289786D01*
X9660833Y-13327881D01*
X9651310Y-13346928D01*
X9641786Y-13356452D01*
X9622738Y-13365976D01*
X9603690Y-13365976D01*
X9584643Y-13356452D01*
X9575119Y-13346928D01*
X9565595Y-13327881D01*
X9556071Y-13289786D01*
X9556071Y-13242167D01*
X9565595Y-13204071D01*
X9575119Y-13185024D01*
X9584643Y-13175500D01*
X9603690Y-13165976D01*
X9746548Y-13185024D02*
X9756071Y-13175500D01*
X9775119Y-13165976D01*
X9822738Y-13165976D01*
X9841786Y-13175500D01*
X9851310Y-13185024D01*
X9860833Y-13204071D01*
X9860833Y-13223119D01*
X9851310Y-13251690D01*
X9737024Y-13365976D01*
X9860833Y-13365976D01*
X9927500Y-13165976D02*
X10051310Y-13165976D01*
X9984643Y-13242167D01*
X10013214Y-13242167D01*
X10032262Y-13251690D01*
X10041786Y-13261214D01*
X10051310Y-13280262D01*
X10051310Y-13327881D01*
X10041786Y-13346928D01*
X10032262Y-13356452D01*
X10013214Y-13365976D01*
X9956071Y-13365976D01*
X9937024Y-13356452D01*
X9927500Y-13346928D01*
X10222738Y-13165976D02*
X10184643Y-13165976D01*
X10165595Y-13175500D01*
X10156071Y-13185024D01*
X10137024Y-13213595D01*
X10127500Y-13251690D01*
X10127500Y-13327881D01*
X10137024Y-13346928D01*
X10146548Y-13356452D01*
X10165595Y-13365976D01*
X10203690Y-13365976D01*
X10222738Y-13356452D01*
X10232262Y-13346928D01*
X10241786Y-13327881D01*
X10241786Y-13280262D01*
X10232262Y-13261214D01*
X10222738Y-13251690D01*
X10203690Y-13242167D01*
X10165595Y-13242167D01*
X10146548Y-13251690D01*
X10137024Y-13261214D01*
X10127500Y-13280262D01*
X10317976Y-13165976D02*
X10317976Y-13204071D01*
X10394167Y-13165976D02*
X10394167Y-13204071D01*
X10689405Y-13442167D02*
X10679881Y-13432643D01*
X10660833Y-13404071D01*
X10651310Y-13385024D01*
X10641786Y-13356452D01*
X10632262Y-13308833D01*
X10632262Y-13270738D01*
X10641786Y-13223119D01*
X10651310Y-13194548D01*
X10660833Y-13175500D01*
X10679881Y-13146928D01*
X10689405Y-13137405D01*
X10803690Y-13165976D02*
X10822738Y-13165976D01*
X10841786Y-13175500D01*
X10851310Y-13185024D01*
X10860833Y-13204071D01*
X10870357Y-13242167D01*
X10870357Y-13289786D01*
X10860833Y-13327881D01*
X10851310Y-13346928D01*
X10841786Y-13356452D01*
X10822738Y-13365976D01*
X10803690Y-13365976D01*
X10784643Y-13356452D01*
X10775119Y-13346928D01*
X10765595Y-13327881D01*
X10756071Y-13289786D01*
X10756071Y-13242167D01*
X10765595Y-13204071D01*
X10775119Y-13185024D01*
X10784643Y-13175500D01*
X10803690Y-13165976D01*
X11108452Y-13365976D02*
X11108452Y-13165976D01*
X11194167Y-13365976D02*
X11194167Y-13261214D01*
X11184643Y-13242167D01*
X11165595Y-13232643D01*
X11137024Y-13232643D01*
X11117976Y-13242167D01*
X11108452Y-13251690D01*
X11317976Y-13365976D02*
X11298928Y-13356452D01*
X11289405Y-13346928D01*
X11279881Y-13327881D01*
X11279881Y-13270738D01*
X11289405Y-13251690D01*
X11298928Y-13242167D01*
X11317976Y-13232643D01*
X11346548Y-13232643D01*
X11365595Y-13242167D01*
X11375119Y-13251690D01*
X11384643Y-13270738D01*
X11384643Y-13327881D01*
X11375119Y-13346928D01*
X11365595Y-13356452D01*
X11346548Y-13365976D01*
X11317976Y-13365976D01*
X11498928Y-13365976D02*
X11479881Y-13356452D01*
X11470357Y-13337405D01*
X11470357Y-13165976D01*
X11651309Y-13356452D02*
X11632262Y-13365976D01*
X11594167Y-13365976D01*
X11575119Y-13356452D01*
X11565595Y-13337405D01*
X11565595Y-13261214D01*
X11575119Y-13242167D01*
X11594167Y-13232643D01*
X11632262Y-13232643D01*
X11651309Y-13242167D01*
X11660833Y-13261214D01*
X11660833Y-13280262D01*
X11565595Y-13299309D01*
X11737024Y-13356452D02*
X11756071Y-13365976D01*
X11794167Y-13365976D01*
X11813214Y-13356452D01*
X11822738Y-13337405D01*
X11822738Y-13327881D01*
X11813214Y-13308833D01*
X11794167Y-13299309D01*
X11765595Y-13299309D01*
X11746548Y-13289786D01*
X11737024Y-13270738D01*
X11737024Y-13261214D01*
X11746548Y-13242167D01*
X11765595Y-13232643D01*
X11794167Y-13232643D01*
X11813214Y-13242167D01*
X12060833Y-13289786D02*
X12213214Y-13289786D01*
X12137024Y-13365976D02*
X12137024Y-13213595D01*
X12546548Y-13232643D02*
X12546548Y-13365976D01*
X12498928Y-13156452D02*
X12451309Y-13299309D01*
X12575119Y-13299309D01*
X12794167Y-13356452D02*
X12813214Y-13365976D01*
X12851309Y-13365976D01*
X12870357Y-13356452D01*
X12879881Y-13337405D01*
X12879881Y-13327881D01*
X12870357Y-13308833D01*
X12851309Y-13299309D01*
X12822738Y-13299309D01*
X12803690Y-13289786D01*
X12794167Y-13270738D01*
X12794167Y-13261214D01*
X12803690Y-13242167D01*
X12822738Y-13232643D01*
X12851309Y-13232643D01*
X12870357Y-13242167D01*
X12994167Y-13365976D02*
X12975119Y-13356452D01*
X12965595Y-13337405D01*
X12965595Y-13165976D01*
X13098928Y-13365976D02*
X13079881Y-13356452D01*
X13070357Y-13346928D01*
X13060833Y-13327881D01*
X13060833Y-13270738D01*
X13070357Y-13251690D01*
X13079881Y-13242167D01*
X13098928Y-13232643D01*
X13127500Y-13232643D01*
X13146548Y-13242167D01*
X13156071Y-13251690D01*
X13165595Y-13270738D01*
X13165595Y-13327881D01*
X13156071Y-13346928D01*
X13146548Y-13356452D01*
X13127500Y-13365976D01*
X13098928Y-13365976D01*
X13222738Y-13232643D02*
X13298928Y-13232643D01*
X13251309Y-13165976D02*
X13251309Y-13337405D01*
X13260833Y-13356452D01*
X13279881Y-13365976D01*
X13298928Y-13365976D01*
X13356071Y-13356452D02*
X13375119Y-13365976D01*
X13413214Y-13365976D01*
X13432262Y-13356452D01*
X13441786Y-13337405D01*
X13441786Y-13327881D01*
X13432262Y-13308833D01*
X13413214Y-13299309D01*
X13384643Y-13299309D01*
X13365595Y-13289786D01*
X13356071Y-13270738D01*
X13356071Y-13261214D01*
X13365595Y-13242167D01*
X13384643Y-13232643D01*
X13413214Y-13232643D01*
X13432262Y-13242167D01*
X13508452Y-13442167D02*
X13517976Y-13432643D01*
X13537024Y-13404071D01*
X13546548Y-13385024D01*
X13556071Y-13356452D01*
X13565595Y-13308833D01*
X13565595Y-13270738D01*
X13556071Y-13223119D01*
X13546548Y-13194548D01*
X13537024Y-13175500D01*
X13517976Y-13146928D01*
X13508452Y-13137405D01*
D15*
X7105784Y-13567784D02*
X7105784Y-13511215D01*
X7049215Y-13511215D01*
X7049215Y-13567784D01*
X7105784Y-13567784D01*
D11*
X7413214Y-13429976D02*
X7432262Y-13429976D01*
X7451309Y-13439500D01*
X7460833Y-13449024D01*
X7470357Y-13468071D01*
X7479881Y-13506167D01*
X7479881Y-13553786D01*
X7470357Y-13591881D01*
X7460833Y-13610928D01*
X7451309Y-13620452D01*
X7432262Y-13629976D01*
X7413214Y-13629976D01*
X7394167Y-13620452D01*
X7384643Y-13610928D01*
X7375119Y-13591881D01*
X7365595Y-13553786D01*
X7365595Y-13506167D01*
X7375119Y-13468071D01*
X7384643Y-13449024D01*
X7394167Y-13439500D01*
X7413214Y-13429976D01*
X7565595Y-13610928D02*
X7575119Y-13620452D01*
X7565595Y-13629976D01*
X7556071Y-13620452D01*
X7565595Y-13610928D01*
X7565595Y-13629976D01*
X7689405Y-13515690D02*
X7670357Y-13506167D01*
X7660833Y-13496643D01*
X7651309Y-13477595D01*
X7651309Y-13468071D01*
X7660833Y-13449024D01*
X7670357Y-13439500D01*
X7689405Y-13429976D01*
X7727500Y-13429976D01*
X7746548Y-13439500D01*
X7756071Y-13449024D01*
X7765595Y-13468071D01*
X7765595Y-13477595D01*
X7756071Y-13496643D01*
X7746548Y-13506167D01*
X7727500Y-13515690D01*
X7689405Y-13515690D01*
X7670357Y-13525214D01*
X7660833Y-13534738D01*
X7651309Y-13553786D01*
X7651309Y-13591881D01*
X7660833Y-13610928D01*
X7670357Y-13620452D01*
X7689405Y-13629976D01*
X7727500Y-13629976D01*
X7746548Y-13620452D01*
X7756071Y-13610928D01*
X7765595Y-13591881D01*
X7765595Y-13553786D01*
X7756071Y-13534738D01*
X7746548Y-13525214D01*
X7727500Y-13515690D01*
X7889405Y-13429976D02*
X7908452Y-13429976D01*
X7927500Y-13439500D01*
X7937024Y-13449024D01*
X7946548Y-13468071D01*
X7956071Y-13506167D01*
X7956071Y-13553786D01*
X7946548Y-13591881D01*
X7937024Y-13610928D01*
X7927500Y-13620452D01*
X7908452Y-13629976D01*
X7889405Y-13629976D01*
X7870357Y-13620452D01*
X7860833Y-13610928D01*
X7851309Y-13591881D01*
X7841786Y-13553786D01*
X7841786Y-13506167D01*
X7851309Y-13468071D01*
X7860833Y-13449024D01*
X7870357Y-13439500D01*
X7889405Y-13429976D01*
X8079881Y-13429976D02*
X8098928Y-13429976D01*
X8117976Y-13439500D01*
X8127500Y-13449024D01*
X8137024Y-13468071D01*
X8146548Y-13506167D01*
X8146548Y-13553786D01*
X8137024Y-13591881D01*
X8127500Y-13610928D01*
X8117976Y-13620452D01*
X8098928Y-13629976D01*
X8079881Y-13629976D01*
X8060833Y-13620452D01*
X8051309Y-13610928D01*
X8041786Y-13591881D01*
X8032262Y-13553786D01*
X8032262Y-13506167D01*
X8041786Y-13468071D01*
X8051309Y-13449024D01*
X8060833Y-13439500D01*
X8079881Y-13429976D01*
X8232262Y-13629976D02*
X8232262Y-13496643D01*
X8232262Y-13515690D02*
X8241786Y-13506167D01*
X8260833Y-13496643D01*
X8289405Y-13496643D01*
X8308452Y-13506167D01*
X8317976Y-13525214D01*
X8317976Y-13629976D01*
X8317976Y-13525214D02*
X8327500Y-13506167D01*
X8346548Y-13496643D01*
X8375119Y-13496643D01*
X8394167Y-13506167D01*
X8403690Y-13525214D01*
X8403690Y-13629976D01*
X8498929Y-13629976D02*
X8498929Y-13496643D01*
X8498929Y-13515690D02*
X8508452Y-13506167D01*
X8527500Y-13496643D01*
X8556071Y-13496643D01*
X8575119Y-13506167D01*
X8584643Y-13525214D01*
X8584643Y-13629976D01*
X8584643Y-13525214D02*
X8594167Y-13506167D01*
X8613214Y-13496643D01*
X8641786Y-13496643D01*
X8660833Y-13506167D01*
X8670357Y-13525214D01*
X8670357Y-13629976D01*
X9060833Y-13420452D02*
X8889405Y-13677595D01*
X9317976Y-13429976D02*
X9337024Y-13429976D01*
X9356071Y-13439500D01*
X9365595Y-13449024D01*
X9375119Y-13468071D01*
X9384643Y-13506167D01*
X9384643Y-13553786D01*
X9375119Y-13591881D01*
X9365595Y-13610928D01*
X9356071Y-13620452D01*
X9337024Y-13629976D01*
X9317976Y-13629976D01*
X9298929Y-13620452D01*
X9289405Y-13610928D01*
X9279881Y-13591881D01*
X9270357Y-13553786D01*
X9270357Y-13506167D01*
X9279881Y-13468071D01*
X9289405Y-13449024D01*
X9298929Y-13439500D01*
X9317976Y-13429976D01*
X9470357Y-13610928D02*
X9479881Y-13620452D01*
X9470357Y-13629976D01*
X9460833Y-13620452D01*
X9470357Y-13610928D01*
X9470357Y-13629976D01*
X9603690Y-13429976D02*
X9622738Y-13429976D01*
X9641786Y-13439500D01*
X9651310Y-13449024D01*
X9660833Y-13468071D01*
X9670357Y-13506167D01*
X9670357Y-13553786D01*
X9660833Y-13591881D01*
X9651310Y-13610928D01*
X9641786Y-13620452D01*
X9622738Y-13629976D01*
X9603690Y-13629976D01*
X9584643Y-13620452D01*
X9575119Y-13610928D01*
X9565595Y-13591881D01*
X9556071Y-13553786D01*
X9556071Y-13506167D01*
X9565595Y-13468071D01*
X9575119Y-13449024D01*
X9584643Y-13439500D01*
X9603690Y-13429976D01*
X9737024Y-13429976D02*
X9860833Y-13429976D01*
X9794167Y-13506167D01*
X9822738Y-13506167D01*
X9841786Y-13515690D01*
X9851310Y-13525214D01*
X9860833Y-13544262D01*
X9860833Y-13591881D01*
X9851310Y-13610928D01*
X9841786Y-13620452D01*
X9822738Y-13629976D01*
X9765595Y-13629976D01*
X9746548Y-13620452D01*
X9737024Y-13610928D01*
X10051310Y-13629976D02*
X9937024Y-13629976D01*
X9994167Y-13629976D02*
X9994167Y-13429976D01*
X9975119Y-13458548D01*
X9956071Y-13477595D01*
X9937024Y-13487119D01*
X10232262Y-13429976D02*
X10137024Y-13429976D01*
X10127500Y-13525214D01*
X10137024Y-13515690D01*
X10156071Y-13506167D01*
X10203690Y-13506167D01*
X10222738Y-13515690D01*
X10232262Y-13525214D01*
X10241786Y-13544262D01*
X10241786Y-13591881D01*
X10232262Y-13610928D01*
X10222738Y-13620452D01*
X10203690Y-13629976D01*
X10156071Y-13629976D01*
X10137024Y-13620452D01*
X10127500Y-13610928D01*
X10317976Y-13429976D02*
X10317976Y-13468071D01*
X10394167Y-13429976D02*
X10394167Y-13468071D01*
X10689405Y-13706167D02*
X10679881Y-13696643D01*
X10660833Y-13668071D01*
X10651310Y-13649024D01*
X10641786Y-13620452D01*
X10632262Y-13572833D01*
X10632262Y-13534738D01*
X10641786Y-13487119D01*
X10651310Y-13458548D01*
X10660833Y-13439500D01*
X10679881Y-13410928D01*
X10689405Y-13401405D01*
X10851310Y-13429976D02*
X10813214Y-13429976D01*
X10794167Y-13439500D01*
X10784643Y-13449024D01*
X10765595Y-13477595D01*
X10756071Y-13515690D01*
X10756071Y-13591881D01*
X10765595Y-13610928D01*
X10775119Y-13620452D01*
X10794167Y-13629976D01*
X10832262Y-13629976D01*
X10851310Y-13620452D01*
X10860833Y-13610928D01*
X10870357Y-13591881D01*
X10870357Y-13544262D01*
X10860833Y-13525214D01*
X10851310Y-13515690D01*
X10832262Y-13506167D01*
X10794167Y-13506167D01*
X10775119Y-13515690D01*
X10765595Y-13525214D01*
X10756071Y-13544262D01*
X11108452Y-13629976D02*
X11108452Y-13429976D01*
X11194167Y-13629976D02*
X11194167Y-13525214D01*
X11184643Y-13506167D01*
X11165595Y-13496643D01*
X11137024Y-13496643D01*
X11117976Y-13506167D01*
X11108452Y-13515690D01*
X11317976Y-13629976D02*
X11298928Y-13620452D01*
X11289405Y-13610928D01*
X11279881Y-13591881D01*
X11279881Y-13534738D01*
X11289405Y-13515690D01*
X11298928Y-13506167D01*
X11317976Y-13496643D01*
X11346548Y-13496643D01*
X11365595Y-13506167D01*
X11375119Y-13515690D01*
X11384643Y-13534738D01*
X11384643Y-13591881D01*
X11375119Y-13610928D01*
X11365595Y-13620452D01*
X11346548Y-13629976D01*
X11317976Y-13629976D01*
X11498928Y-13629976D02*
X11479881Y-13620452D01*
X11470357Y-13601405D01*
X11470357Y-13429976D01*
X11651309Y-13620452D02*
X11632262Y-13629976D01*
X11594167Y-13629976D01*
X11575119Y-13620452D01*
X11565595Y-13601405D01*
X11565595Y-13525214D01*
X11575119Y-13506167D01*
X11594167Y-13496643D01*
X11632262Y-13496643D01*
X11651309Y-13506167D01*
X11660833Y-13525214D01*
X11660833Y-13544262D01*
X11565595Y-13563309D01*
X11737024Y-13620452D02*
X11756071Y-13629976D01*
X11794167Y-13629976D01*
X11813214Y-13620452D01*
X11822738Y-13601405D01*
X11822738Y-13591881D01*
X11813214Y-13572833D01*
X11794167Y-13563309D01*
X11765595Y-13563309D01*
X11746548Y-13553786D01*
X11737024Y-13534738D01*
X11737024Y-13525214D01*
X11746548Y-13506167D01*
X11765595Y-13496643D01*
X11794167Y-13496643D01*
X11813214Y-13506167D01*
X11889405Y-13706167D02*
X11898928Y-13696643D01*
X11917976Y-13668071D01*
X11927500Y-13649024D01*
X11937024Y-13620452D01*
X11946548Y-13572833D01*
X11946548Y-13534738D01*
X11937024Y-13487119D01*
X11927500Y-13458548D01*
X11917976Y-13439500D01*
X11898928Y-13410928D01*
X11889405Y-13401405D01*
D15*
X7077500Y-13843500D02*
X7117500Y-13803500D01*
X7077500Y-13763500D01*
X7037500Y-13803500D01*
X7077500Y-13843500D01*
D11*
X7413214Y-13693976D02*
X7432262Y-13693976D01*
X7451309Y-13703500D01*
X7460833Y-13713024D01*
X7470357Y-13732071D01*
X7479881Y-13770167D01*
X7479881Y-13817786D01*
X7470357Y-13855881D01*
X7460833Y-13874928D01*
X7451309Y-13884452D01*
X7432262Y-13893976D01*
X7413214Y-13893976D01*
X7394167Y-13884452D01*
X7384643Y-13874928D01*
X7375119Y-13855881D01*
X7365595Y-13817786D01*
X7365595Y-13770167D01*
X7375119Y-13732071D01*
X7384643Y-13713024D01*
X7394167Y-13703500D01*
X7413214Y-13693976D01*
X7565595Y-13874928D02*
X7575119Y-13884452D01*
X7565595Y-13893976D01*
X7556071Y-13884452D01*
X7565595Y-13874928D01*
X7565595Y-13893976D01*
X7689405Y-13779690D02*
X7670357Y-13770167D01*
X7660833Y-13760643D01*
X7651309Y-13741595D01*
X7651309Y-13732071D01*
X7660833Y-13713024D01*
X7670357Y-13703500D01*
X7689405Y-13693976D01*
X7727500Y-13693976D01*
X7746548Y-13703500D01*
X7756071Y-13713024D01*
X7765595Y-13732071D01*
X7765595Y-13741595D01*
X7756071Y-13760643D01*
X7746548Y-13770167D01*
X7727500Y-13779690D01*
X7689405Y-13779690D01*
X7670357Y-13789214D01*
X7660833Y-13798738D01*
X7651309Y-13817786D01*
X7651309Y-13855881D01*
X7660833Y-13874928D01*
X7670357Y-13884452D01*
X7689405Y-13893976D01*
X7727500Y-13893976D01*
X7746548Y-13884452D01*
X7756071Y-13874928D01*
X7765595Y-13855881D01*
X7765595Y-13817786D01*
X7756071Y-13798738D01*
X7746548Y-13789214D01*
X7727500Y-13779690D01*
X7889405Y-13693976D02*
X7908452Y-13693976D01*
X7927500Y-13703500D01*
X7937024Y-13713024D01*
X7946548Y-13732071D01*
X7956071Y-13770167D01*
X7956071Y-13817786D01*
X7946548Y-13855881D01*
X7937024Y-13874928D01*
X7927500Y-13884452D01*
X7908452Y-13893976D01*
X7889405Y-13893976D01*
X7870357Y-13884452D01*
X7860833Y-13874928D01*
X7851309Y-13855881D01*
X7841786Y-13817786D01*
X7841786Y-13770167D01*
X7851309Y-13732071D01*
X7860833Y-13713024D01*
X7870357Y-13703500D01*
X7889405Y-13693976D01*
X8079881Y-13693976D02*
X8098928Y-13693976D01*
X8117976Y-13703500D01*
X8127500Y-13713024D01*
X8137024Y-13732071D01*
X8146548Y-13770167D01*
X8146548Y-13817786D01*
X8137024Y-13855881D01*
X8127500Y-13874928D01*
X8117976Y-13884452D01*
X8098928Y-13893976D01*
X8079881Y-13893976D01*
X8060833Y-13884452D01*
X8051309Y-13874928D01*
X8041786Y-13855881D01*
X8032262Y-13817786D01*
X8032262Y-13770167D01*
X8041786Y-13732071D01*
X8051309Y-13713024D01*
X8060833Y-13703500D01*
X8079881Y-13693976D01*
X8232262Y-13893976D02*
X8232262Y-13760643D01*
X8232262Y-13779690D02*
X8241786Y-13770167D01*
X8260833Y-13760643D01*
X8289405Y-13760643D01*
X8308452Y-13770167D01*
X8317976Y-13789214D01*
X8317976Y-13893976D01*
X8317976Y-13789214D02*
X8327500Y-13770167D01*
X8346548Y-13760643D01*
X8375119Y-13760643D01*
X8394167Y-13770167D01*
X8403690Y-13789214D01*
X8403690Y-13893976D01*
X8498929Y-13893976D02*
X8498929Y-13760643D01*
X8498929Y-13779690D02*
X8508452Y-13770167D01*
X8527500Y-13760643D01*
X8556071Y-13760643D01*
X8575119Y-13770167D01*
X8584643Y-13789214D01*
X8584643Y-13893976D01*
X8584643Y-13789214D02*
X8594167Y-13770167D01*
X8613214Y-13760643D01*
X8641786Y-13760643D01*
X8660833Y-13770167D01*
X8670357Y-13789214D01*
X8670357Y-13893976D01*
X9060833Y-13684452D02*
X8889405Y-13941595D01*
X9317976Y-13693976D02*
X9337024Y-13693976D01*
X9356071Y-13703500D01*
X9365595Y-13713024D01*
X9375119Y-13732071D01*
X9384643Y-13770167D01*
X9384643Y-13817786D01*
X9375119Y-13855881D01*
X9365595Y-13874928D01*
X9356071Y-13884452D01*
X9337024Y-13893976D01*
X9317976Y-13893976D01*
X9298929Y-13884452D01*
X9289405Y-13874928D01*
X9279881Y-13855881D01*
X9270357Y-13817786D01*
X9270357Y-13770167D01*
X9279881Y-13732071D01*
X9289405Y-13713024D01*
X9298929Y-13703500D01*
X9317976Y-13693976D01*
X9470357Y-13874928D02*
X9479881Y-13884452D01*
X9470357Y-13893976D01*
X9460833Y-13884452D01*
X9470357Y-13874928D01*
X9470357Y-13893976D01*
X9603690Y-13693976D02*
X9622738Y-13693976D01*
X9641786Y-13703500D01*
X9651310Y-13713024D01*
X9660833Y-13732071D01*
X9670357Y-13770167D01*
X9670357Y-13817786D01*
X9660833Y-13855881D01*
X9651310Y-13874928D01*
X9641786Y-13884452D01*
X9622738Y-13893976D01*
X9603690Y-13893976D01*
X9584643Y-13884452D01*
X9575119Y-13874928D01*
X9565595Y-13855881D01*
X9556071Y-13817786D01*
X9556071Y-13770167D01*
X9565595Y-13732071D01*
X9575119Y-13713024D01*
X9584643Y-13703500D01*
X9603690Y-13693976D01*
X9737024Y-13693976D02*
X9860833Y-13693976D01*
X9794167Y-13770167D01*
X9822738Y-13770167D01*
X9841786Y-13779690D01*
X9851310Y-13789214D01*
X9860833Y-13808262D01*
X9860833Y-13855881D01*
X9851310Y-13874928D01*
X9841786Y-13884452D01*
X9822738Y-13893976D01*
X9765595Y-13893976D01*
X9746548Y-13884452D01*
X9737024Y-13874928D01*
X10051310Y-13893976D02*
X9937024Y-13893976D01*
X9994167Y-13893976D02*
X9994167Y-13693976D01*
X9975119Y-13722548D01*
X9956071Y-13741595D01*
X9937024Y-13751119D01*
X10232262Y-13693976D02*
X10137024Y-13693976D01*
X10127500Y-13789214D01*
X10137024Y-13779690D01*
X10156071Y-13770167D01*
X10203690Y-13770167D01*
X10222738Y-13779690D01*
X10232262Y-13789214D01*
X10241786Y-13808262D01*
X10241786Y-13855881D01*
X10232262Y-13874928D01*
X10222738Y-13884452D01*
X10203690Y-13893976D01*
X10156071Y-13893976D01*
X10137024Y-13884452D01*
X10127500Y-13874928D01*
X10317976Y-13693976D02*
X10317976Y-13732071D01*
X10394167Y-13693976D02*
X10394167Y-13732071D01*
X10689405Y-13970167D02*
X10679881Y-13960643D01*
X10660833Y-13932071D01*
X10651310Y-13913024D01*
X10641786Y-13884452D01*
X10632262Y-13836833D01*
X10632262Y-13798738D01*
X10641786Y-13751119D01*
X10651310Y-13722548D01*
X10660833Y-13703500D01*
X10679881Y-13674928D01*
X10689405Y-13665405D01*
X10756071Y-13713024D02*
X10765595Y-13703500D01*
X10784643Y-13693976D01*
X10832262Y-13693976D01*
X10851310Y-13703500D01*
X10860833Y-13713024D01*
X10870357Y-13732071D01*
X10870357Y-13751119D01*
X10860833Y-13779690D01*
X10746548Y-13893976D01*
X10870357Y-13893976D01*
X11108452Y-13893976D02*
X11108452Y-13693976D01*
X11194167Y-13893976D02*
X11194167Y-13789214D01*
X11184643Y-13770167D01*
X11165595Y-13760643D01*
X11137024Y-13760643D01*
X11117976Y-13770167D01*
X11108452Y-13779690D01*
X11317976Y-13893976D02*
X11298928Y-13884452D01*
X11289405Y-13874928D01*
X11279881Y-13855881D01*
X11279881Y-13798738D01*
X11289405Y-13779690D01*
X11298928Y-13770167D01*
X11317976Y-13760643D01*
X11346548Y-13760643D01*
X11365595Y-13770167D01*
X11375119Y-13779690D01*
X11384643Y-13798738D01*
X11384643Y-13855881D01*
X11375119Y-13874928D01*
X11365595Y-13884452D01*
X11346548Y-13893976D01*
X11317976Y-13893976D01*
X11498928Y-13893976D02*
X11479881Y-13884452D01*
X11470357Y-13865405D01*
X11470357Y-13693976D01*
X11651309Y-13884452D02*
X11632262Y-13893976D01*
X11594167Y-13893976D01*
X11575119Y-13884452D01*
X11565595Y-13865405D01*
X11565595Y-13789214D01*
X11575119Y-13770167D01*
X11594167Y-13760643D01*
X11632262Y-13760643D01*
X11651309Y-13770167D01*
X11660833Y-13789214D01*
X11660833Y-13808262D01*
X11565595Y-13827309D01*
X11737024Y-13884452D02*
X11756071Y-13893976D01*
X11794167Y-13893976D01*
X11813214Y-13884452D01*
X11822738Y-13865405D01*
X11822738Y-13855881D01*
X11813214Y-13836833D01*
X11794167Y-13827309D01*
X11765595Y-13827309D01*
X11746548Y-13817786D01*
X11737024Y-13798738D01*
X11737024Y-13789214D01*
X11746548Y-13770167D01*
X11765595Y-13760643D01*
X11794167Y-13760643D01*
X11813214Y-13770167D01*
X11889405Y-13970167D02*
X11898928Y-13960643D01*
X11917976Y-13932071D01*
X11927500Y-13913024D01*
X11937024Y-13884452D01*
X11946548Y-13836833D01*
X11946548Y-13798738D01*
X11937024Y-13751119D01*
X11927500Y-13722548D01*
X11917976Y-13703500D01*
X11898928Y-13674928D01*
X11889405Y-13665405D01*
D16*
X7017500Y-14017500D02*
X7117500Y-14117500D01*
X7117500Y-14017500D02*
X7017500Y-14117500D01*
X7117500Y-14067500D02*
G75*
G03*
X7117500Y-14067500I-50000J0D01*
G01*
D11*
X7479881Y-14157976D02*
X7365595Y-14157976D01*
X7422738Y-14157976D02*
X7422738Y-13957976D01*
X7403690Y-13986548D01*
X7384643Y-14005595D01*
X7365595Y-14015119D01*
X7565595Y-14138928D02*
X7575119Y-14148452D01*
X7565595Y-14157976D01*
X7556071Y-14148452D01*
X7565595Y-14138928D01*
X7565595Y-14157976D01*
X7698928Y-13957976D02*
X7717976Y-13957976D01*
X7737024Y-13967500D01*
X7746548Y-13977024D01*
X7756071Y-13996071D01*
X7765595Y-14034167D01*
X7765595Y-14081786D01*
X7756071Y-14119881D01*
X7746548Y-14138928D01*
X7737024Y-14148452D01*
X7717976Y-14157976D01*
X7698928Y-14157976D01*
X7679881Y-14148452D01*
X7670357Y-14138928D01*
X7660833Y-14119881D01*
X7651309Y-14081786D01*
X7651309Y-14034167D01*
X7660833Y-13996071D01*
X7670357Y-13977024D01*
X7679881Y-13967500D01*
X7698928Y-13957976D01*
X7889405Y-13957976D02*
X7908452Y-13957976D01*
X7927500Y-13967500D01*
X7937024Y-13977024D01*
X7946548Y-13996071D01*
X7956071Y-14034167D01*
X7956071Y-14081786D01*
X7946548Y-14119881D01*
X7937024Y-14138928D01*
X7927500Y-14148452D01*
X7908452Y-14157976D01*
X7889405Y-14157976D01*
X7870357Y-14148452D01*
X7860833Y-14138928D01*
X7851309Y-14119881D01*
X7841786Y-14081786D01*
X7841786Y-14034167D01*
X7851309Y-13996071D01*
X7860833Y-13977024D01*
X7870357Y-13967500D01*
X7889405Y-13957976D01*
X8079881Y-13957976D02*
X8098928Y-13957976D01*
X8117976Y-13967500D01*
X8127500Y-13977024D01*
X8137024Y-13996071D01*
X8146548Y-14034167D01*
X8146548Y-14081786D01*
X8137024Y-14119881D01*
X8127500Y-14138928D01*
X8117976Y-14148452D01*
X8098928Y-14157976D01*
X8079881Y-14157976D01*
X8060833Y-14148452D01*
X8051309Y-14138928D01*
X8041786Y-14119881D01*
X8032262Y-14081786D01*
X8032262Y-14034167D01*
X8041786Y-13996071D01*
X8051309Y-13977024D01*
X8060833Y-13967500D01*
X8079881Y-13957976D01*
X8232262Y-14157976D02*
X8232262Y-14024643D01*
X8232262Y-14043690D02*
X8241786Y-14034167D01*
X8260833Y-14024643D01*
X8289405Y-14024643D01*
X8308452Y-14034167D01*
X8317976Y-14053214D01*
X8317976Y-14157976D01*
X8317976Y-14053214D02*
X8327500Y-14034167D01*
X8346548Y-14024643D01*
X8375119Y-14024643D01*
X8394167Y-14034167D01*
X8403690Y-14053214D01*
X8403690Y-14157976D01*
X8498929Y-14157976D02*
X8498929Y-14024643D01*
X8498929Y-14043690D02*
X8508452Y-14034167D01*
X8527500Y-14024643D01*
X8556071Y-14024643D01*
X8575119Y-14034167D01*
X8584643Y-14053214D01*
X8584643Y-14157976D01*
X8584643Y-14053214D02*
X8594167Y-14034167D01*
X8613214Y-14024643D01*
X8641786Y-14024643D01*
X8660833Y-14034167D01*
X8670357Y-14053214D01*
X8670357Y-14157976D01*
X9060833Y-13948452D02*
X8889405Y-14205595D01*
X9317976Y-13957976D02*
X9337024Y-13957976D01*
X9356071Y-13967500D01*
X9365595Y-13977024D01*
X9375119Y-13996071D01*
X9384643Y-14034167D01*
X9384643Y-14081786D01*
X9375119Y-14119881D01*
X9365595Y-14138928D01*
X9356071Y-14148452D01*
X9337024Y-14157976D01*
X9317976Y-14157976D01*
X9298929Y-14148452D01*
X9289405Y-14138928D01*
X9279881Y-14119881D01*
X9270357Y-14081786D01*
X9270357Y-14034167D01*
X9279881Y-13996071D01*
X9289405Y-13977024D01*
X9298929Y-13967500D01*
X9317976Y-13957976D01*
X9470357Y-14138928D02*
X9479881Y-14148452D01*
X9470357Y-14157976D01*
X9460833Y-14148452D01*
X9470357Y-14138928D01*
X9470357Y-14157976D01*
X9603690Y-13957976D02*
X9622738Y-13957976D01*
X9641786Y-13967500D01*
X9651310Y-13977024D01*
X9660833Y-13996071D01*
X9670357Y-14034167D01*
X9670357Y-14081786D01*
X9660833Y-14119881D01*
X9651310Y-14138928D01*
X9641786Y-14148452D01*
X9622738Y-14157976D01*
X9603690Y-14157976D01*
X9584643Y-14148452D01*
X9575119Y-14138928D01*
X9565595Y-14119881D01*
X9556071Y-14081786D01*
X9556071Y-14034167D01*
X9565595Y-13996071D01*
X9575119Y-13977024D01*
X9584643Y-13967500D01*
X9603690Y-13957976D01*
X9737024Y-13957976D02*
X9860833Y-13957976D01*
X9794167Y-14034167D01*
X9822738Y-14034167D01*
X9841786Y-14043690D01*
X9851310Y-14053214D01*
X9860833Y-14072262D01*
X9860833Y-14119881D01*
X9851310Y-14138928D01*
X9841786Y-14148452D01*
X9822738Y-14157976D01*
X9765595Y-14157976D01*
X9746548Y-14148452D01*
X9737024Y-14138928D01*
X9956071Y-14157976D02*
X9994167Y-14157976D01*
X10013214Y-14148452D01*
X10022738Y-14138928D01*
X10041786Y-14110357D01*
X10051310Y-14072262D01*
X10051310Y-13996071D01*
X10041786Y-13977024D01*
X10032262Y-13967500D01*
X10013214Y-13957976D01*
X9975119Y-13957976D01*
X9956071Y-13967500D01*
X9946548Y-13977024D01*
X9937024Y-13996071D01*
X9937024Y-14043690D01*
X9946548Y-14062738D01*
X9956071Y-14072262D01*
X9975119Y-14081786D01*
X10013214Y-14081786D01*
X10032262Y-14072262D01*
X10041786Y-14062738D01*
X10051310Y-14043690D01*
X10222738Y-14024643D02*
X10222738Y-14157976D01*
X10175119Y-13948452D02*
X10127500Y-14091309D01*
X10251310Y-14091309D01*
X10317976Y-13957976D02*
X10317976Y-13996071D01*
X10394167Y-13957976D02*
X10394167Y-13996071D01*
X10689405Y-14234167D02*
X10679881Y-14224643D01*
X10660833Y-14196071D01*
X10651310Y-14177024D01*
X10641786Y-14148452D01*
X10632262Y-14100833D01*
X10632262Y-14062738D01*
X10641786Y-14015119D01*
X10651310Y-13986548D01*
X10660833Y-13967500D01*
X10679881Y-13938928D01*
X10689405Y-13929405D01*
X10860833Y-13957976D02*
X10765595Y-13957976D01*
X10756071Y-14053214D01*
X10765595Y-14043690D01*
X10784643Y-14034167D01*
X10832262Y-14034167D01*
X10851310Y-14043690D01*
X10860833Y-14053214D01*
X10870357Y-14072262D01*
X10870357Y-14119881D01*
X10860833Y-14138928D01*
X10851310Y-14148452D01*
X10832262Y-14157976D01*
X10784643Y-14157976D01*
X10765595Y-14148452D01*
X10756071Y-14138928D01*
X11108452Y-14157976D02*
X11108452Y-13957976D01*
X11194167Y-14157976D02*
X11194167Y-14053214D01*
X11184643Y-14034167D01*
X11165595Y-14024643D01*
X11137024Y-14024643D01*
X11117976Y-14034167D01*
X11108452Y-14043690D01*
X11317976Y-14157976D02*
X11298928Y-14148452D01*
X11289405Y-14138928D01*
X11279881Y-14119881D01*
X11279881Y-14062738D01*
X11289405Y-14043690D01*
X11298928Y-14034167D01*
X11317976Y-14024643D01*
X11346548Y-14024643D01*
X11365595Y-14034167D01*
X11375119Y-14043690D01*
X11384643Y-14062738D01*
X11384643Y-14119881D01*
X11375119Y-14138928D01*
X11365595Y-14148452D01*
X11346548Y-14157976D01*
X11317976Y-14157976D01*
X11498928Y-14157976D02*
X11479881Y-14148452D01*
X11470357Y-14129405D01*
X11470357Y-13957976D01*
X11651309Y-14148452D02*
X11632262Y-14157976D01*
X11594167Y-14157976D01*
X11575119Y-14148452D01*
X11565595Y-14129405D01*
X11565595Y-14053214D01*
X11575119Y-14034167D01*
X11594167Y-14024643D01*
X11632262Y-14024643D01*
X11651309Y-14034167D01*
X11660833Y-14053214D01*
X11660833Y-14072262D01*
X11565595Y-14091309D01*
X11737024Y-14148452D02*
X11756071Y-14157976D01*
X11794167Y-14157976D01*
X11813214Y-14148452D01*
X11822738Y-14129405D01*
X11822738Y-14119881D01*
X11813214Y-14100833D01*
X11794167Y-14091309D01*
X11765595Y-14091309D01*
X11746548Y-14081786D01*
X11737024Y-14062738D01*
X11737024Y-14053214D01*
X11746548Y-14034167D01*
X11765595Y-14024643D01*
X11794167Y-14024643D01*
X11813214Y-14034167D01*
X11889405Y-14234167D02*
X11898928Y-14224643D01*
X11917976Y-14196071D01*
X11927500Y-14177024D01*
X11937024Y-14148452D01*
X11946548Y-14100833D01*
X11946548Y-14062738D01*
X11937024Y-14015119D01*
X11927500Y-13986548D01*
X11917976Y-13967500D01*
X11898928Y-13938928D01*
X11889405Y-13929405D01*
M02*
