G04 #@! TF.GenerationSoftware,KiCad,Pcbnew,6.0.11+dfsg-1~bpo11+1*
G04 #@! TF.CreationDate,2023-04-01T23:07:15-07:00*
G04 #@! TF.ProjectId,gbpunk,67627075-6e6b-42e6-9b69-6361645f7063,v4.0*
G04 #@! TF.SameCoordinates,Original*
G04 #@! TF.FileFunction,Paste,Top*
G04 #@! TF.FilePolarity,Positive*
%FSLAX46Y46*%
G04 Gerber Fmt 4.6, Leading zero omitted, Abs format (unit mm)*
G04 Created by KiCad (PCBNEW 6.0.11+dfsg-1~bpo11+1) date 2023-04-01 23:07:15*
%MOMM*%
%LPD*%
G01*
G04 APERTURE LIST*
G04 Aperture macros list*
%AMRoundRect*
0 Rectangle with rounded corners*
0 $1 Rounding radius*
0 $2 $3 $4 $5 $6 $7 $8 $9 X,Y pos of 4 corners*
0 Add a 4 corners polygon primitive as box body*
4,1,4,$2,$3,$4,$5,$6,$7,$8,$9,$2,$3,0*
0 Add four circle primitives for the rounded corners*
1,1,$1+$1,$2,$3*
1,1,$1+$1,$4,$5*
1,1,$1+$1,$6,$7*
1,1,$1+$1,$8,$9*
0 Add four rect primitives between the rounded corners*
20,1,$1+$1,$2,$3,$4,$5,0*
20,1,$1+$1,$4,$5,$6,$7,0*
20,1,$1+$1,$6,$7,$8,$9,0*
20,1,$1+$1,$8,$9,$2,$3,0*%
G04 Aperture macros list end*
%ADD10RoundRect,0.155000X0.155000X-0.212500X0.155000X0.212500X-0.155000X0.212500X-0.155000X-0.212500X0*%
%ADD11RoundRect,0.100000X0.100000X-0.637500X0.100000X0.637500X-0.100000X0.637500X-0.100000X-0.637500X0*%
%ADD12RoundRect,0.155000X0.040659X0.259862X-0.259862X-0.040659X-0.040659X-0.259862X0.259862X0.040659X0*%
%ADD13RoundRect,0.155000X-0.212500X-0.155000X0.212500X-0.155000X0.212500X0.155000X-0.212500X0.155000X0*%
%ADD14RoundRect,0.160000X0.197500X0.160000X-0.197500X0.160000X-0.197500X-0.160000X0.197500X-0.160000X0*%
%ADD15RoundRect,0.237500X-0.237500X0.250000X-0.237500X-0.250000X0.237500X-0.250000X0.237500X0.250000X0*%
%ADD16RoundRect,0.237500X0.250000X0.237500X-0.250000X0.237500X-0.250000X-0.237500X0.250000X-0.237500X0*%
%ADD17RoundRect,0.250000X-0.412500X-0.650000X0.412500X-0.650000X0.412500X0.650000X-0.412500X0.650000X0*%
%ADD18RoundRect,0.250000X0.475000X-0.337500X0.475000X0.337500X-0.475000X0.337500X-0.475000X-0.337500X0*%
%ADD19R,0.740000X2.400000*%
%ADD20R,2.750000X1.000000*%
%ADD21R,0.600000X1.450000*%
%ADD22R,0.300000X1.450000*%
%ADD23RoundRect,0.155000X0.212500X0.155000X-0.212500X0.155000X-0.212500X-0.155000X0.212500X-0.155000X0*%
%ADD24RoundRect,0.155000X-0.155000X0.212500X-0.155000X-0.212500X0.155000X-0.212500X0.155000X0.212500X0*%
%ADD25RoundRect,0.155000X-0.259862X0.040659X0.040659X-0.259862X0.259862X-0.040659X-0.040659X0.259862X0*%
%ADD26RoundRect,0.160000X-0.197500X-0.160000X0.197500X-0.160000X0.197500X0.160000X-0.197500X0.160000X0*%
%ADD27RoundRect,0.150000X-0.650000X-0.150000X0.650000X-0.150000X0.650000X0.150000X-0.650000X0.150000X0*%
%ADD28R,2.000000X1.500000*%
%ADD29R,2.000000X3.800000*%
%ADD30RoundRect,0.160000X-0.160000X0.197500X-0.160000X-0.197500X0.160000X-0.197500X0.160000X0.197500X0*%
%ADD31RoundRect,0.250000X-0.292217X-0.292217X0.292217X-0.292217X0.292217X0.292217X-0.292217X0.292217X0*%
%ADD32RoundRect,0.050000X-0.387500X-0.050000X0.387500X-0.050000X0.387500X0.050000X-0.387500X0.050000X0*%
%ADD33RoundRect,0.050000X-0.050000X-0.387500X0.050000X-0.387500X0.050000X0.387500X-0.050000X0.387500X0*%
%ADD34RoundRect,0.237500X0.287500X0.237500X-0.287500X0.237500X-0.287500X-0.237500X0.287500X-0.237500X0*%
%ADD35RoundRect,0.250001X0.462499X0.624999X-0.462499X0.624999X-0.462499X-0.624999X0.462499X-0.624999X0*%
%ADD36RoundRect,0.237500X-0.250000X-0.237500X0.250000X-0.237500X0.250000X0.237500X-0.250000X0.237500X0*%
%ADD37RoundRect,0.237500X0.237500X-0.250000X0.237500X0.250000X-0.237500X0.250000X-0.237500X-0.250000X0*%
%ADD38RoundRect,0.250000X-0.650000X0.412500X-0.650000X-0.412500X0.650000X-0.412500X0.650000X0.412500X0*%
G04 APERTURE END LIST*
D10*
X102040000Y-65067500D03*
X102040000Y-63932500D03*
X96500000Y-65067500D03*
X96500000Y-63932500D03*
D11*
X116425000Y-87862500D03*
X117075000Y-87862500D03*
X117725000Y-87862500D03*
X118375000Y-87862500D03*
X119025000Y-87862500D03*
X119675000Y-87862500D03*
X120325000Y-87862500D03*
X120975000Y-87862500D03*
X121625000Y-87862500D03*
X122275000Y-87862500D03*
X122925000Y-87862500D03*
X123575000Y-87862500D03*
X123575000Y-82137500D03*
X122925000Y-82137500D03*
X122275000Y-82137500D03*
X121625000Y-82137500D03*
X120975000Y-82137500D03*
X120325000Y-82137500D03*
X119675000Y-82137500D03*
X119025000Y-82137500D03*
X118375000Y-82137500D03*
X117725000Y-82137500D03*
X117075000Y-82137500D03*
X116425000Y-82137500D03*
D12*
X93681283Y-73628717D03*
X92878717Y-74431283D03*
D13*
X104432500Y-67500000D03*
X105567500Y-67500000D03*
X84432500Y-65500000D03*
X85567500Y-65500000D03*
D14*
X94060000Y-67000000D03*
X92865000Y-67000000D03*
D15*
X115000000Y-84087500D03*
X115000000Y-85912500D03*
D16*
X103412500Y-90000000D03*
X101587500Y-90000000D03*
D17*
X94437500Y-50000000D03*
X97562500Y-50000000D03*
D18*
X93000000Y-65037500D03*
X93000000Y-62962500D03*
D15*
X103500000Y-63087500D03*
X103500000Y-64912500D03*
D19*
X110960000Y-47950000D03*
X110960000Y-44050000D03*
X112230000Y-47950000D03*
X112230000Y-44050000D03*
X113500000Y-47950000D03*
X113500000Y-44050000D03*
X114770000Y-47950000D03*
X114770000Y-44050000D03*
X116040000Y-47950000D03*
X116040000Y-44050000D03*
D14*
X78597500Y-65500000D03*
X77402500Y-65500000D03*
D15*
X105500000Y-63087500D03*
X105500000Y-64912500D03*
D20*
X79620000Y-54500000D03*
X85380000Y-54500000D03*
X85380000Y-58500000D03*
X79620000Y-58500000D03*
D21*
X83430000Y-46065000D03*
X82630000Y-46065000D03*
D22*
X81430000Y-46065000D03*
X80430000Y-46065000D03*
X79930000Y-46065000D03*
X78930000Y-46065000D03*
D21*
X77730000Y-46065000D03*
X76930000Y-46065000D03*
X76930000Y-46065000D03*
X77730000Y-46065000D03*
D22*
X78430000Y-46065000D03*
X79430000Y-46065000D03*
X80930000Y-46065000D03*
X81930000Y-46065000D03*
D21*
X82630000Y-46065000D03*
X83430000Y-46065000D03*
D23*
X113027500Y-67410000D03*
X111892500Y-67410000D03*
D15*
X86000000Y-84087500D03*
X86000000Y-85912500D03*
D24*
X99000000Y-76432500D03*
X99000000Y-77567500D03*
D11*
X105425000Y-87862500D03*
X106075000Y-87862500D03*
X106725000Y-87862500D03*
X107375000Y-87862500D03*
X108025000Y-87862500D03*
X108675000Y-87862500D03*
X109325000Y-87862500D03*
X109975000Y-87862500D03*
X110625000Y-87862500D03*
X111275000Y-87862500D03*
X111925000Y-87862500D03*
X112575000Y-87862500D03*
X112575000Y-82137500D03*
X111925000Y-82137500D03*
X111275000Y-82137500D03*
X110625000Y-82137500D03*
X109975000Y-82137500D03*
X109325000Y-82137500D03*
X108675000Y-82137500D03*
X108025000Y-82137500D03*
X107375000Y-82137500D03*
X106725000Y-82137500D03*
X106075000Y-82137500D03*
X105425000Y-82137500D03*
D25*
X105098717Y-74598717D03*
X105901283Y-75401283D03*
D26*
X86912500Y-47100000D03*
X88107500Y-47100000D03*
X86912500Y-48130000D03*
X88107500Y-48130000D03*
D27*
X77900000Y-67095000D03*
X77900000Y-68365000D03*
X77900000Y-69635000D03*
X77900000Y-70905000D03*
X85100000Y-70905000D03*
X85100000Y-69635000D03*
X85100000Y-68365000D03*
X85100000Y-67095000D03*
D16*
X104722500Y-80360000D03*
X102897500Y-80360000D03*
D15*
X114990000Y-87497500D03*
X114990000Y-89322500D03*
D20*
X115620000Y-54500000D03*
X121380000Y-54500000D03*
X115620000Y-58500000D03*
X121380000Y-58500000D03*
D10*
X98000000Y-65067500D03*
X98000000Y-63932500D03*
D28*
X94850000Y-42700000D03*
X94850000Y-45000000D03*
D29*
X101150000Y-45000000D03*
D28*
X94850000Y-47300000D03*
D11*
X76425000Y-87862500D03*
X77075000Y-87862500D03*
X77725000Y-87862500D03*
X78375000Y-87862500D03*
X79025000Y-87862500D03*
X79675000Y-87862500D03*
X80325000Y-87862500D03*
X80975000Y-87862500D03*
X81625000Y-87862500D03*
X82275000Y-87862500D03*
X82925000Y-87862500D03*
X83575000Y-87862500D03*
X83575000Y-82137500D03*
X82925000Y-82137500D03*
X82275000Y-82137500D03*
X81625000Y-82137500D03*
X80975000Y-82137500D03*
X80325000Y-82137500D03*
X79675000Y-82137500D03*
X79025000Y-82137500D03*
X78375000Y-82137500D03*
X77725000Y-82137500D03*
X77075000Y-82137500D03*
X76425000Y-82137500D03*
D16*
X77040000Y-90500000D03*
X75215000Y-90500000D03*
D11*
X87425000Y-87862500D03*
X88075000Y-87862500D03*
X88725000Y-87862500D03*
X89375000Y-87862500D03*
X90025000Y-87862500D03*
X90675000Y-87862500D03*
X91325000Y-87862500D03*
X91975000Y-87862500D03*
X92625000Y-87862500D03*
X93275000Y-87862500D03*
X93925000Y-87862500D03*
X94575000Y-87862500D03*
X94575000Y-82137500D03*
X93925000Y-82137500D03*
X93275000Y-82137500D03*
X92625000Y-82137500D03*
X91975000Y-82137500D03*
X91325000Y-82137500D03*
X90675000Y-82137500D03*
X90025000Y-82137500D03*
X89375000Y-82137500D03*
X88725000Y-82137500D03*
X88075000Y-82137500D03*
X87425000Y-82137500D03*
D30*
X122000000Y-60402500D03*
X122000000Y-61597500D03*
D31*
X98862500Y-71637500D03*
X98862500Y-70362500D03*
X100137500Y-70362500D03*
X100137500Y-71637500D03*
D32*
X96062500Y-68400000D03*
X96062500Y-68800000D03*
X96062500Y-69200000D03*
X96062500Y-69600000D03*
X96062500Y-70000000D03*
X96062500Y-70400000D03*
X96062500Y-70800000D03*
X96062500Y-71200000D03*
X96062500Y-71600000D03*
X96062500Y-72000000D03*
X96062500Y-72400000D03*
X96062500Y-72800000D03*
X96062500Y-73200000D03*
X96062500Y-73600000D03*
D33*
X96900000Y-74437500D03*
X97300000Y-74437500D03*
X97700000Y-74437500D03*
X98100000Y-74437500D03*
X98500000Y-74437500D03*
X98900000Y-74437500D03*
X99300000Y-74437500D03*
X99700000Y-74437500D03*
X100100000Y-74437500D03*
X100500000Y-74437500D03*
X100900000Y-74437500D03*
X101300000Y-74437500D03*
X101700000Y-74437500D03*
X102100000Y-74437500D03*
D32*
X102937500Y-73600000D03*
X102937500Y-73200000D03*
X102937500Y-72800000D03*
X102937500Y-72400000D03*
X102937500Y-72000000D03*
X102937500Y-71600000D03*
X102937500Y-71200000D03*
X102937500Y-70800000D03*
X102937500Y-70400000D03*
X102937500Y-70000000D03*
X102937500Y-69600000D03*
X102937500Y-69200000D03*
X102937500Y-68800000D03*
X102937500Y-68400000D03*
D33*
X102100000Y-67562500D03*
X101700000Y-67562500D03*
X101300000Y-67562500D03*
X100900000Y-67562500D03*
X100500000Y-67562500D03*
X100100000Y-67562500D03*
X99700000Y-67562500D03*
X99300000Y-67562500D03*
X98900000Y-67562500D03*
X98500000Y-67562500D03*
X98100000Y-67562500D03*
X97700000Y-67562500D03*
X97300000Y-67562500D03*
X96900000Y-67562500D03*
D16*
X87912500Y-90000000D03*
X86087500Y-90000000D03*
D13*
X111892500Y-64910000D03*
X113027500Y-64910000D03*
D23*
X94067500Y-68000000D03*
X92932500Y-68000000D03*
D34*
X88845000Y-40240000D03*
X87095000Y-40240000D03*
D35*
X88077500Y-50070000D03*
X85102500Y-50070000D03*
D24*
X100000000Y-76932500D03*
X100000000Y-78067500D03*
D14*
X113057500Y-68410000D03*
X111862500Y-68410000D03*
D10*
X95000000Y-65067500D03*
X95000000Y-63932500D03*
D18*
X100000000Y-65037500D03*
X100000000Y-62962500D03*
D36*
X91402500Y-40200000D03*
X93227500Y-40200000D03*
D37*
X77500000Y-78412500D03*
X77500000Y-76587500D03*
D38*
X92000000Y-44437500D03*
X92000000Y-47562500D03*
M02*
