G04 #@! TF.GenerationSoftware,KiCad,Pcbnew,6.0.11+dfsg-1~bpo11+1*
G04 #@! TF.CreationDate,2023-04-01T23:07:15-07:00*
G04 #@! TF.ProjectId,gbpunk,67627075-6e6b-42e6-9b69-6361645f7063,v4.0*
G04 #@! TF.SameCoordinates,Original*
G04 #@! TF.FileFunction,Legend,Top*
G04 #@! TF.FilePolarity,Positive*
%FSLAX46Y46*%
G04 Gerber Fmt 4.6, Leading zero omitted, Abs format (unit mm)*
G04 Created by KiCad (PCBNEW 6.0.11+dfsg-1~bpo11+1) date 2023-04-01 23:07:15*
%MOMM*%
%LPD*%
G01*
G04 APERTURE LIST*
G04 Aperture macros list*
%AMRoundRect*
0 Rectangle with rounded corners*
0 $1 Rounding radius*
0 $2 $3 $4 $5 $6 $7 $8 $9 X,Y pos of 4 corners*
0 Add a 4 corners polygon primitive as box body*
4,1,4,$2,$3,$4,$5,$6,$7,$8,$9,$2,$3,0*
0 Add four circle primitives for the rounded corners*
1,1,$1+$1,$2,$3*
1,1,$1+$1,$4,$5*
1,1,$1+$1,$6,$7*
1,1,$1+$1,$8,$9*
0 Add four rect primitives between the rounded corners*
20,1,$1+$1,$2,$3,$4,$5,0*
20,1,$1+$1,$4,$5,$6,$7,0*
20,1,$1+$1,$6,$7,$8,$9,0*
20,1,$1+$1,$8,$9,$2,$3,0*%
G04 Aperture macros list end*
%ADD10C,0.250000*%
%ADD11C,0.150000*%
%ADD12C,0.300000*%
%ADD13C,0.120000*%
%ADD14C,7.200000*%
%ADD15C,2.300000*%
%ADD16RoundRect,0.155000X0.155000X-0.212500X0.155000X0.212500X-0.155000X0.212500X-0.155000X-0.212500X0*%
%ADD17RoundRect,0.100000X0.100000X-0.637500X0.100000X0.637500X-0.100000X0.637500X-0.100000X-0.637500X0*%
%ADD18RoundRect,0.155000X0.040659X0.259862X-0.259862X-0.040659X-0.040659X-0.259862X0.259862X0.040659X0*%
%ADD19RoundRect,0.155000X-0.212500X-0.155000X0.212500X-0.155000X0.212500X0.155000X-0.212500X0.155000X0*%
%ADD20RoundRect,0.160000X0.197500X0.160000X-0.197500X0.160000X-0.197500X-0.160000X0.197500X-0.160000X0*%
%ADD21RoundRect,0.237500X-0.237500X0.250000X-0.237500X-0.250000X0.237500X-0.250000X0.237500X0.250000X0*%
%ADD22RoundRect,0.237500X0.250000X0.237500X-0.250000X0.237500X-0.250000X-0.237500X0.250000X-0.237500X0*%
%ADD23RoundRect,0.250000X-0.412500X-0.650000X0.412500X-0.650000X0.412500X0.650000X-0.412500X0.650000X0*%
%ADD24C,1.000000*%
%ADD25RoundRect,0.250000X0.475000X-0.337500X0.475000X0.337500X-0.475000X0.337500X-0.475000X-0.337500X0*%
%ADD26R,0.740000X2.400000*%
%ADD27C,1.500000*%
%ADD28R,2.750000X1.000000*%
%ADD29R,1.300000X6.000000*%
%ADD30R,1.000000X5.500000*%
%ADD31R,4.600000X3.000000*%
%ADD32C,0.650000*%
%ADD33R,0.600000X1.450000*%
%ADD34R,0.300000X1.450000*%
%ADD35O,1.000000X2.100000*%
%ADD36O,1.000000X1.600000*%
%ADD37R,1.700000X1.700000*%
%ADD38O,1.700000X1.700000*%
%ADD39RoundRect,0.155000X0.212500X0.155000X-0.212500X0.155000X-0.212500X-0.155000X0.212500X-0.155000X0*%
%ADD40RoundRect,0.155000X-0.155000X0.212500X-0.155000X-0.212500X0.155000X-0.212500X0.155000X0.212500X0*%
%ADD41RoundRect,0.155000X-0.259862X0.040659X0.040659X-0.259862X0.259862X-0.040659X-0.040659X0.259862X0*%
%ADD42RoundRect,0.160000X-0.197500X-0.160000X0.197500X-0.160000X0.197500X0.160000X-0.197500X0.160000X0*%
%ADD43RoundRect,0.150000X-0.650000X-0.150000X0.650000X-0.150000X0.650000X0.150000X-0.650000X0.150000X0*%
%ADD44R,2.000000X1.500000*%
%ADD45R,2.000000X3.800000*%
%ADD46RoundRect,0.160000X-0.160000X0.197500X-0.160000X-0.197500X0.160000X-0.197500X0.160000X0.197500X0*%
%ADD47RoundRect,0.050000X-0.387500X-0.050000X0.387500X-0.050000X0.387500X0.050000X-0.387500X0.050000X0*%
%ADD48RoundRect,0.050000X-0.050000X-0.387500X0.050000X-0.387500X0.050000X0.387500X-0.050000X0.387500X0*%
%ADD49RoundRect,0.144000X-1.456000X-1.456000X1.456000X-1.456000X1.456000X1.456000X-1.456000X1.456000X0*%
%ADD50RoundRect,0.237500X0.287500X0.237500X-0.287500X0.237500X-0.287500X-0.237500X0.287500X-0.237500X0*%
%ADD51RoundRect,0.250001X0.462499X0.624999X-0.462499X0.624999X-0.462499X-0.624999X0.462499X-0.624999X0*%
%ADD52RoundRect,0.237500X-0.250000X-0.237500X0.250000X-0.237500X0.250000X0.237500X-0.250000X0.237500X0*%
%ADD53RoundRect,0.237500X0.237500X-0.250000X0.237500X0.250000X-0.237500X0.250000X-0.237500X-0.250000X0*%
%ADD54RoundRect,0.250000X-0.650000X0.412500X-0.650000X-0.412500X0.650000X-0.412500X0.650000X0.412500X0*%
G04 APERTURE END LIST*
D10*
X116630952Y-65329761D02*
X116773809Y-65377380D01*
X117011904Y-65377380D01*
X117107142Y-65329761D01*
X117154761Y-65282142D01*
X117202380Y-65186904D01*
X117202380Y-65091666D01*
X117154761Y-64996428D01*
X117107142Y-64948809D01*
X117011904Y-64901190D01*
X116821428Y-64853571D01*
X116726190Y-64805952D01*
X116678571Y-64758333D01*
X116630952Y-64663095D01*
X116630952Y-64567857D01*
X116678571Y-64472619D01*
X116726190Y-64425000D01*
X116821428Y-64377380D01*
X117059523Y-64377380D01*
X117202380Y-64425000D01*
X117535714Y-64377380D02*
X117773809Y-65377380D01*
X117964285Y-64663095D01*
X118154761Y-65377380D01*
X118392857Y-64377380D01*
X118773809Y-65377380D02*
X118773809Y-64377380D01*
X119011904Y-64377380D01*
X119154761Y-64425000D01*
X119250000Y-64520238D01*
X119297619Y-64615476D01*
X119345238Y-64805952D01*
X119345238Y-64948809D01*
X119297619Y-65139285D01*
X119250000Y-65234523D01*
X119154761Y-65329761D01*
X119011904Y-65377380D01*
X118773809Y-65377380D01*
X119773809Y-65377380D02*
X119773809Y-64377380D01*
X120440476Y-64377380D02*
X120630952Y-64377380D01*
X120726190Y-64425000D01*
X120821428Y-64520238D01*
X120869047Y-64710714D01*
X120869047Y-65044047D01*
X120821428Y-65234523D01*
X120726190Y-65329761D01*
X120630952Y-65377380D01*
X120440476Y-65377380D01*
X120345238Y-65329761D01*
X120250000Y-65234523D01*
X120202380Y-65044047D01*
X120202380Y-64710714D01*
X120250000Y-64520238D01*
X120345238Y-64425000D01*
X120440476Y-64377380D01*
X117238095Y-72000000D02*
X117142857Y-71952380D01*
X117000000Y-71952380D01*
X116857142Y-72000000D01*
X116761904Y-72095238D01*
X116714285Y-72190476D01*
X116666666Y-72380952D01*
X116666666Y-72523809D01*
X116714285Y-72714285D01*
X116761904Y-72809523D01*
X116857142Y-72904761D01*
X117000000Y-72952380D01*
X117095238Y-72952380D01*
X117238095Y-72904761D01*
X117285714Y-72857142D01*
X117285714Y-72523809D01*
X117095238Y-72523809D01*
X117714285Y-72952380D02*
X117714285Y-71952380D01*
X118285714Y-72952380D01*
X118285714Y-71952380D01*
X118761904Y-72952380D02*
X118761904Y-71952380D01*
X119000000Y-71952380D01*
X119142857Y-72000000D01*
X119238095Y-72095238D01*
X119285714Y-72190476D01*
X119333333Y-72380952D01*
X119333333Y-72523809D01*
X119285714Y-72714285D01*
X119238095Y-72809523D01*
X119142857Y-72904761D01*
X119000000Y-72952380D01*
X118761904Y-72952380D01*
X114751596Y-39772550D02*
X114179176Y-40344970D01*
X114078161Y-40378641D01*
X114010817Y-40378641D01*
X113909802Y-40344970D01*
X113808786Y-40243954D01*
X113775115Y-40142939D01*
X114313863Y-40210283D02*
X114212848Y-40176611D01*
X114078161Y-40041924D01*
X114044489Y-39940909D01*
X114044489Y-39873565D01*
X114078161Y-39772550D01*
X114280191Y-39570519D01*
X114381206Y-39536848D01*
X114448550Y-39536848D01*
X114549565Y-39570519D01*
X114684252Y-39705206D01*
X114717924Y-39806222D01*
X114616909Y-40580672D02*
X115324015Y-39873565D01*
X115054641Y-40142939D02*
X115155657Y-40176611D01*
X115290344Y-40311298D01*
X115324015Y-40412313D01*
X115324015Y-40479657D01*
X115290344Y-40580672D01*
X115088313Y-40782702D01*
X114987298Y-40816374D01*
X114919954Y-40816374D01*
X114818939Y-40782702D01*
X114684252Y-40648015D01*
X114650580Y-40547000D01*
X115728076Y-40749031D02*
X115020970Y-41456137D01*
X115694405Y-40782702D02*
X115795420Y-40816374D01*
X115930107Y-40951061D01*
X115963779Y-41052076D01*
X115963779Y-41119420D01*
X115930107Y-41220435D01*
X115728076Y-41422466D01*
X115627061Y-41456137D01*
X115559718Y-41456137D01*
X115458702Y-41422466D01*
X115324015Y-41287779D01*
X115290344Y-41186763D01*
X116670885Y-41691840D02*
X116199481Y-42163244D01*
X116367840Y-41388794D02*
X115997450Y-41759183D01*
X115963779Y-41860198D01*
X115997450Y-41961214D01*
X116098466Y-42062229D01*
X116199481Y-42095901D01*
X116266824Y-42095901D01*
X117007603Y-42028557D02*
X116536198Y-42499962D01*
X116940259Y-42095901D02*
X117007603Y-42095901D01*
X117108618Y-42129572D01*
X117209633Y-42230588D01*
X117243305Y-42331603D01*
X117209633Y-42432618D01*
X116839244Y-42803007D01*
X117175962Y-43139725D02*
X117883068Y-42432618D01*
X117512679Y-42937694D02*
X117445336Y-43409099D01*
X117916740Y-42937694D02*
X117377992Y-42937694D01*
X118758534Y-44587610D02*
X118691190Y-44587610D01*
X118556503Y-44520267D01*
X118489160Y-44452923D01*
X118421816Y-44318236D01*
X118421816Y-44183549D01*
X118455488Y-44082534D01*
X118556503Y-43914175D01*
X118657519Y-43813160D01*
X118825877Y-43712145D01*
X118926893Y-43678473D01*
X119061580Y-43678473D01*
X119196267Y-43745816D01*
X119263610Y-43813160D01*
X119330954Y-43947847D01*
X119330954Y-44015190D01*
X119297282Y-45261045D02*
X119667671Y-44890656D01*
X119701343Y-44789641D01*
X119667671Y-44688625D01*
X119532984Y-44553938D01*
X119431969Y-44520267D01*
X119330954Y-45227374D02*
X119229938Y-45193702D01*
X119061580Y-45025343D01*
X119027908Y-44924328D01*
X119061580Y-44823312D01*
X119128923Y-44755969D01*
X119229938Y-44722297D01*
X119330954Y-44755969D01*
X119499312Y-44924328D01*
X119600328Y-44958000D01*
X119634000Y-45597763D02*
X120105404Y-45126358D01*
X119970717Y-45261045D02*
X120071732Y-45227374D01*
X120139076Y-45227374D01*
X120240091Y-45261045D01*
X120307435Y-45328389D01*
X120442122Y-45463076D02*
X120711496Y-45732450D01*
X120778839Y-45328389D02*
X120172748Y-45934480D01*
X120139076Y-46035496D01*
X120172748Y-46136511D01*
X120240091Y-46203854D01*
X121014541Y-46978305D02*
X121721648Y-46271198D01*
X121890007Y-46439557D01*
X121957350Y-46574244D01*
X121957350Y-46708931D01*
X121923679Y-46809946D01*
X121822663Y-46978305D01*
X121721648Y-47079320D01*
X121553289Y-47180335D01*
X121452274Y-47214007D01*
X121317587Y-47214007D01*
X121182900Y-47146663D01*
X121014541Y-46978305D01*
X122496098Y-47517053D02*
X122024694Y-47988457D01*
X122193053Y-47214007D02*
X121822663Y-47584396D01*
X121788992Y-47685411D01*
X121822663Y-47786427D01*
X121923679Y-47887442D01*
X122024694Y-47921114D01*
X122092037Y-47921114D01*
X122361411Y-48325175D02*
X122832816Y-47853770D01*
X122765472Y-47921114D02*
X122832816Y-47921114D01*
X122933831Y-47954785D01*
X123034846Y-48055801D01*
X123068518Y-48156816D01*
X123034846Y-48257831D01*
X122664457Y-48628220D01*
X123034846Y-48257831D02*
X123135862Y-48224159D01*
X123236877Y-48257831D01*
X123337892Y-48358846D01*
X123371564Y-48459862D01*
X123337892Y-48560877D01*
X122967503Y-48931266D01*
X123775625Y-48796579D02*
X123068518Y-49503686D01*
X123741953Y-48830251D02*
X123842968Y-48863923D01*
X123977655Y-48998610D01*
X124011327Y-49099625D01*
X124011327Y-49166968D01*
X123977655Y-49267984D01*
X123775625Y-49470014D01*
X123674610Y-49503686D01*
X123607266Y-49503686D01*
X123506251Y-49470014D01*
X123371564Y-49335327D01*
X123337892Y-49234312D01*
X124247029Y-50143449D02*
X124146014Y-50109777D01*
X124011327Y-49975090D01*
X123977655Y-49874075D01*
X124011327Y-49773060D01*
X124280701Y-49503686D01*
X124381716Y-49470014D01*
X124482732Y-49503686D01*
X124617419Y-49638373D01*
X124651090Y-49739388D01*
X124617419Y-49840403D01*
X124550075Y-49907747D01*
X124146014Y-49638373D01*
X124550075Y-50513838D02*
X125021480Y-50042434D01*
X124886793Y-50177121D02*
X124987808Y-50143449D01*
X125055151Y-50143449D01*
X125156167Y-50177121D01*
X125223510Y-50244464D01*
X116488095Y-67904761D02*
X116630952Y-67952380D01*
X116869047Y-67952380D01*
X116964285Y-67904761D01*
X117011904Y-67857142D01*
X117059523Y-67761904D01*
X117059523Y-67666666D01*
X117011904Y-67571428D01*
X116964285Y-67523809D01*
X116869047Y-67476190D01*
X116678571Y-67428571D01*
X116583333Y-67380952D01*
X116535714Y-67333333D01*
X116488095Y-67238095D01*
X116488095Y-67142857D01*
X116535714Y-67047619D01*
X116583333Y-67000000D01*
X116678571Y-66952380D01*
X116916666Y-66952380D01*
X117059523Y-67000000D01*
X117392857Y-66952380D02*
X117630952Y-67952380D01*
X117821428Y-67238095D01*
X118011904Y-67952380D01*
X118250000Y-66952380D01*
X119202380Y-67857142D02*
X119154761Y-67904761D01*
X119011904Y-67952380D01*
X118916666Y-67952380D01*
X118773809Y-67904761D01*
X118678571Y-67809523D01*
X118630952Y-67714285D01*
X118583333Y-67523809D01*
X118583333Y-67380952D01*
X118630952Y-67190476D01*
X118678571Y-67095238D01*
X118773809Y-67000000D01*
X118916666Y-66952380D01*
X119011904Y-66952380D01*
X119154761Y-67000000D01*
X119202380Y-67047619D01*
X120107142Y-67952380D02*
X119630952Y-67952380D01*
X119630952Y-66952380D01*
X120440476Y-67952380D02*
X120440476Y-66952380D01*
X121011904Y-67952380D02*
X120583333Y-67380952D01*
X121011904Y-66952380D02*
X120440476Y-67523809D01*
X92893619Y-52733380D02*
X92893619Y-51733380D01*
X93226952Y-52447666D01*
X93560285Y-51733380D01*
X93560285Y-52733380D01*
X94226952Y-51733380D02*
X94417428Y-51733380D01*
X94512666Y-51781000D01*
X94607904Y-51876238D01*
X94655523Y-52066714D01*
X94655523Y-52400047D01*
X94607904Y-52590523D01*
X94512666Y-52685761D01*
X94417428Y-52733380D01*
X94226952Y-52733380D01*
X94131714Y-52685761D01*
X94036476Y-52590523D01*
X93988857Y-52400047D01*
X93988857Y-52066714D01*
X94036476Y-51876238D01*
X94131714Y-51781000D01*
X94226952Y-51733380D01*
X95655523Y-52733380D02*
X95322190Y-52257190D01*
X95084095Y-52733380D02*
X95084095Y-51733380D01*
X95465047Y-51733380D01*
X95560285Y-51781000D01*
X95607904Y-51828619D01*
X95655523Y-51923857D01*
X95655523Y-52066714D01*
X95607904Y-52161952D01*
X95560285Y-52209571D01*
X95465047Y-52257190D01*
X95084095Y-52257190D01*
X96084095Y-52209571D02*
X96417428Y-52209571D01*
X96560285Y-52733380D02*
X96084095Y-52733380D01*
X96084095Y-51733380D01*
X96560285Y-51733380D01*
X97750761Y-52733380D02*
X97750761Y-51733380D01*
X98322190Y-52733380D01*
X98322190Y-51733380D01*
X98988857Y-51733380D02*
X99179333Y-51733380D01*
X99274571Y-51781000D01*
X99369809Y-51876238D01*
X99417428Y-52066714D01*
X99417428Y-52400047D01*
X99369809Y-52590523D01*
X99274571Y-52685761D01*
X99179333Y-52733380D01*
X98988857Y-52733380D01*
X98893619Y-52685761D01*
X98798380Y-52590523D01*
X98750761Y-52400047D01*
X98750761Y-52066714D01*
X98798380Y-51876238D01*
X98893619Y-51781000D01*
X98988857Y-51733380D01*
X99846000Y-52733380D02*
X99846000Y-51733380D01*
X100417428Y-52733380D01*
X100417428Y-51733380D01*
X100846000Y-52685761D02*
X100988857Y-52733380D01*
X101226952Y-52733380D01*
X101322190Y-52685761D01*
X101369809Y-52638142D01*
X101417428Y-52542904D01*
X101417428Y-52447666D01*
X101369809Y-52352428D01*
X101322190Y-52304809D01*
X101226952Y-52257190D01*
X101036476Y-52209571D01*
X100941238Y-52161952D01*
X100893619Y-52114333D01*
X100846000Y-52019095D01*
X100846000Y-51923857D01*
X100893619Y-51828619D01*
X100941238Y-51781000D01*
X101036476Y-51733380D01*
X101274571Y-51733380D01*
X101417428Y-51781000D01*
X101846000Y-52209571D02*
X102179333Y-52209571D01*
X102322190Y-52733380D02*
X101846000Y-52733380D01*
X101846000Y-51733380D01*
X102322190Y-51733380D01*
X102750761Y-52733380D02*
X102750761Y-51733380D01*
X103322190Y-52733380D01*
X103322190Y-51733380D01*
X103750761Y-52685761D02*
X103893619Y-52733380D01*
X104131714Y-52733380D01*
X104226952Y-52685761D01*
X104274571Y-52638142D01*
X104322190Y-52542904D01*
X104322190Y-52447666D01*
X104274571Y-52352428D01*
X104226952Y-52304809D01*
X104131714Y-52257190D01*
X103941238Y-52209571D01*
X103846000Y-52161952D01*
X103798380Y-52114333D01*
X103750761Y-52019095D01*
X103750761Y-51923857D01*
X103798380Y-51828619D01*
X103846000Y-51781000D01*
X103941238Y-51733380D01*
X104179333Y-51733380D01*
X104322190Y-51781000D01*
X104750761Y-52209571D02*
X105084095Y-52209571D01*
X105226952Y-52733380D02*
X104750761Y-52733380D01*
X104750761Y-51733380D01*
X105226952Y-51733380D01*
X106417428Y-52733380D02*
X106417428Y-51733380D01*
X106417428Y-52209571D02*
X106988857Y-52209571D01*
X106988857Y-52733380D02*
X106988857Y-51733380D01*
X107465047Y-52209571D02*
X107798380Y-52209571D01*
X107941238Y-52733380D02*
X107465047Y-52733380D01*
X107465047Y-51733380D01*
X107941238Y-51733380D01*
X108941238Y-52733380D02*
X108607904Y-52257190D01*
X108369809Y-52733380D02*
X108369809Y-51733380D01*
X108750761Y-51733380D01*
X108846000Y-51781000D01*
X108893619Y-51828619D01*
X108941238Y-51923857D01*
X108941238Y-52066714D01*
X108893619Y-52161952D01*
X108846000Y-52209571D01*
X108750761Y-52257190D01*
X108369809Y-52257190D01*
X109369809Y-52209571D02*
X109703142Y-52209571D01*
X109846000Y-52733380D02*
X109369809Y-52733380D01*
X109369809Y-51733380D01*
X109846000Y-51733380D01*
X96417428Y-54343380D02*
X96417428Y-53343380D01*
X96988857Y-54343380D02*
X96560285Y-53771952D01*
X96988857Y-53343380D02*
X96417428Y-53914809D01*
X97417428Y-54343380D02*
X97417428Y-53343380D01*
X97893619Y-54343380D02*
X97893619Y-53343380D01*
X98131714Y-53343380D01*
X98274571Y-53391000D01*
X98369809Y-53486238D01*
X98417428Y-53581476D01*
X98465047Y-53771952D01*
X98465047Y-53914809D01*
X98417428Y-54105285D01*
X98369809Y-54200523D01*
X98274571Y-54295761D01*
X98131714Y-54343380D01*
X97893619Y-54343380D01*
X99084095Y-53343380D02*
X99274571Y-53343380D01*
X99369809Y-53391000D01*
X99465047Y-53486238D01*
X99512666Y-53676714D01*
X99512666Y-54010047D01*
X99465047Y-54200523D01*
X99369809Y-54295761D01*
X99274571Y-54343380D01*
X99084095Y-54343380D01*
X98988857Y-54295761D01*
X98893619Y-54200523D01*
X98846000Y-54010047D01*
X98846000Y-53676714D01*
X98893619Y-53486238D01*
X98988857Y-53391000D01*
X99084095Y-53343380D01*
X99941238Y-53343380D02*
X99941238Y-54152904D01*
X99988857Y-54248142D01*
X100036476Y-54295761D01*
X100131714Y-54343380D01*
X100322190Y-54343380D01*
X100417428Y-54295761D01*
X100465047Y-54248142D01*
X100512666Y-54152904D01*
X100512666Y-53343380D01*
X100846000Y-53343380D02*
X101417428Y-53343380D01*
X101131714Y-54343380D02*
X101131714Y-53343380D01*
X101703142Y-54057666D02*
X102179333Y-54057666D01*
X101607904Y-54343380D02*
X101941238Y-53343380D01*
X102274571Y-54343380D01*
X102607904Y-54343380D02*
X102607904Y-53343380D01*
X103084095Y-54248142D02*
X103131714Y-54295761D01*
X103084095Y-54343380D01*
X103036476Y-54295761D01*
X103084095Y-54248142D01*
X103084095Y-54343380D01*
X104131714Y-54248142D02*
X104084095Y-54295761D01*
X103941238Y-54343380D01*
X103846000Y-54343380D01*
X103703142Y-54295761D01*
X103607904Y-54200523D01*
X103560285Y-54105285D01*
X103512666Y-53914809D01*
X103512666Y-53771952D01*
X103560285Y-53581476D01*
X103607904Y-53486238D01*
X103703142Y-53391000D01*
X103846000Y-53343380D01*
X103941238Y-53343380D01*
X104084095Y-53391000D01*
X104131714Y-53438619D01*
X104750761Y-53343380D02*
X104941238Y-53343380D01*
X105036476Y-53391000D01*
X105131714Y-53486238D01*
X105179333Y-53676714D01*
X105179333Y-54010047D01*
X105131714Y-54200523D01*
X105036476Y-54295761D01*
X104941238Y-54343380D01*
X104750761Y-54343380D01*
X104655523Y-54295761D01*
X104560285Y-54200523D01*
X104512666Y-54010047D01*
X104512666Y-53676714D01*
X104560285Y-53486238D01*
X104655523Y-53391000D01*
X104750761Y-53343380D01*
X105607904Y-54343380D02*
X105607904Y-53343380D01*
X105941238Y-54057666D01*
X106274571Y-53343380D01*
X106274571Y-54343380D01*
X116761904Y-74702380D02*
X117380952Y-74702380D01*
X117047619Y-75083333D01*
X117190476Y-75083333D01*
X117285714Y-75130952D01*
X117333333Y-75178571D01*
X117380952Y-75273809D01*
X117380952Y-75511904D01*
X117333333Y-75607142D01*
X117285714Y-75654761D01*
X117190476Y-75702380D01*
X116904761Y-75702380D01*
X116809523Y-75654761D01*
X116761904Y-75607142D01*
X117666666Y-74702380D02*
X118000000Y-75702380D01*
X118333333Y-74702380D01*
X118571428Y-74702380D02*
X119190476Y-74702380D01*
X118857142Y-75083333D01*
X119000000Y-75083333D01*
X119095238Y-75130952D01*
X119142857Y-75178571D01*
X119190476Y-75273809D01*
X119190476Y-75511904D01*
X119142857Y-75607142D01*
X119095238Y-75654761D01*
X119000000Y-75702380D01*
X118714285Y-75702380D01*
X118619047Y-75654761D01*
X118571428Y-75607142D01*
D11*
X82175238Y-78782380D02*
X82175238Y-77782380D01*
X82413333Y-77782380D01*
X82556190Y-77830000D01*
X82651428Y-77925238D01*
X82699047Y-78020476D01*
X82746666Y-78210952D01*
X82746666Y-78353809D01*
X82699047Y-78544285D01*
X82651428Y-78639523D01*
X82556190Y-78734761D01*
X82413333Y-78782380D01*
X82175238Y-78782380D01*
X83365714Y-77782380D02*
X83556190Y-77782380D01*
X83651428Y-77830000D01*
X83746666Y-77925238D01*
X83794285Y-78115714D01*
X83794285Y-78449047D01*
X83746666Y-78639523D01*
X83651428Y-78734761D01*
X83556190Y-78782380D01*
X83365714Y-78782380D01*
X83270476Y-78734761D01*
X83175238Y-78639523D01*
X83127619Y-78449047D01*
X83127619Y-78115714D01*
X83175238Y-77925238D01*
X83270476Y-77830000D01*
X83365714Y-77782380D01*
X85556190Y-78687142D02*
X85508571Y-78734761D01*
X85365714Y-78782380D01*
X85270476Y-78782380D01*
X85127619Y-78734761D01*
X85032380Y-78639523D01*
X84984761Y-78544285D01*
X84937142Y-78353809D01*
X84937142Y-78210952D01*
X84984761Y-78020476D01*
X85032380Y-77925238D01*
X85127619Y-77830000D01*
X85270476Y-77782380D01*
X85365714Y-77782380D01*
X85508571Y-77830000D01*
X85556190Y-77877619D01*
X86556190Y-78782380D02*
X86222857Y-78306190D01*
X85984761Y-78782380D02*
X85984761Y-77782380D01*
X86365714Y-77782380D01*
X86460952Y-77830000D01*
X86508571Y-77877619D01*
X86556190Y-77972857D01*
X86556190Y-78115714D01*
X86508571Y-78210952D01*
X86460952Y-78258571D01*
X86365714Y-78306190D01*
X85984761Y-78306190D01*
X86984761Y-78782380D02*
X86984761Y-77782380D01*
X87460952Y-78782380D02*
X87460952Y-77782380D01*
X87794285Y-78496666D01*
X88127619Y-77782380D01*
X88127619Y-78782380D01*
X88603809Y-78258571D02*
X88937142Y-78258571D01*
X89080000Y-78782380D02*
X88603809Y-78782380D01*
X88603809Y-77782380D01*
X89080000Y-77782380D01*
X89460952Y-78734761D02*
X89603809Y-78782380D01*
X89841904Y-78782380D01*
X89937142Y-78734761D01*
X89984761Y-78687142D01*
X90032380Y-78591904D01*
X90032380Y-78496666D01*
X89984761Y-78401428D01*
X89937142Y-78353809D01*
X89841904Y-78306190D01*
X89651428Y-78258571D01*
X89556190Y-78210952D01*
X89508571Y-78163333D01*
X89460952Y-78068095D01*
X89460952Y-77972857D01*
X89508571Y-77877619D01*
X89556190Y-77830000D01*
X89651428Y-77782380D01*
X89889523Y-77782380D01*
X90032380Y-77830000D01*
D10*
X117202380Y-70452380D02*
X116869047Y-69976190D01*
X116630952Y-70452380D02*
X116630952Y-69452380D01*
X117011904Y-69452380D01*
X117107142Y-69500000D01*
X117154761Y-69547619D01*
X117202380Y-69642857D01*
X117202380Y-69785714D01*
X117154761Y-69880952D01*
X117107142Y-69928571D01*
X117011904Y-69976190D01*
X116630952Y-69976190D01*
X117583333Y-70404761D02*
X117726190Y-70452380D01*
X117964285Y-70452380D01*
X118059523Y-70404761D01*
X118107142Y-70357142D01*
X118154761Y-70261904D01*
X118154761Y-70166666D01*
X118107142Y-70071428D01*
X118059523Y-70023809D01*
X117964285Y-69976190D01*
X117773809Y-69928571D01*
X117678571Y-69880952D01*
X117630952Y-69833333D01*
X117583333Y-69738095D01*
X117583333Y-69642857D01*
X117630952Y-69547619D01*
X117678571Y-69500000D01*
X117773809Y-69452380D01*
X118011904Y-69452380D01*
X118154761Y-69500000D01*
X118440476Y-69452380D02*
X119011904Y-69452380D01*
X118726190Y-70452380D02*
X118726190Y-69452380D01*
D12*
X78750000Y-91928571D02*
X78750000Y-90428571D01*
X78892857Y-91357142D02*
X79321428Y-91928571D01*
X79321428Y-90928571D02*
X78750000Y-91500000D01*
X80607142Y-91928571D02*
X80607142Y-91142857D01*
X80535714Y-91000000D01*
X80392857Y-90928571D01*
X80107142Y-90928571D01*
X79964285Y-91000000D01*
X80607142Y-91857142D02*
X80464285Y-91928571D01*
X80107142Y-91928571D01*
X79964285Y-91857142D01*
X79892857Y-91714285D01*
X79892857Y-91571428D01*
X79964285Y-91428571D01*
X80107142Y-91357142D01*
X80464285Y-91357142D01*
X80607142Y-91285714D01*
X81178571Y-90928571D02*
X81535714Y-91928571D01*
X81892857Y-90928571D02*
X81535714Y-91928571D01*
X81392857Y-92285714D01*
X81321428Y-92357142D01*
X81178571Y-92428571D01*
X118110285Y-49724571D02*
X118610285Y-51224571D01*
X119110285Y-49724571D01*
X119538857Y-49867428D02*
X119610285Y-49796000D01*
X119753142Y-49724571D01*
X120110285Y-49724571D01*
X120253142Y-49796000D01*
X120324571Y-49867428D01*
X120396000Y-50010285D01*
X120396000Y-50153142D01*
X120324571Y-50367428D01*
X119467428Y-51224571D01*
X120396000Y-51224571D01*
X121038857Y-51081714D02*
X121110285Y-51153142D01*
X121038857Y-51224571D01*
X120967428Y-51153142D01*
X121038857Y-51081714D01*
X121038857Y-51224571D01*
X122038857Y-49724571D02*
X122181714Y-49724571D01*
X122324571Y-49796000D01*
X122396000Y-49867428D01*
X122467428Y-50010285D01*
X122538857Y-50296000D01*
X122538857Y-50653142D01*
X122467428Y-50938857D01*
X122396000Y-51081714D01*
X122324571Y-51153142D01*
X122181714Y-51224571D01*
X122038857Y-51224571D01*
X121896000Y-51153142D01*
X121824571Y-51081714D01*
X121753142Y-50938857D01*
X121681714Y-50653142D01*
X121681714Y-50296000D01*
X121753142Y-50010285D01*
X121824571Y-49867428D01*
X121896000Y-49796000D01*
X122038857Y-49724571D01*
D10*
X102357142Y-62642857D02*
X102404761Y-62690476D01*
X102452380Y-62833333D01*
X102452380Y-62928571D01*
X102404761Y-63071428D01*
X102309523Y-63166666D01*
X102214285Y-63214285D01*
X102023809Y-63261904D01*
X101880952Y-63261904D01*
X101690476Y-63214285D01*
X101595238Y-63166666D01*
X101500000Y-63071428D01*
X101452380Y-62928571D01*
X101452380Y-62833333D01*
X101500000Y-62690476D01*
X101547619Y-62642857D01*
X101547619Y-62261904D02*
X101500000Y-62214285D01*
X101452380Y-62119047D01*
X101452380Y-61880952D01*
X101500000Y-61785714D01*
X101547619Y-61738095D01*
X101642857Y-61690476D01*
X101738095Y-61690476D01*
X101880952Y-61738095D01*
X102452380Y-62309523D01*
X102452380Y-61690476D01*
X101452380Y-61071428D02*
X101452380Y-60976190D01*
X101500000Y-60880952D01*
X101547619Y-60833333D01*
X101642857Y-60785714D01*
X101833333Y-60738095D01*
X102071428Y-60738095D01*
X102261904Y-60785714D01*
X102357142Y-60833333D01*
X102404761Y-60880952D01*
X102452380Y-60976190D01*
X102452380Y-61071428D01*
X102404761Y-61166666D01*
X102357142Y-61214285D01*
X102261904Y-61261904D01*
X102071428Y-61309523D01*
X101833333Y-61309523D01*
X101642857Y-61261904D01*
X101547619Y-61214285D01*
X101500000Y-61166666D01*
X101452380Y-61071428D01*
X96857142Y-62142857D02*
X96904761Y-62190476D01*
X96952380Y-62333333D01*
X96952380Y-62428571D01*
X96904761Y-62571428D01*
X96809523Y-62666666D01*
X96714285Y-62714285D01*
X96523809Y-62761904D01*
X96380952Y-62761904D01*
X96190476Y-62714285D01*
X96095238Y-62666666D01*
X96000000Y-62571428D01*
X95952380Y-62428571D01*
X95952380Y-62333333D01*
X96000000Y-62190476D01*
X96047619Y-62142857D01*
X96952380Y-61190476D02*
X96952380Y-61761904D01*
X96952380Y-61476190D02*
X95952380Y-61476190D01*
X96095238Y-61571428D01*
X96190476Y-61666666D01*
X96238095Y-61761904D01*
X95952380Y-60857142D02*
X95952380Y-60238095D01*
X96333333Y-60571428D01*
X96333333Y-60428571D01*
X96380952Y-60333333D01*
X96428571Y-60285714D01*
X96523809Y-60238095D01*
X96761904Y-60238095D01*
X96857142Y-60285714D01*
X96904761Y-60333333D01*
X96952380Y-60428571D01*
X96952380Y-60714285D01*
X96904761Y-60809523D01*
X96857142Y-60857142D01*
X122488095Y-79952380D02*
X122488095Y-80761904D01*
X122535714Y-80857142D01*
X122583333Y-80904761D01*
X122678571Y-80952380D01*
X122869047Y-80952380D01*
X122964285Y-80904761D01*
X123011904Y-80857142D01*
X123059523Y-80761904D01*
X123059523Y-79952380D01*
X123440476Y-79952380D02*
X124107142Y-79952380D01*
X123678571Y-80952380D01*
X92144588Y-73803725D02*
X92144588Y-73871069D01*
X92077244Y-74005756D01*
X92009901Y-74073099D01*
X91875214Y-74140443D01*
X91740527Y-74140443D01*
X91639512Y-74106771D01*
X91471153Y-74005756D01*
X91370138Y-73904741D01*
X91269122Y-73736382D01*
X91235451Y-73635367D01*
X91235451Y-73500680D01*
X91302794Y-73365993D01*
X91370138Y-73298649D01*
X91504825Y-73231306D01*
X91572168Y-73231306D01*
X92885367Y-73197634D02*
X92481306Y-73601695D01*
X92683336Y-73399664D02*
X91976229Y-72692557D01*
X92009901Y-72860916D01*
X92009901Y-72995603D01*
X91976229Y-73096619D01*
X92413962Y-72254825D02*
X92885367Y-71783420D01*
X93289428Y-72793573D01*
D11*
X104357142Y-69357142D02*
X104309523Y-69404761D01*
X104166666Y-69452380D01*
X104071428Y-69452380D01*
X103928571Y-69404761D01*
X103833333Y-69309523D01*
X103785714Y-69214285D01*
X103738095Y-69023809D01*
X103738095Y-68880952D01*
X103785714Y-68690476D01*
X103833333Y-68595238D01*
X103928571Y-68500000D01*
X104071428Y-68452380D01*
X104166666Y-68452380D01*
X104309523Y-68500000D01*
X104357142Y-68547619D01*
X105309523Y-69452380D02*
X104738095Y-69452380D01*
X105023809Y-69452380D02*
X105023809Y-68452380D01*
X104928571Y-68595238D01*
X104833333Y-68690476D01*
X104738095Y-68738095D01*
X106166666Y-68785714D02*
X106166666Y-69452380D01*
X105928571Y-68404761D02*
X105690476Y-69119047D01*
X106309523Y-69119047D01*
D10*
X87357142Y-65857142D02*
X87309523Y-65904761D01*
X87166666Y-65952380D01*
X87071428Y-65952380D01*
X86928571Y-65904761D01*
X86833333Y-65809523D01*
X86785714Y-65714285D01*
X86738095Y-65523809D01*
X86738095Y-65380952D01*
X86785714Y-65190476D01*
X86833333Y-65095238D01*
X86928571Y-65000000D01*
X87071428Y-64952380D01*
X87166666Y-64952380D01*
X87309523Y-65000000D01*
X87357142Y-65047619D01*
X87738095Y-65047619D02*
X87785714Y-65000000D01*
X87880952Y-64952380D01*
X88119047Y-64952380D01*
X88214285Y-65000000D01*
X88261904Y-65047619D01*
X88309523Y-65142857D01*
X88309523Y-65238095D01*
X88261904Y-65380952D01*
X87690476Y-65952380D01*
X88309523Y-65952380D01*
X88690476Y-65047619D02*
X88738095Y-65000000D01*
X88833333Y-64952380D01*
X89071428Y-64952380D01*
X89166666Y-65000000D01*
X89214285Y-65047619D01*
X89261904Y-65142857D01*
X89261904Y-65238095D01*
X89214285Y-65380952D01*
X88642857Y-65952380D01*
X89261904Y-65952380D01*
X90833333Y-67452380D02*
X90500000Y-66976190D01*
X90261904Y-67452380D02*
X90261904Y-66452380D01*
X90642857Y-66452380D01*
X90738095Y-66500000D01*
X90785714Y-66547619D01*
X90833333Y-66642857D01*
X90833333Y-66785714D01*
X90785714Y-66880952D01*
X90738095Y-66928571D01*
X90642857Y-66976190D01*
X90261904Y-66976190D01*
X91309523Y-67452380D02*
X91500000Y-67452380D01*
X91595238Y-67404761D01*
X91642857Y-67357142D01*
X91738095Y-67214285D01*
X91785714Y-67023809D01*
X91785714Y-66642857D01*
X91738095Y-66547619D01*
X91690476Y-66500000D01*
X91595238Y-66452380D01*
X91404761Y-66452380D01*
X91309523Y-66500000D01*
X91261904Y-66547619D01*
X91214285Y-66642857D01*
X91214285Y-66880952D01*
X91261904Y-66976190D01*
X91309523Y-67023809D01*
X91404761Y-67071428D01*
X91595238Y-67071428D01*
X91690476Y-67023809D01*
X91738095Y-66976190D01*
X91785714Y-66880952D01*
X115452380Y-82392857D02*
X114976190Y-82726190D01*
X115452380Y-82964285D02*
X114452380Y-82964285D01*
X114452380Y-82583333D01*
X114500000Y-82488095D01*
X114547619Y-82440476D01*
X114642857Y-82392857D01*
X114785714Y-82392857D01*
X114880952Y-82440476D01*
X114928571Y-82488095D01*
X114976190Y-82583333D01*
X114976190Y-82964285D01*
X115452380Y-81440476D02*
X115452380Y-82011904D01*
X115452380Y-81726190D02*
X114452380Y-81726190D01*
X114595238Y-81821428D01*
X114690476Y-81916666D01*
X114738095Y-82011904D01*
X114452380Y-81107142D02*
X114452380Y-80488095D01*
X114833333Y-80821428D01*
X114833333Y-80678571D01*
X114880952Y-80583333D01*
X114928571Y-80535714D01*
X115023809Y-80488095D01*
X115261904Y-80488095D01*
X115357142Y-80535714D01*
X115404761Y-80583333D01*
X115452380Y-80678571D01*
X115452380Y-80964285D01*
X115404761Y-81059523D01*
X115357142Y-81107142D01*
X103333333Y-91952380D02*
X103000000Y-91476190D01*
X102761904Y-91952380D02*
X102761904Y-90952380D01*
X103142857Y-90952380D01*
X103238095Y-91000000D01*
X103285714Y-91047619D01*
X103333333Y-91142857D01*
X103333333Y-91285714D01*
X103285714Y-91380952D01*
X103238095Y-91428571D01*
X103142857Y-91476190D01*
X102761904Y-91476190D01*
X104190476Y-90952380D02*
X104000000Y-90952380D01*
X103904761Y-91000000D01*
X103857142Y-91047619D01*
X103761904Y-91190476D01*
X103714285Y-91380952D01*
X103714285Y-91761904D01*
X103761904Y-91857142D01*
X103809523Y-91904761D01*
X103904761Y-91952380D01*
X104095238Y-91952380D01*
X104190476Y-91904761D01*
X104238095Y-91857142D01*
X104285714Y-91761904D01*
X104285714Y-91523809D01*
X104238095Y-91428571D01*
X104190476Y-91380952D01*
X104095238Y-91333333D01*
X103904761Y-91333333D01*
X103809523Y-91380952D01*
X103761904Y-91428571D01*
X103714285Y-91523809D01*
X99357142Y-50357142D02*
X99309523Y-50404761D01*
X99166666Y-50452380D01*
X99071428Y-50452380D01*
X98928571Y-50404761D01*
X98833333Y-50309523D01*
X98785714Y-50214285D01*
X98738095Y-50023809D01*
X98738095Y-49880952D01*
X98785714Y-49690476D01*
X98833333Y-49595238D01*
X98928571Y-49500000D01*
X99071428Y-49452380D01*
X99166666Y-49452380D01*
X99309523Y-49500000D01*
X99357142Y-49547619D01*
X99738095Y-49547619D02*
X99785714Y-49500000D01*
X99880952Y-49452380D01*
X100119047Y-49452380D01*
X100214285Y-49500000D01*
X100261904Y-49547619D01*
X100309523Y-49642857D01*
X100309523Y-49738095D01*
X100261904Y-49880952D01*
X99690476Y-50452380D01*
X100309523Y-50452380D01*
X101261904Y-50452380D02*
X100690476Y-50452380D01*
X100976190Y-50452380D02*
X100976190Y-49452380D01*
X100880952Y-49595238D01*
X100785714Y-49690476D01*
X100690476Y-49738095D01*
X93357142Y-61142857D02*
X93404761Y-61190476D01*
X93452380Y-61333333D01*
X93452380Y-61428571D01*
X93404761Y-61571428D01*
X93309523Y-61666666D01*
X93214285Y-61714285D01*
X93023809Y-61761904D01*
X92880952Y-61761904D01*
X92690476Y-61714285D01*
X92595238Y-61666666D01*
X92500000Y-61571428D01*
X92452380Y-61428571D01*
X92452380Y-61333333D01*
X92500000Y-61190476D01*
X92547619Y-61142857D01*
X93452380Y-60190476D02*
X93452380Y-60761904D01*
X93452380Y-60476190D02*
X92452380Y-60476190D01*
X92595238Y-60571428D01*
X92690476Y-60666666D01*
X92738095Y-60761904D01*
X93452380Y-59238095D02*
X93452380Y-59809523D01*
X93452380Y-59523809D02*
X92452380Y-59523809D01*
X92595238Y-59619047D01*
X92690476Y-59714285D01*
X92738095Y-59809523D01*
X103952380Y-60642857D02*
X103476190Y-60976190D01*
X103952380Y-61214285D02*
X102952380Y-61214285D01*
X102952380Y-60833333D01*
X103000000Y-60738095D01*
X103047619Y-60690476D01*
X103142857Y-60642857D01*
X103285714Y-60642857D01*
X103380952Y-60690476D01*
X103428571Y-60738095D01*
X103476190Y-60833333D01*
X103476190Y-61214285D01*
X103952380Y-59690476D02*
X103952380Y-60261904D01*
X103952380Y-59976190D02*
X102952380Y-59976190D01*
X103095238Y-60071428D01*
X103190476Y-60166666D01*
X103238095Y-60261904D01*
X103952380Y-58738095D02*
X103952380Y-59309523D01*
X103952380Y-59023809D02*
X102952380Y-59023809D01*
X103095238Y-59119047D01*
X103190476Y-59214285D01*
X103238095Y-59309523D01*
X110216666Y-40412380D02*
X110216666Y-41126666D01*
X110169047Y-41269523D01*
X110073809Y-41364761D01*
X109930952Y-41412380D01*
X109835714Y-41412380D01*
X111121428Y-40745714D02*
X111121428Y-41412380D01*
X110883333Y-40364761D02*
X110645238Y-41079047D01*
X111264285Y-41079047D01*
X77357142Y-64702380D02*
X77023809Y-64226190D01*
X76785714Y-64702380D02*
X76785714Y-63702380D01*
X77166666Y-63702380D01*
X77261904Y-63750000D01*
X77309523Y-63797619D01*
X77357142Y-63892857D01*
X77357142Y-64035714D01*
X77309523Y-64130952D01*
X77261904Y-64178571D01*
X77166666Y-64226190D01*
X76785714Y-64226190D01*
X78309523Y-64702380D02*
X77738095Y-64702380D01*
X78023809Y-64702380D02*
X78023809Y-63702380D01*
X77928571Y-63845238D01*
X77833333Y-63940476D01*
X77738095Y-63988095D01*
X78785714Y-64702380D02*
X78976190Y-64702380D01*
X79071428Y-64654761D01*
X79119047Y-64607142D01*
X79214285Y-64464285D01*
X79261904Y-64273809D01*
X79261904Y-63892857D01*
X79214285Y-63797619D01*
X79166666Y-63750000D01*
X79071428Y-63702380D01*
X78880952Y-63702380D01*
X78785714Y-63750000D01*
X78738095Y-63797619D01*
X78690476Y-63892857D01*
X78690476Y-64130952D01*
X78738095Y-64226190D01*
X78785714Y-64273809D01*
X78880952Y-64321428D01*
X79071428Y-64321428D01*
X79166666Y-64273809D01*
X79214285Y-64226190D01*
X79261904Y-64130952D01*
X106452380Y-61642857D02*
X105976190Y-61976190D01*
X106452380Y-62214285D02*
X105452380Y-62214285D01*
X105452380Y-61833333D01*
X105500000Y-61738095D01*
X105547619Y-61690476D01*
X105642857Y-61642857D01*
X105785714Y-61642857D01*
X105880952Y-61690476D01*
X105928571Y-61738095D01*
X105976190Y-61833333D01*
X105976190Y-62214285D01*
X106452380Y-60690476D02*
X106452380Y-61261904D01*
X106452380Y-60976190D02*
X105452380Y-60976190D01*
X105595238Y-61071428D01*
X105690476Y-61166666D01*
X105738095Y-61261904D01*
X105547619Y-60309523D02*
X105500000Y-60261904D01*
X105452380Y-60166666D01*
X105452380Y-59928571D01*
X105500000Y-59833333D01*
X105547619Y-59785714D01*
X105642857Y-59738095D01*
X105738095Y-59738095D01*
X105880952Y-59785714D01*
X106452380Y-60357142D01*
X106452380Y-59738095D01*
X109853809Y-61796190D02*
X109853809Y-62272380D01*
X109520476Y-61272380D02*
X109853809Y-61796190D01*
X110187142Y-61272380D01*
X111044285Y-62272380D02*
X110472857Y-62272380D01*
X110758571Y-62272380D02*
X110758571Y-61272380D01*
X110663333Y-61415238D01*
X110568095Y-61510476D01*
X110472857Y-61558095D01*
X75166666Y-56904761D02*
X75309523Y-56952380D01*
X75547619Y-56952380D01*
X75642857Y-56904761D01*
X75690476Y-56857142D01*
X75738095Y-56761904D01*
X75738095Y-56666666D01*
X75690476Y-56571428D01*
X75642857Y-56523809D01*
X75547619Y-56476190D01*
X75357142Y-56428571D01*
X75261904Y-56380952D01*
X75214285Y-56333333D01*
X75166666Y-56238095D01*
X75166666Y-56142857D01*
X75214285Y-56047619D01*
X75261904Y-56000000D01*
X75357142Y-55952380D01*
X75595238Y-55952380D01*
X75738095Y-56000000D01*
X76071428Y-55952380D02*
X76309523Y-56952380D01*
X76500000Y-56238095D01*
X76690476Y-56952380D01*
X76928571Y-55952380D01*
X77357142Y-56952380D02*
X77547619Y-56952380D01*
X77642857Y-56904761D01*
X77690476Y-56857142D01*
X77785714Y-56714285D01*
X77833333Y-56523809D01*
X77833333Y-56142857D01*
X77785714Y-56047619D01*
X77738095Y-56000000D01*
X77642857Y-55952380D01*
X77452380Y-55952380D01*
X77357142Y-56000000D01*
X77309523Y-56047619D01*
X77261904Y-56142857D01*
X77261904Y-56380952D01*
X77309523Y-56476190D01*
X77357142Y-56523809D01*
X77452380Y-56571428D01*
X77642857Y-56571428D01*
X77738095Y-56523809D01*
X77785714Y-56476190D01*
X77833333Y-56380952D01*
X72166666Y-119452380D02*
X72166666Y-120166666D01*
X72119047Y-120309523D01*
X72023809Y-120404761D01*
X71880952Y-120452380D01*
X71785714Y-120452380D01*
X73166666Y-120452380D02*
X72595238Y-120452380D01*
X72880952Y-120452380D02*
X72880952Y-119452380D01*
X72785714Y-119595238D01*
X72690476Y-119690476D01*
X72595238Y-119738095D01*
X123916666Y-61952380D02*
X123916666Y-62666666D01*
X123869047Y-62809523D01*
X123773809Y-62904761D01*
X123630952Y-62952380D01*
X123535714Y-62952380D01*
X124345238Y-62047619D02*
X124392857Y-62000000D01*
X124488095Y-61952380D01*
X124726190Y-61952380D01*
X124821428Y-62000000D01*
X124869047Y-62047619D01*
X124916666Y-62142857D01*
X124916666Y-62238095D01*
X124869047Y-62380952D01*
X124297619Y-62952380D01*
X124916666Y-62952380D01*
X114293333Y-67777142D02*
X114245714Y-67824761D01*
X114102857Y-67872380D01*
X114007619Y-67872380D01*
X113864761Y-67824761D01*
X113769523Y-67729523D01*
X113721904Y-67634285D01*
X113674285Y-67443809D01*
X113674285Y-67300952D01*
X113721904Y-67110476D01*
X113769523Y-67015238D01*
X113864761Y-66920000D01*
X114007619Y-66872380D01*
X114102857Y-66872380D01*
X114245714Y-66920000D01*
X114293333Y-66967619D01*
X114864761Y-67300952D02*
X114769523Y-67253333D01*
X114721904Y-67205714D01*
X114674285Y-67110476D01*
X114674285Y-67062857D01*
X114721904Y-66967619D01*
X114769523Y-66920000D01*
X114864761Y-66872380D01*
X115055238Y-66872380D01*
X115150476Y-66920000D01*
X115198095Y-66967619D01*
X115245714Y-67062857D01*
X115245714Y-67110476D01*
X115198095Y-67205714D01*
X115150476Y-67253333D01*
X115055238Y-67300952D01*
X114864761Y-67300952D01*
X114769523Y-67348571D01*
X114721904Y-67396190D01*
X114674285Y-67491428D01*
X114674285Y-67681904D01*
X114721904Y-67777142D01*
X114769523Y-67824761D01*
X114864761Y-67872380D01*
X115055238Y-67872380D01*
X115150476Y-67824761D01*
X115198095Y-67777142D01*
X115245714Y-67681904D01*
X115245714Y-67491428D01*
X115198095Y-67396190D01*
X115150476Y-67348571D01*
X115055238Y-67300952D01*
X85583333Y-83202380D02*
X85250000Y-82726190D01*
X85011904Y-83202380D02*
X85011904Y-82202380D01*
X85392857Y-82202380D01*
X85488095Y-82250000D01*
X85535714Y-82297619D01*
X85583333Y-82392857D01*
X85583333Y-82535714D01*
X85535714Y-82630952D01*
X85488095Y-82678571D01*
X85392857Y-82726190D01*
X85011904Y-82726190D01*
X86488095Y-82202380D02*
X86011904Y-82202380D01*
X85964285Y-82678571D01*
X86011904Y-82630952D01*
X86107142Y-82583333D01*
X86345238Y-82583333D01*
X86440476Y-82630952D01*
X86488095Y-82678571D01*
X86535714Y-82773809D01*
X86535714Y-83011904D01*
X86488095Y-83107142D01*
X86440476Y-83154761D01*
X86345238Y-83202380D01*
X86107142Y-83202380D01*
X86011904Y-83154761D01*
X85964285Y-83107142D01*
X98107142Y-77642857D02*
X98154761Y-77690476D01*
X98202380Y-77833333D01*
X98202380Y-77928571D01*
X98154761Y-78071428D01*
X98059523Y-78166666D01*
X97964285Y-78214285D01*
X97773809Y-78261904D01*
X97630952Y-78261904D01*
X97440476Y-78214285D01*
X97345238Y-78166666D01*
X97250000Y-78071428D01*
X97202380Y-77928571D01*
X97202380Y-77833333D01*
X97250000Y-77690476D01*
X97297619Y-77642857D01*
X98202380Y-76690476D02*
X98202380Y-77261904D01*
X98202380Y-76976190D02*
X97202380Y-76976190D01*
X97345238Y-77071428D01*
X97440476Y-77166666D01*
X97488095Y-77261904D01*
X97202380Y-75833333D02*
X97202380Y-76023809D01*
X97250000Y-76119047D01*
X97297619Y-76166666D01*
X97440476Y-76261904D01*
X97630952Y-76309523D01*
X98011904Y-76309523D01*
X98107142Y-76261904D01*
X98154761Y-76214285D01*
X98202380Y-76119047D01*
X98202380Y-75928571D01*
X98154761Y-75833333D01*
X98107142Y-75785714D01*
X98011904Y-75738095D01*
X97773809Y-75738095D01*
X97678571Y-75785714D01*
X97630952Y-75833333D01*
X97583333Y-75928571D01*
X97583333Y-76119047D01*
X97630952Y-76214285D01*
X97678571Y-76261904D01*
X97773809Y-76309523D01*
X111738095Y-79952380D02*
X111738095Y-80761904D01*
X111785714Y-80857142D01*
X111833333Y-80904761D01*
X111928571Y-80952380D01*
X112119047Y-80952380D01*
X112214285Y-80904761D01*
X112261904Y-80857142D01*
X112309523Y-80761904D01*
X112309523Y-79952380D01*
X113214285Y-79952380D02*
X113023809Y-79952380D01*
X112928571Y-80000000D01*
X112880952Y-80047619D01*
X112785714Y-80190476D01*
X112738095Y-80380952D01*
X112738095Y-80761904D01*
X112785714Y-80857142D01*
X112833333Y-80904761D01*
X112928571Y-80952380D01*
X113119047Y-80952380D01*
X113214285Y-80904761D01*
X113261904Y-80857142D01*
X113309523Y-80761904D01*
X113309523Y-80523809D01*
X113261904Y-80428571D01*
X113214285Y-80380952D01*
X113119047Y-80333333D01*
X112928571Y-80333333D01*
X112833333Y-80380952D01*
X112785714Y-80428571D01*
X112738095Y-80523809D01*
X106547969Y-74207106D02*
X106547969Y-74274450D01*
X106480625Y-74409137D01*
X106413282Y-74476480D01*
X106278595Y-74543824D01*
X106143908Y-74543824D01*
X106042893Y-74510152D01*
X105874534Y-74409137D01*
X105773519Y-74308122D01*
X105672503Y-74139763D01*
X105638832Y-74038748D01*
X105638832Y-73904061D01*
X105706175Y-73769374D01*
X105773519Y-73702030D01*
X105908206Y-73634687D01*
X105975549Y-73634687D01*
X107288748Y-73601015D02*
X106884687Y-74005076D01*
X107086717Y-73803045D02*
X106379610Y-73095938D01*
X106413282Y-73264297D01*
X106413282Y-73398984D01*
X106379610Y-73500000D01*
X107221404Y-72254145D02*
X106884687Y-72590862D01*
X107187732Y-72961251D01*
X107187732Y-72893908D01*
X107221404Y-72792893D01*
X107389763Y-72624534D01*
X107490778Y-72590862D01*
X107558122Y-72590862D01*
X107659137Y-72624534D01*
X107827496Y-72792893D01*
X107861167Y-72893908D01*
X107861167Y-72961251D01*
X107827496Y-73062267D01*
X107659137Y-73230625D01*
X107558122Y-73264297D01*
X107490778Y-73264297D01*
X86867142Y-46382380D02*
X86533809Y-45906190D01*
X86295714Y-46382380D02*
X86295714Y-45382380D01*
X86676666Y-45382380D01*
X86771904Y-45430000D01*
X86819523Y-45477619D01*
X86867142Y-45572857D01*
X86867142Y-45715714D01*
X86819523Y-45810952D01*
X86771904Y-45858571D01*
X86676666Y-45906190D01*
X86295714Y-45906190D01*
X87819523Y-46382380D02*
X87248095Y-46382380D01*
X87533809Y-46382380D02*
X87533809Y-45382380D01*
X87438571Y-45525238D01*
X87343333Y-45620476D01*
X87248095Y-45668095D01*
X88390952Y-45810952D02*
X88295714Y-45763333D01*
X88248095Y-45715714D01*
X88200476Y-45620476D01*
X88200476Y-45572857D01*
X88248095Y-45477619D01*
X88295714Y-45430000D01*
X88390952Y-45382380D01*
X88581428Y-45382380D01*
X88676666Y-45430000D01*
X88724285Y-45477619D01*
X88771904Y-45572857D01*
X88771904Y-45620476D01*
X88724285Y-45715714D01*
X88676666Y-45763333D01*
X88581428Y-45810952D01*
X88390952Y-45810952D01*
X88295714Y-45858571D01*
X88248095Y-45906190D01*
X88200476Y-46001428D01*
X88200476Y-46191904D01*
X88248095Y-46287142D01*
X88295714Y-46334761D01*
X88390952Y-46382380D01*
X88581428Y-46382380D01*
X88676666Y-46334761D01*
X88724285Y-46287142D01*
X88771904Y-46191904D01*
X88771904Y-46001428D01*
X88724285Y-45906190D01*
X88676666Y-45858571D01*
X88581428Y-45810952D01*
X83107142Y-48662380D02*
X82773809Y-48186190D01*
X82535714Y-48662380D02*
X82535714Y-47662380D01*
X82916666Y-47662380D01*
X83011904Y-47710000D01*
X83059523Y-47757619D01*
X83107142Y-47852857D01*
X83107142Y-47995714D01*
X83059523Y-48090952D01*
X83011904Y-48138571D01*
X82916666Y-48186190D01*
X82535714Y-48186190D01*
X84059523Y-48662380D02*
X83488095Y-48662380D01*
X83773809Y-48662380D02*
X83773809Y-47662380D01*
X83678571Y-47805238D01*
X83583333Y-47900476D01*
X83488095Y-47948095D01*
X84964285Y-47662380D02*
X84488095Y-47662380D01*
X84440476Y-48138571D01*
X84488095Y-48090952D01*
X84583333Y-48043333D01*
X84821428Y-48043333D01*
X84916666Y-48090952D01*
X84964285Y-48138571D01*
X85011904Y-48233809D01*
X85011904Y-48471904D01*
X84964285Y-48567142D01*
X84916666Y-48614761D01*
X84821428Y-48662380D01*
X84583333Y-48662380D01*
X84488095Y-48614761D01*
X84440476Y-48567142D01*
X80738095Y-64892380D02*
X80738095Y-65701904D01*
X80785714Y-65797142D01*
X80833333Y-65844761D01*
X80928571Y-65892380D01*
X81119047Y-65892380D01*
X81214285Y-65844761D01*
X81261904Y-65797142D01*
X81309523Y-65701904D01*
X81309523Y-64892380D01*
X81690476Y-64892380D02*
X82309523Y-64892380D01*
X81976190Y-65273333D01*
X82119047Y-65273333D01*
X82214285Y-65320952D01*
X82261904Y-65368571D01*
X82309523Y-65463809D01*
X82309523Y-65701904D01*
X82261904Y-65797142D01*
X82214285Y-65844761D01*
X82119047Y-65892380D01*
X81833333Y-65892380D01*
X81738095Y-65844761D01*
X81690476Y-65797142D01*
X104683333Y-79372380D02*
X104350000Y-78896190D01*
X104111904Y-79372380D02*
X104111904Y-78372380D01*
X104492857Y-78372380D01*
X104588095Y-78420000D01*
X104635714Y-78467619D01*
X104683333Y-78562857D01*
X104683333Y-78705714D01*
X104635714Y-78800952D01*
X104588095Y-78848571D01*
X104492857Y-78896190D01*
X104111904Y-78896190D01*
X105016666Y-78372380D02*
X105683333Y-78372380D01*
X105254761Y-79372380D01*
X113333333Y-90202380D02*
X113000000Y-89726190D01*
X112761904Y-90202380D02*
X112761904Y-89202380D01*
X113142857Y-89202380D01*
X113238095Y-89250000D01*
X113285714Y-89297619D01*
X113333333Y-89392857D01*
X113333333Y-89535714D01*
X113285714Y-89630952D01*
X113238095Y-89678571D01*
X113142857Y-89726190D01*
X112761904Y-89726190D01*
X114285714Y-90202380D02*
X113714285Y-90202380D01*
X114000000Y-90202380D02*
X114000000Y-89202380D01*
X113904761Y-89345238D01*
X113809523Y-89440476D01*
X113714285Y-89488095D01*
X117166666Y-53004761D02*
X117309523Y-53052380D01*
X117547619Y-53052380D01*
X117642857Y-53004761D01*
X117690476Y-52957142D01*
X117738095Y-52861904D01*
X117738095Y-52766666D01*
X117690476Y-52671428D01*
X117642857Y-52623809D01*
X117547619Y-52576190D01*
X117357142Y-52528571D01*
X117261904Y-52480952D01*
X117214285Y-52433333D01*
X117166666Y-52338095D01*
X117166666Y-52242857D01*
X117214285Y-52147619D01*
X117261904Y-52100000D01*
X117357142Y-52052380D01*
X117595238Y-52052380D01*
X117738095Y-52100000D01*
X118071428Y-52052380D02*
X118309523Y-53052380D01*
X118500000Y-52338095D01*
X118690476Y-53052380D01*
X118928571Y-52052380D01*
X119214285Y-52052380D02*
X119880952Y-52052380D01*
X119452380Y-53052380D01*
X98357142Y-62642857D02*
X98404761Y-62690476D01*
X98452380Y-62833333D01*
X98452380Y-62928571D01*
X98404761Y-63071428D01*
X98309523Y-63166666D01*
X98214285Y-63214285D01*
X98023809Y-63261904D01*
X97880952Y-63261904D01*
X97690476Y-63214285D01*
X97595238Y-63166666D01*
X97500000Y-63071428D01*
X97452380Y-62928571D01*
X97452380Y-62833333D01*
X97500000Y-62690476D01*
X97547619Y-62642857D01*
X98452380Y-61690476D02*
X98452380Y-62261904D01*
X98452380Y-61976190D02*
X97452380Y-61976190D01*
X97595238Y-62071428D01*
X97690476Y-62166666D01*
X97738095Y-62261904D01*
X98452380Y-61214285D02*
X98452380Y-61023809D01*
X98404761Y-60928571D01*
X98357142Y-60880952D01*
X98214285Y-60785714D01*
X98023809Y-60738095D01*
X97642857Y-60738095D01*
X97547619Y-60785714D01*
X97500000Y-60833333D01*
X97452380Y-60928571D01*
X97452380Y-61119047D01*
X97500000Y-61214285D01*
X97547619Y-61261904D01*
X97642857Y-61309523D01*
X97880952Y-61309523D01*
X97976190Y-61261904D01*
X98023809Y-61214285D01*
X98071428Y-61119047D01*
X98071428Y-60928571D01*
X98023809Y-60833333D01*
X97976190Y-60785714D01*
X97880952Y-60738095D01*
X100738095Y-39952380D02*
X100738095Y-40761904D01*
X100785714Y-40857142D01*
X100833333Y-40904761D01*
X100928571Y-40952380D01*
X101119047Y-40952380D01*
X101214285Y-40904761D01*
X101261904Y-40857142D01*
X101309523Y-40761904D01*
X101309523Y-39952380D01*
X102214285Y-40285714D02*
X102214285Y-40952380D01*
X101976190Y-39904761D02*
X101738095Y-40619047D01*
X102357142Y-40619047D01*
X82738095Y-79952380D02*
X82738095Y-80761904D01*
X82785714Y-80857142D01*
X82833333Y-80904761D01*
X82928571Y-80952380D01*
X83119047Y-80952380D01*
X83214285Y-80904761D01*
X83261904Y-80857142D01*
X83309523Y-80761904D01*
X83309523Y-79952380D01*
X83738095Y-80047619D02*
X83785714Y-80000000D01*
X83880952Y-79952380D01*
X84119047Y-79952380D01*
X84214285Y-80000000D01*
X84261904Y-80047619D01*
X84309523Y-80142857D01*
X84309523Y-80238095D01*
X84261904Y-80380952D01*
X83690476Y-80952380D01*
X84309523Y-80952380D01*
X76583333Y-92382380D02*
X76250000Y-91906190D01*
X76011904Y-92382380D02*
X76011904Y-91382380D01*
X76392857Y-91382380D01*
X76488095Y-91430000D01*
X76535714Y-91477619D01*
X76583333Y-91572857D01*
X76583333Y-91715714D01*
X76535714Y-91810952D01*
X76488095Y-91858571D01*
X76392857Y-91906190D01*
X76011904Y-91906190D01*
X76964285Y-91477619D02*
X77011904Y-91430000D01*
X77107142Y-91382380D01*
X77345238Y-91382380D01*
X77440476Y-91430000D01*
X77488095Y-91477619D01*
X77535714Y-91572857D01*
X77535714Y-91668095D01*
X77488095Y-91810952D01*
X76916666Y-92382380D01*
X77535714Y-92382380D01*
X93738095Y-79952380D02*
X93738095Y-80761904D01*
X93785714Y-80857142D01*
X93833333Y-80904761D01*
X93928571Y-80952380D01*
X94119047Y-80952380D01*
X94214285Y-80904761D01*
X94261904Y-80857142D01*
X94309523Y-80761904D01*
X94309523Y-79952380D01*
X95261904Y-79952380D02*
X94785714Y-79952380D01*
X94738095Y-80428571D01*
X94785714Y-80380952D01*
X94880952Y-80333333D01*
X95119047Y-80333333D01*
X95214285Y-80380952D01*
X95261904Y-80428571D01*
X95309523Y-80523809D01*
X95309523Y-80761904D01*
X95261904Y-80857142D01*
X95214285Y-80904761D01*
X95119047Y-80952380D01*
X94880952Y-80952380D01*
X94785714Y-80904761D01*
X94738095Y-80857142D01*
X123273333Y-61422380D02*
X122940000Y-60946190D01*
X122701904Y-61422380D02*
X122701904Y-60422380D01*
X123082857Y-60422380D01*
X123178095Y-60470000D01*
X123225714Y-60517619D01*
X123273333Y-60612857D01*
X123273333Y-60755714D01*
X123225714Y-60850952D01*
X123178095Y-60898571D01*
X123082857Y-60946190D01*
X122701904Y-60946190D01*
X123844761Y-60850952D02*
X123749523Y-60803333D01*
X123701904Y-60755714D01*
X123654285Y-60660476D01*
X123654285Y-60612857D01*
X123701904Y-60517619D01*
X123749523Y-60470000D01*
X123844761Y-60422380D01*
X124035238Y-60422380D01*
X124130476Y-60470000D01*
X124178095Y-60517619D01*
X124225714Y-60612857D01*
X124225714Y-60660476D01*
X124178095Y-60755714D01*
X124130476Y-60803333D01*
X124035238Y-60850952D01*
X123844761Y-60850952D01*
X123749523Y-60898571D01*
X123701904Y-60946190D01*
X123654285Y-61041428D01*
X123654285Y-61231904D01*
X123701904Y-61327142D01*
X123749523Y-61374761D01*
X123844761Y-61422380D01*
X124035238Y-61422380D01*
X124130476Y-61374761D01*
X124178095Y-61327142D01*
X124225714Y-61231904D01*
X124225714Y-61041428D01*
X124178095Y-60946190D01*
X124130476Y-60898571D01*
X124035238Y-60850952D01*
X95238095Y-75452380D02*
X95238095Y-76261904D01*
X95285714Y-76357142D01*
X95333333Y-76404761D01*
X95428571Y-76452380D01*
X95619047Y-76452380D01*
X95714285Y-76404761D01*
X95761904Y-76357142D01*
X95809523Y-76261904D01*
X95809523Y-75452380D01*
X96809523Y-76452380D02*
X96238095Y-76452380D01*
X96523809Y-76452380D02*
X96523809Y-75452380D01*
X96428571Y-75595238D01*
X96333333Y-75690476D01*
X96238095Y-75738095D01*
X85833333Y-91952380D02*
X85500000Y-91476190D01*
X85261904Y-91952380D02*
X85261904Y-90952380D01*
X85642857Y-90952380D01*
X85738095Y-91000000D01*
X85785714Y-91047619D01*
X85833333Y-91142857D01*
X85833333Y-91285714D01*
X85785714Y-91380952D01*
X85738095Y-91428571D01*
X85642857Y-91476190D01*
X85261904Y-91476190D01*
X86690476Y-91285714D02*
X86690476Y-91952380D01*
X86452380Y-90904761D02*
X86214285Y-91619047D01*
X86833333Y-91619047D01*
X112293333Y-64107142D02*
X112245714Y-64154761D01*
X112102857Y-64202380D01*
X112007619Y-64202380D01*
X111864761Y-64154761D01*
X111769523Y-64059523D01*
X111721904Y-63964285D01*
X111674285Y-63773809D01*
X111674285Y-63630952D01*
X111721904Y-63440476D01*
X111769523Y-63345238D01*
X111864761Y-63250000D01*
X112007619Y-63202380D01*
X112102857Y-63202380D01*
X112245714Y-63250000D01*
X112293333Y-63297619D01*
X112626666Y-63202380D02*
X113293333Y-63202380D01*
X112864761Y-64202380D01*
X89857142Y-68857142D02*
X89809523Y-68904761D01*
X89666666Y-68952380D01*
X89571428Y-68952380D01*
X89428571Y-68904761D01*
X89333333Y-68809523D01*
X89285714Y-68714285D01*
X89238095Y-68523809D01*
X89238095Y-68380952D01*
X89285714Y-68190476D01*
X89333333Y-68095238D01*
X89428571Y-68000000D01*
X89571428Y-67952380D01*
X89666666Y-67952380D01*
X89809523Y-68000000D01*
X89857142Y-68047619D01*
X90809523Y-68952380D02*
X90238095Y-68952380D01*
X90523809Y-68952380D02*
X90523809Y-67952380D01*
X90428571Y-68095238D01*
X90333333Y-68190476D01*
X90238095Y-68238095D01*
X91380952Y-68380952D02*
X91285714Y-68333333D01*
X91238095Y-68285714D01*
X91190476Y-68190476D01*
X91190476Y-68142857D01*
X91238095Y-68047619D01*
X91285714Y-68000000D01*
X91380952Y-67952380D01*
X91571428Y-67952380D01*
X91666666Y-68000000D01*
X91714285Y-68047619D01*
X91761904Y-68142857D01*
X91761904Y-68190476D01*
X91714285Y-68285714D01*
X91666666Y-68333333D01*
X91571428Y-68380952D01*
X91380952Y-68380952D01*
X91285714Y-68428571D01*
X91238095Y-68476190D01*
X91190476Y-68571428D01*
X91190476Y-68761904D01*
X91238095Y-68857142D01*
X91285714Y-68904761D01*
X91380952Y-68952380D01*
X91571428Y-68952380D01*
X91666666Y-68904761D01*
X91714285Y-68857142D01*
X91761904Y-68761904D01*
X91761904Y-68571428D01*
X91714285Y-68476190D01*
X91666666Y-68428571D01*
X91571428Y-68380952D01*
X82666666Y-49928571D02*
X82333333Y-49928571D01*
X82333333Y-50452380D02*
X82333333Y-49452380D01*
X82809523Y-49452380D01*
X83714285Y-50452380D02*
X83142857Y-50452380D01*
X83428571Y-50452380D02*
X83428571Y-49452380D01*
X83333333Y-49595238D01*
X83238095Y-49690476D01*
X83142857Y-49738095D01*
X101857142Y-78142857D02*
X101904761Y-78190476D01*
X101952380Y-78333333D01*
X101952380Y-78428571D01*
X101904761Y-78571428D01*
X101809523Y-78666666D01*
X101714285Y-78714285D01*
X101523809Y-78761904D01*
X101380952Y-78761904D01*
X101190476Y-78714285D01*
X101095238Y-78666666D01*
X101000000Y-78571428D01*
X100952380Y-78428571D01*
X100952380Y-78333333D01*
X101000000Y-78190476D01*
X101047619Y-78142857D01*
X101952380Y-77190476D02*
X101952380Y-77761904D01*
X101952380Y-77476190D02*
X100952380Y-77476190D01*
X101095238Y-77571428D01*
X101190476Y-77666666D01*
X101238095Y-77761904D01*
X100952380Y-76571428D02*
X100952380Y-76476190D01*
X101000000Y-76380952D01*
X101047619Y-76333333D01*
X101142857Y-76285714D01*
X101333333Y-76238095D01*
X101571428Y-76238095D01*
X101761904Y-76285714D01*
X101857142Y-76333333D01*
X101904761Y-76380952D01*
X101952380Y-76476190D01*
X101952380Y-76571428D01*
X101904761Y-76666666D01*
X101857142Y-76714285D01*
X101761904Y-76761904D01*
X101571428Y-76809523D01*
X101333333Y-76809523D01*
X101142857Y-76761904D01*
X101047619Y-76714285D01*
X101000000Y-76666666D01*
X100952380Y-76571428D01*
X112357142Y-70452380D02*
X112023809Y-69976190D01*
X111785714Y-70452380D02*
X111785714Y-69452380D01*
X112166666Y-69452380D01*
X112261904Y-69500000D01*
X112309523Y-69547619D01*
X112357142Y-69642857D01*
X112357142Y-69785714D01*
X112309523Y-69880952D01*
X112261904Y-69928571D01*
X112166666Y-69976190D01*
X111785714Y-69976190D01*
X113309523Y-70452380D02*
X112738095Y-70452380D01*
X113023809Y-70452380D02*
X113023809Y-69452380D01*
X112928571Y-69595238D01*
X112833333Y-69690476D01*
X112738095Y-69738095D01*
X113928571Y-69452380D02*
X114023809Y-69452380D01*
X114119047Y-69500000D01*
X114166666Y-69547619D01*
X114214285Y-69642857D01*
X114261904Y-69833333D01*
X114261904Y-70071428D01*
X114214285Y-70261904D01*
X114166666Y-70357142D01*
X114119047Y-70404761D01*
X114023809Y-70452380D01*
X113928571Y-70452380D01*
X113833333Y-70404761D01*
X113785714Y-70357142D01*
X113738095Y-70261904D01*
X113690476Y-70071428D01*
X113690476Y-69833333D01*
X113738095Y-69642857D01*
X113785714Y-69547619D01*
X113833333Y-69500000D01*
X113928571Y-69452380D01*
X95357142Y-62166666D02*
X95404761Y-62214285D01*
X95452380Y-62357142D01*
X95452380Y-62452380D01*
X95404761Y-62595238D01*
X95309523Y-62690476D01*
X95214285Y-62738095D01*
X95023809Y-62785714D01*
X94880952Y-62785714D01*
X94690476Y-62738095D01*
X94595238Y-62690476D01*
X94500000Y-62595238D01*
X94452380Y-62452380D01*
X94452380Y-62357142D01*
X94500000Y-62214285D01*
X94547619Y-62166666D01*
X95452380Y-61690476D02*
X95452380Y-61500000D01*
X95404761Y-61404761D01*
X95357142Y-61357142D01*
X95214285Y-61261904D01*
X95023809Y-61214285D01*
X94642857Y-61214285D01*
X94547619Y-61261904D01*
X94500000Y-61309523D01*
X94452380Y-61404761D01*
X94452380Y-61595238D01*
X94500000Y-61690476D01*
X94547619Y-61738095D01*
X94642857Y-61785714D01*
X94880952Y-61785714D01*
X94976190Y-61738095D01*
X95023809Y-61690476D01*
X95071428Y-61595238D01*
X95071428Y-61404761D01*
X95023809Y-61309523D01*
X94976190Y-61261904D01*
X94880952Y-61214285D01*
X99367142Y-57517142D02*
X99319523Y-57564761D01*
X99176666Y-57612380D01*
X99081428Y-57612380D01*
X98938571Y-57564761D01*
X98843333Y-57469523D01*
X98795714Y-57374285D01*
X98748095Y-57183809D01*
X98748095Y-57040952D01*
X98795714Y-56850476D01*
X98843333Y-56755238D01*
X98938571Y-56660000D01*
X99081428Y-56612380D01*
X99176666Y-56612380D01*
X99319523Y-56660000D01*
X99367142Y-56707619D01*
X100319523Y-57612380D02*
X99748095Y-57612380D01*
X100033809Y-57612380D02*
X100033809Y-56612380D01*
X99938571Y-56755238D01*
X99843333Y-56850476D01*
X99748095Y-56898095D01*
X100700476Y-56707619D02*
X100748095Y-56660000D01*
X100843333Y-56612380D01*
X101081428Y-56612380D01*
X101176666Y-56660000D01*
X101224285Y-56707619D01*
X101271904Y-56802857D01*
X101271904Y-56898095D01*
X101224285Y-57040952D01*
X100652857Y-57612380D01*
X101271904Y-57612380D01*
X95857142Y-40952380D02*
X95523809Y-40476190D01*
X95285714Y-40952380D02*
X95285714Y-39952380D01*
X95666666Y-39952380D01*
X95761904Y-40000000D01*
X95809523Y-40047619D01*
X95857142Y-40142857D01*
X95857142Y-40285714D01*
X95809523Y-40380952D01*
X95761904Y-40428571D01*
X95666666Y-40476190D01*
X95285714Y-40476190D01*
X96809523Y-40952380D02*
X96238095Y-40952380D01*
X96523809Y-40952380D02*
X96523809Y-39952380D01*
X96428571Y-40095238D01*
X96333333Y-40190476D01*
X96238095Y-40238095D01*
X97666666Y-40285714D02*
X97666666Y-40952380D01*
X97428571Y-39904761D02*
X97190476Y-40619047D01*
X97809523Y-40619047D01*
X77333333Y-75452380D02*
X77000000Y-74976190D01*
X76761904Y-75452380D02*
X76761904Y-74452380D01*
X77142857Y-74452380D01*
X77238095Y-74500000D01*
X77285714Y-74547619D01*
X77333333Y-74642857D01*
X77333333Y-74785714D01*
X77285714Y-74880952D01*
X77238095Y-74928571D01*
X77142857Y-74976190D01*
X76761904Y-74976190D01*
X77666666Y-74452380D02*
X78285714Y-74452380D01*
X77952380Y-74833333D01*
X78095238Y-74833333D01*
X78190476Y-74880952D01*
X78238095Y-74928571D01*
X78285714Y-75023809D01*
X78285714Y-75261904D01*
X78238095Y-75357142D01*
X78190476Y-75404761D01*
X78095238Y-75452380D01*
X77809523Y-75452380D01*
X77714285Y-75404761D01*
X77666666Y-75357142D01*
X92357142Y-50642857D02*
X92404761Y-50690476D01*
X92452380Y-50833333D01*
X92452380Y-50928571D01*
X92404761Y-51071428D01*
X92309523Y-51166666D01*
X92214285Y-51214285D01*
X92023809Y-51261904D01*
X91880952Y-51261904D01*
X91690476Y-51214285D01*
X91595238Y-51166666D01*
X91500000Y-51071428D01*
X91452380Y-50928571D01*
X91452380Y-50833333D01*
X91500000Y-50690476D01*
X91547619Y-50642857D01*
X91547619Y-50261904D02*
X91500000Y-50214285D01*
X91452380Y-50119047D01*
X91452380Y-49880952D01*
X91500000Y-49785714D01*
X91547619Y-49738095D01*
X91642857Y-49690476D01*
X91738095Y-49690476D01*
X91880952Y-49738095D01*
X92452380Y-50309523D01*
X92452380Y-49690476D01*
X91452380Y-49357142D02*
X91452380Y-48738095D01*
X91833333Y-49071428D01*
X91833333Y-48928571D01*
X91880952Y-48833333D01*
X91928571Y-48785714D01*
X92023809Y-48738095D01*
X92261904Y-48738095D01*
X92357142Y-48785714D01*
X92404761Y-48833333D01*
X92452380Y-48928571D01*
X92452380Y-49214285D01*
X92404761Y-49309523D01*
X92357142Y-49357142D01*
D13*
X102400000Y-64615835D02*
X102400000Y-64384165D01*
X101680000Y-64615835D02*
X101680000Y-64384165D01*
X96860000Y-64615835D02*
X96860000Y-64384165D01*
X96140000Y-64615835D02*
X96140000Y-64384165D01*
X124035000Y-85000000D02*
X124035000Y-82800000D01*
X115965000Y-85000000D02*
X115965000Y-82800000D01*
X124035000Y-85000000D02*
X124035000Y-87200000D01*
X115965000Y-85000000D02*
X115965000Y-88600000D01*
X93616466Y-74202651D02*
X93452651Y-74366466D01*
X93107349Y-73693534D02*
X92943534Y-73857349D01*
X104884165Y-67860000D02*
X105115835Y-67860000D01*
X104884165Y-67140000D02*
X105115835Y-67140000D01*
X84884165Y-65140000D02*
X85115835Y-65140000D01*
X84884165Y-65860000D02*
X85115835Y-65860000D01*
X93630121Y-67380000D02*
X93294879Y-67380000D01*
X93630121Y-66620000D02*
X93294879Y-66620000D01*
X114477500Y-84745276D02*
X114477500Y-85254724D01*
X115522500Y-84745276D02*
X115522500Y-85254724D01*
X102754724Y-90522500D02*
X102245276Y-90522500D01*
X102754724Y-89477500D02*
X102245276Y-89477500D01*
X95288748Y-49090000D02*
X96711252Y-49090000D01*
X95288748Y-50910000D02*
X96711252Y-50910000D01*
X111700000Y-53000000D02*
G75*
G03*
X111700000Y-53000000I-700000J0D01*
G01*
X93735000Y-64261252D02*
X93735000Y-63738748D01*
X92265000Y-64261252D02*
X92265000Y-63738748D01*
G36*
X87418920Y-74704123D02*
G01*
X87417687Y-74706465D01*
X87411453Y-74712784D01*
X87410290Y-74713082D01*
X87409839Y-74708808D01*
X87411071Y-74706465D01*
X87417305Y-74700147D01*
X87418468Y-74699849D01*
X87418920Y-74704123D01*
G37*
G36*
X83779951Y-74082190D02*
G01*
X83778719Y-74084533D01*
X83772485Y-74090851D01*
X83771322Y-74091149D01*
X83770870Y-74086875D01*
X83772102Y-74084533D01*
X83778336Y-74078214D01*
X83779500Y-74077916D01*
X83779951Y-74082190D01*
G37*
G36*
X87665799Y-72843975D02*
G01*
X87662491Y-72847283D01*
X87659182Y-72843975D01*
X87662491Y-72840667D01*
X87665799Y-72843975D01*
G37*
G36*
X84734506Y-77000510D02*
G01*
X84734775Y-77002324D01*
X84732518Y-77008768D01*
X84731857Y-77008940D01*
X84726209Y-77004304D01*
X84724851Y-77002324D01*
X84725375Y-76996227D01*
X84727768Y-76995707D01*
X84734506Y-77000510D01*
G37*
G36*
X87863266Y-73531439D02*
G01*
X87870313Y-73537590D01*
X87870904Y-73539078D01*
X87867764Y-73541797D01*
X87861227Y-73535704D01*
X87860348Y-73534357D01*
X87859568Y-73529829D01*
X87863266Y-73531439D01*
G37*
G36*
X87637128Y-72816407D02*
G01*
X87636220Y-72820341D01*
X87632717Y-72820818D01*
X87627271Y-72818397D01*
X87628306Y-72816407D01*
X87636158Y-72815615D01*
X87637128Y-72816407D01*
G37*
G36*
X84732068Y-72592873D02*
G01*
X84727628Y-72602480D01*
X84719732Y-72617932D01*
X84715817Y-72622234D01*
X84714926Y-72618080D01*
X84718708Y-72608369D01*
X84725216Y-72598782D01*
X84732056Y-72590649D01*
X84732068Y-72592873D01*
G37*
G36*
X86128740Y-76477293D02*
G01*
X86127508Y-76479636D01*
X86121274Y-76485954D01*
X86120110Y-76486252D01*
X86119659Y-76481978D01*
X86120891Y-76479636D01*
X86127125Y-76473317D01*
X86128288Y-76473019D01*
X86128740Y-76477293D01*
G37*
G36*
X87744172Y-73796092D02*
G01*
X87751219Y-73802242D01*
X87751811Y-73803730D01*
X87748671Y-73806450D01*
X87742133Y-73800356D01*
X87741254Y-73799009D01*
X87740475Y-73794482D01*
X87744172Y-73796092D01*
G37*
G36*
X83954051Y-75530196D02*
G01*
X83950743Y-75533504D01*
X83947435Y-75530196D01*
X83950743Y-75526887D01*
X83954051Y-75530196D01*
G37*
G36*
X84699488Y-72651000D02*
G01*
X84700280Y-72658852D01*
X84699488Y-72659821D01*
X84695555Y-72658913D01*
X84695077Y-72655411D01*
X84697498Y-72649965D01*
X84699488Y-72651000D01*
G37*
G36*
X86438130Y-72282373D02*
G01*
X86447443Y-72287712D01*
X86445883Y-72291164D01*
X86442173Y-72291514D01*
X86433201Y-72286708D01*
X86431904Y-72284973D01*
X86432969Y-72281213D01*
X86438130Y-72282373D01*
G37*
G36*
X85823864Y-76211676D02*
G01*
X85823157Y-76214983D01*
X85813613Y-76221005D01*
X85809144Y-76221600D01*
X85802602Y-76218291D01*
X85803309Y-76214983D01*
X85812853Y-76208962D01*
X85817322Y-76208367D01*
X85823864Y-76211676D01*
G37*
G36*
X85396406Y-73637932D02*
G01*
X85393098Y-73641240D01*
X85389789Y-73637932D01*
X85393098Y-73634624D01*
X85396406Y-73637932D01*
G37*
G36*
X87872860Y-73460812D02*
G01*
X87874212Y-73462600D01*
X87873910Y-73468706D01*
X87871685Y-73469216D01*
X87862332Y-73464388D01*
X87860980Y-73462600D01*
X87861282Y-73456493D01*
X87863507Y-73455984D01*
X87872860Y-73460812D01*
G37*
G36*
X84118436Y-76025787D02*
G01*
X84125539Y-76032449D01*
X84124082Y-76036279D01*
X84123157Y-76036343D01*
X84117561Y-76031644D01*
X84115519Y-76028704D01*
X84114739Y-76024177D01*
X84118436Y-76025787D01*
G37*
G36*
X87626101Y-73909201D02*
G01*
X87622793Y-73912509D01*
X87619485Y-73909201D01*
X87622793Y-73905892D01*
X87626101Y-73909201D01*
G37*
G36*
X86576000Y-72336026D02*
G01*
X86577416Y-72337828D01*
X86579745Y-72343779D01*
X86573485Y-72341537D01*
X86567492Y-72337828D01*
X86562405Y-72332516D01*
X86565447Y-72331313D01*
X86576000Y-72336026D01*
G37*
G36*
X84443658Y-73611467D02*
G01*
X84440349Y-73614775D01*
X84437041Y-73611467D01*
X84440349Y-73608159D01*
X84443658Y-73611467D01*
G37*
G36*
X84646558Y-76435527D02*
G01*
X84645649Y-76439460D01*
X84642147Y-76439938D01*
X84636701Y-76437517D01*
X84637736Y-76435527D01*
X84645588Y-76434735D01*
X84646558Y-76435527D01*
G37*
G36*
X84792530Y-77329142D02*
G01*
X84790557Y-77332149D01*
X84783846Y-77332617D01*
X84776786Y-77331001D01*
X84779849Y-77328619D01*
X84790189Y-77327831D01*
X84792530Y-77329142D01*
G37*
G36*
X84807554Y-77336447D02*
G01*
X84804246Y-77339755D01*
X84800938Y-77336447D01*
X84804246Y-77333139D01*
X84807554Y-77336447D01*
G37*
G36*
X84615682Y-75424335D02*
G01*
X84612373Y-75427643D01*
X84609065Y-75424335D01*
X84612373Y-75421027D01*
X84615682Y-75424335D01*
G37*
G36*
X87731674Y-73805434D02*
G01*
X87731962Y-73809956D01*
X87728499Y-73818762D01*
X87725553Y-73819880D01*
X87721913Y-73815031D01*
X87722953Y-73809956D01*
X87727649Y-73801250D01*
X87729362Y-73800032D01*
X87731674Y-73805434D01*
G37*
G36*
X86296223Y-76502793D02*
G01*
X86292915Y-76506101D01*
X86289607Y-76502793D01*
X86292915Y-76499485D01*
X86296223Y-76502793D01*
G37*
G36*
X84673023Y-76686947D02*
G01*
X84673815Y-76694799D01*
X84673023Y-76695768D01*
X84669089Y-76694860D01*
X84668612Y-76691357D01*
X84671033Y-76685911D01*
X84673023Y-76686947D01*
G37*
G36*
X85965408Y-76615270D02*
G01*
X85962100Y-76618578D01*
X85958792Y-76615270D01*
X85962100Y-76611962D01*
X85965408Y-76615270D01*
G37*
G36*
X84642147Y-76350618D02*
G01*
X84638839Y-76353926D01*
X84635530Y-76350618D01*
X84638839Y-76347309D01*
X84642147Y-76350618D01*
G37*
G36*
X83947435Y-75510347D02*
G01*
X83944126Y-75513655D01*
X83940818Y-75510347D01*
X83944126Y-75507039D01*
X83947435Y-75510347D01*
G37*
G36*
X86494713Y-74034910D02*
G01*
X86491404Y-74038219D01*
X86488096Y-74034910D01*
X86491404Y-74031602D01*
X86494713Y-74034910D01*
G37*
G36*
X83729096Y-74623762D02*
G01*
X83725788Y-74627070D01*
X83722480Y-74623762D01*
X83725788Y-74620454D01*
X83729096Y-74623762D01*
G37*
G36*
X87533473Y-72738114D02*
G01*
X87530164Y-72741423D01*
X87526856Y-72738114D01*
X87530164Y-72734806D01*
X87533473Y-72738114D01*
G37*
G36*
X84708310Y-76873306D02*
G01*
X84705002Y-76876614D01*
X84701693Y-76873306D01*
X84705002Y-76869998D01*
X84708310Y-76873306D01*
G37*
G36*
X84668612Y-72718265D02*
G01*
X84665304Y-72721574D01*
X84661996Y-72718265D01*
X84665304Y-72714957D01*
X84668612Y-72718265D01*
G37*
G36*
X84495323Y-73203192D02*
G01*
X84496588Y-73210399D01*
X84494350Y-73222653D01*
X84489708Y-73227068D01*
X84485768Y-73221726D01*
X84485150Y-73217468D01*
X84487195Y-73205087D01*
X84490393Y-73200996D01*
X84495323Y-73203192D01*
G37*
G36*
X84423809Y-73803340D02*
G01*
X84420500Y-73806648D01*
X84417192Y-73803340D01*
X84420500Y-73800032D01*
X84423809Y-73803340D01*
G37*
G36*
X84437041Y-73684246D02*
G01*
X84433733Y-73687554D01*
X84430425Y-73684246D01*
X84433733Y-73680938D01*
X84437041Y-73684246D01*
G37*
G36*
X84767857Y-72519776D02*
G01*
X84764548Y-72523084D01*
X84761240Y-72519776D01*
X84764548Y-72516468D01*
X84767857Y-72519776D01*
G37*
G36*
X85363324Y-73267419D02*
G01*
X85360016Y-73270727D01*
X85356708Y-73267419D01*
X85360016Y-73264111D01*
X85363324Y-73267419D01*
G37*
G36*
X86190362Y-72215426D02*
G01*
X86187054Y-72218734D01*
X86183746Y-72215426D01*
X86187054Y-72212118D01*
X86190362Y-72215426D01*
G37*
G36*
X84609065Y-75186148D02*
G01*
X84605757Y-75189456D01*
X84602449Y-75186148D01*
X84605757Y-75182840D01*
X84609065Y-75186148D01*
G37*
G36*
X86554259Y-72327903D02*
G01*
X86550951Y-72331212D01*
X86547643Y-72327903D01*
X86550951Y-72324595D01*
X86554259Y-72327903D01*
G37*
G36*
X87758427Y-73776874D02*
G01*
X87755119Y-73780183D01*
X87751811Y-73776874D01*
X87755119Y-73773566D01*
X87758427Y-73776874D01*
G37*
G36*
X85580640Y-73035216D02*
G01*
X85587743Y-73041878D01*
X85586286Y-73045708D01*
X85585361Y-73045773D01*
X85579765Y-73041073D01*
X85577722Y-73038134D01*
X85576942Y-73033607D01*
X85580640Y-73035216D01*
G37*
G36*
X86203595Y-72222042D02*
G01*
X86200287Y-72225351D01*
X86196979Y-72222042D01*
X86200287Y-72218734D01*
X86203595Y-72222042D01*
G37*
G36*
X86124199Y-74048143D02*
G01*
X86120891Y-74051451D01*
X86117583Y-74048143D01*
X86120891Y-74044835D01*
X86124199Y-74048143D01*
G37*
G36*
X83716013Y-74961586D02*
G01*
X83714372Y-74947961D01*
X83715864Y-74947961D01*
X83719172Y-74951269D01*
X83722480Y-74947961D01*
X83719172Y-74944653D01*
X83715864Y-74947961D01*
X83714372Y-74947961D01*
X83714056Y-74945342D01*
X83717453Y-74939093D01*
X83720176Y-74931868D01*
X83713493Y-74927556D01*
X83706305Y-74920923D01*
X83708166Y-74915761D01*
X83717109Y-74894961D01*
X83718515Y-74867849D01*
X83715146Y-74849174D01*
X83711496Y-74829024D01*
X83714588Y-74817648D01*
X83715334Y-74816826D01*
X83720749Y-74806839D01*
X83722527Y-74794622D01*
X83720754Y-74785008D01*
X83715516Y-74782830D01*
X83714739Y-74783248D01*
X83709988Y-74783696D01*
X83712182Y-74775368D01*
X83719618Y-74755069D01*
X83720856Y-74744037D01*
X83715895Y-74739849D01*
X83712174Y-74739547D01*
X83704730Y-74738618D01*
X83705916Y-74733772D01*
X83713572Y-74724660D01*
X83723608Y-74707074D01*
X83728048Y-74688464D01*
X83731244Y-74666664D01*
X83736197Y-74648955D01*
X83739487Y-74633066D01*
X83741339Y-74609278D01*
X83741380Y-74584139D01*
X83741365Y-74559429D01*
X83742988Y-74539205D01*
X83745897Y-74527793D01*
X83745949Y-74527712D01*
X83750230Y-74513834D01*
X83752057Y-74492793D01*
X83751554Y-74469570D01*
X83748845Y-74449146D01*
X83744053Y-74436502D01*
X83743669Y-74436065D01*
X83738809Y-74427268D01*
X83743854Y-74417413D01*
X83746208Y-74414718D01*
X83756278Y-74406467D01*
X83762151Y-74405407D01*
X83765496Y-74402342D01*
X83765961Y-74393672D01*
X83762429Y-74382746D01*
X83757626Y-74380386D01*
X83753090Y-74377086D01*
X83754321Y-74367239D01*
X83760061Y-74355514D01*
X83766201Y-74348592D01*
X83773385Y-74339004D01*
X83775170Y-74329623D01*
X83771365Y-74325075D01*
X83767140Y-74326141D01*
X83765621Y-74325433D01*
X83772695Y-74318207D01*
X83774476Y-74316618D01*
X83785720Y-74302289D01*
X83786066Y-74286888D01*
X83785515Y-74273564D01*
X83789358Y-74268448D01*
X83793254Y-74262657D01*
X83791536Y-74248168D01*
X83789383Y-74239782D01*
X83784507Y-74216608D01*
X83782113Y-74194243D01*
X83782064Y-74191657D01*
X83780366Y-74177506D01*
X83775995Y-74173560D01*
X83775411Y-74173853D01*
X83769462Y-74174683D01*
X83770318Y-74167395D01*
X83777529Y-74154934D01*
X83778508Y-74153614D01*
X83785719Y-74139242D01*
X83788211Y-74124321D01*
X83785710Y-74113552D01*
X83781001Y-74110998D01*
X83778998Y-74107054D01*
X83785200Y-74097915D01*
X83793676Y-74081702D01*
X83793384Y-74062306D01*
X83792705Y-74045197D01*
X83795942Y-74033649D01*
X83796464Y-74033044D01*
X83797873Y-74023776D01*
X83789516Y-74012626D01*
X83780561Y-74002486D01*
X83780939Y-73996599D01*
X83787200Y-73992120D01*
X83794720Y-73986224D01*
X83791874Y-73980369D01*
X83786007Y-73975575D01*
X83777632Y-73966674D01*
X83780017Y-73958094D01*
X83782115Y-73955408D01*
X83790104Y-73948798D01*
X83796166Y-73953449D01*
X83796228Y-73953547D01*
X83800895Y-73958065D01*
X83801775Y-73954333D01*
X83797572Y-73943750D01*
X83791479Y-73936138D01*
X83785281Y-73928059D01*
X83789618Y-73925692D01*
X83789825Y-73925690D01*
X83795951Y-73919680D01*
X83799269Y-73901394D01*
X83799789Y-73892157D01*
X83799984Y-73872871D01*
X83798224Y-73864516D01*
X83793784Y-73864847D01*
X83791519Y-73866553D01*
X83783701Y-73870321D01*
X83782027Y-73867815D01*
X83786582Y-73858405D01*
X83791593Y-73853260D01*
X83797757Y-73842186D01*
X83795260Y-73829805D01*
X83793445Y-73816572D01*
X83795260Y-73816572D01*
X83798568Y-73819880D01*
X83801876Y-73816572D01*
X83798568Y-73813264D01*
X83795260Y-73816572D01*
X83793445Y-73816572D01*
X83793188Y-73814696D01*
X83798926Y-73806350D01*
X83806787Y-73795592D01*
X83807823Y-73785183D01*
X83801620Y-73780198D01*
X83801066Y-73780183D01*
X83797852Y-73776640D01*
X83802278Y-73769774D01*
X83807360Y-73756752D01*
X83810140Y-73735102D01*
X83810419Y-73721806D01*
X83815770Y-73676824D01*
X83832907Y-73637522D01*
X83854048Y-73611467D01*
X83866403Y-73596086D01*
X83873458Y-73580991D01*
X83874637Y-73569172D01*
X83869368Y-73563617D01*
X83863077Y-73564462D01*
X83859897Y-73563849D01*
X83866343Y-73557327D01*
X83869693Y-73554693D01*
X83881953Y-73543923D01*
X83887806Y-73535890D01*
X83887888Y-73535295D01*
X83892373Y-73527630D01*
X83904152Y-73513637D01*
X83920715Y-73495872D01*
X83939547Y-73476890D01*
X83958136Y-73459248D01*
X83973971Y-73445501D01*
X83981879Y-73439684D01*
X83996097Y-73432942D01*
X84005892Y-73432168D01*
X84006135Y-73432304D01*
X84018801Y-73433148D01*
X84036565Y-73425906D01*
X84055766Y-73412408D01*
X84066352Y-73402180D01*
X84069136Y-73399745D01*
X84086377Y-73399745D01*
X84089685Y-73403053D01*
X84092993Y-73399745D01*
X84089685Y-73396437D01*
X84086377Y-73399745D01*
X84069136Y-73399745D01*
X84082578Y-73387986D01*
X84095287Y-73385312D01*
X84096812Y-73385793D01*
X84111092Y-73384477D01*
X84124150Y-73375288D01*
X84135285Y-73366840D01*
X84148395Y-73362685D01*
X84167971Y-73361794D01*
X84181039Y-73362225D01*
X84205312Y-73362541D01*
X84220993Y-73360089D01*
X84232614Y-73353818D01*
X84238277Y-73348959D01*
X84249026Y-73340958D01*
X84262654Y-73335947D01*
X84282793Y-73333011D01*
X84307724Y-73331465D01*
X84339693Y-73330091D01*
X84362495Y-73329391D01*
X84380181Y-73329399D01*
X84396801Y-73330150D01*
X84416405Y-73331679D01*
X84425527Y-73332475D01*
X84446370Y-73333430D01*
X84458247Y-73332095D01*
X84459872Y-73329746D01*
X84462509Y-73325250D01*
X84472650Y-73323657D01*
X84487270Y-73320665D01*
X84495241Y-73313612D01*
X84493408Y-73305382D01*
X84493037Y-73305022D01*
X84486960Y-73305649D01*
X84485206Y-73308771D01*
X84477974Y-73316460D01*
X84475162Y-73317041D01*
X84473432Y-73313096D01*
X84478647Y-73305356D01*
X84488546Y-73287374D01*
X84496847Y-73257938D01*
X84503175Y-73218770D01*
X84506893Y-73176256D01*
X84509250Y-73149548D01*
X84512687Y-73126667D01*
X84516526Y-73111946D01*
X84517166Y-73110573D01*
X84521213Y-73094226D01*
X84520472Y-73077524D01*
X84520466Y-73059499D01*
X84529492Y-73041208D01*
X84533007Y-73036398D01*
X84542312Y-73022071D01*
X84545766Y-73012218D01*
X84545236Y-73010614D01*
X84545343Y-73002857D01*
X84549326Y-72996383D01*
X84554525Y-72981338D01*
X84553701Y-72964795D01*
X84553160Y-72949836D01*
X84556135Y-72949836D01*
X84559443Y-72953144D01*
X84562751Y-72949836D01*
X84559443Y-72946528D01*
X84556135Y-72949836D01*
X84553160Y-72949836D01*
X84553061Y-72947099D01*
X84560778Y-72933192D01*
X84566543Y-72927292D01*
X84577108Y-72914753D01*
X84576535Y-72907297D01*
X84575470Y-72906512D01*
X84573229Y-72901346D01*
X84581138Y-72897370D01*
X84597271Y-72887383D01*
X84612105Y-72870461D01*
X84622587Y-72851145D01*
X84625663Y-72833979D01*
X84625259Y-72831716D01*
X84626022Y-72812628D01*
X84635140Y-72788502D01*
X84642526Y-72772524D01*
X84645578Y-72762728D01*
X84645035Y-72761271D01*
X84647185Y-72757253D01*
X84656882Y-72746857D01*
X84668057Y-72736076D01*
X84683034Y-72720357D01*
X84692846Y-72706697D01*
X84695077Y-72700496D01*
X84699798Y-72687746D01*
X84705002Y-72681876D01*
X84713463Y-72669493D01*
X84714926Y-72662450D01*
X84717749Y-72653148D01*
X84718184Y-72652102D01*
X84873717Y-72652102D01*
X84877026Y-72655411D01*
X84880334Y-72652102D01*
X84877026Y-72648794D01*
X84873717Y-72652102D01*
X84718184Y-72652102D01*
X84725303Y-72634994D01*
X84736212Y-72610877D01*
X84749103Y-72583686D01*
X84762600Y-72556309D01*
X84775330Y-72531634D01*
X84785917Y-72512551D01*
X84787538Y-72509852D01*
X84792531Y-72497020D01*
X84797076Y-72478067D01*
X84797765Y-72474095D01*
X84807548Y-72447548D01*
X84827895Y-72421766D01*
X84842196Y-72405978D01*
X84851633Y-72393261D01*
X84853877Y-72388051D01*
X84857885Y-72378771D01*
X84867822Y-72364767D01*
X84870971Y-72360985D01*
X84887517Y-72341789D01*
X84904589Y-72322016D01*
X84905699Y-72320732D01*
X84928582Y-72298229D01*
X84935596Y-72293719D01*
X84955319Y-72293719D01*
X84956227Y-72297653D01*
X84959729Y-72298130D01*
X84965175Y-72295709D01*
X84964140Y-72293719D01*
X84956288Y-72292927D01*
X84955319Y-72293719D01*
X84935596Y-72293719D01*
X84950131Y-72284373D01*
X84968132Y-72280486D01*
X84971855Y-72281238D01*
X84984391Y-72280578D01*
X84988512Y-72275170D01*
X84996820Y-72266254D01*
X85001649Y-72265048D01*
X85010664Y-72260473D01*
X85025018Y-72248541D01*
X85039901Y-72233621D01*
X85065435Y-72210332D01*
X85096250Y-72188820D01*
X85128871Y-72170952D01*
X85150043Y-72162496D01*
X85171451Y-72162496D01*
X85174759Y-72165804D01*
X85178068Y-72162496D01*
X85174759Y-72159188D01*
X85171451Y-72162496D01*
X85150043Y-72162496D01*
X85159820Y-72158591D01*
X85185620Y-72153604D01*
X85189007Y-72153614D01*
X85209402Y-72152511D01*
X85226017Y-72148493D01*
X85227794Y-72147658D01*
X85242129Y-72140780D01*
X85261960Y-72132069D01*
X85268435Y-72129362D01*
X85290600Y-72116586D01*
X85310597Y-72099333D01*
X85313963Y-72095431D01*
X85316301Y-72093024D01*
X85330243Y-72093024D01*
X85335277Y-72099449D01*
X85336859Y-72099641D01*
X85343283Y-72094606D01*
X85343475Y-72093024D01*
X85338440Y-72086600D01*
X85336859Y-72086408D01*
X85330435Y-72091443D01*
X85330243Y-72093024D01*
X85316301Y-72093024D01*
X85328629Y-72080333D01*
X85340704Y-72076082D01*
X85344466Y-72076798D01*
X85359717Y-72074977D01*
X85377766Y-72063249D01*
X85395148Y-72051972D01*
X85409478Y-72048685D01*
X85410842Y-72048942D01*
X85425093Y-72047247D01*
X85433392Y-72041860D01*
X85446425Y-72035102D01*
X85466597Y-72030866D01*
X85473748Y-72030319D01*
X85497779Y-72026682D01*
X85507113Y-72020137D01*
X85518874Y-72020137D01*
X85520312Y-72025891D01*
X85525033Y-72026861D01*
X85534107Y-72025327D01*
X85535348Y-72023944D01*
X85530500Y-72017768D01*
X85521776Y-72017630D01*
X85518874Y-72020137D01*
X85507113Y-72020137D01*
X85509906Y-72018179D01*
X85509986Y-72018039D01*
X85521741Y-72008476D01*
X85537207Y-72008676D01*
X85547257Y-72014952D01*
X85553781Y-72019376D01*
X85555197Y-72014181D01*
X85558613Y-72010321D01*
X85972024Y-72010321D01*
X85975332Y-72013629D01*
X85978641Y-72010321D01*
X85975332Y-72007013D01*
X85972024Y-72010321D01*
X85558613Y-72010321D01*
X85560467Y-72008226D01*
X85572806Y-72008836D01*
X85593251Y-72007430D01*
X85613526Y-71999222D01*
X85618666Y-71997088D01*
X85634593Y-71997088D01*
X85637901Y-72000396D01*
X85641209Y-71997088D01*
X85637901Y-71993780D01*
X85634593Y-71997088D01*
X85618666Y-71997088D01*
X85631862Y-71991609D01*
X85647914Y-71989233D01*
X85650501Y-71989610D01*
X85657943Y-71989369D01*
X85689729Y-71989369D01*
X85690637Y-71993302D01*
X85694139Y-71993780D01*
X85699585Y-71991359D01*
X85698550Y-71989369D01*
X85690698Y-71988577D01*
X85689729Y-71989369D01*
X85657943Y-71989369D01*
X85666681Y-71989086D01*
X85680544Y-71984185D01*
X85699497Y-71978921D01*
X85710317Y-71980461D01*
X85754693Y-71992144D01*
X85801281Y-71996221D01*
X85819849Y-71995367D01*
X85848372Y-71993497D01*
X85878162Y-71992878D01*
X85905697Y-71993431D01*
X85927453Y-71995077D01*
X85939909Y-71997736D01*
X85940543Y-71998077D01*
X85950318Y-72000538D01*
X85968985Y-72002763D01*
X85988814Y-72004074D01*
X86013564Y-72006587D01*
X86034964Y-72011209D01*
X86045850Y-72015606D01*
X86060994Y-72021698D01*
X86083470Y-72027057D01*
X86100084Y-72029529D01*
X86123745Y-72033085D01*
X86143704Y-72037773D01*
X86152507Y-72041080D01*
X86168001Y-72046294D01*
X86188853Y-72049851D01*
X86193286Y-72050230D01*
X86258700Y-72057607D01*
X86314286Y-72070432D01*
X86322689Y-72073104D01*
X86347037Y-72080518D01*
X86369794Y-72086381D01*
X86380176Y-72088454D01*
X86397042Y-72092007D01*
X86408083Y-72095951D01*
X86408116Y-72095971D01*
X86418796Y-72099522D01*
X86436314Y-72102835D01*
X86439949Y-72103324D01*
X86462070Y-72109091D01*
X86481829Y-72118848D01*
X86482866Y-72119585D01*
X86498794Y-72128836D01*
X86512380Y-72132949D01*
X86512639Y-72132957D01*
X86527353Y-72136275D01*
X86540379Y-72141999D01*
X86556654Y-72147561D01*
X86568418Y-72147630D01*
X86580674Y-72149676D01*
X86584660Y-72155129D01*
X86593744Y-72163391D01*
X86604802Y-72165804D01*
X86621681Y-72168370D01*
X86641935Y-72174654D01*
X86644600Y-72175728D01*
X86664368Y-72182351D01*
X86681720Y-72185589D01*
X86683604Y-72185653D01*
X86698802Y-72191092D01*
X86715630Y-72205533D01*
X86717531Y-72207711D01*
X86734554Y-72223125D01*
X86756096Y-72236446D01*
X86777991Y-72245688D01*
X86796076Y-72248864D01*
X86801687Y-72247854D01*
X86811900Y-72250181D01*
X86828099Y-72260956D01*
X86841756Y-72272798D01*
X86858604Y-72287876D01*
X86872103Y-72298559D01*
X86878633Y-72302265D01*
X86891303Y-72303832D01*
X86892035Y-72303919D01*
X86898897Y-72310117D01*
X86905663Y-72323871D01*
X86905695Y-72323964D01*
X86915266Y-72339304D01*
X86933795Y-72352016D01*
X86944157Y-72356846D01*
X86964901Y-72368074D01*
X86981665Y-72381137D01*
X86986888Y-72387250D01*
X86997366Y-72399211D01*
X87006597Y-72403991D01*
X87014214Y-72408570D01*
X87027938Y-72420563D01*
X87045247Y-72437348D01*
X87063619Y-72456305D01*
X87080533Y-72474816D01*
X87093467Y-72490259D01*
X87099900Y-72500016D01*
X87100196Y-72501235D01*
X87104383Y-72511325D01*
X87114305Y-72525385D01*
X87126349Y-72539094D01*
X87136902Y-72548131D01*
X87140601Y-72549550D01*
X87149012Y-72555043D01*
X87153036Y-72562787D01*
X87165873Y-72582349D01*
X87190305Y-72599303D01*
X87224813Y-72612788D01*
X87253312Y-72619547D01*
X87264795Y-72623376D01*
X87274585Y-72628997D01*
X87278934Y-72633820D01*
X87276198Y-72635360D01*
X87270308Y-72637538D01*
X87274132Y-72642594D01*
X87284879Y-72649080D01*
X87299757Y-72655548D01*
X87315976Y-72660550D01*
X87328641Y-72662563D01*
X87356635Y-72666073D01*
X87374105Y-72673321D01*
X87383499Y-72685443D01*
X87384602Y-72688480D01*
X87390230Y-72697652D01*
X87400363Y-72695520D01*
X87401189Y-72695085D01*
X87413772Y-72692059D01*
X87417676Y-72695090D01*
X87426759Y-72700132D01*
X87438737Y-72701725D01*
X87450095Y-72703014D01*
X87450219Y-72708070D01*
X87448164Y-72710802D01*
X87445405Y-72718163D01*
X87452790Y-72724591D01*
X87460645Y-72728170D01*
X87480348Y-72734179D01*
X87497262Y-72736460D01*
X87511231Y-72738527D01*
X87517443Y-72742250D01*
X87526273Y-72747045D01*
X87534309Y-72748039D01*
X87543982Y-72750954D01*
X87543674Y-72760400D01*
X87545202Y-72773621D01*
X87556269Y-72783723D01*
X87573214Y-72788532D01*
X87588601Y-72787091D01*
X87601466Y-72784717D01*
X87604621Y-72788205D01*
X87603696Y-72791471D01*
X87604933Y-72799701D01*
X87609051Y-72800969D01*
X87617108Y-72806626D01*
X87622397Y-72818291D01*
X87626636Y-72829714D01*
X87630274Y-72832083D01*
X87636384Y-72834367D01*
X87648050Y-72844109D01*
X87655897Y-72851979D01*
X87675652Y-72868661D01*
X87693155Y-72875353D01*
X87694527Y-72875403D01*
X87706711Y-72878073D01*
X87707693Y-72884183D01*
X87706647Y-72895888D01*
X87711273Y-72902844D01*
X87718452Y-72901285D01*
X87720180Y-72899266D01*
X87724486Y-72894546D01*
X87723010Y-72901501D01*
X87724021Y-72913962D01*
X87730740Y-72933020D01*
X87741262Y-72954451D01*
X87753681Y-72974029D01*
X87758427Y-72980019D01*
X87769587Y-72994099D01*
X87780342Y-73008889D01*
X87790062Y-73019869D01*
X87797387Y-73023033D01*
X87797709Y-73022872D01*
X87801637Y-73025917D01*
X87803087Y-73036721D01*
X87805104Y-73051189D01*
X87808876Y-73058104D01*
X87813468Y-73063224D01*
X87816754Y-73073119D01*
X87819969Y-73090662D01*
X87824782Y-73103805D01*
X87833974Y-73120341D01*
X87834736Y-73121503D01*
X87841492Y-73135354D01*
X87846435Y-73155061D01*
X87850094Y-73183326D01*
X87852252Y-73210824D01*
X87855704Y-73271861D01*
X87857690Y-73326670D01*
X87858225Y-73373962D01*
X87857322Y-73412444D01*
X87854996Y-73440825D01*
X87851261Y-73457814D01*
X87849531Y-73460946D01*
X87846842Y-73467934D01*
X87851899Y-73469318D01*
X87857114Y-73470861D01*
X87851055Y-73476508D01*
X87845900Y-73481279D01*
X87852077Y-73481149D01*
X87856018Y-73480334D01*
X87868311Y-73480796D01*
X87870904Y-73486376D01*
X87867126Y-73494776D01*
X87864288Y-73495681D01*
X87858859Y-73501205D01*
X87857672Y-73508524D01*
X87854851Y-73521041D01*
X87851506Y-73525176D01*
X87849773Y-73533200D01*
X87854777Y-73547070D01*
X87860539Y-73559966D01*
X87859224Y-73565611D01*
X87854835Y-73567194D01*
X87848144Y-73574583D01*
X87848273Y-73584774D01*
X87848540Y-73595946D01*
X87841542Y-73597681D01*
X87837841Y-73596848D01*
X87827227Y-73596992D01*
X87824590Y-73600771D01*
X87828665Y-73607810D01*
X87830435Y-73608159D01*
X87835883Y-73613814D01*
X87839487Y-73624935D01*
X87841089Y-73636505D01*
X87837430Y-73636602D01*
X87829930Y-73630161D01*
X87819781Y-73622702D01*
X87813559Y-73624783D01*
X87811055Y-73628271D01*
X87805311Y-73640499D01*
X87809507Y-73644511D01*
X87817974Y-73643157D01*
X87828389Y-73643396D01*
X87831206Y-73653655D01*
X87831206Y-73653701D01*
X87828573Y-73664865D01*
X87824590Y-73667705D01*
X87819266Y-73673264D01*
X87817974Y-73681328D01*
X87815622Y-73690619D01*
X87811896Y-73691195D01*
X87806506Y-73694106D01*
X87801690Y-73706277D01*
X87801446Y-73707346D01*
X87796853Y-73721254D01*
X87791824Y-73727247D01*
X87791700Y-73727252D01*
X87786334Y-73732870D01*
X87781989Y-73744536D01*
X87778039Y-73756284D01*
X87772572Y-73756656D01*
X87765864Y-73751152D01*
X87752044Y-73741863D01*
X87742965Y-73741684D01*
X87741026Y-73750358D01*
X87741886Y-73753717D01*
X87742308Y-73764545D01*
X87736196Y-73766950D01*
X87726704Y-73770994D01*
X87715997Y-73780631D01*
X87707105Y-73792115D01*
X87703062Y-73801701D01*
X87705063Y-73805401D01*
X87709419Y-73811434D01*
X87708634Y-73813540D01*
X87700313Y-73816767D01*
X87696047Y-73815839D01*
X87686008Y-73818047D01*
X87676909Y-73826812D01*
X87670835Y-73840022D01*
X87670438Y-73851040D01*
X87674998Y-73856142D01*
X87682009Y-73853236D01*
X87688738Y-73850770D01*
X87690059Y-73856375D01*
X87687285Y-73865123D01*
X87684991Y-73866195D01*
X87679141Y-73871625D01*
X87675831Y-73879089D01*
X87666493Y-73891762D01*
X87658748Y-73896106D01*
X87650171Y-73902211D01*
X87650184Y-73907391D01*
X87650486Y-73911407D01*
X87646972Y-73909832D01*
X87640184Y-73899446D01*
X87640037Y-73885307D01*
X87645882Y-73873799D01*
X87650912Y-73871012D01*
X87658621Y-73868315D01*
X87654395Y-73864813D01*
X87649965Y-73862839D01*
X87639905Y-73861832D01*
X87628383Y-73868882D01*
X87615570Y-73882011D01*
X87603266Y-73898433D01*
X87597298Y-73911837D01*
X87597376Y-73916164D01*
X87596561Y-73924430D01*
X87593019Y-73925741D01*
X87587802Y-73930454D01*
X87588486Y-73934860D01*
X87587471Y-73946993D01*
X87584232Y-73951731D01*
X87577074Y-73961055D01*
X87575907Y-73964116D01*
X87573042Y-73973429D01*
X87569890Y-73981230D01*
X87568794Y-73996506D01*
X87573865Y-74021627D01*
X87578132Y-74035815D01*
X87584118Y-74056891D01*
X87586754Y-74071992D01*
X87585486Y-74077914D01*
X87585413Y-74077916D01*
X87582093Y-74082039D01*
X87583256Y-74084793D01*
X87585767Y-74095123D01*
X87587213Y-74113310D01*
X87587362Y-74122837D01*
X87588699Y-74146115D01*
X87592323Y-74175318D01*
X87596613Y-74199787D01*
X87601100Y-74226988D01*
X87601891Y-74245749D01*
X87599946Y-74252875D01*
X87596974Y-74263221D01*
X87595982Y-74280838D01*
X87596821Y-74300097D01*
X87599345Y-74315367D01*
X87601723Y-74320396D01*
X87602890Y-74328859D01*
X87601524Y-74333959D01*
X87602842Y-74345556D01*
X87606679Y-74349449D01*
X87611885Y-74355461D01*
X87607280Y-74364180D01*
X87604840Y-74366976D01*
X87597778Y-74377963D01*
X87600867Y-74388157D01*
X87602694Y-74390768D01*
X87607853Y-74403833D01*
X87606634Y-74422979D01*
X87605171Y-74430112D01*
X87601257Y-74450119D01*
X87598024Y-74473192D01*
X87595265Y-74501625D01*
X87592774Y-74537715D01*
X87590345Y-74583756D01*
X87589273Y-74607079D01*
X87587380Y-74638839D01*
X87584879Y-74665608D01*
X87582084Y-74684713D01*
X87579310Y-74693483D01*
X87579090Y-74693663D01*
X87575253Y-74701432D01*
X87572240Y-74716524D01*
X87570461Y-74734240D01*
X87570325Y-74749883D01*
X87572243Y-74758754D01*
X87573360Y-74759396D01*
X87576995Y-74764929D01*
X87578227Y-74777670D01*
X87577144Y-74791832D01*
X87573833Y-74801625D01*
X87572700Y-74802692D01*
X87569192Y-74811326D01*
X87570067Y-74821002D01*
X87571926Y-74834152D01*
X87573510Y-74855320D01*
X87574726Y-74881068D01*
X87575485Y-74907963D01*
X87575693Y-74932566D01*
X87575260Y-74951442D01*
X87574095Y-74961156D01*
X87573807Y-74961660D01*
X87571116Y-74970045D01*
X87569314Y-74986019D01*
X87568510Y-75005113D01*
X87568811Y-75022854D01*
X87570325Y-75034773D01*
X87571983Y-75037281D01*
X87575918Y-75042753D01*
X87575234Y-75056323D01*
X87571334Y-75070362D01*
X87563263Y-75101368D01*
X87565085Y-75124717D01*
X87569105Y-75132991D01*
X87575139Y-75148853D01*
X87576411Y-75172529D01*
X87575508Y-75186875D01*
X87573221Y-75216686D01*
X87571216Y-75248390D01*
X87570507Y-75262235D01*
X87568695Y-75284771D01*
X87565824Y-75303043D01*
X87563820Y-75309887D01*
X87561260Y-75322285D01*
X87562422Y-75327065D01*
X87563453Y-75336446D01*
X87562201Y-75354248D01*
X87560186Y-75368733D01*
X87557985Y-75409104D01*
X87561647Y-75429886D01*
X87565659Y-75450443D01*
X87562927Y-75464651D01*
X87561162Y-75467840D01*
X87554831Y-75484664D01*
X87553322Y-75496634D01*
X87551281Y-75510406D01*
X87547719Y-75516337D01*
X87543606Y-75524757D01*
X87541537Y-75540187D01*
X87541532Y-75540343D01*
X87539303Y-75557462D01*
X87535015Y-75568698D01*
X87531860Y-75578898D01*
X87529257Y-75598186D01*
X87527762Y-75622421D01*
X87527750Y-75622824D01*
X87526762Y-75651296D01*
X87525280Y-75670747D01*
X87522558Y-75685390D01*
X87517849Y-75699433D01*
X87511500Y-75714572D01*
X87504330Y-75739848D01*
X87501427Y-75773958D01*
X87501423Y-75792948D01*
X87501125Y-75818194D01*
X87499439Y-75838070D01*
X87496703Y-75849094D01*
X87495882Y-75850067D01*
X87490418Y-75858678D01*
X87484341Y-75875284D01*
X87482128Y-75883330D01*
X87478322Y-75905141D01*
X87480474Y-75922129D01*
X87485329Y-75934097D01*
X87491669Y-75949283D01*
X87491507Y-75958389D01*
X87484833Y-75966835D01*
X87478332Y-75977916D01*
X87474878Y-75996625D01*
X87473926Y-76023583D01*
X87473187Y-76046280D01*
X87471245Y-76062674D01*
X87468509Y-76069402D01*
X87468332Y-76069425D01*
X87465304Y-76075284D01*
X87464049Y-76090105D01*
X87464467Y-76109748D01*
X87466457Y-76130074D01*
X87469917Y-76146945D01*
X87470245Y-76147992D01*
X87472046Y-76161387D01*
X87469452Y-76167841D01*
X87465150Y-76176074D01*
X87459845Y-76193367D01*
X87455377Y-76212723D01*
X87451110Y-76238764D01*
X87450990Y-76256605D01*
X87455001Y-76270606D01*
X87455154Y-76270943D01*
X87459780Y-76288253D01*
X87456279Y-76307227D01*
X87455288Y-76310062D01*
X87449806Y-76329373D01*
X87447462Y-76345865D01*
X87447461Y-76346125D01*
X87445394Y-76357511D01*
X87442139Y-76360542D01*
X87438938Y-76366280D01*
X87437934Y-76380403D01*
X87438968Y-76398276D01*
X87441879Y-76415264D01*
X87444285Y-76422700D01*
X87444868Y-76436326D01*
X87438611Y-76443278D01*
X87430205Y-76455658D01*
X87427612Y-76468786D01*
X87425623Y-76481659D01*
X87421509Y-76486252D01*
X87414764Y-76492119D01*
X87408741Y-76506736D01*
X87404593Y-76525629D01*
X87403472Y-76544321D01*
X87404460Y-76552438D01*
X87405985Y-76566919D01*
X87401278Y-76572101D01*
X87399235Y-76572264D01*
X87394824Y-76573316D01*
X87391243Y-76577910D01*
X87387866Y-76588204D01*
X87384069Y-76606358D01*
X87379225Y-76634530D01*
X87376707Y-76650005D01*
X87372764Y-76664626D01*
X87367810Y-76671444D01*
X87367341Y-76671508D01*
X87361990Y-76676819D01*
X87361449Y-76680623D01*
X87356781Y-76692218D01*
X87351524Y-76697974D01*
X87343504Y-76710894D01*
X87341600Y-76721390D01*
X87338917Y-76734193D01*
X87334571Y-76738912D01*
X87330851Y-76745694D01*
X87334212Y-76758800D01*
X87337473Y-76773905D01*
X87332059Y-76783650D01*
X87331381Y-76784230D01*
X87324954Y-76797217D01*
X87325615Y-76807003D01*
X87325206Y-76820817D01*
X87320226Y-76825392D01*
X87312923Y-76833418D01*
X87305182Y-76849559D01*
X87302400Y-76857716D01*
X87294506Y-76880885D01*
X87285748Y-76902497D01*
X87283705Y-76906850D01*
X87276832Y-76932157D01*
X87276820Y-76953164D01*
X87276334Y-76976876D01*
X87267218Y-76999266D01*
X87264450Y-77003846D01*
X87254609Y-77024048D01*
X87249282Y-77043759D01*
X87248971Y-77048166D01*
X87244498Y-77066413D01*
X87233377Y-77084295D01*
X87219057Y-77097424D01*
X87207013Y-77101568D01*
X87196066Y-77106677D01*
X87185188Y-77118598D01*
X87172622Y-77131090D01*
X87162449Y-77132599D01*
X87151429Y-77134999D01*
X87147368Y-77142957D01*
X87143287Y-77151281D01*
X87134385Y-77154111D01*
X87116659Y-77152693D01*
X87116266Y-77152641D01*
X87098274Y-77151191D01*
X87089229Y-77153981D01*
X87085343Y-77161643D01*
X87079779Y-77172859D01*
X87071102Y-77171598D01*
X87064763Y-77166133D01*
X87055546Y-77161813D01*
X87051861Y-77164760D01*
X87043454Y-77168035D01*
X87025329Y-77170621D01*
X87000996Y-77172063D01*
X86994244Y-77172193D01*
X86964923Y-77172677D01*
X86937073Y-77173400D01*
X86916298Y-77174214D01*
X86914848Y-77174294D01*
X86893127Y-77174634D01*
X86863929Y-77173903D01*
X86831055Y-77172334D01*
X86798305Y-77170160D01*
X86769482Y-77167612D01*
X86748385Y-77164925D01*
X86742445Y-77163737D01*
X86730015Y-77161966D01*
X86728543Y-77165977D01*
X86728995Y-77166767D01*
X86728318Y-77173267D01*
X86723366Y-77174348D01*
X86714305Y-77171473D01*
X86713051Y-77168856D01*
X86707065Y-77165667D01*
X86691211Y-77160844D01*
X86668640Y-77155111D01*
X86642505Y-77149189D01*
X86615959Y-77143801D01*
X86592152Y-77139669D01*
X86577416Y-77137774D01*
X86548268Y-77134190D01*
X86520151Y-77129307D01*
X86497307Y-77123960D01*
X86485066Y-77119602D01*
X86469817Y-77113642D01*
X86461909Y-77112017D01*
X86451368Y-77109718D01*
X86431671Y-77104269D01*
X86406234Y-77096637D01*
X86392699Y-77092391D01*
X86357688Y-77082287D01*
X86330988Y-77077266D01*
X86308967Y-77076714D01*
X86303379Y-77077248D01*
X86288361Y-77078438D01*
X86283036Y-77077511D01*
X86285455Y-77075969D01*
X86293911Y-77071170D01*
X86290967Y-77064937D01*
X86287339Y-77061500D01*
X86269809Y-77046222D01*
X86258217Y-77038274D01*
X86249240Y-77035531D01*
X86246490Y-77035405D01*
X86239556Y-77032087D01*
X86240242Y-77028372D01*
X86239538Y-77018787D01*
X86231456Y-77007123D01*
X86220008Y-76998039D01*
X86212104Y-76995707D01*
X86205819Y-76992594D01*
X86206423Y-76989869D01*
X86205277Y-76981166D01*
X86197539Y-76968155D01*
X86197105Y-76967598D01*
X86189349Y-76955088D01*
X86188189Y-76947189D01*
X86188374Y-76946971D01*
X86187511Y-76943107D01*
X86184849Y-76942777D01*
X86178550Y-76937256D01*
X86177130Y-76929746D01*
X86173975Y-76915689D01*
X86166169Y-76897383D01*
X86163962Y-76893269D01*
X86154117Y-76870542D01*
X86147127Y-76845335D01*
X86146517Y-76841792D01*
X86142396Y-76822376D01*
X86137319Y-76808073D01*
X86135790Y-76805575D01*
X86132347Y-76793369D01*
X86133511Y-76780763D01*
X86134927Y-76768475D01*
X86132596Y-76764091D01*
X86129321Y-76758037D01*
X86126305Y-76742298D01*
X86123988Y-76720420D01*
X86122808Y-76695951D01*
X86122769Y-76684741D01*
X86123357Y-76668642D01*
X86124829Y-76640305D01*
X86127130Y-76600693D01*
X86130203Y-76550768D01*
X86133992Y-76491492D01*
X86134332Y-76486252D01*
X86137024Y-76444356D01*
X86138771Y-76413910D01*
X86139481Y-76393161D01*
X86139065Y-76380353D01*
X86137433Y-76373732D01*
X86134495Y-76371544D01*
X86130160Y-76372035D01*
X86128484Y-76372465D01*
X86116319Y-76372020D01*
X86111944Y-76368751D01*
X86103919Y-76365413D01*
X86085685Y-76361922D01*
X86060250Y-76358766D01*
X86040175Y-76357049D01*
X85972692Y-76352268D01*
X85968234Y-76370032D01*
X85966202Y-76387796D01*
X85966525Y-76410671D01*
X85967186Y-76418053D01*
X85967931Y-76441753D01*
X85965613Y-76463810D01*
X85964355Y-76468935D01*
X85958177Y-76496109D01*
X85955862Y-76521712D01*
X85957485Y-76542001D01*
X85962695Y-76552909D01*
X85968078Y-76560375D01*
X85962958Y-76569006D01*
X85961402Y-76570599D01*
X85954410Y-76584065D01*
X85954350Y-76593099D01*
X85954808Y-76603132D01*
X85952495Y-76605345D01*
X85949661Y-76611197D01*
X85948723Y-76625820D01*
X85948929Y-76631811D01*
X85948595Y-76648357D01*
X85945945Y-76657585D01*
X85944683Y-76658276D01*
X85939857Y-76663554D01*
X85939666Y-76676107D01*
X85943613Y-76691011D01*
X85948966Y-76700739D01*
X85954667Y-76714459D01*
X85952376Y-76720889D01*
X85949667Y-76730813D01*
X85948403Y-76749180D01*
X85948476Y-76771415D01*
X85949777Y-76792944D01*
X85952197Y-76809191D01*
X85954613Y-76815094D01*
X85958807Y-76826515D01*
X85957177Y-76841049D01*
X85950807Y-76851500D01*
X85948979Y-76852499D01*
X85942365Y-76860774D01*
X85943039Y-76866356D01*
X85943683Y-76879350D01*
X85939859Y-76896676D01*
X85939724Y-76897066D01*
X85935925Y-76914669D01*
X85940145Y-76928319D01*
X85942356Y-76931702D01*
X85949814Y-76946789D01*
X85951935Y-76960562D01*
X85948322Y-76968601D01*
X85945724Y-76969242D01*
X85942279Y-76974824D01*
X85943118Y-76988465D01*
X85943145Y-76988597D01*
X85942703Y-77008361D01*
X85933924Y-77034259D01*
X85929400Y-77043957D01*
X85917938Y-77072223D01*
X85915310Y-77092633D01*
X85916043Y-77096929D01*
X85915979Y-77113578D01*
X85906465Y-77125744D01*
X85896227Y-77136593D01*
X85892629Y-77143921D01*
X85887761Y-77152760D01*
X85875728Y-77165565D01*
X85860386Y-77178977D01*
X85845589Y-77189638D01*
X85835191Y-77194189D01*
X85834925Y-77194197D01*
X85821877Y-77197708D01*
X85803559Y-77206389D01*
X85785279Y-77217463D01*
X85774838Y-77225624D01*
X85760672Y-77232886D01*
X85753765Y-77233895D01*
X85742272Y-77237398D01*
X85739061Y-77241381D01*
X85731425Y-77246895D01*
X85716073Y-77250447D01*
X85713917Y-77250649D01*
X85698020Y-77253760D01*
X85689178Y-77259003D01*
X85688845Y-77259703D01*
X85681046Y-77266351D01*
X85677047Y-77266976D01*
X85668597Y-77270343D01*
X85667674Y-77272897D01*
X85661877Y-77277371D01*
X85647720Y-77280643D01*
X85630054Y-77282261D01*
X85613731Y-77281773D01*
X85603754Y-77278850D01*
X85594892Y-77277554D01*
X85589655Y-77284467D01*
X85591286Y-77292954D01*
X85587496Y-77297000D01*
X85573771Y-77301112D01*
X85558595Y-77303641D01*
X85538664Y-77307137D01*
X85525414Y-77311390D01*
X85522115Y-77314352D01*
X85516479Y-77317433D01*
X85502696Y-77316833D01*
X85500556Y-77316462D01*
X85472549Y-77317588D01*
X85459204Y-77322737D01*
X85442980Y-77329902D01*
X85430854Y-77333089D01*
X85430487Y-77333098D01*
X85418575Y-77335630D01*
X85401819Y-77341715D01*
X85400714Y-77342190D01*
X85366664Y-77353753D01*
X85324218Y-77363365D01*
X85278163Y-77370212D01*
X85233288Y-77373476D01*
X85216395Y-77373591D01*
X85199284Y-77374990D01*
X85188561Y-77378961D01*
X85187689Y-77379943D01*
X85178504Y-77383469D01*
X85159759Y-77383026D01*
X85153592Y-77382218D01*
X85131561Y-77380599D01*
X85120028Y-77384222D01*
X85118590Y-77385957D01*
X85113471Y-77390463D01*
X85110501Y-77385164D01*
X85103222Y-77379612D01*
X85085050Y-77376250D01*
X85061732Y-77374962D01*
X85033732Y-77373334D01*
X85006938Y-77370290D01*
X84989868Y-77367097D01*
X84972242Y-77363599D01*
X84960311Y-77363072D01*
X84958627Y-77363594D01*
X84949958Y-77362678D01*
X84937904Y-77356560D01*
X84921569Y-77350348D01*
X84896521Y-77346043D01*
X84878188Y-77344707D01*
X84855961Y-77343228D01*
X84840100Y-77340930D01*
X84834037Y-77338311D01*
X84834037Y-77338309D01*
X84829169Y-77335965D01*
X84824949Y-77337035D01*
X84815025Y-77335168D01*
X84812333Y-77331278D01*
X84804676Y-77323742D01*
X84788748Y-77313680D01*
X84768689Y-77303157D01*
X84748638Y-77294241D01*
X84732733Y-77288999D01*
X84726699Y-77288514D01*
X84719398Y-77284886D01*
X84718535Y-77281327D01*
X84712782Y-77272017D01*
X84699512Y-77262253D01*
X84683891Y-77255355D01*
X84675958Y-77253978D01*
X84664255Y-77248314D01*
X84653647Y-77235680D01*
X84648973Y-77222048D01*
X84645140Y-77211290D01*
X84636057Y-77196358D01*
X84634777Y-77194593D01*
X84624447Y-77175442D01*
X84619095Y-77155730D01*
X84619078Y-77155532D01*
X84614357Y-77137299D01*
X84606598Y-77124621D01*
X84597993Y-77112922D01*
X84595792Y-77106058D01*
X84592893Y-77095131D01*
X84585942Y-77079454D01*
X84585615Y-77078822D01*
X84579138Y-77057975D01*
X84579333Y-77041833D01*
X84578731Y-77023639D01*
X84573363Y-77016127D01*
X84566679Y-77005361D01*
X84566904Y-76999201D01*
X84565664Y-76988586D01*
X84562881Y-76985863D01*
X84559051Y-76979009D01*
X84563170Y-76972046D01*
X84567361Y-76958217D01*
X84565756Y-76951132D01*
X84562086Y-76936778D01*
X84562110Y-76930708D01*
X84559500Y-76918406D01*
X84555991Y-76912830D01*
X84551456Y-76899357D01*
X84552398Y-76891197D01*
X84552427Y-76879755D01*
X84549314Y-76858979D01*
X84543644Y-76832229D01*
X84538838Y-76813138D01*
X84530903Y-76780635D01*
X84524293Y-76748320D01*
X84519983Y-76721198D01*
X84518999Y-76711206D01*
X84517127Y-76686465D01*
X84514923Y-76663934D01*
X84513795Y-76654968D01*
X84511516Y-76637795D01*
X84510358Y-76626458D01*
X84507022Y-76620385D01*
X84504858Y-76620860D01*
X84502142Y-76616519D01*
X84499967Y-76602167D01*
X84498891Y-76583206D01*
X84497353Y-76553227D01*
X84494531Y-76525702D01*
X84490871Y-76503522D01*
X84486823Y-76489574D01*
X84483884Y-76486252D01*
X84481218Y-76481859D01*
X84478881Y-76467895D01*
X84476741Y-76443181D01*
X84474667Y-76406539D01*
X84474445Y-76401894D01*
X84470818Y-76385118D01*
X84463506Y-76380190D01*
X84457953Y-76378774D01*
X84464101Y-76373867D01*
X84465120Y-76373267D01*
X84472288Y-76362381D01*
X84474666Y-76344312D01*
X84472374Y-76324169D01*
X84465530Y-76307057D01*
X84463517Y-76304317D01*
X84458719Y-76294526D01*
X84464025Y-76284293D01*
X84465901Y-76282155D01*
X84475396Y-76269147D01*
X84474268Y-76263230D01*
X84463506Y-76264606D01*
X84452650Y-76264985D01*
X84450979Y-76259498D01*
X84459424Y-76252626D01*
X84460888Y-76252024D01*
X84467454Y-76246367D01*
X84469003Y-76234143D01*
X84467522Y-76219889D01*
X84464968Y-76197164D01*
X84463699Y-76176571D01*
X84463666Y-76173153D01*
X84461925Y-76160225D01*
X84455994Y-76158909D01*
X84455378Y-76159237D01*
X84450297Y-76161302D01*
X84454857Y-76155493D01*
X84455236Y-76155084D01*
X84461844Y-76140313D01*
X84462970Y-76120883D01*
X84458180Y-76104365D01*
X84458136Y-76104295D01*
X84448474Y-76099920D01*
X84425677Y-76096475D01*
X84389808Y-76093968D01*
X84373879Y-76093302D01*
X84341163Y-76091855D01*
X84311857Y-76090074D01*
X84289324Y-76088194D01*
X84277476Y-76086582D01*
X84255489Y-76080232D01*
X84234821Y-76071906D01*
X84219153Y-76063342D01*
X84212167Y-76056283D01*
X84212087Y-76055657D01*
X84206991Y-76051613D01*
X84199894Y-76052554D01*
X84185582Y-76051461D01*
X84171775Y-76044063D01*
X84157949Y-76036119D01*
X84147578Y-76034574D01*
X84140487Y-76031936D01*
X84139307Y-76026970D01*
X84133779Y-76018289D01*
X84126075Y-76016494D01*
X84115324Y-76013723D01*
X84112842Y-76009878D01*
X84107301Y-76004502D01*
X84099610Y-76003262D01*
X84088881Y-75999315D01*
X84086377Y-75993783D01*
X84080818Y-75984674D01*
X84071490Y-75979657D01*
X84056327Y-75971722D01*
X84040533Y-75959078D01*
X84040320Y-75958867D01*
X84022216Y-75944691D01*
X84001800Y-75933434D01*
X83988272Y-75925995D01*
X83982925Y-75919341D01*
X83983224Y-75918221D01*
X83981642Y-75909939D01*
X83972980Y-75897362D01*
X83971162Y-75895333D01*
X83961556Y-75883301D01*
X83958342Y-75875736D01*
X83958620Y-75875188D01*
X83956239Y-75870105D01*
X83948871Y-75865088D01*
X83936993Y-75861242D01*
X83931764Y-75862346D01*
X83928251Y-75860784D01*
X83927586Y-75855497D01*
X83924328Y-75846007D01*
X83920969Y-75844470D01*
X83911658Y-75840212D01*
X83902403Y-75832520D01*
X83892026Y-75819862D01*
X83880952Y-75802971D01*
X83870962Y-75785169D01*
X83863837Y-75769779D01*
X83861358Y-75760123D01*
X83862698Y-75758458D01*
X83865307Y-75754667D01*
X83861423Y-75748534D01*
X83849950Y-75740116D01*
X83843681Y-75738609D01*
X83837391Y-75735310D01*
X83838099Y-75732262D01*
X83838667Y-75721761D01*
X83835953Y-75714067D01*
X83818913Y-75671902D01*
X83806541Y-75623373D01*
X83800388Y-75574977D01*
X83800000Y-75563372D01*
X83797635Y-75542759D01*
X83792173Y-75525971D01*
X83790869Y-75523761D01*
X83784233Y-75507448D01*
X83781792Y-75490680D01*
X83778448Y-75469861D01*
X83772382Y-75454108D01*
X83766672Y-75435056D01*
X83766827Y-75419372D01*
X83767660Y-75406313D01*
X83764659Y-75401140D01*
X83760815Y-75395236D01*
X83758244Y-75380527D01*
X83757868Y-75374530D01*
X83756045Y-75354433D01*
X83752821Y-75338642D01*
X83752055Y-75336524D01*
X83748791Y-75323290D01*
X83746061Y-75302945D01*
X83745234Y-75292676D01*
X83742589Y-75272840D01*
X83738122Y-75258850D01*
X83735454Y-75255459D01*
X83731543Y-75249352D01*
X83734679Y-75246333D01*
X83737758Y-75238173D01*
X83738644Y-75222785D01*
X83737508Y-75205959D01*
X83734520Y-75193487D01*
X83733061Y-75191215D01*
X83732778Y-75183838D01*
X83735188Y-75168765D01*
X83735929Y-75165341D01*
X83738656Y-75150081D01*
X83736573Y-75144408D01*
X83728656Y-75145174D01*
X83719930Y-75145749D01*
X83721400Y-75138571D01*
X83722020Y-75137385D01*
X83725151Y-75125818D01*
X83726935Y-75108255D01*
X83727327Y-75089162D01*
X83726282Y-75073009D01*
X83723756Y-75064260D01*
X83722761Y-75063746D01*
X83720642Y-75057985D01*
X83720890Y-75043801D01*
X83721224Y-75040589D01*
X83721341Y-75024805D01*
X83717774Y-75017548D01*
X83717050Y-75017432D01*
X83713367Y-75011833D01*
X83715992Y-74997136D01*
X83717671Y-74983052D01*
X83865335Y-74983052D01*
X83865542Y-75007507D01*
X83867234Y-75047310D01*
X83869075Y-75083531D01*
X83870924Y-75113941D01*
X83872643Y-75136311D01*
X83874090Y-75148410D01*
X83874478Y-75149758D01*
X83875607Y-75157584D01*
X83876788Y-75174830D01*
X83877723Y-75196641D01*
X83879209Y-75220349D01*
X83881681Y-75239253D01*
X83884337Y-75248610D01*
X83887823Y-75259741D01*
X83890949Y-75278800D01*
X83892183Y-75291037D01*
X83895641Y-75326275D01*
X83899615Y-75349296D01*
X83903573Y-75360095D01*
X83906413Y-75369535D01*
X83909591Y-75386871D01*
X83910728Y-75394940D01*
X83916450Y-75431670D01*
X83922653Y-75457506D01*
X83929085Y-75471551D01*
X83932994Y-75473945D01*
X83935067Y-75479923D01*
X83935826Y-75495435D01*
X83935331Y-75512397D01*
X83935067Y-75537139D01*
X83938127Y-75552152D01*
X83943602Y-75559533D01*
X83952271Y-75570003D01*
X83954092Y-75575666D01*
X83956982Y-75586338D01*
X83963914Y-75601880D01*
X83964256Y-75602540D01*
X83970442Y-75618062D01*
X83971599Y-75629153D01*
X83971477Y-75629520D01*
X83972729Y-75640151D01*
X83979729Y-75658100D01*
X83990678Y-75679815D01*
X84003776Y-75701745D01*
X84017224Y-75720338D01*
X84017880Y-75721125D01*
X84030446Y-75738047D01*
X84039382Y-75753551D01*
X84040196Y-75755501D01*
X84051480Y-75768244D01*
X84066011Y-75773903D01*
X84080676Y-75779659D01*
X84086377Y-75787737D01*
X84091451Y-75799573D01*
X84095260Y-75802790D01*
X84104975Y-75811867D01*
X84115864Y-75826266D01*
X84115870Y-75826275D01*
X84127624Y-75838960D01*
X84139815Y-75844463D01*
X84140162Y-75844470D01*
X84152629Y-75849028D01*
X84167602Y-75860305D01*
X84170828Y-75863510D01*
X84186545Y-75876012D01*
X84208352Y-75888488D01*
X84232334Y-75899257D01*
X84254574Y-75906639D01*
X84271155Y-75908954D01*
X84275015Y-75908212D01*
X84286885Y-75909498D01*
X84297422Y-75916573D01*
X84310236Y-75927334D01*
X84318775Y-75932337D01*
X84337109Y-75934306D01*
X84361180Y-75930544D01*
X84385500Y-75922322D01*
X84401864Y-75913081D01*
X84417975Y-75902932D01*
X84431239Y-75897626D01*
X84433292Y-75897401D01*
X84442385Y-75893119D01*
X84443698Y-75889130D01*
X84446609Y-75877782D01*
X84453560Y-75862029D01*
X84453632Y-75861891D01*
X84459752Y-75849099D01*
X84458765Y-75844943D01*
X84449957Y-75846470D01*
X84449905Y-75846484D01*
X84440838Y-75847466D01*
X84442728Y-75842282D01*
X84447426Y-75830542D01*
X84449389Y-75813105D01*
X84448807Y-75794493D01*
X84445867Y-75779230D01*
X84440757Y-75771841D01*
X84439798Y-75771691D01*
X84431361Y-75767627D01*
X84432507Y-75759233D01*
X84437041Y-75755150D01*
X84443063Y-75745605D01*
X84443658Y-75741136D01*
X84440078Y-75734774D01*
X84436332Y-75735739D01*
X84431859Y-75735100D01*
X84433549Y-75724551D01*
X84439569Y-75703257D01*
X84441995Y-75691987D01*
X84440955Y-75688066D01*
X84436578Y-75688820D01*
X84435250Y-75689320D01*
X84428529Y-75687367D01*
X84426894Y-75677507D01*
X84430801Y-75664226D01*
X84432414Y-75661348D01*
X84434240Y-75650600D01*
X84431204Y-75638763D01*
X84425161Y-75632775D01*
X84424755Y-75632754D01*
X84422448Y-75626828D01*
X84421353Y-75611744D01*
X84421415Y-75601326D01*
X84420610Y-75580873D01*
X84417520Y-75565412D01*
X84415556Y-75561519D01*
X84412508Y-75551360D01*
X84410333Y-75531664D01*
X84409384Y-75506117D01*
X84409397Y-75497326D01*
X84409344Y-75469875D01*
X84408193Y-75453452D01*
X84405564Y-75445876D01*
X84401081Y-75444961D01*
X84400369Y-75445208D01*
X84392164Y-75446361D01*
X84392535Y-75439588D01*
X84401553Y-75423888D01*
X84401938Y-75423300D01*
X84409111Y-75410862D01*
X84408377Y-75403678D01*
X84401108Y-75397385D01*
X84392645Y-75385298D01*
X84393365Y-75377382D01*
X84392649Y-75363672D01*
X84387147Y-75354564D01*
X84380884Y-75343405D01*
X84383680Y-75338589D01*
X84388654Y-75329059D01*
X84390516Y-75312334D01*
X84389320Y-75294064D01*
X84385124Y-75279903D01*
X84383068Y-75277072D01*
X84378877Y-75267782D01*
X84383264Y-75259947D01*
X84387917Y-75246314D01*
X84387672Y-75225667D01*
X84387573Y-75224931D01*
X84384544Y-75200911D01*
X84381647Y-75174631D01*
X84381215Y-75170279D01*
X84377868Y-75151473D01*
X84372780Y-75138654D01*
X84370659Y-75136390D01*
X84367993Y-75130114D01*
X84375728Y-75122486D01*
X84382435Y-75116235D01*
X84385864Y-75107490D01*
X84386283Y-75093248D01*
X84383963Y-75070508D01*
X84381818Y-75054723D01*
X84377390Y-75039342D01*
X84371392Y-75030982D01*
X84367757Y-75024723D01*
X84373429Y-75018061D01*
X84379662Y-75008261D01*
X84382221Y-74995734D01*
X84380466Y-74986222D01*
X84377192Y-74984350D01*
X84373862Y-74979220D01*
X84374819Y-74967622D01*
X84379121Y-74955247D01*
X84382891Y-74949842D01*
X84389805Y-74936846D01*
X84389171Y-74923356D01*
X84382457Y-74915934D01*
X84377805Y-74911271D01*
X84381849Y-74907097D01*
X84388009Y-74897417D01*
X84393389Y-74880563D01*
X84394164Y-74876820D01*
X84396318Y-74860528D01*
X84393804Y-74853441D01*
X84386832Y-74852024D01*
X84378976Y-74850324D01*
X84382788Y-74844085D01*
X84389259Y-74832608D01*
X84390189Y-74820332D01*
X84385527Y-74812820D01*
X84383085Y-74812326D01*
X84380275Y-74808593D01*
X84385515Y-74800748D01*
X84392440Y-74788656D01*
X84395385Y-74775710D01*
X84393534Y-74767095D01*
X84390971Y-74766012D01*
X84387316Y-74760681D01*
X84387503Y-74748271D01*
X84388805Y-74742855D01*
X84397343Y-74742855D01*
X84400652Y-74746163D01*
X84403960Y-74742855D01*
X84400652Y-74739547D01*
X84397343Y-74742855D01*
X84388805Y-74742855D01*
X84390898Y-74734153D01*
X84395832Y-74724825D01*
X84400873Y-74711962D01*
X84397566Y-74697127D01*
X84394516Y-74678298D01*
X84399016Y-74666549D01*
X84403716Y-74652320D01*
X84399642Y-74641525D01*
X84395904Y-74625228D01*
X84398379Y-74618367D01*
X84401039Y-74608879D01*
X84397836Y-74607221D01*
X84394338Y-74602052D01*
X84397167Y-74591145D01*
X84400069Y-74575828D01*
X84399882Y-74557357D01*
X84397169Y-74540372D01*
X84392495Y-74529512D01*
X84389464Y-74527825D01*
X84385996Y-74522223D01*
X84386848Y-74507689D01*
X84391572Y-74487638D01*
X84396729Y-74472685D01*
X84400638Y-74457170D01*
X84399677Y-74446853D01*
X84394582Y-74431532D01*
X84391277Y-74404545D01*
X84390013Y-74376129D01*
X84554484Y-74376129D01*
X84555070Y-74409358D01*
X84555128Y-74412040D01*
X84555632Y-74438865D01*
X84555924Y-74461817D01*
X84555951Y-74476631D01*
X84555922Y-74478203D01*
X84556200Y-74489516D01*
X84557213Y-74511131D01*
X84558810Y-74540147D01*
X84560837Y-74573664D01*
X84561287Y-74580756D01*
X84563479Y-74622137D01*
X84563922Y-74651222D01*
X84562605Y-74668832D01*
X84559917Y-74675542D01*
X84556960Y-74681663D01*
X84561044Y-74684346D01*
X84565875Y-74690652D01*
X84562465Y-74700383D01*
X84559179Y-74710198D01*
X84565586Y-74713129D01*
X84567481Y-74713183D01*
X84574453Y-74714986D01*
X84571729Y-74718145D01*
X84567211Y-74727510D01*
X84567034Y-74742855D01*
X84568754Y-74759259D01*
X84570589Y-74783798D01*
X84572163Y-74811383D01*
X84572263Y-74813513D01*
X84573785Y-74838465D01*
X84575660Y-74858190D01*
X84577524Y-74869022D01*
X84577834Y-74869751D01*
X84583988Y-74886454D01*
X84586552Y-74906161D01*
X84585047Y-74922804D01*
X84582451Y-74928292D01*
X84577623Y-74943259D01*
X84578857Y-74962756D01*
X84582408Y-74985430D01*
X84585103Y-75006482D01*
X84585209Y-75007507D01*
X84587137Y-75022634D01*
X84588878Y-75030665D01*
X84590606Y-75039592D01*
X84592532Y-75057438D01*
X84594327Y-75079900D01*
X84595666Y-75102673D01*
X84596221Y-75121454D01*
X84596161Y-75126601D01*
X84594753Y-75178545D01*
X84594351Y-75219034D01*
X84595038Y-75249815D01*
X84596900Y-75272632D01*
X84600019Y-75289232D01*
X84604481Y-75301361D01*
X84604601Y-75301604D01*
X84613226Y-75320780D01*
X84614881Y-75331092D01*
X84609714Y-75334831D01*
X84606747Y-75335015D01*
X84601899Y-75341040D01*
X84598528Y-75356914D01*
X84596669Y-75379331D01*
X84596355Y-75404984D01*
X84597621Y-75430569D01*
X84600500Y-75452779D01*
X84605027Y-75468309D01*
X84605372Y-75468995D01*
X84610511Y-75481486D01*
X84610080Y-75487158D01*
X84609797Y-75487190D01*
X84607866Y-75493374D01*
X84606396Y-75510203D01*
X84605533Y-75535096D01*
X84605416Y-75564931D01*
X84606212Y-75601739D01*
X84608044Y-75628176D01*
X84611278Y-75647087D01*
X84616274Y-75661316D01*
X84618194Y-75665140D01*
X84625223Y-75679344D01*
X84625576Y-75684653D01*
X84619870Y-75683624D01*
X84608747Y-75682899D01*
X84605775Y-75689964D01*
X84611866Y-75701533D01*
X84614203Y-75704049D01*
X84622137Y-75714401D01*
X84619966Y-75722133D01*
X84617752Y-75724400D01*
X84609605Y-75739127D01*
X84614386Y-75755194D01*
X84619858Y-75761690D01*
X84625215Y-75770369D01*
X84629297Y-75785404D01*
X84632324Y-75808499D01*
X84634516Y-75841355D01*
X84636095Y-75885675D01*
X84636142Y-75887476D01*
X84635964Y-75915947D01*
X84634379Y-75949988D01*
X84631716Y-75985794D01*
X84628303Y-76019557D01*
X84624472Y-76047472D01*
X84620784Y-76064968D01*
X84616657Y-76082388D01*
X84618049Y-76091898D01*
X84622726Y-76096294D01*
X84628206Y-76101247D01*
X84623658Y-76102405D01*
X84619478Y-76108434D01*
X84617074Y-76124075D01*
X84616362Y-76145839D01*
X84617257Y-76170237D01*
X84619672Y-76193780D01*
X84623522Y-76212978D01*
X84626567Y-76221120D01*
X84631415Y-76234069D01*
X84627866Y-76242048D01*
X84624914Y-76244445D01*
X84619549Y-76251725D01*
X84617157Y-76265303D01*
X84617357Y-76288094D01*
X84617909Y-76297855D01*
X84620489Y-76325995D01*
X84624269Y-76352990D01*
X84627833Y-76370467D01*
X84631134Y-76390441D01*
X84632737Y-76415944D01*
X84632688Y-76442617D01*
X84631033Y-76466104D01*
X84627820Y-76482048D01*
X84626618Y-76484614D01*
X84625844Y-76493468D01*
X84627661Y-76495402D01*
X84630884Y-76503384D01*
X84633450Y-76520465D01*
X84634551Y-76537211D01*
X84637012Y-76565002D01*
X84641861Y-76588736D01*
X84648248Y-76605392D01*
X84655323Y-76611952D01*
X84655597Y-76611962D01*
X84659167Y-76617204D01*
X84655775Y-76631632D01*
X84653007Y-76638427D01*
X84652160Y-76650029D01*
X84654640Y-76669295D01*
X84657962Y-76684271D01*
X84662559Y-76705666D01*
X84664477Y-76722538D01*
X84663905Y-76729007D01*
X84663980Y-76739855D01*
X84667792Y-76758296D01*
X84671984Y-76772483D01*
X84682859Y-76812659D01*
X84691759Y-76859516D01*
X84697485Y-76906529D01*
X84698086Y-76914499D01*
X84701798Y-76936411D01*
X84708610Y-76955298D01*
X84710391Y-76958374D01*
X84717519Y-76979394D01*
X84715817Y-76992989D01*
X84714573Y-77013436D01*
X84719350Y-77036302D01*
X84728483Y-77057806D01*
X84740310Y-77074167D01*
X84753165Y-77081605D01*
X84754857Y-77081719D01*
X84764692Y-77084824D01*
X84766202Y-77089212D01*
X84770234Y-77097068D01*
X84782314Y-77109428D01*
X84799260Y-77123797D01*
X84817891Y-77137681D01*
X84835023Y-77148586D01*
X84847473Y-77154019D01*
X84849170Y-77154231D01*
X84862329Y-77157308D01*
X84880657Y-77164656D01*
X84886394Y-77167448D01*
X84902505Y-77174726D01*
X84913058Y-77177743D01*
X84914756Y-77177418D01*
X84921962Y-77178157D01*
X84936596Y-77183524D01*
X84943694Y-77186719D01*
X84971928Y-77198431D01*
X84993606Y-77204082D01*
X85006783Y-77203241D01*
X85009131Y-77201171D01*
X85017375Y-77198365D01*
X85033877Y-77197943D01*
X85053964Y-77199486D01*
X85072960Y-77202575D01*
X85086193Y-77206791D01*
X85088417Y-77208282D01*
X85102373Y-77213613D01*
X85120594Y-77212646D01*
X85136114Y-77206076D01*
X85139120Y-77203217D01*
X85145217Y-77198218D01*
X85155052Y-77195422D01*
X85171348Y-77194575D01*
X85196828Y-77195418D01*
X85212498Y-77196311D01*
X85240333Y-77197418D01*
X85262912Y-77197211D01*
X85277195Y-77195777D01*
X85280530Y-77194343D01*
X85288857Y-77191329D01*
X85304390Y-77191763D01*
X85306565Y-77192086D01*
X85323078Y-77191872D01*
X85343185Y-77187833D01*
X85362696Y-77181356D01*
X85376406Y-77174348D01*
X85396406Y-77174348D01*
X85398826Y-77179794D01*
X85400817Y-77178759D01*
X85401608Y-77170907D01*
X85400817Y-77169937D01*
X85396883Y-77170845D01*
X85396406Y-77174348D01*
X85376406Y-77174348D01*
X85377421Y-77173829D01*
X85383173Y-77166707D01*
X85389160Y-77164644D01*
X85404794Y-77164266D01*
X85424872Y-77165507D01*
X85449779Y-77167027D01*
X85465367Y-77165518D01*
X85475300Y-77160501D01*
X85477330Y-77158642D01*
X85488702Y-77150079D01*
X85495178Y-77147883D01*
X85501986Y-77143649D01*
X85502267Y-77142017D01*
X85505301Y-77138047D01*
X85515682Y-77134049D01*
X85535331Y-77129475D01*
X85566167Y-77123780D01*
X85566544Y-77123715D01*
X85583802Y-77118403D01*
X85595462Y-77110809D01*
X85595473Y-77110796D01*
X85607123Y-77102768D01*
X85612939Y-77101568D01*
X85624071Y-77098739D01*
X85642090Y-77091476D01*
X85655288Y-77085224D01*
X85685272Y-77073651D01*
X85706242Y-77072561D01*
X85725288Y-77071715D01*
X85733364Y-77065749D01*
X85744658Y-77057029D01*
X85751188Y-77055254D01*
X85758286Y-77049543D01*
X85760303Y-77039042D01*
X85763634Y-77024482D01*
X85769261Y-77017539D01*
X85781893Y-77004594D01*
X85790597Y-76982272D01*
X85795750Y-76949260D01*
X85797432Y-76919620D01*
X85798704Y-76889879D01*
X85800548Y-76862588D01*
X85802631Y-76842356D01*
X85803331Y-76837919D01*
X85804752Y-76822797D01*
X85801089Y-76819749D01*
X85800422Y-76820115D01*
X85794218Y-76821010D01*
X85794581Y-76814648D01*
X85801060Y-76805422D01*
X85805098Y-76794408D01*
X85807459Y-76772400D01*
X85807929Y-76742898D01*
X85807510Y-76713481D01*
X85807142Y-76685846D01*
X85806894Y-76665267D01*
X85806869Y-76662848D01*
X85805108Y-76645967D01*
X85800360Y-76641653D01*
X85799340Y-76642143D01*
X85795631Y-76642103D01*
X85799659Y-76632448D01*
X85804446Y-76616753D01*
X85806805Y-76595605D01*
X85806859Y-76590298D01*
X85806324Y-76555888D01*
X85805653Y-76532648D01*
X85804523Y-76518518D01*
X85802612Y-76511436D01*
X85799597Y-76509341D01*
X85795155Y-76510173D01*
X85794348Y-76510421D01*
X85786999Y-76512169D01*
X85790064Y-76508371D01*
X85794301Y-76504797D01*
X85801729Y-76492440D01*
X85807507Y-76471159D01*
X85809216Y-76459596D01*
X85812263Y-76430758D01*
X85813542Y-76410947D01*
X85812983Y-76396066D01*
X85810518Y-76382018D01*
X85807712Y-76370832D01*
X85804343Y-76352712D01*
X85804453Y-76339743D01*
X85805209Y-76337750D01*
X85809709Y-76321672D01*
X85809599Y-76299781D01*
X85805296Y-76278501D01*
X85800696Y-76268418D01*
X85794429Y-76256221D01*
X85796736Y-76250460D01*
X85798883Y-76249540D01*
X85813880Y-76240401D01*
X85828954Y-76225366D01*
X85839162Y-76209700D01*
X85840670Y-76205042D01*
X85848602Y-76193822D01*
X85857871Y-76191635D01*
X85873181Y-76188152D01*
X85880270Y-76183675D01*
X85890570Y-76179292D01*
X85901593Y-76183158D01*
X85910219Y-76186183D01*
X85924798Y-76188717D01*
X85946982Y-76190910D01*
X85978421Y-76192909D01*
X86020769Y-76194861D01*
X86041496Y-76195676D01*
X86050348Y-76195244D01*
X86069550Y-76193881D01*
X86096269Y-76191801D01*
X86127492Y-76189230D01*
X86158733Y-76187072D01*
X86185162Y-76186144D01*
X86203999Y-76186482D01*
X86212462Y-76188122D01*
X86212469Y-76188129D01*
X86222140Y-76190436D01*
X86237946Y-76188391D01*
X86238950Y-76188130D01*
X86257867Y-76184287D01*
X86282718Y-76180751D01*
X86296223Y-76179347D01*
X86319840Y-76176694D01*
X86350895Y-76172418D01*
X86383814Y-76167304D01*
X86394085Y-76165575D01*
X86421334Y-76161307D01*
X86443624Y-76158608D01*
X86457784Y-76157821D01*
X86460927Y-76158310D01*
X86469720Y-76157373D01*
X86478851Y-76152127D01*
X86492916Y-76146334D01*
X86513684Y-76142847D01*
X86522922Y-76142414D01*
X86544803Y-76140579D01*
X86562934Y-76136201D01*
X86567784Y-76133934D01*
X86579071Y-76129110D01*
X86586121Y-76133791D01*
X86587277Y-76135549D01*
X86588933Y-76149631D01*
X86577995Y-76166536D01*
X86554353Y-76186420D01*
X86546516Y-76191826D01*
X86524424Y-76207364D01*
X86502929Y-76223676D01*
X86495338Y-76229870D01*
X86479143Y-76241319D01*
X86465019Y-76247634D01*
X86461933Y-76248065D01*
X86447933Y-76252850D01*
X86441420Y-76258426D01*
X86429576Y-76268649D01*
X86412920Y-76278950D01*
X86412491Y-76279171D01*
X86397022Y-76288822D01*
X86387171Y-76298101D01*
X86386869Y-76298584D01*
X86376619Y-76305813D01*
X86366651Y-76307612D01*
X86351919Y-76311448D01*
X86333883Y-76320980D01*
X86329305Y-76324152D01*
X86313108Y-76334557D01*
X86300100Y-76340299D01*
X86297538Y-76340693D01*
X86291206Y-76345207D01*
X86291953Y-76350497D01*
X86294496Y-76361869D01*
X86297435Y-76381919D01*
X86299927Y-76404289D01*
X86301587Y-76430568D01*
X86300236Y-76446210D01*
X86295675Y-76453509D01*
X86295645Y-76453528D01*
X86290502Y-76459754D01*
X86295695Y-76469074D01*
X86295805Y-76469207D01*
X86300737Y-76477291D01*
X86294795Y-76479602D01*
X86292071Y-76479652D01*
X86285407Y-76481209D01*
X86281660Y-76487755D01*
X86280034Y-76502141D01*
X86279724Y-76523775D01*
X86280899Y-76550164D01*
X86284181Y-76566252D01*
X86287486Y-76570454D01*
X86291742Y-76577783D01*
X86291842Y-76591318D01*
X86288398Y-76604925D01*
X86283372Y-76611821D01*
X86278789Y-76621524D01*
X86278367Y-76638734D01*
X86281788Y-76658508D01*
X86287334Y-76673357D01*
X86292760Y-76688242D01*
X86292652Y-76698398D01*
X86292616Y-76698458D01*
X86292815Y-76708471D01*
X86296590Y-76714956D01*
X86301142Y-76721901D01*
X86295480Y-76721184D01*
X86293851Y-76720574D01*
X86285745Y-76721892D01*
X86282746Y-76731474D01*
X86284715Y-76745434D01*
X86291512Y-76759889D01*
X86295443Y-76764824D01*
X86303885Y-76779004D01*
X86310577Y-76798893D01*
X86314265Y-76819164D01*
X86313695Y-76834494D01*
X86312516Y-76837318D01*
X86313435Y-76843121D01*
X86315682Y-76843532D01*
X86322402Y-76848618D01*
X86322689Y-76850621D01*
X86326948Y-76860613D01*
X86332994Y-76868015D01*
X86339790Y-76880124D01*
X86339661Y-76887799D01*
X86340661Y-76895034D01*
X86347551Y-76895397D01*
X86360376Y-76898224D01*
X86374943Y-76907401D01*
X86386005Y-76918974D01*
X86388852Y-76926493D01*
X86394773Y-76930769D01*
X86410197Y-76936476D01*
X86431617Y-76942635D01*
X86455523Y-76948269D01*
X86478407Y-76952400D01*
X86484788Y-76953228D01*
X86496082Y-76956321D01*
X86503268Y-76959121D01*
X86514942Y-76961550D01*
X86519272Y-76960121D01*
X86526610Y-76960812D01*
X86535612Y-76967022D01*
X86551358Y-76976606D01*
X86562615Y-76979892D01*
X86580484Y-76982112D01*
X86597265Y-76984209D01*
X86617518Y-76988939D01*
X86632424Y-76994969D01*
X86648454Y-76999568D01*
X86655753Y-76996586D01*
X86666434Y-76994015D01*
X86686270Y-76994066D01*
X86711552Y-76996273D01*
X86738567Y-77000168D01*
X86763606Y-77005286D01*
X86782956Y-77011160D01*
X86787375Y-77013140D01*
X86808180Y-77019500D01*
X86831571Y-77020668D01*
X86851426Y-77016616D01*
X86857073Y-77013477D01*
X86867760Y-77010679D01*
X86887020Y-77009847D01*
X86906354Y-77010832D01*
X86937119Y-77011800D01*
X86958964Y-77007869D01*
X86965976Y-77004853D01*
X86980715Y-76999155D01*
X86990488Y-76998748D01*
X86990673Y-76998853D01*
X86999055Y-76998036D01*
X87000437Y-76996391D01*
X87008864Y-76991477D01*
X87025158Y-76986825D01*
X87030633Y-76985783D01*
X87048080Y-76981747D01*
X87059074Y-76977179D01*
X87060339Y-76975968D01*
X87067824Y-76969837D01*
X87082685Y-76960811D01*
X87089347Y-76957218D01*
X87108090Y-76949159D01*
X87119326Y-76949037D01*
X87122351Y-76951130D01*
X87128447Y-76955759D01*
X87132626Y-76953506D01*
X87135921Y-76942353D01*
X87139363Y-76920280D01*
X87139813Y-76916967D01*
X87142191Y-76896633D01*
X87141772Y-76886601D01*
X87137896Y-76884115D01*
X87132290Y-76885556D01*
X87123892Y-76888069D01*
X87126551Y-76884801D01*
X87131338Y-76881005D01*
X87139075Y-76870040D01*
X87147373Y-76850797D01*
X87152892Y-76833020D01*
X87159498Y-76808130D01*
X87165757Y-76785385D01*
X87169024Y-76774061D01*
X87173525Y-76755001D01*
X87177683Y-76730931D01*
X87178818Y-76722444D01*
X87180372Y-76703293D01*
X87178728Y-76695109D01*
X87174458Y-76695391D01*
X87172519Y-76694490D01*
X87178384Y-76686156D01*
X87180084Y-76684154D01*
X87192165Y-76666513D01*
X87202359Y-76645820D01*
X87202657Y-76645043D01*
X87211755Y-76625545D01*
X87222008Y-76609509D01*
X87222718Y-76608654D01*
X87231676Y-76594911D01*
X87234798Y-76585496D01*
X87236089Y-76571208D01*
X87237311Y-76559031D01*
X87236127Y-76546517D01*
X87229123Y-76544240D01*
X87223017Y-76544342D01*
X87227633Y-76539322D01*
X87229743Y-76537624D01*
X87237514Y-76527005D01*
X87243352Y-76511487D01*
X87246359Y-76495496D01*
X87245639Y-76483457D01*
X87241502Y-76479636D01*
X87239972Y-76475614D01*
X87246595Y-76465709D01*
X87248642Y-76463445D01*
X87257361Y-76451745D01*
X87264453Y-76435707D01*
X87270904Y-76412437D01*
X87277699Y-76379043D01*
X87278061Y-76377083D01*
X87282812Y-76359178D01*
X87285705Y-76351186D01*
X87287792Y-76342441D01*
X87283177Y-76343306D01*
X87276296Y-76343930D01*
X87275437Y-76341412D01*
X87280513Y-76332937D01*
X87286355Y-76328624D01*
X87293307Y-76319109D01*
X87299192Y-76301619D01*
X87303308Y-76280558D01*
X87304951Y-76260335D01*
X87303420Y-76245353D01*
X87300403Y-76240522D01*
X87297430Y-76232872D01*
X87304079Y-76219089D01*
X87311166Y-76201495D01*
X87314937Y-76178825D01*
X87315134Y-76172970D01*
X87317135Y-76149403D01*
X87322095Y-76127646D01*
X87323620Y-76123541D01*
X87328921Y-76103663D01*
X87330043Y-76082449D01*
X87327386Y-76063846D01*
X87321351Y-76051800D01*
X87316094Y-76049356D01*
X87310272Y-76047659D01*
X87314482Y-76041625D01*
X87320097Y-76036716D01*
X87330932Y-76023715D01*
X87334773Y-76012125D01*
X87333967Y-76003721D01*
X87330022Y-76006114D01*
X87325484Y-76011928D01*
X87317121Y-76018858D01*
X87312534Y-76017640D01*
X87313650Y-76008890D01*
X87318515Y-76003201D01*
X87325734Y-75990954D01*
X87328367Y-75975551D01*
X87330912Y-75956119D01*
X87335753Y-75942277D01*
X87339910Y-75932514D01*
X87335919Y-75931379D01*
X87332445Y-75932579D01*
X87323470Y-75932994D01*
X87321751Y-75930067D01*
X87326988Y-75922042D01*
X87330709Y-75920013D01*
X87337571Y-75911524D01*
X87340291Y-75898718D01*
X87341156Y-75877220D01*
X87342404Y-75850174D01*
X87343873Y-75820642D01*
X87345402Y-75791685D01*
X87346827Y-75766365D01*
X87347986Y-75747744D01*
X87348718Y-75738884D01*
X87348773Y-75738609D01*
X87350074Y-75730308D01*
X87351734Y-75715452D01*
X87353685Y-75696342D01*
X87356221Y-75672325D01*
X87357098Y-75664176D01*
X87357966Y-75644542D01*
X87355731Y-75633879D01*
X87353914Y-75632748D01*
X87349934Y-75628136D01*
X87352104Y-75617233D01*
X87358777Y-75604438D01*
X87368305Y-75594152D01*
X87368392Y-75594089D01*
X87377326Y-75582089D01*
X87377027Y-75566736D01*
X87377731Y-75545762D01*
X87385106Y-75523461D01*
X87392131Y-75507374D01*
X87393137Y-75498517D01*
X87388206Y-75492379D01*
X87385706Y-75490484D01*
X87378218Y-75483058D01*
X87381911Y-75476282D01*
X87384532Y-75474018D01*
X87392803Y-75461679D01*
X87393699Y-75448157D01*
X87386940Y-75439155D01*
X87386260Y-75438873D01*
X87383870Y-75434603D01*
X87391222Y-75430052D01*
X87402733Y-75421879D01*
X87405817Y-75413253D01*
X87399628Y-75407994D01*
X87396184Y-75407647D01*
X87389634Y-75406321D01*
X87393150Y-75401186D01*
X87399794Y-75395812D01*
X87409323Y-75386363D01*
X87412390Y-75374819D01*
X87410527Y-75356262D01*
X87406369Y-75339209D01*
X87401198Y-75329362D01*
X87399275Y-75328398D01*
X87397847Y-75324424D01*
X87403429Y-75316299D01*
X87411860Y-75302686D01*
X87414052Y-75289990D01*
X87409580Y-75282607D01*
X87406737Y-75282084D01*
X87404738Y-75278139D01*
X87410946Y-75268989D01*
X87418560Y-75259028D01*
X87416807Y-75253940D01*
X87412703Y-75252021D01*
X87406336Y-75245743D01*
X87406066Y-75232540D01*
X87407785Y-75225846D01*
X87420995Y-75225846D01*
X87424304Y-75229154D01*
X87427612Y-75225846D01*
X87424304Y-75222537D01*
X87420995Y-75225846D01*
X87407785Y-75225846D01*
X87411854Y-75210002D01*
X87412015Y-75209490D01*
X87415730Y-75203320D01*
X87420613Y-75208686D01*
X87424565Y-75210915D01*
X87425833Y-75200312D01*
X87425815Y-75198577D01*
X87426177Y-75182413D01*
X87427336Y-75172915D01*
X87428933Y-75156655D01*
X87423964Y-75147799D01*
X87416602Y-75147782D01*
X87409134Y-75148714D01*
X87410376Y-75144266D01*
X87420468Y-75137041D01*
X87423922Y-75136525D01*
X87433003Y-75131096D01*
X87436343Y-75117355D01*
X87433484Y-75099128D01*
X87429581Y-75089516D01*
X87422536Y-75062304D01*
X87423785Y-75042340D01*
X87426025Y-75025776D01*
X87424837Y-75019908D01*
X87419237Y-75022429D01*
X87416273Y-75024693D01*
X87408283Y-75030536D01*
X87409324Y-75027721D01*
X87412083Y-75024048D01*
X87417351Y-75012330D01*
X87420843Y-74995608D01*
X87422370Y-74977747D01*
X87421743Y-74962613D01*
X87418774Y-74954071D01*
X87415507Y-74953880D01*
X87411350Y-74952461D01*
X87411204Y-74943570D01*
X87414384Y-74932105D01*
X87419775Y-74923377D01*
X87425502Y-74913203D01*
X87427630Y-74900862D01*
X87426145Y-74891066D01*
X87421036Y-74888522D01*
X87419871Y-74889109D01*
X87415230Y-74889732D01*
X87417900Y-74881229D01*
X87420321Y-74869787D01*
X87422659Y-74847847D01*
X87424750Y-74818144D01*
X87426427Y-74783414D01*
X87427525Y-74746391D01*
X87427878Y-74716390D01*
X87426579Y-74696429D01*
X87423226Y-74676502D01*
X87418772Y-74660829D01*
X87414173Y-74653629D01*
X87413655Y-74653535D01*
X87408080Y-74649082D01*
X87409192Y-74639407D01*
X87415957Y-74630034D01*
X87418356Y-74628416D01*
X87425416Y-74619137D01*
X87429491Y-74599800D01*
X87430684Y-74583427D01*
X87431775Y-74562682D01*
X87432843Y-74548517D01*
X87433519Y-74544366D01*
X87434314Y-74538321D01*
X87435351Y-74522459D01*
X87436408Y-74500184D01*
X87436427Y-74499706D01*
X87436822Y-74475039D01*
X87435234Y-74461104D01*
X87431253Y-74455497D01*
X87428806Y-74455046D01*
X87422877Y-74453124D01*
X87427349Y-74445438D01*
X87427447Y-74445320D01*
X87432075Y-74437817D01*
X87435631Y-74426625D01*
X87438368Y-74409749D01*
X87440538Y-74385194D01*
X87442394Y-74350965D01*
X87443791Y-74316103D01*
X87445320Y-74284548D01*
X87447344Y-74256969D01*
X87449585Y-74236596D01*
X87451485Y-74227262D01*
X87452835Y-74215363D01*
X87452393Y-74193998D01*
X87450298Y-74166793D01*
X87448556Y-74151174D01*
X87445083Y-74120553D01*
X87442414Y-74092132D01*
X87440945Y-74070355D01*
X87440780Y-74063840D01*
X87437947Y-74042563D01*
X87430343Y-74030870D01*
X87419520Y-74030074D01*
X87409968Y-74037714D01*
X87398973Y-74047883D01*
X87391406Y-74051350D01*
X87390068Y-74048542D01*
X87394530Y-74044835D01*
X87400706Y-74039699D01*
X87394687Y-74038342D01*
X87393187Y-74038320D01*
X87379483Y-74040713D01*
X87363968Y-74046540D01*
X87351886Y-74053476D01*
X87348216Y-74058262D01*
X87342527Y-74060875D01*
X87328797Y-74060686D01*
X87328367Y-74060637D01*
X87314510Y-74060877D01*
X87308524Y-74064655D01*
X87308518Y-74064813D01*
X87303192Y-74070646D01*
X87299066Y-74071300D01*
X87286496Y-74075634D01*
X87280871Y-74079941D01*
X87270792Y-74087617D01*
X87259952Y-74093091D01*
X87252487Y-74094706D01*
X87252064Y-74091498D01*
X87249609Y-74088624D01*
X87236940Y-74090810D01*
X87235866Y-74091112D01*
X87220925Y-74093706D01*
X87215823Y-74089652D01*
X87215789Y-74089033D01*
X87213154Y-74086577D01*
X87209274Y-74091149D01*
X87204081Y-74097736D01*
X87202664Y-74092789D01*
X87202611Y-74091149D01*
X87199626Y-74087620D01*
X87191063Y-74095963D01*
X87189695Y-74097712D01*
X87178209Y-74109393D01*
X87168355Y-74114357D01*
X87168339Y-74114357D01*
X87150882Y-74116437D01*
X87131029Y-74121271D01*
X87112532Y-74127563D01*
X87099136Y-74134019D01*
X87094591Y-74139343D01*
X87094773Y-74139774D01*
X87096106Y-74144067D01*
X87089796Y-74139982D01*
X87078639Y-74136095D01*
X87061660Y-74139521D01*
X87057099Y-74141133D01*
X87044693Y-74146593D01*
X87041793Y-74149855D01*
X87043315Y-74150192D01*
X87049475Y-74152737D01*
X87048717Y-74154666D01*
X87040457Y-74155358D01*
X87036543Y-74153567D01*
X87021102Y-74148434D01*
X87004071Y-74148524D01*
X86990983Y-74153337D01*
X86987406Y-74158009D01*
X86978721Y-74166346D01*
X86965982Y-74169308D01*
X86943647Y-74170994D01*
X86922011Y-74173988D01*
X86904634Y-74177621D01*
X86895081Y-74181219D01*
X86894364Y-74182815D01*
X86890096Y-74185692D01*
X86876308Y-74188095D01*
X86867359Y-74188839D01*
X86844380Y-74192051D01*
X86816452Y-74198473D01*
X86797741Y-74204071D01*
X86768258Y-74211973D01*
X86745040Y-74214156D01*
X86738808Y-74213395D01*
X86719773Y-74211005D01*
X86711199Y-74214213D01*
X86711162Y-74217808D01*
X86706297Y-74221525D01*
X86692028Y-74225665D01*
X86672143Y-74229610D01*
X86650428Y-74232742D01*
X86630671Y-74234444D01*
X86616660Y-74234098D01*
X86614405Y-74233590D01*
X86603621Y-74232576D01*
X86600573Y-74235612D01*
X86594619Y-74240348D01*
X86579373Y-74244140D01*
X86558765Y-74246642D01*
X86536723Y-74247507D01*
X86517175Y-74246387D01*
X86506276Y-74243947D01*
X86492370Y-74240544D01*
X86488096Y-74243488D01*
X86482937Y-74248715D01*
X86471787Y-74249588D01*
X86461140Y-74246142D01*
X86458323Y-74243324D01*
X86449558Y-74236955D01*
X86447617Y-74236708D01*
X86444030Y-74240784D01*
X86445090Y-74243324D01*
X86443064Y-74248532D01*
X86435556Y-74249940D01*
X86424597Y-74252761D01*
X86421933Y-74256856D01*
X86416097Y-74260743D01*
X86399929Y-74259639D01*
X86398776Y-74259428D01*
X86381510Y-74258057D01*
X86375619Y-74262430D01*
X86375619Y-74262437D01*
X86369831Y-74267184D01*
X86355205Y-74269327D01*
X86335849Y-74268996D01*
X86315872Y-74266326D01*
X86299382Y-74261449D01*
X86296223Y-74259865D01*
X86280170Y-74251842D01*
X86272221Y-74251945D01*
X86269804Y-74260481D01*
X86269758Y-74263030D01*
X86268477Y-74270205D01*
X86262622Y-74273842D01*
X86249177Y-74274764D01*
X86229457Y-74274022D01*
X86207334Y-74271698D01*
X86190777Y-74267791D01*
X86184268Y-74264017D01*
X86175583Y-74259776D01*
X86164258Y-74261993D01*
X86157468Y-74268943D01*
X86157281Y-74270497D01*
X86152237Y-74275742D01*
X86140589Y-74275652D01*
X86127568Y-74270822D01*
X86121836Y-74266481D01*
X86107541Y-74258171D01*
X86098758Y-74256557D01*
X86086894Y-74253506D01*
X86086658Y-74253249D01*
X86210211Y-74253249D01*
X86213519Y-74256557D01*
X86216828Y-74253249D01*
X86213519Y-74249940D01*
X86210211Y-74253249D01*
X86086658Y-74253249D01*
X86083273Y-74249562D01*
X86076862Y-74245263D01*
X86066903Y-74248761D01*
X86058315Y-74257683D01*
X86056277Y-74262569D01*
X86050962Y-74270122D01*
X86038048Y-74273980D01*
X86020890Y-74275130D01*
X85987134Y-74274675D01*
X85965620Y-74271082D01*
X85955687Y-74264167D01*
X85955533Y-74259865D01*
X85998490Y-74259865D01*
X85999905Y-74268692D01*
X86001090Y-74269789D01*
X86005356Y-74264616D01*
X86007498Y-74259865D01*
X86007636Y-74251345D01*
X86004898Y-74249940D01*
X86038187Y-74249940D01*
X86043222Y-74256364D01*
X86044804Y-74256557D01*
X86051228Y-74251522D01*
X86051420Y-74249940D01*
X86046385Y-74243516D01*
X86044804Y-74243324D01*
X86038380Y-74248359D01*
X86038187Y-74249940D01*
X86004898Y-74249940D01*
X85999212Y-74255302D01*
X85998490Y-74259865D01*
X85955533Y-74259865D01*
X85955421Y-74256754D01*
X85955975Y-74249484D01*
X85950495Y-74244376D01*
X85936587Y-74240277D01*
X85928652Y-74238913D01*
X86410906Y-74238913D01*
X86411814Y-74242847D01*
X86415317Y-74243324D01*
X86420763Y-74240903D01*
X86419728Y-74238913D01*
X86411876Y-74238121D01*
X86410906Y-74238913D01*
X85928652Y-74238913D01*
X85912478Y-74236133D01*
X85889864Y-74234643D01*
X85869949Y-74236637D01*
X85856503Y-74241450D01*
X85852931Y-74246632D01*
X85847838Y-74255115D01*
X85833904Y-74255619D01*
X85823820Y-74252587D01*
X85817043Y-74246091D01*
X85819738Y-74236916D01*
X85820551Y-74234145D01*
X85835356Y-74234145D01*
X85836390Y-74236708D01*
X85842335Y-74243020D01*
X85843397Y-74243324D01*
X85846239Y-74238205D01*
X85846314Y-74236708D01*
X85841228Y-74230346D01*
X85839308Y-74230091D01*
X85835356Y-74234145D01*
X85820551Y-74234145D01*
X85823079Y-74225528D01*
X85821822Y-74221037D01*
X85812068Y-74217106D01*
X85800387Y-74217905D01*
X85793570Y-74222740D01*
X85793384Y-74223935D01*
X85787903Y-74228632D01*
X85778497Y-74228898D01*
X85766553Y-74222961D01*
X85764136Y-74211897D01*
X85762882Y-74202453D01*
X85755888Y-74198131D01*
X85749315Y-74197681D01*
X85775409Y-74197681D01*
X85776798Y-74204310D01*
X85777269Y-74205566D01*
X85782510Y-74213668D01*
X85785490Y-74213726D01*
X85784748Y-74206727D01*
X85780972Y-74201862D01*
X85775409Y-74197681D01*
X85749315Y-74197681D01*
X85739645Y-74197019D01*
X85736827Y-74197010D01*
X85712365Y-74193742D01*
X85699363Y-74183970D01*
X85697875Y-74167737D01*
X85698258Y-74166149D01*
X85697200Y-74153427D01*
X85689711Y-74148491D01*
X85673781Y-74141711D01*
X85667674Y-74138362D01*
X85659511Y-74134155D01*
X87024017Y-74134155D01*
X87027325Y-74137463D01*
X87030633Y-74134155D01*
X87027325Y-74130847D01*
X87024017Y-74134155D01*
X85659511Y-74134155D01*
X85654191Y-74131413D01*
X85639555Y-74125079D01*
X85624697Y-74114485D01*
X85621360Y-74103014D01*
X85616614Y-74089409D01*
X85604268Y-74072142D01*
X85596549Y-74063936D01*
X85565023Y-74029779D01*
X85540435Y-73994298D01*
X85528003Y-73971695D01*
X85518445Y-73954048D01*
X85510916Y-73941862D01*
X85508519Y-73938974D01*
X85503814Y-73931142D01*
X85497331Y-73915529D01*
X85495073Y-73909201D01*
X85485508Y-73886542D01*
X85473848Y-73865456D01*
X85472117Y-73862886D01*
X85463526Y-73846474D01*
X85460759Y-73832374D01*
X85460975Y-73830959D01*
X85458480Y-73817482D01*
X85452862Y-73810933D01*
X85442769Y-73796792D01*
X85433517Y-73769686D01*
X85425070Y-73729504D01*
X85423594Y-73720636D01*
X85418869Y-73698878D01*
X85412855Y-73680531D01*
X85410913Y-73676411D01*
X85404530Y-73657856D01*
X85403022Y-73645374D01*
X85400644Y-73631193D01*
X85396406Y-73624699D01*
X85391896Y-73615884D01*
X85389807Y-73599916D01*
X85389789Y-73598274D01*
X85387569Y-73576228D01*
X85382709Y-73557315D01*
X85378793Y-73540232D01*
X85375205Y-73511017D01*
X85372037Y-73470769D01*
X85369378Y-73420589D01*
X85367758Y-73376588D01*
X85366169Y-73354705D01*
X85363303Y-73337698D01*
X85361100Y-73331638D01*
X85359779Y-73319501D01*
X85362144Y-73315097D01*
X85366322Y-73302447D01*
X85366515Y-73293884D01*
X85553583Y-73293884D01*
X85554469Y-73322008D01*
X85557241Y-73355239D01*
X85561406Y-73390060D01*
X85566473Y-73422956D01*
X85571949Y-73450412D01*
X85577342Y-73468913D01*
X85578426Y-73471348D01*
X85584342Y-73493013D01*
X85583883Y-73509387D01*
X85583662Y-73527554D01*
X85588109Y-73538483D01*
X85596543Y-73555142D01*
X85604096Y-73582619D01*
X85610154Y-73618506D01*
X85611587Y-73630538D01*
X85616406Y-73653996D01*
X85624399Y-73674920D01*
X85627955Y-73680908D01*
X85635815Y-73693915D01*
X85637944Y-73701713D01*
X85637712Y-73702079D01*
X85638736Y-73709165D01*
X85644645Y-73724165D01*
X85651112Y-73737722D01*
X85660395Y-73757957D01*
X85666395Y-73774756D01*
X85667647Y-73781446D01*
X85671137Y-73793418D01*
X85674291Y-73796723D01*
X85679747Y-73806007D01*
X85680907Y-73814362D01*
X85683816Y-73824177D01*
X85691264Y-73823938D01*
X85698458Y-73823501D01*
X85697659Y-73832431D01*
X85697403Y-73833255D01*
X85698235Y-73847814D01*
X85705713Y-73866373D01*
X85717018Y-73883690D01*
X85729327Y-73894518D01*
X85730663Y-73895104D01*
X85739193Y-73904140D01*
X85740664Y-73910647D01*
X85745587Y-73928194D01*
X85757250Y-73939605D01*
X85771536Y-73941414D01*
X85784288Y-73942687D01*
X85797075Y-73954805D01*
X85799157Y-73957639D01*
X85808571Y-73973392D01*
X85813149Y-73986022D01*
X85813233Y-73987212D01*
X85819688Y-73995196D01*
X85839099Y-74000852D01*
X85843006Y-74001483D01*
X85863664Y-74006462D01*
X85872341Y-74013672D01*
X85872780Y-74016239D01*
X85877082Y-74023611D01*
X85886012Y-74023069D01*
X85896554Y-74022860D01*
X85899245Y-74026021D01*
X85904741Y-74030223D01*
X85914132Y-74030364D01*
X85925518Y-74031607D01*
X85927364Y-74036564D01*
X85928891Y-74044372D01*
X85930672Y-74045123D01*
X85939676Y-74046480D01*
X85956646Y-74049571D01*
X85965408Y-74051264D01*
X85988887Y-74053942D01*
X86004946Y-74050498D01*
X86008852Y-74048312D01*
X86025606Y-74043015D01*
X86049968Y-74041497D01*
X86076942Y-74043512D01*
X86101531Y-74048814D01*
X86112962Y-74053421D01*
X86130859Y-74059505D01*
X86150765Y-74057776D01*
X86155968Y-74056452D01*
X86178591Y-74052440D01*
X86204646Y-74050717D01*
X86211367Y-74050784D01*
X86230566Y-74050047D01*
X86243745Y-74047018D01*
X86246504Y-74044991D01*
X86255151Y-74041736D01*
X86263142Y-74044835D01*
X86275505Y-74047873D01*
X86279995Y-74044330D01*
X86289797Y-74040368D01*
X86310596Y-74040867D01*
X86316981Y-74041652D01*
X86341455Y-74043123D01*
X86356740Y-74039922D01*
X86358301Y-74038864D01*
X86370232Y-74035027D01*
X86390836Y-74033994D01*
X86402810Y-74034639D01*
X86424555Y-74035376D01*
X86441579Y-74033971D01*
X86447590Y-74032102D01*
X86460444Y-74031187D01*
X86475514Y-74037332D01*
X86490785Y-74044112D01*
X86502359Y-74042773D01*
X86507703Y-74039873D01*
X86523437Y-74033179D01*
X86532997Y-74031602D01*
X86545324Y-74028294D01*
X87381298Y-74028294D01*
X87384606Y-74031602D01*
X87387914Y-74028294D01*
X87384606Y-74024986D01*
X87381298Y-74028294D01*
X86545324Y-74028294D01*
X86547366Y-74027746D01*
X86552421Y-74024178D01*
X86557918Y-74020242D01*
X86567079Y-74017132D01*
X86582446Y-74014358D01*
X86606560Y-74011429D01*
X86631866Y-74008840D01*
X86650753Y-74006253D01*
X86664013Y-74003130D01*
X86666192Y-74002165D01*
X86675421Y-73999599D01*
X86694136Y-73996342D01*
X86718656Y-73993016D01*
X86724220Y-73992365D01*
X86753210Y-73988559D01*
X86780759Y-73984091D01*
X86801188Y-73979889D01*
X86802144Y-73979644D01*
X86823831Y-73976234D01*
X86836002Y-73979128D01*
X86845994Y-73980614D01*
X86851599Y-73975839D01*
X86862411Y-73969328D01*
X86868483Y-73969643D01*
X86879924Y-73968735D01*
X86894416Y-73961904D01*
X86916734Y-73954009D01*
X86928810Y-73955107D01*
X86948568Y-73954606D01*
X86958249Y-73948541D01*
X86970741Y-73941233D01*
X86978974Y-73940695D01*
X86990584Y-73940096D01*
X87006297Y-73934342D01*
X87022351Y-73928661D01*
X87033170Y-73931742D01*
X87033883Y-73932309D01*
X87042712Y-73935553D01*
X87049111Y-73928426D01*
X87060105Y-73920222D01*
X87069899Y-73920929D01*
X87083526Y-73920430D01*
X87087985Y-73915303D01*
X87096692Y-73907928D01*
X87107038Y-73905892D01*
X87120507Y-73903715D01*
X87126000Y-73900198D01*
X87134364Y-73895011D01*
X87151254Y-73888778D01*
X87172292Y-73882669D01*
X87193100Y-73877855D01*
X87209300Y-73875506D01*
X87215943Y-73876152D01*
X87222002Y-73875577D01*
X87222506Y-73873201D01*
X87228140Y-73867839D01*
X87238237Y-73866195D01*
X87254058Y-73862243D01*
X87262204Y-73856270D01*
X87275060Y-73848327D01*
X87286011Y-73846346D01*
X87302034Y-73842930D01*
X87320813Y-73834565D01*
X87323245Y-73833138D01*
X87341387Y-73824324D01*
X87357523Y-73819995D01*
X87359322Y-73819905D01*
X87375824Y-73815320D01*
X87384082Y-73809534D01*
X87394612Y-73802785D01*
X87400402Y-73802880D01*
X87407401Y-73801079D01*
X87410331Y-73796266D01*
X87416909Y-73789468D01*
X87420995Y-73790107D01*
X87428682Y-73788813D01*
X87431442Y-73784516D01*
X87439772Y-73775377D01*
X87454784Y-73766662D01*
X87455502Y-73766360D01*
X87475614Y-73755338D01*
X87492249Y-73742721D01*
X87504397Y-73733125D01*
X87512332Y-73729835D01*
X87512802Y-73730004D01*
X87518409Y-73726477D01*
X87520128Y-73724334D01*
X87765043Y-73724334D01*
X87768251Y-73731183D01*
X87771660Y-73730560D01*
X87778024Y-73722102D01*
X87778276Y-73720245D01*
X87773229Y-73714198D01*
X87771660Y-73714020D01*
X87765853Y-73719405D01*
X87765043Y-73724334D01*
X87520128Y-73724334D01*
X87527875Y-73714675D01*
X87532952Y-73707034D01*
X87533994Y-73705599D01*
X87778608Y-73705599D01*
X87781351Y-73707403D01*
X87786498Y-73702349D01*
X87791294Y-73694572D01*
X87794633Y-73682347D01*
X87790504Y-73677009D01*
X87785923Y-73676214D01*
X87787286Y-73679459D01*
X87787234Y-73688656D01*
X87785000Y-73690796D01*
X87779295Y-73698036D01*
X87778608Y-73705599D01*
X87533994Y-73705599D01*
X87543479Y-73692532D01*
X87551786Y-73684990D01*
X87554124Y-73684742D01*
X87560581Y-73682104D01*
X87567213Y-73672853D01*
X87573941Y-73661846D01*
X87795204Y-73661846D01*
X87795456Y-73668739D01*
X87802470Y-73671524D01*
X87806701Y-73668392D01*
X87810782Y-73659929D01*
X87809702Y-73657229D01*
X87801697Y-73655886D01*
X87795204Y-73661846D01*
X87573941Y-73661846D01*
X87574968Y-73660165D01*
X87579905Y-73654473D01*
X87586075Y-73646125D01*
X87594664Y-73630119D01*
X87603465Y-73611193D01*
X87610267Y-73594085D01*
X87612868Y-73583759D01*
X87616494Y-73575778D01*
X87618837Y-73575077D01*
X87624537Y-73569578D01*
X87631882Y-73556340D01*
X87638560Y-73540247D01*
X87642255Y-73526186D01*
X87642338Y-73525455D01*
X87646179Y-73513726D01*
X87647022Y-73512222D01*
X87650140Y-73502290D01*
X87653737Y-73484057D01*
X87655762Y-73470698D01*
X87660454Y-73448658D01*
X87667229Y-73430963D01*
X87671346Y-73424916D01*
X87677817Y-73415441D01*
X87674382Y-73411428D01*
X87668964Y-73404186D01*
X87669492Y-73400972D01*
X87671131Y-73391084D01*
X87672920Y-73371598D01*
X87674548Y-73346140D01*
X87675004Y-73336890D01*
X87675867Y-73307887D01*
X87674836Y-73287845D01*
X87671245Y-73272548D01*
X87664427Y-73257782D01*
X87661758Y-73253008D01*
X87652429Y-73235403D01*
X87646753Y-73222199D01*
X87645950Y-73218703D01*
X87643761Y-73208140D01*
X87638868Y-73193416D01*
X87633635Y-73179162D01*
X87631148Y-73171482D01*
X87627132Y-73161126D01*
X87618945Y-73144696D01*
X87608977Y-73126522D01*
X87599618Y-73110933D01*
X87593256Y-73102256D01*
X87592691Y-73101808D01*
X87588890Y-73094208D01*
X87589666Y-73092159D01*
X87587484Y-73084691D01*
X87577463Y-73074207D01*
X87576542Y-73073469D01*
X87564945Y-73062290D01*
X87559942Y-73053389D01*
X87559938Y-73053217D01*
X87554316Y-73046415D01*
X87543397Y-73041873D01*
X87530384Y-73037673D01*
X87527918Y-73031409D01*
X87533739Y-73018810D01*
X87536742Y-73008607D01*
X87529836Y-73002093D01*
X87523814Y-72999560D01*
X87511423Y-72992637D01*
X87507007Y-72986390D01*
X87501862Y-72979962D01*
X87499466Y-72979610D01*
X87489769Y-72974850D01*
X87483136Y-72968031D01*
X87476187Y-72961698D01*
X87474136Y-72964723D01*
X87469012Y-72971516D01*
X87458077Y-72972535D01*
X87447241Y-72968151D01*
X87443127Y-72962783D01*
X87441975Y-72950830D01*
X87448994Y-72948270D01*
X87457225Y-72953012D01*
X87465515Y-72957250D01*
X87467310Y-72954400D01*
X87461836Y-72947017D01*
X87454077Y-72943220D01*
X87443394Y-72937607D01*
X87440844Y-72933621D01*
X87435159Y-72927597D01*
X87421731Y-72922304D01*
X87406000Y-72919603D01*
X87400079Y-72919684D01*
X87388167Y-72916935D01*
X87384801Y-72913763D01*
X87376678Y-72907344D01*
X87369453Y-72909254D01*
X87368065Y-72913837D01*
X87372118Y-72917788D01*
X87374681Y-72916755D01*
X87380345Y-72918255D01*
X87381298Y-72922980D01*
X87376332Y-72931575D01*
X87363349Y-72932352D01*
X87347781Y-72926446D01*
X87337473Y-72916904D01*
X87335727Y-72906789D01*
X87342749Y-72900558D01*
X87346562Y-72900113D01*
X87354224Y-72899020D01*
X87349483Y-72894426D01*
X87348216Y-72893598D01*
X87333288Y-72887864D01*
X87318778Y-72887836D01*
X87309601Y-72893105D01*
X87308518Y-72896906D01*
X87306163Y-72904844D01*
X87297666Y-72905773D01*
X87280875Y-72899641D01*
X87273189Y-72896079D01*
X87257547Y-72886138D01*
X87253805Y-72877057D01*
X87288669Y-72877057D01*
X87291977Y-72880365D01*
X87295286Y-72877057D01*
X87291977Y-72873749D01*
X87288669Y-72877057D01*
X87253805Y-72877057D01*
X87253326Y-72875894D01*
X87253767Y-72873380D01*
X87260512Y-72864814D01*
X87267818Y-72865566D01*
X87274984Y-72867671D01*
X87272641Y-72863660D01*
X87267639Y-72858492D01*
X87253803Y-72849535D01*
X87244151Y-72847283D01*
X87230366Y-72844377D01*
X87225484Y-72841411D01*
X87214587Y-72835273D01*
X87202657Y-72831144D01*
X87191351Y-72828545D01*
X87191819Y-72831088D01*
X87198994Y-72837041D01*
X87207363Y-72847147D01*
X87204826Y-72854377D01*
X87195049Y-72856444D01*
X87179558Y-72853476D01*
X87163537Y-72847295D01*
X87152168Y-72839721D01*
X87149727Y-72835008D01*
X87144501Y-72830895D01*
X87138148Y-72831280D01*
X87123885Y-72831328D01*
X87103753Y-72827733D01*
X87081554Y-72821681D01*
X87069283Y-72817292D01*
X87129878Y-72817292D01*
X87135693Y-72821809D01*
X87149994Y-72824067D01*
X87153035Y-72824126D01*
X87168347Y-72822879D01*
X87175994Y-72819812D01*
X87176192Y-72819164D01*
X87171307Y-72813673D01*
X87171230Y-72813664D01*
X87146403Y-72811913D01*
X87133105Y-72813456D01*
X87129878Y-72817292D01*
X87069283Y-72817292D01*
X87061089Y-72814361D01*
X87046158Y-72806958D01*
X87040880Y-72801154D01*
X87105021Y-72801154D01*
X87107270Y-72808474D01*
X87112343Y-72813483D01*
X87115238Y-72808500D01*
X87115287Y-72798171D01*
X87114026Y-72796145D01*
X87107663Y-72794603D01*
X87105021Y-72801154D01*
X87040880Y-72801154D01*
X87040558Y-72800800D01*
X87043646Y-72796558D01*
X87085769Y-72796558D01*
X87086677Y-72800492D01*
X87090180Y-72800969D01*
X87095626Y-72798548D01*
X87094591Y-72796558D01*
X87086739Y-72795767D01*
X87085769Y-72796558D01*
X87043646Y-72796558D01*
X87046175Y-72793083D01*
X87055662Y-72791594D01*
X87065163Y-72790060D01*
X87065066Y-72786441D01*
X87055655Y-72782212D01*
X87040505Y-72779468D01*
X87024710Y-72778596D01*
X87013363Y-72779981D01*
X87010784Y-72782326D01*
X87015853Y-72787586D01*
X87017401Y-72787737D01*
X87023825Y-72792771D01*
X87024017Y-72794353D01*
X87018498Y-72799615D01*
X87005209Y-72800710D01*
X86989051Y-72797283D01*
X86988168Y-72796953D01*
X86979441Y-72787769D01*
X86977703Y-72779967D01*
X86980186Y-72770821D01*
X86989966Y-72770751D01*
X86992590Y-72771494D01*
X87002350Y-72773374D01*
X87001144Y-72769317D01*
X87000366Y-72768468D01*
X86990523Y-72764236D01*
X86971567Y-72760386D01*
X86947729Y-72757763D01*
X86923893Y-72755258D01*
X86905173Y-72751751D01*
X86895623Y-72748002D01*
X86885998Y-72741294D01*
X86883694Y-72744401D01*
X86890037Y-72753606D01*
X86900464Y-72761870D01*
X86906578Y-72763140D01*
X86910779Y-72766103D01*
X86911540Y-72771577D01*
X86908456Y-72779253D01*
X86897274Y-72778394D01*
X86896653Y-72778212D01*
X86883651Y-72775365D01*
X86861382Y-72771493D01*
X86833706Y-72767245D01*
X86819985Y-72765312D01*
X86786993Y-72759993D01*
X86765189Y-72754121D01*
X86764690Y-72753829D01*
X86820631Y-72753829D01*
X86823828Y-72751737D01*
X86845377Y-72751737D01*
X86848584Y-72758586D01*
X86851993Y-72757963D01*
X86858357Y-72749505D01*
X86858609Y-72747648D01*
X86853563Y-72741601D01*
X86851993Y-72741423D01*
X86846186Y-72746808D01*
X86845377Y-72751737D01*
X86823828Y-72751737D01*
X86825477Y-72750658D01*
X86826349Y-72749803D01*
X86831575Y-72741128D01*
X86830866Y-72737939D01*
X86825945Y-72739925D01*
X86822645Y-72746099D01*
X86820631Y-72753829D01*
X86764690Y-72753829D01*
X86752535Y-72746714D01*
X86748004Y-72738607D01*
X86790066Y-72738607D01*
X86793840Y-72744063D01*
X86802529Y-72750774D01*
X86805485Y-72748418D01*
X86802643Y-72741863D01*
X86794050Y-72735164D01*
X86791795Y-72734806D01*
X86790066Y-72738607D01*
X86748004Y-72738607D01*
X86746991Y-72736794D01*
X86746233Y-72729844D01*
X86740803Y-72722515D01*
X86736208Y-72721574D01*
X86727501Y-72723153D01*
X86729083Y-72729258D01*
X86736995Y-72737957D01*
X86744322Y-72748707D01*
X86740258Y-72753503D01*
X86726177Y-72751313D01*
X86715356Y-72743542D01*
X86714998Y-72734691D01*
X86715000Y-72726562D01*
X86707060Y-72723648D01*
X86695783Y-72723751D01*
X86680770Y-72725799D01*
X86673506Y-72729322D01*
X86673382Y-72729844D01*
X86678429Y-72734670D01*
X86679969Y-72734806D01*
X86686393Y-72739841D01*
X86686585Y-72741423D01*
X86680797Y-72745366D01*
X86666563Y-72747578D01*
X86648583Y-72747861D01*
X86631554Y-72746021D01*
X86624272Y-72744023D01*
X86615145Y-72735802D01*
X86613806Y-72730790D01*
X86608196Y-72723643D01*
X86598919Y-72722096D01*
X86590585Y-72723626D01*
X86592344Y-72725969D01*
X86598723Y-72731439D01*
X86594194Y-72736754D01*
X86581024Y-72740496D01*
X86567643Y-72741423D01*
X86540183Y-72739349D01*
X86524902Y-72733031D01*
X86521178Y-72724793D01*
X86516096Y-72718988D01*
X86507945Y-72719657D01*
X86497193Y-72726303D01*
X86494713Y-72732270D01*
X86489438Y-72740474D01*
X86485261Y-72741423D01*
X86472384Y-72736436D01*
X86460343Y-72725106D01*
X86460244Y-72724882D01*
X86481480Y-72724882D01*
X86484788Y-72728190D01*
X86488096Y-72724882D01*
X86484788Y-72721574D01*
X86481480Y-72724882D01*
X86460244Y-72724882D01*
X86457306Y-72718265D01*
X86627039Y-72718265D01*
X86630347Y-72721574D01*
X86633655Y-72718265D01*
X86640271Y-72718265D01*
X86643579Y-72721574D01*
X86646888Y-72718265D01*
X86643579Y-72714957D01*
X86640271Y-72718265D01*
X86633655Y-72718265D01*
X86630347Y-72714957D01*
X86627039Y-72718265D01*
X86457306Y-72718265D01*
X86454914Y-72712878D01*
X86454913Y-72712831D01*
X86452589Y-72709780D01*
X86449037Y-72714151D01*
X86440152Y-72719628D01*
X86435460Y-72718447D01*
X86427752Y-72719493D01*
X86424224Y-72726761D01*
X86419527Y-72735065D01*
X86408740Y-72739009D01*
X86389934Y-72739996D01*
X86370090Y-72740348D01*
X86355713Y-72741119D01*
X86352462Y-72741543D01*
X86333933Y-72742035D01*
X86323917Y-72734391D01*
X86322689Y-72728190D01*
X86321084Y-72721964D01*
X86402084Y-72721964D01*
X86404631Y-72731113D01*
X86408701Y-72731498D01*
X86414788Y-72721925D01*
X86415317Y-72717875D01*
X86411618Y-72709324D01*
X86408701Y-72708341D01*
X86403377Y-72713899D01*
X86402084Y-72721964D01*
X86321084Y-72721964D01*
X86319918Y-72717439D01*
X86316072Y-72714957D01*
X86309648Y-72719992D01*
X86309456Y-72721574D01*
X86303929Y-72726994D01*
X86296552Y-72728190D01*
X86283157Y-72732688D01*
X86278219Y-72737891D01*
X86269035Y-72744331D01*
X86256846Y-72743754D01*
X86247136Y-72737693D01*
X86246387Y-72734375D01*
X86264764Y-72734375D01*
X86265669Y-72734806D01*
X86271707Y-72730148D01*
X86273066Y-72728190D01*
X86274752Y-72722004D01*
X86273847Y-72721574D01*
X86267809Y-72726231D01*
X86266450Y-72728190D01*
X86264764Y-72734375D01*
X86246387Y-72734375D01*
X86245092Y-72728639D01*
X86242464Y-72720543D01*
X86230848Y-72718393D01*
X86213244Y-72722526D01*
X86208458Y-72724492D01*
X86192036Y-72727372D01*
X86184486Y-72726466D01*
X86175458Y-72726602D01*
X86175432Y-72735645D01*
X86174664Y-72745805D01*
X86167265Y-72748452D01*
X86156767Y-72744552D01*
X86146700Y-72735070D01*
X86142119Y-72726536D01*
X86134989Y-72716331D01*
X86125012Y-72718288D01*
X86112149Y-72731498D01*
X86098082Y-72742315D01*
X86079766Y-72747774D01*
X86061115Y-72747955D01*
X86046042Y-72742939D01*
X86044289Y-72740596D01*
X86086221Y-72740596D01*
X86091067Y-72737425D01*
X86091939Y-72736571D01*
X86097165Y-72727896D01*
X86096456Y-72724707D01*
X86091535Y-72726692D01*
X86088235Y-72732867D01*
X86086221Y-72740596D01*
X86044289Y-72740596D01*
X86038461Y-72732805D01*
X86038187Y-72729980D01*
X86036390Y-72723540D01*
X86029004Y-72727580D01*
X86028263Y-72728190D01*
X86020222Y-72732870D01*
X86018338Y-72728625D01*
X86014276Y-72725395D01*
X86003634Y-72731123D01*
X85988206Y-72738992D01*
X85977168Y-72741423D01*
X85967244Y-72744500D01*
X85965408Y-72748039D01*
X85960020Y-72753471D01*
X85946830Y-72754287D01*
X85930293Y-72750846D01*
X85915620Y-72744014D01*
X85903821Y-72737209D01*
X85898161Y-72738253D01*
X85895296Y-72744014D01*
X85886902Y-72753250D01*
X85881606Y-72754655D01*
X85875320Y-72751259D01*
X85876088Y-72748039D01*
X85875216Y-72741958D01*
X85872551Y-72741423D01*
X85865003Y-72746969D01*
X85861309Y-72755249D01*
X85854863Y-72765495D01*
X85842079Y-72766091D01*
X85830231Y-72765824D01*
X85826466Y-72768805D01*
X85820823Y-72773169D01*
X85810735Y-72774504D01*
X85794880Y-72778491D01*
X85786700Y-72784510D01*
X85777415Y-72790810D01*
X85769422Y-72787069D01*
X85763513Y-72777939D01*
X85764074Y-72773754D01*
X85762035Y-72768798D01*
X85756765Y-72767888D01*
X85746419Y-72773445D01*
X85742371Y-72781120D01*
X85737818Y-72791829D01*
X85734681Y-72794353D01*
X85729406Y-72799742D01*
X85722274Y-72812850D01*
X85721665Y-72814202D01*
X85711464Y-72828952D01*
X85700581Y-72834051D01*
X85691333Y-72837794D01*
X85690865Y-72847460D01*
X85690477Y-72856574D01*
X85686887Y-72856815D01*
X85677123Y-72857201D01*
X85669738Y-72861549D01*
X85662383Y-72866516D01*
X85662095Y-72861451D01*
X85663858Y-72855502D01*
X85665371Y-72844267D01*
X85658424Y-72841155D01*
X85656542Y-72841189D01*
X85649926Y-72842868D01*
X85652018Y-72844792D01*
X85655572Y-72852595D01*
X85654768Y-72868057D01*
X85650543Y-72886715D01*
X85643835Y-72904102D01*
X85637503Y-72913886D01*
X85631659Y-72924014D01*
X85632373Y-72928870D01*
X85632107Y-72933093D01*
X85630402Y-72933295D01*
X85618690Y-72928626D01*
X85612999Y-72918317D01*
X85615471Y-72909262D01*
X85619084Y-72899177D01*
X85616023Y-72891013D01*
X85610054Y-72890289D01*
X85627976Y-72890289D01*
X85631285Y-72893598D01*
X85634593Y-72890289D01*
X85631285Y-72886981D01*
X85627976Y-72890289D01*
X85610054Y-72890289D01*
X85608512Y-72890102D01*
X85607670Y-72890572D01*
X85602405Y-72899685D01*
X85601511Y-72906513D01*
X85597199Y-72918494D01*
X85592462Y-72922120D01*
X85585328Y-72929391D01*
X85580546Y-72941605D01*
X85579330Y-72953458D01*
X85582893Y-72959648D01*
X85583844Y-72959761D01*
X85584912Y-72962845D01*
X85578781Y-72968555D01*
X85570602Y-72978570D01*
X85573314Y-72990058D01*
X85577169Y-73003277D01*
X85575726Y-73013589D01*
X85569925Y-73016585D01*
X85567865Y-73015650D01*
X85562827Y-73016689D01*
X85562224Y-73026622D01*
X85565710Y-73042003D01*
X85572101Y-73057745D01*
X85578523Y-73076447D01*
X85575741Y-73090787D01*
X85575642Y-73090973D01*
X85571924Y-73102723D01*
X85573073Y-73107758D01*
X85572163Y-73111594D01*
X85569406Y-73111936D01*
X85564520Y-73117348D01*
X85566098Y-73130012D01*
X85568488Y-73139839D01*
X85569663Y-73148079D01*
X85569445Y-73157999D01*
X85567660Y-73172869D01*
X85564132Y-73195955D01*
X85561725Y-73211180D01*
X85557687Y-73241109D01*
X85554752Y-73271140D01*
X85553583Y-73293884D01*
X85366515Y-73293884D01*
X85366744Y-73283746D01*
X85363606Y-73265567D01*
X85360421Y-73258149D01*
X85357232Y-73245797D01*
X85355372Y-73223314D01*
X85354760Y-73193728D01*
X85355312Y-73160067D01*
X85356949Y-73125355D01*
X85359586Y-73092622D01*
X85363144Y-73064894D01*
X85366029Y-73050516D01*
X85371096Y-73027352D01*
X85373724Y-73009107D01*
X85373360Y-72999645D01*
X85373306Y-72999551D01*
X85373880Y-72990202D01*
X85380589Y-72976111D01*
X85381244Y-72975090D01*
X85386980Y-72964455D01*
X85385898Y-72961515D01*
X85384827Y-72962061D01*
X85377597Y-72963103D01*
X85376557Y-72960542D01*
X85381376Y-72951161D01*
X85382996Y-72949946D01*
X85390811Y-72939921D01*
X85400697Y-72919325D01*
X85411616Y-72890450D01*
X85416051Y-72877057D01*
X85627976Y-72877057D01*
X85631285Y-72880365D01*
X85634593Y-72877057D01*
X85631285Y-72873749D01*
X85627976Y-72877057D01*
X85416051Y-72877057D01*
X85423372Y-72857811D01*
X85431019Y-72843012D01*
X85432720Y-72840667D01*
X85438241Y-72830743D01*
X85661058Y-72830743D01*
X85664366Y-72834051D01*
X85667674Y-72830743D01*
X85664366Y-72827434D01*
X85661058Y-72830743D01*
X85438241Y-72830743D01*
X85440406Y-72826852D01*
X85445388Y-72812060D01*
X85453456Y-72792611D01*
X85462871Y-72778978D01*
X85481820Y-72756999D01*
X85497065Y-72737339D01*
X85500874Y-72731498D01*
X85912478Y-72731498D01*
X85915786Y-72734806D01*
X85919094Y-72731498D01*
X85915786Y-72728190D01*
X85912478Y-72731498D01*
X85500874Y-72731498D01*
X85506628Y-72722676D01*
X85508883Y-72716698D01*
X85514171Y-72709834D01*
X85527297Y-72700619D01*
X85531541Y-72698222D01*
X85548108Y-72686716D01*
X85559467Y-72674244D01*
X85560472Y-72672369D01*
X85570251Y-72662103D01*
X85588487Y-72651118D01*
X85601360Y-72645486D01*
X85625780Y-72633414D01*
X85644655Y-72619002D01*
X85649266Y-72613638D01*
X85660898Y-72601679D01*
X85671075Y-72598339D01*
X85671716Y-72598538D01*
X85682865Y-72597648D01*
X85699199Y-72591072D01*
X85703819Y-72588515D01*
X85725738Y-72579375D01*
X85740711Y-72579405D01*
X85755920Y-72578826D01*
X85762966Y-72572469D01*
X85772019Y-72564891D01*
X85783897Y-72567873D01*
X85784976Y-72568440D01*
X85796341Y-72572319D01*
X85802089Y-72566840D01*
X85802439Y-72565969D01*
X85811275Y-72558280D01*
X85821627Y-72556166D01*
X85837038Y-72553121D01*
X85844590Y-72548628D01*
X85854461Y-72544972D01*
X85874239Y-72541928D01*
X85900601Y-72539952D01*
X85910422Y-72539605D01*
X85939210Y-72537969D01*
X85964884Y-72534912D01*
X85983096Y-72531003D01*
X85986715Y-72529629D01*
X86003038Y-72524690D01*
X86013406Y-72528353D01*
X86024834Y-72531799D01*
X86044174Y-72532725D01*
X86066414Y-72531456D01*
X86086545Y-72528316D01*
X86099554Y-72523631D01*
X86100711Y-72522690D01*
X86111499Y-72518363D01*
X86128291Y-72516592D01*
X86144480Y-72517610D01*
X86152844Y-72520853D01*
X86162678Y-72525364D01*
X86177015Y-72527332D01*
X86190280Y-72526572D01*
X86196896Y-72522905D01*
X86196979Y-72522292D01*
X86202794Y-72518062D01*
X86220350Y-72519598D01*
X86221790Y-72519874D01*
X86244938Y-72523789D01*
X86266948Y-72526575D01*
X86267809Y-72526655D01*
X86285176Y-72529451D01*
X86296951Y-72533459D01*
X86301839Y-72534534D01*
X86300627Y-72531473D01*
X86300455Y-72521959D01*
X86308438Y-72514762D01*
X86319527Y-72513114D01*
X86325158Y-72515772D01*
X86338499Y-72520232D01*
X86345007Y-72519183D01*
X86354066Y-72519108D01*
X86355770Y-72522609D01*
X86359127Y-72526604D01*
X86370538Y-72522107D01*
X86370657Y-72522043D01*
X86384840Y-72517432D01*
X86405611Y-72514126D01*
X86428847Y-72512331D01*
X86450428Y-72512255D01*
X86466232Y-72514108D01*
X86471844Y-72516934D01*
X86479707Y-72520424D01*
X86481800Y-72519578D01*
X86491836Y-72519359D01*
X86500531Y-72522657D01*
X86511689Y-72525896D01*
X86516670Y-72520517D01*
X86520724Y-72517015D01*
X86530881Y-72514616D01*
X86548844Y-72513200D01*
X86576318Y-72512644D01*
X86615006Y-72512828D01*
X86623117Y-72512927D01*
X86663191Y-72513634D01*
X86692197Y-72514704D01*
X86712296Y-72516387D01*
X86725652Y-72518930D01*
X86734428Y-72522584D01*
X86739440Y-72526324D01*
X86749225Y-72533601D01*
X86752717Y-72531055D01*
X86752850Y-72529072D01*
X86754211Y-72523375D01*
X86758396Y-72528360D01*
X86764464Y-72533204D01*
X86772222Y-72526845D01*
X86782515Y-72520321D01*
X86793278Y-72523529D01*
X86806018Y-72527435D01*
X86812116Y-72526503D01*
X86821487Y-72525477D01*
X86839617Y-72526656D01*
X86858587Y-72529185D01*
X86887664Y-72532965D01*
X86904806Y-72532735D01*
X86910783Y-72528194D01*
X86906363Y-72519041D01*
X86900586Y-72512732D01*
X86887991Y-72501817D01*
X86878753Y-72496677D01*
X86878158Y-72496619D01*
X86871979Y-72491776D01*
X86871842Y-72490512D01*
X86867177Y-72481612D01*
X86855408Y-72467901D01*
X86839870Y-72452694D01*
X86823901Y-72439309D01*
X86813193Y-72432213D01*
X86794896Y-72425644D01*
X86781766Y-72423840D01*
X86769030Y-72420250D01*
X86765981Y-72413915D01*
X86760661Y-72405216D01*
X86755754Y-72403991D01*
X86744353Y-72401024D01*
X86726394Y-72393435D01*
X86714454Y-72387450D01*
X86695405Y-72378075D01*
X86680459Y-72372081D01*
X86675267Y-72370909D01*
X86669970Y-72366203D01*
X86670639Y-72361821D01*
X86668243Y-72355705D01*
X86655822Y-72348447D01*
X86632153Y-72339414D01*
X86619155Y-72335128D01*
X86592629Y-72326305D01*
X86569889Y-72318151D01*
X86554720Y-72312042D01*
X86551961Y-72310676D01*
X86540721Y-72306591D01*
X86536253Y-72307315D01*
X86529933Y-72305674D01*
X86522010Y-72298390D01*
X86509366Y-72289749D01*
X86489408Y-72281831D01*
X86478172Y-72278877D01*
X86454478Y-72273410D01*
X86424652Y-72266011D01*
X86396319Y-72258593D01*
X86372354Y-72252687D01*
X86353406Y-72249077D01*
X86342997Y-72248410D01*
X86342299Y-72248655D01*
X86335700Y-72247110D01*
X86334832Y-72245355D01*
X86327449Y-72240824D01*
X86311771Y-72237563D01*
X86306148Y-72237044D01*
X86288623Y-72235083D01*
X86277612Y-72232381D01*
X86276374Y-72231589D01*
X86267073Y-72226549D01*
X86248387Y-72219741D01*
X86223867Y-72212183D01*
X86197065Y-72204892D01*
X86171531Y-72198888D01*
X86150817Y-72195189D01*
X86148455Y-72194908D01*
X86127885Y-72191787D01*
X86112851Y-72187878D01*
X86108506Y-72185637D01*
X86097846Y-72182510D01*
X86094279Y-72183317D01*
X86087623Y-72181171D01*
X86086815Y-72174529D01*
X86085809Y-72167869D01*
X86079446Y-72164484D01*
X86064828Y-72163585D01*
X86048112Y-72164016D01*
X86023217Y-72163652D01*
X86001063Y-72161108D01*
X85990423Y-72158335D01*
X85967568Y-72154644D01*
X85952525Y-72158074D01*
X85937813Y-72161285D01*
X85929303Y-72159602D01*
X85929110Y-72159336D01*
X85921028Y-72155985D01*
X85904122Y-72153554D01*
X85890920Y-72152834D01*
X85862643Y-72152281D01*
X85842173Y-72152388D01*
X85824091Y-72153372D01*
X85802978Y-72155455D01*
X85790076Y-72156920D01*
X85762370Y-72159188D01*
X85729002Y-72160606D01*
X85699511Y-72160873D01*
X85673779Y-72160901D01*
X85658914Y-72162105D01*
X85652570Y-72164972D01*
X85652400Y-72169992D01*
X85652631Y-72170629D01*
X85653208Y-72177552D01*
X85645116Y-72177967D01*
X85638960Y-72176585D01*
X85616680Y-72177029D01*
X85606444Y-72181575D01*
X85590572Y-72188504D01*
X85568943Y-72194382D01*
X85561813Y-72195690D01*
X85541884Y-72199958D01*
X85526989Y-72205141D01*
X85523770Y-72207060D01*
X85516661Y-72210963D01*
X85515499Y-72209992D01*
X85510109Y-72210239D01*
X85496328Y-72214978D01*
X85485552Y-72219493D01*
X85464832Y-72226970D01*
X85446752Y-72230693D01*
X85440892Y-72230699D01*
X85429813Y-72231902D01*
X85427659Y-72236407D01*
X85422271Y-72241513D01*
X85406074Y-72249302D01*
X85381016Y-72258938D01*
X85353226Y-72268271D01*
X85323902Y-72278004D01*
X85299843Y-72286785D01*
X85283498Y-72293664D01*
X85277315Y-72297689D01*
X85277312Y-72297739D01*
X85271663Y-72302328D01*
X85258298Y-72307300D01*
X85242590Y-72311096D01*
X85229911Y-72312152D01*
X85228438Y-72311946D01*
X85219818Y-72315143D01*
X85208589Y-72323743D01*
X85195687Y-72333028D01*
X85175044Y-72345112D01*
X85151024Y-72357449D01*
X85149948Y-72357962D01*
X85127464Y-72369900D01*
X85111687Y-72380749D01*
X85105313Y-72388636D01*
X85105288Y-72388994D01*
X85100825Y-72395787D01*
X85095911Y-72395192D01*
X85085779Y-72396996D01*
X85082886Y-72401101D01*
X85074337Y-72409631D01*
X85069814Y-72410607D01*
X85059413Y-72415948D01*
X85056581Y-72420532D01*
X85048406Y-72429322D01*
X85043834Y-72430456D01*
X85033667Y-72435084D01*
X85021117Y-72446318D01*
X85020277Y-72447268D01*
X85008750Y-72457572D01*
X84999971Y-72460452D01*
X84999311Y-72460157D01*
X84995851Y-72461487D01*
X84997217Y-72467321D01*
X84996022Y-72479669D01*
X84990525Y-72484534D01*
X84981206Y-72495145D01*
X84979578Y-72501973D01*
X84974679Y-72512624D01*
X84963455Y-72523736D01*
X84951121Y-72530824D01*
X84945473Y-72531314D01*
X84940519Y-72536082D01*
X84932490Y-72549601D01*
X84926692Y-72561338D01*
X84916003Y-72583145D01*
X84905502Y-72602580D01*
X84901567Y-72609096D01*
X84894172Y-72627326D01*
X84892636Y-72642968D01*
X84890313Y-72658567D01*
X84884050Y-72664263D01*
X84874996Y-72673003D01*
X84873717Y-72678360D01*
X84868367Y-72687127D01*
X84863021Y-72688492D01*
X84855318Y-72692545D01*
X84855786Y-72701725D01*
X84856157Y-72712275D01*
X84853249Y-72714957D01*
X84849038Y-72720709D01*
X84847253Y-72734567D01*
X84847252Y-72734806D01*
X84845586Y-72748746D01*
X84841570Y-72754654D01*
X84841502Y-72754655D01*
X84836734Y-72760444D01*
X84832547Y-72774645D01*
X84832074Y-72777316D01*
X84825970Y-72797058D01*
X84816415Y-72812909D01*
X84816321Y-72813011D01*
X84787676Y-72848090D01*
X84767678Y-72883726D01*
X84753485Y-72925353D01*
X84749913Y-72939912D01*
X84743179Y-72957996D01*
X84734753Y-72972993D01*
X84724094Y-72992560D01*
X84714626Y-73016668D01*
X84708268Y-73039729D01*
X84706751Y-73054432D01*
X84703188Y-73067641D01*
X84693549Y-73082497D01*
X84682973Y-73098666D01*
X84677900Y-73113536D01*
X84672608Y-73150038D01*
X84666049Y-73176630D01*
X84658893Y-73191331D01*
X84650529Y-73207301D01*
X84646594Y-73226714D01*
X84648249Y-73242937D01*
X84649428Y-73245337D01*
X84649676Y-73256899D01*
X84644469Y-73265200D01*
X84638185Y-73276406D01*
X84637700Y-73292496D01*
X84639675Y-73305049D01*
X84642642Y-73324953D01*
X84643501Y-73340361D01*
X84643203Y-73343506D01*
X84642278Y-73355150D01*
X84641839Y-73375206D01*
X84641923Y-73394264D01*
X84641372Y-73416265D01*
X84639296Y-73432480D01*
X84636654Y-73438748D01*
X84633429Y-73447028D01*
X84632429Y-73463404D01*
X84632735Y-73470325D01*
X84633011Y-73489351D01*
X84631284Y-73502947D01*
X84630351Y-73505236D01*
X84623720Y-73524332D01*
X84622298Y-73541996D01*
X84622320Y-73553341D01*
X84622186Y-73573543D01*
X84621923Y-73598230D01*
X84621923Y-73598234D01*
X84621776Y-73624253D01*
X84621955Y-73647067D01*
X84622390Y-73661089D01*
X84623590Y-73693519D01*
X84623262Y-73724513D01*
X84621581Y-73750917D01*
X84618721Y-73769580D01*
X84615979Y-73776516D01*
X84610223Y-73787090D01*
X84609883Y-73791065D01*
X84608730Y-73801632D01*
X84607018Y-73806648D01*
X84605005Y-73817133D01*
X84602860Y-73837568D01*
X84600882Y-73864676D01*
X84599751Y-73886044D01*
X84596976Y-73936261D01*
X84593675Y-73975948D01*
X84589936Y-74004391D01*
X84585847Y-74020880D01*
X84582413Y-74024986D01*
X84579073Y-74030626D01*
X84578985Y-74043181D01*
X84576958Y-74061094D01*
X84570751Y-74073110D01*
X84564251Y-74084138D01*
X84568200Y-74092629D01*
X84572659Y-74103337D01*
X84575207Y-74121482D01*
X84575776Y-74142262D01*
X84574296Y-74160879D01*
X84570699Y-74172531D01*
X84569371Y-74173851D01*
X84565899Y-74182205D01*
X84563840Y-74199509D01*
X84563574Y-74215593D01*
X84563131Y-74245378D01*
X84561069Y-74277216D01*
X84559731Y-74289638D01*
X84556969Y-74312598D01*
X84555277Y-74331900D01*
X84554501Y-74351693D01*
X84554484Y-74376129D01*
X84390013Y-74376129D01*
X84389777Y-74370835D01*
X84388369Y-74352255D01*
X84385585Y-74341239D01*
X84383242Y-74339798D01*
X84377786Y-74338588D01*
X84377494Y-74336672D01*
X84382580Y-74328281D01*
X84389073Y-74323461D01*
X84396657Y-74316536D01*
X84392539Y-74308733D01*
X84387985Y-74298689D01*
X84391798Y-74291656D01*
X84395089Y-74281859D01*
X84387901Y-74270322D01*
X84380953Y-74259279D01*
X84384256Y-74253159D01*
X84388204Y-74246237D01*
X84384845Y-74241411D01*
X84381592Y-74231202D01*
X84383356Y-74227272D01*
X84388962Y-74215839D01*
X84393249Y-74201972D01*
X84394736Y-74188585D01*
X84389434Y-74183947D01*
X84386784Y-74183777D01*
X84380051Y-74182644D01*
X84380868Y-74176981D01*
X84387320Y-74166460D01*
X84393836Y-74149103D01*
X84397840Y-74123844D01*
X84398990Y-74095831D01*
X84396946Y-74070216D01*
X84394428Y-74059304D01*
X84393582Y-74046974D01*
X84396475Y-74042063D01*
X84399527Y-74033849D01*
X84400866Y-74016671D01*
X84400502Y-74000449D01*
X84399956Y-73978653D01*
X84400919Y-73962064D01*
X84402443Y-73955925D01*
X84407496Y-73943422D01*
X84408532Y-73939090D01*
X84414998Y-73900489D01*
X84418930Y-73867723D01*
X84419768Y-73854616D01*
X84421484Y-73839967D01*
X84424681Y-73833172D01*
X84425017Y-73833113D01*
X84430372Y-73827277D01*
X84436516Y-73812431D01*
X84441607Y-73793415D01*
X84443082Y-73781907D01*
X84444869Y-73761804D01*
X84446380Y-73740485D01*
X84448483Y-73716265D01*
X84451248Y-73696215D01*
X84453697Y-73685900D01*
X84454620Y-73676385D01*
X84451564Y-73674322D01*
X84447603Y-73668743D01*
X84447710Y-73656127D01*
X84454728Y-73603099D01*
X84459926Y-73547407D01*
X84462804Y-73509812D01*
X84428420Y-73503950D01*
X84407761Y-73501455D01*
X84392296Y-73501450D01*
X84387419Y-73502757D01*
X84377013Y-73506580D01*
X84359427Y-73510250D01*
X84354337Y-73511005D01*
X84334829Y-73514100D01*
X84307800Y-73518957D01*
X84278672Y-73524598D01*
X84274942Y-73525353D01*
X84247820Y-73530486D01*
X84223866Y-73534342D01*
X84207504Y-73536224D01*
X84205471Y-73536302D01*
X84188537Y-73539756D01*
X84179005Y-73544992D01*
X84165267Y-73552700D01*
X84149075Y-73556782D01*
X84135593Y-73556431D01*
X84130300Y-73552612D01*
X84125025Y-73551750D01*
X84116461Y-73560190D01*
X84104219Y-73571276D01*
X84093326Y-73575077D01*
X84081162Y-73579815D01*
X84077368Y-73585002D01*
X84068564Y-73592527D01*
X84056648Y-73594926D01*
X84041088Y-73599698D01*
X84033447Y-73611467D01*
X84026608Y-73623733D01*
X84020585Y-73628008D01*
X84016794Y-73632846D01*
X84017800Y-73637876D01*
X84016444Y-73648230D01*
X84012406Y-73651268D01*
X84005111Y-73659837D01*
X84001738Y-73672827D01*
X83998508Y-73686829D01*
X83993692Y-73693068D01*
X83987980Y-73700643D01*
X83987132Y-73706363D01*
X83981985Y-73718276D01*
X83973641Y-73725878D01*
X83964670Y-73734438D01*
X83962985Y-73747250D01*
X83964453Y-73757243D01*
X83965971Y-73773744D01*
X83961941Y-73779993D01*
X83960301Y-73780183D01*
X83955153Y-73782656D01*
X83956199Y-73784536D01*
X83956357Y-73792479D01*
X83953051Y-73797929D01*
X83948265Y-73807160D01*
X83948887Y-73810306D01*
X83949430Y-73818091D01*
X83947249Y-73834518D01*
X83944522Y-73848190D01*
X83939363Y-73888424D01*
X83939475Y-73936440D01*
X83943105Y-73975364D01*
X83943130Y-73995305D01*
X83939996Y-74010435D01*
X83936141Y-74028481D01*
X83933906Y-74054644D01*
X83933399Y-74083898D01*
X83934731Y-74111215D01*
X83937400Y-74129193D01*
X83939324Y-74144217D01*
X83936678Y-74150660D01*
X83936294Y-74150696D01*
X83932477Y-74156591D01*
X83930181Y-74171417D01*
X83929907Y-74178815D01*
X83928784Y-74203506D01*
X83925274Y-74229164D01*
X83918586Y-74261525D01*
X83918323Y-74262683D01*
X83917791Y-74277904D01*
X83920887Y-74286231D01*
X83924021Y-74296538D01*
X83925191Y-74314421D01*
X83924632Y-74335487D01*
X83922579Y-74355342D01*
X83919269Y-74369594D01*
X83916192Y-74373934D01*
X83912773Y-74381487D01*
X83913674Y-74398183D01*
X83914192Y-74401235D01*
X83916151Y-74421119D01*
X83914987Y-74437278D01*
X83914492Y-74439038D01*
X83912265Y-74452265D01*
X83910878Y-74473570D01*
X83910623Y-74493079D01*
X83910033Y-74514499D01*
X83908078Y-74529444D01*
X83905496Y-74534431D01*
X83903073Y-74540372D01*
X83902619Y-74555699D01*
X83903655Y-74570831D01*
X83904834Y-74594629D01*
X83902310Y-74606129D01*
X83900182Y-74607221D01*
X83895793Y-74612939D01*
X83895915Y-74627070D01*
X83896775Y-74640923D01*
X83894820Y-74646913D01*
X83894718Y-74646919D01*
X83892150Y-74652890D01*
X83889962Y-74668226D01*
X83889031Y-74681654D01*
X83887033Y-74713352D01*
X83884130Y-74735535D01*
X83879825Y-74751915D01*
X83879517Y-74752780D01*
X83873103Y-74772614D01*
X83871996Y-74784557D01*
X83876062Y-74792782D01*
X83878185Y-74795062D01*
X83883519Y-74803946D01*
X83880556Y-74807051D01*
X83875118Y-74814642D01*
X83871753Y-74829777D01*
X83871657Y-74830876D01*
X83869477Y-74846720D01*
X83866506Y-74855746D01*
X83866354Y-74855915D01*
X83865489Y-74864096D01*
X83868195Y-74879243D01*
X83868702Y-74881140D01*
X83871298Y-74902281D01*
X83870017Y-74927005D01*
X83869214Y-74931971D01*
X83866613Y-74954324D01*
X83865335Y-74983052D01*
X83717671Y-74983052D01*
X83718476Y-74976299D01*
X83716013Y-74961586D01*
G37*
X102977500Y-63745276D02*
X102977500Y-64254724D01*
X104022500Y-63745276D02*
X104022500Y-64254724D01*
X116735000Y-47765000D02*
X116735000Y-44235000D01*
X116670000Y-44235000D02*
X116735000Y-44235000D01*
X110330000Y-49090000D02*
X110330000Y-47765000D01*
X116670000Y-47765000D02*
X116735000Y-47765000D01*
X110265000Y-47765000D02*
X110265000Y-44235000D01*
X110265000Y-44235000D02*
X110330000Y-44235000D01*
X110265000Y-47765000D02*
X110330000Y-47765000D01*
X78167621Y-65120000D02*
X77832379Y-65120000D01*
X78167621Y-65880000D02*
X77832379Y-65880000D01*
X106022500Y-63745276D02*
X106022500Y-64254724D01*
X104977500Y-63745276D02*
X104977500Y-64254724D01*
X110850000Y-69350000D02*
X110850000Y-64650000D01*
X107150000Y-69350000D02*
X107150000Y-64650000D01*
X107150000Y-69350000D02*
G75*
G03*
X110850000Y-69350000I1850000J0D01*
G01*
X110850000Y-64650000D02*
G75*
G03*
X107150000Y-64650000I-1850000J0D01*
G01*
X85650000Y-55150000D02*
X85650000Y-57850000D01*
X85650000Y-53400000D02*
X85650000Y-53850000D01*
X79350000Y-53400000D02*
X85650000Y-53400000D01*
X85650000Y-59600000D02*
X85650000Y-59200000D01*
X79350000Y-59600000D02*
X85650000Y-59600000D01*
X79350000Y-53850000D02*
X79350000Y-53400000D01*
X79350000Y-59150000D02*
X79350000Y-59600000D01*
X79350000Y-57850000D02*
X79350000Y-55150000D01*
X71610000Y-99390000D02*
X71610000Y-117390000D01*
X75010000Y-99390000D02*
X71610000Y-99390000D01*
X75010000Y-99390000D02*
X75010000Y-93390000D01*
X75010000Y-92890000D02*
X75010000Y-93390000D01*
X125010000Y-93390000D02*
X125010000Y-92890000D01*
X125010000Y-92890000D02*
X75010000Y-92890000D01*
X128410000Y-99390000D02*
X128410000Y-117390000D01*
X125010000Y-99390000D02*
X128410000Y-99390000D01*
X128410000Y-117390000D02*
X71610000Y-117390000D01*
X125010000Y-99390000D02*
X125010000Y-93390000D01*
X75480000Y-43920000D02*
X75480000Y-41920000D01*
X84880000Y-38120000D02*
X75480000Y-38120000D01*
X75480000Y-40020000D02*
X75480000Y-38120000D01*
X84880000Y-40020000D02*
X84880000Y-38120000D01*
X84880000Y-43920000D02*
X84880000Y-41920000D01*
X106700000Y-44000000D02*
G75*
G03*
X106700000Y-44000000I-700000J0D01*
G01*
X121670000Y-63595000D02*
X123000000Y-63595000D01*
X121670000Y-66195000D02*
X124330000Y-66195000D01*
X121670000Y-76415000D02*
X124330000Y-76415000D01*
X121670000Y-66195000D02*
X121670000Y-76415000D01*
X124330000Y-66195000D02*
X124330000Y-76415000D01*
X121670000Y-64925000D02*
X121670000Y-63595000D01*
X112575835Y-67770000D02*
X112344165Y-67770000D01*
X112575835Y-67050000D02*
X112344165Y-67050000D01*
X86522500Y-84745276D02*
X86522500Y-85254724D01*
X85477500Y-84745276D02*
X85477500Y-85254724D01*
X99360000Y-76884165D02*
X99360000Y-77115835D01*
X98640000Y-76884165D02*
X98640000Y-77115835D01*
X113035000Y-85000000D02*
X113035000Y-87200000D01*
X104965000Y-85000000D02*
X104965000Y-88600000D01*
X104965000Y-85000000D02*
X104965000Y-82800000D01*
X113035000Y-85000000D02*
X113035000Y-82800000D01*
X105672651Y-74663534D02*
X105836466Y-74827349D01*
X105163534Y-75172651D02*
X105327349Y-75336466D01*
X87342379Y-47480000D02*
X87677621Y-47480000D01*
X87342379Y-46720000D02*
X87677621Y-46720000D01*
X87342379Y-47750000D02*
X87677621Y-47750000D01*
X87342379Y-48510000D02*
X87677621Y-48510000D01*
X81500000Y-71725000D02*
X78775000Y-71725000D01*
X78775000Y-66535000D02*
X77100000Y-66535000D01*
X78775000Y-66275000D02*
X78775000Y-66535000D01*
X81500000Y-66275000D02*
X84225000Y-66275000D01*
X84225000Y-71725000D02*
X84225000Y-71465000D01*
X81500000Y-71725000D02*
X84225000Y-71725000D01*
X84225000Y-66275000D02*
X84225000Y-66535000D01*
X78775000Y-71725000D02*
X78775000Y-71465000D01*
X81500000Y-66275000D02*
X78775000Y-66275000D01*
X104064724Y-80882500D02*
X103555276Y-80882500D01*
X104064724Y-79837500D02*
X103555276Y-79837500D01*
X114467500Y-88155276D02*
X114467500Y-88664724D01*
X115512500Y-88155276D02*
X115512500Y-88664724D01*
X115350000Y-59150000D02*
X115350000Y-59600000D01*
X121650000Y-53400000D02*
X121650000Y-53850000D01*
X115350000Y-53850000D02*
X115350000Y-53400000D01*
X121650000Y-59600000D02*
X121650000Y-59200000D01*
X115350000Y-59600000D02*
X121650000Y-59600000D01*
X115350000Y-53400000D02*
X121650000Y-53400000D01*
X121650000Y-55150000D02*
X121650000Y-57850000D01*
X115350000Y-57850000D02*
X115350000Y-55150000D01*
X98360000Y-64615835D02*
X98360000Y-64384165D01*
X97640000Y-64615835D02*
X97640000Y-64384165D01*
X99910000Y-41590000D02*
X99910000Y-42850000D01*
X93900000Y-41590000D02*
X99910000Y-41590000D01*
X96150000Y-48410000D02*
X99910000Y-48410000D01*
X99910000Y-48410000D02*
X99910000Y-47150000D01*
X84035000Y-85000000D02*
X84035000Y-82800000D01*
X75965000Y-85000000D02*
X75965000Y-88600000D01*
X75965000Y-85000000D02*
X75965000Y-82800000D01*
X84035000Y-85000000D02*
X84035000Y-87200000D01*
X76382224Y-91022500D02*
X75872776Y-91022500D01*
X76382224Y-89977500D02*
X75872776Y-89977500D01*
X95035000Y-85000000D02*
X95035000Y-82800000D01*
X95035000Y-85000000D02*
X95035000Y-87200000D01*
X86965000Y-85000000D02*
X86965000Y-88600000D01*
X86965000Y-85000000D02*
X86965000Y-82800000D01*
X122380000Y-60832379D02*
X122380000Y-61167621D01*
X121620000Y-60832379D02*
X121620000Y-61167621D01*
X102460000Y-74610000D02*
X103110000Y-74610000D01*
X103110000Y-67390000D02*
X103110000Y-68040000D01*
X102460000Y-67390000D02*
X103110000Y-67390000D01*
X95890000Y-74610000D02*
X95890000Y-73960000D01*
X103110000Y-74610000D02*
X103110000Y-73960000D01*
X96540000Y-74610000D02*
X95890000Y-74610000D01*
X96540000Y-67390000D02*
X95890000Y-67390000D01*
X87254724Y-89477500D02*
X86745276Y-89477500D01*
X87254724Y-90522500D02*
X86745276Y-90522500D01*
X112344165Y-65270000D02*
X112575835Y-65270000D01*
X112344165Y-64550000D02*
X112575835Y-64550000D01*
X93700000Y-54000000D02*
G75*
G03*
X93700000Y-54000000I-700000J0D01*
G01*
X93615835Y-68360000D02*
X93384165Y-68360000D01*
X93615835Y-67640000D02*
X93384165Y-67640000D01*
X89630000Y-39505000D02*
X87170000Y-39505000D01*
X89630000Y-40975000D02*
X89630000Y-39505000D01*
X87170000Y-40975000D02*
X89630000Y-40975000D01*
X87192064Y-49160000D02*
X85987936Y-49160000D01*
X87192064Y-50980000D02*
X85987936Y-50980000D01*
X99640000Y-77384165D02*
X99640000Y-77615835D01*
X100360000Y-77384165D02*
X100360000Y-77615835D01*
X112627621Y-68790000D02*
X112292379Y-68790000D01*
X112627621Y-68030000D02*
X112292379Y-68030000D01*
X94640000Y-64615835D02*
X94640000Y-64384165D01*
X95360000Y-64615835D02*
X95360000Y-64384165D01*
X100735000Y-64261252D02*
X100735000Y-63738748D01*
X99265000Y-64261252D02*
X99265000Y-63738748D01*
X92060276Y-39677500D02*
X92569724Y-39677500D01*
X92060276Y-40722500D02*
X92569724Y-40722500D01*
X76977500Y-77754724D02*
X76977500Y-77245276D01*
X78022500Y-77754724D02*
X78022500Y-77245276D01*
X92910000Y-45288748D02*
X92910000Y-46711252D01*
X91090000Y-45288748D02*
X91090000Y-46711252D01*
%LPC*%
D14*
X100000000Y-84650000D03*
D15*
X100000000Y-59650000D03*
D16*
X102040000Y-65067500D03*
X102040000Y-63932500D03*
X96500000Y-65067500D03*
X96500000Y-63932500D03*
D17*
X116425000Y-87862500D03*
X117075000Y-87862500D03*
X117725000Y-87862500D03*
X118375000Y-87862500D03*
X119025000Y-87862500D03*
X119675000Y-87862500D03*
X120325000Y-87862500D03*
X120975000Y-87862500D03*
X121625000Y-87862500D03*
X122275000Y-87862500D03*
X122925000Y-87862500D03*
X123575000Y-87862500D03*
X123575000Y-82137500D03*
X122925000Y-82137500D03*
X122275000Y-82137500D03*
X121625000Y-82137500D03*
X120975000Y-82137500D03*
X120325000Y-82137500D03*
X119675000Y-82137500D03*
X119025000Y-82137500D03*
X118375000Y-82137500D03*
X117725000Y-82137500D03*
X117075000Y-82137500D03*
X116425000Y-82137500D03*
D18*
X93681283Y-73628717D03*
X92878717Y-74431283D03*
D19*
X104432500Y-67500000D03*
X105567500Y-67500000D03*
X84432500Y-65500000D03*
X85567500Y-65500000D03*
D20*
X94060000Y-67000000D03*
X92865000Y-67000000D03*
D21*
X115000000Y-84087500D03*
X115000000Y-85912500D03*
D22*
X103412500Y-90000000D03*
X101587500Y-90000000D03*
D23*
X94437500Y-50000000D03*
X97562500Y-50000000D03*
D24*
X111000000Y-53000000D03*
D25*
X93000000Y-65037500D03*
X93000000Y-62962500D03*
D21*
X103500000Y-63087500D03*
X103500000Y-64912500D03*
D26*
X110960000Y-47950000D03*
X110960000Y-44050000D03*
X112230000Y-47950000D03*
X112230000Y-44050000D03*
X113500000Y-47950000D03*
X113500000Y-44050000D03*
X114770000Y-47950000D03*
X114770000Y-44050000D03*
X116040000Y-47950000D03*
X116040000Y-44050000D03*
D20*
X78597500Y-65500000D03*
X77402500Y-65500000D03*
D21*
X105500000Y-63087500D03*
X105500000Y-64912500D03*
D27*
X109000000Y-68900000D03*
X109000000Y-65100000D03*
D28*
X79620000Y-54500000D03*
X85380000Y-54500000D03*
X85380000Y-58500000D03*
X79620000Y-58500000D03*
D29*
X123410000Y-96510000D03*
D30*
X121760000Y-96760000D03*
X120260000Y-96760000D03*
X118760000Y-96760000D03*
X117260000Y-96760000D03*
X115760000Y-96760000D03*
X114260000Y-96760000D03*
X112760000Y-96760000D03*
X111260000Y-96760000D03*
X109760000Y-96760000D03*
X108260000Y-96760000D03*
X106760000Y-96760000D03*
X105260000Y-96760000D03*
X103760000Y-96760000D03*
X102260000Y-96760000D03*
X100760000Y-96760000D03*
X99260000Y-96760000D03*
X97760000Y-96760000D03*
X96260000Y-96760000D03*
X94760000Y-96760000D03*
X93260000Y-96760000D03*
X91760000Y-96760000D03*
X90260000Y-96760000D03*
X88760000Y-96760000D03*
X87260000Y-96760000D03*
X85760000Y-96760000D03*
X84260000Y-96760000D03*
X82760000Y-96760000D03*
X81260000Y-96760000D03*
X79760000Y-96760000D03*
X78260000Y-96760000D03*
D29*
X76610000Y-96510000D03*
D31*
X86610000Y-118890000D03*
X113410000Y-118890000D03*
D32*
X83070000Y-44620000D03*
X77290000Y-44620000D03*
D33*
X83430000Y-46065000D03*
X82630000Y-46065000D03*
D34*
X81430000Y-46065000D03*
X80430000Y-46065000D03*
X79930000Y-46065000D03*
X78930000Y-46065000D03*
D33*
X77730000Y-46065000D03*
X76930000Y-46065000D03*
X76930000Y-46065000D03*
X77730000Y-46065000D03*
D34*
X78430000Y-46065000D03*
X79430000Y-46065000D03*
X80930000Y-46065000D03*
X81930000Y-46065000D03*
D33*
X82630000Y-46065000D03*
X83430000Y-46065000D03*
D35*
X84500000Y-45150000D03*
X75860000Y-45150000D03*
D36*
X84500000Y-40970000D03*
X75860000Y-40970000D03*
D24*
X106000000Y-44000000D03*
D37*
X123000000Y-64925000D03*
D38*
X123000000Y-67465000D03*
X123000000Y-70005000D03*
X123000000Y-72545000D03*
X123000000Y-75085000D03*
D39*
X113027500Y-67410000D03*
X111892500Y-67410000D03*
D21*
X86000000Y-84087500D03*
X86000000Y-85912500D03*
D40*
X99000000Y-76432500D03*
X99000000Y-77567500D03*
D17*
X105425000Y-87862500D03*
X106075000Y-87862500D03*
X106725000Y-87862500D03*
X107375000Y-87862500D03*
X108025000Y-87862500D03*
X108675000Y-87862500D03*
X109325000Y-87862500D03*
X109975000Y-87862500D03*
X110625000Y-87862500D03*
X111275000Y-87862500D03*
X111925000Y-87862500D03*
X112575000Y-87862500D03*
X112575000Y-82137500D03*
X111925000Y-82137500D03*
X111275000Y-82137500D03*
X110625000Y-82137500D03*
X109975000Y-82137500D03*
X109325000Y-82137500D03*
X108675000Y-82137500D03*
X108025000Y-82137500D03*
X107375000Y-82137500D03*
X106725000Y-82137500D03*
X106075000Y-82137500D03*
X105425000Y-82137500D03*
D41*
X105098717Y-74598717D03*
X105901283Y-75401283D03*
D42*
X86912500Y-47100000D03*
X88107500Y-47100000D03*
X86912500Y-48130000D03*
X88107500Y-48130000D03*
D43*
X77900000Y-67095000D03*
X77900000Y-68365000D03*
X77900000Y-69635000D03*
X77900000Y-70905000D03*
X85100000Y-70905000D03*
X85100000Y-69635000D03*
X85100000Y-68365000D03*
X85100000Y-67095000D03*
D22*
X104722500Y-80360000D03*
X102897500Y-80360000D03*
D21*
X114990000Y-87497500D03*
X114990000Y-89322500D03*
D28*
X115620000Y-54500000D03*
X121380000Y-54500000D03*
X115620000Y-58500000D03*
X121380000Y-58500000D03*
D16*
X98000000Y-65067500D03*
X98000000Y-63932500D03*
D44*
X94850000Y-42700000D03*
X94850000Y-45000000D03*
D45*
X101150000Y-45000000D03*
D44*
X94850000Y-47300000D03*
D17*
X76425000Y-87862500D03*
X77075000Y-87862500D03*
X77725000Y-87862500D03*
X78375000Y-87862500D03*
X79025000Y-87862500D03*
X79675000Y-87862500D03*
X80325000Y-87862500D03*
X80975000Y-87862500D03*
X81625000Y-87862500D03*
X82275000Y-87862500D03*
X82925000Y-87862500D03*
X83575000Y-87862500D03*
X83575000Y-82137500D03*
X82925000Y-82137500D03*
X82275000Y-82137500D03*
X81625000Y-82137500D03*
X80975000Y-82137500D03*
X80325000Y-82137500D03*
X79675000Y-82137500D03*
X79025000Y-82137500D03*
X78375000Y-82137500D03*
X77725000Y-82137500D03*
X77075000Y-82137500D03*
X76425000Y-82137500D03*
D22*
X77040000Y-90500000D03*
X75215000Y-90500000D03*
D17*
X87425000Y-87862500D03*
X88075000Y-87862500D03*
X88725000Y-87862500D03*
X89375000Y-87862500D03*
X90025000Y-87862500D03*
X90675000Y-87862500D03*
X91325000Y-87862500D03*
X91975000Y-87862500D03*
X92625000Y-87862500D03*
X93275000Y-87862500D03*
X93925000Y-87862500D03*
X94575000Y-87862500D03*
X94575000Y-82137500D03*
X93925000Y-82137500D03*
X93275000Y-82137500D03*
X92625000Y-82137500D03*
X91975000Y-82137500D03*
X91325000Y-82137500D03*
X90675000Y-82137500D03*
X90025000Y-82137500D03*
X89375000Y-82137500D03*
X88725000Y-82137500D03*
X88075000Y-82137500D03*
X87425000Y-82137500D03*
D46*
X122000000Y-60402500D03*
X122000000Y-61597500D03*
D47*
X96062500Y-68400000D03*
X96062500Y-68800000D03*
X96062500Y-69200000D03*
X96062500Y-69600000D03*
X96062500Y-70000000D03*
X96062500Y-70400000D03*
X96062500Y-70800000D03*
X96062500Y-71200000D03*
X96062500Y-71600000D03*
X96062500Y-72000000D03*
X96062500Y-72400000D03*
X96062500Y-72800000D03*
X96062500Y-73200000D03*
X96062500Y-73600000D03*
D48*
X96900000Y-74437500D03*
X97300000Y-74437500D03*
X97700000Y-74437500D03*
X98100000Y-74437500D03*
X98500000Y-74437500D03*
X98900000Y-74437500D03*
X99300000Y-74437500D03*
X99700000Y-74437500D03*
X100100000Y-74437500D03*
X100500000Y-74437500D03*
X100900000Y-74437500D03*
X101300000Y-74437500D03*
X101700000Y-74437500D03*
X102100000Y-74437500D03*
D47*
X102937500Y-73600000D03*
X102937500Y-73200000D03*
X102937500Y-72800000D03*
X102937500Y-72400000D03*
X102937500Y-72000000D03*
X102937500Y-71600000D03*
X102937500Y-71200000D03*
X102937500Y-70800000D03*
X102937500Y-70400000D03*
X102937500Y-70000000D03*
X102937500Y-69600000D03*
X102937500Y-69200000D03*
X102937500Y-68800000D03*
X102937500Y-68400000D03*
D48*
X102100000Y-67562500D03*
X101700000Y-67562500D03*
X101300000Y-67562500D03*
X100900000Y-67562500D03*
X100500000Y-67562500D03*
X100100000Y-67562500D03*
X99700000Y-67562500D03*
X99300000Y-67562500D03*
X98900000Y-67562500D03*
X98500000Y-67562500D03*
X98100000Y-67562500D03*
X97700000Y-67562500D03*
X97300000Y-67562500D03*
X96900000Y-67562500D03*
D49*
X99500000Y-71000000D03*
D22*
X87912500Y-90000000D03*
X86087500Y-90000000D03*
D19*
X111892500Y-64910000D03*
X113027500Y-64910000D03*
D24*
X93000000Y-54000000D03*
D39*
X94067500Y-68000000D03*
X92932500Y-68000000D03*
D50*
X88845000Y-40240000D03*
X87095000Y-40240000D03*
D51*
X88077500Y-50070000D03*
X85102500Y-50070000D03*
D40*
X100000000Y-76932500D03*
X100000000Y-78067500D03*
D20*
X113057500Y-68410000D03*
X111862500Y-68410000D03*
D16*
X95000000Y-65067500D03*
X95000000Y-63932500D03*
D25*
X100000000Y-65037500D03*
X100000000Y-62962500D03*
D52*
X91402500Y-40200000D03*
X93227500Y-40200000D03*
D53*
X77500000Y-78412500D03*
X77500000Y-76587500D03*
D54*
X92000000Y-44437500D03*
X92000000Y-47562500D03*
M02*
