G04 #@! TF.GenerationSoftware,KiCad,Pcbnew,6.0.7*
G04 #@! TF.CreationDate,2022-08-31T22:31:15-07:00*
G04 #@! TF.ProjectId,gbpunk,67627075-6e6b-42e6-9b69-6361645f7063,v4.0*
G04 #@! TF.SameCoordinates,Original*
G04 #@! TF.FileFunction,Legend,Top*
G04 #@! TF.FilePolarity,Positive*
%FSLAX46Y46*%
G04 Gerber Fmt 4.6, Leading zero omitted, Abs format (unit mm)*
G04 Created by KiCad (PCBNEW 6.0.7) date 2022-08-31 22:31:15*
%MOMM*%
%LPD*%
G01*
G04 APERTURE LIST*
%ADD10C,0.300000*%
%ADD11C,0.150000*%
%ADD12C,0.120000*%
G04 APERTURE END LIST*
D10*
X104357142Y-46471071D02*
X104357142Y-47685357D01*
X104285714Y-47828214D01*
X104214285Y-47899642D01*
X104071428Y-47971071D01*
X103857142Y-47971071D01*
X103714285Y-47899642D01*
X104357142Y-47399642D02*
X104214285Y-47471071D01*
X103928571Y-47471071D01*
X103785714Y-47399642D01*
X103714285Y-47328214D01*
X103642857Y-47185357D01*
X103642857Y-46756785D01*
X103714285Y-46613928D01*
X103785714Y-46542500D01*
X103928571Y-46471071D01*
X104214285Y-46471071D01*
X104357142Y-46542500D01*
X105071428Y-47471071D02*
X105071428Y-45971071D01*
X105071428Y-46542500D02*
X105214285Y-46471071D01*
X105500000Y-46471071D01*
X105642857Y-46542500D01*
X105714285Y-46613928D01*
X105785714Y-46756785D01*
X105785714Y-47185357D01*
X105714285Y-47328214D01*
X105642857Y-47399642D01*
X105500000Y-47471071D01*
X105214285Y-47471071D01*
X105071428Y-47399642D01*
X106428571Y-46471071D02*
X106428571Y-47971071D01*
X106428571Y-46542500D02*
X106571428Y-46471071D01*
X106857142Y-46471071D01*
X107000000Y-46542500D01*
X107071428Y-46613928D01*
X107142857Y-46756785D01*
X107142857Y-47185357D01*
X107071428Y-47328214D01*
X107000000Y-47399642D01*
X106857142Y-47471071D01*
X106571428Y-47471071D01*
X106428571Y-47399642D01*
X108428571Y-46471071D02*
X108428571Y-47471071D01*
X107785714Y-46471071D02*
X107785714Y-47256785D01*
X107857142Y-47399642D01*
X108000000Y-47471071D01*
X108214285Y-47471071D01*
X108357142Y-47399642D01*
X108428571Y-47328214D01*
X109142857Y-46471071D02*
X109142857Y-47471071D01*
X109142857Y-46613928D02*
X109214285Y-46542500D01*
X109357142Y-46471071D01*
X109571428Y-46471071D01*
X109714285Y-46542500D01*
X109785714Y-46685357D01*
X109785714Y-47471071D01*
X110500000Y-47471071D02*
X110500000Y-45971071D01*
X110642857Y-46899642D02*
X111071428Y-47471071D01*
X111071428Y-46471071D02*
X110500000Y-47042500D01*
X112642857Y-46471071D02*
X113214285Y-46471071D01*
X112857142Y-47471071D02*
X112857142Y-46185357D01*
X112928571Y-46042500D01*
X113071428Y-45971071D01*
X113214285Y-45971071D01*
X113928571Y-47471071D02*
X113785714Y-47399642D01*
X113714285Y-47256785D01*
X113714285Y-45971071D01*
X115142857Y-47471071D02*
X115142857Y-46685357D01*
X115071428Y-46542500D01*
X114928571Y-46471071D01*
X114642857Y-46471071D01*
X114499999Y-46542500D01*
X115142857Y-47399642D02*
X114999999Y-47471071D01*
X114642857Y-47471071D01*
X114499999Y-47399642D01*
X114428571Y-47256785D01*
X114428571Y-47113928D01*
X114499999Y-46971071D01*
X114642857Y-46899642D01*
X114999999Y-46899642D01*
X115142857Y-46828214D01*
X115785714Y-47399642D02*
X115928571Y-47471071D01*
X116214285Y-47471071D01*
X116357142Y-47399642D01*
X116428571Y-47256785D01*
X116428571Y-47185357D01*
X116357142Y-47042500D01*
X116214285Y-46971071D01*
X115999999Y-46971071D01*
X115857142Y-46899642D01*
X115785714Y-46756785D01*
X115785714Y-46685357D01*
X115857142Y-46542500D01*
X115999999Y-46471071D01*
X116214285Y-46471071D01*
X116357142Y-46542500D01*
X117071428Y-47471071D02*
X117071428Y-45971071D01*
X117714285Y-47471071D02*
X117714285Y-46685357D01*
X117642857Y-46542500D01*
X117499999Y-46471071D01*
X117285714Y-46471071D01*
X117142857Y-46542500D01*
X117071428Y-46613928D01*
X120214285Y-47399642D02*
X120071428Y-47471071D01*
X119785714Y-47471071D01*
X119642857Y-47399642D01*
X119571428Y-47328214D01*
X119499999Y-47185357D01*
X119499999Y-46756785D01*
X119571428Y-46613928D01*
X119642857Y-46542500D01*
X119785714Y-46471071D01*
X120071428Y-46471071D01*
X120214285Y-46542500D01*
X121500000Y-47471071D02*
X121500000Y-46685357D01*
X121428571Y-46542500D01*
X121285714Y-46471071D01*
X121000000Y-46471071D01*
X120857142Y-46542500D01*
X121500000Y-47399642D02*
X121357142Y-47471071D01*
X121000000Y-47471071D01*
X120857142Y-47399642D01*
X120785714Y-47256785D01*
X120785714Y-47113928D01*
X120857142Y-46971071D01*
X121000000Y-46899642D01*
X121357142Y-46899642D01*
X121500000Y-46828214D01*
X122214285Y-47471071D02*
X122214285Y-46471071D01*
X122214285Y-46756785D02*
X122285714Y-46613928D01*
X122357142Y-46542500D01*
X122500000Y-46471071D01*
X122642857Y-46471071D01*
X122928571Y-46471071D02*
X123500000Y-46471071D01*
X123142857Y-45971071D02*
X123142857Y-47256785D01*
X123214285Y-47399642D01*
X123357142Y-47471071D01*
X123500000Y-47471071D01*
X104678571Y-49814642D02*
X104535714Y-49886071D01*
X104250000Y-49886071D01*
X104107142Y-49814642D01*
X104035714Y-49743214D01*
X103964285Y-49600357D01*
X103964285Y-49171785D01*
X104035714Y-49028928D01*
X104107142Y-48957500D01*
X104250000Y-48886071D01*
X104535714Y-48886071D01*
X104678571Y-48957500D01*
X105964285Y-49886071D02*
X105964285Y-49100357D01*
X105892857Y-48957500D01*
X105750000Y-48886071D01*
X105464285Y-48886071D01*
X105321428Y-48957500D01*
X105964285Y-49814642D02*
X105821428Y-49886071D01*
X105464285Y-49886071D01*
X105321428Y-49814642D01*
X105250000Y-49671785D01*
X105250000Y-49528928D01*
X105321428Y-49386071D01*
X105464285Y-49314642D01*
X105821428Y-49314642D01*
X105964285Y-49243214D01*
X107321428Y-48886071D02*
X107321428Y-49886071D01*
X106678571Y-48886071D02*
X106678571Y-49671785D01*
X106750000Y-49814642D01*
X106892857Y-49886071D01*
X107107142Y-49886071D01*
X107250000Y-49814642D01*
X107321428Y-49743214D01*
X107964285Y-49814642D02*
X108107142Y-49886071D01*
X108392857Y-49886071D01*
X108535714Y-49814642D01*
X108607142Y-49671785D01*
X108607142Y-49600357D01*
X108535714Y-49457500D01*
X108392857Y-49386071D01*
X108178571Y-49386071D01*
X108035714Y-49314642D01*
X107964285Y-49171785D01*
X107964285Y-49100357D01*
X108035714Y-48957500D01*
X108178571Y-48886071D01*
X108392857Y-48886071D01*
X108535714Y-48957500D01*
X109821428Y-49814642D02*
X109678571Y-49886071D01*
X109392857Y-49886071D01*
X109250000Y-49814642D01*
X109178571Y-49671785D01*
X109178571Y-49100357D01*
X109250000Y-48957500D01*
X109392857Y-48886071D01*
X109678571Y-48886071D01*
X109821428Y-48957500D01*
X109892857Y-49100357D01*
X109892857Y-49243214D01*
X109178571Y-49386071D01*
X111464285Y-48886071D02*
X112035714Y-48886071D01*
X111678571Y-49886071D02*
X111678571Y-48600357D01*
X111750000Y-48457500D01*
X111892857Y-48386071D01*
X112035714Y-48386071D01*
X113178571Y-48886071D02*
X113178571Y-49886071D01*
X112535714Y-48886071D02*
X112535714Y-49671785D01*
X112607142Y-49814642D01*
X112750000Y-49886071D01*
X112964285Y-49886071D01*
X113107142Y-49814642D01*
X113178571Y-49743214D01*
X114535714Y-49814642D02*
X114392857Y-49886071D01*
X114107142Y-49886071D01*
X113964285Y-49814642D01*
X113892857Y-49743214D01*
X113821428Y-49600357D01*
X113821428Y-49171785D01*
X113892857Y-49028928D01*
X113964285Y-48957500D01*
X114107142Y-48886071D01*
X114392857Y-48886071D01*
X114535714Y-48957500D01*
X115178571Y-49886071D02*
X115178571Y-48386071D01*
X115321428Y-49314642D02*
X115750000Y-49886071D01*
X115750000Y-48886071D02*
X115178571Y-49457500D01*
X117321428Y-48886071D02*
X117892857Y-48886071D01*
X117535714Y-49886071D02*
X117535714Y-48600357D01*
X117607142Y-48457500D01*
X117750000Y-48386071D01*
X117892857Y-48386071D01*
X118392857Y-48886071D02*
X118392857Y-50386071D01*
X118392857Y-48957500D02*
X118535714Y-48886071D01*
X118821428Y-48886071D01*
X118964285Y-48957500D01*
X119035714Y-49028928D01*
X119107142Y-49171785D01*
X119107142Y-49600357D01*
X119035714Y-49743214D01*
X118964285Y-49814642D01*
X118821428Y-49886071D01*
X118535714Y-49886071D01*
X118392857Y-49814642D01*
X120392857Y-48886071D02*
X120392857Y-50100357D01*
X120321428Y-50243214D01*
X120250000Y-50314642D01*
X120107142Y-50386071D01*
X119892857Y-50386071D01*
X119750000Y-50314642D01*
X120392857Y-49814642D02*
X120250000Y-49886071D01*
X119964285Y-49886071D01*
X119821428Y-49814642D01*
X119750000Y-49743214D01*
X119678571Y-49600357D01*
X119678571Y-49171785D01*
X119750000Y-49028928D01*
X119821428Y-48957500D01*
X119964285Y-48886071D01*
X120250000Y-48886071D01*
X120392857Y-48957500D01*
X121750000Y-49886071D02*
X121750000Y-49100357D01*
X121678571Y-48957500D01*
X121535714Y-48886071D01*
X121250000Y-48886071D01*
X121107142Y-48957500D01*
X121750000Y-49814642D02*
X121607142Y-49886071D01*
X121250000Y-49886071D01*
X121107142Y-49814642D01*
X121035714Y-49671785D01*
X121035714Y-49528928D01*
X121107142Y-49386071D01*
X121250000Y-49314642D01*
X121607142Y-49314642D01*
X121750000Y-49243214D01*
X122392857Y-49814642D02*
X122535714Y-49886071D01*
X122821428Y-49886071D01*
X122964285Y-49814642D01*
X123035714Y-49671785D01*
X123035714Y-49600357D01*
X122964285Y-49457500D01*
X122821428Y-49386071D01*
X122607142Y-49386071D01*
X122464285Y-49314642D01*
X122392857Y-49171785D01*
X122392857Y-49100357D01*
X122464285Y-48957500D01*
X122607142Y-48886071D01*
X122821428Y-48886071D01*
X122964285Y-48957500D01*
X95500000Y-91678571D02*
X95500000Y-90178571D01*
X95642857Y-91107142D02*
X96071428Y-91678571D01*
X96071428Y-90678571D02*
X95500000Y-91250000D01*
X97357142Y-91678571D02*
X97357142Y-90892857D01*
X97285714Y-90750000D01*
X97142857Y-90678571D01*
X96857142Y-90678571D01*
X96714285Y-90750000D01*
X97357142Y-91607142D02*
X97214285Y-91678571D01*
X96857142Y-91678571D01*
X96714285Y-91607142D01*
X96642857Y-91464285D01*
X96642857Y-91321428D01*
X96714285Y-91178571D01*
X96857142Y-91107142D01*
X97214285Y-91107142D01*
X97357142Y-91035714D01*
X97928571Y-90678571D02*
X98285714Y-91678571D01*
X98642857Y-90678571D02*
X98285714Y-91678571D01*
X98142857Y-92035714D01*
X98071428Y-92107142D01*
X97928571Y-92178571D01*
D11*
G04 #@! TO.C,C20*
X102357142Y-62642857D02*
X102404761Y-62690476D01*
X102452380Y-62833333D01*
X102452380Y-62928571D01*
X102404761Y-63071428D01*
X102309523Y-63166666D01*
X102214285Y-63214285D01*
X102023809Y-63261904D01*
X101880952Y-63261904D01*
X101690476Y-63214285D01*
X101595238Y-63166666D01*
X101500000Y-63071428D01*
X101452380Y-62928571D01*
X101452380Y-62833333D01*
X101500000Y-62690476D01*
X101547619Y-62642857D01*
X101547619Y-62261904D02*
X101500000Y-62214285D01*
X101452380Y-62119047D01*
X101452380Y-61880952D01*
X101500000Y-61785714D01*
X101547619Y-61738095D01*
X101642857Y-61690476D01*
X101738095Y-61690476D01*
X101880952Y-61738095D01*
X102452380Y-62309523D01*
X102452380Y-61690476D01*
X101452380Y-61071428D02*
X101452380Y-60976190D01*
X101500000Y-60880952D01*
X101547619Y-60833333D01*
X101642857Y-60785714D01*
X101833333Y-60738095D01*
X102071428Y-60738095D01*
X102261904Y-60785714D01*
X102357142Y-60833333D01*
X102404761Y-60880952D01*
X102452380Y-60976190D01*
X102452380Y-61071428D01*
X102404761Y-61166666D01*
X102357142Y-61214285D01*
X102261904Y-61261904D01*
X102071428Y-61309523D01*
X101833333Y-61309523D01*
X101642857Y-61261904D01*
X101547619Y-61214285D01*
X101500000Y-61166666D01*
X101452380Y-61071428D01*
G04 #@! TO.C,C13*
X96857142Y-62142857D02*
X96904761Y-62190476D01*
X96952380Y-62333333D01*
X96952380Y-62428571D01*
X96904761Y-62571428D01*
X96809523Y-62666666D01*
X96714285Y-62714285D01*
X96523809Y-62761904D01*
X96380952Y-62761904D01*
X96190476Y-62714285D01*
X96095238Y-62666666D01*
X96000000Y-62571428D01*
X95952380Y-62428571D01*
X95952380Y-62333333D01*
X96000000Y-62190476D01*
X96047619Y-62142857D01*
X96952380Y-61190476D02*
X96952380Y-61761904D01*
X96952380Y-61476190D02*
X95952380Y-61476190D01*
X96095238Y-61571428D01*
X96190476Y-61666666D01*
X96238095Y-61761904D01*
X95952380Y-60857142D02*
X95952380Y-60238095D01*
X96333333Y-60571428D01*
X96333333Y-60428571D01*
X96380952Y-60333333D01*
X96428571Y-60285714D01*
X96523809Y-60238095D01*
X96761904Y-60238095D01*
X96857142Y-60285714D01*
X96904761Y-60333333D01*
X96952380Y-60428571D01*
X96952380Y-60714285D01*
X96904761Y-60809523D01*
X96857142Y-60857142D01*
G04 #@! TO.C,U7*
X122738095Y-79952380D02*
X122738095Y-80761904D01*
X122785714Y-80857142D01*
X122833333Y-80904761D01*
X122928571Y-80952380D01*
X123119047Y-80952380D01*
X123214285Y-80904761D01*
X123261904Y-80857142D01*
X123309523Y-80761904D01*
X123309523Y-79952380D01*
X123690476Y-79952380D02*
X124357142Y-79952380D01*
X123928571Y-80952380D01*
G04 #@! TO.C,C17*
X92857142Y-74862857D02*
X92904761Y-74910476D01*
X92952380Y-75053333D01*
X92952380Y-75148571D01*
X92904761Y-75291428D01*
X92809523Y-75386666D01*
X92714285Y-75434285D01*
X92523809Y-75481904D01*
X92380952Y-75481904D01*
X92190476Y-75434285D01*
X92095238Y-75386666D01*
X92000000Y-75291428D01*
X91952380Y-75148571D01*
X91952380Y-75053333D01*
X92000000Y-74910476D01*
X92047619Y-74862857D01*
X92952380Y-73910476D02*
X92952380Y-74481904D01*
X92952380Y-74196190D02*
X91952380Y-74196190D01*
X92095238Y-74291428D01*
X92190476Y-74386666D01*
X92238095Y-74481904D01*
X91952380Y-73577142D02*
X91952380Y-72910476D01*
X92952380Y-73339047D01*
G04 #@! TO.C,C14*
X104357142Y-69357142D02*
X104309523Y-69404761D01*
X104166666Y-69452380D01*
X104071428Y-69452380D01*
X103928571Y-69404761D01*
X103833333Y-69309523D01*
X103785714Y-69214285D01*
X103738095Y-69023809D01*
X103738095Y-68880952D01*
X103785714Y-68690476D01*
X103833333Y-68595238D01*
X103928571Y-68500000D01*
X104071428Y-68452380D01*
X104166666Y-68452380D01*
X104309523Y-68500000D01*
X104357142Y-68547619D01*
X105309523Y-69452380D02*
X104738095Y-69452380D01*
X105023809Y-69452380D02*
X105023809Y-68452380D01*
X104928571Y-68595238D01*
X104833333Y-68690476D01*
X104738095Y-68738095D01*
X106166666Y-68785714D02*
X106166666Y-69452380D01*
X105928571Y-68404761D02*
X105690476Y-69119047D01*
X106309523Y-69119047D01*
G04 #@! TO.C,C22*
X87357142Y-65857142D02*
X87309523Y-65904761D01*
X87166666Y-65952380D01*
X87071428Y-65952380D01*
X86928571Y-65904761D01*
X86833333Y-65809523D01*
X86785714Y-65714285D01*
X86738095Y-65523809D01*
X86738095Y-65380952D01*
X86785714Y-65190476D01*
X86833333Y-65095238D01*
X86928571Y-65000000D01*
X87071428Y-64952380D01*
X87166666Y-64952380D01*
X87309523Y-65000000D01*
X87357142Y-65047619D01*
X87738095Y-65047619D02*
X87785714Y-65000000D01*
X87880952Y-64952380D01*
X88119047Y-64952380D01*
X88214285Y-65000000D01*
X88261904Y-65047619D01*
X88309523Y-65142857D01*
X88309523Y-65238095D01*
X88261904Y-65380952D01*
X87690476Y-65952380D01*
X88309523Y-65952380D01*
X88690476Y-65047619D02*
X88738095Y-65000000D01*
X88833333Y-64952380D01*
X89071428Y-64952380D01*
X89166666Y-65000000D01*
X89214285Y-65047619D01*
X89261904Y-65142857D01*
X89261904Y-65238095D01*
X89214285Y-65380952D01*
X88642857Y-65952380D01*
X89261904Y-65952380D01*
G04 #@! TO.C,R9*
X90833333Y-67452380D02*
X90500000Y-66976190D01*
X90261904Y-67452380D02*
X90261904Y-66452380D01*
X90642857Y-66452380D01*
X90738095Y-66500000D01*
X90785714Y-66547619D01*
X90833333Y-66642857D01*
X90833333Y-66785714D01*
X90785714Y-66880952D01*
X90738095Y-66928571D01*
X90642857Y-66976190D01*
X90261904Y-66976190D01*
X91309523Y-67452380D02*
X91500000Y-67452380D01*
X91595238Y-67404761D01*
X91642857Y-67357142D01*
X91738095Y-67214285D01*
X91785714Y-67023809D01*
X91785714Y-66642857D01*
X91738095Y-66547619D01*
X91690476Y-66500000D01*
X91595238Y-66452380D01*
X91404761Y-66452380D01*
X91309523Y-66500000D01*
X91261904Y-66547619D01*
X91214285Y-66642857D01*
X91214285Y-66880952D01*
X91261904Y-66976190D01*
X91309523Y-67023809D01*
X91404761Y-67071428D01*
X91595238Y-67071428D01*
X91690476Y-67023809D01*
X91738095Y-66976190D01*
X91785714Y-66880952D01*
G04 #@! TO.C,R13*
X115452380Y-82142857D02*
X114976190Y-82476190D01*
X115452380Y-82714285D02*
X114452380Y-82714285D01*
X114452380Y-82333333D01*
X114500000Y-82238095D01*
X114547619Y-82190476D01*
X114642857Y-82142857D01*
X114785714Y-82142857D01*
X114880952Y-82190476D01*
X114928571Y-82238095D01*
X114976190Y-82333333D01*
X114976190Y-82714285D01*
X115452380Y-81190476D02*
X115452380Y-81761904D01*
X115452380Y-81476190D02*
X114452380Y-81476190D01*
X114595238Y-81571428D01*
X114690476Y-81666666D01*
X114738095Y-81761904D01*
X114452380Y-80857142D02*
X114452380Y-80238095D01*
X114833333Y-80571428D01*
X114833333Y-80428571D01*
X114880952Y-80333333D01*
X114928571Y-80285714D01*
X115023809Y-80238095D01*
X115261904Y-80238095D01*
X115357142Y-80285714D01*
X115404761Y-80333333D01*
X115452380Y-80428571D01*
X115452380Y-80714285D01*
X115404761Y-80809523D01*
X115357142Y-80857142D01*
G04 #@! TO.C,R6*
X99333333Y-90452380D02*
X99000000Y-89976190D01*
X98761904Y-90452380D02*
X98761904Y-89452380D01*
X99142857Y-89452380D01*
X99238095Y-89500000D01*
X99285714Y-89547619D01*
X99333333Y-89642857D01*
X99333333Y-89785714D01*
X99285714Y-89880952D01*
X99238095Y-89928571D01*
X99142857Y-89976190D01*
X98761904Y-89976190D01*
X100190476Y-89452380D02*
X100000000Y-89452380D01*
X99904761Y-89500000D01*
X99857142Y-89547619D01*
X99761904Y-89690476D01*
X99714285Y-89880952D01*
X99714285Y-90261904D01*
X99761904Y-90357142D01*
X99809523Y-90404761D01*
X99904761Y-90452380D01*
X100095238Y-90452380D01*
X100190476Y-90404761D01*
X100238095Y-90357142D01*
X100285714Y-90261904D01*
X100285714Y-90023809D01*
X100238095Y-89928571D01*
X100190476Y-89880952D01*
X100095238Y-89833333D01*
X99904761Y-89833333D01*
X99809523Y-89880952D01*
X99761904Y-89928571D01*
X99714285Y-90023809D01*
G04 #@! TO.C,C21*
X99357142Y-50357142D02*
X99309523Y-50404761D01*
X99166666Y-50452380D01*
X99071428Y-50452380D01*
X98928571Y-50404761D01*
X98833333Y-50309523D01*
X98785714Y-50214285D01*
X98738095Y-50023809D01*
X98738095Y-49880952D01*
X98785714Y-49690476D01*
X98833333Y-49595238D01*
X98928571Y-49500000D01*
X99071428Y-49452380D01*
X99166666Y-49452380D01*
X99309523Y-49500000D01*
X99357142Y-49547619D01*
X99738095Y-49547619D02*
X99785714Y-49500000D01*
X99880952Y-49452380D01*
X100119047Y-49452380D01*
X100214285Y-49500000D01*
X100261904Y-49547619D01*
X100309523Y-49642857D01*
X100309523Y-49738095D01*
X100261904Y-49880952D01*
X99690476Y-50452380D01*
X100309523Y-50452380D01*
X101261904Y-50452380D02*
X100690476Y-50452380D01*
X100976190Y-50452380D02*
X100976190Y-49452380D01*
X100880952Y-49595238D01*
X100785714Y-49690476D01*
X100690476Y-49738095D01*
G04 #@! TO.C,C11*
X93357142Y-61142857D02*
X93404761Y-61190476D01*
X93452380Y-61333333D01*
X93452380Y-61428571D01*
X93404761Y-61571428D01*
X93309523Y-61666666D01*
X93214285Y-61714285D01*
X93023809Y-61761904D01*
X92880952Y-61761904D01*
X92690476Y-61714285D01*
X92595238Y-61666666D01*
X92500000Y-61571428D01*
X92452380Y-61428571D01*
X92452380Y-61333333D01*
X92500000Y-61190476D01*
X92547619Y-61142857D01*
X93452380Y-60190476D02*
X93452380Y-60761904D01*
X93452380Y-60476190D02*
X92452380Y-60476190D01*
X92595238Y-60571428D01*
X92690476Y-60666666D01*
X92738095Y-60761904D01*
X93452380Y-59238095D02*
X93452380Y-59809523D01*
X93452380Y-59523809D02*
X92452380Y-59523809D01*
X92595238Y-59619047D01*
X92690476Y-59714285D01*
X92738095Y-59809523D01*
G04 #@! TO.C,R11*
X103952380Y-60642857D02*
X103476190Y-60976190D01*
X103952380Y-61214285D02*
X102952380Y-61214285D01*
X102952380Y-60833333D01*
X103000000Y-60738095D01*
X103047619Y-60690476D01*
X103142857Y-60642857D01*
X103285714Y-60642857D01*
X103380952Y-60690476D01*
X103428571Y-60738095D01*
X103476190Y-60833333D01*
X103476190Y-61214285D01*
X103952380Y-59690476D02*
X103952380Y-60261904D01*
X103952380Y-59976190D02*
X102952380Y-59976190D01*
X103095238Y-60071428D01*
X103190476Y-60166666D01*
X103238095Y-60261904D01*
X103952380Y-58738095D02*
X103952380Y-59309523D01*
X103952380Y-59023809D02*
X102952380Y-59023809D01*
X103095238Y-59119047D01*
X103190476Y-59214285D01*
X103238095Y-59309523D01*
G04 #@! TO.C,J4*
X122166666Y-64952380D02*
X122166666Y-65666666D01*
X122119047Y-65809523D01*
X122023809Y-65904761D01*
X121880952Y-65952380D01*
X121785714Y-65952380D01*
X123071428Y-65285714D02*
X123071428Y-65952380D01*
X122833333Y-64904761D02*
X122595238Y-65619047D01*
X123214285Y-65619047D01*
G04 #@! TO.C,R19*
X76452380Y-66142857D02*
X75976190Y-66476190D01*
X76452380Y-66714285D02*
X75452380Y-66714285D01*
X75452380Y-66333333D01*
X75500000Y-66238095D01*
X75547619Y-66190476D01*
X75642857Y-66142857D01*
X75785714Y-66142857D01*
X75880952Y-66190476D01*
X75928571Y-66238095D01*
X75976190Y-66333333D01*
X75976190Y-66714285D01*
X76452380Y-65190476D02*
X76452380Y-65761904D01*
X76452380Y-65476190D02*
X75452380Y-65476190D01*
X75595238Y-65571428D01*
X75690476Y-65666666D01*
X75738095Y-65761904D01*
X76452380Y-64714285D02*
X76452380Y-64523809D01*
X76404761Y-64428571D01*
X76357142Y-64380952D01*
X76214285Y-64285714D01*
X76023809Y-64238095D01*
X75642857Y-64238095D01*
X75547619Y-64285714D01*
X75500000Y-64333333D01*
X75452380Y-64428571D01*
X75452380Y-64619047D01*
X75500000Y-64714285D01*
X75547619Y-64761904D01*
X75642857Y-64809523D01*
X75880952Y-64809523D01*
X75976190Y-64761904D01*
X76023809Y-64714285D01*
X76071428Y-64619047D01*
X76071428Y-64428571D01*
X76023809Y-64333333D01*
X75976190Y-64285714D01*
X75880952Y-64238095D01*
G04 #@! TO.C,R12*
X106452380Y-61642857D02*
X105976190Y-61976190D01*
X106452380Y-62214285D02*
X105452380Y-62214285D01*
X105452380Y-61833333D01*
X105500000Y-61738095D01*
X105547619Y-61690476D01*
X105642857Y-61642857D01*
X105785714Y-61642857D01*
X105880952Y-61690476D01*
X105928571Y-61738095D01*
X105976190Y-61833333D01*
X105976190Y-62214285D01*
X106452380Y-60690476D02*
X106452380Y-61261904D01*
X106452380Y-60976190D02*
X105452380Y-60976190D01*
X105595238Y-61071428D01*
X105690476Y-61166666D01*
X105738095Y-61261904D01*
X105547619Y-60309523D02*
X105500000Y-60261904D01*
X105452380Y-60166666D01*
X105452380Y-59928571D01*
X105500000Y-59833333D01*
X105547619Y-59785714D01*
X105642857Y-59738095D01*
X105738095Y-59738095D01*
X105880952Y-59785714D01*
X106452380Y-60357142D01*
X106452380Y-59738095D01*
G04 #@! TO.C,Y1*
X110023809Y-61476190D02*
X110023809Y-61952380D01*
X109690476Y-60952380D02*
X110023809Y-61476190D01*
X110357142Y-60952380D01*
X111214285Y-61952380D02*
X110642857Y-61952380D01*
X110928571Y-61952380D02*
X110928571Y-60952380D01*
X110833333Y-61095238D01*
X110738095Y-61190476D01*
X110642857Y-61238095D01*
G04 #@! TO.C,SW9*
X75166666Y-56904761D02*
X75309523Y-56952380D01*
X75547619Y-56952380D01*
X75642857Y-56904761D01*
X75690476Y-56857142D01*
X75738095Y-56761904D01*
X75738095Y-56666666D01*
X75690476Y-56571428D01*
X75642857Y-56523809D01*
X75547619Y-56476190D01*
X75357142Y-56428571D01*
X75261904Y-56380952D01*
X75214285Y-56333333D01*
X75166666Y-56238095D01*
X75166666Y-56142857D01*
X75214285Y-56047619D01*
X75261904Y-56000000D01*
X75357142Y-55952380D01*
X75595238Y-55952380D01*
X75738095Y-56000000D01*
X76071428Y-55952380D02*
X76309523Y-56952380D01*
X76500000Y-56238095D01*
X76690476Y-56952380D01*
X76928571Y-55952380D01*
X77357142Y-56952380D02*
X77547619Y-56952380D01*
X77642857Y-56904761D01*
X77690476Y-56857142D01*
X77785714Y-56714285D01*
X77833333Y-56523809D01*
X77833333Y-56142857D01*
X77785714Y-56047619D01*
X77738095Y-56000000D01*
X77642857Y-55952380D01*
X77452380Y-55952380D01*
X77357142Y-56000000D01*
X77309523Y-56047619D01*
X77261904Y-56142857D01*
X77261904Y-56380952D01*
X77309523Y-56476190D01*
X77357142Y-56523809D01*
X77452380Y-56571428D01*
X77642857Y-56571428D01*
X77738095Y-56523809D01*
X77785714Y-56476190D01*
X77833333Y-56380952D01*
X78928571Y-60202380D02*
X78928571Y-61011904D01*
X78976190Y-61107142D01*
X79023809Y-61154761D01*
X79119047Y-61202380D01*
X79309523Y-61202380D01*
X79404761Y-61154761D01*
X79452380Y-61107142D01*
X79500000Y-61011904D01*
X79500000Y-60202380D01*
X79928571Y-61154761D02*
X80071428Y-61202380D01*
X80309523Y-61202380D01*
X80404761Y-61154761D01*
X80452380Y-61107142D01*
X80500000Y-61011904D01*
X80500000Y-60916666D01*
X80452380Y-60821428D01*
X80404761Y-60773809D01*
X80309523Y-60726190D01*
X80119047Y-60678571D01*
X80023809Y-60630952D01*
X79976190Y-60583333D01*
X79928571Y-60488095D01*
X79928571Y-60392857D01*
X79976190Y-60297619D01*
X80023809Y-60250000D01*
X80119047Y-60202380D01*
X80357142Y-60202380D01*
X80500000Y-60250000D01*
X81261904Y-60678571D02*
X81404761Y-60726190D01*
X81452380Y-60773809D01*
X81500000Y-60869047D01*
X81500000Y-61011904D01*
X81452380Y-61107142D01*
X81404761Y-61154761D01*
X81309523Y-61202380D01*
X80928571Y-61202380D01*
X80928571Y-60202380D01*
X81261904Y-60202380D01*
X81357142Y-60250000D01*
X81404761Y-60297619D01*
X81452380Y-60392857D01*
X81452380Y-60488095D01*
X81404761Y-60583333D01*
X81357142Y-60630952D01*
X81261904Y-60678571D01*
X80928571Y-60678571D01*
X81690476Y-61297619D02*
X82452380Y-61297619D01*
X83023809Y-60678571D02*
X83166666Y-60726190D01*
X83214285Y-60773809D01*
X83261904Y-60869047D01*
X83261904Y-61011904D01*
X83214285Y-61107142D01*
X83166666Y-61154761D01*
X83071428Y-61202380D01*
X82690476Y-61202380D01*
X82690476Y-60202380D01*
X83023809Y-60202380D01*
X83119047Y-60250000D01*
X83166666Y-60297619D01*
X83214285Y-60392857D01*
X83214285Y-60488095D01*
X83166666Y-60583333D01*
X83119047Y-60630952D01*
X83023809Y-60678571D01*
X82690476Y-60678571D01*
X83880952Y-60202380D02*
X84071428Y-60202380D01*
X84166666Y-60250000D01*
X84261904Y-60345238D01*
X84309523Y-60535714D01*
X84309523Y-60869047D01*
X84261904Y-61059523D01*
X84166666Y-61154761D01*
X84071428Y-61202380D01*
X83880952Y-61202380D01*
X83785714Y-61154761D01*
X83690476Y-61059523D01*
X83642857Y-60869047D01*
X83642857Y-60535714D01*
X83690476Y-60345238D01*
X83785714Y-60250000D01*
X83880952Y-60202380D01*
X84928571Y-60202380D02*
X85119047Y-60202380D01*
X85214285Y-60250000D01*
X85309523Y-60345238D01*
X85357142Y-60535714D01*
X85357142Y-60869047D01*
X85309523Y-61059523D01*
X85214285Y-61154761D01*
X85119047Y-61202380D01*
X84928571Y-61202380D01*
X84833333Y-61154761D01*
X84738095Y-61059523D01*
X84690476Y-60869047D01*
X84690476Y-60535714D01*
X84738095Y-60345238D01*
X84833333Y-60250000D01*
X84928571Y-60202380D01*
X85642857Y-60202380D02*
X86214285Y-60202380D01*
X85928571Y-61202380D02*
X85928571Y-60202380D01*
G04 #@! TO.C,R2*
X119333333Y-91452380D02*
X119000000Y-90976190D01*
X118761904Y-91452380D02*
X118761904Y-90452380D01*
X119142857Y-90452380D01*
X119238095Y-90500000D01*
X119285714Y-90547619D01*
X119333333Y-90642857D01*
X119333333Y-90785714D01*
X119285714Y-90880952D01*
X119238095Y-90928571D01*
X119142857Y-90976190D01*
X118761904Y-90976190D01*
X119714285Y-90547619D02*
X119761904Y-90500000D01*
X119857142Y-90452380D01*
X120095238Y-90452380D01*
X120190476Y-90500000D01*
X120238095Y-90547619D01*
X120285714Y-90642857D01*
X120285714Y-90738095D01*
X120238095Y-90880952D01*
X119666666Y-91452380D01*
X120285714Y-91452380D01*
G04 #@! TO.C,C8*
X114333333Y-67857142D02*
X114285714Y-67904761D01*
X114142857Y-67952380D01*
X114047619Y-67952380D01*
X113904761Y-67904761D01*
X113809523Y-67809523D01*
X113761904Y-67714285D01*
X113714285Y-67523809D01*
X113714285Y-67380952D01*
X113761904Y-67190476D01*
X113809523Y-67095238D01*
X113904761Y-67000000D01*
X114047619Y-66952380D01*
X114142857Y-66952380D01*
X114285714Y-67000000D01*
X114333333Y-67047619D01*
X114904761Y-67380952D02*
X114809523Y-67333333D01*
X114761904Y-67285714D01*
X114714285Y-67190476D01*
X114714285Y-67142857D01*
X114761904Y-67047619D01*
X114809523Y-67000000D01*
X114904761Y-66952380D01*
X115095238Y-66952380D01*
X115190476Y-67000000D01*
X115238095Y-67047619D01*
X115285714Y-67142857D01*
X115285714Y-67190476D01*
X115238095Y-67285714D01*
X115190476Y-67333333D01*
X115095238Y-67380952D01*
X114904761Y-67380952D01*
X114809523Y-67428571D01*
X114761904Y-67476190D01*
X114714285Y-67571428D01*
X114714285Y-67761904D01*
X114761904Y-67857142D01*
X114809523Y-67904761D01*
X114904761Y-67952380D01*
X115095238Y-67952380D01*
X115190476Y-67904761D01*
X115238095Y-67857142D01*
X115285714Y-67761904D01*
X115285714Y-67571428D01*
X115238095Y-67476190D01*
X115190476Y-67428571D01*
X115095238Y-67380952D01*
G04 #@! TO.C,R5*
X86452380Y-82166666D02*
X85976190Y-82500000D01*
X86452380Y-82738095D02*
X85452380Y-82738095D01*
X85452380Y-82357142D01*
X85500000Y-82261904D01*
X85547619Y-82214285D01*
X85642857Y-82166666D01*
X85785714Y-82166666D01*
X85880952Y-82214285D01*
X85928571Y-82261904D01*
X85976190Y-82357142D01*
X85976190Y-82738095D01*
X85452380Y-81261904D02*
X85452380Y-81738095D01*
X85928571Y-81785714D01*
X85880952Y-81738095D01*
X85833333Y-81642857D01*
X85833333Y-81404761D01*
X85880952Y-81309523D01*
X85928571Y-81261904D01*
X86023809Y-81214285D01*
X86261904Y-81214285D01*
X86357142Y-81261904D01*
X86404761Y-81309523D01*
X86452380Y-81404761D01*
X86452380Y-81642857D01*
X86404761Y-81738095D01*
X86357142Y-81785714D01*
G04 #@! TO.C,C16*
X97857142Y-77642857D02*
X97904761Y-77690476D01*
X97952380Y-77833333D01*
X97952380Y-77928571D01*
X97904761Y-78071428D01*
X97809523Y-78166666D01*
X97714285Y-78214285D01*
X97523809Y-78261904D01*
X97380952Y-78261904D01*
X97190476Y-78214285D01*
X97095238Y-78166666D01*
X97000000Y-78071428D01*
X96952380Y-77928571D01*
X96952380Y-77833333D01*
X97000000Y-77690476D01*
X97047619Y-77642857D01*
X97952380Y-76690476D02*
X97952380Y-77261904D01*
X97952380Y-76976190D02*
X96952380Y-76976190D01*
X97095238Y-77071428D01*
X97190476Y-77166666D01*
X97238095Y-77261904D01*
X96952380Y-75833333D02*
X96952380Y-76023809D01*
X97000000Y-76119047D01*
X97047619Y-76166666D01*
X97190476Y-76261904D01*
X97380952Y-76309523D01*
X97761904Y-76309523D01*
X97857142Y-76261904D01*
X97904761Y-76214285D01*
X97952380Y-76119047D01*
X97952380Y-75928571D01*
X97904761Y-75833333D01*
X97857142Y-75785714D01*
X97761904Y-75738095D01*
X97523809Y-75738095D01*
X97428571Y-75785714D01*
X97380952Y-75833333D01*
X97333333Y-75928571D01*
X97333333Y-76119047D01*
X97380952Y-76214285D01*
X97428571Y-76261904D01*
X97523809Y-76309523D01*
G04 #@! TO.C,U6*
X111738095Y-79952380D02*
X111738095Y-80761904D01*
X111785714Y-80857142D01*
X111833333Y-80904761D01*
X111928571Y-80952380D01*
X112119047Y-80952380D01*
X112214285Y-80904761D01*
X112261904Y-80857142D01*
X112309523Y-80761904D01*
X112309523Y-79952380D01*
X113214285Y-79952380D02*
X113023809Y-79952380D01*
X112928571Y-80000000D01*
X112880952Y-80047619D01*
X112785714Y-80190476D01*
X112738095Y-80380952D01*
X112738095Y-80761904D01*
X112785714Y-80857142D01*
X112833333Y-80904761D01*
X112928571Y-80952380D01*
X113119047Y-80952380D01*
X113214285Y-80904761D01*
X113261904Y-80857142D01*
X113309523Y-80761904D01*
X113309523Y-80523809D01*
X113261904Y-80428571D01*
X113214285Y-80380952D01*
X113119047Y-80333333D01*
X112928571Y-80333333D01*
X112833333Y-80380952D01*
X112785714Y-80428571D01*
X112738095Y-80523809D01*
G04 #@! TO.C,C15*
X107027350Y-74202030D02*
X107094694Y-74202030D01*
X107229381Y-74269374D01*
X107296724Y-74336717D01*
X107364068Y-74471404D01*
X107364068Y-74606091D01*
X107330396Y-74707106D01*
X107229381Y-74875465D01*
X107128366Y-74976480D01*
X106960007Y-75077496D01*
X106858992Y-75111167D01*
X106724305Y-75111167D01*
X106589618Y-75043824D01*
X106522274Y-74976480D01*
X106454931Y-74841793D01*
X106454931Y-74774450D01*
X106421259Y-73461251D02*
X106825320Y-73865312D01*
X106623289Y-73663282D02*
X105916182Y-74370389D01*
X106084541Y-74336717D01*
X106219228Y-74336717D01*
X106320244Y-74370389D01*
X105074389Y-73528595D02*
X105411106Y-73865312D01*
X105781495Y-73562267D01*
X105714152Y-73562267D01*
X105613137Y-73528595D01*
X105444778Y-73360236D01*
X105411106Y-73259221D01*
X105411106Y-73191877D01*
X105444778Y-73090862D01*
X105613137Y-72922503D01*
X105714152Y-72888832D01*
X105781495Y-72888832D01*
X105882511Y-72922503D01*
X106050869Y-73090862D01*
X106084541Y-73191877D01*
X106084541Y-73259221D01*
G04 #@! TO.C,R18*
X86867142Y-46382380D02*
X86533809Y-45906190D01*
X86295714Y-46382380D02*
X86295714Y-45382380D01*
X86676666Y-45382380D01*
X86771904Y-45430000D01*
X86819523Y-45477619D01*
X86867142Y-45572857D01*
X86867142Y-45715714D01*
X86819523Y-45810952D01*
X86771904Y-45858571D01*
X86676666Y-45906190D01*
X86295714Y-45906190D01*
X87819523Y-46382380D02*
X87248095Y-46382380D01*
X87533809Y-46382380D02*
X87533809Y-45382380D01*
X87438571Y-45525238D01*
X87343333Y-45620476D01*
X87248095Y-45668095D01*
X88390952Y-45810952D02*
X88295714Y-45763333D01*
X88248095Y-45715714D01*
X88200476Y-45620476D01*
X88200476Y-45572857D01*
X88248095Y-45477619D01*
X88295714Y-45430000D01*
X88390952Y-45382380D01*
X88581428Y-45382380D01*
X88676666Y-45430000D01*
X88724285Y-45477619D01*
X88771904Y-45572857D01*
X88771904Y-45620476D01*
X88724285Y-45715714D01*
X88676666Y-45763333D01*
X88581428Y-45810952D01*
X88390952Y-45810952D01*
X88295714Y-45858571D01*
X88248095Y-45906190D01*
X88200476Y-46001428D01*
X88200476Y-46191904D01*
X88248095Y-46287142D01*
X88295714Y-46334761D01*
X88390952Y-46382380D01*
X88581428Y-46382380D01*
X88676666Y-46334761D01*
X88724285Y-46287142D01*
X88771904Y-46191904D01*
X88771904Y-46001428D01*
X88724285Y-45906190D01*
X88676666Y-45858571D01*
X88581428Y-45810952D01*
G04 #@! TO.C,U3*
X80738095Y-64892380D02*
X80738095Y-65701904D01*
X80785714Y-65797142D01*
X80833333Y-65844761D01*
X80928571Y-65892380D01*
X81119047Y-65892380D01*
X81214285Y-65844761D01*
X81261904Y-65797142D01*
X81309523Y-65701904D01*
X81309523Y-64892380D01*
X81690476Y-64892380D02*
X82309523Y-64892380D01*
X81976190Y-65273333D01*
X82119047Y-65273333D01*
X82214285Y-65320952D01*
X82261904Y-65368571D01*
X82309523Y-65463809D01*
X82309523Y-65701904D01*
X82261904Y-65797142D01*
X82214285Y-65844761D01*
X82119047Y-65892380D01*
X81833333Y-65892380D01*
X81738095Y-65844761D01*
X81690476Y-65797142D01*
G04 #@! TO.C,R7*
X103022380Y-80166666D02*
X102546190Y-80500000D01*
X103022380Y-80738095D02*
X102022380Y-80738095D01*
X102022380Y-80357142D01*
X102070000Y-80261904D01*
X102117619Y-80214285D01*
X102212857Y-80166666D01*
X102355714Y-80166666D01*
X102450952Y-80214285D01*
X102498571Y-80261904D01*
X102546190Y-80357142D01*
X102546190Y-80738095D01*
X102022380Y-79833333D02*
X102022380Y-79166666D01*
X103022380Y-79595238D01*
G04 #@! TO.C,R1*
X78333333Y-90452380D02*
X78000000Y-89976190D01*
X77761904Y-90452380D02*
X77761904Y-89452380D01*
X78142857Y-89452380D01*
X78238095Y-89500000D01*
X78285714Y-89547619D01*
X78333333Y-89642857D01*
X78333333Y-89785714D01*
X78285714Y-89880952D01*
X78238095Y-89928571D01*
X78142857Y-89976190D01*
X77761904Y-89976190D01*
X79285714Y-90452380D02*
X78714285Y-90452380D01*
X79000000Y-90452380D02*
X79000000Y-89452380D01*
X78904761Y-89595238D01*
X78809523Y-89690476D01*
X78714285Y-89738095D01*
G04 #@! TO.C,SW7*
X117166666Y-53004761D02*
X117309523Y-53052380D01*
X117547619Y-53052380D01*
X117642857Y-53004761D01*
X117690476Y-52957142D01*
X117738095Y-52861904D01*
X117738095Y-52766666D01*
X117690476Y-52671428D01*
X117642857Y-52623809D01*
X117547619Y-52576190D01*
X117357142Y-52528571D01*
X117261904Y-52480952D01*
X117214285Y-52433333D01*
X117166666Y-52338095D01*
X117166666Y-52242857D01*
X117214285Y-52147619D01*
X117261904Y-52100000D01*
X117357142Y-52052380D01*
X117595238Y-52052380D01*
X117738095Y-52100000D01*
X118071428Y-52052380D02*
X118309523Y-53052380D01*
X118500000Y-52338095D01*
X118690476Y-53052380D01*
X118928571Y-52052380D01*
X119214285Y-52052380D02*
X119880952Y-52052380D01*
X119452380Y-53052380D01*
X117047619Y-61202380D02*
X116714285Y-60726190D01*
X116476190Y-61202380D02*
X116476190Y-60202380D01*
X116857142Y-60202380D01*
X116952380Y-60250000D01*
X117000000Y-60297619D01*
X117047619Y-60392857D01*
X117047619Y-60535714D01*
X117000000Y-60630952D01*
X116952380Y-60678571D01*
X116857142Y-60726190D01*
X116476190Y-60726190D01*
X117476190Y-60678571D02*
X117809523Y-60678571D01*
X117952380Y-61202380D02*
X117476190Y-61202380D01*
X117476190Y-60202380D01*
X117952380Y-60202380D01*
X118333333Y-61154761D02*
X118476190Y-61202380D01*
X118714285Y-61202380D01*
X118809523Y-61154761D01*
X118857142Y-61107142D01*
X118904761Y-61011904D01*
X118904761Y-60916666D01*
X118857142Y-60821428D01*
X118809523Y-60773809D01*
X118714285Y-60726190D01*
X118523809Y-60678571D01*
X118428571Y-60630952D01*
X118380952Y-60583333D01*
X118333333Y-60488095D01*
X118333333Y-60392857D01*
X118380952Y-60297619D01*
X118428571Y-60250000D01*
X118523809Y-60202380D01*
X118761904Y-60202380D01*
X118904761Y-60250000D01*
X119333333Y-60678571D02*
X119666666Y-60678571D01*
X119809523Y-61202380D02*
X119333333Y-61202380D01*
X119333333Y-60202380D01*
X119809523Y-60202380D01*
X120095238Y-60202380D02*
X120666666Y-60202380D01*
X120380952Y-61202380D02*
X120380952Y-60202380D01*
G04 #@! TO.C,C19*
X98357142Y-62642857D02*
X98404761Y-62690476D01*
X98452380Y-62833333D01*
X98452380Y-62928571D01*
X98404761Y-63071428D01*
X98309523Y-63166666D01*
X98214285Y-63214285D01*
X98023809Y-63261904D01*
X97880952Y-63261904D01*
X97690476Y-63214285D01*
X97595238Y-63166666D01*
X97500000Y-63071428D01*
X97452380Y-62928571D01*
X97452380Y-62833333D01*
X97500000Y-62690476D01*
X97547619Y-62642857D01*
X98452380Y-61690476D02*
X98452380Y-62261904D01*
X98452380Y-61976190D02*
X97452380Y-61976190D01*
X97595238Y-62071428D01*
X97690476Y-62166666D01*
X97738095Y-62261904D01*
X98452380Y-61214285D02*
X98452380Y-61023809D01*
X98404761Y-60928571D01*
X98357142Y-60880952D01*
X98214285Y-60785714D01*
X98023809Y-60738095D01*
X97642857Y-60738095D01*
X97547619Y-60785714D01*
X97500000Y-60833333D01*
X97452380Y-60928571D01*
X97452380Y-61119047D01*
X97500000Y-61214285D01*
X97547619Y-61261904D01*
X97642857Y-61309523D01*
X97880952Y-61309523D01*
X97976190Y-61261904D01*
X98023809Y-61214285D01*
X98071428Y-61119047D01*
X98071428Y-60928571D01*
X98023809Y-60833333D01*
X97976190Y-60785714D01*
X97880952Y-60738095D01*
G04 #@! TO.C,U4*
X100738095Y-39952380D02*
X100738095Y-40761904D01*
X100785714Y-40857142D01*
X100833333Y-40904761D01*
X100928571Y-40952380D01*
X101119047Y-40952380D01*
X101214285Y-40904761D01*
X101261904Y-40857142D01*
X101309523Y-40761904D01*
X101309523Y-39952380D01*
X102214285Y-40285714D02*
X102214285Y-40952380D01*
X101976190Y-39904761D02*
X101738095Y-40619047D01*
X102357142Y-40619047D01*
G04 #@! TO.C,U2*
X82738095Y-79952380D02*
X82738095Y-80761904D01*
X82785714Y-80857142D01*
X82833333Y-80904761D01*
X82928571Y-80952380D01*
X83119047Y-80952380D01*
X83214285Y-80904761D01*
X83261904Y-80857142D01*
X83309523Y-80761904D01*
X83309523Y-79952380D01*
X83738095Y-80047619D02*
X83785714Y-80000000D01*
X83880952Y-79952380D01*
X84119047Y-79952380D01*
X84214285Y-80000000D01*
X84261904Y-80047619D01*
X84309523Y-80142857D01*
X84309523Y-80238095D01*
X84261904Y-80380952D01*
X83690476Y-80952380D01*
X84309523Y-80952380D01*
G04 #@! TO.C,U5*
X93738095Y-79952380D02*
X93738095Y-80761904D01*
X93785714Y-80857142D01*
X93833333Y-80904761D01*
X93928571Y-80952380D01*
X94119047Y-80952380D01*
X94214285Y-80904761D01*
X94261904Y-80857142D01*
X94309523Y-80761904D01*
X94309523Y-79952380D01*
X95261904Y-79952380D02*
X94785714Y-79952380D01*
X94738095Y-80428571D01*
X94785714Y-80380952D01*
X94880952Y-80333333D01*
X95119047Y-80333333D01*
X95214285Y-80380952D01*
X95261904Y-80428571D01*
X95309523Y-80523809D01*
X95309523Y-80761904D01*
X95261904Y-80857142D01*
X95214285Y-80904761D01*
X95119047Y-80952380D01*
X94880952Y-80952380D01*
X94785714Y-80904761D01*
X94738095Y-80857142D01*
G04 #@! TO.C,R8*
X123622380Y-61166666D02*
X123146190Y-61500000D01*
X123622380Y-61738095D02*
X122622380Y-61738095D01*
X122622380Y-61357142D01*
X122670000Y-61261904D01*
X122717619Y-61214285D01*
X122812857Y-61166666D01*
X122955714Y-61166666D01*
X123050952Y-61214285D01*
X123098571Y-61261904D01*
X123146190Y-61357142D01*
X123146190Y-61738095D01*
X123050952Y-60595238D02*
X123003333Y-60690476D01*
X122955714Y-60738095D01*
X122860476Y-60785714D01*
X122812857Y-60785714D01*
X122717619Y-60738095D01*
X122670000Y-60690476D01*
X122622380Y-60595238D01*
X122622380Y-60404761D01*
X122670000Y-60309523D01*
X122717619Y-60261904D01*
X122812857Y-60214285D01*
X122860476Y-60214285D01*
X122955714Y-60261904D01*
X123003333Y-60309523D01*
X123050952Y-60404761D01*
X123050952Y-60595238D01*
X123098571Y-60690476D01*
X123146190Y-60738095D01*
X123241428Y-60785714D01*
X123431904Y-60785714D01*
X123527142Y-60738095D01*
X123574761Y-60690476D01*
X123622380Y-60595238D01*
X123622380Y-60404761D01*
X123574761Y-60309523D01*
X123527142Y-60261904D01*
X123431904Y-60214285D01*
X123241428Y-60214285D01*
X123146190Y-60261904D01*
X123098571Y-60309523D01*
X123050952Y-60404761D01*
G04 #@! TO.C,U1*
X95238095Y-75452380D02*
X95238095Y-76261904D01*
X95285714Y-76357142D01*
X95333333Y-76404761D01*
X95428571Y-76452380D01*
X95619047Y-76452380D01*
X95714285Y-76404761D01*
X95761904Y-76357142D01*
X95809523Y-76261904D01*
X95809523Y-75452380D01*
X96809523Y-76452380D02*
X96238095Y-76452380D01*
X96523809Y-76452380D02*
X96523809Y-75452380D01*
X96428571Y-75595238D01*
X96333333Y-75690476D01*
X96238095Y-75738095D01*
G04 #@! TO.C,R4*
X83833333Y-90452380D02*
X83500000Y-89976190D01*
X83261904Y-90452380D02*
X83261904Y-89452380D01*
X83642857Y-89452380D01*
X83738095Y-89500000D01*
X83785714Y-89547619D01*
X83833333Y-89642857D01*
X83833333Y-89785714D01*
X83785714Y-89880952D01*
X83738095Y-89928571D01*
X83642857Y-89976190D01*
X83261904Y-89976190D01*
X84690476Y-89785714D02*
X84690476Y-90452380D01*
X84452380Y-89404761D02*
X84214285Y-90119047D01*
X84833333Y-90119047D01*
G04 #@! TO.C,C7*
X112293333Y-64107142D02*
X112245714Y-64154761D01*
X112102857Y-64202380D01*
X112007619Y-64202380D01*
X111864761Y-64154761D01*
X111769523Y-64059523D01*
X111721904Y-63964285D01*
X111674285Y-63773809D01*
X111674285Y-63630952D01*
X111721904Y-63440476D01*
X111769523Y-63345238D01*
X111864761Y-63250000D01*
X112007619Y-63202380D01*
X112102857Y-63202380D01*
X112245714Y-63250000D01*
X112293333Y-63297619D01*
X112626666Y-63202380D02*
X113293333Y-63202380D01*
X112864761Y-64202380D01*
G04 #@! TO.C,C18*
X89857142Y-68857142D02*
X89809523Y-68904761D01*
X89666666Y-68952380D01*
X89571428Y-68952380D01*
X89428571Y-68904761D01*
X89333333Y-68809523D01*
X89285714Y-68714285D01*
X89238095Y-68523809D01*
X89238095Y-68380952D01*
X89285714Y-68190476D01*
X89333333Y-68095238D01*
X89428571Y-68000000D01*
X89571428Y-67952380D01*
X89666666Y-67952380D01*
X89809523Y-68000000D01*
X89857142Y-68047619D01*
X90809523Y-68952380D02*
X90238095Y-68952380D01*
X90523809Y-68952380D02*
X90523809Y-67952380D01*
X90428571Y-68095238D01*
X90333333Y-68190476D01*
X90238095Y-68238095D01*
X91380952Y-68380952D02*
X91285714Y-68333333D01*
X91238095Y-68285714D01*
X91190476Y-68190476D01*
X91190476Y-68142857D01*
X91238095Y-68047619D01*
X91285714Y-68000000D01*
X91380952Y-67952380D01*
X91571428Y-67952380D01*
X91666666Y-68000000D01*
X91714285Y-68047619D01*
X91761904Y-68142857D01*
X91761904Y-68190476D01*
X91714285Y-68285714D01*
X91666666Y-68333333D01*
X91571428Y-68380952D01*
X91380952Y-68380952D01*
X91285714Y-68428571D01*
X91238095Y-68476190D01*
X91190476Y-68571428D01*
X91190476Y-68761904D01*
X91238095Y-68857142D01*
X91285714Y-68904761D01*
X91380952Y-68952380D01*
X91571428Y-68952380D01*
X91666666Y-68904761D01*
X91714285Y-68857142D01*
X91761904Y-68761904D01*
X91761904Y-68571428D01*
X91714285Y-68476190D01*
X91666666Y-68428571D01*
X91571428Y-68380952D01*
G04 #@! TO.C,D1*
X86023809Y-42404761D02*
X86166666Y-42452380D01*
X86404761Y-42452380D01*
X86500000Y-42404761D01*
X86547619Y-42357142D01*
X86595238Y-42261904D01*
X86595238Y-42166666D01*
X86547619Y-42071428D01*
X86500000Y-42023809D01*
X86404761Y-41976190D01*
X86214285Y-41928571D01*
X86119047Y-41880952D01*
X86071428Y-41833333D01*
X86023809Y-41738095D01*
X86023809Y-41642857D01*
X86071428Y-41547619D01*
X86119047Y-41500000D01*
X86214285Y-41452380D01*
X86452380Y-41452380D01*
X86595238Y-41500000D01*
X86880952Y-41452380D02*
X87452380Y-41452380D01*
X87166666Y-42452380D02*
X87166666Y-41452380D01*
X87738095Y-42166666D02*
X88214285Y-42166666D01*
X87642857Y-42452380D02*
X87976190Y-41452380D01*
X88309523Y-42452380D01*
X88500000Y-41452380D02*
X89071428Y-41452380D01*
X88785714Y-42452380D02*
X88785714Y-41452380D01*
X89404761Y-41452380D02*
X89404761Y-42261904D01*
X89452380Y-42357142D01*
X89500000Y-42404761D01*
X89595238Y-42452380D01*
X89785714Y-42452380D01*
X89880952Y-42404761D01*
X89928571Y-42357142D01*
X89976190Y-42261904D01*
X89976190Y-41452380D01*
X90404761Y-42404761D02*
X90547619Y-42452380D01*
X90785714Y-42452380D01*
X90880952Y-42404761D01*
X90928571Y-42357142D01*
X90976190Y-42261904D01*
X90976190Y-42166666D01*
X90928571Y-42071428D01*
X90880952Y-42023809D01*
X90785714Y-41976190D01*
X90595238Y-41928571D01*
X90500000Y-41880952D01*
X90452380Y-41833333D01*
X90404761Y-41738095D01*
X90404761Y-41642857D01*
X90452380Y-41547619D01*
X90500000Y-41500000D01*
X90595238Y-41452380D01*
X90833333Y-41452380D01*
X90976190Y-41500000D01*
G04 #@! TO.C,F1*
X82666666Y-49928571D02*
X82333333Y-49928571D01*
X82333333Y-50452380D02*
X82333333Y-49452380D01*
X82809523Y-49452380D01*
X83714285Y-50452380D02*
X83142857Y-50452380D01*
X83428571Y-50452380D02*
X83428571Y-49452380D01*
X83333333Y-49595238D01*
X83238095Y-49690476D01*
X83142857Y-49738095D01*
X82619047Y-51452380D02*
X82142857Y-51452380D01*
X82095238Y-51928571D01*
X82142857Y-51880952D01*
X82238095Y-51833333D01*
X82476190Y-51833333D01*
X82571428Y-51880952D01*
X82619047Y-51928571D01*
X82666666Y-52023809D01*
X82666666Y-52261904D01*
X82619047Y-52357142D01*
X82571428Y-52404761D01*
X82476190Y-52452380D01*
X82238095Y-52452380D01*
X82142857Y-52404761D01*
X82095238Y-52357142D01*
X83285714Y-51452380D02*
X83380952Y-51452380D01*
X83476190Y-51500000D01*
X83523809Y-51547619D01*
X83571428Y-51642857D01*
X83619047Y-51833333D01*
X83619047Y-52071428D01*
X83571428Y-52261904D01*
X83523809Y-52357142D01*
X83476190Y-52404761D01*
X83380952Y-52452380D01*
X83285714Y-52452380D01*
X83190476Y-52404761D01*
X83142857Y-52357142D01*
X83095238Y-52261904D01*
X83047619Y-52071428D01*
X83047619Y-51833333D01*
X83095238Y-51642857D01*
X83142857Y-51547619D01*
X83190476Y-51500000D01*
X83285714Y-51452380D01*
X84238095Y-51452380D02*
X84333333Y-51452380D01*
X84428571Y-51500000D01*
X84476190Y-51547619D01*
X84523809Y-51642857D01*
X84571428Y-51833333D01*
X84571428Y-52071428D01*
X84523809Y-52261904D01*
X84476190Y-52357142D01*
X84428571Y-52404761D01*
X84333333Y-52452380D01*
X84238095Y-52452380D01*
X84142857Y-52404761D01*
X84095238Y-52357142D01*
X84047619Y-52261904D01*
X84000000Y-52071428D01*
X84000000Y-51833333D01*
X84047619Y-51642857D01*
X84095238Y-51547619D01*
X84142857Y-51500000D01*
X84238095Y-51452380D01*
X85000000Y-52452380D02*
X85000000Y-51785714D01*
X85000000Y-51880952D02*
X85047619Y-51833333D01*
X85142857Y-51785714D01*
X85285714Y-51785714D01*
X85380952Y-51833333D01*
X85428571Y-51928571D01*
X85428571Y-52452380D01*
X85428571Y-51928571D02*
X85476190Y-51833333D01*
X85571428Y-51785714D01*
X85714285Y-51785714D01*
X85809523Y-51833333D01*
X85857142Y-51928571D01*
X85857142Y-52452380D01*
X86285714Y-52166666D02*
X86761904Y-52166666D01*
X86190476Y-52452380D02*
X86523809Y-51452380D01*
X86857142Y-52452380D01*
X87952380Y-52452380D02*
X87952380Y-51452380D01*
X87952380Y-51928571D02*
X88523809Y-51928571D01*
X88523809Y-52452380D02*
X88523809Y-51452380D01*
X89142857Y-52452380D02*
X89047619Y-52404761D01*
X89000000Y-52357142D01*
X88952380Y-52261904D01*
X88952380Y-51976190D01*
X89000000Y-51880952D01*
X89047619Y-51833333D01*
X89142857Y-51785714D01*
X89285714Y-51785714D01*
X89380952Y-51833333D01*
X89428571Y-51880952D01*
X89476190Y-51976190D01*
X89476190Y-52261904D01*
X89428571Y-52357142D01*
X89380952Y-52404761D01*
X89285714Y-52452380D01*
X89142857Y-52452380D01*
X90047619Y-52452380D02*
X89952380Y-52404761D01*
X89904761Y-52309523D01*
X89904761Y-51452380D01*
X90857142Y-52452380D02*
X90857142Y-51452380D01*
X90857142Y-52404761D02*
X90761904Y-52452380D01*
X90571428Y-52452380D01*
X90476190Y-52404761D01*
X90428571Y-52357142D01*
X90380952Y-52261904D01*
X90380952Y-51976190D01*
X90428571Y-51880952D01*
X90476190Y-51833333D01*
X90571428Y-51785714D01*
X90761904Y-51785714D01*
X90857142Y-51833333D01*
G04 #@! TO.C,C10*
X101857142Y-78142857D02*
X101904761Y-78190476D01*
X101952380Y-78333333D01*
X101952380Y-78428571D01*
X101904761Y-78571428D01*
X101809523Y-78666666D01*
X101714285Y-78714285D01*
X101523809Y-78761904D01*
X101380952Y-78761904D01*
X101190476Y-78714285D01*
X101095238Y-78666666D01*
X101000000Y-78571428D01*
X100952380Y-78428571D01*
X100952380Y-78333333D01*
X101000000Y-78190476D01*
X101047619Y-78142857D01*
X101952380Y-77190476D02*
X101952380Y-77761904D01*
X101952380Y-77476190D02*
X100952380Y-77476190D01*
X101095238Y-77571428D01*
X101190476Y-77666666D01*
X101238095Y-77761904D01*
X100952380Y-76571428D02*
X100952380Y-76476190D01*
X101000000Y-76380952D01*
X101047619Y-76333333D01*
X101142857Y-76285714D01*
X101333333Y-76238095D01*
X101571428Y-76238095D01*
X101761904Y-76285714D01*
X101857142Y-76333333D01*
X101904761Y-76380952D01*
X101952380Y-76476190D01*
X101952380Y-76571428D01*
X101904761Y-76666666D01*
X101857142Y-76714285D01*
X101761904Y-76761904D01*
X101571428Y-76809523D01*
X101333333Y-76809523D01*
X101142857Y-76761904D01*
X101047619Y-76714285D01*
X101000000Y-76666666D01*
X100952380Y-76571428D01*
G04 #@! TO.C,R10*
X112357142Y-70452380D02*
X112023809Y-69976190D01*
X111785714Y-70452380D02*
X111785714Y-69452380D01*
X112166666Y-69452380D01*
X112261904Y-69500000D01*
X112309523Y-69547619D01*
X112357142Y-69642857D01*
X112357142Y-69785714D01*
X112309523Y-69880952D01*
X112261904Y-69928571D01*
X112166666Y-69976190D01*
X111785714Y-69976190D01*
X113309523Y-70452380D02*
X112738095Y-70452380D01*
X113023809Y-70452380D02*
X113023809Y-69452380D01*
X112928571Y-69595238D01*
X112833333Y-69690476D01*
X112738095Y-69738095D01*
X113928571Y-69452380D02*
X114023809Y-69452380D01*
X114119047Y-69500000D01*
X114166666Y-69547619D01*
X114214285Y-69642857D01*
X114261904Y-69833333D01*
X114261904Y-70071428D01*
X114214285Y-70261904D01*
X114166666Y-70357142D01*
X114119047Y-70404761D01*
X114023809Y-70452380D01*
X113928571Y-70452380D01*
X113833333Y-70404761D01*
X113785714Y-70357142D01*
X113738095Y-70261904D01*
X113690476Y-70071428D01*
X113690476Y-69833333D01*
X113738095Y-69642857D01*
X113785714Y-69547619D01*
X113833333Y-69500000D01*
X113928571Y-69452380D01*
G04 #@! TO.C,C9*
X95357142Y-62166666D02*
X95404761Y-62214285D01*
X95452380Y-62357142D01*
X95452380Y-62452380D01*
X95404761Y-62595238D01*
X95309523Y-62690476D01*
X95214285Y-62738095D01*
X95023809Y-62785714D01*
X94880952Y-62785714D01*
X94690476Y-62738095D01*
X94595238Y-62690476D01*
X94500000Y-62595238D01*
X94452380Y-62452380D01*
X94452380Y-62357142D01*
X94500000Y-62214285D01*
X94547619Y-62166666D01*
X95452380Y-61690476D02*
X95452380Y-61500000D01*
X95404761Y-61404761D01*
X95357142Y-61357142D01*
X95214285Y-61261904D01*
X95023809Y-61214285D01*
X94642857Y-61214285D01*
X94547619Y-61261904D01*
X94500000Y-61309523D01*
X94452380Y-61404761D01*
X94452380Y-61595238D01*
X94500000Y-61690476D01*
X94547619Y-61738095D01*
X94642857Y-61785714D01*
X94880952Y-61785714D01*
X94976190Y-61738095D01*
X95023809Y-61690476D01*
X95071428Y-61595238D01*
X95071428Y-61404761D01*
X95023809Y-61309523D01*
X94976190Y-61261904D01*
X94880952Y-61214285D01*
G04 #@! TO.C,C12*
X100357142Y-56642857D02*
X100404761Y-56690476D01*
X100452380Y-56833333D01*
X100452380Y-56928571D01*
X100404761Y-57071428D01*
X100309523Y-57166666D01*
X100214285Y-57214285D01*
X100023809Y-57261904D01*
X99880952Y-57261904D01*
X99690476Y-57214285D01*
X99595238Y-57166666D01*
X99500000Y-57071428D01*
X99452380Y-56928571D01*
X99452380Y-56833333D01*
X99500000Y-56690476D01*
X99547619Y-56642857D01*
X100452380Y-55690476D02*
X100452380Y-56261904D01*
X100452380Y-55976190D02*
X99452380Y-55976190D01*
X99595238Y-56071428D01*
X99690476Y-56166666D01*
X99738095Y-56261904D01*
X99547619Y-55309523D02*
X99500000Y-55261904D01*
X99452380Y-55166666D01*
X99452380Y-54928571D01*
X99500000Y-54833333D01*
X99547619Y-54785714D01*
X99642857Y-54738095D01*
X99738095Y-54738095D01*
X99880952Y-54785714D01*
X100452380Y-55357142D01*
X100452380Y-54738095D01*
G04 #@! TO.C,R14*
X94857142Y-40952380D02*
X94523809Y-40476190D01*
X94285714Y-40952380D02*
X94285714Y-39952380D01*
X94666666Y-39952380D01*
X94761904Y-40000000D01*
X94809523Y-40047619D01*
X94857142Y-40142857D01*
X94857142Y-40285714D01*
X94809523Y-40380952D01*
X94761904Y-40428571D01*
X94666666Y-40476190D01*
X94285714Y-40476190D01*
X95809523Y-40952380D02*
X95238095Y-40952380D01*
X95523809Y-40952380D02*
X95523809Y-39952380D01*
X95428571Y-40095238D01*
X95333333Y-40190476D01*
X95238095Y-40238095D01*
X96666666Y-40285714D02*
X96666666Y-40952380D01*
X96428571Y-39904761D02*
X96190476Y-40619047D01*
X96809523Y-40619047D01*
G04 #@! TO.C,R3*
X76522380Y-77666666D02*
X76046190Y-78000000D01*
X76522380Y-78238095D02*
X75522380Y-78238095D01*
X75522380Y-77857142D01*
X75570000Y-77761904D01*
X75617619Y-77714285D01*
X75712857Y-77666666D01*
X75855714Y-77666666D01*
X75950952Y-77714285D01*
X75998571Y-77761904D01*
X76046190Y-77857142D01*
X76046190Y-78238095D01*
X75522380Y-77333333D02*
X75522380Y-76714285D01*
X75903333Y-77047619D01*
X75903333Y-76904761D01*
X75950952Y-76809523D01*
X75998571Y-76761904D01*
X76093809Y-76714285D01*
X76331904Y-76714285D01*
X76427142Y-76761904D01*
X76474761Y-76809523D01*
X76522380Y-76904761D01*
X76522380Y-77190476D01*
X76474761Y-77285714D01*
X76427142Y-77333333D01*
G04 #@! TO.C,C23*
X92357142Y-50642857D02*
X92404761Y-50690476D01*
X92452380Y-50833333D01*
X92452380Y-50928571D01*
X92404761Y-51071428D01*
X92309523Y-51166666D01*
X92214285Y-51214285D01*
X92023809Y-51261904D01*
X91880952Y-51261904D01*
X91690476Y-51214285D01*
X91595238Y-51166666D01*
X91500000Y-51071428D01*
X91452380Y-50928571D01*
X91452380Y-50833333D01*
X91500000Y-50690476D01*
X91547619Y-50642857D01*
X91547619Y-50261904D02*
X91500000Y-50214285D01*
X91452380Y-50119047D01*
X91452380Y-49880952D01*
X91500000Y-49785714D01*
X91547619Y-49738095D01*
X91642857Y-49690476D01*
X91738095Y-49690476D01*
X91880952Y-49738095D01*
X92452380Y-50309523D01*
X92452380Y-49690476D01*
X91452380Y-49357142D02*
X91452380Y-48738095D01*
X91833333Y-49071428D01*
X91833333Y-48928571D01*
X91880952Y-48833333D01*
X91928571Y-48785714D01*
X92023809Y-48738095D01*
X92261904Y-48738095D01*
X92357142Y-48785714D01*
X92404761Y-48833333D01*
X92452380Y-48928571D01*
X92452380Y-49214285D01*
X92404761Y-49309523D01*
X92357142Y-49357142D01*
D12*
G04 #@! TO.C,C20*
X102400000Y-64615835D02*
X102400000Y-64384165D01*
X101680000Y-64615835D02*
X101680000Y-64384165D01*
G04 #@! TO.C,C13*
X96860000Y-64615835D02*
X96860000Y-64384165D01*
X96140000Y-64615835D02*
X96140000Y-64384165D01*
G04 #@! TO.C,U7*
X124035000Y-85000000D02*
X124035000Y-82800000D01*
X115965000Y-85000000D02*
X115965000Y-82800000D01*
X124035000Y-85000000D02*
X124035000Y-87200000D01*
X115965000Y-85000000D02*
X115965000Y-88600000D01*
G04 #@! TO.C,C17*
X94180000Y-74104165D02*
X94180000Y-74335835D01*
X93460000Y-74104165D02*
X93460000Y-74335835D01*
G04 #@! TO.C,C14*
X104884165Y-67860000D02*
X105115835Y-67860000D01*
X104884165Y-67140000D02*
X105115835Y-67140000D01*
G04 #@! TO.C,C22*
X84884165Y-65140000D02*
X85115835Y-65140000D01*
X84884165Y-65860000D02*
X85115835Y-65860000D01*
G04 #@! TO.C,R9*
X93630121Y-67380000D02*
X93294879Y-67380000D01*
X93630121Y-66620000D02*
X93294879Y-66620000D01*
G04 #@! TO.C,R13*
X114477500Y-84745276D02*
X114477500Y-85254724D01*
X115522500Y-84745276D02*
X115522500Y-85254724D01*
G04 #@! TO.C,R6*
X102754724Y-90522500D02*
X102245276Y-90522500D01*
X102754724Y-89477500D02*
X102245276Y-89477500D01*
G04 #@! TO.C,C21*
X95288748Y-49090000D02*
X96711252Y-49090000D01*
X95288748Y-50910000D02*
X96711252Y-50910000D01*
G04 #@! TO.C,C11*
X93735000Y-64261252D02*
X93735000Y-63738748D01*
X92265000Y-64261252D02*
X92265000Y-63738748D01*
G04 #@! TO.C,R11*
X102977500Y-63745276D02*
X102977500Y-64254724D01*
X104022500Y-63745276D02*
X104022500Y-64254724D01*
G04 #@! TO.C,J4*
X118735000Y-73235000D02*
X122265000Y-73235000D01*
X122265000Y-73170000D02*
X122265000Y-73235000D01*
X117410000Y-66830000D02*
X118735000Y-66830000D01*
X118735000Y-73170000D02*
X118735000Y-73235000D01*
X118735000Y-66765000D02*
X122265000Y-66765000D01*
X122265000Y-66765000D02*
X122265000Y-66830000D01*
X118735000Y-66765000D02*
X118735000Y-66830000D01*
G04 #@! TO.C,R19*
X78167621Y-65120000D02*
X77832379Y-65120000D01*
X78167621Y-65880000D02*
X77832379Y-65880000D01*
G04 #@! TO.C,R12*
X106022500Y-63745276D02*
X106022500Y-64254724D01*
X104977500Y-63745276D02*
X104977500Y-64254724D01*
G04 #@! TO.C,Y1*
X110850000Y-69350000D02*
X110850000Y-64650000D01*
X107150000Y-69350000D02*
X107150000Y-64650000D01*
X107150000Y-69350000D02*
G75*
G03*
X110850000Y-69350000I1850000J0D01*
G01*
X110850000Y-64650000D02*
G75*
G03*
X107150000Y-64650000I-1850000J0D01*
G01*
G04 #@! TO.C,SW9*
X85650000Y-55150000D02*
X85650000Y-57850000D01*
X85650000Y-53400000D02*
X85650000Y-53850000D01*
X79350000Y-53400000D02*
X85650000Y-53400000D01*
X85650000Y-59600000D02*
X85650000Y-59200000D01*
X79350000Y-59600000D02*
X85650000Y-59600000D01*
X79350000Y-53850000D02*
X79350000Y-53400000D01*
X79350000Y-59150000D02*
X79350000Y-59600000D01*
X79350000Y-57850000D02*
X79350000Y-55150000D01*
G04 #@! TO.C,R2*
X122667224Y-91522500D02*
X122157776Y-91522500D01*
X122667224Y-90477500D02*
X122157776Y-90477500D01*
G04 #@! TO.C,P1*
X75480000Y-43920000D02*
X75480000Y-41920000D01*
X84880000Y-38120000D02*
X75480000Y-38120000D01*
X75480000Y-40020000D02*
X75480000Y-38120000D01*
X84880000Y-40020000D02*
X84880000Y-38120000D01*
X84880000Y-43920000D02*
X84880000Y-41920000D01*
G04 #@! TO.C,C8*
X112575835Y-67770000D02*
X112344165Y-67770000D01*
X112575835Y-67050000D02*
X112344165Y-67050000D01*
G04 #@! TO.C,R5*
X86522500Y-84745276D02*
X86522500Y-85254724D01*
X85477500Y-84745276D02*
X85477500Y-85254724D01*
G04 #@! TO.C,C16*
X99360000Y-76884165D02*
X99360000Y-77115835D01*
X98640000Y-76884165D02*
X98640000Y-77115835D01*
G04 #@! TO.C,U6*
X113035000Y-85000000D02*
X113035000Y-87200000D01*
X104965000Y-85000000D02*
X104965000Y-88600000D01*
X104965000Y-85000000D02*
X104965000Y-82800000D01*
X113035000Y-85000000D02*
X113035000Y-82800000D01*
G04 #@! TO.C,C15*
X105672651Y-74663534D02*
X105836466Y-74827349D01*
X105163534Y-75172651D02*
X105327349Y-75336466D01*
G04 #@! TO.C,R18*
X87342379Y-47480000D02*
X87677621Y-47480000D01*
X87342379Y-46720000D02*
X87677621Y-46720000D01*
G04 #@! TO.C,U3*
X81500000Y-71725000D02*
X78775000Y-71725000D01*
X78775000Y-66535000D02*
X77100000Y-66535000D01*
X78775000Y-66275000D02*
X78775000Y-66535000D01*
X81500000Y-66275000D02*
X84225000Y-66275000D01*
X84225000Y-71725000D02*
X84225000Y-71465000D01*
X81500000Y-71725000D02*
X84225000Y-71725000D01*
X84225000Y-66275000D02*
X84225000Y-66535000D01*
X78775000Y-71725000D02*
X78775000Y-71465000D01*
X81500000Y-66275000D02*
X78775000Y-66275000D01*
G04 #@! TO.C,R7*
X103477500Y-80254724D02*
X103477500Y-79745276D01*
X104522500Y-80254724D02*
X104522500Y-79745276D01*
G04 #@! TO.C,R1*
X76254724Y-89477500D02*
X75745276Y-89477500D01*
X76254724Y-90522500D02*
X75745276Y-90522500D01*
G04 #@! TO.C,SW7*
X115350000Y-59150000D02*
X115350000Y-59600000D01*
X121650000Y-53400000D02*
X121650000Y-53850000D01*
X115350000Y-53850000D02*
X115350000Y-53400000D01*
X121650000Y-59600000D02*
X121650000Y-59200000D01*
X115350000Y-59600000D02*
X121650000Y-59600000D01*
X115350000Y-53400000D02*
X121650000Y-53400000D01*
X121650000Y-55150000D02*
X121650000Y-57850000D01*
X115350000Y-57850000D02*
X115350000Y-55150000D01*
G04 #@! TO.C,C19*
X98360000Y-64615835D02*
X98360000Y-64384165D01*
X97640000Y-64615835D02*
X97640000Y-64384165D01*
G04 #@! TO.C,U4*
X99910000Y-41590000D02*
X99910000Y-42850000D01*
X93900000Y-41590000D02*
X99910000Y-41590000D01*
X96150000Y-48410000D02*
X99910000Y-48410000D01*
X99910000Y-48410000D02*
X99910000Y-47150000D01*
G04 #@! TO.C,U2*
X84035000Y-85000000D02*
X84035000Y-82800000D01*
X75965000Y-85000000D02*
X75965000Y-88600000D01*
X75965000Y-85000000D02*
X75965000Y-82800000D01*
X84035000Y-85000000D02*
X84035000Y-87200000D01*
G04 #@! TO.C,U5*
X95035000Y-85000000D02*
X95035000Y-82800000D01*
X95035000Y-85000000D02*
X95035000Y-87200000D01*
X86965000Y-85000000D02*
X86965000Y-88600000D01*
X86965000Y-85000000D02*
X86965000Y-82800000D01*
G04 #@! TO.C,R8*
X122380000Y-60832379D02*
X122380000Y-61167621D01*
X121620000Y-60832379D02*
X121620000Y-61167621D01*
G04 #@! TO.C,U1*
X102460000Y-74610000D02*
X103110000Y-74610000D01*
X103110000Y-67390000D02*
X103110000Y-68040000D01*
X102460000Y-67390000D02*
X103110000Y-67390000D01*
X95890000Y-74610000D02*
X95890000Y-73960000D01*
X103110000Y-74610000D02*
X103110000Y-73960000D01*
X96540000Y-74610000D02*
X95890000Y-74610000D01*
X96540000Y-67390000D02*
X95890000Y-67390000D01*
G04 #@! TO.C,R4*
X87254724Y-89477500D02*
X86745276Y-89477500D01*
X87254724Y-90522500D02*
X86745276Y-90522500D01*
G04 #@! TO.C,C7*
X112344165Y-65270000D02*
X112575835Y-65270000D01*
X112344165Y-64550000D02*
X112575835Y-64550000D01*
G04 #@! TO.C,C18*
X93615835Y-68360000D02*
X93384165Y-68360000D01*
X93615835Y-67640000D02*
X93384165Y-67640000D01*
G04 #@! TO.C,D1*
X89630000Y-39505000D02*
X87170000Y-39505000D01*
X89630000Y-40975000D02*
X89630000Y-39505000D01*
X87170000Y-40975000D02*
X89630000Y-40975000D01*
G04 #@! TO.C,F1*
X87192064Y-49160000D02*
X85987936Y-49160000D01*
X87192064Y-50980000D02*
X85987936Y-50980000D01*
G04 #@! TO.C,C10*
X99640000Y-77384165D02*
X99640000Y-77615835D01*
X100360000Y-77384165D02*
X100360000Y-77615835D01*
G04 #@! TO.C,R10*
X112627621Y-68790000D02*
X112292379Y-68790000D01*
X112627621Y-68030000D02*
X112292379Y-68030000D01*
G04 #@! TO.C,C9*
X94640000Y-64615835D02*
X94640000Y-64384165D01*
X95360000Y-64615835D02*
X95360000Y-64384165D01*
G04 #@! TO.C,C12*
X100735000Y-64261252D02*
X100735000Y-63738748D01*
X99265000Y-64261252D02*
X99265000Y-63738748D01*
G04 #@! TO.C,R14*
X92060276Y-39677500D02*
X92569724Y-39677500D01*
X92060276Y-40722500D02*
X92569724Y-40722500D01*
G04 #@! TO.C,R3*
X76977500Y-77754724D02*
X76977500Y-77245276D01*
X78022500Y-77754724D02*
X78022500Y-77245276D01*
G04 #@! TO.C,C23*
X92910000Y-45288748D02*
X92910000Y-46711252D01*
X91090000Y-45288748D02*
X91090000Y-46711252D01*
G04 #@! TD*
M02*
