G04 #@! TF.GenerationSoftware,KiCad,Pcbnew,6.0.7*
G04 #@! TF.CreationDate,2022-08-31T22:31:15-07:00*
G04 #@! TF.ProjectId,gbpunk,67627075-6e6b-42e6-9b69-6361645f7063,v4.0*
G04 #@! TF.SameCoordinates,Original*
G04 #@! TF.FileFunction,Legend,Bot*
G04 #@! TF.FilePolarity,Positive*
%FSLAX46Y46*%
G04 Gerber Fmt 4.6, Leading zero omitted, Abs format (unit mm)*
G04 Created by KiCad (PCBNEW 6.0.7) date 2022-08-31 22:31:15*
%MOMM*%
%LPD*%
G01*
G04 APERTURE LIST*
%ADD10C,0.175000*%
G04 APERTURE END LIST*
D10*
X120199047Y-41280714D02*
X119818095Y-41280714D01*
X120056190Y-40947380D02*
X120056190Y-41804523D01*
X120008571Y-41899761D01*
X119913333Y-41947380D01*
X119818095Y-41947380D01*
X119484761Y-41947380D02*
X119484761Y-40947380D01*
X119056190Y-41947380D02*
X119056190Y-41423571D01*
X119103809Y-41328333D01*
X119199047Y-41280714D01*
X119341904Y-41280714D01*
X119437142Y-41328333D01*
X119484761Y-41375952D01*
X118151428Y-41947380D02*
X118151428Y-41423571D01*
X118199047Y-41328333D01*
X118294285Y-41280714D01*
X118484761Y-41280714D01*
X118580000Y-41328333D01*
X118151428Y-41899761D02*
X118246666Y-41947380D01*
X118484761Y-41947380D01*
X118580000Y-41899761D01*
X118627619Y-41804523D01*
X118627619Y-41709285D01*
X118580000Y-41614047D01*
X118484761Y-41566428D01*
X118246666Y-41566428D01*
X118151428Y-41518809D01*
X117675238Y-41280714D02*
X117675238Y-41947380D01*
X117675238Y-41375952D02*
X117627619Y-41328333D01*
X117532380Y-41280714D01*
X117389523Y-41280714D01*
X117294285Y-41328333D01*
X117246666Y-41423571D01*
X117246666Y-41947380D01*
X116770476Y-41947380D02*
X116770476Y-40947380D01*
X116675238Y-41566428D02*
X116389523Y-41947380D01*
X116389523Y-41280714D02*
X116770476Y-41661666D01*
X115294285Y-41280714D02*
X115056190Y-41947380D01*
X114818095Y-41280714D02*
X115056190Y-41947380D01*
X115151428Y-42185476D01*
X115199047Y-42233095D01*
X115294285Y-42280714D01*
X114294285Y-41947380D02*
X114389523Y-41899761D01*
X114437142Y-41852142D01*
X114484761Y-41756904D01*
X114484761Y-41471190D01*
X114437142Y-41375952D01*
X114389523Y-41328333D01*
X114294285Y-41280714D01*
X114151428Y-41280714D01*
X114056190Y-41328333D01*
X114008571Y-41375952D01*
X113960952Y-41471190D01*
X113960952Y-41756904D01*
X114008571Y-41852142D01*
X114056190Y-41899761D01*
X114151428Y-41947380D01*
X114294285Y-41947380D01*
X113103809Y-41280714D02*
X113103809Y-41947380D01*
X113532380Y-41280714D02*
X113532380Y-41804523D01*
X113484761Y-41899761D01*
X113389523Y-41947380D01*
X113246666Y-41947380D01*
X113151428Y-41899761D01*
X113103809Y-41852142D01*
X111437142Y-41280714D02*
X111437142Y-42090238D01*
X111484761Y-42185476D01*
X111532380Y-42233095D01*
X111627619Y-42280714D01*
X111770476Y-42280714D01*
X111865714Y-42233095D01*
X111437142Y-41899761D02*
X111532380Y-41947380D01*
X111722857Y-41947380D01*
X111818095Y-41899761D01*
X111865714Y-41852142D01*
X111913333Y-41756904D01*
X111913333Y-41471190D01*
X111865714Y-41375952D01*
X111818095Y-41328333D01*
X111722857Y-41280714D01*
X111532380Y-41280714D01*
X111437142Y-41328333D01*
X110580000Y-41899761D02*
X110675238Y-41947380D01*
X110865714Y-41947380D01*
X110960952Y-41899761D01*
X111008571Y-41804523D01*
X111008571Y-41423571D01*
X110960952Y-41328333D01*
X110865714Y-41280714D01*
X110675238Y-41280714D01*
X110580000Y-41328333D01*
X110532380Y-41423571D01*
X110532380Y-41518809D01*
X111008571Y-41614047D01*
X110103809Y-41947380D02*
X110103809Y-40947380D01*
X110008571Y-41566428D02*
X109722857Y-41947380D01*
X109722857Y-41280714D02*
X110103809Y-41661666D01*
X109294285Y-41947380D02*
X109294285Y-40947380D01*
X109199047Y-41566428D02*
X108913333Y-41947380D01*
X108913333Y-41280714D02*
X109294285Y-41661666D01*
X108484761Y-41947380D02*
X108484761Y-41280714D01*
X108484761Y-40947380D02*
X108532380Y-40995000D01*
X108484761Y-41042619D01*
X108437142Y-40995000D01*
X108484761Y-40947380D01*
X108484761Y-41042619D01*
X107865714Y-41947380D02*
X107960952Y-41899761D01*
X108008571Y-41852142D01*
X108056190Y-41756904D01*
X108056190Y-41471190D01*
X108008571Y-41375952D01*
X107960952Y-41328333D01*
X107865714Y-41280714D01*
X107722857Y-41280714D01*
X107627619Y-41328333D01*
X107580000Y-41375952D01*
X107532380Y-41471190D01*
X107532380Y-41756904D01*
X107580000Y-41852142D01*
X107627619Y-41899761D01*
X107722857Y-41947380D01*
X107865714Y-41947380D01*
X107103809Y-41852142D02*
X107056190Y-41899761D01*
X107103809Y-41947380D01*
X107151428Y-41899761D01*
X107103809Y-41852142D01*
X107103809Y-41947380D01*
X107103809Y-41566428D02*
X107151428Y-40995000D01*
X107103809Y-40947380D01*
X107056190Y-40995000D01*
X107103809Y-41566428D01*
X107103809Y-40947380D01*
X123960952Y-43557380D02*
X123960952Y-42557380D01*
X123532380Y-43557380D02*
X123532380Y-43033571D01*
X123580000Y-42938333D01*
X123675238Y-42890714D01*
X123818095Y-42890714D01*
X123913333Y-42938333D01*
X123960952Y-42985952D01*
X123199047Y-42890714D02*
X122818095Y-42890714D01*
X123056190Y-42557380D02*
X123056190Y-43414523D01*
X123008571Y-43509761D01*
X122913333Y-43557380D01*
X122818095Y-43557380D01*
X122627619Y-42890714D02*
X122246666Y-42890714D01*
X122484761Y-42557380D02*
X122484761Y-43414523D01*
X122437142Y-43509761D01*
X122341904Y-43557380D01*
X122246666Y-43557380D01*
X121913333Y-42890714D02*
X121913333Y-43890714D01*
X121913333Y-42938333D02*
X121818095Y-42890714D01*
X121627619Y-42890714D01*
X121532380Y-42938333D01*
X121484761Y-42985952D01*
X121437142Y-43081190D01*
X121437142Y-43366904D01*
X121484761Y-43462142D01*
X121532380Y-43509761D01*
X121627619Y-43557380D01*
X121818095Y-43557380D01*
X121913333Y-43509761D01*
X121056190Y-43509761D02*
X120960952Y-43557380D01*
X120770476Y-43557380D01*
X120675238Y-43509761D01*
X120627619Y-43414523D01*
X120627619Y-43366904D01*
X120675238Y-43271666D01*
X120770476Y-43224047D01*
X120913333Y-43224047D01*
X121008571Y-43176428D01*
X121056190Y-43081190D01*
X121056190Y-43033571D01*
X121008571Y-42938333D01*
X120913333Y-42890714D01*
X120770476Y-42890714D01*
X120675238Y-42938333D01*
X120199047Y-43462142D02*
X120151428Y-43509761D01*
X120199047Y-43557380D01*
X120246666Y-43509761D01*
X120199047Y-43462142D01*
X120199047Y-43557380D01*
X120199047Y-42938333D02*
X120151428Y-42985952D01*
X120199047Y-43033571D01*
X120246666Y-42985952D01*
X120199047Y-42938333D01*
X120199047Y-43033571D01*
X119008571Y-42509761D02*
X119865714Y-43795476D01*
X117960952Y-42509761D02*
X118818095Y-43795476D01*
X117199047Y-42890714D02*
X117199047Y-43700238D01*
X117246666Y-43795476D01*
X117294285Y-43843095D01*
X117389523Y-43890714D01*
X117532380Y-43890714D01*
X117627619Y-43843095D01*
X117199047Y-43509761D02*
X117294285Y-43557380D01*
X117484761Y-43557380D01*
X117580000Y-43509761D01*
X117627619Y-43462142D01*
X117675238Y-43366904D01*
X117675238Y-43081190D01*
X117627619Y-42985952D01*
X117580000Y-42938333D01*
X117484761Y-42890714D01*
X117294285Y-42890714D01*
X117199047Y-42938333D01*
X116722857Y-43557380D02*
X116722857Y-42890714D01*
X116722857Y-42557380D02*
X116770476Y-42605000D01*
X116722857Y-42652619D01*
X116675238Y-42605000D01*
X116722857Y-42557380D01*
X116722857Y-42652619D01*
X116389523Y-42890714D02*
X116008571Y-42890714D01*
X116246666Y-42557380D02*
X116246666Y-43414523D01*
X116199047Y-43509761D01*
X116103809Y-43557380D01*
X116008571Y-43557380D01*
X115675238Y-43557380D02*
X115675238Y-42557380D01*
X115246666Y-43557380D02*
X115246666Y-43033571D01*
X115294285Y-42938333D01*
X115389523Y-42890714D01*
X115532380Y-42890714D01*
X115627619Y-42938333D01*
X115675238Y-42985952D01*
X114341904Y-42890714D02*
X114341904Y-43557380D01*
X114770476Y-42890714D02*
X114770476Y-43414523D01*
X114722857Y-43509761D01*
X114627619Y-43557380D01*
X114484761Y-43557380D01*
X114389523Y-43509761D01*
X114341904Y-43462142D01*
X113865714Y-43557380D02*
X113865714Y-42557380D01*
X113865714Y-42938333D02*
X113770476Y-42890714D01*
X113580000Y-42890714D01*
X113484761Y-42938333D01*
X113437142Y-42985952D01*
X113389523Y-43081190D01*
X113389523Y-43366904D01*
X113437142Y-43462142D01*
X113484761Y-43509761D01*
X113580000Y-43557380D01*
X113770476Y-43557380D01*
X113865714Y-43509761D01*
X112960952Y-43462142D02*
X112913333Y-43509761D01*
X112960952Y-43557380D01*
X113008571Y-43509761D01*
X112960952Y-43462142D01*
X112960952Y-43557380D01*
X112056190Y-43509761D02*
X112151428Y-43557380D01*
X112341904Y-43557380D01*
X112437142Y-43509761D01*
X112484761Y-43462142D01*
X112532380Y-43366904D01*
X112532380Y-43081190D01*
X112484761Y-42985952D01*
X112437142Y-42938333D01*
X112341904Y-42890714D01*
X112151428Y-42890714D01*
X112056190Y-42938333D01*
X111484761Y-43557380D02*
X111580000Y-43509761D01*
X111627619Y-43462142D01*
X111675238Y-43366904D01*
X111675238Y-43081190D01*
X111627619Y-42985952D01*
X111580000Y-42938333D01*
X111484761Y-42890714D01*
X111341904Y-42890714D01*
X111246666Y-42938333D01*
X111199047Y-42985952D01*
X111151428Y-43081190D01*
X111151428Y-43366904D01*
X111199047Y-43462142D01*
X111246666Y-43509761D01*
X111341904Y-43557380D01*
X111484761Y-43557380D01*
X110722857Y-43557380D02*
X110722857Y-42890714D01*
X110722857Y-42985952D02*
X110675238Y-42938333D01*
X110580000Y-42890714D01*
X110437142Y-42890714D01*
X110341904Y-42938333D01*
X110294285Y-43033571D01*
X110294285Y-43557380D01*
X110294285Y-43033571D02*
X110246666Y-42938333D01*
X110151428Y-42890714D01*
X110008571Y-42890714D01*
X109913333Y-42938333D01*
X109865714Y-43033571D01*
X109865714Y-43557380D01*
X108675238Y-42509761D02*
X109532380Y-43795476D01*
X107818095Y-42605000D02*
X107913333Y-42557380D01*
X108056190Y-42557380D01*
X108199047Y-42605000D01*
X108294285Y-42700238D01*
X108341904Y-42795476D01*
X108389523Y-42985952D01*
X108389523Y-43128809D01*
X108341904Y-43319285D01*
X108294285Y-43414523D01*
X108199047Y-43509761D01*
X108056190Y-43557380D01*
X107960952Y-43557380D01*
X107818095Y-43509761D01*
X107770476Y-43462142D01*
X107770476Y-43128809D01*
X107960952Y-43128809D01*
X106960952Y-43509761D02*
X107056190Y-43557380D01*
X107246666Y-43557380D01*
X107341904Y-43509761D01*
X107389523Y-43414523D01*
X107389523Y-43033571D01*
X107341904Y-42938333D01*
X107246666Y-42890714D01*
X107056190Y-42890714D01*
X106960952Y-42938333D01*
X106913333Y-43033571D01*
X106913333Y-43128809D01*
X107389523Y-43224047D01*
X106484761Y-43557380D02*
X106484761Y-42557380D01*
X106389523Y-43176428D02*
X106103809Y-43557380D01*
X106103809Y-42890714D02*
X106484761Y-43271666D01*
X105675238Y-43557380D02*
X105675238Y-42557380D01*
X105580000Y-43176428D02*
X105294285Y-43557380D01*
X105294285Y-42890714D02*
X105675238Y-43271666D01*
X104865714Y-43557380D02*
X104865714Y-42890714D01*
X104865714Y-42557380D02*
X104913333Y-42605000D01*
X104865714Y-42652619D01*
X104818095Y-42605000D01*
X104865714Y-42557380D01*
X104865714Y-42652619D01*
X104246666Y-43557380D02*
X104341904Y-43509761D01*
X104389523Y-43462142D01*
X104437142Y-43366904D01*
X104437142Y-43081190D01*
X104389523Y-42985952D01*
X104341904Y-42938333D01*
X104246666Y-42890714D01*
X104103809Y-42890714D01*
X104008571Y-42938333D01*
X103960952Y-42985952D01*
X103913333Y-43081190D01*
X103913333Y-43366904D01*
X103960952Y-43462142D01*
X104008571Y-43509761D01*
X104103809Y-43557380D01*
X104246666Y-43557380D01*
X121103809Y-45167380D02*
X121103809Y-44167380D01*
X119960952Y-44500714D02*
X119770476Y-45167380D01*
X119580000Y-44691190D01*
X119389523Y-45167380D01*
X119199047Y-44500714D01*
X118818095Y-45167380D02*
X118818095Y-44500714D01*
X118818095Y-44167380D02*
X118865714Y-44215000D01*
X118818095Y-44262619D01*
X118770476Y-44215000D01*
X118818095Y-44167380D01*
X118818095Y-44262619D01*
X118199047Y-45167380D02*
X118294285Y-45119761D01*
X118341904Y-45024523D01*
X118341904Y-44167380D01*
X117675238Y-45167380D02*
X117770476Y-45119761D01*
X117818095Y-45024523D01*
X117818095Y-44167380D01*
X116532380Y-44500714D02*
X116532380Y-45167380D01*
X116532380Y-44595952D02*
X116484761Y-44548333D01*
X116389523Y-44500714D01*
X116246666Y-44500714D01*
X116151428Y-44548333D01*
X116103809Y-44643571D01*
X116103809Y-45167380D01*
X115484761Y-45167380D02*
X115580000Y-45119761D01*
X115627619Y-45072142D01*
X115675238Y-44976904D01*
X115675238Y-44691190D01*
X115627619Y-44595952D01*
X115580000Y-44548333D01*
X115484761Y-44500714D01*
X115341904Y-44500714D01*
X115246666Y-44548333D01*
X115199047Y-44595952D01*
X115151428Y-44691190D01*
X115151428Y-44976904D01*
X115199047Y-45072142D01*
X115246666Y-45119761D01*
X115341904Y-45167380D01*
X115484761Y-45167380D01*
X114865714Y-44500714D02*
X114484761Y-44500714D01*
X114722857Y-44167380D02*
X114722857Y-45024523D01*
X114675238Y-45119761D01*
X114580000Y-45167380D01*
X114484761Y-45167380D01*
X113008571Y-45119761D02*
X113103809Y-45167380D01*
X113294285Y-45167380D01*
X113389523Y-45119761D01*
X113437142Y-45024523D01*
X113437142Y-44643571D01*
X113389523Y-44548333D01*
X113294285Y-44500714D01*
X113103809Y-44500714D01*
X113008571Y-44548333D01*
X112960952Y-44643571D01*
X112960952Y-44738809D01*
X113437142Y-44834047D01*
X112532380Y-44500714D02*
X112532380Y-45167380D01*
X112532380Y-44595952D02*
X112484761Y-44548333D01*
X112389523Y-44500714D01*
X112246666Y-44500714D01*
X112151428Y-44548333D01*
X112103809Y-44643571D01*
X112103809Y-45167380D01*
X111199047Y-45167380D02*
X111199047Y-44167380D01*
X111199047Y-45119761D02*
X111294285Y-45167380D01*
X111484761Y-45167380D01*
X111580000Y-45119761D01*
X111627619Y-45072142D01*
X111675238Y-44976904D01*
X111675238Y-44691190D01*
X111627619Y-44595952D01*
X111580000Y-44548333D01*
X111484761Y-44500714D01*
X111294285Y-44500714D01*
X111199047Y-44548333D01*
X109532380Y-44500714D02*
X109532380Y-45167380D01*
X109960952Y-44500714D02*
X109960952Y-45024523D01*
X109913333Y-45119761D01*
X109818095Y-45167380D01*
X109675238Y-45167380D01*
X109580000Y-45119761D01*
X109532380Y-45072142D01*
X109056190Y-44500714D02*
X109056190Y-45500714D01*
X109056190Y-44548333D02*
X108960952Y-44500714D01*
X108770476Y-44500714D01*
X108675238Y-44548333D01*
X108627619Y-44595952D01*
X108580000Y-44691190D01*
X108580000Y-44976904D01*
X108627619Y-45072142D01*
X108675238Y-45119761D01*
X108770476Y-45167380D01*
X108960952Y-45167380D01*
X109056190Y-45119761D01*
X107246666Y-45167380D02*
X107341904Y-45119761D01*
X107389523Y-45072142D01*
X107437142Y-44976904D01*
X107437142Y-44691190D01*
X107389523Y-44595952D01*
X107341904Y-44548333D01*
X107246666Y-44500714D01*
X107103809Y-44500714D01*
X107008571Y-44548333D01*
X106960952Y-44595952D01*
X106913333Y-44691190D01*
X106913333Y-44976904D01*
X106960952Y-45072142D01*
X107008571Y-45119761D01*
X107103809Y-45167380D01*
X107246666Y-45167380D01*
X106484761Y-44500714D02*
X106484761Y-45167380D01*
X106484761Y-44595952D02*
X106437142Y-44548333D01*
X106341904Y-44500714D01*
X106199047Y-44500714D01*
X106103809Y-44548333D01*
X106056190Y-44643571D01*
X106056190Y-45167380D01*
X119532380Y-46110714D02*
X119151428Y-46110714D01*
X119389523Y-45777380D02*
X119389523Y-46634523D01*
X119341904Y-46729761D01*
X119246666Y-46777380D01*
X119151428Y-46777380D01*
X118818095Y-46777380D02*
X118818095Y-45777380D01*
X118389523Y-46777380D02*
X118389523Y-46253571D01*
X118437142Y-46158333D01*
X118532380Y-46110714D01*
X118675238Y-46110714D01*
X118770476Y-46158333D01*
X118818095Y-46205952D01*
X117532380Y-46729761D02*
X117627619Y-46777380D01*
X117818095Y-46777380D01*
X117913333Y-46729761D01*
X117960952Y-46634523D01*
X117960952Y-46253571D01*
X117913333Y-46158333D01*
X117818095Y-46110714D01*
X117627619Y-46110714D01*
X117532380Y-46158333D01*
X117484761Y-46253571D01*
X117484761Y-46348809D01*
X117960952Y-46444047D01*
X116294285Y-46110714D02*
X116294285Y-46777380D01*
X116294285Y-46205952D02*
X116246666Y-46158333D01*
X116151428Y-46110714D01*
X116008571Y-46110714D01*
X115913333Y-46158333D01*
X115865714Y-46253571D01*
X115865714Y-46777380D01*
X114960952Y-46777380D02*
X114960952Y-46253571D01*
X115008571Y-46158333D01*
X115103809Y-46110714D01*
X115294285Y-46110714D01*
X115389523Y-46158333D01*
X114960952Y-46729761D02*
X115056190Y-46777380D01*
X115294285Y-46777380D01*
X115389523Y-46729761D01*
X115437142Y-46634523D01*
X115437142Y-46539285D01*
X115389523Y-46444047D01*
X115294285Y-46396428D01*
X115056190Y-46396428D01*
X114960952Y-46348809D01*
X114056190Y-46110714D02*
X114056190Y-46777380D01*
X114484761Y-46110714D02*
X114484761Y-46634523D01*
X114437142Y-46729761D01*
X114341904Y-46777380D01*
X114199047Y-46777380D01*
X114103809Y-46729761D01*
X114056190Y-46682142D01*
X113151428Y-46110714D02*
X113151428Y-46920238D01*
X113199047Y-47015476D01*
X113246666Y-47063095D01*
X113341904Y-47110714D01*
X113484761Y-47110714D01*
X113580000Y-47063095D01*
X113151428Y-46729761D02*
X113246666Y-46777380D01*
X113437142Y-46777380D01*
X113532380Y-46729761D01*
X113580000Y-46682142D01*
X113627619Y-46586904D01*
X113627619Y-46301190D01*
X113580000Y-46205952D01*
X113532380Y-46158333D01*
X113437142Y-46110714D01*
X113246666Y-46110714D01*
X113151428Y-46158333D01*
X112675238Y-46777380D02*
X112675238Y-45777380D01*
X112246666Y-46777380D02*
X112246666Y-46253571D01*
X112294285Y-46158333D01*
X112389523Y-46110714D01*
X112532380Y-46110714D01*
X112627619Y-46158333D01*
X112675238Y-46205952D01*
X111913333Y-46110714D02*
X111532380Y-46110714D01*
X111770476Y-45777380D02*
X111770476Y-46634523D01*
X111722857Y-46729761D01*
X111627619Y-46777380D01*
X111532380Y-46777380D01*
X111294285Y-46110714D02*
X111056190Y-46777380D01*
X110818095Y-46110714D02*
X111056190Y-46777380D01*
X111151428Y-47015476D01*
X111199047Y-47063095D01*
X111294285Y-47110714D01*
X109532380Y-46777380D02*
X109627619Y-46729761D01*
X109675238Y-46634523D01*
X109675238Y-45777380D01*
X109151428Y-46777380D02*
X109151428Y-46110714D01*
X109151428Y-45777380D02*
X109199047Y-45825000D01*
X109151428Y-45872619D01*
X109103809Y-45825000D01*
X109151428Y-45777380D01*
X109151428Y-45872619D01*
X108722857Y-46729761D02*
X108627619Y-46777380D01*
X108437142Y-46777380D01*
X108341904Y-46729761D01*
X108294285Y-46634523D01*
X108294285Y-46586904D01*
X108341904Y-46491666D01*
X108437142Y-46444047D01*
X108580000Y-46444047D01*
X108675238Y-46396428D01*
X108722857Y-46301190D01*
X108722857Y-46253571D01*
X108675238Y-46158333D01*
X108580000Y-46110714D01*
X108437142Y-46110714D01*
X108341904Y-46158333D01*
X108008571Y-46110714D02*
X107627619Y-46110714D01*
X107865714Y-45777380D02*
X107865714Y-46634523D01*
X107818095Y-46729761D01*
X107722857Y-46777380D01*
X107627619Y-46777380D01*
M02*
