M48
; DRILL file {KiCad 6.0.7} date Wed Aug 31 22:31:15 2022
; FORMAT={-:-/ absolute / metric / decimal}
; #@! TF.CreationDate,2022-08-31T22:31:15-07:00
; #@! TF.GenerationSoftware,Kicad,Pcbnew,6.0.7
; #@! TF.FileFunction,MixedPlating,1,2
FMAT,2
METRIC
; #@! TA.AperFunction,Plated,PTH,ComponentDrill
T1C0.350
; #@! TA.AperFunction,Plated,PTH,ViaDrill
T2C0.400
; #@! TA.AperFunction,Plated,PTH,ComponentDrill
T3C0.600
; #@! TA.AperFunction,Plated,PTH,ViaDrill
T4C0.800
; #@! TA.AperFunction,Plated,PTH,ComponentDrill
T5C0.800
; #@! TA.AperFunction,NonPlated,NPTH,ComponentDrill
T6C0.650
; #@! TA.AperFunction,NonPlated,NPTH,ComponentDrill
T7C2.300
; #@! TA.AperFunction,NonPlated,NPTH,ComponentDrill
T8C7.200
%
G90
G05
T1
X98.225Y-69.725
X98.225Y-71.0
X98.225Y-72.275
X99.5Y-69.725
X99.5Y-71.0
X99.5Y-72.275
X100.775Y-69.725
X100.775Y-71.0
X100.775Y-72.275
T2
X75.45Y-73.4
X76.7Y-92.43
X78.45Y-73.76
X78.75Y-50.78
X78.81Y-41.63
X79.2Y-69.59
X79.73Y-48.5
X80.64Y-49.04
X80.94Y-85.0
X81.34Y-91.91
X81.7Y-71.57
X81.81Y-64.56
X83.0Y-75.0
X83.399Y-70.217
X83.73Y-62.37
X84.09Y-84.54
X84.86Y-81.99
X86.4Y-70.91
X87.68Y-56.5
X88.35Y-66.89
X88.46Y-43.11
X89.298Y-64.298
X89.38Y-68.99
X90.9Y-64.74
X92.0Y-77.0
X94.26Y-65.56
X94.59Y-85.25
X94.84Y-40.24
X95.78Y-65.55
X96.545Y-62.495
X97.07Y-68.65
X97.14Y-66.42
X97.15Y-72.0
X97.23Y-70.47
X97.91Y-68.62
X98.251Y-66.347
X98.35Y-79.93
X98.67Y-75.54
X98.82Y-68.51
X98.84Y-73.37
X99.189Y-66.644
X99.74Y-68.87
X100.31Y-79.0
X100.59Y-68.74
X100.74Y-66.44
X101.56Y-77.86
X101.86Y-70.35
X101.9Y-68.98
X101.99Y-61.56
X102.03Y-73.51
X102.138Y-76.766
X102.669Y-77.623
X103.41Y-57.47
X103.51Y-65.73
X103.88Y-61.81
X104.0Y-46.86
X104.49Y-63.93
X104.5Y-68.36
X104.67Y-61.79
X105.104Y-73.514
X105.48Y-66.02
X106.62Y-84.0
X107.03Y-76.18
X107.18Y-69.03
X107.52Y-91.1
X108.21Y-89.9
X109.52Y-72.23
X109.73Y-90.97
X110.33Y-80.02
X110.94Y-68.38
X112.88Y-74.54
X114.0Y-69.92
X114.47Y-87.76
X115.99Y-67.72
X116.73Y-84.0
X117.0Y-48.0
X118.31Y-63.71
X119.873Y-74.496
X120.36Y-92.49
X120.74Y-68.91
X120.79Y-67.5
X122.0Y-85.0
X123.13Y-77.32
T4
X77.95Y-86.19
X78.88Y-52.0
X87.71Y-86.19
X102.28Y-88.76
X116.35Y-86.21
T5
X109.0Y-65.1
X109.0Y-68.9
T6
X77.29Y-44.62
X83.07Y-44.62
T7
X100.0Y-59.65
T8
X100.0Y-84.65
T3
X75.86Y-41.27G85X75.86Y-40.67
G05
X75.86Y-45.7G85X75.86Y-44.6
G05
X84.5Y-41.27G85X84.5Y-40.67
G05
X84.5Y-45.7G85X84.5Y-44.6
G05
T0
M30
