G04 #@! TF.GenerationSoftware,KiCad,Pcbnew,6.0.7*
G04 #@! TF.CreationDate,2022-08-31T22:31:15-07:00*
G04 #@! TF.ProjectId,gbpunk,67627075-6e6b-42e6-9b69-6361645f7063,v4.0*
G04 #@! TF.SameCoordinates,Original*
G04 #@! TF.FileFunction,Soldermask,Top*
G04 #@! TF.FilePolarity,Negative*
%FSLAX46Y46*%
G04 Gerber Fmt 4.6, Leading zero omitted, Abs format (unit mm)*
G04 Created by KiCad (PCBNEW 6.0.7) date 2022-08-31 22:31:15*
%MOMM*%
%LPD*%
G01*
G04 APERTURE LIST*
G04 Aperture macros list*
%AMRoundRect*
0 Rectangle with rounded corners*
0 $1 Rounding radius*
0 $2 $3 $4 $5 $6 $7 $8 $9 X,Y pos of 4 corners*
0 Add a 4 corners polygon primitive as box body*
4,1,4,$2,$3,$4,$5,$6,$7,$8,$9,$2,$3,0*
0 Add four circle primitives for the rounded corners*
1,1,$1+$1,$2,$3*
1,1,$1+$1,$4,$5*
1,1,$1+$1,$6,$7*
1,1,$1+$1,$8,$9*
0 Add four rect primitives between the rounded corners*
20,1,$1+$1,$2,$3,$4,$5,0*
20,1,$1+$1,$4,$5,$6,$7,0*
20,1,$1+$1,$6,$7,$8,$9,0*
20,1,$1+$1,$8,$9,$2,$3,0*%
G04 Aperture macros list end*
%ADD10C,7.200000*%
%ADD11C,2.300000*%
%ADD12RoundRect,0.155000X0.155000X-0.212500X0.155000X0.212500X-0.155000X0.212500X-0.155000X-0.212500X0*%
%ADD13RoundRect,0.100000X0.100000X-0.637500X0.100000X0.637500X-0.100000X0.637500X-0.100000X-0.637500X0*%
%ADD14RoundRect,0.155000X-0.155000X0.212500X-0.155000X-0.212500X0.155000X-0.212500X0.155000X0.212500X0*%
%ADD15RoundRect,0.155000X-0.212500X-0.155000X0.212500X-0.155000X0.212500X0.155000X-0.212500X0.155000X0*%
%ADD16RoundRect,0.160000X0.197500X0.160000X-0.197500X0.160000X-0.197500X-0.160000X0.197500X-0.160000X0*%
%ADD17RoundRect,0.237500X-0.237500X0.250000X-0.237500X-0.250000X0.237500X-0.250000X0.237500X0.250000X0*%
%ADD18RoundRect,0.237500X0.250000X0.237500X-0.250000X0.237500X-0.250000X-0.237500X0.250000X-0.237500X0*%
%ADD19RoundRect,0.250000X-0.412500X-0.650000X0.412500X-0.650000X0.412500X0.650000X-0.412500X0.650000X0*%
%ADD20RoundRect,0.250000X0.475000X-0.337500X0.475000X0.337500X-0.475000X0.337500X-0.475000X-0.337500X0*%
%ADD21R,2.400000X0.740000*%
%ADD22C,1.500000*%
%ADD23R,2.750000X1.000000*%
%ADD24C,0.650000*%
%ADD25R,0.600000X1.450000*%
%ADD26R,0.300000X1.450000*%
%ADD27O,1.000000X2.100000*%
%ADD28O,1.000000X1.600000*%
%ADD29RoundRect,0.155000X0.212500X0.155000X-0.212500X0.155000X-0.212500X-0.155000X0.212500X-0.155000X0*%
%ADD30R,1.300000X6.000000*%
%ADD31R,1.000000X5.500000*%
%ADD32RoundRect,0.155000X-0.259862X0.040659X0.040659X-0.259862X0.259862X-0.040659X-0.040659X0.259862X0*%
%ADD33RoundRect,0.160000X-0.197500X-0.160000X0.197500X-0.160000X0.197500X0.160000X-0.197500X0.160000X0*%
%ADD34RoundRect,0.150000X-0.650000X-0.150000X0.650000X-0.150000X0.650000X0.150000X-0.650000X0.150000X0*%
%ADD35RoundRect,0.237500X0.237500X-0.250000X0.237500X0.250000X-0.237500X0.250000X-0.237500X-0.250000X0*%
%ADD36R,2.000000X1.500000*%
%ADD37R,2.000000X3.800000*%
%ADD38RoundRect,0.160000X-0.160000X0.197500X-0.160000X-0.197500X0.160000X-0.197500X0.160000X0.197500X0*%
%ADD39RoundRect,0.050000X-0.387500X-0.050000X0.387500X-0.050000X0.387500X0.050000X-0.387500X0.050000X0*%
%ADD40RoundRect,0.050000X-0.050000X-0.387500X0.050000X-0.387500X0.050000X0.387500X-0.050000X0.387500X0*%
%ADD41RoundRect,0.144000X-1.456000X-1.456000X1.456000X-1.456000X1.456000X1.456000X-1.456000X1.456000X0*%
%ADD42RoundRect,0.237500X0.287500X0.237500X-0.287500X0.237500X-0.287500X-0.237500X0.287500X-0.237500X0*%
%ADD43RoundRect,0.250001X0.462499X0.624999X-0.462499X0.624999X-0.462499X-0.624999X0.462499X-0.624999X0*%
%ADD44RoundRect,0.237500X-0.250000X-0.237500X0.250000X-0.237500X0.250000X0.237500X-0.250000X0.237500X0*%
%ADD45RoundRect,0.250000X-0.650000X0.412500X-0.650000X-0.412500X0.650000X-0.412500X0.650000X0.412500X0*%
G04 APERTURE END LIST*
D10*
G04 #@! TO.C,MK1*
X100000000Y-84650000D03*
G04 #@! TD*
D11*
G04 #@! TO.C,MK2*
X100000000Y-59650000D03*
G04 #@! TD*
D12*
G04 #@! TO.C,C20*
X102040000Y-65067500D03*
X102040000Y-63932500D03*
G04 #@! TD*
G04 #@! TO.C,C13*
X96500000Y-65067500D03*
X96500000Y-63932500D03*
G04 #@! TD*
D13*
G04 #@! TO.C,U7*
X116425000Y-87862500D03*
X117075000Y-87862500D03*
X117725000Y-87862500D03*
X118375000Y-87862500D03*
X119025000Y-87862500D03*
X119675000Y-87862500D03*
X120325000Y-87862500D03*
X120975000Y-87862500D03*
X121625000Y-87862500D03*
X122275000Y-87862500D03*
X122925000Y-87862500D03*
X123575000Y-87862500D03*
X123575000Y-82137500D03*
X122925000Y-82137500D03*
X122275000Y-82137500D03*
X121625000Y-82137500D03*
X120975000Y-82137500D03*
X120325000Y-82137500D03*
X119675000Y-82137500D03*
X119025000Y-82137500D03*
X118375000Y-82137500D03*
X117725000Y-82137500D03*
X117075000Y-82137500D03*
X116425000Y-82137500D03*
G04 #@! TD*
D14*
G04 #@! TO.C,C17*
X93820000Y-73652500D03*
X93820000Y-74787500D03*
G04 #@! TD*
D15*
G04 #@! TO.C,C14*
X104432500Y-67500000D03*
X105567500Y-67500000D03*
G04 #@! TD*
G04 #@! TO.C,C22*
X84432500Y-65500000D03*
X85567500Y-65500000D03*
G04 #@! TD*
D16*
G04 #@! TO.C,R9*
X94060000Y-67000000D03*
X92865000Y-67000000D03*
G04 #@! TD*
D17*
G04 #@! TO.C,R13*
X115000000Y-84087500D03*
X115000000Y-85912500D03*
G04 #@! TD*
D18*
G04 #@! TO.C,R6*
X103412500Y-90000000D03*
X101587500Y-90000000D03*
G04 #@! TD*
D19*
G04 #@! TO.C,C21*
X94437500Y-50000000D03*
X97562500Y-50000000D03*
G04 #@! TD*
D20*
G04 #@! TO.C,C11*
X93000000Y-65037500D03*
X93000000Y-62962500D03*
G04 #@! TD*
D17*
G04 #@! TO.C,R11*
X103500000Y-63087500D03*
X103500000Y-64912500D03*
G04 #@! TD*
D21*
G04 #@! TO.C,J4*
X118550000Y-67460000D03*
X122450000Y-67460000D03*
X118550000Y-68730000D03*
X122450000Y-68730000D03*
X118550000Y-70000000D03*
X122450000Y-70000000D03*
X118550000Y-71270000D03*
X122450000Y-71270000D03*
X118550000Y-72540000D03*
X122450000Y-72540000D03*
G04 #@! TD*
D16*
G04 #@! TO.C,R19*
X78597500Y-65500000D03*
X77402500Y-65500000D03*
G04 #@! TD*
D17*
G04 #@! TO.C,R12*
X105500000Y-63087500D03*
X105500000Y-64912500D03*
G04 #@! TD*
D22*
G04 #@! TO.C,Y1*
X109000000Y-68900000D03*
X109000000Y-65100000D03*
G04 #@! TD*
D23*
G04 #@! TO.C,SW9*
X79620000Y-54500000D03*
X85380000Y-54500000D03*
X85380000Y-58500000D03*
X79620000Y-58500000D03*
G04 #@! TD*
D18*
G04 #@! TO.C,R2*
X123325000Y-91000000D03*
X121500000Y-91000000D03*
G04 #@! TD*
D24*
G04 #@! TO.C,P1*
X83070000Y-44620000D03*
X77290000Y-44620000D03*
D25*
X83430000Y-46065000D03*
X82630000Y-46065000D03*
D26*
X81430000Y-46065000D03*
X80430000Y-46065000D03*
X79930000Y-46065000D03*
X78930000Y-46065000D03*
D25*
X77730000Y-46065000D03*
X76930000Y-46065000D03*
X76930000Y-46065000D03*
X77730000Y-46065000D03*
D26*
X78430000Y-46065000D03*
X79430000Y-46065000D03*
X80930000Y-46065000D03*
X81930000Y-46065000D03*
D25*
X82630000Y-46065000D03*
X83430000Y-46065000D03*
D27*
X84500000Y-45150000D03*
X75860000Y-45150000D03*
D28*
X84500000Y-40970000D03*
X75860000Y-40970000D03*
G04 #@! TD*
D29*
G04 #@! TO.C,C8*
X113027500Y-67410000D03*
X111892500Y-67410000D03*
G04 #@! TD*
D17*
G04 #@! TO.C,R5*
X86000000Y-84087500D03*
X86000000Y-85912500D03*
G04 #@! TD*
D30*
G04 #@! TO.C,J1*
X76690000Y-95930000D03*
D31*
X78340000Y-95680000D03*
X79840000Y-95680000D03*
X81340000Y-95680000D03*
X82840000Y-95680000D03*
X84340000Y-95680000D03*
X85840000Y-95680000D03*
X87340000Y-95680000D03*
X88840000Y-95680000D03*
X90340000Y-95680000D03*
X91840000Y-95680000D03*
X93340000Y-95680000D03*
X94840000Y-95680000D03*
X96340000Y-95680000D03*
X97840000Y-95680000D03*
X99340000Y-95680000D03*
X100840000Y-95680000D03*
X102340000Y-95680000D03*
X103840000Y-95680000D03*
X105340000Y-95680000D03*
X106840000Y-95680000D03*
X108340000Y-95680000D03*
X109840000Y-95680000D03*
X111340000Y-95680000D03*
X112840000Y-95680000D03*
X114340000Y-95680000D03*
X115840000Y-95680000D03*
X117340000Y-95680000D03*
X118840000Y-95680000D03*
X120340000Y-95680000D03*
X121840000Y-95680000D03*
D30*
X123490000Y-95930000D03*
G04 #@! TD*
D14*
G04 #@! TO.C,C16*
X99000000Y-76432500D03*
X99000000Y-77567500D03*
G04 #@! TD*
D13*
G04 #@! TO.C,U6*
X105425000Y-87862500D03*
X106075000Y-87862500D03*
X106725000Y-87862500D03*
X107375000Y-87862500D03*
X108025000Y-87862500D03*
X108675000Y-87862500D03*
X109325000Y-87862500D03*
X109975000Y-87862500D03*
X110625000Y-87862500D03*
X111275000Y-87862500D03*
X111925000Y-87862500D03*
X112575000Y-87862500D03*
X112575000Y-82137500D03*
X111925000Y-82137500D03*
X111275000Y-82137500D03*
X110625000Y-82137500D03*
X109975000Y-82137500D03*
X109325000Y-82137500D03*
X108675000Y-82137500D03*
X108025000Y-82137500D03*
X107375000Y-82137500D03*
X106725000Y-82137500D03*
X106075000Y-82137500D03*
X105425000Y-82137500D03*
G04 #@! TD*
D32*
G04 #@! TO.C,C15*
X105098717Y-74598717D03*
X105901283Y-75401283D03*
G04 #@! TD*
D33*
G04 #@! TO.C,R18*
X86912500Y-47100000D03*
X88107500Y-47100000D03*
G04 #@! TD*
D34*
G04 #@! TO.C,U3*
X77900000Y-67095000D03*
X77900000Y-68365000D03*
X77900000Y-69635000D03*
X77900000Y-70905000D03*
X85100000Y-70905000D03*
X85100000Y-69635000D03*
X85100000Y-68365000D03*
X85100000Y-67095000D03*
G04 #@! TD*
D35*
G04 #@! TO.C,R7*
X104000000Y-80912500D03*
X104000000Y-79087500D03*
G04 #@! TD*
D18*
G04 #@! TO.C,R1*
X76912500Y-90000000D03*
X75087500Y-90000000D03*
G04 #@! TD*
D23*
G04 #@! TO.C,SW7*
X115620000Y-54500000D03*
X121380000Y-54500000D03*
X115620000Y-58500000D03*
X121380000Y-58500000D03*
G04 #@! TD*
D12*
G04 #@! TO.C,C19*
X98000000Y-65067500D03*
X98000000Y-63932500D03*
G04 #@! TD*
D36*
G04 #@! TO.C,U4*
X94850000Y-42700000D03*
X94850000Y-45000000D03*
D37*
X101150000Y-45000000D03*
D36*
X94850000Y-47300000D03*
G04 #@! TD*
D13*
G04 #@! TO.C,U2*
X76425000Y-87862500D03*
X77075000Y-87862500D03*
X77725000Y-87862500D03*
X78375000Y-87862500D03*
X79025000Y-87862500D03*
X79675000Y-87862500D03*
X80325000Y-87862500D03*
X80975000Y-87862500D03*
X81625000Y-87862500D03*
X82275000Y-87862500D03*
X82925000Y-87862500D03*
X83575000Y-87862500D03*
X83575000Y-82137500D03*
X82925000Y-82137500D03*
X82275000Y-82137500D03*
X81625000Y-82137500D03*
X80975000Y-82137500D03*
X80325000Y-82137500D03*
X79675000Y-82137500D03*
X79025000Y-82137500D03*
X78375000Y-82137500D03*
X77725000Y-82137500D03*
X77075000Y-82137500D03*
X76425000Y-82137500D03*
G04 #@! TD*
G04 #@! TO.C,U5*
X87425000Y-87862500D03*
X88075000Y-87862500D03*
X88725000Y-87862500D03*
X89375000Y-87862500D03*
X90025000Y-87862500D03*
X90675000Y-87862500D03*
X91325000Y-87862500D03*
X91975000Y-87862500D03*
X92625000Y-87862500D03*
X93275000Y-87862500D03*
X93925000Y-87862500D03*
X94575000Y-87862500D03*
X94575000Y-82137500D03*
X93925000Y-82137500D03*
X93275000Y-82137500D03*
X92625000Y-82137500D03*
X91975000Y-82137500D03*
X91325000Y-82137500D03*
X90675000Y-82137500D03*
X90025000Y-82137500D03*
X89375000Y-82137500D03*
X88725000Y-82137500D03*
X88075000Y-82137500D03*
X87425000Y-82137500D03*
G04 #@! TD*
D38*
G04 #@! TO.C,R8*
X122000000Y-60402500D03*
X122000000Y-61597500D03*
G04 #@! TD*
D39*
G04 #@! TO.C,U1*
X96062500Y-68400000D03*
X96062500Y-68800000D03*
X96062500Y-69200000D03*
X96062500Y-69600000D03*
X96062500Y-70000000D03*
X96062500Y-70400000D03*
X96062500Y-70800000D03*
X96062500Y-71200000D03*
X96062500Y-71600000D03*
X96062500Y-72000000D03*
X96062500Y-72400000D03*
X96062500Y-72800000D03*
X96062500Y-73200000D03*
X96062500Y-73600000D03*
D40*
X96900000Y-74437500D03*
X97300000Y-74437500D03*
X97700000Y-74437500D03*
X98100000Y-74437500D03*
X98500000Y-74437500D03*
X98900000Y-74437500D03*
X99300000Y-74437500D03*
X99700000Y-74437500D03*
X100100000Y-74437500D03*
X100500000Y-74437500D03*
X100900000Y-74437500D03*
X101300000Y-74437500D03*
X101700000Y-74437500D03*
X102100000Y-74437500D03*
D39*
X102937500Y-73600000D03*
X102937500Y-73200000D03*
X102937500Y-72800000D03*
X102937500Y-72400000D03*
X102937500Y-72000000D03*
X102937500Y-71600000D03*
X102937500Y-71200000D03*
X102937500Y-70800000D03*
X102937500Y-70400000D03*
X102937500Y-70000000D03*
X102937500Y-69600000D03*
X102937500Y-69200000D03*
X102937500Y-68800000D03*
X102937500Y-68400000D03*
D40*
X102100000Y-67562500D03*
X101700000Y-67562500D03*
X101300000Y-67562500D03*
X100900000Y-67562500D03*
X100500000Y-67562500D03*
X100100000Y-67562500D03*
X99700000Y-67562500D03*
X99300000Y-67562500D03*
X98900000Y-67562500D03*
X98500000Y-67562500D03*
X98100000Y-67562500D03*
X97700000Y-67562500D03*
X97300000Y-67562500D03*
X96900000Y-67562500D03*
D41*
X99500000Y-71000000D03*
G04 #@! TD*
D18*
G04 #@! TO.C,R4*
X87912500Y-90000000D03*
X86087500Y-90000000D03*
G04 #@! TD*
D15*
G04 #@! TO.C,C7*
X111892500Y-64910000D03*
X113027500Y-64910000D03*
G04 #@! TD*
D29*
G04 #@! TO.C,C18*
X94067500Y-68000000D03*
X92932500Y-68000000D03*
G04 #@! TD*
D42*
G04 #@! TO.C,D1*
X88845000Y-40240000D03*
X87095000Y-40240000D03*
G04 #@! TD*
D43*
G04 #@! TO.C,F1*
X88077500Y-50070000D03*
X85102500Y-50070000D03*
G04 #@! TD*
D14*
G04 #@! TO.C,C10*
X100000000Y-76932500D03*
X100000000Y-78067500D03*
G04 #@! TD*
D16*
G04 #@! TO.C,R10*
X113057500Y-68410000D03*
X111862500Y-68410000D03*
G04 #@! TD*
D12*
G04 #@! TO.C,C9*
X95000000Y-65067500D03*
X95000000Y-63932500D03*
G04 #@! TD*
D20*
G04 #@! TO.C,C12*
X100000000Y-65037500D03*
X100000000Y-62962500D03*
G04 #@! TD*
D44*
G04 #@! TO.C,R14*
X91402500Y-40200000D03*
X93227500Y-40200000D03*
G04 #@! TD*
D35*
G04 #@! TO.C,R3*
X77500000Y-78412500D03*
X77500000Y-76587500D03*
G04 #@! TD*
D45*
G04 #@! TO.C,C23*
X92000000Y-44437500D03*
X92000000Y-47562500D03*
G04 #@! TD*
M02*
